<?xml version="1.0" encoding="UTF-8"?>
<svg width="386px" height="16px" viewBox="0 0 386 16" version="1.1" xmlns="http://www.w3.org/2000/svg" xmlns:xlink="http://www.w3.org/1999/xlink">
    <title>Introducing PACEMAKE</title>
    <g id="mainpage" stroke="none" stroke-width="1" fill="none" fill-rule="evenodd">
        <g id="PM-NFT-LP-Desktop-Copy-65" transform="translate(-518.000000, -313.000000)" fill="#FF3C4A" fill-rule="nonzero">
            <g id="Introducing-PACEMAKE" transform="translate(518.526230, 313.380000)">
                <polygon id="Path" points="0 11.5 3.88 11.5 3.88 3.34 0 3.34 0 0.36 10.94 0.36 10.94 3.34 7.06 3.34 7.06 11.5 10.94 11.5 10.94 14.62 0 14.62"></polygon>
                <polygon id="Path" points="12.7459016 14.62 12.7459016 0.36 16.1059016 0.36 24.7659016 10.04 24.8859016 10.22 24.8859016 0.36 28.1059016 0.36 28.1059016 14.62 24.8859016 14.62 16.1259016 4.84 15.9859016 4.64 15.9859016 14.62"></polygon>
                <polygon id="Path" points="34.7518033 14.62 34.7518033 3.22 29.6318033 3.22 29.6318033 0.36 43.5518033 0.36 43.5518033 3.22 38.1918033 3.22 38.1918033 14.62"></polygon>
                <path d="M45.0777049,14.62 L45.0777049,0.36 L52.5777049,0.36 C55.0843716,0.36 56.8910383,0.72 57.9977049,1.44 C59.1043716,2.16 59.6577049,3.3 59.6577049,4.86 C59.6577049,5.92666667 59.4010383,6.76 58.8877049,7.36 C58.3743716,7.96 57.5910383,8.38666667 56.5377049,8.64 C57.5777049,8.86666667 58.3410383,9.29333333 58.8277049,9.92 C59.3143716,10.5466667 59.5577049,11.4933333 59.5577049,12.76 L59.5577049,13.7 C59.5577049,13.8733333 59.5777049,14.0466667 59.6177049,14.22 C59.6577049,14.3933333 59.7510383,14.5266667 59.8977049,14.62 L56.3977049,14.62 C56.2110383,14.5533333 56.0977049,14.4233333 56.0577049,14.23 C56.0177049,14.0366667 55.9977049,13.8466667 55.9977049,13.66 L55.9977049,12.78 C55.9977049,12.06 55.8877049,11.5 55.6677049,11.1 C55.4477049,10.7 55.0810383,10.42 54.5677049,10.26 C54.0543716,10.1 53.3443716,10.02 52.4377049,10.02 L48.4177049,10.02 L48.4177049,14.62 L45.0777049,14.62 Z M52.5377049,3.2 L48.4177049,3.2 L48.4177049,7.16 L52.4177049,7.16 C53.1510383,7.16 53.8043716,7.12333333 54.3777049,7.05 C54.9510383,6.97666667 55.3977049,6.81333333 55.7177049,6.56 C56.0377049,6.30666667 56.1977049,5.89333333 56.1977049,5.32 L56.1977049,5.06 C56.1977049,4.52666667 56.0677049,4.12666667 55.8077049,3.86 C55.5477049,3.59333333 55.1477049,3.41666667 54.6077049,3.33 C54.0677049,3.24333333 53.3777049,3.2 52.5377049,3.2 Z" id="Shape"></path>
                <path d="M69.3636066,15.02 C67.6569399,15.02 66.1636066,14.76 64.8836066,14.24 C63.6036066,13.72 62.6102732,12.9166667 61.9036066,11.83 C61.1969399,10.7433333 60.8436066,9.34666667 60.8436066,7.64 L60.8436066,7.54 C60.8436066,5.94 61.2102732,4.58 61.9436066,3.46 C62.6769399,2.34 63.6836066,1.48333333 64.9636066,0.89 C66.2436066,0.296666667 67.7036066,0 69.3436066,0 C70.9836066,0 72.4469399,0.29 73.7336066,0.87 C75.0202732,1.45 76.0369399,2.3 76.7836066,3.42 C77.5302732,4.54 77.9036066,5.90666667 77.9036066,7.52 L77.9036066,7.66 C77.9036066,9.32666667 77.5402732,10.7 76.8136066,11.78 C76.0869399,12.86 75.0802732,13.67 73.7936066,14.21 C72.5069399,14.75 71.0302732,15.02 69.3636066,15.02 Z M69.3436066,11.98 C70.3969399,11.98 71.3036066,11.8433333 72.0636066,11.57 C72.8236066,11.2966667 73.4102732,10.8433333 73.8236066,10.21 C74.2369399,9.57666667 74.4436066,8.72 74.4436066,7.64 L74.4436066,7.62 C74.4436066,6.5 74.2369399,5.60333333 73.8236066,4.93 C73.4102732,4.25666667 72.8269399,3.77 72.0736066,3.47 C71.3202732,3.17 70.4169399,3.02 69.3636066,3.02 C67.7769399,3.02 66.5369399,3.38 65.6436066,4.1 C64.7502732,4.82 64.3036066,5.98666667 64.3036066,7.6 L64.3036066,7.62 C64.3036066,9.11333333 64.7502732,10.2133333 65.6436066,10.92 C66.5369399,11.6266667 67.7702732,11.98 69.3436066,11.98 Z" id="Shape"></path>
                <path d="M79.6495082,0.36 L86.2895082,0.36 C89.2095082,0.36 91.4161749,0.93 92.9095082,2.07 C94.4028415,3.21 95.1495082,5.02666667 95.1495082,7.52 L95.1495082,7.62 C95.1495082,10.0866667 94.4095082,11.87 92.9295082,12.97 C91.4495082,14.07 89.3028415,14.62 86.4895082,14.62 L79.6495082,14.62 L79.6495082,0.36 Z M86.1495082,3.26 L82.9695082,3.26 L82.9695082,11.7 L86.3095082,11.7 C87.6295082,11.7 88.6861749,11.5666667 89.4795082,11.3 C90.2728415,11.0333333 90.8461749,10.6 91.1995082,10 C91.5528415,9.4 91.7295082,8.58666667 91.7295082,7.56 L91.7295082,7.5 C91.7295082,6.47333333 91.5461749,5.65 91.1795082,5.03 C90.8128415,4.41 90.2195082,3.96 89.3995082,3.68 C88.5795082,3.4 87.4961749,3.26 86.1495082,3.26 Z" id="Shape"></path>
                <path d="M104.37541,15.02 C102.708743,15.02 101.302077,14.7466667 100.15541,14.2 C99.0087432,13.6533333 98.1420765,12.7733333 97.5554098,11.56 C96.9687432,10.3466667 96.6754098,8.74 96.6754098,6.74 L96.6754098,0.36 L100.19541,0.36 L100.19541,6.64 C100.19541,7.93333333 100.35541,8.95333333 100.67541,9.7 C100.99541,10.4466667 101.468743,10.9833333 102.09541,11.31 C102.722077,11.6366667 103.49541,11.8 104.41541,11.8 C105.33541,11.8 106.102077,11.6433333 106.71541,11.33 C107.328743,11.0166667 107.78541,10.4833333 108.08541,9.73 C108.38541,8.97666667 108.53541,7.94666667 108.53541,6.64 L108.53541,0.36 L112.05541,0.36 L112.05541,6.74 C112.05541,8.74 111.748743,10.3466667 111.13541,11.56 C110.522077,12.7733333 109.642077,13.6533333 108.49541,14.2 C107.348743,14.7466667 105.97541,15.02 104.37541,15.02 Z" id="Path"></path>
                <path d="M121.881311,15.02 C120.187978,15.02 118.717978,14.7666667 117.471311,14.26 C116.224645,13.7533333 115.254645,12.96 114.561311,11.88 C113.867978,10.8 113.521311,9.38666667 113.521311,7.64 L113.521311,7.54 C113.521311,5.94 113.894645,4.58 114.641311,3.46 C115.387978,2.34 116.414645,1.48333333 117.721311,0.89 C119.027978,0.296666667 120.527978,0 122.221311,0 C123.674645,0 124.977978,0.216666667 126.131311,0.65 C127.284645,1.08333333 128.237978,1.74333333 128.991311,2.63 C129.744645,3.51666667 130.254645,4.64 130.521311,6 L126.901311,6 C126.714645,5.05333333 126.237978,4.32 125.471311,3.8 C124.704645,3.28 123.627978,3.02 122.241311,3.02 C120.601311,3.02 119.314645,3.37333333 118.381311,4.08 C117.447978,4.78666667 116.981311,5.94666667 116.981311,7.56 L116.981311,7.6 C116.981311,9.12 117.427978,10.23 118.321311,10.93 C119.214645,11.63 120.474645,11.98 122.101311,11.98 C123.674645,11.98 124.834645,11.6833333 125.581311,11.09 C126.327978,10.4966667 126.781311,9.65333333 126.941311,8.56 L130.601311,8.56 C130.401311,9.88 129.957978,11.0233333 129.271311,11.99 C128.584645,12.9566667 127.634645,13.7033333 126.421311,14.23 C125.207978,14.7566667 123.694645,15.02 121.881311,15.02 Z" id="Path"></path>
                <polygon id="Path" points="131.127213 11.5 135.007213 11.5 135.007213 3.34 131.127213 3.34 131.127213 0.36 142.067213 0.36 142.067213 3.34 138.187213 3.34 138.187213 11.5 142.067213 11.5 142.067213 14.62 131.127213 14.62"></polygon>
                <polygon id="Path" points="143.873115 14.62 143.873115 0.36 147.233115 0.36 155.893115 10.04 156.013115 10.22 156.013115 0.36 159.233115 0.36 159.233115 14.62 156.013115 14.62 147.253115 4.84 147.113115 4.64 147.113115 14.62"></polygon>
                <path d="M168.879016,15.02 C167.319016,15.02 165.945683,14.7633333 164.759016,14.25 C163.57235,13.7366667 162.645683,12.94 161.979016,11.86 C161.31235,10.78 160.979016,9.38666667 160.979016,7.68 L160.979016,7.58 C160.979016,5.98 161.349016,4.61666667 162.089016,3.49 C162.829016,2.36333333 163.845683,1.5 165.139016,0.9 C166.43235,0.3 167.905683,0 169.559016,0 C171.85235,0 173.729016,0.426666667 175.189016,1.28 C176.649016,2.13333333 177.539016,3.49333333 177.859016,5.36 L174.019016,5.36 C173.859016,4.58666667 173.429016,4.00333333 172.729016,3.61 C172.029016,3.21666667 171.005683,3.02 169.659016,3.02 C168.005683,3.02 166.72235,3.38666667 165.809016,4.12 C164.895683,4.85333333 164.439016,6.02666667 164.439016,7.64 L164.439016,7.66 C164.439016,10.66 166.119016,12.1533333 169.479016,12.14 C171.025683,12.14 172.229016,11.9333333 173.089016,11.52 C173.949016,11.1066667 174.479016,10.5 174.679016,9.7 L169.099016,9.7 L169.099016,6.92 L177.959016,6.92 L177.959016,14.62 L175.179016,14.62 L174.979016,10.72 C174.765683,12.1333333 174.14235,13.2033333 173.109016,13.93 C172.075683,14.6566667 170.665683,15.02 168.879016,15.02 Z" id="Path"></path>
                <path d="M184.43082,14.62 L184.43082,0.36 L191.71082,0.36 C193.51082,0.36 194.954153,0.536666667 196.04082,0.89 C197.127486,1.24333333 197.914153,1.79 198.40082,2.53 C198.887486,3.27 199.13082,4.22 199.13082,5.38 C199.13082,6.98 198.54082,8.18666667 197.36082,9 C196.18082,9.81333333 194.404153,10.2133333 192.03082,10.2 L187.75082,10.2 L187.75082,14.62 L184.43082,14.62 Z M191.73082,3.18 L187.75082,3.18 L187.75082,7.38 L191.83082,7.38 C193.284153,7.38 194.30082,7.23666667 194.88082,6.95 C195.46082,6.66333333 195.75082,6.13333333 195.75082,5.36 C195.75082,4.70666667 195.607486,4.22666667 195.32082,3.92 C195.034153,3.61333333 194.594153,3.41333333 194.00082,3.32 C193.407486,3.22666667 192.65082,3.18 191.73082,3.18 Z" id="Shape"></path>
                <path d="M197.216721,14.62 L204.436721,0.36 L207.976721,0.36 L215.316721,14.62 L211.736721,14.62 L210.216721,11.52 L202.316721,11.52 L200.836721,14.62 L197.216721,14.62 Z M203.616721,8.8 L208.856721,8.8 L206.196721,3.38 L203.616721,8.8 Z" id="Shape"></path>
                <path d="M223.162623,15.02 C221.46929,15.02 219.99929,14.7666667 218.752623,14.26 C217.505956,13.7533333 216.535956,12.96 215.842623,11.88 C215.14929,10.8 214.802623,9.38666667 214.802623,7.64 L214.802623,7.54 C214.802623,5.94 215.175956,4.58 215.922623,3.46 C216.66929,2.34 217.695956,1.48333333 219.002623,0.89 C220.30929,0.296666667 221.80929,0 223.502623,0 C224.955956,0 226.25929,0.216666667 227.412623,0.65 C228.565956,1.08333333 229.51929,1.74333333 230.272623,2.63 C231.025956,3.51666667 231.535956,4.64 231.802623,6 L228.182623,6 C227.995956,5.05333333 227.51929,4.32 226.752623,3.8 C225.985956,3.28 224.90929,3.02 223.522623,3.02 C221.882623,3.02 220.595956,3.37333333 219.662623,4.08 C218.72929,4.78666667 218.262623,5.94666667 218.262623,7.56 L218.262623,7.6 C218.262623,9.12 218.70929,10.23 219.602623,10.93 C220.495956,11.63 221.755956,11.98 223.382623,11.98 C224.955956,11.98 226.115956,11.6833333 226.862623,11.09 C227.60929,10.4966667 228.062623,9.65333333 228.222623,8.56 L231.882623,8.56 C231.682623,9.88 231.23929,11.0233333 230.552623,11.99 C229.865956,12.9566667 228.915956,13.7033333 227.702623,14.23 C226.48929,14.7566667 224.975956,15.02 223.162623,15.02 Z" id="Path"></path>
                <polygon id="Path" points="233.188525 14.62 233.188525 0.36 246.808525 0.36 246.808525 3.18 236.408525 3.18 236.408525 6.06 245.208525 6.06 245.208525 8.88 236.408525 8.88 236.408525 11.7 247.228525 11.7 247.228525 14.62"></polygon>
                <polygon id="Path" points="248.814426 14.62 248.814426 0.36 251.954426 0.36 257.494426 6.84 263.294426 0.36 266.214426 0.36 266.214426 14.62 262.974426 14.62 262.974426 5 257.514426 11.02 257.274426 11.02 252.054426 5.06 252.054426 14.62"></polygon>
                <path d="M267.080328,14.62 L274.300328,0.36 L277.840328,0.36 L285.180328,14.62 L281.600328,14.62 L280.080328,11.52 L272.180328,11.52 L270.700328,14.62 L267.080328,14.62 Z M273.480328,8.8 L278.720328,8.8 L276.060328,3.38 L273.480328,8.8 Z" id="Shape"></path>
                <polygon id="Path" points="286.02623 0.36 289.38623 0.36 289.38623 7.22 297.20623 0.36 301.72623 0.36 295.50623 5.74 301.98623 14.62 297.98623 14.62 293.06623 7.56 289.38623 10.66 289.38623 14.62 286.02623 14.62"></polygon>
                <polygon id="Path" points="302.732131 14.62 302.732131 0.36 316.352131 0.36 316.352131 3.18 305.952131 3.18 305.952131 6.06 314.752131 6.06 314.752131 8.88 305.952131 8.88 305.952131 11.7 316.772131 11.7 316.772131 14.62"></polygon>
                <path d="M318.358033,14.62 L318.358033,0.36 L325.858033,0.36 C328.364699,0.36 330.171366,0.72 331.278033,1.44 C332.384699,2.16 332.938033,3.3 332.938033,4.86 C332.938033,5.92666667 332.681366,6.76 332.168033,7.36 C331.654699,7.96 330.871366,8.38666667 329.818033,8.64 C330.858033,8.86666667 331.621366,9.29333333 332.108033,9.92 C332.594699,10.5466667 332.838033,11.4933333 332.838033,12.76 L332.838033,13.7 C332.838033,13.8733333 332.858033,14.0466667 332.898033,14.22 C332.938033,14.3933333 333.031366,14.5266667 333.178033,14.62 L329.678033,14.62 C329.491366,14.5533333 329.378033,14.4233333 329.338033,14.23 C329.298033,14.0366667 329.278033,13.8466667 329.278033,13.66 L329.278033,12.78 C329.278033,12.06 329.168033,11.5 328.948033,11.1 C328.728033,10.7 328.361366,10.42 327.848033,10.26 C327.334699,10.1 326.624699,10.02 325.718033,10.02 L321.698033,10.02 L321.698033,14.62 L318.358033,14.62 Z M325.818033,3.2 L321.698033,3.2 L321.698033,7.16 L325.698033,7.16 C326.431366,7.16 327.084699,7.12333333 327.658033,7.05 C328.231366,6.97666667 328.678033,6.81333333 328.998033,6.56 C329.318033,6.30666667 329.478033,5.89333333 329.478033,5.32 L329.478033,5.06 C329.478033,4.52666667 329.348033,4.12666667 329.088033,3.86 C328.828033,3.59333333 328.428033,3.41666667 327.888033,3.33 C327.348033,3.24333333 326.658033,3.2 325.818033,3.2 Z" id="Shape"></path>
                <polygon id="Path" points="339.069836 14.62 339.069836 0.36 342.429836 0.36 351.089836 10.04 351.209836 10.22 351.209836 0.36 354.429836 0.36 354.429836 14.62 351.209836 14.62 342.449836 4.84 342.309836 4.64 342.309836 14.62"></polygon>
                <polygon id="Path" points="356.855738 14.62 356.855738 0.36 370.075738 0.36 370.075738 3.32 360.155738 3.32 360.155738 6.52 369.795738 6.52 369.795738 9.5 360.155738 9.5 360.155738 14.62"></polygon>
                <polygon id="Path" points="376.181639 14.62 376.181639 3.22 371.061639 3.22 371.061639 0.36 384.981639 0.36 384.981639 3.22 379.621639 3.22 379.621639 14.62"></polygon>
            </g>
        </g>
    </g>
</svg>