<svg width="32px" height="28px" viewBox="0 0 32 28" version="1.1" xmlns="http://www.w3.org/2000/svg" xmlns:xlink="http://www.w3.org/1999/xlink">
    <g id="mainpage" stroke="none" stroke-width="1" fill="none" fill-rule="evenodd">
        <g id="OpenSea_icon" fill="#FFFFFF" fill-rule="nonzero">
            <path d="M2.036814,15.651688 L2.14796184,15.4788066 L8.8503258,5.10500371 C8.94828224,4.95312705 9.17856489,4.96882964 9.25266345,5.13380878 C10.3723864,7.61660214 11.3385533,10.704404 10.8859234,12.6267475 C10.6926901,13.4176889 10.1632822,14.4888298 9.56765961,15.4788066 C9.49093308,15.622883 9.40621957,15.7643082 9.31619858,15.9004823 C9.27384182,15.9633436 9.20237124,16 9.12559318,16 L2.23267535,16 C2.04737743,16 1.93885756,15.8009646 2.036814,15.651688 Z" id="Path"></path>
            <path d="M32,17.8966835 L32,19.5222278 C32,19.6155443 31.941341,19.6985148 31.8559999,19.7348017 C31.3333636,19.9525739 29.544004,20.7510887 28.8000208,21.7570296 C26.9013373,24.326287 25.4506946,28 22.2079929,28 L8.67997742,28 C3.88535536,28 0,24.2096539 0,19.5325739 L0,19.3822278 C0,19.2577722 0.103977004,19.1566835 0.231988632,19.1566835 L7.77335816,19.1566835 C7.92265315,19.1566835 8.03197695,19.2914852 8.01868783,19.4340591 C7.9653237,19.9110887 8.05601158,20.3985148 8.28800021,20.8418313 C8.73598899,21.7259409 9.66399543,22.2781687 10.6666494,22.2781687 L14.4000104,22.2781687 L14.4000104,19.4444557 L10.7093199,19.4444557 C10.5200018,19.4444557 10.4080306,19.2318313 10.5173544,19.0814852 C10.5573256,19.0218313 10.6026955,18.9596539 10.6506609,18.8896539 C11.0000195,18.4074261 11.498673,17.6581687 11.9946792,16.8051983 C12.3333441,16.2296539 12.6613155,15.6151983 12.925333,14.9981687 C12.9786972,14.8866835 13.0213158,14.7725739 13.0639863,14.6610887 C13.1359864,14.4640591 13.2106858,14.28 13.263998,14.0959409 C13.3173622,13.9403461 13.3599808,13.7770296 13.4026513,13.6240591 C13.5280155,13.1003461 13.5813277,12.5455443 13.5813277,11.97 C13.5813277,11.7444557 13.5706861,11.5085148 13.5493508,11.2829704 C13.5386572,11.0366835 13.5066802,10.7903461 13.4746514,10.5440591 C13.4533161,10.326287 13.4133449,10.1110887 13.3706744,9.88554434 C13.3173622,9.55628695 13.2426628,9.22965393 13.1573217,8.90034607 L13.1279922,8.77594088 C13.0639863,8.55034607 13.0106741,8.33519827 12.9360266,8.10965393 C12.7253214,7.40183129 12.482691,6.71222783 12.2266678,6.06668349 C12.1333325,5.81 12.0266561,5.56371305 11.9199798,5.3174261 C11.7626905,4.94668349 11.60265,4.60965393 11.4560025,4.29074261 C11.381355,4.14554434 11.3173492,4.01331651 11.2533434,3.87851478 C11.1813433,3.72554434 11.1066958,3.5725739 11.0319964,3.4274261 C10.9786842,3.31594088 10.9173258,3.21222783 10.8746553,3.10851478 L10.4186723,2.28925739 C10.3546664,2.17777217 10.4613428,2.04554434 10.5866551,2.07925739 L13.440027,2.83108868 L13.4480212,2.83108868 C13.4533161,2.83108868 13.4560155,2.83371305 13.4586629,2.83371305 L13.8346516,2.93480173 L14.248016,3.04891132 L14.4000104,3.09034607 L14.4000104,1.44148522 C14.4000104,0.64554434 15.0560051,0 15.8666935,0 C16.2720117,0 16.6400062,0.16074261 16.9040237,0.422573901 C17.1679893,0.68445566 17.3333247,1.04222783 17.3333247,1.44148522 L17.3333247,3.88891132 L17.6373653,3.97183129 C17.661348,3.97965393 17.6853307,3.99 17.706666,4.00554434 C17.7813654,4.06 17.8879898,4.14034607 18.0239957,4.23891132 C18.130672,4.32183129 18.2453426,4.42297044 18.383996,4.52668349 C18.6586551,4.74183129 18.9866784,5.01925739 19.3466787,5.33816871 C19.4426615,5.41851478 19.5359968,5.50148522 19.6213379,5.58445566 C20.085367,6.00445566 20.6053559,6.49702956 21.101362,7.04148522 C21.2400153,7.19445566 21.3760212,7.35 21.5146745,7.51331651 C21.6533278,7.67925739 21.8000273,7.8425739 21.927987,8.00594088 C22.0960217,8.22371305 22.2773455,8.44925739 22.4346867,8.68519827 C22.5093342,8.79668349 22.5946753,8.91074261 22.6666753,9.02222783 C22.8693344,9.32034607 23.0480108,9.62891132 23.218693,9.9374261 C23.2906931,10.08 23.3653406,10.2355443 23.4293464,10.3885148 C23.6186645,10.8007426 23.7680114,11.2207426 23.8639941,11.6407426 C23.8933236,11.7314852 23.9146589,11.83 23.9253525,11.9181687 L23.9253525,11.9389113 C23.9573295,12.0633165 23.968023,12.1955443 23.9786647,12.3303461 C24.0213353,12.7607426 24,13.1910887 23.9040172,13.6240591 C23.8639941,13.8081687 23.8106819,13.9818313 23.7466761,14.1659409 C23.6826703,14.3422278 23.6186645,14.526287 23.5360227,14.7 C23.3760342,15.0603461 23.1866642,15.4207426 22.9626698,15.7577722 C22.8906697,15.8822278 22.8053286,16.0144557 22.7199875,16.1389113 C22.6266522,16.2710887 22.5306695,16.3955443 22.4453284,16.5174261 C22.3280103,16.6729704 22.2026981,16.836287 22.0746864,16.9814852 C21.9600158,17.1344557 21.8426978,17.2874261 21.7146862,17.4222278 C21.5360098,17.6270296 21.3653276,17.8214852 21.1866512,18.0081687 C21.0800267,18.13 20.9653561,18.2544557 20.8479862,18.3659409 C20.7333675,18.4903461 20.6159976,18.6018313 20.5093212,18.7055443 C20.3306967,18.8792574 20.1813498,19.0140591 20.0559856,19.1255443 L19.7626905,19.3874261 C19.72002,19.423713 19.6640084,19.4444557 19.6053494,19.4444557 L17.3333247,19.4444557 L17.3333247,22.2781687 L20.1919915,22.2781687 C20.8319977,22.2781687 21.440027,22.0577722 21.9306863,21.6533165 C22.0986691,21.5107426 22.8320107,20.893713 23.6986588,19.9629704 C23.7279883,19.9318313 23.7653639,19.9085148 23.8080345,19.8981687 L31.7040056,17.6789113 C31.850705,17.6374261 32,17.746287 32,17.8966835 Z" id="Path"></path>
        </g>
    </g>
</svg>