<?xml version="1.0" encoding="UTF-8"?>
<svg width="202px" height="16px" viewBox="0 0 202 16" version="1.1" xmlns="http://www.w3.org/2000/svg" xmlns:xlink="http://www.w3.org/1999/xlink">
    <title>PACEMAKER NFT</title>
    <g id="mainpage" stroke="none" stroke-width="1" fill="none" fill-rule="evenodd">
        <g id="PM-NFT-LP-Desktop-Copy-13" transform="translate(-100.000000, -175.000000)" fill="#FF3C4A" fill-rule="nonzero">
            <g id="PACEMAKER-NFT" transform="translate(100.600000, 175.380000)">
                <path d="M0,14.62 L0,0.36 L7.28,0.36 C9.08,0.36 10.5233333,0.536666667 11.61,0.89 C12.6966667,1.24333333 13.4833333,1.79 13.97,2.53 C14.4566667,3.27 14.7,4.22 14.7,5.38 C14.7,6.98 14.11,8.18666667 12.93,9 C11.75,9.81333333 9.97333333,10.2133333 7.6,10.2 L3.32,10.2 L3.32,14.62 L0,14.62 Z M7.3,3.18 L3.32,3.18 L3.32,7.38 L7.4,7.38 C8.85333333,7.38 9.87,7.23666667 10.45,6.95 C11.03,6.66333333 11.32,6.13333333 11.32,5.36 C11.32,4.70666667 11.1766667,4.22666667 10.89,3.92 C10.6033333,3.61333333 10.1633333,3.41333333 9.57,3.32 C8.97666667,3.22666667 8.22,3.18 7.3,3.18 Z" id="Shape"></path>
                <path d="M12.7859016,14.62 L20.0059016,0.36 L23.5459016,0.36 L30.8859016,14.62 L27.3059016,14.62 L25.7859016,11.52 L17.8859016,11.52 L16.4059016,14.62 L12.7859016,14.62 Z M19.1859016,8.8 L24.4259016,8.8 L21.7659016,3.38 L19.1859016,8.8 Z" id="Shape"></path>
                <path d="M38.7318033,15.02 C37.0384699,15.02 35.5684699,14.7666667 34.3218033,14.26 C33.0751366,13.7533333 32.1051366,12.96 31.4118033,11.88 C30.7184699,10.8 30.3718033,9.38666667 30.3718033,7.64 L30.3718033,7.54 C30.3718033,5.94 30.7451366,4.58 31.4918033,3.46 C32.2384699,2.34 33.2651366,1.48333333 34.5718033,0.89 C35.8784699,0.296666667 37.3784699,0 39.0718033,0 C40.5251366,0 41.8284699,0.216666667 42.9818033,0.65 C44.1351366,1.08333333 45.0884699,1.74333333 45.8418033,2.63 C46.5951366,3.51666667 47.1051366,4.64 47.3718033,6 L43.7518033,6 C43.5651366,5.05333333 43.0884699,4.32 42.3218033,3.8 C41.5551366,3.28 40.4784699,3.02 39.0918033,3.02 C37.4518033,3.02 36.1651366,3.37333333 35.2318033,4.08 C34.2984699,4.78666667 33.8318033,5.94666667 33.8318033,7.56 L33.8318033,7.6 C33.8318033,9.12 34.2784699,10.23 35.1718033,10.93 C36.0651366,11.63 37.3251366,11.98 38.9518033,11.98 C40.5251366,11.98 41.6851366,11.6833333 42.4318033,11.09 C43.1784699,10.4966667 43.6318033,9.65333333 43.7918033,8.56 L47.4518033,8.56 C47.2518033,9.88 46.8084699,11.0233333 46.1218033,11.99 C45.4351366,12.9566667 44.4851366,13.7033333 43.2718033,14.23 C42.0584699,14.7566667 40.5451366,15.02 38.7318033,15.02 Z" id="Path"></path>
                <polygon id="Path" points="48.7577049 14.62 48.7577049 0.36 62.3777049 0.36 62.3777049 3.18 51.9777049 3.18 51.9777049 6.06 60.7777049 6.06 60.7777049 8.88 51.9777049 8.88 51.9777049 11.7 62.7977049 11.7 62.7977049 14.62"></polygon>
                <polygon id="Path" points="64.3836066 14.62 64.3836066 0.36 67.5236066 0.36 73.0636066 6.84 78.8636066 0.36 81.7836066 0.36 81.7836066 14.62 78.5436066 14.62 78.5436066 5 73.0836066 11.02 72.8436066 11.02 67.6236066 5.06 67.6236066 14.62"></polygon>
                <path d="M82.6495082,14.62 L89.8695082,0.36 L93.4095082,0.36 L100.749508,14.62 L97.1695082,14.62 L95.6495082,11.52 L87.7495082,11.52 L86.2695082,14.62 L82.6495082,14.62 Z M89.0495082,8.8 L94.2895082,8.8 L91.6295082,3.38 L89.0495082,8.8 Z" id="Shape"></path>
                <polygon id="Path" points="101.59541 0.36 104.95541 0.36 104.95541 7.22 112.77541 0.36 117.29541 0.36 111.07541 5.74 117.55541 14.62 113.55541 14.62 108.63541 7.56 104.95541 10.66 104.95541 14.62 101.59541 14.62"></polygon>
                <polygon id="Path" points="118.301311 14.62 118.301311 0.36 131.921311 0.36 131.921311 3.18 121.521311 3.18 121.521311 6.06 130.321311 6.06 130.321311 8.88 121.521311 8.88 121.521311 11.7 132.341311 11.7 132.341311 14.62"></polygon>
                <path d="M133.927213,14.62 L133.927213,0.36 L141.427213,0.36 C143.93388,0.36 145.740546,0.72 146.847213,1.44 C147.95388,2.16 148.507213,3.3 148.507213,4.86 C148.507213,5.92666667 148.250546,6.76 147.737213,7.36 C147.22388,7.96 146.440546,8.38666667 145.387213,8.64 C146.427213,8.86666667 147.190546,9.29333333 147.677213,9.92 C148.16388,10.5466667 148.407213,11.4933333 148.407213,12.76 L148.407213,13.7 C148.407213,13.8733333 148.427213,14.0466667 148.467213,14.22 C148.507213,14.3933333 148.600546,14.5266667 148.747213,14.62 L145.247213,14.62 C145.060546,14.5533333 144.947213,14.4233333 144.907213,14.23 C144.867213,14.0366667 144.847213,13.8466667 144.847213,13.66 L144.847213,12.78 C144.847213,12.06 144.737213,11.5 144.517213,11.1 C144.297213,10.7 143.930546,10.42 143.417213,10.26 C142.90388,10.1 142.19388,10.02 141.287213,10.02 L137.267213,10.02 L137.267213,14.62 L133.927213,14.62 Z M141.387213,3.2 L137.267213,3.2 L137.267213,7.16 L141.267213,7.16 C142.000546,7.16 142.65388,7.12333333 143.227213,7.05 C143.800546,6.97666667 144.247213,6.81333333 144.567213,6.56 C144.887213,6.30666667 145.047213,5.89333333 145.047213,5.32 L145.047213,5.06 C145.047213,4.52666667 144.917213,4.12666667 144.657213,3.86 C144.397213,3.59333333 143.997213,3.41666667 143.457213,3.33 C142.917213,3.24333333 142.227213,3.2 141.387213,3.2 Z" id="Shape"></path>
                <polygon id="Path" points="154.639016 14.62 154.639016 0.36 157.999016 0.36 166.659016 10.04 166.779016 10.22 166.779016 0.36 169.999016 0.36 169.999016 14.62 166.779016 14.62 158.019016 4.84 157.879016 4.64 157.879016 14.62"></polygon>
                <polygon id="Path" points="172.424918 14.62 172.424918 0.36 185.644918 0.36 185.644918 3.32 175.724918 3.32 175.724918 6.52 185.364918 6.52 185.364918 9.5 175.724918 9.5 175.724918 14.62"></polygon>
                <polygon id="Path" points="191.75082 14.62 191.75082 3.22 186.63082 3.22 186.63082 0.36 200.55082 0.36 200.55082 3.22 195.19082 3.22 195.19082 14.62"></polygon>
            </g>
        </g>
    </g>
</svg>