<svg id="eNdqMHE3mcu1" xmlns="http://www.w3.org/2000/svg" xmlns:xlink="http://www.w3.org/1999/xlink" viewBox="0 0 126 92" shape-rendering="geometricPrecision" text-rendering="geometricPrecision"><defs><polygon id="eNdqMHE3mcu2" points="0,0 116,0 116,78 0,78"/></defs><g mask="url(#eNdqMHE3mcu13)"><g><g transform="translate(-432-641)"><g transform="translate(432.679 641.222)"><g transform="matrix(.992546 0.121869-.121869 0.992546 9.50581 0)"><g mask="url(#eNdqMHE3mcu11)"><path d="M82.599592,69.108215l.064079.450857c-6.884389,2.28571-14.0318,3.740049-21.241427,4.380976-7.20851.655893-14.483706.580688-21.593117-.539531-7.09339-1.115355-14.075761-3.200144-20.272419-6.659952-3.077652-1.746554-5.946676-3.839575-8.366401-6.34005-2.417863-2.505339-4.326447-5.412521-5.539104-8.629128l.173609-.12609c1.205206,3.196403,3.099633,6.077393,5.508555,8.562154c2.407431,2.480645,5.265278,4.557952,8.333244,6.289914c6.178403,3.430249,13.146244,5.491093,20.22436,6.582502c1.77223.276874,3.557127.484156,5.347985.63045c1.790112.157145,3.587676.23684,5.385984.272011c3.598853.029184,7.217824-.065103,10.80997-.430652.901204-.065477,1.796446-.179969,2.692434-.292215.895243-.115614,1.795328-.202792,2.684983-.359937l2.675296-.428781l2.658904-.52232c3.534028-.748309,7.028939-1.685566,10.453065-2.840208M97.704342,6.504664c-2.216312-.99338-4.462801-1.813153-6.718231-2.539013-2.259528-.701914-4.530233-1.293078-6.806898-1.793323-4.556312-.973925-9.132369-1.601382-13.705445-1.916046-4.573821-.304188-9.143917-.353202-13.693523-.062484l-1.704798.111124-1.702563.154526c-1.134421.089423-2.265861.250309-3.396557.377896-2.258783.318032-4.51235.665247-6.746917,1.161376-1.120264.217758-2.229724.519701-3.342164.783106-1.10499.318405-2.215567.594157-3.309008.965319-2.204018.681709-4.322721,1.512707-6.433601,2.398705-2.098213.909196-4.152838,1.918291-6.15605,3.02504-1.988683,1.133314-3.946071,2.326494-5.807341,3.671205-1.858662,1.345834-3.668147,2.767248-5.356926,4.338697-1.689151,1.569579-3.286654,3.24654-4.757862,5.042856-2.909259,3.612089-5.317435,7.725919-6.74431,12.265163-.694809,2.256901-1.140009,4.608836-1.27599,6.990331-.13859,2.380371.03502,4.78656.519337,7.123529.486926,2.335474,1.259226,4.609585,2.30796,6.728797c1.031597,2.150267,2.376137,4.134035,3.887953,5.937834c3.04077,3.612089,6.796095,6.460902,10.78948,8.700592c4.004562,2.241186,8.266185,3.896072,12.613494,5.129285c4.351408,1.227976,8.797817,2.042885,13.272167,2.480271c2.237175.2215,4.481428.354325,6.727172.403339L51.848401,78l1.67723-.026939c1.118028-.022824,2.236802-.029932,3.352595-.107757c8.931563-.436638,17.834439-2.008087,26.351724-4.95231c3.494166-1.221615,7.002861-2.605239,10.435928-4.290057c3.433439-1.675839,6.779702-3.69141,9.864805-6.134265c3.099261-2.425644,5.893773-5.341057,8.09034-8.666544c2.191351-3.319125,3.778051-7.074889,4.378977-10.944396-1.748014,4.667579-4.460938,8.5528-7.574728,11.776516-1.561366,1.614103-3.227046,3.074055-4.971335,4.403052-.443709.323269-.879595.654396-1.328148.966815l-1.362795.910319c-.890772.628205-1.843387,1.163995-2.778493,1.724104-3.817168,2.229213-8.060536,4.489481-12.398532,6.094979l-.006333-.54215c2.513236-.999367,5.019393-2.04251,7.406707-3.322119c1.217127-.597525,2.372039-1.304303,3.543715-1.98489.296551-.165002.579691-.350209.860595-.538783l.848301-.558613c.561809-.377522,1.143362-.729601,1.675739-1.148654c4.940413-3.512564,9.243016-8.046944,12.06398-13.482288c1.398561-2.712995,2.410412-5.642626,2.889141-8.675523.482828-3.029904.420239-6.157837-.219805-9.17502-.428063-1.983394-1.634014-3.806275-2.752415-5.472011.463455,1.647777.678417,3.207627.907164,4.980746.174727,1.274371.445945,2.87463.492514,4.355908.152374,4.076789-.814771,8.131503-2.573217,11.796347-.887419,1.831861-1.964467,3.573925-3.188673,5.208981-1.235382,1.629069-2.613452,3.152252-4.10366,4.562441-1.487601,1.415427-3.102986,2.689798-4.803686,3.873623l-.627378.453849-.657182.418305-1.311756.837358c-.428807.28997-.892634.533171-1.343795.792086l-1.358325.770384c-3.666657,1.987884-7.560198,3.605354-11.565505,4.923127-8.066124,2.64228-16.552487,4.06257-25.040713,4.449821-.530887.022075-1.060656.061735-1.591915.069592l-1.593405.02245-1.592287.023571-1.580739-.022075c-2.106781-.049014-4.20872-.175478-6.298737-.383134-4.179661-.410074-8.310891-1.165492-12.298688-2.289078-3.983326-1.125831-7.831044-2.631056-11.331543-4.60098-3.494911-1.966182-6.637014-4.413527-9.046681-7.331559-1.201108-1.465938-2.197685-3.027285-2.979671-4.721832-.801732-1.699036-1.390365-3.470284-1.73125-5.283437-.667613-3.628926-.318532-7.415745.916851-11.02933.613221-1.807541,1.437306-3.57168,2.427549-5.266226.998067-1.691927,2.176449-3.303411,3.469577-4.836697c1.292383-1.534408,2.713669-2.985754,4.248211-4.329343c1.529699-1.346583,3.136516-2.627688,4.846902-3.780458c1.7007-1.162499,3.463989-2.252785,5.302906-3.219601.904929-.509224,1.852701-.941747,2.782591-1.409066l1.426129-.640179.71381-.320276.726104-.292963l1.45258-.587423l1.474561-.535789.737653-.267147.741006-.238336c.495495-.155274.984283-.327386,1.485738-.470687c2.000232-.588171,4.041444-1.085422,6.109481-1.501482C53.827398,6.413371,62.46837,6.031733,71.000184,6.678272c4.266839.337487,8.520638.921917,12.682417,1.864038c1.046126.218507,2.072507.496878,3.106339.758412.515239.134321,1.021537.293337,1.533424.438509.512259.144798,1.021538.29633,1.52262.468442c2.028546.633818,3.996738,1.411685,5.911656,2.28122c1.759936.779364,3.321301,1.587164,4.751156,2.25952c1.394462.715384,2.640276,1.327127,3.668147,1.831487.506671.258541,1.006636.443747,1.417188.618103.414278.171363.790556.284732,1.117284.33225.652711.094287,1.108342-.075205,1.255873-.603886.119962-.430652-.011177-1.10413-.382611-1.976285-.406454-.817527-1.045381-1.850942-1.96782-2.855548-1.817309-2.052986-4.662116-4.138524-7.911515-5.58987" fill="#fff" fill-rule="evenodd"/><mask id="eNdqMHE3mcu11" mask-type="luminance" x="-150%" y="-150%" height="400%" width="400%"><use width="116" height="78" xlink:href="#eNdqMHE3mcu2" fill="#fff" fill-rule="evenodd"/></mask></g></g></g></g></g><mask id="eNdqMHE3mcu13" mask-type="luminance" x="-150%" y="-150%" height="400%" width="400%"><path id="eNdqMHE3mcu14" d="M113.539473,28.171765q-8.976139-7.799297-21.336859-12.987662c-12.36072-5.188365-39.066941-6.191325-50.148733-2.936105s-28.62786,10.524351-32.624893,25.286276s2.539801,24.983173,13.226164,32.901669s31.17624,11.316725,47.667392,10.314593s32.006152-6.201925,37.823518-11.902085s10.769724-11.931514,10.444687-27.450861" transform="translate(.000004 0)" fill="none" stroke="#fff" stroke-width="8" stroke-linecap="round" stroke-dashoffset="0" stroke-dasharray="285.204702"/></mask></g>
<style>
	#eNdqMHE3mcu1.over #eNdqMHE3mcu14 {
		animation-duration: 1s;
			animation-name: marker;
	}
	@keyframes marker {
	  from {
	    stroke-dashoffset: 285.204702;
	  }
	  to {
	    stroke-dashoffset: 0;
	  }
	}
</style>
</svg>
