<?xml version="1.0" encoding="UTF-8"?>
<svg width="562px" height="104px" viewBox="0 0 562 104" version="1.1" xmlns="http://www.w3.org/2000/svg" xmlns:xlink="http://www.w3.org/1999/xlink">
    <title>JOIN THE PACE FAM</title>
    <g id="mainpage" stroke="none" stroke-width="1" fill="none" fill-rule="evenodd">
        <g id="PM-NFT-LP-Desktop-Copy-86" transform="translate(-439.000000, -385.000000)" fill="#FFFFFF" fill-rule="nonzero">
            <g id="JOIN-THE-PACE-FAM" transform="translate(439.370000, 385.080000)">
                <path d="M18.76,103.04 C31.5,103.04 38.08,98.14 38.08,84.42 L38.08,1.12 L19.74,1.12 L19.74,83.02 C19.74,85.96 19.88,86.1 18.9,86.1 C18.06,86.1 17.92,85.96 17.92,83.58 L17.92,56.14 L0,56.14 L0,84.84 C0,98.7 6.16,103.04 18.76,103.04 Z" id="Path"></path>
                <path d="M58.8,103.04 C70.14,103.04 77.98,98.42 77.98,84.98 L77.98,17.92 C77.98,5.6 70.7,0 58.94,0 C47.18,0 39.76,5.6 39.76,17.92 L39.76,84.98 C39.76,98.42 47.32,103.04 58.8,103.04 Z M58.94,86.1 C57.96,86.1 57.82,85.96 57.82,83.16 L57.82,18.62 C57.82,15.96 57.96,15.82 58.8,15.82 C59.64,15.82 59.78,15.96 59.78,18.62 L59.78,83.16 C59.78,85.96 59.64,86.1 58.94,86.1 Z" id="Shape"></path>
                <polygon id="Path" points="79.66 101.92 97.86 101.92 97.86 1.12 79.66 1.12"></polygon>
                <polygon id="Path" points="99.82 101.92 117.18 101.92 117.18 74.48 112.42 27.44 121.94 101.92 141.82 101.92 141.82 1.12 124.88 1.12 124.88 25.06 130.06 75.88 120.54 1.12 99.82 1.12"></polygon>
                <polygon id="Path" points="166.6 101.92 185.08 101.92 185.08 19.74 190.96 19.74 190.96 1.12 160.58 1.12 160.58 19.74 166.6 19.74"></polygon>
                <polygon id="Path" points="192.64 1.12 192.64 101.92 210.14 101.92 210.14 59.08 212.24 59.08 212.24 101.92 230.02 101.92 230.02 1.12 212.24 1.12 212.24 42.42 210.14 42.42 210.14 1.12"></polygon>
                <polygon id="Path" points="231.98 101.92 259.14 101.92 259.14 83.02 249.76 83.02 249.76 60.62 259.14 60.62 259.14 42.14 249.76 42.14 249.76 19.74 259.14 19.74 259.14 1.12 231.98 1.12"></polygon>
                <path d="M278.18,101.92 L295.68,101.92 L295.68,73.64 L297.92,73.64 C310.8,73.64 315.84,66.92 315.84,56.84 L315.84,16.24 C315.84,6.86 310.52,1.12 297.78,1.12 L278.18,1.12 L278.18,101.92 Z M295.96,15.96 C297.36,15.96 297.64,16.52 297.64,17.78 L297.64,55.58 C297.64,57.26 297.22,57.54 295.96,57.54 L295.68,57.54 L295.68,15.96 L295.96,15.96 Z" id="Shape"></path>
                <path d="M315.7,101.92 L332.78,101.92 L333.2,95.06 L337.4,95.06 L337.82,101.92 L355.04,101.92 L345.94,1.12 L324.1,1.12 L315.7,101.92 Z M334.88,62.02 L335.16,34.72 L335.72,62.02 L336.7,80.36 L333.9,80.36 L334.88,62.02 Z" id="Shape"></path>
                <path d="M373.66,103.04 C385.56,103.04 392.28,98.14 392.28,84.84 L392.28,54.74 L374.78,54.74 L374.78,82.88 C374.78,86.1 374.5,86.1 373.66,86.1 C372.82,86.1 372.82,86.1 372.82,83.16 L372.82,18.9 C372.82,15.96 372.96,15.82 373.66,15.82 C374.5,15.82 374.78,15.96 374.78,19.04 L374.78,45.22 L392.28,45.22 L392.28,17.78 C392.28,4.9 385.84,0 373.94,0 C362.04,0 354.76,5.18 354.76,17.78 L354.76,84.84 C354.76,98.28 361.06,103.04 373.66,103.04 Z" id="Path"></path>
                <polygon id="Path" points="394.1 101.92 421.26 101.92 421.26 83.02 411.88 83.02 411.88 60.62 421.26 60.62 421.26 42.14 411.88 42.14 411.88 19.74 421.26 19.74 421.26 1.12 394.1 1.12"></polygon>
                <polygon id="Path" points="440.3 101.92 457.94 101.92 457.94 60.48 467.32 60.48 467.32 41.86 457.94 41.86 457.94 20.02 467.32 20.02 467.32 1.12 440.3 1.12"></polygon>
                <path d="M466.9,101.92 L483.98,101.92 L484.4,95.06 L488.6,95.06 L489.02,101.92 L506.24,101.92 L497.14,1.12 L475.3,1.12 L466.9,101.92 Z M486.08,62.02 L486.36,34.72 L486.92,62.02 L487.9,80.36 L485.1,80.36 L486.08,62.02 Z" id="Shape"></path>
                <polygon id="Path" points="506.1 101.92 523.32 101.92 523.32 84.42 520.52 19.88 526.26 101.92 540.96 101.92 546.56 22.54 544.04 84.28 544.04 101.92 560.98 101.92 560.98 1.12 535.78 1.12 533.96 35.84 533.54 73.64 533.12 35.84 531.44 1.12 506.1 1.12"></polygon>
            </g>
        </g>
    </g>
</svg>