<?xml version="1.0" encoding="UTF-8"?>
<svg width="312px" height="256px" viewBox="0 0 312 256" version="1.1" xmlns="http://www.w3.org/2000/svg" xmlns:xlink="http://www.w3.org/1999/xlink">
    <title>JOIN THE PACE FAM</title>
    <g id="mainpage" stroke="none" stroke-width="1" fill="none" fill-rule="evenodd">
        <g id="21_JOIN-US" transform="translate(-22.000000, -264.000000)" fill="#FFFFFF" fill-rule="nonzero">
            <g id="JOIN-THE-PACE-FAM" transform="translate(22.500000, 264.560000)">
                <path d="M42.7,177.6 C71.74,177.6 84.94,166.32 84.94,134.64 L84.94,2.64 L44.86,2.64 L44.86,134.16 C44.86,141.12 44.62,141.84 42.94,141.84 C41.02,141.84 40.78,141.12 40.78,136.56 L40.78,90.48 L0.94,90.48 L0.94,136.32 C0.94,168.24 14.14,177.6 42.7,177.6 Z" id="Path"></path>
                <path d="M130.3,177.6 C155.02,177.6 171.82,166.8 171.82,137.04 L171.82,40.8 C171.82,12.24 155.5,0 130.3,0 C104.62,0 88.54,12 88.54,40.8 L88.54,137.04 C88.54,166.8 104.38,177.6 130.3,177.6 Z M130.3,141.84 C128.14,141.84 128.14,141.12 128.14,134.4 L128.14,41.52 C128.14,34.8 128.14,34.32 130.3,34.32 C132.22,34.32 132.46,34.8 132.46,41.52 L132.46,134.4 C132.46,141.12 132.22,141.84 130.3,141.84 Z" id="Shape"></path>
                <polygon id="Path" points="175.9 175.44 215.74 175.44 215.74 2.64 175.9 2.64"></polygon>
                <polygon id="Path" points="219.82 175.44 257.74 175.44 257.74 132.48 248.38 51.84 267.34 175.44 311.02 175.44 311.02 2.64 274.3 2.64 274.3 40.08 284.62 130.8 265.42 2.64 219.82 2.64"></polygon>
                <polygon id="Path" points="5.9 254.44 22.5 254.44 22.5 198.44 28.5 198.44 28.5 182.44 0 182.44 0 198.44 5.9 198.44"></polygon>
                <polygon id="Path" points="29.8 182.44 29.8 254.44 45.9 254.44 45.9 225.74 47.6 225.74 47.6 254.44 63.7 254.44 63.7 182.44 47.6 182.44 47.6 210.44 45.9 210.44 45.9 182.44"></polygon>
                <polygon id="Path" points="65.4 254.44 92 254.44 92 238.04 81.5 238.04 81.5 226.24 92 226.24 92 210.14 81.5 210.14 81.5 198.44 92 198.44 92 182.44 65.4 182.44"></polygon>
                <path d="M108.9,254.44 L121.4,254.44 L121.4,234.24 L123,234.24 C132.2,234.24 135.8,229.44 135.8,222.24 L135.8,193.24 C135.8,186.54 132,182.44 122.9,182.44 L108.9,182.44 L108.9,254.44 Z M121.6,193.04 C122.6,193.04 122.8,193.44 122.8,194.34 L122.8,221.34 C122.8,222.54 122.5,222.74 121.6,222.74 L121.4,222.74 L121.4,193.04 L121.6,193.04 Z" id="Shape"></path>
                <path d="M135.7,254.44 L147.9,254.44 L148.2,249.54 L151.2,249.54 L151.5,254.44 L163.8,254.44 L157.3,182.44 L141.7,182.44 L135.7,254.44 Z M149.4,225.94 L149.6,206.44 L150,225.94 L150.7,239.04 L148.7,239.04 L149.4,225.94 Z" id="Shape"></path>
                <path d="M177.1,255.24 C185.6,255.24 190.4,251.74 190.4,242.24 L190.4,220.74 L177.9,220.74 L177.9,240.84 C177.9,243.14 177.7,243.14 177.1,243.14 C176.5,243.14 176.5,243.14 176.5,241.04 L176.5,195.14 C176.5,193.04 176.6,192.94 177.1,192.94 C177.7,192.94 177.9,193.04 177.9,195.24 L177.9,213.94 L190.4,213.94 L190.4,194.34 C190.4,185.14 185.8,181.64 177.3,181.64 C168.8,181.64 163.6,185.34 163.6,194.34 L163.6,242.24 C163.6,251.84 168.1,255.24 177.1,255.24 Z" id="Path"></path>
                <polygon id="Path" points="191.7 254.44 211.1 254.44 211.1 240.94 204.4 240.94 204.4 224.94 211.1 224.94 211.1 211.74 204.4 211.74 204.4 195.74 211.1 195.74 211.1 182.44 191.7 182.44"></polygon>
                <polygon id="Path" points="224.7 254.44 237.3 254.44 237.3 224.84 244 224.84 244 211.54 237.3 211.54 237.3 195.94 244 195.94 244 182.44 224.7 182.44"></polygon>
                <path d="M243.7,254.44 L255.9,254.44 L256.2,249.54 L259.2,249.54 L259.5,254.44 L271.8,254.44 L265.3,182.44 L249.7,182.44 L243.7,254.44 Z M257.4,225.94 L257.6,206.44 L258,225.94 L258.7,239.04 L256.7,239.04 L257.4,225.94 Z" id="Shape"></path>
                <polygon id="Path" points="271.7 254.44 284 254.44 284 241.94 282 195.84 286.1 254.44 296.6 254.44 300.6 197.74 298.8 241.84 298.8 254.44 310.9 254.44 310.9 182.44 292.9 182.44 291.6 207.24 291.3 234.24 291 207.24 289.8 182.44 271.7 182.44"></polygon>
            </g>
        </g>
    </g>
</svg>