
<svg width="125px" height="92px" viewBox="0 0 125 92" version="1.1" xmlns="http://www.w3.org/2000/svg" xmlns:xlink="http://www.w3.org/1999/xlink">
    <defs>
        <polygon id="path-oupvav-yba-1" points="8.34166304e-16 2.92872205e-15 116 2.92872205e-15 116 78 8.34166304e-16 78"></polygon>
    </defs>
    <g id="Page-1" stroke="none" stroke-width="1" fill="none" fill-rule="evenodd">
        <g id="Group">
            <path d="M85.6668111,31.7510078 C85.585762,31.8320569 85.5857613,31.9131055 85.5047122,31.9941546 C84.3700241,33.6151376 82.9921884,34.9929737 81.4522546,36.208711 L81.3712067,36.2897596 C81.2901575,36.3708088 81.2901557,36.3708086 81.2901557,36.4518578 C81.2901557,36.8571035 81.2901557,37.2623493 81.2901557,37.667595 C81.2901557,39.0454306 81.1280574,40.3422169 80.8849099,41.7200524 C80.2365167,45.5293623 78.7776337,49.0144754 76.5082575,52.1753923 C74.7251761,54.6879158 72.6178983,56.8762442 70.0243254,58.5782763 C67.6738999,60.1182101 65.0803252,61.2528969 62.2436049,61.9012901 C61.271015,62.1444376 60.2173755,62.3065377 59.2447856,62.3875869 C58.6774416,62.468636 58.1100972,62.4686336 57.5427531,62.5496827 C56.8133108,62.6307319 56.0838693,62.5496827 55.354427,62.5496827 C54.6249846,62.5496827 53.8955419,62.468636 53.2471487,62.3875869 C52.2745588,62.3065377 51.3019688,62.0633884 50.3293789,61.9012901 C47.6547569,61.2528969 45.1422337,60.1992598 42.8728575,58.7403752 C42.8188248,58.740374 42.7918084,58.713357 42.7918084,58.6593242 C47.5737084,59.1456191 51.9503627,57.9298818 55.7596727,55.0121125 C55.0302304,54.9310634 54.3007877,54.8500161 53.6523945,54.6879178 C52.9229521,54.5258195 52.2745589,54.2016229 51.6261656,53.8774263 C50.9777724,53.5532297 50.4104281,53.066933 49.9241331,52.580638 C49.2757399,51.9322448 48.7894457,51.3649002 48.3841999,50.7975562 C47.9789542,50.149163 47.6547577,49.5007713 47.4116103,48.771329 C48.7083967,49.0144764 50.0051824,48.9334267 51.383018,48.6092301 C48.6273468,47.9608369 46.6011187,46.420904 45.3043322,43.9894295 C44.655939,42.6926431 44.3317422,41.3148073 44.3317422,39.8559226 C45.5474795,40.5043158 46.8442662,40.909561 48.2221018,40.909561 C45.9527256,39.2075289 44.6559388,37.0192024 44.4127913,34.1824822 C44.3317422,32.4804502 44.736988,30.7784179 45.6285287,29.1574349 C48.2221016,32.2373025 51.3019694,34.6687767 54.9491812,36.2897596 C56.97541,37.1813003 59.0016378,37.7486445 61.189965,38.1538902 C62.0815057,38.3159885 62.9730472,38.397037 63.8645879,38.397037 C63.7835388,38.1538896 63.7835382,37.9107425 63.702489,37.667595 C63.6214399,36.9381527 63.6214399,36.2087105 63.702489,35.4792682 C63.7835382,34.4256293 64.1077351,33.4530396 64.59403,32.4804498 C65.8908164,30.0489754 67.9170481,28.4279924 70.59167,27.7795992 C71.4021616,27.6175009 72.1316021,27.5364519 72.9420936,27.617501 C74.9683224,27.6985502 76.8324535,28.4279924 78.3723874,29.8058279 C78.5344857,29.9679262 78.6965828,30.0489754 78.8586811,30.2110737 C78.9397302,30.2921228 79.0207819,30.2921231 79.101831,30.2921231 C80.3175683,30.0489757 81.5333037,29.6437298 82.6679919,29.1574349 C83.2353359,28.9142874 83.8837298,28.590091 84.4510738,28.2658944 C84.532123,28.2658944 84.5321236,28.1848449 84.6131727,28.1848449 C84.2889761,29.1574347 83.1542886,31.5889091 80.7228141,33.0477937 C82.4248462,32.8856954 84.0458281,32.399401 85.6668111,31.7510078 Z" id="Vector" fill="#FFFFFF" fill-rule="nonzero"></path>
            <g id="Group-3-Copy" opacity="0" transform="translate(62.320581, 45.777722) rotate(7.000000) translate(-62.320581, -45.777722) translate(4.320581, 6.777722)">
                <g id="Fill-1-Clipped">
                    <mask id="mask-oupvav-yba-2" fill="white">
                        <use xlink:href="#path-oupvav-yba-1"></use>
                    </mask>
                    <g id="path-1"></g>
                    <path d="M82.5995919,69.1082154 L82.6636708,69.5590718 C75.7792816,71.8447823 68.6318707,73.2991213 61.4222436,73.9400482 C54.2137342,74.5959413 46.9385379,74.5207362 39.8291273,73.4005172 C32.7357365,72.2851623 25.7533661,70.2003728 19.556708,66.740565 C16.4790556,64.9940112 13.6100323,62.9009903 11.1903068,60.4005149 C8.77244409,57.8951756 6.86385999,54.9879942 5.65120309,51.7713869 L5.82481234,51.6452968 C7.0300182,54.8416997 8.92444532,57.7226903 11.3333668,60.2074512 C13.7407981,62.6880963 16.5986448,64.7654027 19.6666109,66.4973645 C25.8450139,69.9276141 32.8128547,71.9884577 39.890971,73.0798667 C41.663201,73.3567412 43.4480979,73.5640228 45.2389555,73.7103173 C47.0290681,73.8674622 48.8266317,73.9471571 50.6249404,73.9823277 C54.2237931,74.0115117 57.8427636,73.9172248 61.4349104,73.5516757 C62.3361138,73.4861987 63.2313564,73.3717073 64.127344,73.259461 C65.0225866,73.1438472 65.9226723,73.0566691 66.8123266,72.8995242 L69.4876228,72.470743 L72.1465267,71.9484232 C75.6805554,71.2001139 79.1754661,70.2628566 82.5995919,69.1082154 M97.7043418,6.50466427 C95.4880297,5.51128375 93.2415409,4.69151097 90.9861109,3.96565101 C88.7265827,3.26373694 86.455878,2.67257264 84.1792125,2.17232791 C79.6229011,1.19840343 75.0468443,0.570946133 70.473768,0.256282096 C65.8999466,-0.0479056105 61.3298507,-0.0969198658 56.7802452,0.193798275 L55.0754471,0.304922197 L53.3728842,0.459448055 C52.2384633,0.54887101 51.1070227,0.709757497 49.9763273,0.837344223 C47.7175443,1.15537565 45.463977,1.50259114 43.2294098,1.99872017 C42.1091458,2.21647816 40.9996859,2.51842093 39.8872455,2.78182579 C38.7822561,3.10023137 37.6716785,3.37598333 36.5782382,3.74714471 C34.3742204,4.42885443 32.2555169,5.25985184 30.144637,6.14584998 C28.0464239,7.05504571 25.9917994,8.06414073 23.9885871,9.17089009 C21.9999043,10.3042044 20.0425159,11.4973835 18.1812459,12.8420952 C16.3225838,14.1879294 14.5130985,15.6093428 12.8243201,17.1807922 C11.1351691,18.7503709 9.53766598,20.4273319 8.06645797,22.2236482 C5.15719909,25.8357369 2.74902269,29.949567 1.32214837,34.4888108 C0.627338818,36.7457115 0.182139129,39.0976474 0.046157634,41.4791416 C-0.0924317253,43.8595133 0.0811775259,46.2657017 0.565495179,48.6026714 C1.0524207,50.9381446 1.82472108,53.2122564 2.87345507,55.3314681 C3.90505168,57.4817347 5.24959199,59.4655025 6.76140817,61.269302 C9.80217793,64.8813907 13.5575025,67.730204 17.5508878,69.9698935 C21.5554497,72.2110797 25.8170725,73.8659656 30.1643823,75.0991792 C34.5157901,76.3271547 38.9621987,77.1420635 43.4365488,77.5794502 C45.6737238,77.8009497 47.9179773,77.9337746 50.163721,77.9827889 L51.8484013,78 L53.5256306,77.9730609 C54.6436593,77.9502374 55.762433,77.9431285 56.8782264,77.8653043 C65.809789,77.4286659 74.7126652,75.8572165 83.2299499,72.9129938 C86.7241155,71.6913789 90.2328106,70.3077551 93.6658777,68.6229369 C97.0993173,66.9470983 100.44558,64.9315274 103.530683,62.4886719 C106.629944,60.0630275 109.424456,57.1476147 111.621023,53.8221284 C113.812374,50.5030028 115.399074,46.7472387 116,42.8777316 C114.251986,47.5453105 111.539062,51.4305321 108.425272,54.6542483 C106.863906,56.2683513 105.198226,57.7283026 103.453937,59.0572999 C103.010228,59.3805694 102.574342,59.7116963 102.125789,60.0241154 L100.762994,60.9344336 C99.8722221,61.5626392 98.9196066,62.0984286 97.984501,62.6585381 C94.1673327,64.8877513 89.923965,67.1480194 85.585969,68.7535169 L85.5796356,68.2113668 C88.0928717,67.2119998 90.5990293,66.1688567 92.9863428,64.8892479 C94.2034703,64.291723 95.3583816,63.5849449 96.5300578,62.9043577 C96.8266092,62.7393555 97.1097488,62.5541489 97.390653,62.365575 L98.238954,61.8069622 C98.8007625,61.4294401 99.3823162,61.0773607 99.9146931,60.6583075 C104.855106,57.1457439 109.157709,52.611364 111.978673,47.1760199 C113.377234,44.4630247 114.389085,41.533394 114.867814,38.5004967 C115.350642,35.4705926 115.288053,32.3426599 114.648009,29.3254771 C114.219946,27.3420834 113.013995,25.5192021 111.895594,23.8534657 C112.359049,25.5012427 112.574011,27.0610933 112.802758,28.834212 C112.977485,30.1085827 113.248703,31.708842 113.295272,33.1901201 C113.447646,37.2669089 112.480501,41.3216225 110.722055,44.986467 C109.834636,46.818328 108.757588,48.560392 107.533382,50.1954477 C106.298,51.8245169 104.91993,53.3477003 103.429722,54.7578891 C101.942121,56.173316 100.326736,57.4476867 98.6260356,58.6315119 L97.9986579,59.0853614 L97.3414761,59.5036663 L96.0297204,60.3410244 C95.600913,60.6309942 95.1370857,60.8741947 94.6859252,61.1331097 L93.3276004,61.9034941 C89.6609432,63.8913776 85.7674019,65.508848 81.7620949,66.8266206 C73.6959706,69.4689005 65.2096077,70.8891914 56.721382,71.2764415 C56.1904953,71.2985166 55.6607263,71.338177 55.1294671,71.3460342 L53.536062,71.3684835 L51.9437746,71.3920552 L50.3630363,71.3699801 C48.2562545,71.3209659 46.1543159,71.1945016 44.0642989,70.9868458 C39.8846376,70.5767723 35.753408,69.8213541 31.765611,68.6977678 C27.7822845,67.5719366 23.9345671,66.0667125 20.4340681,64.0967884 C16.9391574,62.1306059 13.7970535,59.6832605 11.3873869,56.7652286 C10.1862791,55.2992908 9.18970238,53.7379436 8.40771564,52.0433973 C7.60598365,50.3443612 7.01735143,48.5731132 6.67646631,46.7599599 C6.00885305,43.1310343 6.35793431,39.3442153 7.59331688,35.73063 C8.20653754,33.923089 9.03062266,32.15895 10.020866,30.4644037 C11.0189329,28.7724765 12.197315,27.1609926 13.4904431,25.6277069 C14.7828262,24.0932988 16.2041122,22.6419531 17.7386541,21.2983638 C19.2683527,19.9517813 20.8751697,18.6706759 22.5855561,17.5179055 C24.2862562,16.3554071 26.049545,15.2651206 27.8884619,14.298305 C28.7933908,13.7890806 29.7411632,13.3565578 30.6710531,12.8892387 L32.0971823,12.2490602 L32.810992,11.9287838 L33.5370959,11.6358207 L34.9896763,11.048398 L36.4642373,10.5126086 L37.2018903,10.2454622 L37.9428964,10.0071257 C38.4383906,9.8518515 38.9271788,9.67974038 39.4286339,9.53643916 C41.4288658,8.94826809 43.4700784,8.4510166 45.5381148,8.03495666 C53.8273977,6.41337054 62.4683698,6.03173282 71.0001841,6.67827201 C75.2670226,7.01575948 79.5208218,7.600189 83.6826006,8.54231033 C84.7287268,8.76081663 85.7551076,9.03918767 86.7889396,9.30072175 C87.304179,9.43504326 87.8104773,9.59405897 88.3223638,9.73923096 C88.8346228,9.8840288 89.3439015,10.0355614 89.844984,10.2076725 C91.8735298,10.8414905 93.8417223,11.6193579 95.7566397,12.4888933 C97.5165756,13.2682573 99.0779412,14.0760572 100.507796,14.748413 C101.902258,15.4637967 103.148072,16.0755395 104.175943,16.5798999 C104.682614,16.8384407 105.182579,17.0236473 105.593131,17.1980033 C106.007409,17.3693661 106.383687,17.482735 106.710415,17.5302526 C107.363126,17.6245396 107.818757,17.4550476 107.966288,16.9263671 C108.08625,16.4957151 107.955111,15.8222368 107.583677,14.9500824 C107.177223,14.1325545 106.538296,13.0991395 105.615857,12.0945343 C103.798548,10.0415479 100.953741,7.95601004 97.7043418,6.50466427" id="Fill-1" fill="#FFFFFF" fill-rule="nonzero" mask="url(#mask-oupvav-yba-2)"></path>
                </g>
            </g>
        </g>
    </g>
</svg>