<svg width="151px" height="7px" viewBox="0 0 151 7" version="1.1" xmlns="http://www.w3.org/2000/svg" xmlns:xlink="http://www.w3.org/1999/xlink">

    <defs>
        <polygon id="path-1" points="0 0 151 0 151 7 0 7"></polygon>
    </defs>
    <g id="mainpage" stroke="none" stroke-width="1" fill="none" fill-rule="evenodd">
        <g id="Group-3">
            <mask id="mask-2" fill="white">
                <use xlink:href="#path-1"></use>
            </mask>
            <g id="Clip-2"></g>
            <path d="M150.54452,3.5448203 C149.930422,3.26525722 149.401497,2.83795403 148.874184,2.4272915 L148.432485,2.05931587 L147.886408,1.61160978 C147.705946,1.45359587 147.488835,1.3214835 147.287262,1.17953144 C147.089062,1.03410655 146.861542,0.914583206 146.639446,0.791731729 C145.747692,0.309297307 144.682365,-0.00947984635 143.612787,0.000215146521 C142.543795,0.00600320197 141.535349,0.291354335 140.652536,0.683205689 C140.207319,0.878263158 139.79142,1.10428672 139.391062,1.3418864 C139.186558,1.45750281 139.001258,1.58758935 138.805696,1.71029613 C138.706303,1.77251772 138.616292,1.83473932 138.528626,1.89696092 L138.261818,2.0836257 C137.59861,2.53046358 136.906961,2.95429394 136.220736,3.29347399 C135.533046,3.6278789 134.844182,3.86707029 134.140952,3.98138438 C133.438455,4.0981584 132.715141,4.08817401 131.975555,3.96763775 C131.694674,3.91105951 131.412033,3.86996432 131.126607,3.79124676 C130.841474,3.72916987 130.555168,3.6384421 130.26813,3.55263418 C130.119186,3.51269659 129.996044,3.46016999 129.8622,3.41343144 L129.664293,3.34165956 L129.469904,3.25556223 C129.340165,3.19883929 129.209693,3.14414216 129.082886,3.0745408 C128.955493,3.00682055 128.826486,2.94865059 128.700999,2.87138005 C128.248598,2.61931024 127.80382,2.31616083 127.341597,1.99145092 C126.878201,1.66760922 126.402051,1.31540605 125.85011,0.979843531 L125.642381,0.854676832 L125.418526,0.735587591 C125.342735,0.696518217 125.271195,0.655567724 125.191886,0.618813572 L124.947947,0.512313352 C124.624112,0.370505994 124.257031,0.262992864 123.87529,0.200626566 C123.782201,0.17906606 123.682221,0.177908449 123.58488,0.170094574 L123.291244,0.15403272 C123.105212,0.156637345 122.928561,0.172409796 122.747366,0.183985907 C122.568224,0.208729844 122.389374,0.240853552 122.211698,0.273266662 C122.038712,0.320728717 121.862795,0.363994431 121.693914,0.420138569 C121.016925,0.65093728 120.426282,1.00646859 119.910844,1.38442861 C119.393793,1.76412504 118.941686,2.16914422 118.510248,2.55347111 C118.079544,2.93823209 117.668923,3.3050501 117.254637,3.61456637 C116.840792,3.92278032 116.424014,4.16718096 116.000199,4.31564459 C115.576678,4.46512112 115.143481,4.51952884 114.689468,4.47915715 C114.236187,4.43762785 113.766048,4.31115884 113.29928,4.11378615 C112.834565,3.90642907 112.368677,3.66608006 111.920821,3.36394357 C111.808673,3.28942236 111.69418,3.2211233 111.583646,3.14182694 L111.252921,2.90104383 C111.040354,2.74852857 110.793923,2.5633108 110.554675,2.38503869 C110.313522,2.20720069 110.061813,2.03515074 109.809958,1.86454781 C109.548427,1.70060114 109.295399,1.5298535 109.015984,1.38182398 C108.876716,1.30759217 108.747417,1.22381007 108.599939,1.15840504 L108.166449,0.95365258 C108.020731,0.887234644 107.863871,0.835142145 107.712729,0.776103979 L107.483743,0.691308967 L107.244056,0.624891031 L107.004221,0.559486004 C106.924326,0.537636095 106.84487,0.515062678 106.760869,0.503920672 L106.263756,0.423322 C106.097074,0.402485 105.926874,0.401761493 105.758726,0.391632396 C105.674432,0.389317174 105.589992,0.381213896 105.505845,0.384252625 L105.253696,0.400748583 L105.001695,0.418836257 C104.917547,0.424334909 104.833547,0.430267666 104.752332,0.448500041 L104.260936,0.541253629 C104.177961,0.554276754 104.099385,0.577573677 104.021248,0.602317614 L103.785958,0.674089502 C103.631151,0.725458494 103.467841,0.762791452 103.323296,0.831235207 C103.025555,0.959006531 102.718286,1.07505704 102.444881,1.23495207 L102.024439,1.46126504 C101.889422,1.54229782 101.760123,1.62940805 101.627891,1.71347956 L101.234716,1.96931161 L100.864263,2.24641476 L100.162059,2.77385132 C99.2842312,3.4403459 98.3411671,3.99903795 97.3516315,4.32562898 C97.2899138,4.34646598 97.2287825,4.37120992 97.1667716,4.38900819 L96.979273,4.43386562 L96.6045688,4.525751 L96.2269327,4.57683059 L96.0382613,4.60316624 C95.9752242,4.60765198 95.9121871,4.60649437 95.8492966,4.60866489 L95.4710741,4.6193728 L95.094904,4.58681498 C95.0323067,4.58073753 94.969123,4.57900111 94.9068189,4.56988492 L94.7207862,4.53269666 C94.5970576,4.50621631 94.4717165,4.48899685 94.3487209,4.45672844 C93.3665152,4.18714975 92.4249171,3.66390954 91.5810998,2.96543595 L91.0015984,2.48054161 L90.837702,2.34350939 L90.6663291,2.21501456 C90.5535953,2.12747022 90.4360238,2.04643745 90.3158136,1.9687328 C89.8387841,1.65386259 89.3231994,1.39542591 88.7866513,1.20167076 C87.7115025,0.812279326 86.5627616,0.696228814 85.4571205,0.783773153 C83.9390996,0.900257768 82.3395703,1.43811282 80.9468906,2.29821786 C80.5984275,2.51295472 80.2615456,2.74621335 79.9412292,2.99770436 C79.6767667,3.19666877 79.4038015,3.37682199 79.1041554,3.51819525 C78.8049492,3.65725328 78.4969471,3.77952595 78.1772171,3.86258455 C77.5245634,4.06936283 76.8291032,4.05706321 76.1565122,3.96517783 C75.8690337,3.92581905 75.5828747,3.85969052 75.3140142,3.75159858 C75.2250293,3.71571264 75.1378036,3.67534095 75.05307,3.62976002 C74.6999158,3.43962239 74.4014425,3.16686028 74.1047284,2.90017563 C73.788077,2.6154033 73.4692267,2.33178858 73.1421668,2.05931587 L72.5960898,1.61160978 C72.4156278,1.45359587 72.1985164,1.3214835 71.9969443,1.17953144 C71.798744,1.03410655 71.5712241,0.914583206 71.3489818,0.791731729 C70.4573735,0.309297307 69.3920468,-0.00947984635 68.3224688,0.000215146521 C67.2534772,0.00600320197 66.2450305,0.291354335 65.3622181,0.683205689 C64.9170004,0.878263158 64.5011023,1.10428672 64.1007435,1.3418864 C63.8962395,1.45750281 63.7107932,1.58758935 63.5153782,1.71029613 C63.4159849,1.77251772 63.3259738,1.83473932 63.2383082,1.89696092 L62.9715001,2.0836257 C62.3082914,2.53046358 61.6166427,2.95429394 60.930418,3.29347399 C60.2427275,3.6278789 59.5538641,3.86707029 58.8506341,3.98138438 C58.1481372,4.0981584 57.4248233,4.08817401 56.6852371,3.96763775 C56.4043556,3.91105951 56.1217149,3.86996432 55.8362888,3.79124676 C55.551156,3.72916987 55.2648503,3.6384421 54.9778117,3.55263418 C54.8288683,3.51269659 54.7057261,3.46016999 54.5717356,3.41343144 L54.3739751,3.34165956 L54.1795863,3.25556223 C54.0498472,3.19883929 53.9193751,3.14414216 53.792568,3.0745408 C53.6651744,3.00682055 53.5361683,2.94865059 53.4106805,2.87138005 C52.9582795,2.61931024 52.513355,2.31616083 52.0512785,1.99145092 C51.5878827,1.66760922 51.1117328,1.31540605 50.5597918,0.979843531 L50.3520627,0.854676832 L50.1282077,0.735587591 C50.0524166,0.696518217 49.9808769,0.655567724 49.9015674,0.618813572 L49.6576286,0.512313352 C49.3337939,0.370505994 48.9667128,0.262992864 48.584972,0.200626566 C48.4918824,0.17906606 48.3919026,0.177908449 48.2945616,0.170094574 L48.0009261,0.15403272 C47.8148934,0.156637345 47.638243,0.172409796 47.457048,0.183985907 C47.2779054,0.208729844 47.099056,0.240853552 46.9213794,0.273266662 C46.7483939,0.320728717 46.5723299,0.363994431 46.4034492,0.420138569 C45.7264602,0.65093728 45.135964,1.00646859 44.6205259,1.38442861 C44.1034753,1.76412504 43.6513674,2.16914422 43.2199299,2.55347111 C42.7892254,2.93823209 42.3786048,3.3050501 41.9643192,3.61456637 C41.5504734,3.92278032 41.1336957,4.16718096 40.7098813,4.31564459 C40.28636,4.46512112 39.8531633,4.51952884 39.3990032,4.47915715 C38.9458692,4.43762785 38.4757298,4.31115884 38.0089622,4.11378615 C37.544247,3.90642907 37.0782123,3.66608006 36.6305025,3.36394357 C36.5183551,3.28942236 36.4038622,3.2211233 36.2933274,3.14182694 L35.9626026,2.90104383 C35.7500357,2.74852857 35.5036047,2.5633108 35.264357,2.38503869 C35.0232035,2.20720069 34.7714949,2.03515074 34.5196398,1.86454781 C34.2581092,1.70060114 34.0050813,1.5298535 33.7256658,1.38182398 C33.5863978,1.30759217 33.4570985,1.22381007 33.309621,1.15840504 L32.8761311,0.95365258 C32.7304129,0.887234644 32.5735531,0.835142145 32.4224107,0.776103979 L32.1934249,0.691308967 L31.9537374,0.624891031 L31.7139033,0.559486004 C31.6340074,0.537636095 31.5545514,0.515062678 31.4705508,0.503920672 L30.9734374,0.423322 C30.8067557,0.402485 30.6365555,0.401761493 30.4684078,0.391632396 C30.384114,0.389317174 30.2996736,0.381213896 30.2155265,0.384252625 L29.9633781,0.400748583 L29.7113764,0.418836257 C29.6272292,0.424334909 29.5432287,0.430267666 29.4618668,0.448500041 L28.9706174,0.541253629 C28.887643,0.554276754 28.8090665,0.577573677 28.7309299,0.602317614 L28.4956403,0.674089502 C28.340833,0.725458494 28.1775229,0.762791452 28.0329774,0.831235207 C27.7352372,0.959006531 27.4279681,1.07505704 27.154563,1.23495207 L26.7341204,1.46126504 C26.5991037,1.54229782 26.4698044,1.62940805 26.3375731,1.71347956 L25.9443977,1.96931161 L25.5739449,2.24641476 L24.8717411,2.77385132 C23.9939131,3.4403459 23.0507024,3.99903795 22.0613134,4.32562898 C21.9995957,4.34646598 21.9384644,4.37120992 21.8764535,4.38900819 L21.6889548,4.43386562 L21.3142507,4.525751 L20.9366146,4.57683059 L20.7479431,4.60316624 C20.684906,4.60765198 20.621869,4.60649437 20.5588319,4.60866489 L20.180756,4.6193728 L19.8045859,4.58681498 C19.7419886,4.58073753 19.6788049,4.57900111 19.6165008,4.56988492 L19.4304681,4.53269666 C19.3067395,4.50621631 19.1812517,4.48899685 19.0584027,4.45672844 C18.9323286,4.42214481 18.807134,4.38322013 18.6826724,4.34053322 C18.6819394,4.33373226 18.681353,4.327076 18.68062,4.32041973 C17.8538081,4.02826763 17.0621796,3.56146096 16.3420909,2.96543595 L15.7625895,2.48054161 L15.5986931,2.34350939 L15.4274668,2.21501456 C15.3145864,2.12747022 15.1971615,2.04643745 15.0769513,1.9687328 C14.5999218,1.65386259 14.0843371,1.39542591 13.547789,1.20167076 C12.7274273,0.90459881 11.8644057,0.767566597 11.0103265,0.757726903 C10.7276858,0.752807056 10.4457781,0.76163384 10.1668024,0.783773153 C9.561793,0.830222297 8.96748525,0.944536393 8.38285296,1.11861216 C7.45826022,1.38110047 6.54568851,1.7809104 5.70788171,2.29821786 C5.05537461,2.70121122 4.48320314,3.1900125 3.79639214,3.52600912 C3.62326006,3.60588429 3.44690283,3.67910319 3.26717385,3.7432059 C2.24934487,4.07934722 1.05530525,4.06603469 0.0261882386,3.72323711 L0.0261882386,4.15878828 C0.0210573133,4.15864358 0.0153399965,4.15878828 0.0102090712,4.15864358 C-0.0139795766,4.56568858 0.0103556691,4.93496652 0.0261882386,5.31046662 L0.0261882386,6.13598802 C0.199466916,6.17042695 0.373478582,6.19705201 0.547783444,6.21919132 C0.560097665,6.22107244 0.572705081,6.22223005 0.5851659,6.22411117 C0.612433103,6.2274393 0.639553708,6.23178034 0.666820911,6.23481907 C0.801397751,6.25290674 0.937587168,6.26766628 1.08169287,6.2695474 C1.09166152,6.2695474 1.10250977,6.2695474 1.11262502,6.2695474 C2.4529693,6.33972758 3.80064348,6.06291382 5.04760492,5.50436647 C5.18115558,5.4446048 5.31236067,5.36704486 5.44547153,5.29064253 C5.51188036,5.25200726 5.57872899,5.21308258 5.64587081,5.17401321 C5.71096027,5.12973458 5.77663611,5.08531126 5.84260515,5.04059853 C5.9081344,4.99501759 5.97395684,4.94914725 6.04021907,4.90298751 C6.08786338,4.86898269 6.13565428,4.83468846 6.18373838,4.80024953 C6.2652468,4.74019845 6.34822119,4.68000268 6.43530032,4.62284563 C7.12167153,4.15473664 7.95200184,3.73582613 8.87307622,3.46291932 C9.54830599,3.2626526 10.274112,3.14529977 10.9993317,3.15557357 C11.2437103,3.16121693 11.4877958,3.18118572 11.7298288,3.21793987 C12.6890187,3.3565638 13.5526267,3.76143828 14.2800453,4.39334923 C14.8121955,4.84308114 15.368681,5.30323155 16.0071147,5.68582201 C16.3111587,5.89071917 16.6602082,6.05495525 16.9929854,6.23105683 C17.1689028,6.30890618 17.3486318,6.38198038 17.5268948,6.45592279 C17.6173457,6.49108522 17.7033987,6.53261452 17.7975145,6.5616995 L18.0794222,6.64938854 L18.3619163,6.73490706 L18.5032366,6.77687046 L18.6493947,6.80754716 L19.2363725,6.92157185 C19.4335467,6.95094623 19.6346789,6.96194354 19.8337588,6.98017591 C19.933592,6.98683217 20.0334251,6.99927649 20.1331117,7 L20.4326111,6.99450135 L20.7318174,6.98639807 C20.8316505,6.98393815 20.9314836,6.98118882 21.028678,6.96541637 L21.6152161,6.88684352 C21.7141697,6.87613561 21.8076991,6.85254929 21.9019615,6.82997587 L22.1846022,6.76225562 C22.3723941,6.71580648 22.5637043,6.67456658 22.7391819,6.60713574 C24.190061,6.13106818 25.4198705,5.3611121 26.5036685,4.51431959 L27.2029403,3.98818535 C27.3134751,3.89789168 27.4297272,3.83595949 27.5427542,3.75912305 L27.8831544,3.53700643 C28.340833,3.28710713 28.8002707,3.04010187 29.2495931,2.92535367 C29.6996486,2.79830585 30.134751,2.72566575 30.5701467,2.7724043 C31.0059822,2.80973726 31.4520795,2.9283924 31.9131298,3.12185815 C32.3740334,3.32111196 32.845199,3.60226675 33.3173907,3.91351943 C33.7996977,4.23721643 34.2280566,4.57900111 34.8185528,5.00254207 C34.9543025,5.10556945 35.1014867,5.20121707 35.2488176,5.29643058 L35.6899306,5.58236052 C36.0054092,5.7575939 36.3018301,5.9459951 36.6429633,6.09923387 C37.3017741,6.41989214 38.0293393,6.69583769 38.8470622,6.81536103 C39.0515662,6.84227549 39.2614944,6.85746913 39.4684905,6.8748333 C39.6804711,6.87541211 39.8934778,6.87555681 40.1058981,6.86282309 C40.5316183,6.8227408 40.9590976,6.74749608 41.3572574,6.61248969 C42.1597342,6.35188249 42.8512363,5.93398489 43.4217952,5.50103834 C43.9983646,5.06693418 44.4897606,4.61792578 44.9530099,4.20928907 C45.4150864,3.79819243 45.8474035,3.43340023 46.2707781,3.15528417 C46.6944459,2.8762999 47.0958309,2.6886222 47.4978022,2.61757382 C47.5989548,2.60151197 47.6990811,2.57734683 47.8033122,2.57807034 L47.9581195,2.56649423 L48.0814083,2.57561042 C48.161744,2.56982236 48.2479435,2.59847324 48.3338499,2.61106226 C48.3759234,2.61337748 48.4234212,2.63508269 48.4694529,2.64911872 L48.6096004,2.69238444 C49.0001372,2.84359738 49.4604545,3.13444717 49.9490651,3.47898117 C50.4395816,3.82365987 50.9649883,4.21594533 51.537453,4.58768319 C52.1099177,4.95985516 52.730613,5.31408415 53.3986595,5.59827767 C53.5669539,5.66672143 53.7383268,5.73010064 53.9082337,5.79507156 L54.036067,5.84340182 L54.1587694,5.88218179 L54.4040277,5.95945233 C54.5686571,6.00922961 54.7290351,6.06537375 54.8973295,6.10936297 L55.4033853,6.2384366 C56.085212,6.39355649 56.7893215,6.51872319 57.5215779,6.53521915 C58.2497295,6.55880547 58.9941534,6.49716268 59.7135092,6.34016168 C60.4343309,6.18475239 61.1158643,5.92964385 61.7512195,5.63647884 C62.3858417,5.34085391 62.9819086,5.0061596 63.540593,4.65496934 C63.6814736,4.57075313 63.8277783,4.47221149 63.9708578,4.38119431 L64.1865032,4.24199158 L64.3785464,4.1082875 L64.7561825,3.84362866 L65.1204782,3.60819951 C65.6074763,3.30693122 66.099752,3.03011747 66.5936402,2.8352047 C67.1114239,2.63016284 67.626129,2.50137861 68.1267607,2.47388534 C68.627539,2.44537917 69.1162963,2.51830867 69.6002158,2.68674108 C70.082816,2.86400028 70.5536883,3.1474703 71.0101941,3.48086229 C71.2387402,3.66926349 71.4341551,3.82091055 71.7345341,4.07428267 C71.8749749,4.18830737 72.0080858,4.30739661 72.1546836,4.41650145 C72.9027725,4.96347269 73.7031969,5.46905933 74.5555169,5.83631145 C75.026096,6.03903809 75.5207172,6.18938283 76.027506,6.26607457 C76.5315095,6.3423322 77.0324344,6.32366572 77.5358515,6.2689686 C77.8828486,6.23134624 78.2275002,6.17216337 78.5684868,6.09720805 C78.6334297,6.08288261 78.6982259,6.06783367 78.7628756,6.05191652 C79.2401983,5.93658951 79.7569557,5.76945941 80.2864672,5.50436647 C80.4200179,5.4446048 80.551223,5.36704486 80.6844804,5.29064253 C80.7507427,5.25200726 80.8175913,5.21308258 80.8848797,5.17401321 C80.9499692,5.12973458 81.0154984,5.08531126 81.0814674,5.04059853 C81.1469967,4.99501759 81.2129657,4.94914725 81.279228,4.90298751 C81.3267257,4.86898269 81.3746632,4.83468846 81.4227473,4.80024953 C81.5042557,4.74019845 81.5870835,4.68000268 81.6741626,4.62284563 C82.3606804,4.15473664 83.1908641,3.73582613 84.1120851,3.46291932 C85.0306673,3.19030191 86.0429256,3.06947625 87.020147,3.21793987 C87.9793368,3.3565638 88.8429448,3.76143828 89.5703634,4.39334923 C90.1025137,4.84308114 90.6589992,5.30323155 91.2974329,5.68582201 C91.6014769,5.89071917 91.9505264,6.05495525 92.2833035,6.23105683 C92.459221,6.30890618 92.63895,6.38198038 92.817213,6.45592279 C92.9076638,6.49108522 92.9937168,6.53261452 93.0878326,6.5616995 L93.3697403,6.64938854 L93.6522344,6.73490706 L93.7935547,6.77687046 L93.9398594,6.80754716 L94.5266907,6.92157185 C94.7238648,6.95094623 94.9249971,6.96194354 95.124077,6.98017591 C95.2239101,6.98683217 95.3237433,6.99927649 95.4234298,7 L95.7229293,6.99450135 L96.0221355,6.98639807 C96.1219686,6.98393815 96.2218018,6.98118882 96.3189962,6.96541637 L96.9055342,6.88684352 C97.0044878,6.87613561 97.0980172,6.85254929 97.1922797,6.82997587 L97.4749203,6.76225562 C97.6627122,6.71580648 97.8540224,6.67456658 98.0295001,6.60713574 C99.4803791,6.13106818 100.710189,5.3611121 101.793987,4.51431959 L102.493258,3.98818535 C102.603793,3.89789168 102.720045,3.83595949 102.833072,3.75912305 L103.173473,3.53700643 C103.631298,3.28710713 104.090589,3.04010187 104.539911,2.92535367 C104.989967,2.79830585 105.425216,2.72566575 105.860465,2.7724043 C106.2963,2.80973726 106.742398,2.9283924 107.203448,3.12185815 C107.664352,3.32111196 108.135517,3.60226675 108.607709,3.91351943 C109.090016,4.23721643 109.518375,4.57900111 110.108871,5.00254207 C110.244621,5.10556945 110.391805,5.20121707 110.539136,5.29643058 L110.980249,5.58236052 C111.295727,5.7575939 111.592148,5.9459951 111.933281,6.09923387 C112.592092,6.41989214 113.319657,6.69583769 114.13738,6.81536103 C114.341884,6.84227549 114.551813,6.85746913 114.758809,6.8748333 C114.970789,6.87541211 115.183796,6.87555681 115.396216,6.86282309 C115.821936,6.8227408 116.249416,6.74749608 116.647576,6.61248969 C117.450052,6.35188249 118.141554,5.93398489 118.712113,5.50103834 C119.288683,5.06693418 119.780079,4.61792578 120.243328,4.20928907 C120.705405,3.79819243 121.137722,3.43340023 121.561096,3.15528417 C121.984764,2.8762999 122.386149,2.6886222 122.78812,2.61757382 C122.889273,2.60151197 122.989399,2.57734683 123.09363,2.57807034 L123.248438,2.56649423 L123.371726,2.57561042 C123.452062,2.56982236 123.538262,2.59847324 123.624168,2.61106226 C123.666242,2.61337748 123.713739,2.63508269 123.759771,2.64911872 L123.899919,2.69238444 C124.290455,2.84359738 124.750773,3.13444717 125.239383,3.47898117 C125.7299,3.82365987 126.255306,4.21594533 126.827771,4.58768319 C127.400236,4.95985516 128.020931,5.31408415 128.688978,5.59827767 C128.857272,5.66672143 129.028645,5.73010064 129.198552,5.79507156 L129.326385,5.84340182 L129.449088,5.88218179 L129.694492,5.95945233 C129.859122,6.00922961 130.0195,6.06537375 130.187648,6.10936297 L130.693703,6.2384366 C131.37553,6.39355649 132.07964,6.51872319 132.811896,6.53521915 C133.540048,6.55880547 134.284472,6.49716268 135.003827,6.34016168 C135.724649,6.18475239 136.406182,5.92964385 137.041538,5.63647884 C137.67616,5.34085391 138.272227,5.0061596 138.830911,4.65496934 C138.971792,4.57075313 139.118096,4.47221149 139.261176,4.38119431 L139.476821,4.24199158 L139.668865,4.1082875 L140.046647,3.84362866 L140.410796,3.60819951 C140.897794,3.30693122 141.390217,3.03011747 141.883958,2.8352047 C142.401742,2.63016284 142.916594,2.50137861 143.417079,2.47388534 C143.917857,2.44537917 144.406614,2.51830867 144.890534,2.68674108 C145.373134,2.86400028 145.844006,3.1474703 146.300659,3.48086229 C146.529058,3.66926349 146.724473,3.82091055 147.024999,4.07428267 C147.165293,4.18830737 147.29855,4.30739661 147.445002,4.41650145 L147.888167,4.74048786 C148.496402,5.15361031 149.139233,5.54661928 149.866066,5.81590856 C150.239304,5.95424308 150.618113,6.0600198 151,6.13598802 L151,3.72323711 C150.84402,3.67128931 150.691705,3.61181704 150.54452,3.5448203" id="Fill-1" fill="#FFFFFF" mask="url(#mask-2)"></path>
        </g>
    </g>
</svg>