<?xml version="1.0" encoding="UTF-8"?>
<svg width="377px" height="702px" viewBox="0 0 377 702" version="1.1" xmlns="http://www.w3.org/2000/svg" xmlns:xlink="http://www.w3.org/1999/xlink">
    <title>AboutYOU_Back</title>
    <g id="AboutYOU_Back" stroke="none" stroke-width="1" fill="none" fill-rule="evenodd">
        <g id="About-you" transform="translate(20.841000, 32.909000)" fill="#FFFFFF" fill-rule="nonzero">
            <path d="M0.889,93.091 L25.146,93.091 L25.781,86.106 L33.782,86.106 L34.417,93.091 L58.674,93.091 L45.212,1.651 L13.589,1.651 L0.889,93.091 Z M28.956,53.721 L29.591,35.052 L30.48,53.721 L31.75,66.04 L27.813,66.04 L28.956,53.721 Z" id="Shape"></path>
            <path d="M58.674,93.091 L89.789,93.091 C106.426,93.091 109.728,86.995 109.728,71.755 L109.728,60.96 C109.728,51.816 107.569,47.498 100.838,45.72 C107.569,43.688 109.22,39.37 109.22,31.623 L109.22,21.336 C109.22,6.223 102.362,1.651 84.328,1.651 L58.674,1.651 L58.674,93.091 Z M82.804,19.685 C84.709,19.685 85.09,20.066 85.09,22.225 L85.09,34.036 C85.09,36.449 84.455,36.83 83.312,36.83 L82.423,36.83 L82.423,19.685 L82.804,19.685 Z M82.804,56.007 C84.836,56.007 85.344,56.134 85.344,58.801 L85.344,70.231 C85.344,72.898 84.963,73.533 82.931,73.533 L82.423,73.533 L82.423,56.007 L82.804,56.007 Z" id="Shape"></path>
            <path d="M138.176,94.488 C154.051,94.488 164.973,87.249 164.973,67.691 L164.973,26.797 C164.973,7.747 154.051,0 138.176,0 C121.666,0 111.379,7.62 111.379,26.797 L111.379,67.691 C111.379,87.249 121.412,94.488 138.176,94.488 Z M138.176,71.755 C136.779,71.755 136.779,71.374 136.779,66.802 L136.779,26.797 C136.779,22.225 136.779,21.844 138.176,21.844 C139.573,21.844 139.573,22.225 139.573,26.797 L139.573,66.802 C139.573,71.374 139.573,71.755 138.176,71.755 Z" id="Shape"></path>
            <path d="M193.548,94.488 C211.836,94.488 220.091,85.852 220.091,67.31 L220.091,1.651 L194.818,1.651 L194.818,65.786 C194.818,70.358 194.691,70.485 193.548,70.485 C192.405,70.485 192.278,70.231 192.278,65.786 L192.278,1.651 L167.132,1.651 L167.132,67.31 C167.132,85.471 174.117,94.488 193.548,94.488 Z" id="Path"></path>
            <polygon id="Path" points="231.521 93.091 257.175 93.091 257.175 25.4 266.7 25.4 266.7 1.651 221.996 1.651 221.996 25.4 231.521 25.4"></polygon>
            <polygon id="Path" points="16.129 192.091 41.91 192.091 41.91 164.786 58.166 100.651 33.147 100.651 29.718 119.574 29.21 139.259 28.321 119.574 25.273 100.651 0 100.651 16.129 167.326"></polygon>
            <path d="M83.947,193.488 C99.822,193.488 110.744,186.249 110.744,166.691 L110.744,125.797 C110.744,106.747 99.822,99 83.947,99 C67.437,99 57.15,106.62 57.15,125.797 L57.15,166.691 C57.15,186.249 67.183,193.488 83.947,193.488 Z M83.947,170.755 C82.55,170.755 82.55,170.374 82.55,165.802 L82.55,125.797 C82.55,121.225 82.55,120.844 83.947,120.844 C85.344,120.844 85.344,121.225 85.344,125.797 L85.344,165.802 C85.344,170.374 85.344,170.755 83.947,170.755 Z" id="Shape"></path>
            <path d="M139.319,193.488 C157.607,193.488 165.862,184.852 165.862,166.31 L165.862,100.651 L140.589,100.651 L140.589,164.786 C140.589,169.358 140.462,169.485 139.319,169.485 C138.176,169.485 138.049,169.231 138.049,164.786 L138.049,100.651 L112.903,100.651 L112.903,166.31 C112.903,184.471 119.888,193.488 139.319,193.488 Z" id="Path"></path>
        </g>
        <g id="WITH-OVER-40M-ACTIVE" transform="translate(23.280000, 308.447143)" fill="#FFFFFF" fill-rule="nonzero">
            <path d="M2.156,10.01 L3.598,10.01 L6.062,1.89 L6.09,1.89 L8.568,10.01 L9.996,10.01 L11.802,0.21 L10.612,0.21 L9.17,8.302 L9.142,8.302 L6.692,0.21 L5.474,0.21 L3.038,8.302 L3.01,8.302 L1.54,0.21 L0.35,0.21 L2.156,10.01 Z" id="Path"></path>
            <path d="M13.832,10.01 L14.994,10.01 L14.994,0.21 L13.832,0.21 L13.832,10.01 Z" id="Path"></path>
            <path d="M19.782,10.01 L20.93,10.01 L20.93,1.274 L23.954,1.274 L23.954,0.21 L16.744,0.21 L16.744,1.274 L19.782,1.274 L19.782,10.01 Z" id="Path"></path>
            <path d="M25.634,10.01 L26.796,10.01 L26.796,5.46 L31.178,5.46 L31.178,10.01 L32.326,10.01 L32.326,0.21 L31.178,0.21 L31.178,4.424 L26.796,4.424 L26.796,0.21 L25.634,0.21 L25.634,10.01 Z" id="Path"></path>
            <path d="M42.084,9.128 C40.432,9.128 39.158,7.826 39.158,5.026 C39.158,2.31 40.516,1.106 42.084,1.106 C43.624,1.106 44.954,2.366 44.954,5.082 C44.954,7.882 43.694,9.128 42.084,9.128 Z M42.084,10.22 C44.17,10.22 46.186,8.834 46.186,5.082 C46.186,1.708 44.17,0 42.084,0 C39.956,0 37.926,1.652 37.926,5.026 C37.926,8.778 39.97,10.22 42.084,10.22 Z" id="Shape"></path>
            <path d="M50.694,10.01 L52.066,10.01 L55.454,0.21 L54.222,0.21 L51.394,8.596 L51.366,8.596 L48.482,0.21 L47.236,0.21 L50.694,10.01 Z" id="Path"></path>
            <path d="M57.064,10.01 L62.958,10.01 L62.958,8.946 L58.226,8.946 L58.226,5.488 L62.566,5.488 L62.566,4.452 L58.226,4.452 L58.226,1.274 L62.958,1.274 L62.958,0.21 L57.064,0.21 L57.064,10.01 Z" id="Path"></path>
            <path d="M65.268,10.01 L66.43,10.01 L66.43,6.006 L68.656,6.006 L70.784,10.01 L72.086,10.01 L69.902,5.922 C71.302,5.67 72.31,4.76 72.31,3.122 C72.31,1.162 71.022,0.21 69.034,0.21 L65.268,0.21 L65.268,10.01 Z M66.43,4.97 L66.43,1.274 L68.936,1.274 C70.21,1.274 71.148,1.736 71.148,3.122 C71.148,4.508 70.14,4.97 68.964,4.97 L66.43,4.97 Z" id="Shape"></path>
            <path d="M81.0679297,6.54417969 L81.0679297,2.10765625 L77.9302344,6.54417969 L81.0679297,6.54417969 Z M81.0884375,10.01 L81.0884375,7.61742188 L76.7954688,7.61742188 L76.7954688,6.41429688 L81.2798438,0.19359375 L82.3189063,0.19359375 L82.3189063,6.54417969 L83.7612891,6.54417969 L83.7612891,7.61742188 L82.3189063,7.61742188 L82.3189063,10.01 L81.0884375,10.01 Z" id="Shape"></path>
            <path d="M88.0132422,0.2209375 C89.2801693,0.2209375 90.1961849,0.742747396 90.7612891,1.78636719 C91.1987891,2.59300781 91.4175391,3.69815104 91.4175391,5.10179688 C91.4175391,6.43252604 91.2192969,7.53311198 90.8228125,8.40355469 C90.2485938,9.6522526 89.3097917,10.2766016 88.0064063,10.2766016 C86.830625,10.2766016 85.955625,9.7661849 85.3814063,8.74535156 C84.9028906,7.89313802 84.6636328,6.74925781 84.6636328,5.31371094 C84.6636328,4.20173177 84.8071875,3.24697917 85.0942969,2.44945313 C85.6320573,0.963776042 86.6050391,0.2209375 88.0132422,0.2209375 Z M87.9995703,9.15550781 C88.6375911,9.15550781 89.1457292,8.87295573 89.5239844,8.30785156 C89.9022396,7.7427474 90.0913672,6.69001302 90.0913672,5.14964844 C90.0913672,4.03766927 89.9546484,3.12279297 89.6812109,2.40501953 C89.4077734,1.68724609 88.876849,1.32835938 88.0884375,1.32835938 C87.3638281,1.32835938 86.834043,1.66901693 86.499082,2.35033203 C86.1641211,3.03164714 85.9966406,4.03539063 85.9966406,5.3615625 C85.9966406,6.35960938 86.103737,7.16169271 86.3179297,7.7678125 C86.6460547,8.69294271 87.2066016,9.15550781 87.9995703,9.15550781 Z" id="Shape"></path>
            <path d="M93.3422656,10.01 L94.4762656,10.01 L94.4762656,1.834 L94.5042656,1.834 L97.8782656,10.01 L98.2422656,10.01 L101.616266,1.834 L101.644266,1.834 L101.644266,10.01 L102.778266,10.01 L102.778266,0.21 L101.140266,0.21 L98.0742656,7.728 L98.0462656,7.728 L94.9802656,0.21 L93.3422656,0.21 L93.3422656,10.01 Z" id="Path"></path>
            <path d="M107.888266,10.01 L109.064266,10.01 L109.778266,8.092 L114.174266,8.092 L114.902266,10.01 L116.078266,10.01 L112.550266,0.21 L111.416266,0.21 L107.888266,10.01 Z M110.128266,7.084 L111.962266,1.764 L111.990266,1.764 L113.838266,7.084 L110.128266,7.084 Z" id="Shape"></path>
            <path d="M121.286266,1.106 C122.966266,1.106 123.568266,2.296 123.792266,3.626 L124.968266,3.416 C124.702266,1.428 123.400266,0 121.286266,0 C119.158266,0 117.128266,1.652 117.128266,5.026 C117.128266,8.778 119.172266,10.22 121.286266,10.22 C123.498266,10.22 124.814266,8.778 124.996266,6.524 L123.778266,6.37 C123.624266,7.868 123.036266,9.128 121.286266,9.128 C119.634266,9.128 118.360266,7.826 118.360266,5.026 C118.360266,2.31 119.718266,1.106 121.286266,1.106 Z" id="Path"></path>
            <path d="M129.084266,10.01 L130.232266,10.01 L130.232266,1.274 L133.256266,1.274 L133.256266,0.21 L126.046266,0.21 L126.046266,1.274 L129.084266,1.274 L129.084266,10.01 Z" id="Path"></path>
            <path d="M135.006266,10.01 L136.168266,10.01 L136.168266,0.21 L135.006266,0.21 L135.006266,10.01 Z" id="Path"></path>
            <path d="M141.306266,10.01 L142.678266,10.01 L146.066266,0.21 L144.834266,0.21 L142.006266,8.596 L141.978266,8.596 L139.094266,0.21 L137.848266,0.21 L141.306266,10.01 Z" id="Path"></path>
            <path d="M147.676266,10.01 L153.570266,10.01 L153.570266,8.946 L148.838266,8.946 L148.838266,5.488 L153.178266,5.488 L153.178266,4.452 L148.838266,4.452 L148.838266,1.274 L153.570266,1.274 L153.570266,0.21 L147.676266,0.21 L147.676266,10.01 Z" id="Path"></path>
            <path d="M159.170266,6.818 C159.170266,9.086 160.472266,10.22 162.642266,10.22 C164.812266,10.22 166.128266,9.086 166.128266,6.818 L166.128266,0.21 L164.980266,0.21 L164.980266,6.762 C164.980266,8.288 164.182266,9.128 162.642266,9.128 C161.116266,9.128 160.332266,8.302 160.332266,6.734 L160.332266,0.21 L159.170266,0.21 L159.170266,6.818 Z" id="Path"></path>
            <path d="M167.948266,6.636 C168.242266,8.96 169.516266,10.22 171.882266,10.22 C174.108266,10.22 175.298266,8.904 175.298266,7.378 C175.298266,5.922 174.668266,5.208 172.008266,4.34 C169.866266,3.64 169.572266,3.29 169.572266,2.576 C169.572266,1.792 170.174266,1.106 171.476266,1.106 C172.974266,1.106 173.506266,1.876 173.716266,2.954 L174.892266,2.702 C174.640266,0.868 173.240266,0 171.476266,0 C169.516266,0 168.396266,1.218 168.396266,2.576 C168.396266,3.976 169.334266,4.69 171.434266,5.362 C173.786266,6.132 174.136266,6.552 174.136266,7.434 C174.136266,8.302 173.464266,9.128 171.924266,9.128 C170.034266,9.128 169.432266,8.19 169.166266,6.398 L167.948266,6.636 Z" id="Path"></path>
            <path d="M177.188266,10.01 L183.082266,10.01 L183.082266,8.946 L178.350266,8.946 L178.350266,5.488 L182.690266,5.488 L182.690266,4.452 L178.350266,4.452 L178.350266,1.274 L183.082266,1.274 L183.082266,0.21 L177.188266,0.21 L177.188266,10.01 Z" id="Path"></path>
            <path d="M185.392266,10.01 L186.554266,10.01 L186.554266,6.006 L188.780266,6.006 L190.908266,10.01 L192.210266,10.01 L190.026266,5.922 C191.426266,5.67 192.434266,4.76 192.434266,3.122 C192.434266,1.162 191.146266,0.21 189.158266,0.21 L185.392266,0.21 L185.392266,10.01 Z M186.554266,4.97 L186.554266,1.274 L189.060266,1.274 C190.334266,1.274 191.272266,1.736 191.272266,3.122 C191.272266,4.508 190.264266,4.97 189.088266,4.97 L186.554266,4.97 Z" id="Shape"></path>
            <path d="M193.764266,6.636 C194.058266,8.96 195.332266,10.22 197.698266,10.22 C199.924266,10.22 201.114266,8.904 201.114266,7.378 C201.114266,5.922 200.484266,5.208 197.824266,4.34 C195.682266,3.64 195.388266,3.29 195.388266,2.576 C195.388266,1.792 195.990266,1.106 197.292266,1.106 C198.790266,1.106 199.322266,1.876 199.532266,2.954 L200.708266,2.702 C200.456266,0.868 199.056266,0 197.292266,0 C195.332266,0 194.212266,1.218 194.212266,2.576 C194.212266,3.976 195.150266,4.69 197.250266,5.362 C199.602266,6.132 199.952266,6.552 199.952266,7.434 C199.952266,8.302 199.280266,9.128 197.740266,9.128 C195.850266,9.128 195.248266,8.19 194.982266,6.398 L193.764266,6.636 Z" id="Path"></path>
            <path d="M206.504266,10.01 L207.666266,10.01 L207.666266,6.23 L210.298266,6.23 C212.244266,6.23 213.546266,5.18 213.546266,3.234 C213.546266,1.26 212.188266,0.21 210.270266,0.21 L206.504266,0.21 L206.504266,10.01 Z M207.666266,5.166 L207.666266,1.274 L210.200266,1.274 C211.334266,1.274 212.370266,1.82 212.370266,3.234 C212.370266,4.578 211.362266,5.166 210.228266,5.166 L207.666266,5.166 Z" id="Shape"></path>
            <path d="M215.156266,10.01 L221.050266,10.01 L221.050266,8.946 L216.318266,8.946 L216.318266,5.488 L220.658266,5.488 L220.658266,4.452 L216.318266,4.452 L216.318266,1.274 L221.050266,1.274 L221.050266,0.21 L215.156266,0.21 L215.156266,10.01 Z" id="Path"></path>
            <path d="M223.360266,10.01 L224.522266,10.01 L224.522266,6.006 L226.748266,6.006 L228.876266,10.01 L230.178266,10.01 L227.994266,5.922 C229.394266,5.67 230.402266,4.76 230.402266,3.122 C230.402266,1.162 229.114266,0.21 227.126266,0.21 L223.360266,0.21 L223.360266,10.01 Z M224.522266,4.97 L224.522266,1.274 L227.028266,1.274 C228.302266,1.274 229.240266,1.736 229.240266,3.122 C229.240266,4.508 228.232266,4.97 227.056266,4.97 L224.522266,4.97 Z" id="Shape"></path>
            <path d="M235.862266,10.01 L236.996266,10.01 L236.996266,1.834 L237.024266,1.834 L240.398266,10.01 L240.762266,10.01 L244.136266,1.834 L244.164266,1.834 L244.164266,10.01 L245.298266,10.01 L245.298266,0.21 L243.660266,0.21 L240.594266,7.728 L240.566266,7.728 L237.500266,0.21 L235.862266,0.21 L235.862266,10.01 Z" id="Path"></path>
            <path d="M251.556266,9.128 C249.904266,9.128 248.630266,7.826 248.630266,5.026 C248.630266,2.31 249.988266,1.106 251.556266,1.106 C253.096266,1.106 254.426266,2.366 254.426266,5.082 C254.426266,7.882 253.166266,9.128 251.556266,9.128 Z M251.556266,10.22 C253.642266,10.22 255.658266,8.834 255.658266,5.082 C255.658266,1.708 253.642266,0 251.556266,0 C249.428266,0 247.398266,1.652 247.398266,5.026 C247.398266,8.778 249.442266,10.22 251.556266,10.22 Z" id="Shape"></path>
            <path d="M257.758266,10.01 L258.920266,10.01 L258.920266,2.128 L258.948266,2.128 L263.442266,10.01 L264.660266,10.01 L264.660266,0.21 L263.512266,0.21 L263.512266,8.092 L263.484266,8.092 L259.018266,0.21 L257.758266,0.21 L257.758266,10.01 Z" id="Path"></path>
            <path d="M269.378266,10.01 L270.526266,10.01 L270.526266,1.274 L273.550266,1.274 L273.550266,0.21 L266.340266,0.21 L266.340266,1.274 L269.378266,1.274 L269.378266,10.01 Z" id="Path"></path>
            <path d="M275.230266,10.01 L276.392266,10.01 L276.392266,5.46 L280.774266,5.46 L280.774266,10.01 L281.922266,10.01 L281.922266,0.21 L280.774266,0.21 L280.774266,4.424 L276.392266,4.424 L276.392266,0.21 L275.230266,0.21 L275.230266,10.01 Z" id="Path"></path>
            <path d="M0,30.01 L1.176,30.01 L1.89,28.092 L6.286,28.092 L7.014,30.01 L8.19,30.01 L4.662,20.21 L3.528,20.21 L0,30.01 Z M2.24,27.084 L4.074,21.764 L4.102,21.764 L5.95,27.084 L2.24,27.084 Z" id="Shape"></path>
            <path d="M9.8,30.01 L10.962,30.01 L10.962,26.006 L13.188,26.006 L15.316,30.01 L16.618,30.01 L14.434,25.922 C15.834,25.67 16.842,24.76 16.842,23.122 C16.842,21.162 15.554,20.21 13.566,20.21 L9.8,20.21 L9.8,30.01 Z M10.962,24.97 L10.962,21.274 L13.468,21.274 C14.742,21.274 15.68,21.736 15.68,23.122 C15.68,24.508 14.672,24.97 13.496,24.97 L10.962,24.97 Z" id="Shape"></path>
            <path d="M22.4,29.128 C20.748,29.128 19.474,27.826 19.474,25.026 C19.474,22.31 20.832,21.106 22.4,21.106 C23.94,21.106 25.27,22.366 25.27,25.082 C25.27,27.882 24.01,29.128 22.4,29.128 Z M22.4,30.22 C24.486,30.22 26.502,28.834 26.502,25.082 C26.502,21.708 24.486,20 22.4,20 C20.272,20 18.242,21.652 18.242,25.026 C18.242,28.778 20.286,30.22 22.4,30.22 Z" id="Shape"></path>
            <path d="M28.392,26.818 C28.392,29.086 29.694,30.22 31.864,30.22 C34.034,30.22 35.35,29.086 35.35,26.818 L35.35,20.21 L34.202,20.21 L34.202,26.762 C34.202,28.288 33.404,29.128 31.864,29.128 C30.338,29.128 29.554,28.302 29.554,26.734 L29.554,20.21 L28.392,20.21 L28.392,26.818 Z" id="Path"></path>
            <path d="M37.8,30.01 L38.962,30.01 L38.962,22.128 L38.99,22.128 L43.484,30.01 L44.702,30.01 L44.702,20.21 L43.554,20.21 L43.554,28.092 L43.526,28.092 L39.06,20.21 L37.8,20.21 L37.8,30.01 Z" id="Path"></path>
            <path d="M48.524,28.946 L48.524,21.274 L50.33,21.274 C52.22,21.274 53.438,22.59 53.438,25.096 C53.438,27.868 52.206,28.946 50.246,28.946 L48.524,28.946 Z M47.362,30.01 L50.344,30.01 C52.514,30.01 54.67,28.848 54.67,25.096 C54.67,21.708 52.598,20.21 50.428,20.21 L47.362,20.21 L47.362,30.01 Z" id="Shape"></path>
            <path d="M62.258,30.01 L63.406,30.01 L63.406,21.274 L66.43,21.274 L66.43,20.21 L59.22,20.21 L59.22,21.274 L62.258,21.274 L62.258,30.01 Z" id="Path"></path>
            <path d="M68.11,30.01 L69.272,30.01 L69.272,25.46 L73.654,25.46 L73.654,30.01 L74.802,30.01 L74.802,20.21 L73.654,20.21 L73.654,24.424 L69.272,24.424 L69.272,20.21 L68.11,20.21 L68.11,30.01 Z" id="Path"></path>
            <path d="M77.462,30.01 L83.356,30.01 L83.356,28.946 L78.624,28.946 L78.624,25.488 L82.964,25.488 L82.964,24.452 L78.624,24.452 L78.624,21.274 L83.356,21.274 L83.356,20.21 L77.462,20.21 L77.462,30.01 Z" id="Path"></path>
            <path d="M90.272,30.01 L91.714,30.01 L94.178,21.89 L94.206,21.89 L96.684,30.01 L98.112,30.01 L99.918,20.21 L98.728,20.21 L97.286,28.302 L97.258,28.302 L94.808,20.21 L93.59,20.21 L91.154,28.302 L91.126,28.302 L89.656,20.21 L88.466,20.21 L90.272,30.01 Z" id="Path"></path>
            <path d="M105.476,29.128 C103.824,29.128 102.55,27.826 102.55,25.026 C102.55,22.31 103.908,21.106 105.476,21.106 C107.016,21.106 108.346,22.366 108.346,25.082 C108.346,27.882 107.086,29.128 105.476,29.128 Z M105.476,30.22 C107.562,30.22 109.578,28.834 109.578,25.082 C109.578,21.708 107.562,20 105.476,20 C103.348,20 101.318,21.652 101.318,25.026 C101.318,28.778 103.362,30.22 105.476,30.22 Z" id="Shape"></path>
            <path d="M111.678,30.01 L112.84,30.01 L112.84,26.006 L115.066,26.006 L117.194,30.01 L118.496,30.01 L116.312,25.922 C117.712,25.67 118.72,24.76 118.72,23.122 C118.72,21.162 117.432,20.21 115.444,20.21 L111.678,20.21 L111.678,30.01 Z M112.84,24.97 L112.84,21.274 L115.346,21.274 C116.62,21.274 117.558,21.736 117.558,23.122 C117.558,24.508 116.55,24.97 115.374,24.97 L112.84,24.97 Z" id="Shape"></path>
            <path d="M120.68,30.01 L126.098,30.01 L126.098,28.946 L121.842,28.946 L121.842,20.21 L120.68,20.21 L120.68,30.01 Z" id="Path"></path>
            <path d="M129.01,28.946 L129.01,21.274 L130.816,21.274 C132.706,21.274 133.924,22.59 133.924,25.096 C133.924,27.868 132.692,28.946 130.732,28.946 L129.01,28.946 Z M127.848,30.01 L130.83,30.01 C133,30.01 135.156,28.848 135.156,25.096 C135.156,21.708 133.084,20.21 130.914,20.21 L127.848,20.21 L127.848,30.01 Z" id="Shape"></path>
            <path d="M137.186,31.494 C138.404,31.41 138.838,30.724 138.838,29.8 L138.838,28.358 L137.186,28.358 L137.186,30.01 L137.858,30.01 C137.858,30.458 137.718,30.766 137.186,30.864 L137.186,31.494 Z" id="Path"></path>
            <path d="M143.948,30.01 L145.124,30.01 L145.838,28.092 L150.234,28.092 L150.962,30.01 L152.138,30.01 L148.61,20.21 L147.476,20.21 L143.948,30.01 Z M146.188,27.084 L148.022,21.764 L148.05,21.764 L149.898,27.084 L146.188,27.084 Z" id="Shape"></path>
            <path d="M153.748,30.01 L157.276,30.01 C159.698,30.01 160.734,28.876 160.734,27.112 C160.734,25.782 159.936,24.998 159.152,24.746 L159.152,24.704 C159.824,24.41 160.37,23.794 160.37,22.744 C160.37,21.302 159.278,20.21 157.514,20.21 L153.748,20.21 L153.748,30.01 Z M154.91,24.354 L154.91,21.274 L157.29,21.274 C158.494,21.274 159.222,21.806 159.222,22.814 C159.222,23.794 158.62,24.354 157.304,24.354 L154.91,24.354 Z M154.91,28.946 L154.91,25.39 L157.15,25.39 C158.774,25.39 159.586,25.838 159.586,27.112 C159.586,28.442 158.704,28.946 157.122,28.946 L154.91,28.946 Z" id="Shape"></path>
            <path d="M166.432,29.128 C164.78,29.128 163.506,27.826 163.506,25.026 C163.506,22.31 164.864,21.106 166.432,21.106 C167.972,21.106 169.302,22.366 169.302,25.082 C169.302,27.882 168.042,29.128 166.432,29.128 Z M166.432,30.22 C168.518,30.22 170.534,28.834 170.534,25.082 C170.534,21.708 168.518,20 166.432,20 C164.304,20 162.274,21.652 162.274,25.026 C162.274,28.778 164.318,30.22 166.432,30.22 Z" id="Shape"></path>
            <path d="M172.424,26.818 C172.424,29.086 173.726,30.22 175.896,30.22 C178.066,30.22 179.382,29.086 179.382,26.818 L179.382,20.21 L178.234,20.21 L178.234,26.762 C178.234,28.288 177.436,29.128 175.896,29.128 C174.37,29.128 173.586,28.302 173.586,26.734 L173.586,20.21 L172.424,20.21 L172.424,26.818 Z" id="Path"></path>
            <path d="M183.89,30.01 L185.038,30.01 L185.038,21.274 L188.062,21.274 L188.062,20.21 L180.852,20.21 L180.852,21.274 L183.89,21.274 L183.89,30.01 Z" id="Path"></path>
            <path d="M191.856,30.01 L192.976,30.01 L192.976,25.88 L196.21,20.21 L194.922,20.21 L192.43,24.76 L192.402,24.76 L189.91,20.21 L188.622,20.21 L191.856,25.88 L191.856,30.01 Z" id="Path"></path>
            <path d="M201.348,29.128 C199.696,29.128 198.422,27.826 198.422,25.026 C198.422,22.31 199.78,21.106 201.348,21.106 C202.888,21.106 204.218,22.366 204.218,25.082 C204.218,27.882 202.958,29.128 201.348,29.128 Z M201.348,30.22 C203.434,30.22 205.45,28.834 205.45,25.082 C205.45,21.708 203.434,20 201.348,20 C199.22,20 197.19,21.652 197.19,25.026 C197.19,28.778 199.234,30.22 201.348,30.22 Z" id="Shape"></path>
            <path d="M207.34,26.818 C207.34,29.086 208.642,30.22 210.812,30.22 C212.982,30.22 214.298,29.086 214.298,26.818 L214.298,20.21 L213.15,20.21 L213.15,26.762 C213.15,28.288 212.352,29.128 210.812,29.128 C209.286,29.128 208.502,28.302 208.502,26.734 L208.502,20.21 L207.34,20.21 L207.34,26.818 Z" id="Path"></path>
            <path d="M216.748,30.01 L218.4,30.01 L218.4,28.358 L216.748,28.358 L216.748,30.01 Z" id="Path"></path>
            <path d="M224.658,21.106 C226.338,21.106 226.94,22.296 227.164,23.626 L228.34,23.416 C228.074,21.428 226.772,20 224.658,20 C222.53,20 220.5,21.652 220.5,25.026 C220.5,28.778 222.544,30.22 224.658,30.22 C226.87,30.22 228.186,28.778 228.368,26.524 L227.15,26.37 C226.996,27.868 226.408,29.128 224.658,29.128 C223.006,29.128 221.732,27.826 221.732,25.026 C221.732,22.31 223.09,21.106 224.658,21.106 Z" id="Path"></path>
            <path d="M233.996,29.128 C232.344,29.128 231.07,27.826 231.07,25.026 C231.07,22.31 232.428,21.106 233.996,21.106 C235.536,21.106 236.866,22.366 236.866,25.082 C236.866,27.882 235.606,29.128 233.996,29.128 Z M233.996,30.22 C236.082,30.22 238.098,28.834 238.098,25.082 C238.098,21.708 236.082,20 233.996,20 C231.868,20 229.838,21.652 229.838,25.026 C229.838,28.778 231.882,30.22 233.996,30.22 Z" id="Shape"></path>
            <path d="M240.198,30.01 L241.332,30.01 L241.332,21.834 L241.36,21.834 L244.734,30.01 L245.098,30.01 L248.472,21.834 L248.5,21.834 L248.5,30.01 L249.634,30.01 L249.634,20.21 L247.996,20.21 L244.93,27.728 L244.902,27.728 L241.836,20.21 L240.198,20.21 L240.198,30.01 Z" id="Path"></path>
            <path d="M255.864,30.01 L257.026,30.01 L257.026,20.21 L255.864,20.21 L255.864,30.01 Z" id="Path"></path>
            <path d="M259.126,26.636 C259.42,28.96 260.694,30.22 263.06,30.22 C265.286,30.22 266.476,28.904 266.476,27.378 C266.476,25.922 265.846,25.208 263.186,24.34 C261.044,23.64 260.75,23.29 260.75,22.576 C260.75,21.792 261.352,21.106 262.654,21.106 C264.152,21.106 264.684,21.876 264.894,22.954 L266.07,22.702 C265.818,20.868 264.418,20 262.654,20 C260.694,20 259.574,21.218 259.574,22.576 C259.574,23.976 260.512,24.69 262.612,25.362 C264.964,26.132 265.314,26.552 265.314,27.434 C265.314,28.302 264.642,29.128 263.102,29.128 C261.212,29.128 260.61,28.19 260.344,26.398 L259.126,26.636 Z" id="Path"></path>
            <path d="M275.464,29.128 C273.812,29.128 272.538,27.826 272.538,25.026 C272.538,22.31 273.896,21.106 275.464,21.106 C277.004,21.106 278.334,22.366 278.334,25.082 C278.334,27.882 277.074,29.128 275.464,29.128 Z M275.464,30.22 C277.55,30.22 279.566,28.834 279.566,25.082 C279.566,21.708 277.55,20 275.464,20 C273.336,20 271.306,21.652 271.306,25.026 C271.306,28.778 273.35,30.22 275.464,30.22 Z" id="Shape"></path>
            <path d="M281.666,30.01 L282.828,30.01 L282.828,22.128 L282.856,22.128 L287.35,30.01 L288.568,30.01 L288.568,20.21 L287.42,20.21 L287.42,28.092 L287.392,28.092 L282.926,20.21 L281.666,20.21 L281.666,30.01 Z" id="Path"></path>
            <path d="M291.228,30.01 L297.122,30.01 L297.122,28.946 L292.39,28.946 L292.39,25.488 L296.73,25.488 L296.73,24.452 L292.39,24.452 L292.39,21.274 L297.122,21.274 L297.122,20.21 L291.228,20.21 L291.228,30.01 Z" id="Path"></path>
            <path d="M306.53,29.128 C304.878,29.128 303.604,27.826 303.604,25.026 C303.604,22.31 304.962,21.106 306.53,21.106 C308.07,21.106 309.4,22.366 309.4,25.082 C309.4,27.882 308.14,29.128 306.53,29.128 Z M306.53,30.22 C308.616,30.22 310.632,28.834 310.632,25.082 C310.632,21.708 308.616,20 306.53,20 C304.402,20 302.372,21.652 302.372,25.026 C302.372,28.778 304.416,30.22 306.53,30.22 Z" id="Shape"></path>
            <path d="M312.732,30.01 L313.894,30.01 L313.894,25.838 L318.248,25.838 L318.248,24.816 L313.894,24.816 L313.894,21.274 L318.64,21.274 L318.64,20.21 L312.732,20.21 L312.732,30.01 Z" id="Path"></path>
            <path d="M3.108,50.01 L4.256,50.01 L4.256,41.274 L7.28,41.274 L7.28,40.21 L0.07,40.21 L0.07,41.274 L3.108,41.274 L3.108,50.01 Z" id="Path"></path>
            <path d="M8.96,50.01 L10.122,50.01 L10.122,45.46 L14.504,45.46 L14.504,50.01 L15.652,50.01 L15.652,40.21 L14.504,40.21 L14.504,44.424 L10.122,44.424 L10.122,40.21 L8.96,40.21 L8.96,50.01 Z" id="Path"></path>
            <path d="M18.312,50.01 L24.206,50.01 L24.206,48.946 L19.474,48.946 L19.474,45.488 L23.814,45.488 L23.814,44.452 L19.474,44.452 L19.474,41.274 L24.206,41.274 L24.206,40.21 L18.312,40.21 L18.312,50.01 Z" id="Path"></path>
            <path d="M30.016,50.01 L33.544,50.01 C35.966,50.01 37.002,48.876 37.002,47.112 C37.002,45.782 36.204,44.998 35.42,44.746 L35.42,44.704 C36.092,44.41 36.638,43.794 36.638,42.744 C36.638,41.302 35.546,40.21 33.782,40.21 L30.016,40.21 L30.016,50.01 Z M31.178,44.354 L31.178,41.274 L33.558,41.274 C34.762,41.274 35.49,41.806 35.49,42.814 C35.49,43.794 34.888,44.354 33.572,44.354 L31.178,44.354 Z M31.178,48.946 L31.178,45.39 L33.418,45.39 C35.042,45.39 35.854,45.838 35.854,47.112 C35.854,48.442 34.972,48.946 33.39,48.946 L31.178,48.946 Z" id="Shape"></path>
            <path d="M39.172,50.01 L40.334,50.01 L40.334,40.21 L39.172,40.21 L39.172,50.01 Z" id="Path"></path>
            <path d="M46.648,50.22 C48.846,50.22 50.4,48.75 50.4,46.16 L50.4,45.208 L46.774,45.208 L46.774,46.272 L49.238,46.272 C49.28,48.05 48.272,49.128 46.648,49.128 C45.01,49.128 43.722,47.798 43.722,45.012 C43.722,42.324 45.08,41.106 46.648,41.106 C48.23,41.106 48.888,42.17 49.154,43.444 L50.316,43.234 C49.994,41.33 48.594,40 46.648,40 C44.52,40 42.504,41.666 42.504,45.012 C42.504,48.75 44.492,50.22 46.648,50.22 Z" id="Path"></path>
            <path d="M56.084,50.22 C58.282,50.22 59.836,48.75 59.836,46.16 L59.836,45.208 L56.21,45.208 L56.21,46.272 L58.674,46.272 C58.716,48.05 57.708,49.128 56.084,49.128 C54.446,49.128 53.158,47.798 53.158,45.012 C53.158,42.324 54.516,41.106 56.084,41.106 C57.666,41.106 58.324,42.17 58.59,43.444 L59.752,43.234 C59.43,41.33 58.03,40 56.084,40 C53.956,40 51.94,41.666 51.94,45.012 C51.94,48.75 53.928,50.22 56.084,50.22 Z" id="Path"></path>
            <path d="M61.936,50.01 L67.83,50.01 L67.83,48.946 L63.098,48.946 L63.098,45.488 L67.438,45.488 L67.438,44.452 L63.098,44.452 L63.098,41.274 L67.83,41.274 L67.83,40.21 L61.936,40.21 L61.936,50.01 Z" id="Path"></path>
            <path d="M69.51,46.636 C69.804,48.96 71.078,50.22 73.444,50.22 C75.67,50.22 76.86,48.904 76.86,47.378 C76.86,45.922 76.23,45.208 73.57,44.34 C71.428,43.64 71.134,43.29 71.134,42.576 C71.134,41.792 71.736,41.106 73.038,41.106 C74.536,41.106 75.068,41.876 75.278,42.954 L76.454,42.702 C76.202,40.868 74.802,40 73.038,40 C71.078,40 69.958,41.218 69.958,42.576 C69.958,43.976 70.896,44.69 72.996,45.362 C75.348,46.132 75.698,46.552 75.698,47.434 C75.698,48.302 75.026,49.128 73.486,49.128 C71.596,49.128 70.994,48.19 70.728,46.398 L69.51,46.636 Z" id="Path"></path>
            <path d="M80.808,50.01 L81.956,50.01 L81.956,41.274 L84.98,41.274 L84.98,40.21 L77.77,40.21 L77.77,41.274 L80.808,41.274 L80.808,50.01 Z" id="Path"></path>
            <path d="M93.744,50.22 C95.942,50.22 97.496,48.75 97.496,46.16 L97.496,45.208 L93.87,45.208 L93.87,46.272 L96.334,46.272 C96.376,48.05 95.368,49.128 93.744,49.128 C92.106,49.128 90.818,47.798 90.818,45.012 C90.818,42.324 92.176,41.106 93.744,41.106 C95.326,41.106 95.984,42.17 96.25,43.444 L97.412,43.234 C97.09,41.33 95.69,40 93.744,40 C91.616,40 89.6,41.666 89.6,45.012 C89.6,48.75 91.588,50.22 93.744,50.22 Z" id="Path"></path>
            <path d="M99.596,50.01 L105.014,50.01 L105.014,48.946 L100.758,48.946 L100.758,40.21 L99.596,40.21 L99.596,50.01 Z" id="Path"></path>
            <path d="M110.362,49.128 C108.71,49.128 107.436,47.826 107.436,45.026 C107.436,42.31 108.794,41.106 110.362,41.106 C111.902,41.106 113.232,42.366 113.232,45.082 C113.232,47.882 111.972,49.128 110.362,49.128 Z M110.362,50.22 C112.448,50.22 114.464,48.834 114.464,45.082 C114.464,41.708 112.448,40 110.362,40 C108.234,40 106.204,41.652 106.204,45.026 C106.204,48.778 108.248,50.22 110.362,50.22 Z" id="Shape"></path>
            <path d="M116.564,50.01 L120.092,50.01 C122.514,50.01 123.55,48.876 123.55,47.112 C123.55,45.782 122.752,44.998 121.968,44.746 L121.968,44.704 C122.64,44.41 123.186,43.794 123.186,42.744 C123.186,41.302 122.094,40.21 120.33,40.21 L116.564,40.21 L116.564,50.01 Z M117.726,44.354 L117.726,41.274 L120.106,41.274 C121.31,41.274 122.038,41.806 122.038,42.814 C122.038,43.794 121.436,44.354 120.12,44.354 L117.726,44.354 Z M117.726,48.946 L117.726,45.39 L119.966,45.39 C121.59,45.39 122.402,45.838 122.402,47.112 C122.402,48.442 121.52,48.946 119.938,48.946 L117.726,48.946 Z" id="Shape"></path>
            <path d="M124.6,50.01 L125.776,50.01 L126.49,48.092 L130.886,48.092 L131.614,50.01 L132.79,50.01 L129.262,40.21 L128.128,40.21 L124.6,50.01 Z M126.84,47.084 L128.674,41.764 L128.702,41.764 L130.55,47.084 L126.84,47.084 Z" id="Shape"></path>
            <path d="M134.4,50.01 L139.818,50.01 L139.818,48.946 L135.562,48.946 L135.562,40.21 L134.4,40.21 L134.4,50.01 Z" id="Path"></path>
            <path d="M148.666,49.128 C147.014,49.128 145.74,47.826 145.74,45.026 C145.74,42.31 147.098,41.106 148.666,41.106 C150.206,41.106 151.536,42.366 151.536,45.082 C151.536,47.882 150.276,49.128 148.666,49.128 Z M148.666,50.22 C150.752,50.22 152.768,48.834 152.768,45.082 C152.768,41.708 150.752,40 148.666,40 C146.538,40 144.508,41.652 144.508,45.026 C144.508,48.778 146.552,50.22 148.666,50.22 Z" id="Shape"></path>
            <path d="M154.868,50.01 L156.03,50.01 L156.03,42.128 L156.058,42.128 L160.552,50.01 L161.77,50.01 L161.77,40.21 L160.622,40.21 L160.622,48.092 L160.594,48.092 L156.128,40.21 L154.868,40.21 L154.868,50.01 Z" id="Path"></path>
            <path d="M164.43,50.01 L169.848,50.01 L169.848,48.946 L165.592,48.946 L165.592,40.21 L164.43,40.21 L164.43,50.01 Z" id="Path"></path>
            <path d="M171.668,50.01 L172.83,50.01 L172.83,40.21 L171.668,40.21 L171.668,50.01 Z" id="Path"></path>
            <path d="M175.56,50.01 L176.722,50.01 L176.722,42.128 L176.75,42.128 L181.244,50.01 L182.462,50.01 L182.462,40.21 L181.314,40.21 L181.314,48.092 L181.286,48.092 L176.82,40.21 L175.56,40.21 L175.56,50.01 Z" id="Path"></path>
            <path d="M185.122,50.01 L191.016,50.01 L191.016,48.946 L186.284,48.946 L186.284,45.488 L190.624,45.488 L190.624,44.452 L186.284,44.452 L186.284,41.274 L191.016,41.274 L191.016,40.21 L185.122,40.21 L185.122,50.01 Z" id="Path"></path>
            <path d="M198.884,50.01 L200.032,50.01 L200.032,41.274 L203.056,41.274 L203.056,40.21 L195.846,40.21 L195.846,41.274 L198.884,41.274 L198.884,50.01 Z" id="Path"></path>
            <path d="M204.736,50.01 L210.63,50.01 L210.63,48.946 L205.898,48.946 L205.898,45.488 L210.238,45.488 L210.238,44.452 L205.898,44.452 L205.898,41.274 L210.63,41.274 L210.63,40.21 L204.736,40.21 L204.736,50.01 Z" id="Path"></path>
            <path d="M216.538,41.106 C218.218,41.106 218.82,42.296 219.044,43.626 L220.22,43.416 C219.954,41.428 218.652,40 216.538,40 C214.41,40 212.38,41.652 212.38,45.026 C212.38,48.778 214.424,50.22 216.538,50.22 C218.75,50.22 220.066,48.778 220.248,46.524 L219.03,46.37 C218.876,47.868 218.288,49.128 216.538,49.128 C214.886,49.128 213.612,47.826 213.612,45.026 C213.612,42.31 214.97,41.106 216.538,41.106 Z" id="Path"></path>
            <path d="M222.278,50.01 L223.44,50.01 L223.44,45.46 L227.822,45.46 L227.822,50.01 L228.97,50.01 L228.97,40.21 L227.822,40.21 L227.822,44.424 L223.44,44.424 L223.44,40.21 L222.278,40.21 L222.278,50.01 Z" id="Path"></path>
            <path d="M234.08,50.01 L235.256,50.01 L235.97,48.092 L240.366,48.092 L241.094,50.01 L242.27,50.01 L238.742,40.21 L237.608,40.21 L234.08,50.01 Z M236.32,47.084 L238.154,41.764 L238.182,41.764 L240.03,47.084 L236.32,47.084 Z" id="Shape"></path>
            <path d="M243.88,50.01 L245.042,50.01 L245.042,42.128 L245.07,42.128 L249.564,50.01 L250.782,50.01 L250.782,40.21 L249.634,40.21 L249.634,48.092 L249.606,48.092 L245.14,40.21 L243.88,40.21 L243.88,50.01 Z" id="Path"></path>
            <path d="M254.604,48.946 L254.604,41.274 L256.41,41.274 C258.3,41.274 259.518,42.59 259.518,45.096 C259.518,47.868 258.286,48.946 256.326,48.946 L254.604,48.946 Z M253.442,50.01 L256.424,50.01 C258.594,50.01 260.75,48.848 260.75,45.096 C260.75,41.708 258.678,40.21 256.508,40.21 L253.442,40.21 L253.442,50.01 Z" id="Shape"></path>
            <path d="M266.28,50.01 L267.442,50.01 L267.442,45.838 L271.796,45.838 L271.796,44.816 L267.442,44.816 L267.442,41.274 L272.188,41.274 L272.188,40.21 L266.28,40.21 L266.28,50.01 Z" id="Path"></path>
            <path d="M273.168,50.01 L274.344,50.01 L275.058,48.092 L279.454,48.092 L280.182,50.01 L281.358,50.01 L277.83,40.21 L276.696,40.21 L273.168,50.01 Z M275.408,47.084 L277.242,41.764 L277.27,41.764 L279.118,47.084 L275.408,47.084 Z" id="Shape"></path>
            <path d="M282.338,46.636 C282.632,48.96 283.906,50.22 286.272,50.22 C288.498,50.22 289.688,48.904 289.688,47.378 C289.688,45.922 289.058,45.208 286.398,44.34 C284.256,43.64 283.962,43.29 283.962,42.576 C283.962,41.792 284.564,41.106 285.866,41.106 C287.364,41.106 287.896,41.876 288.106,42.954 L289.282,42.702 C289.03,40.868 287.63,40 285.866,40 C283.906,40 282.786,41.218 282.786,42.576 C282.786,43.976 283.724,44.69 285.824,45.362 C288.176,46.132 288.526,46.552 288.526,47.434 C288.526,48.302 287.854,49.128 286.314,49.128 C284.424,49.128 283.822,48.19 283.556,46.398 L282.338,46.636 Z" id="Path"></path>
            <path d="M291.578,50.01 L292.74,50.01 L292.74,45.46 L297.122,45.46 L297.122,50.01 L298.27,50.01 L298.27,40.21 L297.122,40.21 L297.122,44.424 L292.74,44.424 L292.74,40.21 L291.578,40.21 L291.578,50.01 Z" id="Path"></path>
            <path d="M301,50.01 L302.162,50.01 L302.162,40.21 L301,40.21 L301,50.01 Z" id="Path"></path>
            <path d="M308.49,49.128 C306.838,49.128 305.564,47.826 305.564,45.026 C305.564,42.31 306.922,41.106 308.49,41.106 C310.03,41.106 311.36,42.366 311.36,45.082 C311.36,47.882 310.1,49.128 308.49,49.128 Z M308.49,50.22 C310.576,50.22 312.592,48.834 312.592,45.082 C312.592,41.708 310.576,40 308.49,40 C306.362,40 304.332,41.652 304.332,45.026 C304.332,48.778 306.376,50.22 308.49,50.22 Z" id="Shape"></path>
            <path d="M314.692,50.01 L315.854,50.01 L315.854,42.128 L315.882,42.128 L320.376,50.01 L321.594,50.01 L321.594,40.21 L320.446,40.21 L320.446,48.092 L320.418,48.092 L315.952,40.21 L314.692,40.21 L314.692,50.01 Z" id="Path"></path>
            <path d="M1.05,70.01 L2.212,70.01 L2.212,66.23 L4.844,66.23 C6.79,66.23 8.092,65.18 8.092,63.234 C8.092,61.26 6.734,60.21 4.816,60.21 L1.05,60.21 L1.05,70.01 Z M2.212,65.166 L2.212,61.274 L4.746,61.274 C5.88,61.274 6.916,61.82 6.916,63.234 C6.916,64.578 5.908,65.166 4.774,65.166 L2.212,65.166 Z" id="Shape"></path>
            <path d="M9.702,70.01 L15.12,70.01 L15.12,68.946 L10.864,68.946 L10.864,60.21 L9.702,60.21 L9.702,70.01 Z" id="Path"></path>
            <path d="M15.82,70.01 L16.996,70.01 L17.71,68.092 L22.106,68.092 L22.834,70.01 L24.01,70.01 L20.482,60.21 L19.348,60.21 L15.82,70.01 Z M18.06,67.084 L19.894,61.764 L19.922,61.764 L21.77,67.084 L18.06,67.084 Z" id="Shape"></path>
            <path d="M27.678,70.01 L28.826,70.01 L28.826,61.274 L31.85,61.274 L31.85,60.21 L24.64,60.21 L24.64,61.274 L27.678,61.274 L27.678,70.01 Z" id="Path"></path>
            <path d="M33.53,70.01 L34.692,70.01 L34.692,65.838 L39.046,65.838 L39.046,64.816 L34.692,64.816 L34.692,61.274 L39.438,61.274 L39.438,60.21 L33.53,60.21 L33.53,70.01 Z" id="Path"></path>
            <path d="M45.066,69.128 C43.414,69.128 42.14,67.826 42.14,65.026 C42.14,62.31 43.498,61.106 45.066,61.106 C46.606,61.106 47.936,62.366 47.936,65.082 C47.936,67.882 46.676,69.128 45.066,69.128 Z M45.066,70.22 C47.152,70.22 49.168,68.834 49.168,65.082 C49.168,61.708 47.152,60 45.066,60 C42.938,60 40.908,61.652 40.908,65.026 C40.908,68.778 42.952,70.22 45.066,70.22 Z" id="Shape"></path>
            <path d="M51.268,70.01 L52.43,70.01 L52.43,66.006 L54.656,66.006 L56.784,70.01 L58.086,70.01 L55.902,65.922 C57.302,65.67 58.31,64.76 58.31,63.122 C58.31,61.162 57.022,60.21 55.034,60.21 L51.268,60.21 L51.268,70.01 Z M52.43,64.97 L52.43,61.274 L54.936,61.274 C56.21,61.274 57.148,61.736 57.148,63.122 C57.148,64.508 56.14,64.97 54.964,64.97 L52.43,64.97 Z" id="Shape"></path>
            <path d="M60.27,70.01 L61.404,70.01 L61.404,61.834 L61.432,61.834 L64.806,70.01 L65.17,70.01 L68.544,61.834 L68.572,61.834 L68.572,70.01 L69.706,70.01 L69.706,60.21 L68.068,60.21 L65.002,67.728 L64.974,67.728 L61.908,60.21 L60.27,60.21 L60.27,70.01 Z" id="Path"></path>
            <path d="M71.736,66.636 C72.03,68.96 73.304,70.22 75.67,70.22 C77.896,70.22 79.086,68.904 79.086,67.378 C79.086,65.922 78.456,65.208 75.796,64.34 C73.654,63.64 73.36,63.29 73.36,62.576 C73.36,61.792 73.962,61.106 75.264,61.106 C76.762,61.106 77.294,61.876 77.504,62.954 L78.68,62.702 C78.428,60.868 77.028,60 75.264,60 C73.304,60 72.184,61.218 72.184,62.576 C72.184,63.976 73.122,64.69 75.222,65.362 C77.574,66.132 77.924,66.552 77.924,67.434 C77.924,68.302 77.252,69.128 75.712,69.128 C73.822,69.128 73.22,68.19 72.954,66.398 L71.736,66.636 Z" id="Path"></path>
            <path d="M80.976,70.01 L82.628,70.01 L82.628,68.358 L80.976,68.358 L80.976,70.01 Z" id="Path"></path>
            <path d="M90.846,70.01 L91.994,70.01 L91.994,61.274 L95.018,61.274 L95.018,60.21 L87.808,60.21 L87.808,61.274 L90.846,61.274 L90.846,70.01 Z" id="Path"></path>
            <path d="M96.698,70.01 L97.86,70.01 L97.86,65.46 L102.242,65.46 L102.242,70.01 L103.39,70.01 L103.39,60.21 L102.242,60.21 L102.242,64.424 L97.86,64.424 L97.86,60.21 L96.698,60.21 L96.698,70.01 Z" id="Path"></path>
            <path d="M106.05,70.01 L111.944,70.01 L111.944,68.946 L107.212,68.946 L107.212,65.488 L111.552,65.488 L111.552,64.452 L107.212,64.452 L107.212,61.274 L111.944,61.274 L111.944,60.21 L106.05,60.21 L106.05,70.01 Z" id="Path"></path>
            <path d="M116.368,70.01 L117.488,70.01 L117.488,65.88 L120.722,60.21 L119.434,60.21 L116.942,64.76 L116.914,64.76 L114.422,60.21 L113.134,60.21 L116.368,65.88 L116.368,70.01 Z" id="Path"></path>
            <path d="M125.762,70.01 L126.924,70.01 L126.924,65.46 L131.306,65.46 L131.306,70.01 L132.454,70.01 L132.454,60.21 L131.306,60.21 L131.306,64.424 L126.924,64.424 L126.924,60.21 L125.762,60.21 L125.762,70.01 Z" id="Path"></path>
            <path d="M134.064,70.01 L135.24,70.01 L135.954,68.092 L140.35,68.092 L141.078,70.01 L142.254,70.01 L138.726,60.21 L137.592,60.21 L134.064,70.01 Z M136.304,67.084 L138.138,61.764 L138.166,61.764 L140.014,67.084 L136.304,67.084 Z" id="Shape"></path>
            <path d="M146.272,70.01 L147.644,70.01 L151.032,60.21 L149.8,60.21 L146.972,68.596 L146.944,68.596 L144.06,60.21 L142.814,60.21 L146.272,70.01 Z" id="Path"></path>
            <path d="M152.642,70.01 L158.536,70.01 L158.536,68.946 L153.804,68.946 L153.804,65.488 L158.144,65.488 L158.144,64.452 L153.804,64.452 L153.804,61.274 L158.536,61.274 L158.536,60.21 L152.642,60.21 L152.642,70.01 Z" id="Path"></path>
            <path d="M163.296,70.01 L164.472,70.01 L165.186,68.092 L169.582,68.092 L170.31,70.01 L171.486,70.01 L167.958,60.21 L166.824,60.21 L163.296,70.01 Z M165.536,67.084 L167.37,61.764 L167.398,61.764 L169.246,67.084 L165.536,67.084 Z" id="Shape"></path>
            <path d="M179.004,70.01 L180.376,70.01 L183.764,60.21 L182.532,60.21 L179.704,68.596 L179.676,68.596 L176.792,60.21 L175.546,60.21 L179.004,70.01 Z" id="Path"></path>
            <path d="M184.324,70.01 L185.5,70.01 L186.214,68.092 L190.61,68.092 L191.338,70.01 L192.514,70.01 L188.986,60.21 L187.852,60.21 L184.324,70.01 Z M186.564,67.084 L188.398,61.764 L188.426,61.764 L190.274,67.084 L186.564,67.084 Z" id="Shape"></path>
            <path d="M193.494,66.636 C193.788,68.96 195.062,70.22 197.428,70.22 C199.654,70.22 200.844,68.904 200.844,67.378 C200.844,65.922 200.214,65.208 197.554,64.34 C195.412,63.64 195.118,63.29 195.118,62.576 C195.118,61.792 195.72,61.106 197.022,61.106 C198.52,61.106 199.052,61.876 199.262,62.954 L200.438,62.702 C200.186,60.868 198.786,60 197.022,60 C195.062,60 193.942,61.218 193.942,62.576 C193.942,63.976 194.88,64.69 196.98,65.362 C199.332,66.132 199.682,66.552 199.682,67.434 C199.682,68.302 199.01,69.128 197.47,69.128 C195.58,69.128 194.978,68.19 194.712,66.398 L193.494,66.636 Z" id="Path"></path>
            <path d="M204.792,70.01 L205.94,70.01 L205.94,61.274 L208.964,61.274 L208.964,60.21 L201.754,60.21 L201.754,61.274 L204.792,61.274 L204.792,70.01 Z" id="Path"></path>
            <path d="M214.144,70.01 L215.306,70.01 L215.306,62.128 L215.334,62.128 L219.828,70.01 L221.046,70.01 L221.046,60.21 L219.898,60.21 L219.898,68.092 L219.87,68.092 L215.404,60.21 L214.144,60.21 L214.144,70.01 Z" id="Path"></path>
            <path d="M223.706,70.01 L229.6,70.01 L229.6,68.946 L224.868,68.946 L224.868,65.488 L229.208,65.488 L229.208,64.452 L224.868,64.452 L224.868,61.274 L229.6,61.274 L229.6,60.21 L223.706,60.21 L223.706,70.01 Z" id="Path"></path>
            <path d="M233.968,70.01 L235.116,70.01 L235.116,61.274 L238.14,61.274 L238.14,60.21 L230.93,60.21 L230.93,61.274 L233.968,61.274 L233.968,70.01 Z" id="Path"></path>
            <path d="M240.926,70.01 L242.368,70.01 L244.832,61.89 L244.86,61.89 L247.338,70.01 L248.766,70.01 L250.572,60.21 L249.382,60.21 L247.94,68.302 L247.912,68.302 L245.462,60.21 L244.244,60.21 L241.808,68.302 L241.78,68.302 L240.31,60.21 L239.12,60.21 L240.926,70.01 Z" id="Path"></path>
            <path d="M256.13,69.128 C254.478,69.128 253.204,67.826 253.204,65.026 C253.204,62.31 254.562,61.106 256.13,61.106 C257.67,61.106 259,62.366 259,65.082 C259,67.882 257.74,69.128 256.13,69.128 Z M256.13,70.22 C258.216,70.22 260.232,68.834 260.232,65.082 C260.232,61.708 258.216,60 256.13,60 C254.002,60 251.972,61.652 251.972,65.026 C251.972,68.778 254.016,70.22 256.13,70.22 Z" id="Shape"></path>
            <path d="M262.332,70.01 L263.494,70.01 L263.494,66.006 L265.72,66.006 L267.848,70.01 L269.15,70.01 L266.966,65.922 C268.366,65.67 269.374,64.76 269.374,63.122 C269.374,61.162 268.086,60.21 266.098,60.21 L262.332,60.21 L262.332,70.01 Z M263.494,64.97 L263.494,61.274 L266,61.274 C267.274,61.274 268.212,61.736 268.212,63.122 C268.212,64.508 267.204,64.97 266.028,64.97 L263.494,64.97 Z" id="Shape"></path>
            <path d="M271.194,70.01 L272.356,70.01 L272.356,66.622 L273.434,65.362 L273.462,65.362 L276.808,70.01 L278.208,70.01 L274.232,64.494 L277.816,60.21 L276.36,60.21 L272.384,64.998 L272.356,64.998 L272.356,60.21 L271.194,60.21 L271.194,70.01 Z" id="Path"></path>
            <path d="M286.706,69.128 C285.054,69.128 283.78,67.826 283.78,65.026 C283.78,62.31 285.138,61.106 286.706,61.106 C288.246,61.106 289.576,62.366 289.576,65.082 C289.576,67.882 288.316,69.128 286.706,69.128 Z M286.706,70.22 C288.792,70.22 290.808,68.834 290.808,65.082 C290.808,61.708 288.792,60 286.706,60 C284.578,60 282.548,61.652 282.548,65.026 C282.548,68.778 284.592,70.22 286.706,70.22 Z" id="Shape"></path>
            <path d="M292.908,70.01 L294.07,70.01 L294.07,65.838 L298.424,65.838 L298.424,64.816 L294.07,64.816 L294.07,61.274 L298.816,61.274 L298.816,60.21 L292.908,60.21 L292.908,70.01 Z" id="Path"></path>
            <path d="M4.648,81.106 C6.328,81.106 6.93,82.296 7.154,83.626 L8.33,83.416 C8.064,81.428 6.762,80 4.648,80 C2.52,80 0.49,81.652 0.49,85.026 C0.49,88.778 2.534,90.22 4.648,90.22 C6.86,90.22 8.176,88.778 8.358,86.524 L7.14,86.37 C6.986,87.868 6.398,89.128 4.648,89.128 C2.996,89.128 1.722,87.826 1.722,85.026 C1.722,82.31 3.08,81.106 4.648,81.106 Z" id="Path"></path>
            <path d="M10.388,90.01 L16.282,90.01 L16.282,88.946 L11.55,88.946 L11.55,85.488 L15.89,85.488 L15.89,84.452 L11.55,84.452 L11.55,81.274 L16.282,81.274 L16.282,80.21 L10.388,80.21 L10.388,90.01 Z" id="Path"></path>
            <path d="M18.592,90.01 L24.01,90.01 L24.01,88.946 L19.754,88.946 L19.754,80.21 L18.592,80.21 L18.592,90.01 Z" id="Path"></path>
            <path d="M25.76,90.01 L31.654,90.01 L31.654,88.946 L26.922,88.946 L26.922,85.488 L31.262,85.488 L31.262,84.452 L26.922,84.452 L26.922,81.274 L31.654,81.274 L31.654,80.21 L25.76,80.21 L25.76,90.01 Z" id="Path"></path>
            <path d="M33.964,90.01 L37.492,90.01 C39.914,90.01 40.95,88.876 40.95,87.112 C40.95,85.782 40.152,84.998 39.368,84.746 L39.368,84.704 C40.04,84.41 40.586,83.794 40.586,82.744 C40.586,81.302 39.494,80.21 37.73,80.21 L33.964,80.21 L33.964,90.01 Z M35.126,84.354 L35.126,81.274 L37.506,81.274 C38.71,81.274 39.438,81.806 39.438,82.814 C39.438,83.794 38.836,84.354 37.52,84.354 L35.126,84.354 Z M35.126,88.946 L35.126,85.39 L37.366,85.39 C38.99,85.39 39.802,85.838 39.802,87.112 C39.802,88.442 38.92,88.946 37.338,88.946 L35.126,88.946 Z" id="Shape"></path>
            <path d="M43.05,90.01 L44.212,90.01 L44.212,86.006 L46.438,86.006 L48.566,90.01 L49.868,90.01 L47.684,85.922 C49.084,85.67 50.092,84.76 50.092,83.122 C50.092,81.162 48.804,80.21 46.816,80.21 L43.05,80.21 L43.05,90.01 Z M44.212,84.97 L44.212,81.274 L46.718,81.274 C47.992,81.274 48.93,81.736 48.93,83.122 C48.93,84.508 47.922,84.97 46.746,84.97 L44.212,84.97 Z" id="Shape"></path>
            <path d="M52.122,90.01 L53.284,90.01 L53.284,80.21 L52.122,80.21 L52.122,90.01 Z" id="Path"></path>
            <path d="M58.072,90.01 L59.22,90.01 L59.22,81.274 L62.244,81.274 L62.244,80.21 L55.034,80.21 L55.034,81.274 L58.072,81.274 L58.072,90.01 Z" id="Path"></path>
            <path d="M63.994,90.01 L65.156,90.01 L65.156,80.21 L63.994,80.21 L63.994,90.01 Z" id="Path"></path>
            <path d="M67.886,90.01 L73.78,90.01 L73.78,88.946 L69.048,88.946 L69.048,85.488 L73.388,85.488 L73.388,84.452 L69.048,84.452 L69.048,81.274 L73.78,81.274 L73.78,80.21 L67.886,80.21 L67.886,90.01 Z" id="Path"></path>
            <path d="M75.46,86.636 C75.754,88.96 77.028,90.22 79.394,90.22 C81.62,90.22 82.81,88.904 82.81,87.378 C82.81,85.922 82.18,85.208 79.52,84.34 C77.378,83.64 77.084,83.29 77.084,82.576 C77.084,81.792 77.686,81.106 78.988,81.106 C80.486,81.106 81.018,81.876 81.228,82.954 L82.404,82.702 C82.152,80.868 80.752,80 78.988,80 C77.028,80 75.908,81.218 75.908,82.576 C75.908,83.976 76.846,84.69 78.946,85.362 C81.298,86.132 81.648,86.552 81.648,87.434 C81.648,88.302 80.976,89.128 79.436,89.128 C77.546,89.128 76.944,88.19 76.678,86.398 L75.46,86.636 Z" id="Path"></path>
            <path d="M87.15,90.01 L88.326,90.01 L89.04,88.092 L93.436,88.092 L94.164,90.01 L95.34,90.01 L91.812,80.21 L90.678,80.21 L87.15,90.01 Z M89.39,87.084 L91.224,81.764 L91.252,81.764 L93.1,87.084 L89.39,87.084 Z" id="Shape"></path>
            <path d="M96.95,90.01 L98.112,90.01 L98.112,82.128 L98.14,82.128 L102.634,90.01 L103.852,90.01 L103.852,80.21 L102.704,80.21 L102.704,88.092 L102.676,88.092 L98.21,80.21 L96.95,80.21 L96.95,90.01 Z" id="Path"></path>
            <path d="M107.674,88.946 L107.674,81.274 L109.48,81.274 C111.37,81.274 112.588,82.59 112.588,85.096 C112.588,87.868 111.356,88.946 109.396,88.946 L107.674,88.946 Z M106.512,90.01 L109.494,90.01 C111.664,90.01 113.82,88.848 113.82,85.096 C113.82,81.708 111.748,80.21 109.578,80.21 L106.512,80.21 L106.512,90.01 Z" id="Shape"></path>
            <path d="M119.42,90.01 L120.582,90.01 L120.582,80.21 L119.42,80.21 L119.42,90.01 Z" id="Path"></path>
            <path d="M123.312,90.01 L124.474,90.01 L124.474,82.128 L124.502,82.128 L128.996,90.01 L130.214,90.01 L130.214,80.21 L129.066,80.21 L129.066,88.092 L129.038,88.092 L124.572,80.21 L123.312,80.21 L123.312,90.01 Z" id="Path"></path>
            <path d="M132.874,90.01 L134.036,90.01 L134.036,85.838 L138.39,85.838 L138.39,84.816 L134.036,84.816 L134.036,81.274 L138.782,81.274 L138.782,80.21 L132.874,80.21 L132.874,90.01 Z" id="Path"></path>
            <path d="M140.812,90.01 L146.23,90.01 L146.23,88.946 L141.974,88.946 L141.974,80.21 L140.812,80.21 L140.812,90.01 Z" id="Path"></path>
            <path d="M147.77,86.818 C147.77,89.086 149.072,90.22 151.242,90.22 C153.412,90.22 154.728,89.086 154.728,86.818 L154.728,80.21 L153.58,80.21 L153.58,86.762 C153.58,88.288 152.782,89.128 151.242,89.128 C149.716,89.128 148.932,88.302 148.932,86.734 L148.932,80.21 L147.77,80.21 L147.77,86.818 Z" id="Path"></path>
            <path d="M157.178,90.01 L163.072,90.01 L163.072,88.946 L158.34,88.946 L158.34,85.488 L162.68,85.488 L162.68,84.452 L158.34,84.452 L158.34,81.274 L163.072,81.274 L163.072,80.21 L157.178,80.21 L157.178,90.01 Z" id="Path"></path>
            <path d="M165.382,90.01 L166.544,90.01 L166.544,82.128 L166.572,82.128 L171.066,90.01 L172.284,90.01 L172.284,80.21 L171.136,80.21 L171.136,88.092 L171.108,88.092 L166.642,80.21 L165.382,80.21 L165.382,90.01 Z" id="Path"></path>
            <path d="M178.542,81.106 C180.222,81.106 180.824,82.296 181.048,83.626 L182.224,83.416 C181.958,81.428 180.656,80 178.542,80 C176.414,80 174.384,81.652 174.384,85.026 C174.384,88.778 176.428,90.22 178.542,90.22 C180.754,90.22 182.07,88.778 182.252,86.524 L181.034,86.37 C180.88,87.868 180.292,89.128 178.542,89.128 C176.89,89.128 175.616,87.826 175.616,85.026 C175.616,82.31 176.974,81.106 178.542,81.106 Z" id="Path"></path>
            <path d="M184.282,90.01 L190.176,90.01 L190.176,88.946 L185.444,88.946 L185.444,85.488 L189.784,85.488 L189.784,84.452 L185.444,84.452 L185.444,81.274 L190.176,81.274 L190.176,80.21 L184.282,80.21 L184.282,90.01 Z" id="Path"></path>
            <path d="M192.486,90.01 L193.648,90.01 L193.648,86.006 L195.874,86.006 L198.002,90.01 L199.304,90.01 L197.12,85.922 C198.52,85.67 199.528,84.76 199.528,83.122 C199.528,81.162 198.24,80.21 196.252,80.21 L192.486,80.21 L192.486,90.01 Z M193.648,84.97 L193.648,81.274 L196.154,81.274 C197.428,81.274 198.366,81.736 198.366,83.122 C198.366,84.508 197.358,84.97 196.182,84.97 L193.648,84.97 Z" id="Shape"></path>
            <path d="M200.858,86.636 C201.152,88.96 202.426,90.22 204.792,90.22 C207.018,90.22 208.208,88.904 208.208,87.378 C208.208,85.922 207.578,85.208 204.918,84.34 C202.776,83.64 202.482,83.29 202.482,82.576 C202.482,81.792 203.084,81.106 204.386,81.106 C205.884,81.106 206.416,81.876 206.626,82.954 L207.802,82.702 C207.55,80.868 206.15,80 204.386,80 C202.426,80 201.306,81.218 201.306,82.576 C201.306,83.976 202.244,84.69 204.344,85.362 C206.696,86.132 207.046,86.552 207.046,87.434 C207.046,88.302 206.374,89.128 204.834,89.128 C202.944,89.128 202.342,88.19 202.076,86.398 L200.858,86.636 Z" id="Path"></path>
            <path d="M214.704,90.01 L216.146,90.01 L218.61,81.89 L218.638,81.89 L221.116,90.01 L222.544,90.01 L224.35,80.21 L223.16,80.21 L221.718,88.302 L221.69,88.302 L219.24,80.21 L218.022,80.21 L215.586,88.302 L215.558,88.302 L214.088,80.21 L212.898,80.21 L214.704,90.01 Z" id="Path"></path>
            <path d="M226.31,90.01 L227.472,90.01 L227.472,85.46 L231.854,85.46 L231.854,90.01 L233.002,90.01 L233.002,80.21 L231.854,80.21 L231.854,84.424 L227.472,84.424 L227.472,80.21 L226.31,80.21 L226.31,90.01 Z" id="Path"></path>
            <path d="M235.732,90.01 L236.894,90.01 L236.894,80.21 L235.732,80.21 L235.732,90.01 Z" id="Path"></path>
            <path d="M243.222,81.106 C244.902,81.106 245.504,82.296 245.728,83.626 L246.904,83.416 C246.638,81.428 245.336,80 243.222,80 C241.094,80 239.064,81.652 239.064,85.026 C239.064,88.778 241.108,90.22 243.222,90.22 C245.434,90.22 246.75,88.778 246.932,86.524 L245.714,86.37 C245.56,87.868 244.972,89.128 243.222,89.128 C241.57,89.128 240.296,87.826 240.296,85.026 C240.296,82.31 241.654,81.106 243.222,81.106 Z" id="Path"></path>
            <path d="M248.962,90.01 L250.124,90.01 L250.124,85.46 L254.506,85.46 L254.506,90.01 L255.654,90.01 L255.654,80.21 L254.506,80.21 L254.506,84.424 L250.124,84.424 L250.124,80.21 L248.962,80.21 L248.962,90.01 Z" id="Path"></path>
            <path d="M263.872,90.01 L265.02,90.01 L265.02,81.274 L268.044,81.274 L268.044,80.21 L260.834,80.21 L260.834,81.274 L263.872,81.274 L263.872,90.01 Z" id="Path"></path>
            <path d="M269.724,90.01 L270.886,90.01 L270.886,85.46 L275.268,85.46 L275.268,90.01 L276.416,90.01 L276.416,80.21 L275.268,80.21 L275.268,84.424 L270.886,84.424 L270.886,80.21 L269.724,80.21 L269.724,90.01 Z" id="Path"></path>
            <path d="M279.076,90.01 L284.97,90.01 L284.97,88.946 L280.238,88.946 L280.238,85.488 L284.578,85.488 L284.578,84.452 L280.238,84.452 L280.238,81.274 L284.97,81.274 L284.97,80.21 L279.076,80.21 L279.076,90.01 Z" id="Path"></path>
            <path d="M289.394,90.01 L290.514,90.01 L290.514,85.88 L293.748,80.21 L292.46,80.21 L289.968,84.76 L289.94,84.76 L287.448,80.21 L286.16,80.21 L289.394,85.88 L289.394,90.01 Z" id="Path"></path>
            <path d="M298.578,86.818 C298.578,89.086 299.88,90.22 302.05,90.22 C304.22,90.22 305.536,89.086 305.536,86.818 L305.536,80.21 L304.388,80.21 L304.388,86.762 C304.388,88.288 303.59,89.128 302.05,89.128 C300.524,89.128 299.74,88.302 299.74,86.734 L299.74,80.21 L298.578,80.21 L298.578,86.818 Z" id="Path"></path>
            <path d="M307.356,86.636 C307.65,88.96 308.924,90.22 311.29,90.22 C313.516,90.22 314.706,88.904 314.706,87.378 C314.706,85.922 314.076,85.208 311.416,84.34 C309.274,83.64 308.98,83.29 308.98,82.576 C308.98,81.792 309.582,81.106 310.884,81.106 C312.382,81.106 312.914,81.876 313.124,82.954 L314.3,82.702 C314.048,80.868 312.648,80 310.884,80 C308.924,80 307.804,81.218 307.804,82.576 C307.804,83.976 308.742,84.69 310.842,85.362 C313.194,86.132 313.544,86.552 313.544,87.434 C313.544,88.302 312.872,89.128 311.332,89.128 C309.442,89.128 308.84,88.19 308.574,86.398 L307.356,86.636 Z" id="Path"></path>
            <path d="M316.596,90.01 L322.49,90.01 L322.49,88.946 L317.758,88.946 L317.758,85.488 L322.098,85.488 L322.098,84.452 L317.758,84.452 L317.758,81.274 L322.49,81.274 L322.49,80.21 L316.596,80.21 L316.596,90.01 Z" id="Path"></path>
            <path d="M325.962,88.946 L325.962,81.274 L327.768,81.274 C329.658,81.274 330.876,82.59 330.876,85.096 C330.876,87.868 329.644,88.946 327.684,88.946 L325.962,88.946 Z M324.8,90.01 L327.782,90.01 C329.952,90.01 332.108,88.848 332.108,85.096 C332.108,81.708 330.036,80.21 327.866,80.21 L324.8,80.21 L324.8,90.01 Z" id="Shape"></path>
            <path d="M3.108,110.01 L4.256,110.01 L4.256,101.274 L7.28,101.274 L7.28,100.21 L0.07,100.21 L0.07,101.274 L3.108,101.274 L3.108,110.01 Z" id="Path"></path>
            <path d="M12.558,109.128 C10.906,109.128 9.632,107.826 9.632,105.026 C9.632,102.31 10.99,101.106 12.558,101.106 C14.098,101.106 15.428,102.366 15.428,105.082 C15.428,107.882 14.168,109.128 12.558,109.128 Z M12.558,110.22 C14.644,110.22 16.66,108.834 16.66,105.082 C16.66,101.708 14.644,100 12.558,100 C10.43,100 8.4,101.652 8.4,105.026 C8.4,108.778 10.444,110.22 12.558,110.22 Z" id="Shape"></path>
            <path d="M22.26,110.01 L25.788,110.01 C28.21,110.01 29.246,108.876 29.246,107.112 C29.246,105.782 28.448,104.998 27.664,104.746 L27.664,104.704 C28.336,104.41 28.882,103.794 28.882,102.744 C28.882,101.302 27.79,100.21 26.026,100.21 L22.26,100.21 L22.26,110.01 Z M23.422,104.354 L23.422,101.274 L25.802,101.274 C27.006,101.274 27.734,101.806 27.734,102.814 C27.734,103.794 27.132,104.354 25.816,104.354 L23.422,104.354 Z M23.422,108.946 L23.422,105.39 L25.662,105.39 C27.286,105.39 28.098,105.838 28.098,107.112 C28.098,108.442 27.216,108.946 25.634,108.946 L23.422,108.946 Z" id="Shape"></path>
            <path d="M31.346,110.01 L32.508,110.01 L32.508,106.006 L34.734,106.006 L36.862,110.01 L38.164,110.01 L35.98,105.922 C37.38,105.67 38.388,104.76 38.388,103.122 C38.388,101.162 37.1,100.21 35.112,100.21 L31.346,100.21 L31.346,110.01 Z M32.508,104.97 L32.508,101.274 L35.014,101.274 C36.288,101.274 37.226,101.736 37.226,103.122 C37.226,104.508 36.218,104.97 35.042,104.97 L32.508,104.97 Z" id="Shape"></path>
            <path d="M40.418,110.01 L41.58,110.01 L41.58,100.21 L40.418,100.21 L40.418,110.01 Z" id="Path"></path>
            <path d="M44.31,110.01 L45.472,110.01 L45.472,102.128 L45.5,102.128 L49.994,110.01 L51.212,110.01 L51.212,100.21 L50.064,100.21 L50.064,108.092 L50.036,108.092 L45.57,100.21 L44.31,100.21 L44.31,110.01 Z" id="Path"></path>
            <path d="M57.456,110.22 C59.654,110.22 61.208,108.75 61.208,106.16 L61.208,105.208 L57.582,105.208 L57.582,106.272 L60.046,106.272 C60.088,108.05 59.08,109.128 57.456,109.128 C55.818,109.128 54.53,107.798 54.53,105.012 C54.53,102.324 55.888,101.106 57.456,101.106 C59.038,101.106 59.696,102.17 59.962,103.444 L61.124,103.234 C60.802,101.33 59.402,100 57.456,100 C55.328,100 53.312,101.666 53.312,105.012 C53.312,108.75 55.3,110.22 57.456,110.22 Z" id="Path"></path>
            <path d="M70.406,101.106 C72.086,101.106 72.688,102.296 72.912,103.626 L74.088,103.416 C73.822,101.428 72.52,100 70.406,100 C68.278,100 66.248,101.652 66.248,105.026 C66.248,108.778 68.292,110.22 70.406,110.22 C72.618,110.22 73.934,108.778 74.116,106.524 L72.898,106.37 C72.744,107.868 72.156,109.128 70.406,109.128 C68.754,109.128 67.48,107.826 67.48,105.026 C67.48,102.31 68.838,101.106 70.406,101.106 Z" id="Path"></path>
            <path d="M75.936,106.818 C75.936,109.086 77.238,110.22 79.408,110.22 C81.578,110.22 82.894,109.086 82.894,106.818 L82.894,100.21 L81.746,100.21 L81.746,106.762 C81.746,108.288 80.948,109.128 79.408,109.128 C77.882,109.128 77.098,108.302 77.098,106.734 L77.098,100.21 L75.936,100.21 L75.936,106.818 Z" id="Path"></path>
            <path d="M85.344,110.01 L90.762,110.01 L90.762,108.946 L86.506,108.946 L86.506,100.21 L85.344,100.21 L85.344,110.01 Z" id="Path"></path>
            <path d="M94.57,110.01 L95.718,110.01 L95.718,101.274 L98.742,101.274 L98.742,100.21 L91.532,100.21 L91.532,101.274 L94.57,101.274 L94.57,110.01 Z" id="Path"></path>
            <path d="M100.212,106.818 C100.212,109.086 101.514,110.22 103.684,110.22 C105.854,110.22 107.17,109.086 107.17,106.818 L107.17,100.21 L106.022,100.21 L106.022,106.762 C106.022,108.288 105.224,109.128 103.684,109.128 C102.158,109.128 101.374,108.302 101.374,106.734 L101.374,100.21 L100.212,100.21 L100.212,106.818 Z" id="Path"></path>
            <path d="M109.62,110.01 L110.782,110.01 L110.782,106.006 L113.008,106.006 L115.136,110.01 L116.438,110.01 L114.254,105.922 C115.654,105.67 116.662,104.76 116.662,103.122 C116.662,101.162 115.374,100.21 113.386,100.21 L109.62,100.21 L109.62,110.01 Z M110.782,104.97 L110.782,101.274 L113.288,101.274 C114.562,101.274 115.5,101.736 115.5,103.122 C115.5,104.508 114.492,104.97 113.316,104.97 L110.782,104.97 Z" id="Shape"></path>
            <path d="M117.572,110.01 L118.748,110.01 L119.462,108.092 L123.858,108.092 L124.586,110.01 L125.762,110.01 L122.234,100.21 L121.1,100.21 L117.572,110.01 Z M119.812,107.084 L121.646,101.764 L121.674,101.764 L123.522,107.084 L119.812,107.084 Z" id="Shape"></path>
            <path d="M127.372,110.01 L132.79,110.01 L132.79,108.946 L128.534,108.946 L128.534,100.21 L127.372,100.21 L127.372,110.01 Z" id="Path"></path>
            <path d="M138.04,110.01 L139.174,110.01 L139.174,101.834 L139.202,101.834 L142.576,110.01 L142.94,110.01 L146.314,101.834 L146.342,101.834 L146.342,110.01 L147.476,110.01 L147.476,100.21 L145.838,100.21 L142.772,107.728 L142.744,107.728 L139.678,100.21 L138.04,100.21 L138.04,110.01 Z" id="Path"></path>
            <path d="M149.086,110.01 L150.262,110.01 L150.976,108.092 L155.372,108.092 L156.1,110.01 L157.276,110.01 L153.748,100.21 L152.614,100.21 L149.086,110.01 Z M151.326,107.084 L153.16,101.764 L153.188,101.764 L155.036,107.084 L151.326,107.084 Z" id="Shape"></path>
            <path d="M158.886,110.01 L160.048,110.01 L160.048,106.006 L162.274,106.006 L164.402,110.01 L165.704,110.01 L163.52,105.922 C164.92,105.67 165.928,104.76 165.928,103.122 C165.928,101.162 164.64,100.21 162.652,100.21 L158.886,100.21 L158.886,110.01 Z M160.048,104.97 L160.048,101.274 L162.554,101.274 C163.828,101.274 164.766,101.736 164.766,103.122 C164.766,104.508 163.758,104.97 162.582,104.97 L160.048,104.97 Z" id="Shape"></path>
            <path d="M167.748,110.01 L168.91,110.01 L168.91,106.622 L169.988,105.362 L170.016,105.362 L173.362,110.01 L174.762,110.01 L170.786,104.494 L174.37,100.21 L172.914,100.21 L168.938,104.998 L168.91,104.998 L168.91,100.21 L167.748,100.21 L167.748,110.01 Z" id="Path"></path>
            <path d="M176.162,110.01 L182.056,110.01 L182.056,108.946 L177.324,108.946 L177.324,105.488 L181.664,105.488 L181.664,104.452 L177.324,104.452 L177.324,101.274 L182.056,101.274 L182.056,100.21 L176.162,100.21 L176.162,110.01 Z" id="Path"></path>
            <path d="M186.424,110.01 L187.572,110.01 L187.572,101.274 L190.596,101.274 L190.596,100.21 L183.386,100.21 L183.386,101.274 L186.424,101.274 L186.424,110.01 Z" id="Path"></path>
            <path d="M192.346,110.01 L193.508,110.01 L193.508,100.21 L192.346,100.21 L192.346,110.01 Z" id="Path"></path>
            <path d="M196.238,110.01 L197.4,110.01 L197.4,102.128 L197.428,102.128 L201.922,110.01 L203.14,110.01 L203.14,100.21 L201.992,100.21 L201.992,108.092 L201.964,108.092 L197.498,100.21 L196.238,100.21 L196.238,110.01 Z" id="Path"></path>
            <path d="M209.384,110.22 C211.582,110.22 213.136,108.75 213.136,106.16 L213.136,105.208 L209.51,105.208 L209.51,106.272 L211.974,106.272 C212.016,108.05 211.008,109.128 209.384,109.128 C207.746,109.128 206.458,107.798 206.458,105.012 C206.458,102.324 207.816,101.106 209.384,101.106 C210.966,101.106 211.624,102.17 211.89,103.444 L213.052,103.234 C212.73,101.33 211.33,100 209.384,100 C207.256,100 205.24,101.666 205.24,105.012 C205.24,108.75 207.228,110.22 209.384,110.22 Z" id="Path"></path>
            <path d="M220.794,110.01 L221.942,110.01 L221.942,101.274 L224.966,101.274 L224.966,100.21 L217.756,100.21 L217.756,101.274 L220.794,101.274 L220.794,110.01 Z" id="Path"></path>
            <path d="M230.244,109.128 C228.592,109.128 227.318,107.826 227.318,105.026 C227.318,102.31 228.676,101.106 230.244,101.106 C231.784,101.106 233.114,102.366 233.114,105.082 C233.114,107.882 231.854,109.128 230.244,109.128 Z M230.244,110.22 C232.33,110.22 234.346,108.834 234.346,105.082 C234.346,101.708 232.33,100 230.244,100 C228.116,100 226.086,101.652 226.086,105.026 C226.086,108.778 228.13,110.22 230.244,110.22 Z" id="Shape"></path>
            <path d="M238.896,110.01 L240.072,110.01 L240.786,108.092 L245.182,108.092 L245.91,110.01 L247.086,110.01 L243.558,100.21 L242.424,100.21 L238.896,110.01 Z M241.136,107.084 L242.97,101.764 L242.998,101.764 L244.846,107.084 L241.136,107.084 Z" id="Shape"></path>
            <path d="M253.302,110.01 L254.744,110.01 L257.208,101.89 L257.236,101.89 L259.714,110.01 L261.142,110.01 L262.948,100.21 L261.758,100.21 L260.316,108.302 L260.288,108.302 L257.838,100.21 L256.62,100.21 L254.184,108.302 L254.156,108.302 L252.686,100.21 L251.496,100.21 L253.302,110.01 Z" id="Path"></path>
            <path d="M264.908,110.01 L266.07,110.01 L266.07,105.46 L270.452,105.46 L270.452,110.01 L271.6,110.01 L271.6,100.21 L270.452,100.21 L270.452,104.424 L266.07,104.424 L266.07,100.21 L264.908,100.21 L264.908,110.01 Z" id="Path"></path>
            <path d="M277.858,109.128 C276.206,109.128 274.932,107.826 274.932,105.026 C274.932,102.31 276.29,101.106 277.858,101.106 C279.398,101.106 280.728,102.366 280.728,105.082 C280.728,107.882 279.468,109.128 277.858,109.128 Z M277.858,110.22 C279.944,110.22 281.96,108.834 281.96,105.082 C281.96,101.708 279.944,100 277.858,100 C275.73,100 273.7,101.652 273.7,105.026 C273.7,108.778 275.744,110.22 277.858,110.22 Z" id="Shape"></path>
            <path d="M284.06,110.01 L289.478,110.01 L289.478,108.946 L285.222,108.946 L285.222,100.21 L284.06,100.21 L284.06,110.01 Z" id="Path"></path>
            <path d="M291.228,110.01 L297.122,110.01 L297.122,108.946 L292.39,108.946 L292.39,105.488 L296.73,105.488 L296.73,104.452 L292.39,104.452 L292.39,101.274 L297.122,101.274 L297.122,100.21 L291.228,100.21 L291.228,110.01 Z" id="Path"></path>
            <path d="M302.932,110.01 L304.094,110.01 L304.094,102.128 L304.122,102.128 L308.616,110.01 L309.834,110.01 L309.834,100.21 L308.686,100.21 L308.686,108.092 L308.658,108.092 L304.192,100.21 L302.932,100.21 L302.932,110.01 Z" id="Path"></path>
            <path d="M312.494,110.01 L318.388,110.01 L318.388,108.946 L313.656,108.946 L313.656,105.488 L317.996,105.488 L317.996,104.452 L313.656,104.452 L313.656,101.274 L318.388,101.274 L318.388,100.21 L312.494,100.21 L312.494,110.01 Z" id="Path"></path>
            <path d="M321.804,110.01 L323.246,110.01 L325.71,101.89 L325.738,101.89 L328.216,110.01 L329.644,110.01 L331.45,100.21 L330.26,100.21 L328.818,108.302 L328.79,108.302 L326.34,100.21 L325.122,100.21 L322.686,108.302 L322.658,108.302 L321.188,100.21 L319.998,100.21 L321.804,110.01 Z" id="Path"></path>
            <path d="M1.05,130.01 L6.468,130.01 L6.468,128.946 L2.212,128.946 L2.212,120.21 L1.05,120.21 L1.05,130.01 Z" id="Path"></path>
            <path d="M8.218,130.01 L14.112,130.01 L14.112,128.946 L9.38,128.946 L9.38,125.488 L13.72,125.488 L13.72,124.452 L9.38,124.452 L9.38,121.274 L14.112,121.274 L14.112,120.21 L8.218,120.21 L8.218,130.01 Z" id="Path"></path>
            <path d="M18.83,130.01 L20.202,130.01 L23.59,120.21 L22.358,120.21 L19.53,128.596 L19.502,128.596 L16.618,120.21 L15.372,120.21 L18.83,130.01 Z" id="Path"></path>
            <path d="M25.2,130.01 L31.094,130.01 L31.094,128.946 L26.362,128.946 L26.362,125.488 L30.702,125.488 L30.702,124.452 L26.362,124.452 L26.362,121.274 L31.094,121.274 L31.094,120.21 L25.2,120.21 L25.2,130.01 Z" id="Path"></path>
            <path d="M33.404,130.01 L38.822,130.01 L38.822,128.946 L34.566,128.946 L34.566,120.21 L33.404,120.21 L33.404,130.01 Z" id="Path"></path>
            <path d="M40.572,130.01 L42.224,130.01 L42.224,128.358 L40.572,128.358 L40.572,130.01 Z" id="Path"></path>
            <path d="M47.754,126.636 C48.048,128.96 49.322,130.22 51.688,130.22 C53.914,130.22 55.104,128.904 55.104,127.378 C55.104,125.922 54.474,125.208 51.814,124.34 C49.672,123.64 49.378,123.29 49.378,122.576 C49.378,121.792 49.98,121.106 51.282,121.106 C52.78,121.106 53.312,121.876 53.522,122.954 L54.698,122.702 C54.446,120.868 53.046,120 51.282,120 C49.322,120 48.202,121.218 48.202,122.576 C48.202,123.976 49.14,124.69 51.24,125.362 C53.592,126.132 53.942,126.552 53.942,127.434 C53.942,128.302 53.27,129.128 51.73,129.128 C49.84,129.128 49.238,128.19 48.972,126.398 L47.754,126.636 Z" id="Path"></path>
            <path d="M57.064,130.01 L58.226,130.01 L58.226,120.21 L57.064,120.21 L57.064,130.01 Z" id="Path"></path>
            <path d="M60.956,130.01 L62.118,130.01 L62.118,122.128 L62.146,122.128 L66.64,130.01 L67.858,130.01 L67.858,120.21 L66.71,120.21 L66.71,128.092 L66.682,128.092 L62.216,120.21 L60.956,120.21 L60.956,130.01 Z" id="Path"></path>
            <path d="M74.116,121.106 C75.796,121.106 76.398,122.296 76.622,123.626 L77.798,123.416 C77.532,121.428 76.23,120 74.116,120 C71.988,120 69.958,121.652 69.958,125.026 C69.958,128.778 72.002,130.22 74.116,130.22 C76.328,130.22 77.644,128.778 77.826,126.524 L76.608,126.37 C76.454,127.868 75.866,129.128 74.116,129.128 C72.464,129.128 71.19,127.826 71.19,125.026 C71.19,122.31 72.548,121.106 74.116,121.106 Z" id="Path"></path>
            <path d="M79.856,130.01 L85.75,130.01 L85.75,128.946 L81.018,128.946 L81.018,125.488 L85.358,125.488 L85.358,124.452 L81.018,124.452 L81.018,121.274 L85.75,121.274 L85.75,120.21 L79.856,120.21 L79.856,130.01 Z" id="Path"></path>
            <path d="M90.6675,130.01 C90.7130729,129.166901 90.8873893,128.433177 91.1904492,127.808828 C91.4935091,127.184479 92.0848177,126.617096 92.964375,126.10668 L94.276875,125.347891 C94.8647656,125.006094 95.2772005,124.714427 95.5141797,124.472891 C95.8878776,124.094635 96.0747266,123.661693 96.0747266,123.174063 C96.0747266,122.604401 95.9038281,122.15209 95.5620312,121.817129 C95.2202344,121.482168 94.7645052,121.314688 94.1948437,121.314688 C93.3517448,121.314688 92.7684115,121.633698 92.4448437,122.271719 C92.2716667,122.613516 92.1759635,123.087474 92.1577344,123.693594 L90.9067578,123.693594 C90.9204297,122.84138 91.0776562,122.146393 91.3784375,121.608633 C91.9116406,120.660716 92.8527214,120.186758 94.2016797,120.186758 C95.3227734,120.186758 96.1419466,120.489818 96.6591992,121.095938 C97.1764518,121.702057 97.4350781,122.376536 97.4350781,123.119375 C97.4350781,123.903229 97.159362,124.573151 96.6079297,125.129141 C96.2889193,125.452708 95.7169792,125.844635 94.8921094,126.304922 L93.9555859,126.824453 C93.5089714,127.070547 93.1580599,127.305247 92.9028516,127.528555 C92.4471224,127.925039 92.160013,128.364818 92.0415234,128.847891 L97.3872266,128.847891 L97.3872266,130.01 L90.6675,130.01 Z" id="Path"></path>
            <path d="M101.803242,120.220938 C103.070169,120.220938 103.986185,120.742747 104.551289,121.786367 C104.988789,122.593008 105.207539,123.698151 105.207539,125.101797 C105.207539,126.432526 105.009297,127.533112 104.612812,128.403555 C104.038594,129.652253 103.099792,130.276602 101.796406,130.276602 C100.620625,130.276602 99.745625,129.766185 99.1714062,128.745352 C98.6928906,127.893138 98.4536328,126.749258 98.4536328,125.313711 C98.4536328,124.201732 98.5971875,123.246979 98.8842969,122.449453 C99.4220573,120.963776 100.395039,120.220938 101.803242,120.220938 Z M101.78957,129.155508 C102.427591,129.155508 102.935729,128.872956 103.313984,128.307852 C103.69224,127.742747 103.881367,126.690013 103.881367,125.149648 C103.881367,124.037669 103.744648,123.122793 103.471211,122.40502 C103.197773,121.687246 102.666849,121.328359 101.878437,121.328359 C101.153828,121.328359 100.624043,121.669017 100.289082,122.350332 C99.9541211,123.031647 99.7866406,124.035391 99.7866406,125.361563 C99.7866406,126.359609 99.893737,127.161693 100.10793,127.767813 C100.436055,128.692943 100.996602,129.155508 101.78957,129.155508 Z" id="Shape"></path>
            <path d="M106.239766,130.01 C106.285339,129.166901 106.459655,128.433177 106.762715,127.808828 C107.065775,127.184479 107.657083,126.617096 108.536641,126.10668 L109.849141,125.347891 C110.437031,125.006094 110.849466,124.714427 111.086445,124.472891 C111.460143,124.094635 111.646992,123.661693 111.646992,123.174063 C111.646992,122.604401 111.476094,122.15209 111.134297,121.817129 C110.7925,121.482168 110.336771,121.314688 109.767109,121.314688 C108.92401,121.314688 108.340677,121.633698 108.017109,122.271719 C107.843932,122.613516 107.748229,123.087474 107.73,123.693594 L106.479023,123.693594 C106.492695,122.84138 106.649922,122.146393 106.950703,121.608633 C107.483906,120.660716 108.424987,120.186758 109.773945,120.186758 C110.895039,120.186758 111.714212,120.489818 112.231465,121.095938 C112.748717,121.702057 113.007344,122.376536 113.007344,123.119375 C113.007344,123.903229 112.731628,124.573151 112.180195,125.129141 C111.861185,125.452708 111.289245,125.844635 110.464375,126.304922 L109.527852,126.824453 C109.081237,127.070547 108.730326,127.305247 108.475117,127.528555 C108.019388,127.925039 107.732279,128.364818 107.613789,128.847891 L112.959492,128.847891 L112.959492,130.01 L106.239766,130.01 Z" id="Path"></path>
            <path d="M114.928242,123.078359 L114.928242,122.135 C115.816914,122.048411 116.436706,121.903717 116.787617,121.700918 C117.138529,121.498118 117.400573,121.018464 117.57375,120.261953 L118.544453,120.261953 L118.544453,130.01 L117.231953,130.01 L117.231953,123.078359 L114.928242,123.078359 Z" id="Path"></path>
            <path d="M126.274531,130.01 L127.436531,130.01 L127.436531,120.21 L126.274531,120.21 L126.274531,130.01 Z" id="Path"></path>
            <path d="M132.224531,130.01 L133.372531,130.01 L133.372531,121.274 L136.396531,121.274 L136.396531,120.21 L129.186531,120.21 L129.186531,121.274 L132.224531,121.274 L132.224531,130.01 Z" id="Path"></path>
            <path d="M141.646531,130.01 L142.808531,130.01 L142.808531,120.21 L141.646531,120.21 L141.646531,130.01 Z" id="Path"></path>
            <path d="M144.908531,126.636 C145.202531,128.96 146.476531,130.22 148.842531,130.22 C151.068531,130.22 152.258531,128.904 152.258531,127.378 C152.258531,125.922 151.628531,125.208 148.968531,124.34 C146.826531,123.64 146.532531,123.29 146.532531,122.576 C146.532531,121.792 147.134531,121.106 148.436531,121.106 C149.934531,121.106 150.466531,121.876 150.676531,122.954 L151.852531,122.702 C151.600531,120.868 150.200531,120 148.436531,120 C146.476531,120 145.356531,121.218 145.356531,122.576 C145.356531,123.976 146.294531,124.69 148.394531,125.362 C150.746531,126.132 151.096531,126.552 151.096531,127.434 C151.096531,128.302 150.424531,129.128 148.884531,129.128 C146.994531,129.128 146.392531,128.19 146.126531,126.398 L144.908531,126.636 Z" id="Path"></path>
            <path d="M156.598531,130.01 L157.774531,130.01 L158.488531,128.092 L162.884531,128.092 L163.612531,130.01 L164.788531,130.01 L161.260531,120.21 L160.126531,120.21 L156.598531,130.01 Z M158.838531,127.084 L160.672531,121.764 L160.700531,121.764 L162.548531,127.084 L158.838531,127.084 Z" id="Shape"></path>
            <path d="M169.898531,130.01 L171.060531,130.01 L171.060531,126.23 L173.692531,126.23 C175.638531,126.23 176.940531,125.18 176.940531,123.234 C176.940531,121.26 175.582531,120.21 173.664531,120.21 L169.898531,120.21 L169.898531,130.01 Z M171.060531,125.166 L171.060531,121.274 L173.594531,121.274 C174.728531,121.274 175.764531,121.82 175.764531,123.234 C175.764531,124.578 174.756531,125.166 173.622531,125.166 L171.060531,125.166 Z" id="Shape"></path>
            <path d="M178.340531,126.818 C178.340531,129.086 179.642531,130.22 181.812531,130.22 C183.982531,130.22 185.298531,129.086 185.298531,126.818 L185.298531,120.21 L184.150531,120.21 L184.150531,126.762 C184.150531,128.288 183.352531,129.128 181.812531,129.128 C180.286531,129.128 179.502531,128.302 179.502531,126.734 L179.502531,120.21 L178.340531,120.21 L178.340531,126.818 Z" id="Path"></path>
            <path d="M187.748531,130.01 L191.276531,130.01 C193.698531,130.01 194.734531,128.876 194.734531,127.112 C194.734531,125.782 193.936531,124.998 193.152531,124.746 L193.152531,124.704 C193.824531,124.41 194.370531,123.794 194.370531,122.744 C194.370531,121.302 193.278531,120.21 191.514531,120.21 L187.748531,120.21 L187.748531,130.01 Z M188.910531,124.354 L188.910531,121.274 L191.290531,121.274 C192.494531,121.274 193.222531,121.806 193.222531,122.814 C193.222531,123.794 192.620531,124.354 191.304531,124.354 L188.910531,124.354 Z M188.910531,128.946 L188.910531,125.39 L191.150531,125.39 C192.774531,125.39 193.586531,125.838 193.586531,127.112 C193.586531,128.442 192.704531,128.946 191.122531,128.946 L188.910531,128.946 Z" id="Shape"></path>
            <path d="M196.834531,130.01 L202.252531,130.01 L202.252531,128.946 L197.996531,128.946 L197.996531,120.21 L196.834531,120.21 L196.834531,130.01 Z" id="Path"></path>
            <path d="M204.072531,130.01 L205.234531,130.01 L205.234531,120.21 L204.072531,120.21 L204.072531,130.01 Z" id="Path"></path>
            <path d="M211.562531,121.106 C213.242531,121.106 213.844531,122.296 214.068531,123.626 L215.244531,123.416 C214.978531,121.428 213.676531,120 211.562531,120 C209.434531,120 207.404531,121.652 207.404531,125.026 C207.404531,128.778 209.448531,130.22 211.562531,130.22 C213.774531,130.22 215.090531,128.778 215.272531,126.524 L214.054531,126.37 C213.900531,127.868 213.312531,129.128 211.562531,129.128 C209.910531,129.128 208.636531,127.826 208.636531,125.026 C208.636531,122.31 209.994531,121.106 211.562531,121.106 Z" id="Path"></path>
            <path d="M217.302531,130.01 L222.720531,130.01 L222.720531,128.946 L218.464531,128.946 L218.464531,120.21 L217.302531,120.21 L217.302531,130.01 Z" id="Path"></path>
            <path d="M226.584531,130.01 L227.704531,130.01 L227.704531,125.88 L230.938531,120.21 L229.650531,120.21 L227.158531,124.76 L227.130531,124.76 L224.638531,120.21 L223.350531,120.21 L226.584531,125.88 L226.584531,130.01 Z" id="Path"></path>
            <path d="M235.978531,130.01 L241.396531,130.01 L241.396531,128.946 L237.140531,128.946 L237.140531,120.21 L235.978531,120.21 L235.978531,130.01 Z" id="Path"></path>
            <path d="M243.216531,130.01 L244.378531,130.01 L244.378531,120.21 L243.216531,120.21 L243.216531,130.01 Z" id="Path"></path>
            <path d="M246.478531,126.636 C246.772531,128.96 248.046531,130.22 250.412531,130.22 C252.638531,130.22 253.828531,128.904 253.828531,127.378 C253.828531,125.922 253.198531,125.208 250.538531,124.34 C248.396531,123.64 248.102531,123.29 248.102531,122.576 C248.102531,121.792 248.704531,121.106 250.006531,121.106 C251.504531,121.106 252.036531,121.876 252.246531,122.954 L253.422531,122.702 C253.170531,120.868 251.770531,120 250.006531,120 C248.046531,120 246.926531,121.218 246.926531,122.576 C246.926531,123.976 247.864531,124.69 249.964531,125.362 C252.316531,126.132 252.666531,126.552 252.666531,127.434 C252.666531,128.302 251.994531,129.128 250.454531,129.128 C248.564531,129.128 247.962531,128.19 247.696531,126.398 L246.478531,126.636 Z" id="Path"></path>
            <path d="M257.776531,130.01 L258.924531,130.01 L258.924531,121.274 L261.948531,121.274 L261.948531,120.21 L254.738531,120.21 L254.738531,121.274 L257.776531,121.274 L257.776531,130.01 Z" id="Path"></path>
            <path d="M263.628531,130.01 L269.522531,130.01 L269.522531,128.946 L264.790531,128.946 L264.790531,125.488 L269.130531,125.488 L269.130531,124.452 L264.790531,124.452 L264.790531,121.274 L269.522531,121.274 L269.522531,120.21 L263.628531,120.21 L263.628531,130.01 Z" id="Path"></path>
            <path d="M272.994531,128.946 L272.994531,121.274 L274.800531,121.274 C276.690531,121.274 277.908531,122.59 277.908531,125.096 C277.908531,127.868 276.676531,128.946 274.716531,128.946 L272.994531,128.946 Z M271.832531,130.01 L274.814531,130.01 C276.984531,130.01 279.140531,128.848 279.140531,125.096 C279.140531,121.708 277.068531,120.21 274.898531,120.21 L271.832531,120.21 L271.832531,130.01 Z" id="Shape"></path>
            <path d="M4.648,141.106 C6.328,141.106 6.93,142.296 7.154,143.626 L8.33,143.416 C8.064,141.428 6.762,140 4.648,140 C2.52,140 0.49,141.652 0.49,145.026 C0.49,148.778 2.534,150.22 4.648,150.22 C6.86,150.22 8.176,148.778 8.358,146.524 L7.14,146.37 C6.986,147.868 6.398,149.128 4.648,149.128 C2.996,149.128 1.722,147.826 1.722,145.026 C1.722,142.31 3.08,141.106 4.648,141.106 Z" id="Path"></path>
            <path d="M13.986,149.128 C12.334,149.128 11.06,147.826 11.06,145.026 C11.06,142.31 12.418,141.106 13.986,141.106 C15.526,141.106 16.856,142.366 16.856,145.082 C16.856,147.882 15.596,149.128 13.986,149.128 Z M13.986,150.22 C16.072,150.22 18.088,148.834 18.088,145.082 C18.088,141.708 16.072,140 13.986,140 C11.858,140 9.828,141.652 9.828,145.026 C9.828,148.778 11.872,150.22 13.986,150.22 Z" id="Shape"></path>
            <path d="M20.188,150.01 L21.322,150.01 L21.322,141.834 L21.35,141.834 L24.724,150.01 L25.088,150.01 L28.462,141.834 L28.49,141.834 L28.49,150.01 L29.624,150.01 L29.624,140.21 L27.986,140.21 L24.92,147.728 L24.892,147.728 L21.826,140.21 L20.188,140.21 L20.188,150.01 Z" id="Path"></path>
            <path d="M32.284,150.01 L33.446,150.01 L33.446,146.23 L36.078,146.23 C38.024,146.23 39.326,145.18 39.326,143.234 C39.326,141.26 37.968,140.21 36.05,140.21 L32.284,140.21 L32.284,150.01 Z M33.446,145.166 L33.446,141.274 L35.98,141.274 C37.114,141.274 38.15,141.82 38.15,143.234 C38.15,144.578 37.142,145.166 36.008,145.166 L33.446,145.166 Z" id="Shape"></path>
            <path d="M39.886,150.01 L41.062,150.01 L41.776,148.092 L46.172,148.092 L46.9,150.01 L48.076,150.01 L44.548,140.21 L43.414,140.21 L39.886,150.01 Z M42.126,147.084 L43.96,141.764 L43.988,141.764 L45.836,147.084 L42.126,147.084 Z" id="Shape"></path>
            <path d="M49.686,150.01 L50.848,150.01 L50.848,142.128 L50.876,142.128 L55.37,150.01 L56.588,150.01 L56.588,140.21 L55.44,140.21 L55.44,148.092 L55.412,148.092 L50.946,140.21 L49.686,140.21 L49.686,150.01 Z" id="Path"></path>
            <path d="M61.362,150.01 L62.482,150.01 L62.482,145.88 L65.716,140.21 L64.428,140.21 L61.936,144.76 L61.908,144.76 L59.416,140.21 L58.128,140.21 L61.362,145.88 L61.362,150.01 Z" id="Path"></path>
            <path d="M67.256,150.01 L68.908,150.01 L68.908,148.358 L67.256,148.358 L67.256,150.01 Z" id="Path"></path>
        </g>
        <g id="Partner" transform="translate(24.680000, 271.027000)" fill="#FFFFFF" fill-rule="nonzero">
            <path d="M0,14.973 L0,0 L7.644,0 C9.534,0 11.0495,0.1855 12.1905,0.5565 C13.3315,0.9275 14.1575,1.5015 14.6685,2.2785 C15.1795,3.0555 15.435,4.053 15.435,5.271 C15.435,6.951 14.8155,8.218 13.5765,9.072 C12.3375,9.926 10.472,10.346 7.98,10.332 L3.486,10.332 L3.486,14.973 L0,14.973 Z M7.665,2.961 L3.486,2.961 L3.486,7.371 L7.77,7.371 C9.296,7.371 10.3635,7.2205 10.9725,6.9195 C11.5815,6.6185 11.886,6.062 11.886,5.25 C11.886,4.564 11.7355,4.06 11.4345,3.738 C11.1335,3.416 10.6715,3.206 10.0485,3.108 C9.4255,3.01 8.631,2.961 7.665,2.961 Z" id="Shape"></path>
            <path d="M13.4251967,14.973 L21.0061967,0 L24.7231967,0 L32.4301967,14.973 L28.6711967,14.973 L27.0751967,11.718 L18.7801967,11.718 L17.2261967,14.973 L13.4251967,14.973 Z M20.1451967,8.862 L25.6471967,8.862 L22.8541967,3.171 L20.1451967,8.862 Z" id="Shape"></path>
            <path d="M33.3183934,14.973 L33.3183934,0 L41.1933934,0 C43.8253934,0 45.7223934,0.378 46.8843934,1.134 C48.0463934,1.89 48.6273934,3.087 48.6273934,4.725 C48.6273934,5.845 48.3578934,6.72 47.8188934,7.35 C47.2798934,7.98 46.4573934,8.428 45.3513934,8.694 C46.4433934,8.932 47.2448934,9.38 47.7558934,10.038 C48.2668934,10.696 48.5223934,11.69 48.5223934,13.02 L48.5223934,14.007 C48.5223934,14.189 48.5433934,14.371 48.5853934,14.553 C48.6273934,14.735 48.7253934,14.875 48.8793934,14.973 L45.2043934,14.973 C45.0083934,14.903 44.8893934,14.7665 44.8473934,14.5635 C44.8053934,14.3605 44.7843934,14.161 44.7843934,13.965 L44.7843934,13.041 C44.7843934,12.285 44.6688934,11.697 44.4378934,11.277 C44.2068934,10.857 43.8218934,10.563 43.2828934,10.395 C42.7438934,10.227 41.9983934,10.143 41.0463934,10.143 L36.8253934,10.143 L36.8253934,14.973 L33.3183934,14.973 Z M41.1513934,2.982 L36.8253934,2.982 L36.8253934,7.14 L41.0253934,7.14 C41.7953934,7.14 42.4813934,7.1015 43.0833934,7.0245 C43.6853934,6.9475 44.1543934,6.776 44.4903934,6.51 C44.8263934,6.244 44.9943934,5.81 44.9943934,5.208 L44.9943934,4.935 C44.9943934,4.375 44.8578934,3.955 44.5848934,3.675 C44.3118934,3.395 43.8918934,3.2095 43.3248934,3.1185 C42.7578934,3.0275 42.0333934,2.982 41.1513934,2.982 Z" id="Shape"></path>
            <polygon id="Path" points="54.6395902 14.973 54.6395902 3.003 49.2635902 3.003 49.2635902 0 63.8795902 0 63.8795902 3.003 58.2515902 3.003 58.2515902 14.973"></polygon>
            <polygon id="Path" points="65.4817869 14.973 65.4817869 0 69.0097869 0 78.1027869 10.164 78.2287869 10.353 78.2287869 0 81.6097869 0 81.6097869 14.973 78.2287869 14.973 69.0307869 4.704 68.8837869 4.494 68.8837869 14.973"></polygon>
            <polygon id="Path" points="84.1569836 14.973 84.1569836 0 98.4579836 0 98.4579836 2.961 87.5379836 2.961 87.5379836 5.985 96.7779836 5.985 96.7779836 8.946 87.5379836 8.946 87.5379836 11.907 98.8989836 11.907 98.8989836 14.973"></polygon>
            <path d="M100.56418,14.973 L100.56418,0 L108.43918,0 C111.07118,0 112.96818,0.378 114.13018,1.134 C115.29218,1.89 115.87318,3.087 115.87318,4.725 C115.87318,5.845 115.60368,6.72 115.06468,7.35 C114.52568,7.98 113.70318,8.428 112.59718,8.694 C113.68918,8.932 114.49068,9.38 115.00168,10.038 C115.51268,10.696 115.76818,11.69 115.76818,13.02 L115.76818,14.007 C115.76818,14.189 115.78918,14.371 115.83118,14.553 C115.87318,14.735 115.97118,14.875 116.12518,14.973 L112.45018,14.973 C112.25418,14.903 112.13518,14.7665 112.09318,14.5635 C112.05118,14.3605 112.03018,14.161 112.03018,13.965 L112.03018,13.041 C112.03018,12.285 111.91468,11.697 111.68368,11.277 C111.45268,10.857 111.06768,10.563 110.52868,10.395 C109.98968,10.227 109.24418,10.143 108.29218,10.143 L104.07118,10.143 L104.07118,14.973 L100.56418,14.973 Z M108.39718,2.982 L104.07118,2.982 L104.07118,7.14 L108.27118,7.14 C109.04118,7.14 109.72718,7.1015 110.32918,7.0245 C110.93118,6.9475 111.40018,6.776 111.73618,6.51 C112.07218,6.244 112.24018,5.81 112.24018,5.208 L112.24018,4.935 C112.24018,4.375 112.10368,3.955 111.83068,3.675 C111.55768,3.395 111.13768,3.2095 110.57068,3.1185 C110.00368,3.0275 109.27918,2.982 108.39718,2.982 Z" id="Shape"></path>
        </g>
    </g>
</svg>