<?xml version="1.0" encoding="utf-8"?>
<!-- Generator: Adobe Illustrator 27.3.1, SVG Export Plug-In . SVG Version: 6.00 Build 0)  -->
<svg version="1.1" id="Ebene_1" xmlns="http://www.w3.org/2000/svg" xmlns:xlink="http://www.w3.org/1999/xlink" x="0px" y="0px"
	 viewBox="0 0 377 702" style="enable-background:new 0 0 377 702;" xml:space="preserve">
<style type="text/css">
	.st0{fill:#FFFFFF;}
</style>
<g id="Chris-Nickel_Back-Copy">
	<g id="CHRIS-NICKEL" transform="translate(23.016000, 32.782000)">
		<path id="Path" class="st0" d="M26.5,94.6c16.6,0,26.7-7.7,26.7-26.8v-17H27.8v16.1c0,4.6-0.3,5-1.3,5c-1.3,0-1.4-0.4-1.4-5v-40
			c0-4.6,0-5,1.4-5c0.9,0,1.3,0.3,1.3,5v14.7h25.4V26.9c0-18.9-7.9-26.8-26-26.8C9.9,0.1,0,8.3,0,26.9v40.9
			C0,87.6,9.8,94.6,26.5,94.6z"/>
		<polygon id="Path_00000148620781928640346730000007608291718061844615_" class="st0" points="55.4,1.8 55.4,93.2 80.1,93.2 
			80.1,59.1 82.7,59.1 82.7,93.2 107.6,93.2 107.6,1.8 82.7,1.8 82.7,35.4 80.1,35.4 80.1,1.8 		"/>
		<path id="Shape" class="st0" d="M110.1,93.2h24.6V62.1c1.9,0.1,2.7,0.8,2.7,3.9v20.3c0,3.7,0.3,6.2,1.7,6.9h24
			c-1.5-1.4-1.8-2.8-1.8-7V65.7c0-8.3-1.1-12.2-7.2-14.1c5.7-2,7.5-6.2,7.5-15.4V23.7c0-18-7.5-22-24.4-22h-27.1V93.2z M135,22.4
			c2,0,2.5,0.6,2.5,3v13.2c0,2.2-0.5,3-2.8,3.2V22.4H135z"/>
		<polygon id="Path_00000177462015357822411600000002835250275295505568_" class="st0" points="163.8,93.2 189.6,93.2 189.6,1.8 
			163.8,1.8 		"/>
		<path id="Path_00000158004043780276400730000005529601495534701215_" class="st0" d="M217.9,94.9c18.9,0,27.2-7.1,27.2-23.5v-9.8
			c0-11.6-3.6-15.9-17.7-23.6c-9.7-5.3-10-5.8-10-9v-5.8c0-2.8,0.3-3,1.3-3c1.3,0,1.3,0.5,1.3,3.4v9.4h24.8v-11
			C244.7,7,235.2,0,218.9,0c-18.5,0-27.1,8.4-27.1,23.7v5.5c0,12.8,3.2,16.5,16.8,24.3c10.9,6,11.2,6.5,11.2,11.6v5.2
			c0,2.8-0.5,3-1.4,3c-0.9,0-1.3-0.4-1.3-2.7V59.2h-25.7v12.2C191.5,87.5,198.9,94.9,217.9,94.9z"/>
		<polygon id="Path_00000018238727342362252800000018381600979091205303_" class="st0" points="0.3,192.2 24.5,192.2 24.5,171.6 
			19.3,131.8 30.4,192.2 58.5,192.2 58.5,100.8 34.9,100.8 34.9,118.7 40.6,162.6 29.6,100.8 0.3,100.8 		"/>
		<polygon id="Path_00000183950756883766015370000011200048184076052122_" class="st0" points="61.2,192.2 87,192.2 87,100.8 
			61.2,100.8 		"/>
		<path id="Path_00000163040677395784331260000016181064456004602553_" class="st0" d="M116,193.6c16.6,0,26.7-7.7,26.7-26.8v-17
			h-25.4v16.1c0,4.6-0.3,5-1.3,5c-1.3,0-1.4-0.4-1.4-5v-40c0-4.6,0-5,1.4-5c0.9,0,1.3,0.3,1.3,5v14.7h25.4v-14.7
			c0-18.9-7.9-26.8-26-26.8c-17.3,0-27.2,8.1-27.2,26.8v40.9C89.4,186.6,99.2,193.6,116,193.6z"/>
		<polygon id="Path_00000065788939775283377750000014994395721825075845_" class="st0" points="170.9,166.8 176.5,192.2 
			204.1,192.2 190.5,139.8 203.6,100.8 176.9,100.8 171.3,119.3 167.4,136.5 169.7,117.7 169.7,100.8 144.9,100.8 144.9,192.2 
			169.7,192.2 169.7,158.6 169.9,156.4 		"/>
		<polygon id="Path_00000104670322935253038080000007111345036161379003_" class="st0" points="203.7,192.2 246.5,192.2 
			246.5,167.7 228.3,167.7 228.3,157.9 246.5,157.9 246.5,133.9 228.3,133.9 228.3,124.7 246.5,124.7 246.5,100.8 203.7,100.8 		"/>
		<polygon id="Path_00000132797002647939807350000008638535603842005641_" class="st0" points="248.8,100.8 248.8,192.2 
			288.2,192.2 288.2,166.7 274.7,166.7 274.7,100.8 		"/>
	</g>
	<g id="CHRIS-JOINED-ABOUT-Y" transform="translate(22.350000, 308.447143)">
		<path id="Path_00000152964315151028238180000013235065597252893864_" class="st0" d="M4.6,1.1c1.7,0,2.3,1.2,2.5,2.5l1.2-0.2
			C8,1.4,6.7,0,4.6,0C2.5,0,0.4,1.7,0.4,5c0,3.8,2,5.2,4.2,5.2c2.2,0,3.5-1.4,3.7-3.7L7.1,6.4C6.9,7.9,6.3,9.1,4.6,9.1
			C2.9,9.1,1.7,7.8,1.7,5C1.7,2.3,3,1.1,4.6,1.1z"/>
		<path id="Path_00000066514660252946321810000000032205361307694517_" class="st0" d="M10.3,10h1.2V5.5h4.4V10H17V0.2h-1.1v4.2
			h-4.4V0.2h-1.2V10z"/>
		<path id="Shape_00000094597577996218855330000014304078225116954789_" class="st0" d="M19.7,10h1.2V6h2.2l2.1,4h1.3l-2.2-4.1
			c1.4-0.3,2.4-1.2,2.4-2.8c0-2-1.3-2.9-3.3-2.9h-3.8V10z M20.8,5V1.3h2.5c1.3,0,2.2,0.5,2.2,1.8S24.5,5,23.4,5H20.8z"/>
		<path id="Path_00000086687865717852212170000016247279367630246589_" class="st0" d="M28.7,10h1.2V0.2h-1.2V10z"/>
		<path id="Path_00000009565938408110787230000018031397831892118443_" class="st0" d="M32,6.6c0.3,2.3,1.6,3.6,3.9,3.6
			c2.2,0,3.4-1.3,3.4-2.8c0-1.5-0.6-2.2-3.3-3c-2.1-0.7-2.4-1.1-2.4-1.8c0-0.8,0.6-1.5,1.9-1.5c1.5,0,2,0.8,2.2,1.8l1.2-0.3
			C38.7,0.9,37.3,0,35.5,0c-2,0-3.1,1.2-3.1,2.6c0,1.4,0.9,2.1,3,2.8c2.4,0.8,2.7,1.2,2.7,2.1c0,0.9-0.7,1.7-2.2,1.7
			c-1.9,0-2.5-0.9-2.8-2.7L32,6.6z"/>
		<path id="Path_00000174592700701987439330000000607969987023710613_" class="st0" d="M43.8,7.9c0.2,1.3,1,2.3,2.4,2.3
			c1.5,0,2.3-0.9,2.3-2.7V0.2h-1.1v7.2c0,1.2-0.3,1.7-1.1,1.7c-0.9,0-1.2-0.8-1.3-1.5L43.8,7.9z"/>
		<path id="Shape_00000161628056568849810440000005144525958821351614_" class="st0" d="M54.7,9.1c-1.7,0-2.9-1.3-2.9-4.1
			c0-2.7,1.4-3.9,2.9-3.9c1.5,0,2.9,1.3,2.9,4C57.5,7.9,56.3,9.1,54.7,9.1z M54.7,10.2c2.1,0,4.1-1.4,4.1-5.1c0-3.4-2-5.1-4.1-5.1
			c-2.1,0-4.2,1.7-4.2,5C50.5,8.8,52.6,10.2,54.7,10.2z"/>
		<path id="Path_00000169557096577537933520000015406596498358060677_" class="st0" d="M60.9,10h1.2V0.2h-1.2V10z"/>
		<path id="Path_00000134235907751931337320000017660919891278764983_" class="st0" d="M64.8,10H66V2.1h0l4.5,7.9h1.2V0.2h-1.1v7.9
			h0l-4.5-7.9h-1.3V10z"/>
		<path id="Path_00000112625153841020286490000009867726124242748811_" class="st0" d="M74.4,10h5.9V8.9h-4.7V5.5h4.3v-1h-4.3V1.3
			h4.7V0.2h-5.9V10z"/>
		<path id="Shape_00000139262722956559771800000013499210749443904147_" class="st0" d="M83.8,8.9V1.3h1.8c1.9,0,3.1,1.3,3.1,3.8
			c0,2.8-1.2,3.9-3.2,3.9H83.8z M82.6,10h3c2.2,0,4.3-1.2,4.3-4.9c0-3.4-2.1-4.9-4.2-4.9h-3.1V10z"/>
		<path id="Shape_00000162346330507976948010000005369418745898859958_" class="st0" d="M94.4,10h1.2l0.7-1.9h4.4l0.7,1.9h1.2
			l-3.5-9.8h-1.1L94.4,10z M96.6,7.1l1.8-5.3h0l1.8,5.3H96.6z"/>
		<path id="Shape_00000166655042865722997940000014821542106411352714_" class="st0" d="M104.2,10h3.5c2.4,0,3.5-1.1,3.5-2.9
			c0-1.3-0.8-2.1-1.6-2.4v0c0.7-0.3,1.2-0.9,1.2-2c0-1.4-1.1-2.5-2.9-2.5h-3.8V10z M105.3,4.4V1.3h2.4c1.2,0,1.9,0.5,1.9,1.5
			c0,1-0.6,1.5-1.9,1.5H105.3z M105.3,8.9V5.4h2.2c1.6,0,2.4,0.4,2.4,1.7c0,1.3-0.9,1.8-2.5,1.8H105.3z"/>
		<path id="Shape_00000163795487913064874570000001200265902415642245_" class="st0" d="M116.9,9.1c-1.7,0-2.9-1.3-2.9-4.1
			c0-2.7,1.4-3.9,2.9-3.9c1.5,0,2.9,1.3,2.9,4C119.7,7.9,118.5,9.1,116.9,9.1z M116.9,10.2c2.1,0,4.1-1.4,4.1-5.1
			c0-3.4-2-5.1-4.1-5.1c-2.1,0-4.2,1.7-4.2,5C112.7,8.8,114.8,10.2,116.9,10.2z"/>
		<path id="Path_00000124136215257481301450000005237938970478526911_" class="st0" d="M122.9,6.8c0,2.3,1.3,3.4,3.5,3.4
			s3.5-1.1,3.5-3.4V0.2h-1.1v6.6c0,1.5-0.8,2.4-2.3,2.4c-1.5,0-2.3-0.8-2.3-2.4V0.2h-1.2V6.8z"/>
		<path id="Path_00000034070650777226453560000003049945411950070426_" class="st0" d="M134.3,10h1.1V1.3h3V0.2h-7.2v1.1h3V10z"/>
		<path id="Path_00000175299884123654486310000003761912055282065824_" class="st0" d="M145.8,10h1.1V5.9l3.2-5.7h-1.3l-2.5,4.6h0
			l-2.5-4.6h-1.3l3.2,5.7V10z"/>
		<path id="Shape_00000098198923291214790660000003887205023597323169_" class="st0" d="M155.3,9.1c-1.7,0-2.9-1.3-2.9-4.1
			c0-2.7,1.4-3.9,2.9-3.9c1.5,0,2.9,1.3,2.9,4C158.2,7.9,156.9,9.1,155.3,9.1z M155.3,10.2c2.1,0,4.1-1.4,4.1-5.1
			c0-3.4-2-5.1-4.1-5.1c-2.1,0-4.2,1.7-4.2,5C151.1,8.8,153.2,10.2,155.3,10.2z"/>
		<path id="Path_00000096751458211753788780000011051342030656064185_" class="st0" d="M161.3,6.8c0,2.3,1.3,3.4,3.5,3.4
			s3.5-1.1,3.5-3.4V0.2h-1.1v6.6c0,1.5-0.8,2.4-2.3,2.4c-1.5,0-2.3-0.8-2.3-2.4V0.2h-1.2V6.8z"/>
		<path id="Path_00000115483901354778559300000015764577734244500151_" class="st0" d="M174.3,10h1.2V0.2h-1.2V10z"/>
		<path id="Path_00000041974529088172248820000006289772227220160951_" class="st0" d="M178.1,10h1.2V2.1h0l4.5,7.9h1.2V0.2h-1.1
			v7.9h0l-4.5-7.9h-1.3V10z"/>
		<path id="Path_00000163053589449772174900000007724359829770889132_" class="st0" d="M190.3,10c0-0.8,0.2-1.6,0.5-2.2
			c0.3-0.6,0.9-1.2,1.8-1.7l1.3-0.8c0.6-0.3,1-0.6,1.2-0.9c0.4-0.4,0.6-0.8,0.6-1.3c0-0.6-0.2-1-0.5-1.4s-0.8-0.5-1.4-0.5
			c-0.8,0-1.4,0.3-1.8,1c-0.2,0.3-0.3,0.8-0.3,1.4h-1.3c0-0.9,0.2-1.5,0.5-2.1c0.5-0.9,1.5-1.4,2.8-1.4c1.1,0,1.9,0.3,2.5,0.9
			c0.5,0.6,0.8,1.3,0.8,2c0,0.8-0.3,1.5-0.8,2c-0.3,0.3-0.9,0.7-1.7,1.2l-0.9,0.5c-0.4,0.2-0.8,0.5-1.1,0.7
			c-0.5,0.4-0.7,0.8-0.9,1.3h5.3V10H190.3z"/>
		<path id="Shape_00000166670213970236343760000016727109420904890789_" class="st0" d="M201.5,0.2c1.3,0,2.2,0.5,2.7,1.6
			c0.4,0.8,0.7,1.9,0.7,3.3c0,1.3-0.2,2.4-0.6,3.3c-0.6,1.2-1.5,1.9-2.8,1.9c-1.2,0-2.1-0.5-2.6-1.5c-0.5-0.9-0.7-2-0.7-3.4
			c0-1.1,0.1-2.1,0.4-2.9C199.1,1,200,0.2,201.5,0.2z M201.4,9.2c0.6,0,1.1-0.3,1.5-0.8c0.4-0.6,0.6-1.6,0.6-3.2
			c0-1.1-0.1-2-0.4-2.7s-0.8-1.1-1.6-1.1c-0.7,0-1.3,0.3-1.6,1s-0.5,1.7-0.5,3c0,1,0.1,1.8,0.3,2.4C200.1,8.7,200.6,9.2,201.4,9.2z"
			/>
		<path id="Path_00000063611300870449984530000001555463686554951070_" class="st0" d="M206.8,3.1V2.1c0.9-0.1,1.5-0.2,1.9-0.4
			c0.4-0.2,0.6-0.7,0.8-1.4h1V10h-1.3V3.1H206.8z"/>
		<path id="Shape_00000128450398048691083110000006814586289757837453_" class="st0" d="M217.9,6.5V2.1l-3.1,4.4H217.9z M217.9,10
			V7.6h-4.3V6.4l4.5-6.2h1v6.4h1.4v1.1h-1.4V10H217.9z"/>
		<path id="Path_00000147210633587410007470000002077855033325549736_" class="st0" d="M227.9,10h1.1V1.3h3V0.2h-7.2v1.1h3V10z"/>
		<path id="Shape_00000165199889559074427280000004380830650188323714_" class="st0" d="M237.4,9.1c-1.7,0-2.9-1.3-2.9-4.1
			c0-2.7,1.4-3.9,2.9-3.9c1.5,0,2.9,1.3,2.9,4C240.2,7.9,239,9.1,237.4,9.1z M237.4,10.2c2.1,0,4.1-1.4,4.1-5.1c0-3.4-2-5.1-4.1-5.1
			c-2.1,0-4.2,1.7-4.2,5C233.2,8.8,235.3,10.2,237.4,10.2z"/>
		<path id="Path_00000160879004031845018260000008705807734286788493_" class="st0" d="M247.2,10.2c2.2,0,3.8-1.5,3.8-4.1v-1h-3.6
			v1.1h2.5c0,1.8-1,2.9-2.6,2.9c-1.6,0-2.9-1.3-2.9-4.1c0-2.7,1.4-3.9,2.9-3.9c1.6,0,2.2,1.1,2.5,2.3l1.2-0.2
			c-0.3-1.9-1.7-3.2-3.7-3.2C245,0,243,1.7,243,5C243,8.8,245,10.2,247.2,10.2z"/>
		<path id="Path_00000072278550659150465950000010663427726248968375_" class="st0" d="M253,10h5.9V8.9h-4.7V5.5h4.3v-1h-4.3V1.3
			h4.7V0.2H253V10z"/>
		<path id="Path_00000071518677542763556860000005564644778758710412_" class="st0" d="M263.3,10h1.1V1.3h3V0.2h-7.2v1.1h3V10z"/>
		<path id="Path_00000129900679108241699640000006947207379767104188_" class="st0" d="M269.1,10h1.2V5.5h4.4V10h1.1V0.2h-1.1v4.2
			h-4.4V0.2h-1.2V10z"/>
		<path id="Path_00000015335269527118888850000017409203306839504532_" class="st0" d="M278.5,10h5.9V8.9h-4.7V5.5h4.3v-1h-4.3V1.3
			h4.7V0.2h-5.9V10z"/>
		<path id="Shape_00000015339805434105146440000010455290327623378070_" class="st0" d="M286.7,10h1.2V6h2.2l2.1,4h1.3l-2.2-4.1
			c1.4-0.3,2.4-1.2,2.4-2.8c0-2-1.3-2.9-3.3-2.9h-3.8V10z M287.8,5V1.3h2.5c1.3,0,2.2,0.5,2.2,1.8s-1,1.8-2.2,1.8H287.8z"/>
		<path id="Path_00000088824522708788039750000013234985880624697732_" class="st0" d="M300.3,10h1.4l2.5-8.1h0l2.5,8.1h1.4l1.8-9.8
			h-1.2l-1.4,8.1h0l-2.5-8.1h-1.2l-2.4,8.1h0l-1.5-8.1h-1.2L300.3,10z"/>
		<path id="Path_00000074410794056434668620000001104336172305642424_" class="st0" d="M312,10h1.2V0.2H312V10z"/>
		<path id="Path_00000095310115788810423960000003252928805655914389_" class="st0" d="M317.9,10h1.1V1.3h3V0.2h-7.2v1.1h3V10z"/>
		<path id="Path_00000182522374640640271910000016659196359684847525_" class="st0" d="M323.8,10h1.2V5.5h4.4V10h1.1V0.2h-1.1v4.2
			h-4.4V0.2h-1.2V10z"/>
		<path id="Path_00000008126023754653019440000014190444137218020242_" class="st0" d="M0,27.9c0.2,1.3,1,2.3,2.4,2.3
			c1.5,0,2.3-0.9,2.3-2.7v-7.3H3.6v7.2c0,1.2-0.3,1.7-1.1,1.7c-0.9,0-1.2-0.8-1.3-1.5L0,27.9z"/>
		<path id="Path_00000137095472145885922680000014493491420196421773_" class="st0" d="M7.1,26.8c0,2.3,1.3,3.4,3.5,3.4
			s3.5-1.1,3.5-3.4v-6.6h-1.1v6.6c0,1.5-0.8,2.4-2.3,2.4c-1.5,0-2.3-0.8-2.3-2.4v-6.5H7.1V26.8z"/>
		<path id="Path_00000140714614229664030540000007619096565356549554_" class="st0" d="M16.5,30h5.4v-1.1h-4.3v-8.7h-1.2V30z"/>
		<path id="Path_00000116227686299676914430000016618279511097555585_" class="st0" d="M23.7,30h1.2v-9.8h-1.2V30z"/>
		<path id="Shape_00000169519037966471551890000000188356416912857015_" class="st0" d="M26.6,30h1.2l0.7-1.9h4.4l0.7,1.9h1.2
			l-3.5-9.8h-1.1L26.6,30z M28.8,27.1l1.8-5.3h0l1.8,5.3H28.8z"/>
		<path id="Path_00000016075258382979411330000012982967220657478032_" class="st0" d="M36.4,30h1.2v-7.9h0l4.5,7.9h1.2v-9.8h-1.1
			v7.9h0l-4.5-7.9h-1.3V30z"/>
		<path id="Path_00000065050170684151609630000003171584966486666425_" class="st0" d="M45.9,31.5c1.2-0.1,1.7-0.8,1.7-1.7v-1.4
			h-1.7V30h0.7c0,0.4-0.1,0.8-0.7,0.9V31.5z"/>
		<path id="Path_00000116222843224585357830000006197665466592260515_" class="st0" d="M54.9,30h1.4l2.5-8.1h0l2.5,8.1h1.4l1.8-9.8
			h-1.2l-1.4,8.1h0l-2.5-8.1h-1.2l-2.4,8.1h0l-1.5-8.1h-1.2L54.9,30z"/>
		<path id="Path_00000059279878172323683060000012098524348169305789_" class="st0" d="M66.5,30h1.2v-4.6H72V30h1.1v-9.8H72v4.2
			h-4.4v-4.2h-1.2V30z"/>
		<path id="Path_00000128479785747017041280000004783348809723584447_" class="st0" d="M75.8,30h5.9v-1.1H77v-3.5h4.3v-1H77v-3.2
			h4.7v-1.1h-5.9V30z"/>
		<path id="Shape_00000072281528687388207870000006402431664040125345_" class="st0" d="M84,30h1.2v-4h2.2l2.1,4h1.3l-2.2-4.1
			c1.4-0.3,2.4-1.2,2.4-2.8c0-2-1.3-2.9-3.3-2.9H84V30z M85.2,25v-3.7h2.5c1.3,0,2.2,0.5,2.2,1.8s-1,1.8-2.2,1.8H85.2z"/>
		<path id="Path_00000157279438747659989030000011616996548720269455_" class="st0" d="M93,30h5.9v-1.1h-4.7v-3.5h4.3v-1h-4.3v-3.2
			h4.7v-1.1H93V30z"/>
		<path id="Path_00000181070160422829562010000014853321519995219329_" class="st0" d="M106.8,30h1.1v-8.7h3v-1.1h-7.2v1.1h3V30z"/>
		<path id="Path_00000013153846876822102310000013433224722526037641_" class="st0" d="M112.6,30h1.2v-4.6h4.4V30h1.1v-9.8h-1.1v4.2
			h-4.4v-4.2h-1.2V30z"/>
		<path id="Path_00000072260365763232493640000002758778161398066071_" class="st0" d="M122,30h5.9v-1.1h-4.7v-3.5h4.3v-1h-4.3v-3.2
			h4.7v-1.1H122V30z"/>
		<path id="Path_00000176762828499374919400000017750396211134537605_" class="st0" d="M132.3,30h1.1v-4.1l3.2-5.7h-1.3l-2.5,4.6h0
			l-2.5-4.6h-1.3l3.2,5.7V30z"/>
		<path id="Path_00000158710050552670028070000009318261576726251914_" class="st0" d="M141.7,30h5.4v-1.1h-4.3v-8.7h-1.2V30z"/>
		<path id="Shape_00000031175725968170501070000005156453809056703408_" class="st0" d="M147.8,30h1.2l0.7-1.9h4.4l0.7,1.9h1.2
			l-3.5-9.8h-1.1L147.8,30z M150.1,27.1l1.8-5.3h0l1.8,5.3H150.1z"/>
		<path id="Path_00000085947971487179305110000014087943182319354513_" class="st0" d="M157.4,26.8c0,2.3,1.3,3.4,3.5,3.4
			s3.5-1.1,3.5-3.4v-6.6h-1.1v6.6c0,1.5-0.8,2.4-2.3,2.4c-1.5,0-2.3-0.8-2.3-2.4v-6.5h-1.2V26.8z"/>
		<path id="Path_00000108990891286646737310000004562096034887827113_" class="st0" d="M166.8,30h1.2v-7.9h0l4.5,7.9h1.2v-9.8h-1.1
			v7.9h0l-4.5-7.9h-1.3V30z"/>
		<path id="Path_00000065763194280092189850000014313810361620394684_" class="st0" d="M180,21.1c1.7,0,2.3,1.2,2.5,2.5l1.2-0.2
			c-0.3-2-1.6-3.4-3.7-3.4c-2.1,0-4.2,1.7-4.2,5c0,3.8,2,5.2,4.2,5.2c2.2,0,3.5-1.4,3.7-3.7l-1.2-0.2c-0.2,1.5-0.7,2.8-2.5,2.8
			c-1.7,0-2.9-1.3-2.9-4.1C177.1,22.3,178.4,21.1,180,21.1z"/>
		<path id="Path_00000137096947841875015770000016921540834086613947_" class="st0" d="M185.7,30h1.2v-4.6h4.4V30h1.1v-9.8h-1.1v4.2
			h-4.4v-4.2h-1.2V30z"/>
		<path id="Path_00000034807274494036542280000007273565029202586774_" class="st0" d="M195.1,30h5.9v-1.1h-4.7v-3.5h4.3v-1h-4.3
			v-3.2h4.7v-1.1h-5.9V30z"/>
		<path id="Shape_00000027596531782327184800000014479432179524717736_" class="st0" d="M204.4,28.9v-7.7h1.8c1.9,0,3.1,1.3,3.1,3.8
			c0,2.8-1.2,3.8-3.2,3.8H204.4z M203.3,30h3c2.2,0,4.3-1.2,4.3-4.9c0-3.4-2.1-4.9-4.2-4.9h-3.1V30z"/>
		<path id="Path_00000020400551404636997980000004838631877407164036_" class="st0" d="M219.7,21.1c1.7,0,2.3,1.2,2.5,2.5l1.2-0.2
			c-0.3-2-1.6-3.4-3.7-3.4c-2.1,0-4.2,1.7-4.2,5c0,3.8,2,5.2,4.2,5.2c2.2,0,3.5-1.4,3.7-3.7l-1.2-0.2c-0.2,1.5-0.7,2.8-2.5,2.8
			c-1.7,0-2.9-1.3-2.9-4.1C216.8,22.3,218.1,21.1,219.7,21.1z"/>
		<path id="Shape_00000117635003962533237690000008443781290751703707_" class="st0" d="M229.1,29.1c-1.7,0-2.9-1.3-2.9-4.1
			c0-2.7,1.4-3.9,2.9-3.9c1.5,0,2.9,1.3,2.9,4C231.9,27.9,230.7,29.1,229.1,29.1z M229.1,30.2c2.1,0,4.1-1.4,4.1-5.1
			c0-3.4-2-5.1-4.1-5.1c-2.1,0-4.2,1.7-4.2,5C224.9,28.8,226.9,30.2,229.1,30.2z"/>
		<path id="Path_00000088097365781285329890000011700624911482138504_" class="st0" d="M235,26.8c0,2.3,1.3,3.4,3.5,3.4
			s3.5-1.1,3.5-3.4v-6.6h-1.1v6.6c0,1.5-0.8,2.4-2.3,2.4c-1.5,0-2.3-0.8-2.3-2.4v-6.5H235V26.8z"/>
		<path id="Path_00000111153577805405040560000003316627799334580140_" class="st0" d="M244.5,30h1.2v-7.9h0l4.5,7.9h1.2v-9.8h-1.1
			v7.9h0l-4.5-7.9h-1.3V30z"/>
		<path id="Path_00000109711486620447545740000006256512683273269165_" class="st0" d="M256.1,30h1.1v-8.7h3v-1.1H253v1.1h3V30z"/>
		<path id="Path_00000006668017024323846630000002494796692198865843_" class="st0" d="M261.9,30h5.4v-1.1h-4.3v-8.7h-1.2V30z"/>
		<path id="Path_00000046328868549695683340000011096163434711861144_" class="st0" d="M269.1,30h5.9v-1.1h-4.7v-3.5h4.3v-1h-4.3
			v-3.2h4.7v-1.1h-5.9V30z"/>
		<path id="Path_00000053506302917292765980000014569186469580049564_" class="st0" d="M276.7,26.6c0.3,2.3,1.6,3.6,3.9,3.6
			c2.2,0,3.4-1.3,3.4-2.8c0-1.5-0.6-2.2-3.3-3c-2.1-0.7-2.4-1-2.4-1.8c0-0.8,0.6-1.5,1.9-1.5c1.5,0,2,0.8,2.2,1.8l1.2-0.3
			c-0.3-1.8-1.7-2.7-3.4-2.7c-2,0-3.1,1.2-3.1,2.6c0,1.4,0.9,2.1,3,2.8c2.4,0.8,2.7,1.2,2.7,2.1c0,0.9-0.7,1.7-2.2,1.7
			c-1.9,0-2.5-0.9-2.8-2.7L276.7,26.6z"/>
		<path id="Path_00000089573815550320559780000005574832542908414376_" class="st0" d="M285.3,26.6c0.3,2.3,1.6,3.6,3.9,3.6
			c2.2,0,3.4-1.3,3.4-2.8c0-1.5-0.6-2.2-3.3-3c-2.1-0.7-2.4-1-2.4-1.8c0-0.8,0.6-1.5,1.9-1.5c1.5,0,2,0.8,2.2,1.8l1.2-0.3
			c-0.3-1.8-1.7-2.7-3.4-2.7c-2,0-3.1,1.2-3.1,2.6c0,1.4,0.9,2.1,3,2.8c2.4,0.8,2.7,1.2,2.7,2.1c0,0.9-0.7,1.7-2.2,1.7
			c-1.9,0-2.5-0.9-2.8-2.7L285.3,26.6z"/>
		<path id="Path_00000057854654092706544010000000294296574096074427_" class="st0" d="M4.6,41.1c1.7,0,2.3,1.2,2.5,2.5l1.2-0.2
			C8,41.4,6.7,40,4.6,40c-2.1,0-4.2,1.7-4.2,5c0,3.8,2,5.2,4.2,5.2c2.2,0,3.5-1.4,3.7-3.7l-1.2-0.2c-0.2,1.5-0.7,2.8-2.5,2.8
			c-1.7,0-2.9-1.3-2.9-4.1C1.7,42.3,3,41.1,4.6,41.1z"/>
		<path id="Shape_00000067212791367476629560000005736629347740153241_" class="st0" d="M13.9,49.1c-1.7,0-2.9-1.3-2.9-4.1
			c0-2.7,1.4-3.9,2.9-3.9c1.5,0,2.9,1.3,2.9,4C16.8,47.9,15.5,49.1,13.9,49.1z M13.9,50.2c2.1,0,4.1-1.4,4.1-5.1
			c0-3.4-2-5.1-4.1-5.1c-2.1,0-4.2,1.7-4.2,5C9.8,48.8,11.8,50.2,13.9,50.2z"/>
		<path id="Path_00000026854046732333162760000009456341295668601267_" class="st0" d="M20.1,50h5.4v-1.1h-4.3v-8.7h-1.2V50z"/>
		<path id="Path_00000037682637140783244400000016976445463579173557_" class="st0" d="M27.3,50h5.4v-1.1h-4.3v-8.7h-1.2V50z"/>
		<path id="Shape_00000085941070681066369100000010144731818503188630_" class="st0" d="M33.4,50h1.2l0.7-1.9h4.4l0.7,1.9h1.2
			l-3.5-9.8h-1.1L33.4,50z M35.6,47.1l1.8-5.3h0l1.8,5.3H35.6z"/>
		<path id="Shape_00000168089977757221204500000014689816933011372441_" class="st0" d="M43.2,50h3.5c2.4,0,3.5-1.1,3.5-2.9
			c0-1.3-0.8-2.1-1.6-2.4v0c0.7-0.3,1.2-0.9,1.2-2c0-1.4-1.1-2.5-2.9-2.5h-3.8V50z M44.4,44.4v-3.1h2.4c1.2,0,1.9,0.5,1.9,1.5
			c0,1-0.6,1.5-1.9,1.5H44.4z M44.4,48.9v-3.6h2.2c1.6,0,2.4,0.4,2.4,1.7c0,1.3-0.9,1.8-2.5,1.8H44.4z"/>
		<path id="Path_00000128481618123013572190000000641816216689766530_" class="st0" d="M51.7,46.6c0.3,2.3,1.6,3.6,3.9,3.6
			c2.2,0,3.4-1.3,3.4-2.8c0-1.5-0.6-2.2-3.3-3c-2.1-0.7-2.4-1-2.4-1.8c0-0.8,0.6-1.5,1.9-1.5c1.5,0,2,0.8,2.2,1.8l1.2-0.3
			C58.4,40.9,57,40,55.2,40c-2,0-3.1,1.2-3.1,2.6c0,1.4,0.9,2.1,3,2.8c2.4,0.8,2.7,1.2,2.7,2.1c0,0.9-0.7,1.7-2.2,1.7
			c-1.9,0-2.5-0.9-2.8-2.7L51.7,46.6z"/>
		<path id="Path_00000157274350272520075100000010014746192576048785_" class="st0" d="M65.5,50h1.4l2.5-8.1h0l2.5,8.1h1.4l1.8-9.8
			H74l-1.4,8.1h0L70,40.2h-1.2l-2.4,8.1h0l-1.5-8.1h-1.2L65.5,50z"/>
		<path id="Path_00000085210824984363616960000003899036789062545282_" class="st0" d="M77.2,50h1.2v-9.8h-1.2V50z"/>
		<path id="Path_00000162338128934592115010000013692457914071547272_" class="st0" d="M83.1,50h1.1v-8.7h3v-1.1h-7.2v1.1h3V50z"/>
		<path id="Path_00000031196034829233592610000007956157866198098612_" class="st0" d="M89,50h1.2v-4.5h4.4V50h1.1v-9.8h-1.1v4.2
			h-4.4v-4.2H89V50z"/>
		<path id="Path_00000116927209192626238370000012845495252048341674_" class="st0" d="M103.9,50h1.1v-8.7h3v-1.1h-7.2v1.1h3V50z"/>
		<path id="Shape_00000145736568646471370660000011686919457528893361_" class="st0" d="M108.7,50h1.2l0.7-1.9h4.4l0.7,1.9h1.2
			l-3.5-9.8h-1.1L108.7,50z M110.9,47.1l1.8-5.3h0l1.8,5.3H110.9z"/>
		<path id="Path_00000100342899769088030710000001975323467255203005_" class="st0" d="M118.5,50h5.4v-1.1h-4.3v-8.7h-1.2V50z"/>
		<path id="Path_00000071521191721980230790000012159271488453497473_" class="st0" d="M125.7,50h5.9v-1.1h-4.7v-3.5h4.3v-1h-4.3
			v-3.2h4.7v-1.1h-5.9V50z"/>
		<path id="Path_00000119813554929538580900000003573453513825333637_" class="st0" d="M133.9,50h1.2v-7.9h0l4.5,7.9h1.2v-9.8h-1.1
			v7.9h0l-4.5-7.9h-1.3V50z"/>
		<path id="Path_00000072981962239992509470000014091909269387025830_" class="st0" d="M145.5,50h1.1v-8.7h3v-1.1h-7.2v1.1h3V50z"/>
		<path id="Path_00000011011518271965851990000011788019121188943029_" class="st0" d="M150.7,46.6c0.3,2.3,1.6,3.6,3.9,3.6
			c2.2,0,3.4-1.3,3.4-2.8c0-1.5-0.6-2.2-3.3-3c-2.1-0.7-2.4-1-2.4-1.8c0-0.8,0.6-1.5,1.9-1.5c1.5,0,2,0.8,2.2,1.8l1.2-0.3
			c-0.3-1.8-1.7-2.7-3.4-2.7c-2,0-3.1,1.2-3.1,2.6c0,1.4,0.9,2.1,3,2.8c2.4,0.8,2.7,1.2,2.7,2.1c0,0.9-0.7,1.7-2.2,1.7
			c-1.9,0-2.5-0.9-2.8-2.7L150.7,46.6z"/>
		<path id="Shape_00000067211018797665160330000017821475828818334338_" class="st0" d="M162.4,50h1.2l0.7-1.9h4.4l0.7,1.9h1.2
			l-3.5-9.8h-1.1L162.4,50z M164.6,47.1l1.8-5.3h0l1.8,5.3H164.6z"/>
		<path id="Path_00000124126734001671902610000015758213818845371776_" class="st0" d="M172.2,50h1.2v-7.9h0l4.5,7.9h1.2v-9.8H178
			v7.9h0l-4.5-7.9h-1.3V50z"/>
		<path id="Shape_00000136405239823592209430000003177902893950487723_" class="st0" d="M182.9,48.9v-7.7h1.8c1.9,0,3.1,1.3,3.1,3.8
			c0,2.8-1.2,3.8-3.2,3.8H182.9z M181.8,50h3c2.2,0,4.3-1.2,4.3-4.9c0-3.4-2.1-4.9-4.2-4.9h-3.1V50z"/>
		<path id="Shape_00000067223210751154663220000014313980941267072173_" class="st0" d="M194.6,50h3.5c2.4,0,3.5-1.1,3.5-2.9
			c0-1.3-0.8-2.1-1.6-2.4v0c0.7-0.3,1.2-0.9,1.2-2c0-1.4-1.1-2.5-2.9-2.5h-3.8V50z M195.8,44.4v-3.1h2.4c1.2,0,1.9,0.5,1.9,1.5
			c0,1-0.6,1.5-1.9,1.5H195.8z M195.8,48.9v-3.6h2.2c1.6,0,2.4,0.4,2.4,1.7c0,1.3-0.9,1.8-2.5,1.8H195.8z"/>
		<path id="Shape_00000059289289784621919550000016648657809157562013_" class="st0" d="M203.7,50h1.2v-4h2.2l2.1,4h1.3l-2.2-4.1
			c1.4-0.3,2.4-1.2,2.4-2.8c0-2-1.3-2.9-3.3-2.9h-3.8V50z M204.8,45v-3.7h2.5c1.3,0,2.2,0.5,2.2,1.8c0,1.4-1,1.8-2.2,1.8H204.8z"/>
		<path id="Shape_00000041265300416489167570000013020845799138118805_" class="st0" d="M211.6,50h1.2l0.7-1.9h4.4l0.7,1.9h1.2
			l-3.5-9.8h-1.1L211.6,50z M213.9,47.1l1.8-5.3h0l1.8,5.3H213.9z"/>
		<path id="Path_00000157269968705335965430000014005392513548596612_" class="st0" d="M221.4,50h1.2v-7.9h0l4.5,7.9h1.2v-9.8h-1.1
			v7.9h0l-4.5-7.9h-1.3V50z"/>
		<path id="Shape_00000067200386695944265290000003879535888284577169_" class="st0" d="M232.2,48.9v-7.7h1.8c1.9,0,3.1,1.3,3.1,3.8
			c0,2.8-1.2,3.8-3.2,3.8H232.2z M231,50h3c2.2,0,4.3-1.2,4.3-4.9c0-3.4-2.1-4.9-4.2-4.9H231V50z"/>
		<path id="Path_00000137111845311561735290000014298247599683345565_" class="st0" d="M239.7,46.6c0.3,2.3,1.6,3.6,3.9,3.6
			c2.2,0,3.4-1.3,3.4-2.8c0-1.5-0.6-2.2-3.3-3c-2.1-0.7-2.4-1-2.4-1.8c0-0.8,0.6-1.5,1.9-1.5c1.5,0,2,0.8,2.2,1.8l1.2-0.3
			c-0.3-1.8-1.7-2.7-3.4-2.7c-2,0-3.1,1.2-3.1,2.6c0,1.4,0.9,2.1,3,2.8c2.4,0.8,2.7,1.2,2.7,2.1c0,0.9-0.7,1.7-2.2,1.7
			c-1.9,0-2.5-0.9-2.8-2.7L239.7,46.6z"/>
		<path id="Path_00000085214786421940924440000017683383681845866168_" class="st0" d="M248.9,51.5c1.2-0.1,1.7-0.8,1.7-1.7v-1.4
			h-1.7V50h0.7c0,0.4-0.1,0.8-0.7,0.9V51.5z"/>
		<path id="Shape_00000119826955696300830520000010025732344221802168_" class="st0" d="M256.8,50h1.2v-4h2.2l2.1,4h1.3l-2.2-4.1
			c1.4-0.3,2.4-1.2,2.4-2.8c0-2-1.3-2.9-3.3-2.9h-3.8V50z M257.9,45v-3.7h2.5c1.3,0,2.2,0.5,2.2,1.8c0,1.4-1,1.8-2.2,1.8H257.9z"/>
		<path id="Path_00000021823078455654455570000015538895945549652635_" class="st0" d="M265.8,50h5.9v-1.1h-4.7v-3.5h4.3v-1h-4.3
			v-3.2h4.7v-1.1h-5.9V50z"/>
		<path id="Path_00000133526296669774866150000017037256591324224679_" class="st0" d="M273.3,46.6c0.3,2.3,1.6,3.6,3.9,3.6
			c2.2,0,3.4-1.3,3.4-2.8c0-1.5-0.6-2.2-3.3-3c-2.1-0.7-2.4-1-2.4-1.8c0-0.8,0.6-1.5,1.9-1.5c1.5,0,2,0.8,2.2,1.8l1.2-0.3
			c-0.3-1.8-1.7-2.7-3.4-2.7c-2,0-3.1,1.2-3.1,2.6c0,1.4,0.9,2.1,3,2.8c2.4,0.8,2.7,1.2,2.7,2.1c0,0.9-0.7,1.7-2.2,1.7
			c-1.9,0-2.5-0.9-2.8-2.7L273.3,46.6z"/>
		<path id="Path_00000098929891075646669040000007625152265126430648_" class="st0" d="M282.6,50h1.2v-4.5h4.4V50h1.1v-9.8h-1.1v4.2
			h-4.4v-4.2h-1.2V50z"/>
		<path id="Shape_00000117655197217732448860000000469536935755521187_" class="st0" d="M290.9,50h1.2l0.7-1.9h4.4l0.7,1.9h1.2
			l-3.5-9.8h-1.1L290.9,50z M293.1,47.1l1.8-5.3h0l1.8,5.3H293.1z"/>
		<path id="Shape_00000180331687049077739220000005051383707704333718_" class="st0" d="M300.7,50h1.2v-3.8h2.6c1.9,0,3.2-1,3.2-3
			c0-2-1.4-3-3.3-3h-3.8V50z M301.8,45.2v-3.9h2.5c1.1,0,2.2,0.5,2.2,2c0,1.3-1,1.9-2.1,1.9H301.8z"/>
		<path id="Path_00000072261815185139932780000010795590223304427145_" class="st0" d="M309.4,50h1.2v-9.8h-1.2V50z"/>
		<path id="Path_00000062160168256555561760000003458735488615085983_" class="st0" d="M313.3,50h1.2v-7.9h0L319,50h1.2v-9.8H319
			v7.9h0l-4.5-7.9h-1.3V50z"/>
		<path id="Path_00000007393576084858816480000011824174528803121289_" class="st0" d="M326.4,50.2c2.2,0,3.8-1.5,3.8-4.1v-1h-3.6
			v1.1h2.5c0,1.8-1,2.9-2.6,2.9c-1.6,0-2.9-1.3-2.9-4.1c0-2.7,1.4-3.9,2.9-3.9c1.6,0,2.2,1.1,2.5,2.3l1.2-0.2
			c-0.3-1.9-1.7-3.2-3.7-3.2c-2.1,0-4.1,1.7-4.1,5C322.3,48.8,324.3,50.2,326.4,50.2z"/>
		<path id="Path_00000131368936750342041640000008023043729469203608_" class="st0" d="M2.1,70h1.4L6,61.9h0L8.5,70h1.4l1.8-9.8
			h-1.2l-1.4,8.1h0l-2.4-8.1H5.4L3,68.3h0l-1.5-8.1H0.3L2.1,70z"/>
		<path id="Path_00000166662642760857284680000000266464259741925816_" class="st0" d="M13.7,70h1.2v-4.6h4.4V70h1.1v-9.8h-1.1v4.2
			h-4.4v-4.2h-1.2V70z"/>
		<path id="Shape_00000052804903350585066910000003155798969827925164_" class="st0" d="M22,70h1.2l0.7-1.9h4.4L29,70h1.2l-3.5-9.8
			h-1.1L22,70z M24.2,67.1l1.8-5.3h0l1.8,5.3H24.2z"/>
		<path id="Path_00000166664085313960827670000013763376164149849010_" class="st0" d="M33.9,70H35v-8.7h3v-1.1h-7.2v1.1h3V70z"/>
		<path id="Path_00000140013442158990719930000004148409014196989613_" class="st0" d="M45.3,70h1.1v-8.7h3v-1.1h-7.2v1.1h3V70z"/>
		<path id="Path_00000023985654566667167160000017025531032392504715_" class="st0" d="M51.1,70h1.2v-4.6h4.4V70h1.1v-9.8h-1.1v4.2
			h-4.4v-4.2h-1.2V70z"/>
		<path id="Path_00000057124603517434533740000009883361680790893487_" class="st0" d="M60.5,70h5.9v-1.1h-4.7v-3.5H66v-1h-4.3v-3.2
			h4.7v-1.1h-5.9V70z"/>
		<path id="Shape_00000145057434698593239330000005554449618603405209_" class="st0" d="M71.1,70h1.2l0.7-1.9h4.4l0.7,1.9h1.2
			l-3.5-9.8h-1.1L71.1,70z M73.4,67.1l1.8-5.3h0l1.8,5.3H73.4z"/>
		<path id="Shape_00000096017294260422052870000010261006469949801864_" class="st0" d="M80.9,70h3.5c2.4,0,3.5-1.1,3.5-2.9
			c0-1.3-0.8-2.1-1.6-2.4v0c0.7-0.3,1.2-0.9,1.2-2c0-1.4-1.1-2.5-2.9-2.5h-3.8V70z M82.1,64.4v-3.1h2.4c1.2,0,1.9,0.5,1.9,1.5
			c0,1-0.6,1.5-1.9,1.5H82.1z M82.1,68.9v-3.6h2.2c1.6,0,2.4,0.4,2.4,1.7c0,1.3-0.9,1.8-2.5,1.8H82.1z"/>
		<path id="Shape_00000150793644507037325820000002032334166705354385_" class="st0" d="M93.6,69.1c-1.7,0-2.9-1.3-2.9-4.1
			c0-2.7,1.4-3.9,2.9-3.9c1.5,0,2.9,1.3,2.9,4C96.5,67.9,95.2,69.1,93.6,69.1z M93.6,70.2c2.1,0,4.1-1.4,4.1-5.1
			c0-3.4-2-5.1-4.1-5.1c-2.1,0-4.2,1.7-4.2,5C89.4,68.8,91.5,70.2,93.6,70.2z"/>
		<path id="Path_00000052071499205372949350000002341105651584043395_" class="st0" d="M99.6,66.8c0,2.3,1.3,3.4,3.5,3.4
			s3.5-1.1,3.5-3.4v-6.6h-1.1v6.6c0,1.5-0.8,2.4-2.3,2.4c-1.5,0-2.3-0.8-2.3-2.4v-6.5h-1.2V66.8z"/>
		<path id="Path_00000038378077998884867060000013028117263265857946_" class="st0" d="M111.1,70h1.1v-8.7h3v-1.1H108v1.1h3V70z"/>
		<path id="Path_00000028284040758878112560000018240951304588449212_" class="st0" d="M122.5,70h1.1v-4.1l3.2-5.7h-1.3l-2.5,4.6h0
			l-2.5-4.6h-1.3l3.2,5.7V70z"/>
		<path id="Shape_00000141426377730864978180000006855945824306926991_" class="st0" d="M132,69.1c-1.7,0-2.9-1.3-2.9-4.1
			c0-2.7,1.4-3.9,2.9-3.9c1.5,0,2.9,1.3,2.9,4C134.9,67.9,133.6,69.1,132,69.1z M132,70.2c2.1,0,4.1-1.4,4.1-5.1
			c0-3.4-2-5.1-4.1-5.1c-2.1,0-4.2,1.7-4.2,5C127.9,68.8,129.9,70.2,132,70.2z"/>
		<path id="Path_00000062883526242001852650000009921865248651181748_" class="st0" d="M138,66.8c0,2.3,1.3,3.4,3.5,3.4
			c2.2,0,3.5-1.1,3.5-3.4v-6.6h-1.1v6.6c0,1.5-0.8,2.4-2.3,2.4c-1.5,0-2.3-0.8-2.3-2.4v-6.5H138V66.8z"/>
		<path id="Shape_00000063609774083784896830000012849614721021577097_" class="st0" d="M150.9,70h3.5c2.4,0,3.5-1.1,3.5-2.9
			c0-1.3-0.8-2.1-1.6-2.4v0c0.7-0.3,1.2-0.9,1.2-2c0-1.4-1.1-2.5-2.9-2.5h-3.8V70z M152.1,64.4v-3.1h2.4c1.2,0,1.9,0.5,1.9,1.5
			c0,1-0.6,1.5-1.9,1.5H152.1z M152.1,68.9v-3.6h2.2c1.6,0,2.4,0.4,2.4,1.7c0,1.3-0.9,1.8-2.5,1.8H152.1z"/>
		<path id="Shape_00000105414281260515196580000004505071884433813125_" class="st0" d="M160,70h1.2v-4h2.2l2.1,4h1.3l-2.2-4.1
			c1.4-0.3,2.4-1.2,2.4-2.8c0-2-1.3-2.9-3.3-2.9H160V70z M161.2,65v-3.7h2.5c1.3,0,2.2,0.5,2.2,1.8s-1,1.8-2.2,1.8H161.2z"/>
		<path id="Shape_00000099654609339761277520000003064103911750439862_" class="st0" d="M168,70h1.2l0.7-1.9h4.4L175,70h1.2
			l-3.5-9.8h-1.1L168,70z M170.2,67.1l1.8-5.3h0l1.8,5.3H170.2z"/>
		<path id="Path_00000065062173682134069030000010491419005823113620_" class="st0" d="M177.8,70h1.2v-7.9h0l4.5,7.9h1.2v-9.8h-1.1
			v7.9h0l-4.5-7.9h-1.3V70z"/>
		<path id="Shape_00000073703188973536247820000005786620406863280516_" class="st0" d="M188.5,68.9v-7.7h1.8c1.9,0,3.1,1.3,3.1,3.8
			c0,2.8-1.2,3.8-3.2,3.8H188.5z M187.3,70h3c2.2,0,4.3-1.2,4.3-4.9c0-3.4-2.1-4.9-4.2-4.9h-3.1V70z"/>
		<path id="Path_00000119818071893775754140000011829596344611224741_" class="st0" d="M199.5,66.6c0.3,2.3,1.6,3.6,3.9,3.6
			c2.2,0,3.4-1.3,3.4-2.8c0-1.5-0.6-2.2-3.3-3c-2.1-0.7-2.4-1-2.4-1.8c0-0.8,0.6-1.5,1.9-1.5c1.5,0,2,0.8,2.2,1.8l1.2-0.3
			c-0.3-1.8-1.7-2.7-3.4-2.7c-2,0-3.1,1.2-3.1,2.6c0,1.4,0.9,2.1,3,2.8c2.4,0.8,2.7,1.2,2.7,2.1c0,0.9-0.7,1.7-2.2,1.7
			c-1.9,0-2.5-0.9-2.8-2.7L199.5,66.6z"/>
		<path id="Path_00000037668456993801972200000010427261307998103690_" class="st0" d="M210.8,70h1.1v-8.7h3v-1.1h-7.2v1.1h3V70z"/>
		<path id="Shape_00000009552693029543303930000014008158580599032205_" class="st0" d="M220.3,69.1c-1.7,0-2.9-1.3-2.9-4.1
			c0-2.7,1.4-3.9,2.9-3.9c1.5,0,2.9,1.3,2.9,4C223.1,67.9,221.9,69.1,220.3,69.1z M220.3,70.2c2.1,0,4.1-1.4,4.1-5.1
			c0-3.4-2-5.1-4.1-5.1c-2.1,0-4.2,1.7-4.2,5C216.1,68.8,218.2,70.2,220.3,70.2z"/>
		<path id="Shape_00000098207874352052563220000012691927018044856461_" class="st0" d="M230.1,69.1c-1.7,0-2.9-1.3-2.9-4.1
			c0-2.7,1.4-3.9,2.9-3.9c1.5,0,2.9,1.3,2.9,4C232.9,67.9,231.7,69.1,230.1,69.1z M230.1,70.2c2.1,0,4.1-1.4,4.1-5.1
			c0-3.4-2-5.1-4.1-5.1c-2.1,0-4.2,1.7-4.2,5C225.9,68.8,228,70.2,230.1,70.2z"/>
		<path id="Shape_00000134935876356446329550000002478150031959811201_" class="st0" d="M237.4,68.9v-7.7h1.8c1.9,0,3.1,1.3,3.1,3.8
			c0,2.8-1.2,3.8-3.2,3.8H237.4z M236.3,70h3c2.2,0,4.3-1.2,4.3-4.9c0-3.4-2.1-4.9-4.2-4.9h-3.1V70z"/>
		<path id="Path_00000154426012034005398080000016037404567598272946_" class="st0" d="M249.1,70h1.2v-4.2h4.4v-1h-4.4v-3.5h4.7
			v-1.1h-5.9V70z"/>
		<path id="Shape_00000007405428383588963640000005474596105752553909_" class="st0" d="M260.7,69.1c-1.7,0-2.9-1.3-2.9-4.1
			c0-2.7,1.4-3.9,2.9-3.9c1.5,0,2.9,1.3,2.9,4C263.5,67.9,262.3,69.1,260.7,69.1z M260.7,70.2c2.1,0,4.1-1.4,4.1-5.1
			c0-3.4-2-5.1-4.1-5.1c-2.1,0-4.2,1.7-4.2,5C256.5,68.8,258.5,70.2,260.7,70.2z"/>
		<path id="Shape_00000033347963360228066160000013622086666375971007_" class="st0" d="M266.9,70h1.2v-4h2.2l2.1,4h1.3l-2.2-4.1
			c1.4-0.3,2.4-1.2,2.4-2.8c0-2-1.3-2.9-3.3-2.9h-3.8V70z M268,65v-3.7h2.5c1.3,0,2.2,0.5,2.2,1.8s-1,1.8-2.2,1.8H268z"/>
		<path id="Shape_00000119087260519854985910000017728148962530237066_" class="st0" d="M276.1,62.8h1.4v1.5h-1.4V62.8z M276.1,68.5
			h1.4V70h-1.4V68.5z"/>
		<path id="Path_00000167396644249728778620000001782190755576856476_" class="st0" d="M285.3,70h1.1v-8.7h3v-1.1h-7.2v1.1h3V70z"/>
		<path id="Path_00000133499163953567866300000005000043567814324117_" class="st0" d="M291.2,70h1.2v-4.6h4.4V70h1.1v-9.8h-1.1v4.2
			h-4.4v-4.2h-1.2V70z"/>
		<path id="Path_00000070091624019842894640000017608640013366202287_" class="st0" d="M300.5,70h5.9v-1.1h-4.7v-3.5h4.3v-1h-4.3
			v-3.2h4.7v-1.1h-5.9V70z"/>
		<path id="Path_00000036226653258870257210000006198748114664607877_" class="st0" d="M1,90h1.2v-4.6h4.4V90h1.1v-9.8H6.5v4.2H2.1
			v-4.2H1V90z"/>
		<path id="Path_00000089567731859076957510000004691312216762365097_" class="st0" d="M10.1,86.8c0,2.3,1.3,3.4,3.5,3.4
			s3.5-1.1,3.5-3.4v-6.6h-1.1v6.6c0,1.5-0.8,2.4-2.3,2.4c-1.5,0-2.3-0.8-2.3-2.4v-6.5h-1.2V86.8z"/>
		<path id="Path_00000044859746914006373430000007537205700089153438_" class="st0" d="M19.5,90h1.1v-8.2h0l3.4,8.2h0.4l3.4-8.2h0
			V90H29v-9.8h-1.6l-3.1,7.5h0l-3.1-7.5h-1.6V90z"/>
		<path id="Shape_00000157988286564021563700000016218171923185331875_" class="st0" d="M30.6,90h1.2l0.7-1.9h4.4l0.7,1.9h1.2
			l-3.5-9.8h-1.1L30.6,90z M32.8,87.1l1.8-5.3h0l1.8,5.3H32.8z"/>
		<path id="Path_00000022554858488091678050000008575368773570031489_" class="st0" d="M40.4,90h1.2v-7.9h0l4.5,7.9h1.2v-9.8h-1.1
			v7.9h0l-4.5-7.9h-1.3V90z"/>
		<path id="Shape_00000068648360282345188730000006899071757644163775_" class="st0" d="M53.4,90H57c2.4,0,3.5-1.1,3.5-2.9
			c0-1.3-0.8-2.1-1.6-2.4v0c0.7-0.3,1.2-0.9,1.2-2c0-1.4-1.1-2.5-2.9-2.5h-3.8V90z M54.6,84.4v-3.1H57c1.2,0,1.9,0.5,1.9,1.5
			c0,1-0.6,1.5-1.9,1.5H54.6z M54.6,88.9v-3.6h2.2c1.6,0,2.4,0.4,2.4,1.7c0,1.3-0.9,1.8-2.5,1.8H54.6z"/>
		<path id="Path_00000059278812902608854530000016988190338613191612_" class="st0" d="M62.5,90h5.9v-1.1h-4.7v-3.5H68v-1h-4.3v-3.2
			h4.7v-1.1h-5.9V90z"/>
		<path id="Path_00000076601736912409581300000000959774870877389233_" class="st0" d="M70.7,90h1.2v-4.6h4.4V90h1.1v-9.8h-1.1v4.2
			h-4.4v-4.2h-1.2V90z"/>
		<path id="Path_00000179646336012753899190000014831869144380160692_" class="st0" d="M80.2,90h1.2v-9.8h-1.2V90z"/>
		<path id="Path_00000155837105648028634970000000032337704845819272_" class="st0" d="M84,90h1.2v-7.9h0l4.5,7.9h1.2v-9.8h-1.1v7.9
			h0l-4.5-7.9H84V90z"/>
		<path id="Shape_00000101082537796328272680000008643029082582386830_" class="st0" d="M94.8,88.9v-7.7h1.8c1.9,0,3.1,1.3,3.1,3.8
			c0,2.8-1.2,3.8-3.2,3.8H94.8z M93.6,90h3c2.2,0,4.3-1.2,4.3-4.9c0-3.4-2.1-4.9-4.2-4.9h-3.1V90z"/>
		<path id="Path_00000108277181243936430080000003862403770406848415_" class="st0" d="M108.5,90h1.1v-8.7h3v-1.1h-7.2v1.1h3V90z"/>
		<path id="Path_00000139292003158132859880000009972587892078465720_" class="st0" d="M114.4,90h1.2v-4.6h4.4V90h1.1v-9.8h-1.1v4.2
			h-4.4v-4.2h-1.2V90z"/>
		<path id="Path_00000059310552052644821060000001314341194393978537_" class="st0" d="M123.7,90h5.9v-1.1h-4.7v-3.5h4.3v-1h-4.3
			v-3.2h4.7v-1.1h-5.9V90z"/>
		<path id="Shape_00000154420740034990197840000009941090114457960378_" class="st0" d="M135.4,90h1.2v-3.8h2.6c1.9,0,3.2-1.1,3.2-3
			c0-2-1.4-3-3.3-3h-3.8V90z M136.6,85.2v-3.9h2.5c1.1,0,2.2,0.5,2.2,2c0,1.3-1,1.9-2.1,1.9H136.6z"/>
		<path id="Shape_00000104700435524113729170000004177612957766635183_" class="st0" d="M144.1,90h1.2v-4h2.2l2.1,4h1.3l-2.2-4.1
			c1.4-0.3,2.4-1.2,2.4-2.8c0-2-1.3-2.9-3.3-2.9h-3.8V90z M145.2,85v-3.7h2.5c1.3,0,2.2,0.5,2.2,1.8s-1,1.8-2.2,1.8H145.2z"/>
		<path id="Shape_00000078044279256706144660000011479255856984902308_" class="st0" d="M156.7,89.1c-1.7,0-2.9-1.3-2.9-4.1
			c0-2.7,1.4-3.9,2.9-3.9c1.5,0,2.9,1.3,2.9,4C159.5,87.9,158.3,89.1,156.7,89.1z M156.7,90.2c2.1,0,4.1-1.4,4.1-5.1
			c0-3.4-2-5.1-4.1-5.1c-2.1,0-4.2,1.7-4.2,5C152.5,88.8,154.5,90.2,156.7,90.2z"/>
		<path id="Shape_00000102515801182589637470000012053055289783283646_" class="st0" d="M164,88.9v-7.7h1.8c1.9,0,3.1,1.3,3.1,3.8
			c0,2.8-1.2,3.8-3.2,3.8H164z M162.9,90h3c2.2,0,4.3-1.2,4.3-4.9c0-3.4-2.1-4.9-4.2-4.9h-3.1V90z"/>
		<path id="Path_00000131337758933888835200000013265031358665157510_" class="st0" d="M172,86.8c0,2.3,1.3,3.4,3.5,3.4
			s3.5-1.1,3.5-3.4v-6.6h-1.1v6.6c0,1.5-0.8,2.4-2.3,2.4c-1.5,0-2.3-0.8-2.3-2.4v-6.5H172V86.8z"/>
		<path id="Path_00000005236451041212223240000011916895801197203855_" class="st0" d="M185,81.1c1.7,0,2.3,1.2,2.5,2.5l1.2-0.2
			c-0.3-2-1.6-3.4-3.7-3.4c-2.1,0-4.2,1.7-4.2,5c0,3.8,2,5.2,4.2,5.2c2.2,0,3.5-1.4,3.7-3.7l-1.2-0.2c-0.2,1.5-0.7,2.8-2.5,2.8
			c-1.7,0-2.9-1.3-2.9-4.1C182.1,82.3,183.4,81.1,185,81.1z"/>
		<path id="Path_00000094597823364268747980000008942033038219885497_" class="st0" d="M192.8,90h1.1v-8.7h3v-1.1h-7.2v1.1h3V90z"/>
		<path id="Path_00000106831692561210648120000004315148091146415233_" class="st0" d="M198.6,90h1.7v-1.7h-1.7V90z"/>
		<path id="Shape_00000093895057830138944260000013368735840573850244_" class="st0" d="M205.4,90h1.2l0.7-1.9h4.4l0.7,1.9h1.2
			l-3.5-9.8h-1.1L205.4,90z M207.6,87.1l1.8-5.3h0l1.8,5.3H207.6z"/>
		<path id="Path_00000076576786682973213070000003815154572584638648_" class="st0" d="M214.6,86.6c0.3,2.3,1.6,3.6,3.9,3.6
			c2.2,0,3.4-1.3,3.4-2.8c0-1.5-0.6-2.2-3.3-3c-2.1-0.7-2.4-1-2.4-1.8c0-0.8,0.6-1.5,1.9-1.5c1.5,0,2,0.8,2.2,1.8l1.2-0.3
			c-0.3-1.8-1.7-2.7-3.4-2.7c-2,0-3.1,1.2-3.1,2.6c0,1.4,0.9,2.1,3,2.8c2.4,0.8,2.7,1.2,2.7,2.1c0,0.9-0.7,1.7-2.2,1.7
			c-1.9,0-2.5-0.9-2.8-2.7L214.6,86.6z"/>
		<path id="Shape_00000105388276899082729320000014808037099089889421_" class="st0" d="M228.5,88.9v-7.7h1.8c1.9,0,3.1,1.3,3.1,3.8
			c0,2.8-1.2,3.8-3.2,3.8H228.5z M227.3,90h3c2.2,0,4.3-1.2,4.3-4.9c0-3.4-2.1-4.9-4.2-4.9h-3.1V90z"/>
		<path id="Path_00000147940141576643749040000003602907048436988297_" class="st0" d="M236.7,90h1.2v-9.8h-1.2V90z"/>
		<path id="Shape_00000147920028044145308980000003411783842910896799_" class="st0" d="M240.6,90h1.2v-4h2.2l2.1,4h1.3l-2.2-4.1
			c1.4-0.3,2.4-1.2,2.4-2.8c0-2-1.3-2.9-3.3-2.9h-3.8V90z M241.8,85v-3.7h2.5c1.3,0,2.2,0.5,2.2,1.8s-1,1.8-2.2,1.8H241.8z"/>
		<path id="Path_00000118378356477322397240000014425951973456423330_" class="st0" d="M249.6,90h5.9v-1.1h-4.7v-3.5h4.3v-1h-4.3
			v-3.2h4.7v-1.1h-5.9V90z"/>
		<path id="Path_00000073695949406260006550000003341668754131848596_" class="st0" d="M261.4,81.1c1.7,0,2.3,1.2,2.5,2.5l1.2-0.2
			c-0.3-2-1.6-3.4-3.7-3.4c-2.1,0-4.2,1.7-4.2,5c0,3.8,2,5.2,4.2,5.2c2.2,0,3.5-1.4,3.7-3.7l-1.2-0.2c-0.2,1.5-0.7,2.8-2.5,2.8
			c-1.7,0-2.9-1.3-2.9-4.1C258.5,82.3,259.9,81.1,261.4,81.1z"/>
		<path id="Path_00000040577231125154364260000009346252402549084588_" class="st0" d="M269.2,90h1.1v-8.7h3v-1.1h-7.2v1.1h3V90z"/>
		<path id="Shape_00000002375507421799135060000017165042928292317827_" class="st0" d="M278.7,89.1c-1.7,0-2.9-1.3-2.9-4.1
			c0-2.7,1.4-3.9,2.9-3.9c1.5,0,2.9,1.3,2.9,4C281.5,87.9,280.3,89.1,278.7,89.1z M278.7,90.2c2.1,0,4.1-1.4,4.1-5.1
			c0-3.4-2-5.1-4.1-5.1c-2.1,0-4.2,1.7-4.2,5C274.5,88.8,276.6,90.2,278.7,90.2z"/>
		<path id="Shape_00000104694202262882620770000006717116567899690386_" class="st0" d="M284.9,90h1.2v-4h2.2l2.1,4h1.3l-2.2-4.1
			c1.4-0.3,2.4-1.2,2.4-2.8c0-2-1.3-2.9-3.3-2.9h-3.8V90z M286,85v-3.7h2.5c1.3,0,2.2,0.5,2.2,1.8s-1,1.8-2.2,1.8H286z"/>
		<path id="Path_00000087413866843274047940000012800998918983535806_" class="st0" d="M4.6,101.1c1.7,0,2.3,1.2,2.5,2.5l1.2-0.2
			c-0.3-2-1.6-3.4-3.7-3.4c-2.1,0-4.2,1.7-4.2,5c0,3.8,2,5.2,4.2,5.2c2.2,0,3.5-1.4,3.7-3.7l-1.2-0.2c-0.2,1.5-0.7,2.8-2.5,2.8
			c-1.7,0-2.9-1.3-2.9-4.1C1.7,102.3,3,101.1,4.6,101.1z"/>
		<path id="Shape_00000029026169269398337370000000683658117594686106_" class="st0" d="M13.9,109.1c-1.7,0-2.9-1.3-2.9-4.1
			c0-2.7,1.4-3.9,2.9-3.9c1.5,0,2.9,1.3,2.9,4C16.8,107.9,15.5,109.1,13.9,109.1z M13.9,110.2c2.1,0,4.1-1.4,4.1-5.1
			c0-3.4-2-5.1-4.1-5.1c-2.1,0-4.2,1.7-4.2,5C9.8,108.8,11.8,110.2,13.9,110.2z"/>
		<path id="Path_00000103951491825918946210000002972821663389122234_" class="st0" d="M20.1,110h1.2v-7.9h0l4.5,7.9H27v-9.8h-1.1
			v7.9h0l-4.5-7.9h-1.3V110z"/>
		<path id="Path_00000023258671020460865600000006613766605949530009_" class="st0" d="M31.7,110h1.1v-8.7h3v-1.1h-7.2v1.1h3V110z"
			/>
		<path id="Path_00000137850368510775773500000001829371725922745775_" class="st0" d="M37.6,110h5.9v-1.1h-4.7v-3.5h4.3v-1h-4.3
			v-3.2h4.7v-1.1h-5.9V110z"/>
		<path id="Path_00000049199213532803257390000010092724730732684930_" class="st0" d="M45.8,110H47v-7.9h0l4.5,7.9h1.2v-9.8h-1.1
			v7.9h0l-4.5-7.9h-1.3V110z"/>
		<path id="Path_00000139976891822090509040000003668900507447517068_" class="st0" d="M57.4,110h1.1v-8.7h3v-1.1h-7.2v1.1h3V110z"
			/>
		<path id="Path_00000028326060745429963000000003377456269142194596_" class="st0" d="M66.8,110h1.2v-4.6h4.4v4.6h1.1v-9.8h-1.1
			v4.2h-4.4v-4.2h-1.2V110z"/>
		<path id="Path_00000120527959929484608500000015255831067321773449_" class="st0" d="M76.1,110H82v-1.1h-4.7v-3.5h4.3v-1h-4.3
			v-3.2H82v-1.1h-5.9V110z"/>
		<path id="Path_00000158706944226647732130000017340091970451651235_" class="st0" d="M87.9,110h1.2v-9.8h-1.2V110z"/>
		<path id="Path_00000025441542398222014950000011439924738460203421_" class="st0" d="M91.2,106.6c0.3,2.3,1.6,3.6,3.9,3.6
			c2.2,0,3.4-1.3,3.4-2.8c0-1.5-0.6-2.2-3.3-3c-2.1-0.7-2.4-1-2.4-1.8c0-0.8,0.6-1.5,1.9-1.5c1.5,0,2,0.8,2.2,1.8l1.2-0.3
			c-0.3-1.8-1.7-2.7-3.4-2.7c-2,0-3.1,1.2-3.1,2.6c0,1.4,0.9,2.1,3,2.8c2.4,0.8,2.7,1.2,2.7,2.1c0,0.9-0.7,1.7-2.2,1.7
			c-1.9,0-2.5-0.9-2.8-2.7L91.2,106.6z"/>
		<path id="Path_00000113335894737278520280000004375107390735691912_" class="st0" d="M106,110h1.1v-8.7h3v-1.1h-7.2v1.1h3V110z"/>
		<path id="Shape_00000002355580378220150370000000873980284208737430_" class="st0" d="M110.8,110h1.2l0.7-1.9h4.4l0.7,1.9h1.2
			l-3.5-9.8h-1.1L110.8,110z M113,107.1l1.8-5.3h0l1.8,5.3H113z"/>
		<path id="Path_00000163794684458607575230000017572215752808162449_" class="st0" d="M120.4,110h1.2v-3.4l1.1-1.3h0l3.3,4.6h1.4
			l-4-5.5l3.6-4.3h-1.5l-4,4.8h0v-4.8h-1.2V110z"/>
		<path id="Path_00000027576492302855539810000015596242604499439798_" class="st0" d="M128.9,110h1.2v-9.8h-1.2V110z"/>
		<path id="Path_00000128483576402196542910000014028585045514642334_" class="st0" d="M132.8,110h1.2v-7.9h0l4.5,7.9h1.2v-9.8h-1.1
			v7.9h0l-4.5-7.9h-1.3V110z"/>
		<path id="Path_00000051364187056043531560000005123234430543939226_" class="st0" d="M145.9,110.2c2.2,0,3.8-1.5,3.8-4.1v-1h-3.6
			v1.1h2.5c0,1.8-1,2.9-2.6,2.9c-1.6,0-2.9-1.3-2.9-4.1c0-2.7,1.4-3.9,2.9-3.9c1.6,0,2.2,1.1,2.5,2.3l1.2-0.2
			c-0.3-1.9-1.7-3.2-3.7-3.2c-2.1,0-4.1,1.7-4.1,5C141.8,108.8,143.8,110.2,145.9,110.2z"/>
		<path id="Path_00000053529309512136495700000006241116062509576376_" class="st0" d="M158.9,101.1c1.7,0,2.3,1.2,2.5,2.5l1.2-0.2
			c-0.3-2-1.6-3.4-3.7-3.4c-2.1,0-4.2,1.7-4.2,5c0,3.8,2,5.2,4.2,5.2c2.2,0,3.5-1.4,3.7-3.7l-1.2-0.2c-0.2,1.5-0.7,2.8-2.5,2.8
			c-1.7,0-2.9-1.3-2.9-4.1C156,102.3,157.3,101.1,158.9,101.1z"/>
		<path id="Shape_00000142140648126576033880000010339680644776248462_" class="st0" d="M163.6,110h1.2l0.7-1.9h4.4l0.7,1.9h1.2
			l-3.5-9.8h-1.1L163.6,110z M165.8,107.1l1.8-5.3h0l1.8,5.3H165.8z"/>
		<path id="Shape_00000019658036252442666360000017926448881235768452_" class="st0" d="M173.4,110h1.2v-4h2.2l2.1,4h1.3l-2.2-4.1
			c1.4-0.3,2.4-1.2,2.4-2.8c0-2-1.3-2.9-3.3-2.9h-3.8V110z M174.5,105v-3.7h2.5c1.3,0,2.2,0.5,2.2,1.8s-1,1.8-2.2,1.8H174.5z"/>
		<path id="Path_00000128484593220678960490000005570861110808741536_" class="st0" d="M182.4,110h5.9v-1.1h-4.7v-3.5h4.3v-1h-4.3
			v-3.2h4.7v-1.1h-5.9V110z"/>
		<path id="Shape_00000178197737561627979620000014634241012934276527_" class="st0" d="M197.7,109.1c-1.7,0-2.9-1.3-2.9-4.1
			c0-2.7,1.4-3.9,2.9-3.9c1.5,0,2.9,1.3,2.9,4C200.6,107.9,199.3,109.1,197.7,109.1z M197.7,110.2c2.1,0,4.1-1.4,4.1-5.1
			c0-3.4-2-5.1-4.1-5.1c-2.1,0-4.2,1.7-4.2,5C193.5,108.8,195.6,110.2,197.7,110.2z"/>
		<path id="Path_00000070812066717210635170000000601058727492828855_" class="st0" d="M203.9,110h1.2v-4.2h4.4v-1H205v-3.5h4.7
			v-1.1h-5.9V110z"/>
		<path id="Path_00000111894834982929353920000003819897624815784328_" class="st0" d="M218.9,101.1c1.7,0,2.3,1.2,2.5,2.5l1.2-0.2
			c-0.3-2-1.6-3.4-3.7-3.4c-2.1,0-4.2,1.7-4.2,5c0,3.8,2,5.2,4.2,5.2c2.2,0,3.5-1.4,3.7-3.7l-1.2-0.2c-0.2,1.5-0.7,2.8-2.5,2.8
			c-1.7,0-2.9-1.3-2.9-4.1C216,102.3,217.4,101.1,218.9,101.1z"/>
		<path id="Shape_00000122694651905622309450000007915650195946982033_" class="st0" d="M228.3,109.1c-1.7,0-2.9-1.3-2.9-4.1
			c0-2.7,1.4-3.9,2.9-3.9c1.5,0,2.9,1.3,2.9,4C231.1,107.9,229.9,109.1,228.3,109.1z M228.3,110.2c2.1,0,4.1-1.4,4.1-5.1
			c0-3.4-2-5.1-4.1-5.1c-2.1,0-4.2,1.7-4.2,5C224.1,108.8,226.1,110.2,228.3,110.2z"/>
		<path id="Path_00000059298248277002347400000008461351837010157976_" class="st0" d="M234.5,110h1.2v-7.9h0l4.5,7.9h1.2v-9.8h-1.1
			v7.9h0l-4.5-7.9h-1.3V110z"/>
		<path id="Path_00000054228941685799634440000018368328797047029127_" class="st0" d="M246.1,110h1.1v-8.7h3v-1.1H243v1.1h3V110z"
			/>
		<path id="Path_00000129901430278257277400000007512503796753640581_" class="st0" d="M251.9,110h5.9v-1.1h-4.7v-3.5h4.3v-1h-4.3
			v-3.2h4.7v-1.1h-5.9V110z"/>
		<path id="Path_00000065789228537045105830000017742474184160134335_" class="st0" d="M260.1,110h1.2v-7.9h0l4.5,7.9h1.2v-9.8h-1.1
			v7.9h0l-4.5-7.9h-1.3V110z"/>
		<path id="Path_00000139293635822401452190000001798166094448018305_" class="st0" d="M271.8,110h1.1v-8.7h3v-1.1h-7.2v1.1h3V110z"
			/>
		<path id="Path_00000137823382390789198520000010585000081805829289_" class="st0" d="M0.4,126.6c0.3,2.3,1.6,3.6,3.9,3.6
			c2.2,0,3.4-1.3,3.4-2.8c0-1.5-0.6-2.2-3.3-3c-2.1-0.7-2.4-1-2.4-1.8c0-0.8,0.6-1.5,1.9-1.5c1.5,0,2,0.8,2.2,1.8l1.2-0.3
			C7,120.9,5.6,120,3.9,120c-2,0-3.1,1.2-3.1,2.6c0,1.4,0.9,2.1,3,2.8c2.4,0.8,2.7,1.2,2.7,2.1c0,0.9-0.7,1.7-2.2,1.7
			c-1.9,0-2.5-0.9-2.8-2.7L0.4,126.6z"/>
		<path id="Path_00000004518801180549624680000004846189662805093311_" class="st0" d="M11.6,130h1.1v-8.7h3v-1.1H8.6v1.1h3V130z"/>
		<path id="Shape_00000182517991287049392170000001593766136090908045_" class="st0" d="M17.5,130h1.2v-4h2.2l2.1,4h1.3l-2.2-4.1
			c1.4-0.3,2.4-1.2,2.4-2.8c0-2-1.3-2.9-3.3-2.9h-3.8V130z M18.7,125v-3.7h2.5c1.3,0,2.2,0.5,2.2,1.8s-1,1.8-2.2,1.8H18.7z"/>
		<path id="Shape_00000108291581002454992300000005414367925747207866_" class="st0" d="M25.5,130h1.2l0.7-1.9h4.4l0.7,1.9h1.2
			l-3.5-9.8H29L25.5,130z M27.7,127.1l1.8-5.3h0l1.8,5.3H27.7z"/>
		<path id="Path_00000014597574010791214830000003260070562790577544_" class="st0" d="M37.3,130h1.1v-8.7h3v-1.1h-7.2v1.1h3V130z"
			/>
		<path id="Path_00000157282333058568284340000009413461614279222157_" class="st0" d="M43.2,130h5.9v-1.1h-4.7v-3.5h4.3v-1h-4.3
			v-3.2h4.7v-1.1h-5.9V130z"/>
		<path id="Path_00000121240076173677775270000004010679178125154189_" class="st0" d="M55,130.2c2.2,0,3.8-1.5,3.8-4.1v-1h-3.6v1.1
			h2.5c0,1.8-1,2.9-2.6,2.9c-1.6,0-2.9-1.3-2.9-4.1c0-2.7,1.4-3.9,2.9-3.9c1.6,0,2.2,1.1,2.5,2.3l1.2-0.2c-0.3-1.9-1.7-3.2-3.7-3.2
			c-2.1,0-4.1,1.7-4.1,5C50.8,128.8,52.8,130.2,55,130.2z"/>
		<path id="Path_00000047061923309144500890000007745920776306500495_" class="st0" d="M62.9,130H64v-4.1l3.2-5.7H66l-2.5,4.6h0
			l-2.5-4.6h-1.3l3.2,5.7V130z"/>
		<path id="Shape_00000092438887583514752800000002561212527325034903_" class="st0" d="M75.9,129.1c-1.7,0-2.9-1.3-2.9-4.1
			c0-2.7,1.4-3.9,2.9-3.9c1.5,0,2.9,1.3,2.9,4C78.8,127.9,77.5,129.1,75.9,129.1z M75.9,130.2c2.1,0,4.1-1.4,4.1-5.1
			c0-3.4-2-5.1-4.1-5.1c-2.1,0-4.2,1.7-4.2,5C71.8,128.8,73.8,130.2,75.9,130.2z"/>
		<path id="Path_00000106831502922500937600000002624467537708482190_" class="st0" d="M82.1,130h1.2v-7.9h0l4.5,7.9H89v-9.8h-1.1
			v7.9h0l-4.5-7.9h-1.3V130z"/>
		<path id="Shape_00000000917648626119316350000004542119693868077189_" class="st0" d="M94.1,130h1.2l0.7-1.9h4.4l0.7,1.9h1.2
			l-3.5-9.8h-1.1L94.1,130z M96.4,127.1l1.8-5.3h0l1.8,5.3H96.4z"/>
		<path id="Path_00000180366965796895029910000004760210678860375982_" class="st0" d="M111,130.2c2.2,0,3.8-1.5,3.8-4.1v-1h-3.6
			v1.1h2.5c0,1.8-1,2.9-2.6,2.9c-1.6,0-2.9-1.3-2.9-4.1c0-2.7,1.4-3.9,2.9-3.9c1.6,0,2.2,1.1,2.5,2.3l1.2-0.2
			c-0.3-1.9-1.7-3.2-3.7-3.2c-2.1,0-4.1,1.7-4.1,5C106.9,128.8,108.8,130.2,111,130.2z"/>
		<path id="Path_00000029016105748118490350000016167777592990733451_" class="st0" d="M116.9,130h5.4v-1.1H118v-8.7h-1.2V130z"/>
		<path id="Shape_00000082347837900900713160000012610573001402000005_" class="st0" d="M127.6,129.1c-1.7,0-2.9-1.3-2.9-4.1
			c0-2.7,1.4-3.9,2.9-3.9c1.5,0,2.9,1.3,2.9,4C130.5,127.9,129.2,129.1,127.6,129.1z M127.6,130.2c2.1,0,4.1-1.4,4.1-5.1
			c0-3.4-2-5.1-4.1-5.1c-2.1,0-4.2,1.7-4.2,5C123.5,128.8,125.5,130.2,127.6,130.2z"/>
		<path id="Shape_00000054947381414067610050000002483860848087829414_" class="st0" d="M133.8,130h3.5c2.4,0,3.5-1.1,3.5-2.9
			c0-1.3-0.8-2.1-1.6-2.4v0c0.7-0.3,1.2-0.9,1.2-2c0-1.4-1.1-2.5-2.9-2.5h-3.8V130z M135,124.4v-3.1h2.4c1.2,0,1.9,0.5,1.9,1.5
			c0,1-0.6,1.5-1.9,1.5H135z M135,128.9v-3.6h2.2c1.6,0,2.4,0.4,2.4,1.7c0,1.3-0.9,1.8-2.5,1.8H135z"/>
		<path id="Shape_00000000903201829807234490000005100667776337903014_" class="st0" d="M141.9,130h1.2l0.7-1.9h4.4l0.7,1.9h1.2
			l-3.5-9.8h-1.1L141.9,130z M144.1,127.1l1.8-5.3h0l1.8,5.3H144.1z"/>
		<path id="Path_00000058547206988201389160000004618114602458910613_" class="st0" d="M151.7,130h5.4v-1.1h-4.3v-8.7h-1.2V130z"/>
		<path id="Path_00000021108176819079307460000007659971217202304400_" class="st0" d="M161.7,126.6c0.3,2.3,1.6,3.6,3.9,3.6
			c2.2,0,3.4-1.3,3.4-2.8c0-1.5-0.6-2.2-3.3-3c-2.1-0.7-2.4-1-2.4-1.8c0-0.8,0.6-1.5,1.9-1.5c1.5,0,2,0.8,2.2,1.8l1.2-0.3
			c-0.3-1.8-1.7-2.7-3.4-2.7c-2,0-3.1,1.2-3.1,2.6c0,1.4,0.9,2.1,3,2.8c2.4,0.8,2.7,1.2,2.7,2.1c0,0.9-0.7,1.7-2.2,1.7
			c-1.9,0-2.5-0.9-2.8-2.7L161.7,126.6z"/>
		<path id="Path_00000049916291373239961260000002537371148579948969_" class="st0" d="M174.5,121.1c1.7,0,2.3,1.2,2.5,2.5l1.2-0.2
			c-0.3-2-1.6-3.4-3.7-3.4c-2.1,0-4.2,1.7-4.2,5c0,3.8,2,5.2,4.2,5.2c2.2,0,3.5-1.4,3.7-3.7l-1.2-0.2c-0.2,1.5-0.7,2.8-2.5,2.8
			c-1.7,0-2.9-1.3-2.9-4.1C171.6,122.3,173,121.1,174.5,121.1z"/>
		<path id="Shape_00000000935326812388244110000014391487880635657881_" class="st0" d="M179.2,130h1.2l0.7-1.9h4.4l0.7,1.9h1.2
			l-3.5-9.8h-1.1L179.2,130z M181.5,127.1l1.8-5.3h0l1.8,5.3H181.5z"/>
		<path id="Path_00000165206528815001182500000000343226921550454408_" class="st0" d="M189,130h5.4v-1.1h-4.3v-8.7H189V130z"/>
		<path id="Path_00000075155259516505033230000003737991665621317567_" class="st0" d="M196.2,130h5.9v-1.1h-4.7v-3.5h4.3v-1h-4.3
			v-3.2h4.7v-1.1h-5.9V130z"/>
		<path id="Path_00000026162927064076423180000003169029434333456025_" class="st0" d="M204.4,130h1.7v-1.7h-1.7V130z"/>
		<path id="Shape_00000181080868108452016470000013019158127503921046_" class="st0" d="M212.2,130h3.5c2.4,0,3.5-1.1,3.5-2.9
			c0-1.3-0.8-2.1-1.6-2.4v0c0.7-0.3,1.2-0.9,1.2-2c0-1.4-1.1-2.5-2.9-2.5h-3.8V130z M213.4,124.4v-3.1h2.4c1.2,0,1.9,0.5,1.9,1.5
			c0,1-0.6,1.5-1.9,1.5H213.4z M213.4,128.9v-3.6h2.2c1.6,0,2.4,0.4,2.4,1.7c0,1.3-0.9,1.8-2.5,1.8H213.4z"/>
		<path id="Path_00000011713946202078953200000015944112418515624837_" class="st0" d="M221.3,130h5.9v-1.1h-4.7v-3.5h4.3v-1h-4.3
			v-3.2h4.7v-1.1h-5.9V130z"/>
		<path id="Path_00000149372765667289130560000009841812861160438971_" class="st0" d="M229.6,130h1.2v-9.8h-1.2V130z"/>
		<path id="Path_00000054260515661371038350000018107200199449082240_" class="st0" d="M233.5,130h1.2v-7.9h0l4.5,7.9h1.2v-9.8h-1.1
			v7.9h0l-4.5-7.9h-1.3V130z"/>
		<path id="Path_00000151525916102684069860000015306794411697080748_" class="st0" d="M246.6,130.2c2.2,0,3.8-1.5,3.8-4.1v-1h-3.6
			v1.1h2.5c0,1.8-1,2.9-2.6,2.9c-1.6,0-2.9-1.3-2.9-4.1c0-2.7,1.4-3.9,2.9-3.9c1.6,0,2.2,1.1,2.5,2.3l1.2-0.2
			c-0.3-1.9-1.7-3.2-3.7-3.2c-2.1,0-4.1,1.7-4.1,5C242.5,128.8,244.5,130.2,246.6,130.2z"/>
		<path id="Path_00000037663811692461105010000014945571408132601997_" class="st0" d="M258,130h1.1v-8.7h3v-1.1H255v1.1h3V130z"/>
		<path id="Path_00000087371894828399198020000005607210934894353793_" class="st0" d="M263.9,130h1.2v-4.5h4.4v4.5h1.1v-9.8h-1.1
			v4.2H265v-4.2h-1.2V130z"/>
		<path id="Path_00000029728968973406764050000009214798700237011862_" class="st0" d="M273.2,130h5.9v-1.1h-4.7v-3.5h4.3v-1h-4.3
			v-3.2h4.7v-1.1h-5.9V130z"/>
		<path id="Path_00000154412452024160825080000005768633233801144448_" class="st0" d="M1,150h1.2v-7.9h0l4.5,7.9h1.2v-9.8H6.7v7.9
			h0l-4.5-7.9H1V150z"/>
		<path id="Path_00000108997127147175565960000017255167551830006676_" class="st0" d="M10.3,146.8c0,2.3,1.3,3.4,3.5,3.4
			s3.5-1.1,3.5-3.4v-6.6h-1.1v6.6c0,1.5-0.8,2.4-2.3,2.4c-1.5,0-2.3-0.8-2.3-2.4v-6.5h-1.2V146.8z"/>
		<path id="Path_00000085971111514890525260000004801581380044001711_" class="st0" d="M19.7,150h1.1v-8.2h0l3.4,8.2h0.4l3.4-8.2h0
			v8.2h1.1v-9.8h-1.6l-3.1,7.5h0l-3.1-7.5h-1.6V150z"/>
		<path id="Shape_00000110466137118620132580000016873745603189088444_" class="st0" d="M31.8,150h3.5c2.4,0,3.5-1.1,3.5-2.9
			c0-1.3-0.8-2.1-1.6-2.4v0c0.7-0.3,1.2-0.9,1.2-2c0-1.4-1.1-2.5-2.9-2.5h-3.8V150z M33,144.4v-3.1h2.4c1.2,0,1.9,0.5,1.9,1.5
			c0,1-0.6,1.5-1.9,1.5H33z M33,148.9v-3.6h2.2c1.6,0,2.4,0.4,2.4,1.7c0,1.3-0.9,1.8-2.5,1.8H33z"/>
		<path id="Path_00000116220499020896874660000008278964843693521583_" class="st0" d="M40.9,150h5.9v-1.1h-4.7v-3.5h4.3v-1h-4.3
			v-3.2h4.7v-1.1h-5.9V150z"/>
		<path id="Shape_00000162313199350135095950000008556934908028075708_" class="st0" d="M49.1,150h1.2v-4h2.2l2.1,4h1.3l-2.2-4.1
			c1.4-0.3,2.4-1.2,2.4-2.8c0-2-1.3-2.9-3.3-2.9h-3.8V150z M50.3,145v-3.7h2.5c1.3,0,2.2,0.5,2.2,1.8s-1,1.8-2.2,1.8H50.3z"/>
		<path id="Path_00000032650732777836396060000003612101580556398757_" class="st0" d="M57.5,146.6c0.3,2.3,1.6,3.6,3.9,3.6
			c2.2,0,3.4-1.3,3.4-2.8c0-1.5-0.6-2.2-3.3-3c-2.1-0.7-2.4-1.1-2.4-1.8c0-0.8,0.6-1.5,1.9-1.5c1.5,0,2,0.8,2.2,1.8l1.2-0.3
			c-0.3-1.8-1.7-2.7-3.4-2.7c-2,0-3.1,1.2-3.1,2.6c0,1.4,0.9,2.1,3,2.8c2.4,0.8,2.7,1.2,2.7,2.1c0,0.9-0.7,1.7-2.2,1.7
			c-1.9,0-2.5-0.9-2.8-2.7L57.5,146.6z"/>
		<path id="Path_00000168820538675586661760000014237751485660635283_" class="st0" d="M73.8,150.2c2.2,0,3.8-1.5,3.8-4.1v-1h-3.6
			v1.1h2.5c0,1.8-1,2.9-2.6,2.9c-1.6,0-2.9-1.3-2.9-4.1c0-2.7,1.4-3.9,2.9-3.9c1.6,0,2.2,1.1,2.5,2.3l1.2-0.2
			c-0.3-1.9-1.7-3.2-3.7-3.2c-2.1,0-4.1,1.7-4.1,5C69.7,148.8,71.7,150.2,73.8,150.2z"/>
		<path id="Path_00000092421817864307015660000007643322386293543099_" class="st0" d="M79.5,146.8c0,2.3,1.3,3.4,3.5,3.4
			c2.2,0,3.5-1.1,3.5-3.4v-6.6h-1.1v6.6c0,1.5-0.8,2.4-2.3,2.4c-1.5,0-2.3-0.8-2.3-2.4v-6.5h-1.2V146.8z"/>
		<path id="Path_00000129174044347714973640000017666503383456111236_" class="st0" d="M91,150h1.1v-4.1l3.2-5.7h-1.3l-2.5,4.5h0
			l-2.5-4.5h-1.3l3.2,5.7V150z"/>
		<path id="Path_00000118393104825368129110000013131304374030318469_" class="st0" d="M102.4,150h1.1v-8.7h3v-1.1h-7.2v1.1h3V150z"
			/>
		<path id="Path_00000088102291799537733690000008295543153976727703_" class="st0" d="M108.3,150h1.2v-4.5h4.4v4.5h1.1v-9.8h-1.1
			v4.2h-4.4v-4.2h-1.2V150z"/>
		<path id="Shape_00000071555784136920093710000005829038153216714631_" class="st0" d="M116.6,150h1.2l0.7-1.9h4.4l0.7,1.9h1.2
			l-3.5-9.8h-1.1L116.6,150z M118.8,147.1l1.8-5.3h0l1.8,5.3H118.8z"/>
		<path id="Path_00000075145282023577926810000016592631000608480640_" class="st0" d="M128.4,150h1.1v-8.7h3v-1.1h-7.2v1.1h3V150z"
			/>
		<path id="Path_00000072265382224470779340000002698145922234616455_" class="st0" d="M137.8,150h1.2v-4.5h4.4v4.5h1.1v-9.8h-1.1
			v4.2H139v-4.2h-1.2V150z"/>
		<path id="Path_00000094576132933642654380000015371254372875459511_" class="st0" d="M147.2,150h5.9v-1.1h-4.7v-3.5h4.3v-1h-4.3
			v-3.2h4.7v-1.1h-5.9V150z"/>
		<path id="Path_00000098926200534238973200000000077564047404785323_" class="st0" d="M158.9,150h1.2v-9.8h-1.2V150z"/>
		<path id="Path_00000042737883358373154210000017453680213456329122_" class="st0" d="M162.2,146.6c0.3,2.3,1.6,3.6,3.9,3.6
			c2.2,0,3.4-1.3,3.4-2.8c0-1.5-0.6-2.2-3.3-3c-2.1-0.7-2.4-1.1-2.4-1.8c0-0.8,0.6-1.5,1.9-1.5c1.5,0,2,0.8,2.2,1.8l1.2-0.3
			c-0.3-1.8-1.7-2.7-3.4-2.7c-2,0-3.1,1.2-3.1,2.6c0,1.4,0.9,2.1,3,2.8c2.4,0.8,2.7,1.2,2.7,2.1c0,0.9-0.7,1.7-2.2,1.7
			c-1.9,0-2.5-0.9-2.8-2.7L162.2,146.6z"/>
		<path id="Path_00000043443577831455737160000016365882317905878421_" class="st0" d="M171.4,151.5c1.2-0.1,1.7-0.8,1.7-1.7v-1.4
			h-1.7v1.7h0.7c0,0.4-0.1,0.8-0.7,0.9V151.5z"/>
		<path id="Path_00000038404233549832282420000017723909436905137823_" class="st0" d="M179.2,150h1.2v-4.5h4.4v4.5h1.1v-9.8h-1.1
			v4.2h-4.4v-4.2h-1.2V150z"/>
		<path id="Path_00000056388416936593229100000009262426903750070402_" class="st0" d="M188.6,150h5.9v-1.1h-4.7v-3.5h4.3v-1h-4.3
			v-3.2h4.7v-1.1h-5.9V150z"/>
		<path id="Path_00000025413532977938834290000005272817325633873048_" class="st0" d="M203.9,150.2c2.2,0,3.8-1.5,3.8-4.1v-1H204
			v1.1h2.5c0,1.8-1,2.9-2.6,2.9c-1.6,0-2.9-1.3-2.9-4.1c0-2.7,1.4-3.9,2.9-3.9c1.6,0,2.2,1.1,2.5,2.3l1.2-0.2
			c-0.3-1.9-1.7-3.2-3.7-3.2c-2.1,0-4.1,1.7-4.1,5C199.7,148.8,201.7,150.2,203.9,150.2z"/>
		<path id="Shape_00000030457627139323590370000013850119749432593538_" class="st0" d="M213.3,149.1c-1.7,0-2.9-1.3-2.9-4.1
			c0-2.7,1.4-3.9,2.9-3.9c1.5,0,2.9,1.3,2.9,4C216.2,147.9,214.9,149.1,213.3,149.1z M213.3,150.2c2.1,0,4.1-1.4,4.1-5.1
			c0-3.4-2-5.1-4.1-5.1c-2.1,0-4.2,1.7-4.2,5C209.2,148.8,211.2,150.2,213.3,150.2z"/>
		<path id="Path_00000011750080660090194650000017482094603716512683_" class="st0" d="M221.6,150h1.1v-8.7h3v-1.1h-7.2v1.1h3V150z"
			/>
		<path id="Path_00000072261318889499468400000013318644659227818636_" class="st0" d="M231,150h1.2v-9.8H231V150z"/>
		<path id="Path_00000032628775899444039000000008831730780119999884_" class="st0" d="M234.9,150h1.2v-7.9h0l4.5,7.9h1.2v-9.8h-1.1
			v7.9h0l-4.5-7.9h-1.3V150z"/>
		<path id="Path_00000025406493535528594720000005870232514929063055_" class="st0" d="M246.5,150h1.1v-8.7h3v-1.1h-7.2v1.1h3V150z"
			/>
		<path id="Shape_00000039841424008947689780000003062530845495453830_" class="st0" d="M256,149.1c-1.7,0-2.9-1.3-2.9-4.1
			c0-2.7,1.4-3.9,2.9-3.9c1.5,0,2.9,1.3,2.9,4C258.8,147.9,257.6,149.1,256,149.1z M256,150.2c2.1,0,4.1-1.4,4.1-5.1
			c0-3.4-2-5.1-4.1-5.1c-2.1,0-4.2,1.7-4.2,5C251.8,148.8,253.9,150.2,256,150.2z"/>
		<path id="Path_00000070096004401510000660000016064818897833895858_" class="st0" d="M269.3,141.1c1.7,0,2.3,1.2,2.5,2.5l1.2-0.2
			c-0.3-2-1.6-3.4-3.7-3.4c-2.1,0-4.2,1.7-4.2,5c0,3.8,2,5.2,4.2,5.2c2.2,0,3.5-1.4,3.7-3.7l-1.2-0.2c-0.2,1.5-0.7,2.8-2.5,2.8
			c-1.7,0-2.9-1.3-2.9-4.1C266.4,142.3,267.7,141.1,269.3,141.1z"/>
		<path id="Shape_00000152944799634080085390000010828168460573290383_" class="st0" d="M275,150h1.2v-4h2.2l2.1,4h1.3l-2.2-4.1
			c1.4-0.3,2.4-1.2,2.4-2.8c0-2-1.3-2.9-3.3-2.9H275V150z M276.2,145v-3.7h2.5c1.3,0,2.2,0.5,2.2,1.8s-1,1.8-2.2,1.8H276.2z"/>
		<path id="Path_00000149374775052707122170000011555493516713259432_" class="st0" d="M286.1,150h1.1v-4.1l3.2-5.7h-1.3l-2.5,4.5h0
			l-2.5-4.5h-1.3l3.2,5.7V150z"/>
		<path id="Shape_00000106849063634987057450000003502824430732198031_" class="st0" d="M292,150h1.2v-3.8h2.6c1.9,0,3.2-1.1,3.2-3
			c0-2-1.4-3-3.3-3H292V150z M293.2,145.2v-3.9h2.5c1.1,0,2.2,0.5,2.2,2c0,1.3-1,1.9-2.1,1.9H293.2z"/>
		<path id="Path_00000088126805658127728590000011823945516027511229_" class="st0" d="M302.7,150h1.1v-8.7h3v-1.1h-7.2v1.1h3V150z"
			/>
		<path id="Shape_00000005235332582038860550000002251830082819767733_" class="st0" d="M312.2,149.1c-1.7,0-2.9-1.3-2.9-4.1
			c0-2.7,1.4-3.9,2.9-3.9c1.5,0,2.9,1.3,2.9,4C315.1,147.9,313.8,149.1,312.2,149.1z M312.2,150.2c2.1,0,4.1-1.4,4.1-5.1
			c0-3.4-2-5.1-4.1-5.1c-2.1,0-4.2,1.7-4.2,5C308,148.8,310.1,150.2,312.2,150.2z"/>
		<path id="Path_00000041993956130540229790000012655150787157133754_" class="st0" d="M1.1,170h1.2v-9.8H1.1V170z"/>
		<path id="Path_00000003802993506578603990000012513619462868545193_" class="st0" d="M4.9,170h1.2v-7.9h0l4.5,7.9h1.2v-9.8h-1.1
			v7.9h0l-4.5-7.9H4.9V170z"/>
		<path id="Path_00000039095079128670771640000002924047119315756424_" class="st0" d="M17.1,170c0-0.8,0.2-1.6,0.5-2.2
			c0.3-0.6,0.9-1.2,1.8-1.7l1.3-0.8c0.6-0.3,1-0.6,1.2-0.9c0.4-0.4,0.6-0.8,0.6-1.3c0-0.6-0.2-1-0.5-1.4s-0.8-0.5-1.4-0.5
			c-0.8,0-1.4,0.3-1.8,1c-0.2,0.3-0.3,0.8-0.3,1.4h-1.3c0-0.9,0.2-1.5,0.5-2.1c0.5-0.9,1.5-1.4,2.8-1.4c1.1,0,1.9,0.3,2.5,0.9
			c0.5,0.6,0.8,1.3,0.8,2c0,0.8-0.3,1.5-0.8,2c-0.3,0.3-0.9,0.7-1.7,1.2l-0.9,0.5c-0.4,0.2-0.8,0.5-1.1,0.7
			c-0.5,0.4-0.7,0.8-0.9,1.3h5.3v1.2H17.1z"/>
		<path id="Shape_00000137824363038000599210000001842486736332465035_" class="st0" d="M28.2,160.2c1.3,0,2.2,0.5,2.7,1.6
			c0.4,0.8,0.7,1.9,0.7,3.3c0,1.3-0.2,2.4-0.6,3.3c-0.6,1.2-1.5,1.9-2.8,1.9c-1.2,0-2.1-0.5-2.6-1.5c-0.5-0.9-0.7-2-0.7-3.4
			c0-1.1,0.1-2.1,0.4-2.9C25.9,161,26.8,160.2,28.2,160.2z M28.2,169.2c0.6,0,1.1-0.3,1.5-0.8c0.4-0.6,0.6-1.6,0.6-3.2
			c0-1.1-0.1-2-0.4-2.7s-0.8-1.1-1.6-1.1c-0.7,0-1.3,0.3-1.6,1c-0.3,0.7-0.5,1.7-0.5,3c0,1,0.1,1.8,0.3,2.4
			C26.9,168.7,27.4,169.2,28.2,169.2z"/>
		<path id="Path_00000126309024543001602730000010782097642481033372_" class="st0" d="M33.6,163.1v-0.9c0.9-0.1,1.5-0.2,1.9-0.4
			c0.4-0.2,0.6-0.7,0.8-1.4h1v9.7h-1.3v-6.9H33.6z"/>
		<path id="Path_00000042702688549845990110000015798666854719461282_" class="st0" d="M47.4,160.4v1.1c-0.3,0.3-0.7,0.8-1.3,1.6
			c-0.5,0.8-1,1.6-1.4,2.4c-0.4,0.9-0.7,1.6-0.9,2.3c-0.1,0.5-0.3,1.2-0.5,2.2h-1.4c0.3-1.9,1-3.7,2.1-5.6c0.6-1.1,1.3-2,2-2.8h-5.4
			v-1.2H47.4z"/>
		<path id="Shape_00000075854490766191824640000000351061008008408245_" class="st0" d="M51.6,170h1.2l0.7-1.9h4.4l0.7,1.9h1.2
			l-3.5-9.8h-1.1L51.6,170z M53.8,167.1l1.8-5.3h0l1.8,5.3H53.8z"/>
		<path id="Path_00000063608118666497457070000010103475678676007605_" class="st0" d="M61.4,170h1.2v-7.9h0l4.5,7.9h1.2v-9.8h-1.1
			v7.9h0l-4.5-7.9h-1.3V170z"/>
		<path id="Shape_00000031919847745673550890000002801267934155814047_" class="st0" d="M72.1,168.9v-7.7h1.8c1.9,0,3.1,1.3,3.1,3.8
			c0,2.8-1.2,3.9-3.2,3.9H72.1z M71,170h3c2.2,0,4.3-1.2,4.3-4.9c0-3.4-2.1-4.9-4.2-4.9H71V170z"/>
		<path id="Path_00000001634144941821356830000003844751775219772317_" class="st0" d="M82.8,167.9c0.2,1.3,1,2.3,2.4,2.3
			c1.5,0,2.3-0.9,2.3-2.7v-7.3h-1.1v7.2c0,1.2-0.3,1.7-1.1,1.7c-0.9,0-1.2-0.8-1.3-1.5L82.8,167.9z"/>
		<path id="Shape_00000065032704370058539540000016731176354759408513_" class="st0" d="M93.7,169.1c-1.7,0-2.9-1.3-2.9-4.1
			c0-2.7,1.4-3.9,2.9-3.9c1.5,0,2.9,1.3,2.9,4C96.6,167.9,95.3,169.1,93.7,169.1z M93.7,170.2c2.1,0,4.1-1.4,4.1-5.1
			c0-3.4-2-5.1-4.1-5.1c-2.1,0-4.2,1.7-4.2,5C89.6,168.8,91.6,170.2,93.7,170.2z"/>
		<path id="Path_00000061452479568567379220000007663345468025878961_" class="st0" d="M100,170h1.2v-9.8H100V170z"/>
		<path id="Path_00000012429941023589980230000004871719055812425643_" class="st0" d="M103.9,170h1.2v-7.9h0l4.5,7.9h1.2v-9.8h-1.1
			v7.9h0l-4.5-7.9h-1.3V170z"/>
		<path id="Path_00000061463159060529955120000004757334137308367266_" class="st0" d="M113.5,170h5.9v-1.1h-4.7v-3.5h4.3v-1h-4.3
			v-3.2h4.7v-1.1h-5.9V170z"/>
		<path id="Shape_00000156582557903611724710000006042877384793930938_" class="st0" d="M122.8,168.9v-7.7h1.8
			c1.9,0,3.1,1.3,3.1,3.8c0,2.8-1.2,3.9-3.2,3.9H122.8z M121.7,170h3c2.2,0,4.3-1.2,4.3-4.9c0-3.4-2.1-4.9-4.2-4.9h-3.1V170z"/>
		<path id="Path_00000070829809582134987040000000702423396150674861_" class="st0" d="M133.5,167.9c0.2,1.3,1,2.3,2.4,2.3
			c1.5,0,2.3-0.9,2.3-2.7v-7.3h-1.1v7.2c0,1.2-0.3,1.7-1.1,1.7c-0.9,0-1.2-0.8-1.3-1.5L133.5,167.9z"/>
		<path id="Path_00000016789034601446388620000001660026795419467173_" class="st0" d="M140.6,166.8c0,2.3,1.3,3.4,3.5,3.4
			s3.5-1.1,3.5-3.4v-6.6h-1.1v6.6c0,1.5-0.8,2.4-2.3,2.4c-1.5,0-2.3-0.8-2.3-2.4v-6.5h-1.2V166.8z"/>
		<path id="Path_00000145746133417704443870000010683818590211960997_" class="st0" d="M150,170h5.4v-1.1h-4.3v-8.7H150V170z"/>
		<path id="Path_00000098183339818778987480000013134166475908408995_" class="st0" d="M157.3,170h1.2v-9.8h-1.2V170z"/>
		<path id="Shape_00000115481966799455929640000014547997267677837197_" class="st0" d="M160.1,170h1.2l0.7-1.9h4.4l0.7,1.9h1.2
			l-3.5-9.8h-1.1L160.1,170z M162.3,167.1l1.8-5.3h0l1.8,5.3H162.3z"/>
		<path id="Path_00000013156815811967194220000016945134811988744082_" class="st0" d="M169.9,170h1.2v-7.9h0l4.5,7.9h1.2v-9.8h-1.1
			v7.9h0l-4.5-7.9h-1.3V170z"/>
		<path id="Shape_00000085953529921682136380000011428791414696520352_" class="st0" d="M181.9,170h1.2l0.7-1.9h4.4l0.7,1.9h1.2
			l-3.5-9.8h-1.1L181.9,170z M184.2,167.1l1.8-5.3h0l1.8,5.3H184.2z"/>
		<path id="Path_00000031916064577361182260000018174481392321632402_" class="st0" d="M191.7,170h1.2v-7.9h0l4.5,7.9h1.2v-9.8h-1.1
			v7.9h0l-4.5-7.9h-1.3V170z"/>
		<path id="Shape_00000121274250311483825740000006690584427254962322_" class="st0" d="M202.4,168.9v-7.7h1.8
			c1.9,0,3.1,1.3,3.1,3.8c0,2.8-1.2,3.9-3.2,3.9H202.4z M201.3,170h3c2.2,0,4.3-1.2,4.3-4.9c0-3.4-2.1-4.9-4.2-4.9h-3.1V170z"/>
		<path id="Path_00000031894128227201612880000002887035069989310336_" class="st0" d="M216.2,170h1.1v-8.7h3v-1.1h-7.2v1.1h3V170z"
			/>
		<path id="Path_00000128487203460017572580000016518546940896948624_" class="st0" d="M222.1,170h1.2v-9.8h-1.2V170z"/>
		<path id="Path_00000058576246206372631610000006765674430318279310_" class="st0" d="M226,170h5.4v-1.1h-4.3v-8.7H226V170z"/>
		<path id="Path_00000031891001623711256890000011209438593769129104_" class="st0" d="M233.2,170h5.4v-1.1h-4.3v-8.7h-1.2V170z"/>
		<path id="Path_00000113323849757849356990000004746771818113405349_" class="st0" d="M243.9,170h1.2v-9.8h-1.2V170z"/>
		<path id="Path_00000080901603124924649620000004418860706786448023_" class="st0" d="M247.8,170h1.2v-7.9h0l4.5,7.9h1.2v-9.8h-1.1
			v7.9h0l-4.5-7.9h-1.3V170z"/>
		<path id="Shape_00000148630112396570424140000006592986697860915619_" class="st0" d="M260.8,170h3.5c2.4,0,3.5-1.1,3.5-2.9
			c0-1.3-0.8-2.1-1.6-2.4v0c0.7-0.3,1.2-0.9,1.2-2c0-1.4-1.1-2.5-2.9-2.5h-3.8V170z M262,164.4v-3.1h2.4c1.2,0,1.9,0.5,1.9,1.5
			c0,1-0.6,1.5-1.9,1.5H262z M262,168.9v-3.6h2.2c1.6,0,2.4,0.4,2.4,1.7c0,1.3-0.9,1.8-2.5,1.8H262z"/>
		<path id="Shape_00000077287415357760192030000007784718529981494912_" class="st0" d="M269.9,170h1.2v-4h2.2l2.1,4h1.3l-2.2-4.1
			c1.4-0.3,2.4-1.2,2.4-2.8c0-2-1.3-2.9-3.3-2.9h-3.8V170z M271.1,165v-3.7h2.5c1.3,0,2.2,0.5,2.2,1.8s-1,1.8-2.2,1.8H271.1z"/>
		<path id="Path_00000011026958322628542580000009802444617605312168_" class="st0" d="M279,170h1.2v-9.8H279V170z"/>
		<path id="Path_00000170270692043063386180000015371390807682172068_" class="st0" d="M282.9,170h1.2v-7.9h0l4.5,7.9h1.2v-9.8h-1.1
			v7.9h0l-4.5-7.9h-1.3V170z"/>
		<path id="Path_00000072280910281473794600000000566766860963026835_" class="st0" d="M296,170.2c2.2,0,3.8-1.5,3.8-4.1v-1h-3.6
			v1.1h2.5c0,1.8-1,2.9-2.6,2.9c-1.6,0-2.9-1.3-2.9-4.1c0-2.7,1.4-3.9,2.9-3.9c1.6,0,2.2,1.1,2.5,2.3l1.2-0.2
			c-0.3-1.9-1.7-3.2-3.7-3.2c-2.1,0-4.1,1.7-4.1,5C291.9,168.8,293.9,170.2,296,170.2z"/>
		<path id="Path_00000059289890009019510940000018241478828521585851_" class="st0" d="M302,170h1.2v-9.8H302V170z"/>
		<path id="Path_00000174598198546780119100000007564086772260654006_" class="st0" d="M305.9,170h1.2v-7.9h0l4.5,7.9h1.2v-9.8h-1.1
			v7.9h0l-4.5-7.9h-1.3V170z"/>
		<path id="Path_00000121250343390476733030000006783394957309835959_" class="st0" d="M319,170.2c2.2,0,3.8-1.5,3.8-4.1v-1h-3.6
			v1.1h2.5c0,1.8-1,2.9-2.6,2.9c-1.6,0-2.9-1.3-2.9-4.1c0-2.7,1.4-3.9,2.9-3.9c1.6,0,2.2,1.1,2.5,2.3l1.2-0.2
			c-0.3-1.9-1.7-3.2-3.7-3.2c-2.1,0-4.1,1.7-4.1,5C314.9,168.8,316.8,170.2,319,170.2z"/>
		<path id="Shape_00000138549823661158714270000002593691416938174891_" class="st0" d="M1,190h1.2v-3.8h2.6c1.9,0,3.2-1.1,3.2-3
			c0-2-1.4-3-3.3-3H1V190z M2.1,185.2v-3.9h2.5c1.1,0,2.2,0.5,2.2,2c0,1.3-1,1.9-2.1,1.9H2.1z"/>
		<path id="Shape_00000061436960009529828760000016587272651336788141_" class="st0" d="M8.6,190h1.2l0.7-1.9h4.4l0.7,1.9h1.2
			l-3.5-9.8h-1.1L8.6,190z M10.8,187.1l1.8-5.3h0l1.8,5.3H10.8z"/>
		<path id="Path_00000044147843099511195840000000046448221894769570_" class="st0" d="M22,181.1c1.7,0,2.3,1.2,2.5,2.5l1.2-0.2
			c-0.3-2-1.6-3.4-3.7-3.4c-2.1,0-4.2,1.7-4.2,5c0,3.8,2,5.2,4.2,5.2c2.2,0,3.5-1.4,3.7-3.7l-1.2-0.2c-0.2,1.5-0.7,2.8-2.5,2.8
			c-1.7,0-2.9-1.3-2.9-4.1C19.1,182.3,20.4,181.1,22,181.1z"/>
		<path id="Path_00000124144735592922327950000017706128578774513793_" class="st0" d="M27.7,190h5.9v-1.1h-4.7v-3.5h4.3v-1h-4.3
			v-3.2h4.7v-1.1h-5.9V190z"/>
		<path id="Path_00000153673128283837203540000015076799391108304562_" class="st0" d="M35.9,190h1.1v-8.2h0l3.4,8.2h0.4l3.4-8.2h0
			v8.2h1.1v-9.8h-1.6l-3.1,7.5h0l-3.1-7.5h-1.6V190z"/>
		<path id="Shape_00000093150116395104233450000005469258111209792909_" class="st0" d="M47,190h1.2l0.7-1.9h4.4L54,190h1.2
			l-3.5-9.8h-1.1L47,190z M49.2,187.1l1.8-5.3h0l1.8,5.3H49.2z"/>
		<path id="Path_00000048492074132983408660000016323232782240310445_" class="st0" d="M56.6,190h1.2v-3.4l1.1-1.3h0l3.3,4.6h1.4
			l-4-5.5l3.6-4.3h-1.5l-4,4.8h0v-4.8h-1.2V190z"/>
		<path id="Path_00000170258181522178697560000011478224080939974296_" class="st0" d="M65,190h5.9v-1.1h-4.7v-3.5h4.3v-1h-4.3v-3.2
			h4.7v-1.1H65V190z"/>
		<path id="Shape_00000165931664000573743380000002169109823980217256_" class="st0" d="M73.2,190h1.2v-4h2.2l2.1,4h1.3l-2.2-4.1
			c1.4-0.3,2.4-1.2,2.4-2.8c0-2-1.3-2.9-3.3-2.9h-3.8V190z M74.4,185v-3.7h2.5c1.3,0,2.2,0.5,2.2,1.8s-1,1.8-2.2,1.8H74.4z"/>
		<path id="Path_00000052816480894559183540000004265130686565069991_" class="st0" d="M85.8,190H87v-9.8h-1.2V190z"/>
		<path id="Path_00000174561359011727269860000017947888764154657426_" class="st0" d="M89.7,190h1.2v-7.9h0l4.5,7.9h1.2v-9.8h-1.1
			v7.9h0l-4.5-7.9h-1.3V190z"/>
		<path id="Path_00000140723507431094953010000017443521766771505795_" class="st0" d="M101.3,190h1.1v-8.7h3v-1.1h-7.2v1.1h3V190z"
			/>
		<path id="Shape_00000180334714704865934340000002771967011887017904_" class="st0" d="M110.8,189.1c-1.7,0-2.9-1.3-2.9-4.1
			c0-2.7,1.4-3.9,2.9-3.9c1.5,0,2.9,1.3,2.9,4C113.7,187.9,112.4,189.1,110.8,189.1z M110.8,190.2c2.1,0,4.1-1.4,4.1-5.1
			c0-3.4-2-5.1-4.1-5.1c-2.1,0-4.2,1.7-4.2,5C106.6,188.8,108.7,190.2,110.8,190.2z"/>
		<path id="Path_00000093881082818644745920000001097112992423156904_" class="st0" d="M122.5,190h1.1v-8.7h3v-1.1h-7.2v1.1h3V190z"
			/>
		<path id="Path_00000123421924789361697450000001449936972827021205_" class="st0" d="M128.4,190h1.2v-4.5h4.4v4.5h1.1v-9.8h-1.1
			v4.2h-4.4v-4.2h-1.2V190z"/>
		<path id="Path_00000089557669170057023980000008174607349715757465_" class="st0" d="M137.7,190h5.9v-1.1h-4.7v-3.5h4.3v-1h-4.3
			v-3.2h4.7v-1.1h-5.9V190z"/>
		<path id="Path_00000050633767611490097760000001853727683434239929_" class="st0" d="M150.6,190h1.4l2.5-8.1h0l2.5,8.1h1.4
			l1.8-9.8H159l-1.4,8.1h0l-2.5-8.1h-1.2l-2.4,8.1h0l-1.5-8.1h-1.2L150.6,190z"/>
		<path id="Shape_00000176726142476178018040000002904463564026127003_" class="st0" d="M165.8,189.1c-1.7,0-2.9-1.3-2.9-4.1
			c0-2.7,1.4-3.9,2.9-3.9c1.5,0,2.9,1.3,2.9,4C168.6,187.9,167.4,189.1,165.8,189.1z M165.8,190.2c2.1,0,4.1-1.4,4.1-5.1
			c0-3.4-2-5.1-4.1-5.1c-2.1,0-4.2,1.7-4.2,5C161.6,188.8,163.6,190.2,165.8,190.2z"/>
		<path id="Shape_00000057131958421871758690000006203557609914497679_" class="st0" d="M172,190h1.2v-4h2.2l2.1,4h1.3l-2.2-4.1
			c1.4-0.3,2.4-1.2,2.4-2.8c0-2-1.3-2.9-3.3-2.9H172V190z M173.1,185v-3.7h2.5c1.3,0,2.2,0.5,2.2,1.8s-1,1.8-2.2,1.8H173.1z"/>
		<path id="Path_00000083080223316285956740000000999995211491986872_" class="st0" d="M181,190h5.4v-1.1h-4.3v-8.7H181V190z"/>
		<path id="Shape_00000086693052967741177670000016889621991815734145_" class="st0" d="M189.3,188.9v-7.7h1.8
			c1.9,0,3.1,1.3,3.1,3.8c0,2.8-1.2,3.9-3.2,3.9H189.3z M188.1,190h3c2.2,0,4.3-1.2,4.3-4.9c0-3.4-2.1-4.9-4.2-4.9h-3.1V190z"/>
		<path id="Shape_00000041253471111106351960000007300909135581578677_" class="st0" d="M204.6,189.1c-1.7,0-2.9-1.3-2.9-4.1
			c0-2.7,1.4-3.9,2.9-3.9c1.5,0,2.9,1.3,2.9,4C207.4,187.9,206.2,189.1,204.6,189.1z M204.6,190.2c2.1,0,4.1-1.4,4.1-5.1
			c0-3.4-2-5.1-4.1-5.1c-2.1,0-4.2,1.7-4.2,5C200.4,188.8,202.5,190.2,204.6,190.2z"/>
		<path id="Path_00000163786827054202397670000010690238289373326728_" class="st0" d="M210.8,190h1.2v-4.2h4.4v-1h-4.4v-3.5h4.7
			v-1.1h-5.9V190z"/>
		<path id="Path_00000141421434359090722810000010748252153025874568_" class="st0" d="M223.3,190h1.4l2.5-8.1h0l2.5,8.1h1.4
			l1.8-9.8h-1.2l-1.4,8.1h0l-2.4-8.1h-1.2l-2.4,8.1h0l-1.5-8.1h-1.2L223.3,190z"/>
		<path id="Path_00000130609051493484298520000015237816511232334500_" class="st0" d="M234.9,190h5.9v-1.1h-4.7v-3.5h4.3v-1h-4.3
			v-3.2h4.7v-1.1h-5.9V190z"/>
		<path id="Shape_00000012435968094221484070000009981461622085382786_" class="st0" d="M243.1,190h3.5c2.4,0,3.5-1.1,3.5-2.9
			c0-1.3-0.8-2.1-1.6-2.4v0c0.7-0.3,1.2-0.9,1.2-2c0-1.4-1.1-2.5-2.9-2.5h-3.8V190z M244.3,184.4v-3.1h2.4c1.2,0,1.9,0.5,1.9,1.5
			c0,1-0.6,1.5-1.9,1.5H244.3z M244.3,188.9v-3.6h2.2c1.6,0,2.4,0.4,2.4,1.7c0,1.3-0.9,1.8-2.5,1.8H244.3z"/>
		<path id="Path_00000130607935822633544420000015712904069543641473_" class="st0" d="M254.5,190.3c-1.2,0-2-0.3-2.5-1
			c-0.5-0.6-0.8-1.4-0.8-2.3h1.3c0.1,0.6,0.2,1.1,0.4,1.4c0.3,0.5,0.9,0.8,1.7,0.8c0.6,0,1.2-0.2,1.6-0.5c0.4-0.3,0.6-0.8,0.6-1.3
			c0-0.7-0.2-1.1-0.6-1.4c-0.4-0.3-1-0.4-1.7-0.4c-0.1,0-0.2,0-0.2,0c-0.1,0-0.2,0-0.3,0v-1.1c0.1,0,0.2,0,0.3,0c0.1,0,0.2,0,0.3,0
			c0.5,0,0.8-0.1,1.1-0.2c0.5-0.3,0.8-0.7,0.8-1.4c0-0.5-0.2-0.9-0.5-1.1c-0.3-0.3-0.7-0.4-1.2-0.4c-0.8,0-1.4,0.3-1.7,0.8
			c-0.2,0.3-0.3,0.7-0.3,1.3h-1.2c0-0.7,0.1-1.3,0.4-1.9c0.5-0.9,1.4-1.4,2.6-1.4c1,0,1.8,0.2,2.3,0.7s0.8,1.1,0.8,1.9
			c0,0.6-0.2,1.1-0.5,1.5c-0.2,0.2-0.5,0.4-0.8,0.5c0.5,0.1,0.9,0.4,1.2,0.8c0.3,0.4,0.4,0.9,0.4,1.5c0,0.9-0.3,1.7-0.9,2.3
			S255.6,190.3,254.5,190.3z"/>
		<path id="Path_00000143602627633351660500000005252093332696951432_" class="st0" d="M260,190h1.7v-1.7H260V190z"/>
		<path id="Shape_00000106145262393834689880000014998361025757907129_" class="st0" d="M1,230h3.5c2.4,0,3.5-1.1,3.5-2.9
			c0-1.3-0.8-2.1-1.6-2.4v0c0.7-0.3,1.2-0.9,1.2-2c0-1.4-1.1-2.5-2.9-2.5H1V230z M2.1,224.4v-3.1h2.4c1.2,0,1.9,0.5,1.9,1.5
			c0,1-0.6,1.5-1.9,1.5H2.1z M2.1,228.9v-3.6h2.2c1.6,0,2.4,0.4,2.4,1.7c0,1.3-0.9,1.8-2.5,1.8H2.1z"/>
		<path id="Path_00000111185169178922248920000015113129018317092491_" class="st0" d="M10.1,230H16v-1.1h-4.7v-3.5h4.3v-1h-4.3
			v-3.2H16v-1.1h-5.9V230z"/>
		<path id="Path_00000065791875532048826490000008872968384109476763_" class="st0" d="M18.3,230h1.2v-4.2h4.4v-1h-4.4v-3.5h4.7
			v-1.1h-5.9V230z"/>
		<path id="Shape_00000055678630405978228510000016224515437249358505_" class="st0" d="M29.8,229.1c-1.7,0-2.9-1.3-2.9-4.1
			c0-2.7,1.4-3.9,2.9-3.9c1.5,0,2.9,1.3,2.9,4C32.7,227.9,31.4,229.1,29.8,229.1z M29.8,230.2c2.1,0,4.1-1.4,4.1-5.1
			c0-3.4-2-5.1-4.1-5.1c-2.1,0-4.2,1.7-4.2,5C25.6,228.8,27.7,230.2,29.8,230.2z"/>
		<path id="Shape_00000103943625694058597870000017707892052989830828_" class="st0" d="M36,230h1.2v-4h2.2l2.1,4h1.3l-2.2-4.1
			c1.4-0.3,2.4-1.2,2.4-2.8c0-2-1.3-2.9-3.3-2.9H36V230z M37.2,225v-3.7h2.5c1.3,0,2.2,0.5,2.2,1.8s-1,1.8-2.2,1.8H37.2z"/>
		<path id="Path_00000106121109910566229950000014635708136191534722_" class="st0" d="M45,230h5.9v-1.1h-4.7v-3.5h4.3v-1h-4.3v-3.2
			h4.7v-1.1H45V230z"/>
		<path id="Shape_00000155119377118074755190000015837014061775761024_" class="st0" d="M53.4,222.8h1.4v1.5h-1.4V222.8z
			 M53.4,228.5h1.4v1.5h-1.4V228.5z"/>
		<path id="Shape_00000066517751561091228480000017631561677394267276_" class="st0" d="M60.6,230h3.5c2.4,0,3.5-1.1,3.5-2.9
			c0-1.3-0.8-2.1-1.6-2.4v0c0.7-0.3,1.2-0.9,1.2-2c0-1.4-1.1-2.5-2.9-2.5h-3.8V230z M61.8,224.4v-3.1h2.4c1.2,0,1.9,0.5,1.9,1.5
			c0,1-0.6,1.5-1.9,1.5H61.8z M61.8,228.9v-3.6H64c1.6,0,2.4,0.4,2.4,1.7c0,1.3-0.9,1.8-2.5,1.8H61.8z"/>
		<path id="Shape_00000044150786049326854660000018083558124065374137_" class="st0" d="M68.6,230h1.2l0.7-1.9h4.4l0.7,1.9h1.2
			l-3.5-9.8h-1.1L68.6,230z M70.9,227.1l1.8-5.3h0l1.8,5.3H70.9z"/>
		<path id="Path_00000135692491291161134550000002679842606359154342_" class="st0" d="M80.6,230h1.1v-4.1l3.2-5.7h-1.3l-2.5,4.5h0
			l-2.5-4.5h-1.3l3.2,5.7V230z"/>
		<path id="Path_00000029040960790956374550000001619038681145927561_" class="st0" d="M86.4,230h5.9v-1.1h-4.7v-3.5h4.3v-1h-4.3
			v-3.2h4.7v-1.1h-5.9V230z"/>
		<path id="Shape_00000080181793600482902620000001841721606895687338_" class="st0" d="M94.7,230h1.2v-4H98l2.1,4h1.3l-2.2-4.1
			c1.4-0.3,2.4-1.2,2.4-2.8c0-2-1.3-2.9-3.3-2.9h-3.8V230z M95.8,225v-3.7h2.5c1.3,0,2.2,0.5,2.2,1.8s-1,1.8-2.2,1.8H95.8z"/>
		<path id="Path_00000003803085216913773530000012685232191187843742_" class="st0" d="M103.7,231.5c1.2-0.1,1.7-0.8,1.7-1.7v-1.4
			h-1.7v1.7h0.7c0,0.4-0.1,0.8-0.7,0.9V231.5z"/>
		<path id="Path_00000160872639194197216360000003038541239588739235_" class="st0" d="M113.5,230h1.1v-8.7h3v-1.1h-7.2v1.1h3V230z"
			/>
		<path id="Path_00000163768408065334246410000006830299254771161503_" class="st0" d="M119.4,230h5.9v-1.1h-4.7v-3.5h4.3v-1h-4.3
			v-3.2h4.7v-1.1h-5.9V230z"/>
		<path id="Path_00000173142924703202277940000006051380123656568471_" class="st0" d="M127.6,230h5.4v-1.1h-4.3v-8.7h-1.2V230z"/>
		<path id="Path_00000131338742085928875110000010027225529412075687_" class="st0" d="M134.7,230h5.9v-1.1h-4.7v-3.5h4.3v-1h-4.3
			v-3.2h4.7v-1.1h-5.9V230z"/>
		<path id="Path_00000099650983113801813450000003566766583204752782_" class="st0" d="M142.8,230h1.2v-3.4l1.1-1.3h0l3.3,4.6h1.4
			l-4-5.5l3.6-4.3H148l-4,4.8h0v-4.8h-1.2V230z"/>
		<path id="Shape_00000050640501066791571040000011885991631680614539_" class="st0" d="M154.8,229.1c-1.7,0-2.9-1.3-2.9-4.1
			c0-2.7,1.4-3.9,2.9-3.9c1.5,0,2.9,1.3,2.9,4C157.7,227.9,156.4,229.1,154.8,229.1z M154.8,230.2c2.1,0,4.1-1.4,4.1-5.1
			c0-3.4-2-5.1-4.1-5.1c-2.1,0-4.2,1.7-4.2,5C150.7,228.8,152.7,230.2,154.8,230.2z"/>
		<path id="Path_00000060713124288802654120000009305895629138791046_" class="st0" d="M161,230h1.1v-8.2h0l3.4,8.2h0.4l3.4-8.2h0
			v8.2h1.1v-9.8h-1.6l-3.1,7.5h0l-3.1-7.5H161V230z"/>
		<path id="Path_00000180348863989261541870000005638588070679671995_" class="st0" d="M173.1,231.5c1.2-0.1,1.7-0.8,1.7-1.7v-1.4
			h-1.7v1.7h0.7c0,0.4-0.1,0.8-0.7,0.9V231.5z"/>
		<path id="Path_00000020387117238727773750000003543093042375055011_" class="st0" d="M180.3,226.6c0.3,2.3,1.6,3.6,3.9,3.6
			c2.2,0,3.4-1.3,3.4-2.8c0-1.5-0.6-2.2-3.3-3c-2.1-0.7-2.4-1.1-2.4-1.8c0-0.8,0.6-1.5,1.9-1.5c1.5,0,2,0.8,2.2,1.8l1.2-0.3
			c-0.3-1.8-1.7-2.7-3.4-2.7c-2,0-3.1,1.2-3.1,2.6c0,1.4,0.9,2.1,3,2.8c2.4,0.8,2.7,1.2,2.7,2.1c0,0.9-0.7,1.7-2.2,1.7
			c-1.9,0-2.5-0.9-2.8-2.7L180.3,226.6z"/>
		<path id="Path_00000018226739085106724320000005339204117503807661_" class="st0" d="M189.5,230h1.1v-8.2h0l3.4,8.2h0.4l3.4-8.2h0
			v8.2h1.1v-9.8h-1.6l-3.1,7.5h0l-3.1-7.5h-1.6V230z"/>
		<path id="Shape_00000059287058752019701500000003501278315172634526_" class="st0" d="M201.6,230h1.2v-3.8h2.6
			c1.9,0,3.2-1.1,3.2-3c0-2-1.4-3-3.3-3h-3.8V230z M202.8,225.2v-3.9h2.5c1.1,0,2.2,0.5,2.2,2c0,1.3-1,1.9-2.1,1.9H202.8z"/>
	</g>
	<g id="WEB3-AND-TECH" transform="translate(22.063000, 270.649000)">
		<polygon id="Path_00000169550407615547211440000017171302861107086496_" class="st0" points="4.9,15.4 0,0.4 3.7,0.4 7.1,11.2 
			12,0.4 14.8,0.4 19.2,11.2 23.3,0.4 26.9,0.4 20.8,15.4 17.5,15.4 13.3,4.8 8.4,15.4 		"/>
		<polygon id="Path_00000152227984931659406230000006106253853005459086_" class="st0" points="27.9,15.4 27.9,0.4 42.2,0.4 
			42.2,3.3 31.3,3.3 31.3,6.4 40.5,6.4 40.5,9.3 31.3,9.3 31.3,12.3 42.6,12.3 42.6,15.4 		"/>
		<path id="Shape_00000063619456336827891900000013360672538069810621_" class="st0" d="M44.3,15.4v-15h8.3c2.5,0,4.3,0.3,5.6,0.9
			C59.4,1.8,60,2.8,60,4.3v0.1c0,1-0.2,1.7-0.7,2.2s-1.3,0.8-2.3,1c1.2,0.2,2.1,0.5,2.6,1c0.6,0.5,0.8,1.3,0.8,2.3V11
			c0,1.1-0.3,2-0.9,2.6c-0.6,0.6-1.4,1.1-2.6,1.4c-1.1,0.3-2.5,0.4-4.2,0.4H44.3z M52.8,3.1h-5.1v3.2h5.2c0.7,0,1.3,0,1.9-0.1
			c0.5-0.1,1-0.2,1.3-0.4c0.3-0.2,0.5-0.5,0.5-1V4.7c0-0.5-0.1-0.8-0.4-1s-0.7-0.4-1.2-0.4C54.4,3.2,53.7,3.1,52.8,3.1z M52.5,9
			h-4.8v3.4h4.6c1.2,0,2.1,0,2.8-0.1c0.6-0.1,1.1-0.3,1.3-0.5c0.2-0.2,0.4-0.6,0.4-1v-0.1c0-0.5-0.1-0.8-0.4-1.1
			c-0.3-0.2-0.7-0.4-1.3-0.5C54.5,9.1,53.6,9,52.5,9z"/>
		<path id="Path_00000036961415878489642530000005839080558012514491_" class="st0" d="M68.8,15.8c-2,0-3.6-0.2-4.8-0.6
			c-1.2-0.4-2-1.1-2.6-2s-0.8-2-0.8-3.3h3.6c0,1.1,0.4,1.8,1.1,2.2c0.7,0.4,1.9,0.7,3.5,0.7c1.7,0,2.8-0.2,3.5-0.5
			c0.7-0.3,1-0.8,1-1.4c0-0.7-0.3-1.1-0.9-1.4s-1.6-0.4-3-0.4h-2.6V6.4h2.5c1.4,0,2.3-0.1,2.9-0.3c0.6-0.2,0.9-0.6,0.9-1.2
			c0-1.3-1.4-1.9-4.1-1.9c-1.7,0-2.9,0.2-3.6,0.7c-0.8,0.5-1.1,1.2-1.2,2.1h-3.5c0-2,0.7-3.4,2.2-4.4C64.5,0.5,66.6,0,69.2,0
			c1.5,0,2.9,0.2,4.1,0.5s2.1,0.8,2.7,1.5s1,1.5,1,2.4c0,1-0.3,1.8-1,2.2s-1.5,0.8-2.5,0.9c1.2,0.2,2.1,0.5,2.8,1
			c0.7,0.5,1,1.3,1,2.5c0,1.6-0.7,2.7-2.2,3.5C73.5,15.4,71.5,15.8,68.8,15.8z"/>
		<path id="Shape_00000003076581855412352960000018353164520099286912_" class="st0" d="M81.7,15.4l7.6-15H93l7.7,15H97l-1.6-3.3
			h-8.3l-1.6,3.3H81.7z M88.4,9.2h5.5l-2.8-5.7L88.4,9.2z"/>
		<polygon id="Path_00000009553950026813788250000001667404380110490539_" class="st0" points="101.6,15.4 101.6,0.4 105.1,0.4 
			114.2,10.5 114.4,10.7 114.4,0.4 117.7,0.4 117.7,15.4 114.4,15.4 105.2,5.1 105,4.9 105,15.4 		"/>
		<path id="Shape_00000029017727529416445650000014066350633985956521_" class="st0" d="M120.3,0.4h7c3.1,0,5.4,0.6,7,1.8
			c1.6,1.2,2.4,3.1,2.4,5.7V8c0,2.6-0.8,4.5-2.3,5.6s-3.8,1.7-6.8,1.7h-7.2V0.4z M127.1,3.4h-3.3v8.9h3.5c1.4,0,2.5-0.1,3.3-0.4
			c0.8-0.3,1.4-0.7,1.8-1.4c0.4-0.6,0.6-1.5,0.6-2.6V7.9c0-1.1-0.2-1.9-0.6-2.6c-0.4-0.7-1-1.1-1.9-1.4
			C129.7,3.6,128.5,3.4,127.1,3.4z"/>
		<polygon id="Path_00000163769105753746079130000017465606585570140564_" class="st0" points="147.3,15.4 147.3,3.4 142,3.4 
			142,0.4 156.6,0.4 156.6,3.4 151,3.4 151,15.4 		"/>
		<polygon id="Path_00000102524211521114995060000000422710058727838877_" class="st0" points="158.2,15.4 158.2,0.4 172.5,0.4 
			172.5,3.3 161.6,3.3 161.6,6.4 170.8,6.4 170.8,9.3 161.6,9.3 161.6,12.3 172.9,12.3 172.9,15.4 		"/>
		<path id="Path_00000075885596439251101300000013517266623579419801_" class="st0" d="M182,15.8c-1.8,0-3.3-0.3-4.6-0.8
			c-1.3-0.5-2.3-1.4-3.1-2.5c-0.7-1.1-1.1-2.6-1.1-4.5V7.9c0-1.7,0.4-3.1,1.2-4.3c0.8-1.2,1.9-2.1,3.2-2.7s2.9-0.9,4.7-0.9
			c1.5,0,2.9,0.2,4.1,0.7c1.2,0.5,2.2,1.1,3,2.1s1.3,2.1,1.6,3.5h-3.8c-0.2-1-0.7-1.8-1.5-2.3c-0.8-0.5-1.9-0.8-3.4-0.8
			c-1.7,0-3.1,0.4-4.1,1.1c-1,0.7-1.5,2-1.5,3.7v0c0,1.6,0.5,2.8,1.4,3.5c0.9,0.7,2.3,1.1,4,1.1c1.7,0,2.9-0.3,3.7-0.9
			c0.8-0.6,1.3-1.5,1.4-2.7h3.8c-0.2,1.4-0.7,2.6-1.4,3.6c-0.7,1-1.7,1.8-3,2.4C185.5,15.5,183.9,15.8,182,15.8z"/>
		<polygon id="Path_00000090988655456256576200000002130524892773586569_" class="st0" points="192.5,0.4 196.1,0.4 196.1,6.2 
			204.8,6.2 204.8,0.4 208.3,0.4 208.3,15.4 204.8,15.4 204.8,9.6 196.1,9.6 196.1,15.4 192.5,15.4 		"/>
	</g>
</g>
</svg>
