<?xml version="1.0" encoding="UTF-8"?>
<svg width="377px" height="702px" viewBox="0 0 377 702" version="1.1" xmlns="http://www.w3.org/2000/svg" xmlns:xlink="http://www.w3.org/1999/xlink">
    <title>Daniel Zeitler_Back</title>
    <g id="Daniel-Zeitler_Back" stroke="none" stroke-width="1" fill="none" fill-rule="evenodd">
        <g id="Daniel-Zeitler" transform="translate(22.889000, 34.560000)" fill="#FFFFFF" fill-rule="nonzero">
            <path d="M0.381,0 L0.381,91.44 L26.416,91.44 C42.164,91.44 53.848,84.709 53.848,65.532 L53.848,25.781 C53.848,6.731 42.799,0 26.797,0 L0.381,0 Z M25.273,21.082 C27.432,21.082 27.94,21.59 27.94,24.765 L27.94,65.278 C27.94,69.342 27.432,69.723 25.146,69.723 L25.146,21.082 L25.273,21.082 Z" id="Shape"></path>
            <path d="M53.594,91.44 L77.851,91.44 L78.486,84.455 L86.487,84.455 L87.122,91.44 L111.379,91.44 L97.917,0 L66.294,0 L53.594,91.44 Z M81.661,52.07 L82.296,33.401 L83.185,52.07 L84.455,64.389 L80.518,64.389 L81.661,52.07 Z" id="Shape"></path>
            <polygon id="Path" points="111.379 91.44 135.636 91.44 135.636 70.866 130.429 30.988 141.478 91.44 169.672 91.44 169.672 0 146.05 0 146.05 17.907 151.765 61.849 140.716 0 111.379 0"></polygon>
            <polygon id="Path" points="172.339 91.44 198.12 91.44 198.12 0 172.339 0"></polygon>
            <polygon id="Path" points="200.787 91.44 243.586 91.44 243.586 66.929 225.425 66.929 225.425 57.15 243.586 57.15 243.586 33.147 225.425 33.147 225.425 23.876 243.586 23.876 243.586 0 200.787 0"></polygon>
            <polygon id="Path" points="245.872 0 245.872 91.44 285.242 91.44 285.242 65.913 271.78 65.913 271.78 0"></polygon>
            <polygon id="Path" points="0 190.44 42.164 190.44 42.164 166.691 26.797 166.691 42.164 121.479 42.164 99 0.127 99 0.127 122.876 15.494 122.876 0 168.342"></polygon>
            <polygon id="Path" points="44.45 190.44 87.249 190.44 87.249 165.929 69.088 165.929 69.088 156.15 87.249 156.15 87.249 132.147 69.088 132.147 69.088 122.876 87.249 122.876 87.249 99 44.45 99"></polygon>
            <polygon id="Path" points="89.662 190.44 115.443 190.44 115.443 99 89.662 99"></polygon>
            <polygon id="Path" points="127.127 190.44 152.781 190.44 152.781 122.749 162.306 122.749 162.306 99 117.602 99 117.602 122.749 127.127 122.749"></polygon>
            <polygon id="Path" points="164.338 99 164.338 190.44 203.708 190.44 203.708 164.913 190.246 164.913 190.246 99"></polygon>
            <polygon id="Path" points="205.867 190.44 248.666 190.44 248.666 165.929 230.505 165.929 230.505 156.15 248.666 156.15 248.666 132.147 230.505 132.147 230.505 122.876 248.666 122.876 248.666 99 205.867 99"></polygon>
            <path d="M250.952,190.44 L275.59,190.44 L275.59,159.325 C277.495,159.452 278.257,160.087 278.257,163.262 L278.257,183.582 C278.257,187.265 278.511,189.805 279.908,190.44 L303.911,190.44 C302.387,189.043 302.133,187.646 302.133,183.455 L302.133,162.881 C302.133,154.626 300.99,150.689 294.894,148.784 C300.609,146.752 302.387,142.561 302.387,133.417 L302.387,120.971 C302.387,102.937 294.894,99 278.003,99 L250.952,99 L250.952,190.44 Z M275.844,119.574 C277.876,119.574 278.384,120.209 278.384,122.622 L278.384,135.83 C278.384,137.989 277.876,138.878 275.59,139.005 L275.59,119.574 L275.844,119.574 Z" id="Shape"></path>
        </g>
        <g id="AS-AN-EXPERIENCED-SO" transform="translate(22.280000, 308.447143)" fill="#FFFFFF" fill-rule="nonzero">
            <path d="M0,10.01 L1.176,10.01 L1.89,8.092 L6.286,8.092 L7.014,10.01 L8.19,10.01 L4.662,0.21 L3.528,0.21 L0,10.01 Z M2.24,7.084 L4.074,1.764 L4.102,1.764 L5.95,7.084 L2.24,7.084 Z" id="Shape"></path>
            <path d="M9.17,6.636 C9.464,8.96 10.738,10.22 13.104,10.22 C15.33,10.22 16.52,8.904 16.52,7.378 C16.52,5.922 15.89,5.208 13.23,4.34 C11.088,3.64 10.794,3.29 10.794,2.576 C10.794,1.792 11.396,1.106 12.698,1.106 C14.196,1.106 14.728,1.876 14.938,2.954 L16.114,2.702 C15.862,0.868 14.462,0 12.698,0 C10.738,0 9.618,1.218 9.618,2.576 C9.618,3.976 10.556,4.69 12.656,5.362 C15.008,6.132 15.358,6.552 15.358,7.434 C15.358,8.302 14.686,9.128 13.146,9.128 C11.256,9.128 10.654,8.19 10.388,6.398 L9.17,6.636 Z" id="Path"></path>
            <path d="M20.86,10.01 L22.036,10.01 L22.75,8.092 L27.146,8.092 L27.874,10.01 L29.05,10.01 L25.522,0.21 L24.388,0.21 L20.86,10.01 Z M23.1,7.084 L24.934,1.764 L24.962,1.764 L26.81,7.084 L23.1,7.084 Z" id="Shape"></path>
            <path d="M30.66,10.01 L31.822,10.01 L31.822,2.128 L31.85,2.128 L36.344,10.01 L37.562,10.01 L37.562,0.21 L36.414,0.21 L36.414,8.092 L36.386,8.092 L31.92,0.21 L30.66,0.21 L30.66,10.01 Z" id="Path"></path>
            <path d="M43.722,10.01 L49.616,10.01 L49.616,8.946 L44.884,8.946 L44.884,5.488 L49.224,5.488 L49.224,4.452 L44.884,4.452 L44.884,1.274 L49.616,1.274 L49.616,0.21 L43.722,0.21 L43.722,10.01 Z" id="Path"></path>
            <path d="M50.946,10.01 L52.234,10.01 L54.628,5.824 L54.656,5.824 L57.064,10.01 L58.352,10.01 L55.37,4.998 L58.086,0.21 L56.812,0.21 L54.712,4.074 L54.684,4.074 L52.5,0.21 L51.198,0.21 L53.97,4.9 L50.946,10.01 Z" id="Path"></path>
            <path d="M60.032,10.01 L61.194,10.01 L61.194,6.23 L63.826,6.23 C65.772,6.23 67.074,5.18 67.074,3.234 C67.074,1.26 65.716,0.21 63.798,0.21 L60.032,0.21 L60.032,10.01 Z M61.194,5.166 L61.194,1.274 L63.728,1.274 C64.862,1.274 65.898,1.82 65.898,3.234 C65.898,4.578 64.89,5.166 63.756,5.166 L61.194,5.166 Z" id="Shape"></path>
            <path d="M68.684,10.01 L74.578,10.01 L74.578,8.946 L69.846,8.946 L69.846,5.488 L74.186,5.488 L74.186,4.452 L69.846,4.452 L69.846,1.274 L74.578,1.274 L74.578,0.21 L68.684,0.21 L68.684,10.01 Z" id="Path"></path>
            <path d="M76.888,10.01 L78.05,10.01 L78.05,6.006 L80.276,6.006 L82.404,10.01 L83.706,10.01 L81.522,5.922 C82.922,5.67 83.93,4.76 83.93,3.122 C83.93,1.162 82.642,0.21 80.654,0.21 L76.888,0.21 L76.888,10.01 Z M78.05,4.97 L78.05,1.274 L80.556,1.274 C81.83,1.274 82.768,1.736 82.768,3.122 C82.768,4.508 81.76,4.97 80.584,4.97 L78.05,4.97 Z" id="Shape"></path>
            <path d="M85.96,10.01 L87.122,10.01 L87.122,0.21 L85.96,0.21 L85.96,10.01 Z" id="Path"></path>
            <path d="M89.852,10.01 L95.746,10.01 L95.746,8.946 L91.014,8.946 L91.014,5.488 L95.354,5.488 L95.354,4.452 L91.014,4.452 L91.014,1.274 L95.746,1.274 L95.746,0.21 L89.852,0.21 L89.852,10.01 Z" id="Path"></path>
            <path d="M98.056,10.01 L99.218,10.01 L99.218,2.128 L99.246,2.128 L103.74,10.01 L104.958,10.01 L104.958,0.21 L103.81,0.21 L103.81,8.092 L103.782,8.092 L99.316,0.21 L98.056,0.21 L98.056,10.01 Z" id="Path"></path>
            <path d="M111.216,1.106 C112.896,1.106 113.498,2.296 113.722,3.626 L114.898,3.416 C114.632,1.428 113.33,0 111.216,0 C109.088,0 107.058,1.652 107.058,5.026 C107.058,8.778 109.102,10.22 111.216,10.22 C113.428,10.22 114.744,8.778 114.926,6.524 L113.708,6.37 C113.554,7.868 112.966,9.128 111.216,9.128 C109.564,9.128 108.29,7.826 108.29,5.026 C108.29,2.31 109.648,1.106 111.216,1.106 Z" id="Path"></path>
            <path d="M116.956,10.01 L122.85,10.01 L122.85,8.946 L118.118,8.946 L118.118,5.488 L122.458,5.488 L122.458,4.452 L118.118,4.452 L118.118,1.274 L122.85,1.274 L122.85,0.21 L116.956,0.21 L116.956,10.01 Z" id="Path"></path>
            <path d="M126.322,8.946 L126.322,1.274 L128.128,1.274 C130.018,1.274 131.236,2.59 131.236,5.096 C131.236,7.868 130.004,8.946 128.044,8.946 L126.322,8.946 Z M125.16,10.01 L128.142,10.01 C130.312,10.01 132.468,8.848 132.468,5.096 C132.468,1.708 130.396,0.21 128.226,0.21 L125.16,0.21 L125.16,10.01 Z" id="Shape"></path>
            <path d="M137.368,6.636 C137.662,8.96 138.936,10.22 141.302,10.22 C143.528,10.22 144.718,8.904 144.718,7.378 C144.718,5.922 144.088,5.208 141.428,4.34 C139.286,3.64 138.992,3.29 138.992,2.576 C138.992,1.792 139.594,1.106 140.896,1.106 C142.394,1.106 142.926,1.876 143.136,2.954 L144.312,2.702 C144.06,0.868 142.66,0 140.896,0 C138.936,0 137.816,1.218 137.816,2.576 C137.816,3.976 138.754,4.69 140.854,5.362 C143.206,6.132 143.556,6.552 143.556,7.434 C143.556,8.302 142.884,9.128 141.344,9.128 C139.454,9.128 138.852,8.19 138.586,6.398 L137.368,6.636 Z" id="Path"></path>
            <path d="M150.206,9.128 C148.554,9.128 147.28,7.826 147.28,5.026 C147.28,2.31 148.638,1.106 150.206,1.106 C151.746,1.106 153.076,2.366 153.076,5.082 C153.076,7.882 151.816,9.128 150.206,9.128 Z M150.206,10.22 C152.292,10.22 154.308,8.834 154.308,5.082 C154.308,1.708 152.292,0 150.206,0 C148.078,0 146.048,1.652 146.048,5.026 C146.048,8.778 148.092,10.22 150.206,10.22 Z" id="Shape"></path>
            <path d="M156.408,10.01 L161.826,10.01 L161.826,8.946 L157.57,8.946 L157.57,0.21 L156.408,0.21 L156.408,10.01 Z" id="Path"></path>
            <path d="M163.646,10.01 L164.808,10.01 L164.808,0.21 L163.646,0.21 L163.646,10.01 Z" id="Path"></path>
            <path d="M168.7,8.946 L168.7,1.274 L170.506,1.274 C172.396,1.274 173.614,2.59 173.614,5.096 C173.614,7.868 172.382,8.946 170.422,8.946 L168.7,8.946 Z M167.538,10.01 L170.52,10.01 C172.69,10.01 174.846,8.848 174.846,5.096 C174.846,1.708 172.774,0.21 170.604,0.21 L167.538,0.21 L167.538,10.01 Z" id="Shape"></path>
            <path d="M176.946,10.01 L178.108,10.01 L178.108,0.21 L176.946,0.21 L176.946,10.01 Z" id="Path"></path>
            <path d="M182.896,10.01 L184.044,10.01 L184.044,1.274 L187.068,1.274 L187.068,0.21 L179.858,0.21 L179.858,1.274 L182.896,1.274 L182.896,10.01 Z" id="Path"></path>
            <path d="M190.862,10.01 L191.982,10.01 L191.982,5.88 L195.216,0.21 L193.928,0.21 L191.436,4.76 L191.408,4.76 L188.916,0.21 L187.628,0.21 L190.862,5.88 L190.862,10.01 Z" id="Path"></path>
            <path d="M201.418,8.946 L201.418,1.274 L203.224,1.274 C205.114,1.274 206.332,2.59 206.332,5.096 C206.332,7.868 205.1,8.946 203.14,8.946 L201.418,8.946 Z M200.256,10.01 L203.238,10.01 C205.408,10.01 207.564,8.848 207.564,5.096 C207.564,1.708 205.492,0.21 203.322,0.21 L200.256,0.21 L200.256,10.01 Z" id="Shape"></path>
            <path d="M209.594,10.01 L215.488,10.01 L215.488,8.946 L210.756,8.946 L210.756,5.488 L215.096,5.488 L215.096,4.452 L210.756,4.452 L210.756,1.274 L215.488,1.274 L215.488,0.21 L209.594,0.21 L209.594,10.01 Z" id="Path"></path>
            <path d="M220.206,10.01 L221.578,10.01 L224.966,0.21 L223.734,0.21 L220.906,8.596 L220.878,8.596 L217.994,0.21 L216.748,0.21 L220.206,10.01 Z" id="Path"></path>
            <path d="M226.576,11.494 C227.794,11.41 228.228,10.724 228.228,9.8 L228.228,8.358 L226.576,8.358 L226.576,10.01 L227.248,10.01 C227.248,10.458 227.108,10.766 226.576,10.864 L226.576,11.494 Z" id="Path"></path>
            <path d="M235.55,8.946 L235.55,1.274 L237.356,1.274 C239.246,1.274 240.464,2.59 240.464,5.096 C240.464,7.868 239.232,8.946 237.272,8.946 L235.55,8.946 Z M234.388,10.01 L237.37,10.01 C239.54,10.01 241.696,8.848 241.696,5.096 C241.696,1.708 239.624,0.21 237.454,0.21 L234.388,0.21 L234.388,10.01 Z" id="Shape"></path>
            <path d="M242.676,10.01 L243.852,10.01 L244.566,8.092 L248.962,8.092 L249.69,10.01 L250.866,10.01 L247.338,0.21 L246.204,0.21 L242.676,10.01 Z M244.916,7.084 L246.75,1.764 L246.778,1.764 L248.626,7.084 L244.916,7.084 Z" id="Shape"></path>
            <path d="M252.476,10.01 L253.638,10.01 L253.638,2.128 L253.666,2.128 L258.16,10.01 L259.378,10.01 L259.378,0.21 L258.23,0.21 L258.23,8.092 L258.202,8.092 L253.736,0.21 L252.476,0.21 L252.476,10.01 Z" id="Path"></path>
            <path d="M262.108,10.01 L263.27,10.01 L263.27,0.21 L262.108,0.21 L262.108,10.01 Z" id="Path"></path>
            <path d="M266,10.01 L271.894,10.01 L271.894,8.946 L267.162,8.946 L267.162,5.488 L271.502,5.488 L271.502,4.452 L267.162,4.452 L267.162,1.274 L271.894,1.274 L271.894,0.21 L266,0.21 L266,10.01 Z" id="Path"></path>
            <path d="M274.204,10.01 L279.622,10.01 L279.622,8.946 L275.366,8.946 L275.366,0.21 L274.204,0.21 L274.204,10.01 Z" id="Path"></path>
            <path d="M284.942,10.01 L286.104,10.01 L286.104,0.21 L284.942,0.21 L284.942,10.01 Z" id="Path"></path>
            <path d="M288.204,6.636 C288.498,8.96 289.772,10.22 292.138,10.22 C294.364,10.22 295.554,8.904 295.554,7.378 C295.554,5.922 294.924,5.208 292.264,4.34 C290.122,3.64 289.828,3.29 289.828,2.576 C289.828,1.792 290.43,1.106 291.732,1.106 C293.23,1.106 293.762,1.876 293.972,2.954 L295.148,2.702 C294.896,0.868 293.496,0 291.732,0 C289.772,0 288.652,1.218 288.652,2.576 C288.652,3.976 289.59,4.69 291.69,5.362 C294.042,6.132 294.392,6.552 294.392,7.434 C294.392,8.302 293.72,9.128 292.18,9.128 C290.29,9.128 289.688,8.19 289.422,6.398 L288.204,6.636 Z" id="Path"></path>
            <path d="M303.002,10.01 L304.15,10.01 L304.15,1.274 L307.174,1.274 L307.174,0.21 L299.964,0.21 L299.964,1.274 L303.002,1.274 L303.002,10.01 Z" id="Path"></path>
            <path d="M308.854,10.01 L310.016,10.01 L310.016,5.46 L314.398,5.46 L314.398,10.01 L315.546,10.01 L315.546,0.21 L314.398,0.21 L314.398,4.424 L310.016,4.424 L310.016,0.21 L308.854,0.21 L308.854,10.01 Z" id="Path"></path>
            <path d="M318.206,10.01 L324.1,10.01 L324.1,8.946 L319.368,8.946 L319.368,5.488 L323.708,5.488 L323.708,4.452 L319.368,4.452 L319.368,1.274 L324.1,1.274 L324.1,0.21 L318.206,0.21 L318.206,10.01 Z" id="Path"></path>
            <path d="M1.05,30.01 L2.184,30.01 L2.184,21.834 L2.212,21.834 L5.586,30.01 L5.95,30.01 L9.324,21.834 L9.352,21.834 L9.352,30.01 L10.486,30.01 L10.486,20.21 L8.848,20.21 L5.782,27.728 L5.754,27.728 L2.688,20.21 L1.05,20.21 L1.05,30.01 Z" id="Path"></path>
            <path d="M12.096,30.01 L13.272,30.01 L13.986,28.092 L18.382,28.092 L19.11,30.01 L20.286,30.01 L16.758,20.21 L15.624,20.21 L12.096,30.01 Z M14.336,27.084 L16.17,21.764 L16.198,21.764 L18.046,27.084 L14.336,27.084 Z" id="Shape"></path>
            <path d="M21.266,26.636 C21.56,28.96 22.834,30.22 25.2,30.22 C27.426,30.22 28.616,28.904 28.616,27.378 C28.616,25.922 27.986,25.208 25.326,24.34 C23.184,23.64 22.89,23.29 22.89,22.576 C22.89,21.792 23.492,21.106 24.794,21.106 C26.292,21.106 26.824,21.876 27.034,22.954 L28.21,22.702 C27.958,20.868 26.558,20 24.794,20 C22.834,20 21.714,21.218 21.714,22.576 C21.714,23.976 22.652,24.69 24.752,25.362 C27.104,26.132 27.454,26.552 27.454,27.434 C27.454,28.302 26.782,29.128 25.242,29.128 C23.352,29.128 22.75,28.19 22.484,26.398 L21.266,26.636 Z" id="Path"></path>
            <path d="M32.564,30.01 L33.712,30.01 L33.712,21.274 L36.736,21.274 L36.736,20.21 L29.526,20.21 L29.526,21.274 L32.564,21.274 L32.564,30.01 Z" id="Path"></path>
            <path d="M38.416,30.01 L44.31,30.01 L44.31,28.946 L39.578,28.946 L39.578,25.488 L43.918,25.488 L43.918,24.452 L39.578,24.452 L39.578,21.274 L44.31,21.274 L44.31,20.21 L38.416,20.21 L38.416,30.01 Z" id="Path"></path>
            <path d="M46.62,30.01 L47.782,30.01 L47.782,26.006 L50.008,26.006 L52.136,30.01 L53.438,30.01 L51.254,25.922 C52.654,25.67 53.662,24.76 53.662,23.122 C53.662,21.162 52.374,20.21 50.386,20.21 L46.62,20.21 L46.62,30.01 Z M47.782,24.97 L47.782,21.274 L50.288,21.274 C51.562,21.274 52.5,21.736 52.5,23.122 C52.5,24.508 51.492,24.97 50.316,24.97 L47.782,24.97 Z" id="Shape"></path>
            <path d="M55.622,30.01 L56.756,30.01 L56.756,21.834 L56.784,21.834 L60.158,30.01 L60.522,30.01 L63.896,21.834 L63.924,21.834 L63.924,30.01 L65.058,30.01 L65.058,20.21 L63.42,20.21 L60.354,27.728 L60.326,27.728 L57.26,20.21 L55.622,20.21 L55.622,30.01 Z" id="Path"></path>
            <path d="M67.788,30.01 L68.95,30.01 L68.95,20.21 L67.788,20.21 L67.788,30.01 Z" id="Path"></path>
            <path d="M71.68,30.01 L72.842,30.01 L72.842,22.128 L72.87,22.128 L77.364,30.01 L78.582,30.01 L78.582,20.21 L77.434,20.21 L77.434,28.092 L77.406,28.092 L72.94,20.21 L71.68,20.21 L71.68,30.01 Z" id="Path"></path>
            <path d="M82.404,28.946 L82.404,21.274 L84.21,21.274 C86.1,21.274 87.318,22.59 87.318,25.096 C87.318,27.868 86.086,28.946 84.126,28.946 L82.404,28.946 Z M81.242,30.01 L84.224,30.01 C86.394,30.01 88.55,28.848 88.55,25.096 C88.55,21.708 86.478,20.21 84.308,20.21 L81.242,20.21 L81.242,30.01 Z" id="Shape"></path>
            <path d="M94.08,30.01 L97.608,30.01 C100.03,30.01 101.066,28.876 101.066,27.112 C101.066,25.782 100.268,24.998 99.484,24.746 L99.484,24.704 C100.156,24.41 100.702,23.794 100.702,22.744 C100.702,21.302 99.61,20.21 97.846,20.21 L94.08,20.21 L94.08,30.01 Z M95.242,24.354 L95.242,21.274 L97.622,21.274 C98.826,21.274 99.554,21.806 99.554,22.814 C99.554,23.794 98.952,24.354 97.636,24.354 L95.242,24.354 Z M95.242,28.946 L95.242,25.39 L97.482,25.39 C99.106,25.39 99.918,25.838 99.918,27.112 C99.918,28.442 99.036,28.946 97.454,28.946 L95.242,28.946 Z" id="Shape"></path>
            <path d="M103.166,30.01 L109.06,30.01 L109.06,28.946 L104.328,28.946 L104.328,25.488 L108.668,25.488 L108.668,24.452 L104.328,24.452 L104.328,21.274 L109.06,21.274 L109.06,20.21 L103.166,20.21 L103.166,30.01 Z" id="Path"></path>
            <path d="M111.37,30.01 L112.532,30.01 L112.532,25.46 L116.914,25.46 L116.914,30.01 L118.062,30.01 L118.062,20.21 L116.914,20.21 L116.914,24.424 L112.532,24.424 L112.532,20.21 L111.37,20.21 L111.37,30.01 Z" id="Path"></path>
            <path d="M120.792,30.01 L121.954,30.01 L121.954,20.21 L120.792,20.21 L120.792,30.01 Z" id="Path"></path>
            <path d="M124.684,30.01 L125.846,30.01 L125.846,22.128 L125.874,22.128 L130.368,30.01 L131.586,30.01 L131.586,20.21 L130.438,20.21 L130.438,28.092 L130.41,28.092 L125.944,20.21 L124.684,20.21 L124.684,30.01 Z" id="Path"></path>
            <path d="M135.408,28.946 L135.408,21.274 L137.214,21.274 C139.104,21.274 140.322,22.59 140.322,25.096 C140.322,27.868 139.09,28.946 137.13,28.946 L135.408,28.946 Z M134.246,30.01 L137.228,30.01 C139.398,30.01 141.554,28.848 141.554,25.096 C141.554,21.708 139.482,20.21 137.312,20.21 L134.246,20.21 L134.246,30.01 Z" id="Shape"></path>
            <path d="M150.682,29.128 C149.03,29.128 147.756,27.826 147.756,25.026 C147.756,22.31 149.114,21.106 150.682,21.106 C152.222,21.106 153.552,22.366 153.552,25.082 C153.552,27.882 152.292,29.128 150.682,29.128 Z M150.682,30.22 C152.768,30.22 154.784,28.834 154.784,25.082 C154.784,21.708 152.768,20 150.682,20 C148.554,20 146.524,21.652 146.524,25.026 C146.524,28.778 148.568,30.22 150.682,30.22 Z" id="Shape"></path>
            <path d="M156.674,26.818 C156.674,29.086 157.976,30.22 160.146,30.22 C162.316,30.22 163.632,29.086 163.632,26.818 L163.632,20.21 L162.484,20.21 L162.484,26.762 C162.484,28.288 161.686,29.128 160.146,29.128 C158.62,29.128 157.836,28.302 157.836,26.734 L157.836,20.21 L156.674,20.21 L156.674,26.818 Z" id="Path"></path>
            <path d="M166.082,30.01 L167.244,30.01 L167.244,26.006 L169.47,26.006 L171.598,30.01 L172.9,30.01 L170.716,25.922 C172.116,25.67 173.124,24.76 173.124,23.122 C173.124,21.162 171.836,20.21 169.848,20.21 L166.082,20.21 L166.082,30.01 Z M167.244,24.97 L167.244,21.274 L169.75,21.274 C171.024,21.274 171.962,21.736 171.962,23.122 C171.962,24.508 170.954,24.97 169.778,24.97 L167.244,24.97 Z" id="Shape"></path>
            <path d="M177.954,26.636 C178.248,28.96 179.522,30.22 181.888,30.22 C184.114,30.22 185.304,28.904 185.304,27.378 C185.304,25.922 184.674,25.208 182.014,24.34 C179.872,23.64 179.578,23.29 179.578,22.576 C179.578,21.792 180.18,21.106 181.482,21.106 C182.98,21.106 183.512,21.876 183.722,22.954 L184.898,22.702 C184.646,20.868 183.246,20 181.482,20 C179.522,20 178.402,21.218 178.402,22.576 C178.402,23.976 179.34,24.69 181.44,25.362 C183.792,26.132 184.142,26.552 184.142,27.434 C184.142,28.302 183.47,29.128 181.93,29.128 C180.04,29.128 179.438,28.19 179.172,26.398 L177.954,26.636 Z" id="Path"></path>
            <path d="M187.194,30.01 L188.328,30.01 L188.328,21.834 L188.356,21.834 L191.73,30.01 L192.094,30.01 L195.468,21.834 L195.496,21.834 L195.496,30.01 L196.63,30.01 L196.63,20.21 L194.992,20.21 L191.926,27.728 L191.898,27.728 L188.832,20.21 L187.194,20.21 L187.194,30.01 Z" id="Path"></path>
            <path d="M198.24,30.01 L199.416,30.01 L200.13,28.092 L204.526,28.092 L205.254,30.01 L206.43,30.01 L202.902,20.21 L201.768,20.21 L198.24,30.01 Z M200.48,27.084 L202.314,21.764 L202.342,21.764 L204.19,27.084 L200.48,27.084 Z" id="Shape"></path>
            <path d="M208.04,30.01 L209.202,30.01 L209.202,26.006 L211.428,26.006 L213.556,30.01 L214.858,30.01 L212.674,25.922 C214.074,25.67 215.082,24.76 215.082,23.122 C215.082,21.162 213.794,20.21 211.806,20.21 L208.04,20.21 L208.04,30.01 Z M209.202,24.97 L209.202,21.274 L211.708,21.274 C212.982,21.274 213.92,21.736 213.92,23.122 C213.92,24.508 212.912,24.97 211.736,24.97 L209.202,24.97 Z" id="Shape"></path>
            <path d="M219.1,30.01 L220.248,30.01 L220.248,21.274 L223.272,21.274 L223.272,20.21 L216.062,20.21 L216.062,21.274 L219.1,21.274 L219.1,30.01 Z" id="Path"></path>
            <path d="M232.05,21.106 C233.73,21.106 234.332,22.296 234.556,23.626 L235.732,23.416 C235.466,21.428 234.164,20 232.05,20 C229.922,20 227.892,21.652 227.892,25.026 C227.892,28.778 229.936,30.22 232.05,30.22 C234.262,30.22 235.578,28.778 235.76,26.524 L234.542,26.37 C234.388,27.868 233.8,29.128 232.05,29.128 C230.398,29.128 229.124,27.826 229.124,25.026 C229.124,22.31 230.482,21.106 232.05,21.106 Z" id="Path"></path>
            <path d="M241.388,29.128 C239.736,29.128 238.462,27.826 238.462,25.026 C238.462,22.31 239.82,21.106 241.388,21.106 C242.928,21.106 244.258,22.366 244.258,25.082 C244.258,27.882 242.998,29.128 241.388,29.128 Z M241.388,30.22 C243.474,30.22 245.49,28.834 245.49,25.082 C245.49,21.708 243.474,20 241.388,20 C239.26,20 237.23,21.652 237.23,25.026 C237.23,28.778 239.274,30.22 241.388,30.22 Z" id="Shape"></path>
            <path d="M247.59,30.01 L248.752,30.01 L248.752,22.128 L248.78,22.128 L253.274,30.01 L254.492,30.01 L254.492,20.21 L253.344,20.21 L253.344,28.092 L253.316,28.092 L248.85,20.21 L247.59,20.21 L247.59,30.01 Z" id="Path"></path>
            <path d="M259.21,30.01 L260.358,30.01 L260.358,21.274 L263.382,21.274 L263.382,20.21 L256.172,20.21 L256.172,21.274 L259.21,21.274 L259.21,30.01 Z" id="Path"></path>
            <path d="M265.062,30.01 L266.224,30.01 L266.224,26.006 L268.45,26.006 L270.578,30.01 L271.88,30.01 L269.696,25.922 C271.096,25.67 272.104,24.76 272.104,23.122 C272.104,21.162 270.816,20.21 268.828,20.21 L265.062,20.21 L265.062,30.01 Z M266.224,24.97 L266.224,21.274 L268.73,21.274 C270.004,21.274 270.942,21.736 270.942,23.122 C270.942,24.508 269.934,24.97 268.758,24.97 L266.224,24.97 Z" id="Shape"></path>
            <path d="M273.014,30.01 L274.19,30.01 L274.904,28.092 L279.3,28.092 L280.028,30.01 L281.204,30.01 L277.676,20.21 L276.542,20.21 L273.014,30.01 Z M275.254,27.084 L277.088,21.764 L277.116,21.764 L278.964,27.084 L275.254,27.084 Z" id="Shape"></path>
            <path d="M286.412,21.106 C288.092,21.106 288.694,22.296 288.918,23.626 L290.094,23.416 C289.828,21.428 288.526,20 286.412,20 C284.284,20 282.254,21.652 282.254,25.026 C282.254,28.778 284.298,30.22 286.412,30.22 C288.624,30.22 289.94,28.778 290.122,26.524 L288.904,26.37 C288.75,27.868 288.162,29.128 286.412,29.128 C284.76,29.128 283.486,27.826 283.486,25.026 C283.486,22.31 284.844,21.106 286.412,21.106 Z" id="Path"></path>
            <path d="M294.21,30.01 L295.358,30.01 L295.358,21.274 L298.382,21.274 L298.382,20.21 L291.172,20.21 L291.172,21.274 L294.21,21.274 L294.21,30.01 Z" id="Path"></path>
            <path d="M299.432,26.636 C299.726,28.96 301,30.22 303.366,30.22 C305.592,30.22 306.782,28.904 306.782,27.378 C306.782,25.922 306.152,25.208 303.492,24.34 C301.35,23.64 301.056,23.29 301.056,22.576 C301.056,21.792 301.658,21.106 302.96,21.106 C304.458,21.106 304.99,21.876 305.2,22.954 L306.376,22.702 C306.124,20.868 304.724,20 302.96,20 C301,20 299.88,21.218 299.88,22.576 C299.88,23.976 300.818,24.69 302.918,25.362 C305.27,26.132 305.62,26.552 305.62,27.434 C305.62,28.302 304.948,29.128 303.408,29.128 C301.518,29.128 300.916,28.19 300.65,26.398 L299.432,26.636 Z" id="Path"></path>
            <path d="M308.672,30.01 L310.324,30.01 L310.324,28.358 L308.672,28.358 L308.672,30.01 Z" id="Path"></path>
            <path d="M1.05,50.01 L4.578,50.01 C7,50.01 8.036,48.876 8.036,47.112 C8.036,45.782 7.238,44.998 6.454,44.746 L6.454,44.704 C7.126,44.41 7.672,43.794 7.672,42.744 C7.672,41.302 6.58,40.21 4.816,40.21 L1.05,40.21 L1.05,50.01 Z M2.212,44.354 L2.212,41.274 L4.592,41.274 C5.796,41.274 6.524,41.806 6.524,42.814 C6.524,43.794 5.922,44.354 4.606,44.354 L2.212,44.354 Z M2.212,48.946 L2.212,45.39 L4.452,45.39 C6.076,45.39 6.888,45.838 6.888,47.112 C6.888,48.442 6.006,48.946 4.424,48.946 L2.212,48.946 Z" id="Shape"></path>
            <path d="M10.136,50.01 L16.03,50.01 L16.03,48.946 L11.298,48.946 L11.298,45.488 L15.638,45.488 L15.638,44.452 L11.298,44.452 L11.298,41.274 L16.03,41.274 L16.03,40.21 L10.136,40.21 L10.136,50.01 Z" id="Path"></path>
            <path d="M17.71,46.636 C18.004,48.96 19.278,50.22 21.644,50.22 C23.87,50.22 25.06,48.904 25.06,47.378 C25.06,45.922 24.43,45.208 21.77,44.34 C19.628,43.64 19.334,43.29 19.334,42.576 C19.334,41.792 19.936,41.106 21.238,41.106 C22.736,41.106 23.268,41.876 23.478,42.954 L24.654,42.702 C24.402,40.868 23.002,40 21.238,40 C19.278,40 18.158,41.218 18.158,42.576 C18.158,43.976 19.096,44.69 21.196,45.362 C23.548,46.132 23.898,46.552 23.898,47.434 C23.898,48.302 23.226,49.128 21.686,49.128 C19.796,49.128 19.194,48.19 18.928,46.398 L17.71,46.636 Z" id="Path"></path>
            <path d="M27.02,50.01 L28.182,50.01 L28.182,40.21 L27.02,40.21 L27.02,50.01 Z" id="Path"></path>
            <path d="M32.074,48.946 L32.074,41.274 L33.88,41.274 C35.77,41.274 36.988,42.59 36.988,45.096 C36.988,47.868 35.756,48.946 33.796,48.946 L32.074,48.946 Z M30.912,50.01 L33.894,50.01 C36.064,50.01 38.22,48.848 38.22,45.096 C38.22,41.708 36.148,40.21 33.978,40.21 L30.912,40.21 L30.912,50.01 Z" id="Shape"></path>
            <path d="M40.25,50.01 L46.144,50.01 L46.144,48.946 L41.412,48.946 L41.412,45.488 L45.752,45.488 L45.752,44.452 L41.412,44.452 L41.412,41.274 L46.144,41.274 L46.144,40.21 L40.25,40.21 L40.25,50.01 Z" id="Path"></path>
            <path d="M47.824,46.636 C48.118,48.96 49.392,50.22 51.758,50.22 C53.984,50.22 55.174,48.904 55.174,47.378 C55.174,45.922 54.544,45.208 51.884,44.34 C49.742,43.64 49.448,43.29 49.448,42.576 C49.448,41.792 50.05,41.106 51.352,41.106 C52.85,41.106 53.382,41.876 53.592,42.954 L54.768,42.702 C54.516,40.868 53.116,40 51.352,40 C49.392,40 48.272,41.218 48.272,42.576 C48.272,43.976 49.21,44.69 51.31,45.362 C53.662,46.132 54.012,46.552 54.012,47.434 C54.012,48.302 53.34,49.128 51.8,49.128 C49.91,49.128 49.308,48.19 49.042,46.398 L47.824,46.636 Z" id="Path"></path>
            <path d="M60.564,50.01 L61.726,50.01 L61.726,45.46 L66.108,45.46 L66.108,50.01 L67.256,50.01 L67.256,40.21 L66.108,40.21 L66.108,44.424 L61.726,44.424 L61.726,40.21 L60.564,40.21 L60.564,50.01 Z" id="Path"></path>
            <path d="M69.916,50.01 L75.81,50.01 L75.81,48.946 L71.078,48.946 L71.078,45.488 L75.418,45.488 L75.418,44.452 L71.078,44.452 L71.078,41.274 L75.81,41.274 L75.81,40.21 L69.916,40.21 L69.916,50.01 Z" id="Path"></path>
            <path d="M78.12,50.01 L83.538,50.01 L83.538,48.946 L79.282,48.946 L79.282,40.21 L78.12,40.21 L78.12,50.01 Z" id="Path"></path>
            <path d="M85.288,50.01 L86.45,50.01 L86.45,46.23 L89.082,46.23 C91.028,46.23 92.33,45.18 92.33,43.234 C92.33,41.26 90.972,40.21 89.054,40.21 L85.288,40.21 L85.288,50.01 Z M86.45,45.166 L86.45,41.274 L88.984,41.274 C90.118,41.274 91.154,41.82 91.154,43.234 C91.154,44.578 90.146,45.166 89.012,45.166 L86.45,45.166 Z" id="Shape"></path>
            <path d="M94.01,50.01 L95.172,50.01 L95.172,40.21 L94.01,40.21 L94.01,50.01 Z" id="Path"></path>
            <path d="M97.902,50.01 L99.064,50.01 L99.064,42.128 L99.092,42.128 L103.586,50.01 L104.804,50.01 L104.804,40.21 L103.656,40.21 L103.656,48.092 L103.628,48.092 L99.162,40.21 L97.902,40.21 L97.902,50.01 Z" id="Path"></path>
            <path d="M111.048,50.22 C113.246,50.22 114.8,48.75 114.8,46.16 L114.8,45.208 L111.174,45.208 L111.174,46.272 L113.638,46.272 C113.68,48.05 112.672,49.128 111.048,49.128 C109.41,49.128 108.122,47.798 108.122,45.012 C108.122,42.324 109.48,41.106 111.048,41.106 C112.63,41.106 113.288,42.17 113.554,43.444 L114.716,43.234 C114.394,41.33 112.994,40 111.048,40 C108.92,40 106.904,41.666 106.904,45.012 C106.904,48.75 108.892,50.22 111.048,50.22 Z" id="Path"></path>
            <path d="M120.4,50.01 L123.928,50.01 C126.35,50.01 127.386,48.876 127.386,47.112 C127.386,45.782 126.588,44.998 125.804,44.746 L125.804,44.704 C126.476,44.41 127.022,43.794 127.022,42.744 C127.022,41.302 125.93,40.21 124.166,40.21 L120.4,40.21 L120.4,50.01 Z M121.562,44.354 L121.562,41.274 L123.942,41.274 C125.146,41.274 125.874,41.806 125.874,42.814 C125.874,43.794 125.272,44.354 123.956,44.354 L121.562,44.354 Z M121.562,48.946 L121.562,45.39 L123.802,45.39 C125.426,45.39 126.238,45.838 126.238,47.112 C126.238,48.442 125.356,48.946 123.774,48.946 L121.562,48.946 Z" id="Shape"></path>
            <path d="M129.486,50.01 L130.648,50.01 L130.648,46.006 L132.874,46.006 L135.002,50.01 L136.304,50.01 L134.12,45.922 C135.52,45.67 136.528,44.76 136.528,43.122 C136.528,41.162 135.24,40.21 133.252,40.21 L129.486,40.21 L129.486,50.01 Z M130.648,44.97 L130.648,41.274 L133.154,41.274 C134.428,41.274 135.366,41.736 135.366,43.122 C135.366,44.508 134.358,44.97 133.182,44.97 L130.648,44.97 Z" id="Shape"></path>
            <path d="M138.558,50.01 L139.72,50.01 L139.72,40.21 L138.558,40.21 L138.558,50.01 Z" id="Path"></path>
            <path d="M142.45,50.01 L143.612,50.01 L143.612,42.128 L143.64,42.128 L148.134,50.01 L149.352,50.01 L149.352,40.21 L148.204,40.21 L148.204,48.092 L148.176,48.092 L143.71,40.21 L142.45,40.21 L142.45,50.01 Z" id="Path"></path>
            <path d="M155.596,50.22 C157.794,50.22 159.348,48.75 159.348,46.16 L159.348,45.208 L155.722,45.208 L155.722,46.272 L158.186,46.272 C158.228,48.05 157.22,49.128 155.596,49.128 C153.958,49.128 152.67,47.798 152.67,45.012 C152.67,42.324 154.028,41.106 155.596,41.106 C157.178,41.106 157.836,42.17 158.102,43.444 L159.264,43.234 C158.942,41.33 157.542,40 155.596,40 C153.468,40 151.452,41.666 151.452,45.012 C151.452,48.75 153.44,50.22 155.596,50.22 Z" id="Path"></path>
            <path d="M161.518,50.01 L162.68,50.01 L162.68,40.21 L161.518,40.21 L161.518,50.01 Z" id="Path"></path>
            <path d="M165.41,50.01 L166.572,50.01 L166.572,42.128 L166.6,42.128 L171.094,50.01 L172.312,50.01 L172.312,40.21 L171.164,40.21 L171.164,48.092 L171.136,48.092 L166.67,40.21 L165.41,40.21 L165.41,50.01 Z" id="Path"></path>
            <path d="M178.556,50.22 C180.754,50.22 182.308,48.75 182.308,46.16 L182.308,45.208 L178.682,45.208 L178.682,46.272 L181.146,46.272 C181.188,48.05 180.18,49.128 178.556,49.128 C176.918,49.128 175.63,47.798 175.63,45.012 C175.63,42.324 176.988,41.106 178.556,41.106 C180.138,41.106 180.796,42.17 181.062,43.444 L182.224,43.234 C181.902,41.33 180.502,40 178.556,40 C176.428,40 174.412,41.666 174.412,45.012 C174.412,48.75 176.4,50.22 178.556,50.22 Z" id="Path"></path>
            <path d="M187.908,50.01 L191.436,50.01 C193.858,50.01 194.894,48.876 194.894,47.112 C194.894,45.782 194.096,44.998 193.312,44.746 L193.312,44.704 C193.984,44.41 194.53,43.794 194.53,42.744 C194.53,41.302 193.438,40.21 191.674,40.21 L187.908,40.21 L187.908,50.01 Z M189.07,44.354 L189.07,41.274 L191.45,41.274 C192.654,41.274 193.382,41.806 193.382,42.814 C193.382,43.794 192.78,44.354 191.464,44.354 L189.07,44.354 Z M189.07,48.946 L189.07,45.39 L191.31,45.39 C192.934,45.39 193.746,45.838 193.746,47.112 C193.746,48.442 192.864,48.946 191.282,48.946 L189.07,48.946 Z" id="Shape"></path>
            <path d="M196.994,50.01 L198.156,50.01 L198.156,46.006 L200.382,46.006 L202.51,50.01 L203.812,50.01 L201.628,45.922 C203.028,45.67 204.036,44.76 204.036,43.122 C204.036,41.162 202.748,40.21 200.76,40.21 L196.994,40.21 L196.994,50.01 Z M198.156,44.97 L198.156,41.274 L200.662,41.274 C201.936,41.274 202.874,41.736 202.874,43.122 C202.874,44.508 201.866,44.97 200.69,44.97 L198.156,44.97 Z" id="Shape"></path>
            <path d="M204.946,50.01 L206.122,50.01 L206.836,48.092 L211.232,48.092 L211.96,50.01 L213.136,50.01 L209.608,40.21 L208.474,40.21 L204.946,50.01 Z M207.186,47.084 L209.02,41.764 L209.048,41.764 L210.896,47.084 L207.186,47.084 Z" id="Shape"></path>
            <path d="M214.746,50.01 L215.908,50.01 L215.908,42.128 L215.936,42.128 L220.43,50.01 L221.648,50.01 L221.648,40.21 L220.5,40.21 L220.5,48.092 L220.472,48.092 L216.006,40.21 L214.746,40.21 L214.746,50.01 Z" id="Path"></path>
            <path d="M225.47,48.946 L225.47,41.274 L227.276,41.274 C229.166,41.274 230.384,42.59 230.384,45.096 C230.384,47.868 229.152,48.946 227.192,48.946 L225.47,48.946 Z M224.308,50.01 L227.29,50.01 C229.46,50.01 231.616,48.848 231.616,45.096 C231.616,41.708 229.544,40.21 227.374,40.21 L224.308,40.21 L224.308,50.01 Z" id="Shape"></path>
            <path d="M233.016,46.636 C233.31,48.96 234.584,50.22 236.95,50.22 C239.176,50.22 240.366,48.904 240.366,47.378 C240.366,45.922 239.736,45.208 237.076,44.34 C234.934,43.64 234.64,43.29 234.64,42.576 C234.64,41.792 235.242,41.106 236.544,41.106 C238.042,41.106 238.574,41.876 238.784,42.954 L239.96,42.702 C239.708,40.868 238.308,40 236.544,40 C234.584,40 233.464,41.218 233.464,42.576 C233.464,43.976 234.402,44.69 236.502,45.362 C238.854,46.132 239.204,46.552 239.204,47.434 C239.204,48.302 238.532,49.128 236.992,49.128 C235.102,49.128 234.5,48.19 234.234,46.398 L233.016,46.636 Z" id="Path"></path>
            <path d="M245.126,46.636 C245.42,48.96 246.694,50.22 249.06,50.22 C251.286,50.22 252.476,48.904 252.476,47.378 C252.476,45.922 251.846,45.208 249.186,44.34 C247.044,43.64 246.75,43.29 246.75,42.576 C246.75,41.792 247.352,41.106 248.654,41.106 C250.152,41.106 250.684,41.876 250.894,42.954 L252.07,42.702 C251.818,40.868 250.418,40 248.654,40 C246.694,40 245.574,41.218 245.574,42.576 C245.574,43.976 246.512,44.69 248.612,45.362 C250.964,46.132 251.314,46.552 251.314,47.434 C251.314,48.302 250.642,49.128 249.102,49.128 C247.212,49.128 246.61,48.19 246.344,46.398 L245.126,46.636 Z" id="Path"></path>
            <path d="M254.156,46.818 C254.156,49.086 255.458,50.22 257.628,50.22 C259.798,50.22 261.114,49.086 261.114,46.818 L261.114,40.21 L259.966,40.21 L259.966,46.762 C259.966,48.288 259.168,49.128 257.628,49.128 C256.102,49.128 255.318,48.302 255.318,46.734 L255.318,40.21 L254.156,40.21 L254.156,46.818 Z" id="Path"></path>
            <path d="M267.162,41.106 C268.842,41.106 269.444,42.296 269.668,43.626 L270.844,43.416 C270.578,41.428 269.276,40 267.162,40 C265.034,40 263.004,41.652 263.004,45.026 C263.004,48.778 265.048,50.22 267.162,50.22 C269.374,50.22 270.69,48.778 270.872,46.524 L269.654,46.37 C269.5,47.868 268.912,49.128 267.162,49.128 C265.51,49.128 264.236,47.826 264.236,45.026 C264.236,42.31 265.594,41.106 267.162,41.106 Z" id="Path"></path>
            <path d="M272.902,50.01 L274.064,50.01 L274.064,45.46 L278.446,45.46 L278.446,50.01 L279.594,50.01 L279.594,40.21 L278.446,40.21 L278.446,44.424 L274.064,44.424 L274.064,40.21 L272.902,40.21 L272.902,50.01 Z" id="Path"></path>
            <path d="M284.704,50.01 L285.88,50.01 L286.594,48.092 L290.99,48.092 L291.718,50.01 L292.894,50.01 L289.366,40.21 L288.232,40.21 L284.704,50.01 Z M286.944,47.084 L288.778,41.764 L288.806,41.764 L290.654,47.084 L286.944,47.084 Z" id="Shape"></path>
            <path d="M293.874,46.636 C294.168,48.96 295.442,50.22 297.808,50.22 C300.034,50.22 301.224,48.904 301.224,47.378 C301.224,45.922 300.594,45.208 297.934,44.34 C295.792,43.64 295.498,43.29 295.498,42.576 C295.498,41.792 296.1,41.106 297.402,41.106 C298.9,41.106 299.432,41.876 299.642,42.954 L300.818,42.702 C300.566,40.868 299.166,40 297.402,40 C295.442,40 294.322,41.218 294.322,42.576 C294.322,43.976 295.26,44.69 297.36,45.362 C299.712,46.132 300.062,46.552 300.062,47.434 C300.062,48.302 299.39,49.128 297.85,49.128 C295.96,49.128 295.358,48.19 295.092,46.398 L293.874,46.636 Z" id="Path"></path>
            <path d="M1.05,70.01 L2.212,70.01 L2.212,65.46 L6.594,65.46 L6.594,70.01 L7.742,70.01 L7.742,60.21 L6.594,60.21 L6.594,64.424 L2.212,64.424 L2.212,60.21 L1.05,60.21 L1.05,70.01 Z" id="Path"></path>
            <path d="M10.472,70.01 L11.634,70.01 L11.634,60.21 L10.472,60.21 L10.472,70.01 Z" id="Path"></path>
            <path d="M17.948,70.22 C20.146,70.22 21.7,68.75 21.7,66.16 L21.7,65.208 L18.074,65.208 L18.074,66.272 L20.538,66.272 C20.58,68.05 19.572,69.128 17.948,69.128 C16.31,69.128 15.022,67.798 15.022,65.012 C15.022,62.324 16.38,61.106 17.948,61.106 C19.53,61.106 20.188,62.17 20.454,63.444 L21.616,63.234 C21.294,61.33 19.894,60 17.948,60 C15.82,60 13.804,61.666 13.804,65.012 C13.804,68.75 15.792,70.22 17.948,70.22 Z" id="Path"></path>
            <path d="M23.8,70.01 L24.962,70.01 L24.962,65.46 L29.344,65.46 L29.344,70.01 L30.492,70.01 L30.492,60.21 L29.344,60.21 L29.344,64.424 L24.962,64.424 L24.962,60.21 L23.8,60.21 L23.8,70.01 Z" id="Path"></path>
            <path d="M32.522,66.636 C32.816,68.96 34.09,70.22 36.456,70.22 C38.682,70.22 39.872,68.904 39.872,67.378 C39.872,65.922 39.242,65.208 36.582,64.34 C34.44,63.64 34.146,63.29 34.146,62.576 C34.146,61.792 34.748,61.106 36.05,61.106 C37.548,61.106 38.08,61.876 38.29,62.954 L39.466,62.702 C39.214,60.868 37.814,60 36.05,60 C34.09,60 32.97,61.218 32.97,62.576 C32.97,63.976 33.908,64.69 36.008,65.362 C38.36,66.132 38.71,66.552 38.71,67.434 C38.71,68.302 38.038,69.128 36.498,69.128 C34.608,69.128 34.006,68.19 33.74,66.398 L32.522,66.636 Z" id="Path"></path>
            <path d="M41.762,70.01 L42.924,70.01 L42.924,62.128 L42.952,62.128 L47.446,70.01 L48.664,70.01 L48.664,60.21 L47.516,60.21 L47.516,68.092 L47.488,68.092 L43.022,60.21 L41.762,60.21 L41.762,70.01 Z" id="Path"></path>
            <path d="M54.922,69.128 C53.27,69.128 51.996,67.826 51.996,65.026 C51.996,62.31 53.354,61.106 54.922,61.106 C56.462,61.106 57.792,62.366 57.792,65.082 C57.792,67.882 56.532,69.128 54.922,69.128 Z M54.922,70.22 C57.008,70.22 59.024,68.834 59.024,65.082 C59.024,61.708 57.008,60 54.922,60 C52.794,60 50.764,61.652 50.764,65.026 C50.764,68.778 52.808,70.22 54.922,70.22 Z" id="Shape"></path>
            <path d="M61.124,70.01 L64.652,70.01 C67.074,70.01 68.11,68.876 68.11,67.112 C68.11,65.782 67.312,64.998 66.528,64.746 L66.528,64.704 C67.2,64.41 67.746,63.794 67.746,62.744 C67.746,61.302 66.654,60.21 64.89,60.21 L61.124,60.21 L61.124,70.01 Z M62.286,64.354 L62.286,61.274 L64.666,61.274 C65.87,61.274 66.598,61.806 66.598,62.814 C66.598,63.794 65.996,64.354 64.68,64.354 L62.286,64.354 Z M62.286,68.946 L62.286,65.39 L64.526,65.39 C66.15,65.39 66.962,65.838 66.962,67.112 C66.962,68.442 66.08,68.946 64.498,68.946 L62.286,68.946 Z" id="Shape"></path>
            <path d="M70.28,70.01 L71.442,70.01 L71.442,60.21 L70.28,60.21 L70.28,70.01 Z" id="Path"></path>
            <path d="M74.172,70.01 L80.066,70.01 L80.066,68.946 L75.334,68.946 L75.334,65.488 L79.674,65.488 L79.674,64.452 L75.334,64.452 L75.334,61.274 L80.066,61.274 L80.066,60.21 L74.172,60.21 L74.172,70.01 Z" id="Path"></path>
            <path d="M84.434,70.01 L85.582,70.01 L85.582,61.274 L88.606,61.274 L88.606,60.21 L81.396,60.21 L81.396,61.274 L84.434,61.274 L84.434,70.01 Z" id="Path"></path>
            <path d="M92.4,70.01 L93.52,70.01 L93.52,65.88 L96.754,60.21 L95.466,60.21 L92.974,64.76 L92.946,64.76 L90.454,60.21 L89.166,60.21 L92.4,65.88 L92.4,70.01 Z" id="Path"></path>
            <path d="M100.744,70.01 L101.92,70.01 L102.634,68.092 L107.03,68.092 L107.758,70.01 L108.934,70.01 L105.406,60.21 L104.272,60.21 L100.744,70.01 Z M102.984,67.084 L104.818,61.764 L104.846,61.764 L106.694,67.084 L102.984,67.084 Z" id="Shape"></path>
            <path d="M110.544,70.01 L111.706,70.01 L111.706,62.128 L111.734,62.128 L116.228,70.01 L117.446,70.01 L117.446,60.21 L116.298,60.21 L116.298,68.092 L116.27,68.092 L111.804,60.21 L110.544,60.21 L110.544,70.01 Z" id="Path"></path>
            <path d="M121.268,68.946 L121.268,61.274 L123.074,61.274 C124.964,61.274 126.182,62.59 126.182,65.096 C126.182,67.868 124.95,68.946 122.99,68.946 L121.268,68.946 Z M120.106,70.01 L123.088,70.01 C125.258,70.01 127.414,68.848 127.414,65.096 C127.414,61.708 125.342,60.21 123.172,60.21 L120.106,60.21 L120.106,70.01 Z" id="Shape"></path>
            <path d="M132.944,70.01 L134.106,70.01 L134.106,66.23 L136.738,66.23 C138.684,66.23 139.986,65.18 139.986,63.234 C139.986,61.26 138.628,60.21 136.71,60.21 L132.944,60.21 L132.944,70.01 Z M134.106,65.166 L134.106,61.274 L136.64,61.274 C137.774,61.274 138.81,61.82 138.81,63.234 C138.81,64.578 137.802,65.166 136.668,65.166 L134.106,65.166 Z" id="Shape"></path>
            <path d="M145.194,69.128 C143.542,69.128 142.268,67.826 142.268,65.026 C142.268,62.31 143.626,61.106 145.194,61.106 C146.734,61.106 148.064,62.366 148.064,65.082 C148.064,67.882 146.804,69.128 145.194,69.128 Z M145.194,70.22 C147.28,70.22 149.296,68.834 149.296,65.082 C149.296,61.708 147.28,60 145.194,60 C143.066,60 141.036,61.652 141.036,65.026 C141.036,68.778 143.08,70.22 145.194,70.22 Z" id="Shape"></path>
            <path d="M151.396,70.01 L152.558,70.01 L152.558,66.006 L154.784,66.006 L156.912,70.01 L158.214,70.01 L156.03,65.922 C157.43,65.67 158.438,64.76 158.438,63.122 C158.438,61.162 157.15,60.21 155.162,60.21 L151.396,60.21 L151.396,70.01 Z M152.558,64.97 L152.558,61.274 L155.064,61.274 C156.338,61.274 157.276,61.736 157.276,63.122 C157.276,64.508 156.268,64.97 155.092,64.97 L152.558,64.97 Z" id="Shape"></path>
            <path d="M159.768,66.636 C160.062,68.96 161.336,70.22 163.702,70.22 C165.928,70.22 167.118,68.904 167.118,67.378 C167.118,65.922 166.488,65.208 163.828,64.34 C161.686,63.64 161.392,63.29 161.392,62.576 C161.392,61.792 161.994,61.106 163.296,61.106 C164.794,61.106 165.326,61.876 165.536,62.954 L166.712,62.702 C166.46,60.868 165.06,60 163.296,60 C161.336,60 160.216,61.218 160.216,62.576 C160.216,63.976 161.154,64.69 163.254,65.362 C165.606,66.132 165.956,66.552 165.956,67.434 C165.956,68.302 165.284,69.128 163.744,69.128 C161.854,69.128 161.252,68.19 160.986,66.398 L159.768,66.636 Z" id="Path"></path>
            <path d="M172.606,61.106 C174.286,61.106 174.888,62.296 175.112,63.626 L176.288,63.416 C176.022,61.428 174.72,60 172.606,60 C170.478,60 168.448,61.652 168.448,65.026 C168.448,68.778 170.492,70.22 172.606,70.22 C174.818,70.22 176.134,68.778 176.316,66.524 L175.098,66.37 C174.944,67.868 174.356,69.128 172.606,69.128 C170.954,69.128 169.68,67.826 169.68,65.026 C169.68,62.31 171.038,61.106 172.606,61.106 Z" id="Path"></path>
            <path d="M178.346,70.01 L179.508,70.01 L179.508,65.46 L183.89,65.46 L183.89,70.01 L185.038,70.01 L185.038,60.21 L183.89,60.21 L183.89,64.424 L179.508,64.424 L179.508,60.21 L178.346,60.21 L178.346,70.01 Z" id="Path"></path>
            <path d="M187.698,70.01 L193.592,70.01 L193.592,68.946 L188.86,68.946 L188.86,65.488 L193.2,65.488 L193.2,64.452 L188.86,64.452 L188.86,61.274 L193.592,61.274 L193.592,60.21 L187.698,60.21 L187.698,70.01 Z" id="Path"></path>
            <path d="M199.472,70.01 L200.634,70.01 L200.634,60.21 L199.472,60.21 L199.472,70.01 Z" id="Path"></path>
            <path d="M203.364,70.01 L204.526,70.01 L204.526,62.128 L204.554,62.128 L209.048,70.01 L210.266,70.01 L210.266,60.21 L209.118,60.21 L209.118,68.092 L209.09,68.092 L204.624,60.21 L203.364,60.21 L203.364,70.01 Z" id="Path"></path>
            <path d="M214.984,70.01 L216.132,70.01 L216.132,61.274 L219.156,61.274 L219.156,60.21 L211.946,60.21 L211.946,61.274 L214.984,61.274 L214.984,70.01 Z" id="Path"></path>
            <path d="M224.434,69.128 C222.782,69.128 221.508,67.826 221.508,65.026 C221.508,62.31 222.866,61.106 224.434,61.106 C225.974,61.106 227.304,62.366 227.304,65.082 C227.304,67.882 226.044,69.128 224.434,69.128 Z M224.434,70.22 C226.52,70.22 228.536,68.834 228.536,65.082 C228.536,61.708 226.52,60 224.434,60 C222.306,60 220.276,61.652 220.276,65.026 C220.276,68.778 222.32,70.22 224.434,70.22 Z" id="Shape"></path>
            <path d="M235.242,70.01 L236.684,70.01 L239.148,61.89 L239.176,61.89 L241.654,70.01 L243.082,70.01 L244.888,60.21 L243.698,60.21 L242.256,68.302 L242.228,68.302 L239.778,60.21 L238.56,60.21 L236.124,68.302 L236.096,68.302 L234.626,60.21 L233.436,60.21 L235.242,70.01 Z" id="Path"></path>
            <path d="M246.848,70.01 L252.742,70.01 L252.742,68.946 L248.01,68.946 L248.01,65.488 L252.35,65.488 L252.35,64.452 L248.01,64.452 L248.01,61.274 L252.742,61.274 L252.742,60.21 L246.848,60.21 L246.848,70.01 Z" id="Path"></path>
            <path d="M255.052,70.01 L258.58,70.01 C261.002,70.01 262.038,68.876 262.038,67.112 C262.038,65.782 261.24,64.998 260.456,64.746 L260.456,64.704 C261.128,64.41 261.674,63.794 261.674,62.744 C261.674,61.302 260.582,60.21 258.818,60.21 L255.052,60.21 L255.052,70.01 Z M256.214,64.354 L256.214,61.274 L258.594,61.274 C259.798,61.274 260.526,61.806 260.526,62.814 C260.526,63.794 259.924,64.354 258.608,64.354 L256.214,64.354 Z M256.214,68.946 L256.214,65.39 L258.454,65.39 C260.078,65.39 260.89,65.838 260.89,67.112 C260.89,68.442 260.008,68.946 258.426,68.946 L256.214,68.946 Z" id="Shape"></path>
            <path d="M266.444719,70.2766016 C265.287167,70.2766016 264.447486,69.9587305 263.925676,69.3229883 C263.403866,68.6872461 263.142961,67.9136458 263.142961,67.0021875 L264.428117,67.0021875 C264.482805,67.635651 264.601294,68.0959375 264.783586,68.3830469 C265.102596,68.8980208 265.679094,69.1555078 266.513078,69.1555078 C267.160214,69.1555078 267.679745,68.9823307 268.071672,68.6359766 C268.463599,68.2896224 268.659563,67.8430078 268.659563,67.2961328 C268.659563,66.6216536 268.453345,66.149974 268.04091,65.8810938 C267.628475,65.6122135 267.055396,65.4777734 266.321672,65.4777734 C266.239641,65.4777734 266.15647,65.4789128 266.07216,65.4811914 C265.98785,65.4834701 265.902401,65.486888 265.815813,65.4914453 L265.815813,64.4045313 C265.943417,64.4182031 266.050513,64.4273177 266.137102,64.431875 C266.22369,64.4364323 266.317115,64.4387109 266.417375,64.4387109 C266.877661,64.4387109 267.255917,64.3657943 267.552141,64.2199609 C268.071672,63.9647526 268.331438,63.5090234 268.331438,62.8527734 C268.331438,62.3651432 268.15826,61.9891667 267.811906,61.7248438 C267.465552,61.4605208 267.062232,61.3283594 266.601945,61.3283594 C265.781633,61.3283594 265.21425,61.6017969 264.899797,62.1486719 C264.72662,62.4494531 264.628638,62.8778385 264.605852,63.4338281 L263.389055,63.4338281 C263.389055,62.7046615 263.534888,62.0848698 263.826555,61.5744531 C264.327857,60.6629948 265.209693,60.2072656 266.472063,60.2072656 C267.470109,60.2072656 268.24257,60.4294336 268.789445,60.8737695 C269.33632,61.3181055 269.609758,61.9618229 269.609758,62.8049219 C269.609758,63.4064844 269.447974,63.8941146 269.124406,64.2678125 C268.923885,64.5002344 268.66412,64.682526 268.345109,64.8146875 C268.860083,64.9559635 269.262264,65.2282617 269.551652,65.631582 C269.84104,66.0349023 269.985734,66.5282292 269.985734,67.1115625 C269.985734,68.0458073 269.678117,68.806875 269.062883,69.3947656 C268.447648,69.9826563 267.574927,70.2766016 266.444719,70.2766016 Z" id="Path"></path>
            <path d="M271.924133,71.494 C273.142133,71.41 273.576133,70.724 273.576133,69.8 L273.576133,68.358 L271.924133,68.358 L271.924133,70.01 L272.596133,70.01 C272.596133,70.458 272.456133,70.766 271.924133,70.864 L271.924133,71.494 Z" id="Path"></path>
            <path d="M279.736133,70.01 L280.898133,70.01 L280.898133,65.46 L285.280133,65.46 L285.280133,70.01 L286.428133,70.01 L286.428133,60.21 L285.280133,60.21 L285.280133,64.424 L280.898133,64.424 L280.898133,60.21 L279.736133,60.21 L279.736133,70.01 Z" id="Path"></path>
            <path d="M289.088133,70.01 L294.982133,70.01 L294.982133,68.946 L290.250133,68.946 L290.250133,65.488 L294.590133,65.488 L294.590133,64.452 L290.250133,64.452 L290.250133,61.274 L294.982133,61.274 L294.982133,60.21 L289.088133,60.21 L289.088133,70.01 Z" id="Path"></path>
            <path d="M0,90.01 L1.176,90.01 L1.89,88.092 L6.286,88.092 L7.014,90.01 L8.19,90.01 L4.662,80.21 L3.528,80.21 L0,90.01 Z M2.24,87.084 L4.074,81.764 L4.102,81.764 L5.95,87.084 L2.24,87.084 Z" id="Shape"></path>
            <path d="M9.8,90.01 L15.218,90.01 L15.218,88.946 L10.962,88.946 L10.962,80.21 L9.8,80.21 L9.8,90.01 Z" id="Path"></path>
            <path d="M16.338,86.636 C16.632,88.96 17.906,90.22 20.272,90.22 C22.498,90.22 23.688,88.904 23.688,87.378 C23.688,85.922 23.058,85.208 20.398,84.34 C18.256,83.64 17.962,83.29 17.962,82.576 C17.962,81.792 18.564,81.106 19.866,81.106 C21.364,81.106 21.896,81.876 22.106,82.954 L23.282,82.702 C23.03,80.868 21.63,80 19.866,80 C17.906,80 16.786,81.218 16.786,82.576 C16.786,83.976 17.724,84.69 19.824,85.362 C22.176,86.132 22.526,86.552 22.526,87.434 C22.526,88.302 21.854,89.128 20.314,89.128 C18.424,89.128 17.822,88.19 17.556,86.398 L16.338,86.636 Z" id="Path"></path>
            <path d="M29.176,89.128 C27.524,89.128 26.25,87.826 26.25,85.026 C26.25,82.31 27.608,81.106 29.176,81.106 C30.716,81.106 32.046,82.366 32.046,85.082 C32.046,87.882 30.786,89.128 29.176,89.128 Z M29.176,90.22 C31.262,90.22 33.278,88.834 33.278,85.082 C33.278,81.708 31.262,80 29.176,80 C27.048,80 25.018,81.652 25.018,85.026 C25.018,88.778 27.062,90.22 29.176,90.22 Z" id="Shape"></path>
            <path d="M42.462,90.22 C44.66,90.22 46.214,88.75 46.214,86.16 L46.214,85.208 L42.588,85.208 L42.588,86.272 L45.052,86.272 C45.094,88.05 44.086,89.128 42.462,89.128 C40.824,89.128 39.536,87.798 39.536,85.012 C39.536,82.324 40.894,81.106 42.462,81.106 C44.044,81.106 44.702,82.17 44.968,83.444 L46.13,83.234 C45.808,81.33 44.408,80 42.462,80 C40.334,80 38.318,81.666 38.318,85.012 C38.318,88.75 40.306,90.22 42.462,90.22 Z" id="Path"></path>
            <path d="M48.384,90.01 L49.546,90.01 L49.546,80.21 L48.384,80.21 L48.384,90.01 Z" id="Path"></path>
            <path d="M54.684,90.01 L56.056,90.01 L59.444,80.21 L58.212,80.21 L55.384,88.596 L55.356,88.596 L52.472,80.21 L51.226,80.21 L54.684,90.01 Z" id="Path"></path>
            <path d="M61.054,90.01 L66.948,90.01 L66.948,88.946 L62.216,88.946 L62.216,85.488 L66.556,85.488 L66.556,84.452 L62.216,84.452 L62.216,81.274 L66.948,81.274 L66.948,80.21 L61.054,80.21 L61.054,90.01 Z" id="Path"></path>
            <path d="M68.628,86.636 C68.922,88.96 70.196,90.22 72.562,90.22 C74.788,90.22 75.978,88.904 75.978,87.378 C75.978,85.922 75.348,85.208 72.688,84.34 C70.546,83.64 70.252,83.29 70.252,82.576 C70.252,81.792 70.854,81.106 72.156,81.106 C73.654,81.106 74.186,81.876 74.396,82.954 L75.572,82.702 C75.32,80.868 73.92,80 72.156,80 C70.196,80 69.076,81.218 69.076,82.576 C69.076,83.976 70.014,84.69 72.114,85.362 C74.466,86.132 74.816,86.552 74.816,87.434 C74.816,88.302 74.144,89.128 72.604,89.128 C70.714,89.128 70.112,88.19 69.846,86.398 L68.628,86.636 Z" id="Path"></path>
            <path d="M81.368,90.01 L86.786,90.01 L86.786,88.946 L82.53,88.946 L82.53,80.21 L81.368,80.21 L81.368,90.01 Z" id="Path"></path>
            <path d="M88.536,90.01 L94.43,90.01 L94.43,88.946 L89.698,88.946 L89.698,85.488 L94.038,85.488 L94.038,84.452 L89.698,84.452 L89.698,81.274 L94.43,81.274 L94.43,80.21 L88.536,80.21 L88.536,90.01 Z" id="Path"></path>
            <path d="M100.338,81.106 C102.018,81.106 102.62,82.296 102.844,83.626 L104.02,83.416 C103.754,81.428 102.452,80 100.338,80 C98.21,80 96.18,81.652 96.18,85.026 C96.18,88.778 98.224,90.22 100.338,90.22 C102.55,90.22 103.866,88.778 104.048,86.524 L102.83,86.37 C102.676,87.868 102.088,89.128 100.338,89.128 C98.686,89.128 97.412,87.826 97.412,85.026 C97.412,82.31 98.77,81.106 100.338,81.106 Z" id="Path"></path>
            <path d="M108.136,90.01 L109.284,90.01 L109.284,81.274 L112.308,81.274 L112.308,80.21 L105.098,80.21 L105.098,81.274 L108.136,81.274 L108.136,90.01 Z" id="Path"></path>
            <path d="M113.778,86.818 C113.778,89.086 115.08,90.22 117.25,90.22 C119.42,90.22 120.736,89.086 120.736,86.818 L120.736,80.21 L119.588,80.21 L119.588,86.762 C119.588,88.288 118.79,89.128 117.25,89.128 C115.724,89.128 114.94,88.302 114.94,86.734 L114.94,80.21 L113.778,80.21 L113.778,86.818 Z" id="Path"></path>
            <path d="M123.186,90.01 L124.348,90.01 L124.348,86.006 L126.574,86.006 L128.702,90.01 L130.004,90.01 L127.82,85.922 C129.22,85.67 130.228,84.76 130.228,83.122 C130.228,81.162 128.94,80.21 126.952,80.21 L123.186,80.21 L123.186,90.01 Z M124.348,84.97 L124.348,81.274 L126.854,81.274 C128.128,81.274 129.066,81.736 129.066,83.122 C129.066,84.508 128.058,84.97 126.882,84.97 L124.348,84.97 Z" id="Shape"></path>
            <path d="M132.188,90.01 L138.082,90.01 L138.082,88.946 L133.35,88.946 L133.35,85.488 L137.69,85.488 L137.69,84.452 L133.35,84.452 L133.35,81.274 L138.082,81.274 L138.082,80.21 L132.188,80.21 L132.188,90.01 Z" id="Path"></path>
            <path d="M139.762,86.636 C140.056,88.96 141.33,90.22 143.696,90.22 C145.922,90.22 147.112,88.904 147.112,87.378 C147.112,85.922 146.482,85.208 143.822,84.34 C141.68,83.64 141.386,83.29 141.386,82.576 C141.386,81.792 141.988,81.106 143.29,81.106 C144.788,81.106 145.32,81.876 145.53,82.954 L146.706,82.702 C146.454,80.868 145.054,80 143.29,80 C141.33,80 140.21,81.218 140.21,82.576 C140.21,83.976 141.148,84.69 143.248,85.362 C145.6,86.132 145.95,86.552 145.95,87.434 C145.95,88.302 145.278,89.128 143.738,89.128 C141.848,89.128 141.246,88.19 140.98,86.398 L139.762,86.636 Z" id="Path"></path>
            <path d="M156.1,89.128 C154.448,89.128 153.174,87.826 153.174,85.026 C153.174,82.31 154.532,81.106 156.1,81.106 C157.64,81.106 158.97,82.366 158.97,85.082 C158.97,87.882 157.71,89.128 156.1,89.128 Z M156.1,90.22 C158.186,90.22 160.202,88.834 160.202,85.082 C160.202,81.708 158.186,80 156.1,80 C153.972,80 151.942,81.652 151.942,85.026 C151.942,88.778 153.986,90.22 156.1,90.22 Z" id="Shape"></path>
            <path d="M162.302,90.01 L163.464,90.01 L163.464,82.128 L163.492,82.128 L167.986,90.01 L169.204,90.01 L169.204,80.21 L168.056,80.21 L168.056,88.092 L168.028,88.092 L163.562,80.21 L162.302,80.21 L162.302,90.01 Z" id="Path"></path>
            <path d="M174.314,90.01 L175.49,90.01 L176.204,88.092 L180.6,88.092 L181.328,90.01 L182.504,90.01 L178.976,80.21 L177.842,80.21 L174.314,90.01 Z M176.554,87.084 L178.388,81.764 L178.416,81.764 L180.264,87.084 L176.554,87.084 Z" id="Shape"></path>
            <path d="M184.114,90.01 L185.276,90.01 L185.276,82.128 L185.304,82.128 L189.798,90.01 L191.016,90.01 L191.016,80.21 L189.868,80.21 L189.868,88.092 L189.84,88.092 L185.374,80.21 L184.114,80.21 L184.114,90.01 Z" id="Path"></path>
            <path d="M194.838,88.946 L194.838,81.274 L196.644,81.274 C198.534,81.274 199.752,82.59 199.752,85.096 C199.752,87.868 198.52,88.946 196.56,88.946 L194.838,88.946 Z M193.676,90.01 L196.658,90.01 C198.828,90.01 200.984,88.848 200.984,85.096 C200.984,81.708 198.912,80.21 196.742,80.21 L193.676,80.21 L193.676,90.01 Z" id="Shape"></path>
            <path d="M206.514,90.01 L207.676,90.01 L207.676,85.46 L212.058,85.46 L212.058,90.01 L213.206,90.01 L213.206,80.21 L212.058,80.21 L212.058,84.424 L207.676,84.424 L207.676,80.21 L206.514,80.21 L206.514,90.01 Z" id="Path"></path>
            <path d="M219.464,89.128 C217.812,89.128 216.538,87.826 216.538,85.026 C216.538,82.31 217.896,81.106 219.464,81.106 C221.004,81.106 222.334,82.366 222.334,85.082 C222.334,87.882 221.074,89.128 219.464,89.128 Z M219.464,90.22 C221.55,90.22 223.566,88.834 223.566,85.082 C223.566,81.708 221.55,80 219.464,80 C217.336,80 215.306,81.652 215.306,85.026 C215.306,88.778 217.35,90.22 219.464,90.22 Z" id="Shape"></path>
            <path d="M225.666,90.01 L231.084,90.01 L231.084,88.946 L226.828,88.946 L226.828,80.21 L225.666,80.21 L225.666,90.01 Z" id="Path"></path>
            <path d="M233.996,88.946 L233.996,81.274 L235.802,81.274 C237.692,81.274 238.91,82.59 238.91,85.096 C238.91,87.868 237.678,88.946 235.718,88.946 L233.996,88.946 Z M232.834,90.01 L235.816,90.01 C237.986,90.01 240.142,88.848 240.142,85.096 C240.142,81.708 238.07,80.21 235.9,80.21 L232.834,80.21 L232.834,90.01 Z" id="Shape"></path>
            <path d="M241.542,86.636 C241.836,88.96 243.11,90.22 245.476,90.22 C247.702,90.22 248.892,88.904 248.892,87.378 C248.892,85.922 248.262,85.208 245.602,84.34 C243.46,83.64 243.166,83.29 243.166,82.576 C243.166,81.792 243.768,81.106 245.07,81.106 C246.568,81.106 247.1,81.876 247.31,82.954 L248.486,82.702 C248.234,80.868 246.834,80 245.07,80 C243.11,80 241.99,81.218 241.99,82.576 C241.99,83.976 242.928,84.69 245.028,85.362 C247.38,86.132 247.73,86.552 247.73,87.434 C247.73,88.302 247.058,89.128 245.518,89.128 C243.628,89.128 243.026,88.19 242.76,86.398 L241.542,86.636 Z" id="Path"></path>
            <path d="M256.34,90.01 L257.488,90.01 L257.488,81.274 L260.512,81.274 L260.512,80.21 L253.302,80.21 L253.302,81.274 L256.34,81.274 L256.34,90.01 Z" id="Path"></path>
            <path d="M261.142,90.01 L262.318,90.01 L263.032,88.092 L267.428,88.092 L268.156,90.01 L269.332,90.01 L265.804,80.21 L264.67,80.21 L261.142,90.01 Z M263.382,87.084 L265.216,81.764 L265.244,81.764 L267.092,87.084 L263.382,87.084 Z" id="Shape"></path>
            <path d="M270.942,90.01 L276.36,90.01 L276.36,88.946 L272.104,88.946 L272.104,80.21 L270.942,80.21 L270.942,90.01 Z" id="Path"></path>
            <path d="M277.97,90.01 L279.132,90.01 L279.132,86.622 L280.21,85.362 L280.238,85.362 L283.584,90.01 L284.984,90.01 L281.008,84.494 L284.592,80.21 L283.136,80.21 L279.16,84.998 L279.132,84.998 L279.132,80.21 L277.97,80.21 L277.97,90.01 Z" id="Path"></path>
            <path d="M285.754,86.636 C286.048,88.96 287.322,90.22 289.688,90.22 C291.914,90.22 293.104,88.904 293.104,87.378 C293.104,85.922 292.474,85.208 289.814,84.34 C287.672,83.64 287.378,83.29 287.378,82.576 C287.378,81.792 287.98,81.106 289.282,81.106 C290.78,81.106 291.312,81.876 291.522,82.954 L292.698,82.702 C292.446,80.868 291.046,80 289.282,80 C287.322,80 286.202,81.218 286.202,82.576 C286.202,83.976 287.14,84.69 289.24,85.362 C291.592,86.132 291.942,86.552 291.942,87.434 C291.942,88.302 291.27,89.128 289.73,89.128 C287.84,89.128 287.238,88.19 286.972,86.398 L285.754,86.636 Z" id="Path"></path>
            <path d="M0,110.01 L1.176,110.01 L1.89,108.092 L6.286,108.092 L7.014,110.01 L8.19,110.01 L4.662,100.21 L3.528,100.21 L0,110.01 Z M2.24,107.084 L4.074,101.764 L4.102,101.764 L5.95,107.084 L2.24,107.084 Z" id="Shape"></path>
            <path d="M9.8,110.01 L13.328,110.01 C15.75,110.01 16.786,108.876 16.786,107.112 C16.786,105.782 15.988,104.998 15.204,104.746 L15.204,104.704 C15.876,104.41 16.422,103.794 16.422,102.744 C16.422,101.302 15.33,100.21 13.566,100.21 L9.8,100.21 L9.8,110.01 Z M10.962,104.354 L10.962,101.274 L13.342,101.274 C14.546,101.274 15.274,101.806 15.274,102.814 C15.274,103.794 14.672,104.354 13.356,104.354 L10.962,104.354 Z M10.962,108.946 L10.962,105.39 L13.202,105.39 C14.826,105.39 15.638,105.838 15.638,107.112 C15.638,108.442 14.756,108.946 13.174,108.946 L10.962,108.946 Z" id="Shape"></path>
            <path d="M22.484,109.128 C20.832,109.128 19.558,107.826 19.558,105.026 C19.558,102.31 20.916,101.106 22.484,101.106 C24.024,101.106 25.354,102.366 25.354,105.082 C25.354,107.882 24.094,109.128 22.484,109.128 Z M22.484,110.22 C24.57,110.22 26.586,108.834 26.586,105.082 C26.586,101.708 24.57,100 22.484,100 C20.356,100 18.326,101.652 18.326,105.026 C18.326,108.778 20.37,110.22 22.484,110.22 Z" id="Shape"></path>
            <path d="M28.476,106.818 C28.476,109.086 29.778,110.22 31.948,110.22 C34.118,110.22 35.434,109.086 35.434,106.818 L35.434,100.21 L34.286,100.21 L34.286,106.762 C34.286,108.288 33.488,109.128 31.948,109.128 C30.422,109.128 29.638,108.302 29.638,106.734 L29.638,100.21 L28.476,100.21 L28.476,106.818 Z" id="Path"></path>
            <path d="M39.942,110.01 L41.09,110.01 L41.09,101.274 L44.114,101.274 L44.114,100.21 L36.904,100.21 L36.904,101.274 L39.942,101.274 L39.942,110.01 Z" id="Path"></path>
            <path d="M52.892,109.128 C51.24,109.128 49.966,107.826 49.966,105.026 C49.966,102.31 51.324,101.106 52.892,101.106 C54.432,101.106 55.762,102.366 55.762,105.082 C55.762,107.882 54.502,109.128 52.892,109.128 Z M52.892,110.22 C54.978,110.22 56.994,108.834 56.994,105.082 C56.994,101.708 54.978,100 52.892,100 C50.764,100 48.734,101.652 48.734,105.026 C48.734,108.778 50.778,110.22 52.892,110.22 Z" id="Shape"></path>
            <path d="M59.094,110.01 L60.256,110.01 L60.256,102.128 L60.284,102.128 L64.778,110.01 L65.996,110.01 L65.996,100.21 L64.848,100.21 L64.848,108.092 L64.82,108.092 L60.354,100.21 L59.094,100.21 L59.094,110.01 Z" id="Path"></path>
            <path d="M75.754,101.106 C77.434,101.106 78.036,102.296 78.26,103.626 L79.436,103.416 C79.17,101.428 77.868,100 75.754,100 C73.626,100 71.596,101.652 71.596,105.026 C71.596,108.778 73.64,110.22 75.754,110.22 C77.966,110.22 79.282,108.778 79.464,106.524 L78.246,106.37 C78.092,107.868 77.504,109.128 75.754,109.128 C74.102,109.128 72.828,107.826 72.828,105.026 C72.828,102.31 74.186,101.106 75.754,101.106 Z" id="Path"></path>
            <path d="M85.092,109.128 C83.44,109.128 82.166,107.826 82.166,105.026 C82.166,102.31 83.524,101.106 85.092,101.106 C86.632,101.106 87.962,102.366 87.962,105.082 C87.962,107.882 86.702,109.128 85.092,109.128 Z M85.092,110.22 C87.178,110.22 89.194,108.834 89.194,105.082 C89.194,101.708 87.178,100 85.092,100 C82.964,100 80.934,101.652 80.934,105.026 C80.934,108.778 82.978,110.22 85.092,110.22 Z" id="Shape"></path>
            <path d="M92.456,108.946 L92.456,101.274 L94.262,101.274 C96.152,101.274 97.37,102.59 97.37,105.096 C97.37,107.868 96.138,108.946 94.178,108.946 L92.456,108.946 Z M91.294,110.01 L94.276,110.01 C96.446,110.01 98.602,108.848 98.602,105.096 C98.602,101.708 96.53,100.21 94.36,100.21 L91.294,100.21 L91.294,110.01 Z" id="Shape"></path>
            <path d="M100.702,110.01 L101.864,110.01 L101.864,100.21 L100.702,100.21 L100.702,110.01 Z" id="Path"></path>
            <path d="M104.594,110.01 L105.756,110.01 L105.756,102.128 L105.784,102.128 L110.278,110.01 L111.496,110.01 L111.496,100.21 L110.348,100.21 L110.348,108.092 L110.32,108.092 L105.854,100.21 L104.594,100.21 L104.594,110.01 Z" id="Path"></path>
            <path d="M117.74,110.22 C119.938,110.22 121.492,108.75 121.492,106.16 L121.492,105.208 L117.866,105.208 L117.866,106.272 L120.33,106.272 C120.372,108.05 119.364,109.128 117.74,109.128 C116.102,109.128 114.814,107.798 114.814,105.012 C114.814,102.324 116.172,101.106 117.74,101.106 C119.322,101.106 119.98,102.17 120.246,103.444 L121.408,103.234 C121.086,101.33 119.686,100 117.74,100 C115.612,100 113.596,101.666 113.596,105.012 C113.596,108.75 115.584,110.22 117.74,110.22 Z" id="Path"></path>
            <path d="M126.042,110.01 L127.218,110.01 L127.932,108.092 L132.328,108.092 L133.056,110.01 L134.232,110.01 L130.704,100.21 L129.57,100.21 L126.042,110.01 Z M128.282,107.084 L130.116,101.764 L130.144,101.764 L131.992,107.084 L128.282,107.084 Z" id="Shape"></path>
            <path d="M135.842,110.01 L137.004,110.01 L137.004,102.128 L137.032,102.128 L141.526,110.01 L142.744,110.01 L142.744,100.21 L141.596,100.21 L141.596,108.092 L141.568,108.092 L137.102,100.21 L135.842,100.21 L135.842,110.01 Z" id="Path"></path>
            <path d="M146.566,108.946 L146.566,101.274 L148.372,101.274 C150.262,101.274 151.48,102.59 151.48,105.096 C151.48,107.868 150.248,108.946 148.288,108.946 L146.566,108.946 Z M145.404,110.01 L148.386,110.01 C150.556,110.01 152.712,108.848 152.712,105.096 C152.712,101.708 150.64,100.21 148.47,100.21 L145.404,100.21 L145.404,110.01 Z" id="Shape"></path>
            <path d="M159.348,110.01 L160.79,110.01 L163.254,101.89 L163.282,101.89 L165.76,110.01 L167.188,110.01 L168.994,100.21 L167.804,100.21 L166.362,108.302 L166.334,108.302 L163.884,100.21 L162.666,100.21 L160.23,108.302 L160.202,108.302 L158.732,100.21 L157.542,100.21 L159.348,110.01 Z" id="Path"></path>
            <path d="M170.954,110.01 L176.848,110.01 L176.848,108.946 L172.116,108.946 L172.116,105.488 L176.456,105.488 L176.456,104.452 L172.116,104.452 L172.116,101.274 L176.848,101.274 L176.848,100.21 L170.954,100.21 L170.954,110.01 Z" id="Path"></path>
            <path d="M179.158,110.01 L182.686,110.01 C185.108,110.01 186.144,108.876 186.144,107.112 C186.144,105.782 185.346,104.998 184.562,104.746 L184.562,104.704 C185.234,104.41 185.78,103.794 185.78,102.744 C185.78,101.302 184.688,100.21 182.924,100.21 L179.158,100.21 L179.158,110.01 Z M180.32,104.354 L180.32,101.274 L182.7,101.274 C183.904,101.274 184.632,101.806 184.632,102.814 C184.632,103.794 184.03,104.354 182.714,104.354 L180.32,104.354 Z M180.32,108.946 L180.32,105.39 L182.56,105.39 C184.184,105.39 184.996,105.838 184.996,107.112 C184.996,108.442 184.114,108.946 182.532,108.946 L180.32,108.946 Z" id="Shape"></path>
            <path d="M190.550719,110.276602 C189.393167,110.276602 188.553486,109.95873 188.031676,109.322988 C187.509866,108.687246 187.248961,107.913646 187.248961,107.002188 L188.534117,107.002188 C188.588805,107.635651 188.707294,108.095938 188.889586,108.383047 C189.208596,108.898021 189.785094,109.155508 190.619078,109.155508 C191.266214,109.155508 191.785745,108.982331 192.177672,108.635977 C192.569599,108.289622 192.765563,107.843008 192.765563,107.296133 C192.765563,106.621654 192.559345,106.149974 192.14691,105.881094 C191.734475,105.612214 191.161396,105.477773 190.427672,105.477773 C190.345641,105.477773 190.26247,105.478913 190.17816,105.481191 C190.09385,105.48347 190.008401,105.486888 189.921813,105.491445 L189.921813,104.404531 C190.049417,104.418203 190.156513,104.427318 190.243102,104.431875 C190.32969,104.436432 190.423115,104.438711 190.523375,104.438711 C190.983661,104.438711 191.361917,104.365794 191.658141,104.219961 C192.177672,103.964753 192.437438,103.509023 192.437438,102.852773 C192.437438,102.365143 192.26426,101.989167 191.917906,101.724844 C191.571552,101.460521 191.168232,101.328359 190.707945,101.328359 C189.887633,101.328359 189.32025,101.601797 189.005797,102.148672 C188.83262,102.449453 188.734638,102.877839 188.711852,103.433828 L187.495055,103.433828 C187.495055,102.704661 187.640888,102.08487 187.932555,101.574453 C188.433857,100.662995 189.315693,100.207266 190.578063,100.207266 C191.576109,100.207266 192.34857,100.429434 192.895445,100.87377 C193.44232,101.318105 193.715758,101.961823 193.715758,102.804922 C193.715758,103.406484 193.553974,103.894115 193.230406,104.267813 C193.029885,104.500234 192.77012,104.682526 192.451109,104.814688 C192.966083,104.955964 193.368264,105.228262 193.657652,105.631582 C193.94704,106.034902 194.091734,106.528229 194.091734,107.111563 C194.091734,108.045807 193.784117,108.806875 193.168883,109.394766 C192.553648,109.982656 191.680927,110.276602 190.550719,110.276602 Z" id="Path"></path>
            <path d="M198.480133,110.01 L199.656133,110.01 L200.370133,108.092 L204.766133,108.092 L205.494133,110.01 L206.670133,110.01 L203.142133,100.21 L202.008133,100.21 L198.480133,110.01 Z M200.720133,107.084 L202.554133,101.764 L202.582133,101.764 L204.430133,107.084 L200.720133,107.084 Z" id="Shape"></path>
            <path d="M208.280133,110.01 L209.442133,110.01 L209.442133,106.006 L211.668133,106.006 L213.796133,110.01 L215.098133,110.01 L212.914133,105.922 C214.314133,105.67 215.322133,104.76 215.322133,103.122 C215.322133,101.162 214.034133,100.21 212.046133,100.21 L208.280133,100.21 L208.280133,110.01 Z M209.442133,104.97 L209.442133,101.274 L211.948133,101.274 C213.222133,101.274 214.160133,101.736 214.160133,103.122 C214.160133,104.508 213.152133,104.97 211.976133,104.97 L209.442133,104.97 Z" id="Shape"></path>
            <path d="M220.880133,109.128 C219.228133,109.128 217.954133,107.826 217.954133,105.026 C217.954133,102.31 219.312133,101.106 220.880133,101.106 C222.420133,101.106 223.750133,102.366 223.750133,105.082 C223.750133,107.882 222.490133,109.128 220.880133,109.128 Z M220.880133,110.22 C222.966133,110.22 224.982133,108.834 224.982133,105.082 C224.982133,101.708 222.966133,100 220.880133,100 C218.752133,100 216.722133,101.652 216.722133,105.026 C216.722133,108.778 218.766133,110.22 220.880133,110.22 Z" id="Shape"></path>
            <path d="M226.872133,106.818 C226.872133,109.086 228.174133,110.22 230.344133,110.22 C232.514133,110.22 233.830133,109.086 233.830133,106.818 L233.830133,100.21 L232.682133,100.21 L232.682133,106.762 C232.682133,108.288 231.884133,109.128 230.344133,109.128 C228.818133,109.128 228.034133,108.302 228.034133,106.734 L228.034133,100.21 L226.872133,100.21 L226.872133,106.818 Z" id="Path"></path>
            <path d="M236.280133,110.01 L237.442133,110.01 L237.442133,102.128 L237.470133,102.128 L241.964133,110.01 L243.182133,110.01 L243.182133,100.21 L242.034133,100.21 L242.034133,108.092 L242.006133,108.092 L237.540133,100.21 L236.280133,100.21 L236.280133,110.01 Z" id="Path"></path>
            <path d="M247.004133,108.946 L247.004133,101.274 L248.810133,101.274 C250.700133,101.274 251.918133,102.59 251.918133,105.096 C251.918133,107.868 250.686133,108.946 248.726133,108.946 L247.004133,108.946 Z M245.842133,110.01 L248.824133,110.01 C250.994133,110.01 253.150133,108.848 253.150133,105.096 C253.150133,101.708 251.078133,100.21 248.908133,100.21 L245.842133,100.21 L245.842133,110.01 Z" id="Shape"></path>
            <path d="M260.738133,110.01 L261.886133,110.01 L261.886133,101.274 L264.910133,101.274 L264.910133,100.21 L257.700133,100.21 L257.700133,101.274 L260.738133,101.274 L260.738133,110.01 Z" id="Path"></path>
            <path d="M266.590133,110.01 L267.752133,110.01 L267.752133,105.46 L272.134133,105.46 L272.134133,110.01 L273.282133,110.01 L273.282133,100.21 L272.134133,100.21 L272.134133,104.424 L267.752133,104.424 L267.752133,100.21 L266.590133,100.21 L266.590133,110.01 Z" id="Path"></path>
            <path d="M275.942133,110.01 L281.836133,110.01 L281.836133,108.946 L277.104133,108.946 L277.104133,105.488 L281.444133,105.488 L281.444133,104.452 L277.104133,104.452 L277.104133,101.274 L281.836133,101.274 L281.836133,100.21 L275.942133,100.21 L275.942133,110.01 Z" id="Path"></path>
            <path d="M2.156,130.01 L3.598,130.01 L6.062,121.89 L6.09,121.89 L8.568,130.01 L9.996,130.01 L11.802,120.21 L10.612,120.21 L9.17,128.302 L9.142,128.302 L6.692,120.21 L5.474,120.21 L3.038,128.302 L3.01,128.302 L1.54,120.21 L0.35,120.21 L2.156,130.01 Z" id="Path"></path>
            <path d="M17.36,129.128 C15.708,129.128 14.434,127.826 14.434,125.026 C14.434,122.31 15.792,121.106 17.36,121.106 C18.9,121.106 20.23,122.366 20.23,125.082 C20.23,127.882 18.97,129.128 17.36,129.128 Z M17.36,130.22 C19.446,130.22 21.462,128.834 21.462,125.082 C21.462,121.708 19.446,120 17.36,120 C15.232,120 13.202,121.652 13.202,125.026 C13.202,128.778 15.246,130.22 17.36,130.22 Z" id="Shape"></path>
            <path d="M23.562,130.01 L24.724,130.01 L24.724,126.006 L26.95,126.006 L29.078,130.01 L30.38,130.01 L28.196,125.922 C29.596,125.67 30.604,124.76 30.604,123.122 C30.604,121.162 29.316,120.21 27.328,120.21 L23.562,120.21 L23.562,130.01 Z M24.724,124.97 L24.724,121.274 L27.23,121.274 C28.504,121.274 29.442,121.736 29.442,123.122 C29.442,124.508 28.434,124.97 27.258,124.97 L24.724,124.97 Z" id="Shape"></path>
            <path d="M32.564,130.01 L37.982,130.01 L37.982,128.946 L33.726,128.946 L33.726,120.21 L32.564,120.21 L32.564,130.01 Z" id="Path"></path>
            <path d="M40.894,128.946 L40.894,121.274 L42.7,121.274 C44.59,121.274 45.808,122.59 45.808,125.096 C45.808,127.868 44.576,128.946 42.616,128.946 L40.894,128.946 Z M39.732,130.01 L42.714,130.01 C44.884,130.01 47.04,128.848 47.04,125.096 C47.04,121.708 44.968,120.21 42.798,120.21 L39.732,120.21 L39.732,130.01 Z" id="Shape"></path>
            <path d="M49.07,130.01 L50.722,130.01 L50.722,128.358 L49.07,128.358 L49.07,130.01 Z" id="Path"></path>
            <path d="M4.648,161.106 C6.328,161.106 6.93,162.296 7.154,163.626 L8.33,163.416 C8.064,161.428 6.762,160 4.648,160 C2.52,160 0.49,161.652 0.49,165.026 C0.49,168.778 2.534,170.22 4.648,170.22 C6.86,170.22 8.176,168.778 8.358,166.524 L7.14,166.37 C6.986,167.868 6.398,169.128 4.648,169.128 C2.996,169.128 1.722,167.826 1.722,165.026 C1.722,162.31 3.08,161.106 4.648,161.106 Z" id="Path"></path>
            <path d="M10.388,170.01 L15.806,170.01 L15.806,168.946 L11.55,168.946 L11.55,160.21 L10.388,160.21 L10.388,170.01 Z" id="Path"></path>
            <path d="M17.626,170.01 L18.788,170.01 L18.788,160.21 L17.626,160.21 L17.626,170.01 Z" id="Path"></path>
            <path d="M21.518,170.01 L27.412,170.01 L27.412,168.946 L22.68,168.946 L22.68,165.488 L27.02,165.488 L27.02,164.452 L22.68,164.452 L22.68,161.274 L27.412,161.274 L27.412,160.21 L21.518,160.21 L21.518,170.01 Z" id="Path"></path>
            <path d="M29.722,170.01 L30.884,170.01 L30.884,162.128 L30.912,162.128 L35.406,170.01 L36.624,170.01 L36.624,160.21 L35.476,160.21 L35.476,168.092 L35.448,168.092 L30.982,160.21 L29.722,160.21 L29.722,170.01 Z" id="Path"></path>
            <path d="M41.342,170.01 L42.49,170.01 L42.49,161.274 L45.514,161.274 L45.514,160.21 L38.304,160.21 L38.304,161.274 L41.342,161.274 L41.342,170.01 Z" id="Path"></path>
            <path d="M46.564,166.636 C46.858,168.96 48.132,170.22 50.498,170.22 C52.724,170.22 53.914,168.904 53.914,167.378 C53.914,165.922 53.284,165.208 50.624,164.34 C48.482,163.64 48.188,163.29 48.188,162.576 C48.188,161.792 48.79,161.106 50.092,161.106 C51.59,161.106 52.122,161.876 52.332,162.954 L53.508,162.702 C53.256,160.868 51.856,160 50.092,160 C48.132,160 47.012,161.218 47.012,162.576 C47.012,163.976 47.95,164.69 50.05,165.362 C52.402,166.132 52.752,166.552 52.752,167.434 C52.752,168.302 52.08,169.128 50.54,169.128 C48.65,169.128 48.048,168.19 47.782,166.398 L46.564,166.636 Z" id="Path"></path>
            <path d="M56.0257578,162.784414 L57.4544688,162.784414 L57.4544688,164.274648 L56.0257578,164.274648 L56.0257578,162.784414 Z M56.0257578,168.519766 L57.4544688,168.519766 L57.4544688,170.01 L56.0257578,170.01 L56.0257578,168.519766 Z" id="Shape"></path>
            <path d="M63.1936484,170.01 L64.3556484,170.01 L64.3556484,165.46 L68.7376484,165.46 L68.7376484,170.01 L69.8856484,170.01 L69.8856484,160.21 L68.7376484,160.21 L68.7376484,164.424 L64.3556484,164.424 L64.3556484,160.21 L63.1936484,160.21 L63.1936484,170.01 Z" id="Path"></path>
            <path d="M72.6156484,170.01 L73.7776484,170.01 L73.7776484,160.21 L72.6156484,160.21 L72.6156484,170.01 Z" id="Path"></path>
            <path d="M80.0916484,170.22 C82.2896484,170.22 83.8436484,168.75 83.8436484,166.16 L83.8436484,165.208 L80.2176484,165.208 L80.2176484,166.272 L82.6816484,166.272 C82.7236484,168.05 81.7156484,169.128 80.0916484,169.128 C78.4536484,169.128 77.1656484,167.798 77.1656484,165.012 C77.1656484,162.324 78.5236484,161.106 80.0916484,161.106 C81.6736484,161.106 82.3316484,162.17 82.5976484,163.444 L83.7596484,163.234 C83.4376484,161.33 82.0376484,160 80.0916484,160 C77.9636484,160 75.9476484,161.666 75.9476484,165.012 C75.9476484,168.75 77.9356484,170.22 80.0916484,170.22 Z" id="Path"></path>
            <path d="M85.9436484,170.01 L87.1056484,170.01 L87.1056484,165.46 L91.4876484,165.46 L91.4876484,170.01 L92.6356484,170.01 L92.6356484,160.21 L91.4876484,160.21 L91.4876484,164.424 L87.1056484,164.424 L87.1056484,160.21 L85.9436484,160.21 L85.9436484,170.01 Z" id="Path"></path>
            <path d="M97.3536484,170.01 L98.5016484,170.01 L98.5016484,161.274 L101.525648,161.274 L101.525648,160.21 L94.3156484,160.21 L94.3156484,161.274 L97.3536484,161.274 L97.3536484,170.01 Z" id="Path"></path>
            <path d="M102.575648,166.636 C102.869648,168.96 104.143648,170.22 106.509648,170.22 C108.735648,170.22 109.925648,168.904 109.925648,167.378 C109.925648,165.922 109.295648,165.208 106.635648,164.34 C104.493648,163.64 104.199648,163.29 104.199648,162.576 C104.199648,161.792 104.801648,161.106 106.103648,161.106 C107.601648,161.106 108.133648,161.876 108.343648,162.954 L109.519648,162.702 C109.267648,160.868 107.867648,160 106.103648,160 C104.143648,160 103.023648,161.218 103.023648,162.576 C103.023648,163.976 103.961648,164.69 106.061648,165.362 C108.413648,166.132 108.763648,166.552 108.763648,167.434 C108.763648,168.302 108.091648,169.128 106.551648,169.128 C104.661648,169.128 104.059648,168.19 103.793648,166.398 L102.575648,166.636 Z" id="Path"></path>
            <path d="M111.815648,170.01 L112.977648,170.01 L112.977648,162.128 L113.005648,162.128 L117.499648,170.01 L118.717648,170.01 L118.717648,160.21 L117.569648,160.21 L117.569648,168.092 L117.541648,168.092 L113.075648,160.21 L111.815648,160.21 L111.815648,170.01 Z" id="Path"></path>
            <path d="M124.975648,169.128 C123.323648,169.128 122.049648,167.826 122.049648,165.026 C122.049648,162.31 123.407648,161.106 124.975648,161.106 C126.515648,161.106 127.845648,162.366 127.845648,165.082 C127.845648,167.882 126.585648,169.128 124.975648,169.128 Z M124.975648,170.22 C127.061648,170.22 129.077648,168.834 129.077648,165.082 C129.077648,161.708 127.061648,160 124.975648,160 C122.847648,160 120.817648,161.652 120.817648,165.026 C120.817648,168.778 122.861648,170.22 124.975648,170.22 Z" id="Shape"></path>
            <path d="M131.177648,170.01 L134.705648,170.01 C137.127648,170.01 138.163648,168.876 138.163648,167.112 C138.163648,165.782 137.365648,164.998 136.581648,164.746 L136.581648,164.704 C137.253648,164.41 137.799648,163.794 137.799648,162.744 C137.799648,161.302 136.707648,160.21 134.943648,160.21 L131.177648,160.21 L131.177648,170.01 Z M132.339648,164.354 L132.339648,161.274 L134.719648,161.274 C135.923648,161.274 136.651648,161.806 136.651648,162.814 C136.651648,163.794 136.049648,164.354 134.733648,164.354 L132.339648,164.354 Z M132.339648,168.946 L132.339648,165.39 L134.579648,165.39 C136.203648,165.39 137.015648,165.838 137.015648,167.112 C137.015648,168.442 136.133648,168.946 134.551648,168.946 L132.339648,168.946 Z" id="Shape"></path>
            <path d="M140.333648,170.01 L141.495648,170.01 L141.495648,160.21 L140.333648,160.21 L140.333648,170.01 Z" id="Path"></path>
            <path d="M144.225648,170.01 L150.119648,170.01 L150.119648,168.946 L145.387648,168.946 L145.387648,165.488 L149.727648,165.488 L149.727648,164.452 L145.387648,164.452 L145.387648,161.274 L150.119648,161.274 L150.119648,160.21 L144.225648,160.21 L144.225648,170.01 Z" id="Path"></path>
            <path d="M154.487648,170.01 L155.635648,170.01 L155.635648,161.274 L158.659648,161.274 L158.659648,160.21 L151.449648,160.21 L151.449648,161.274 L154.487648,161.274 L154.487648,170.01 Z" id="Path"></path>
            <path d="M162.453648,170.01 L163.573648,170.01 L163.573648,165.88 L166.807648,160.21 L165.519648,160.21 L163.027648,164.76 L162.999648,164.76 L160.507648,160.21 L159.219648,160.21 L162.453648,165.88 L162.453648,170.01 Z" id="Path"></path>
            <path d="M168.347648,171.494 C169.565648,171.41 169.999648,170.724 169.999648,169.8 L169.999648,168.358 L168.347648,168.358 L168.347648,170.01 L169.019648,170.01 C169.019648,170.458 168.879648,170.766 168.347648,170.864 L168.347648,171.494 Z" id="Path"></path>
            <path d="M176.159648,170.01 L182.053648,170.01 L182.053648,168.946 L177.321648,168.946 L177.321648,165.488 L181.661648,165.488 L181.661648,164.452 L177.321648,164.452 L177.321648,161.274 L182.053648,161.274 L182.053648,160.21 L176.159648,160.21 L176.159648,170.01 Z" id="Path"></path>
            <path d="M186.421648,170.01 L187.569648,170.01 L187.569648,161.274 L190.593648,161.274 L190.593648,160.21 L183.383648,160.21 L183.383648,161.274 L186.421648,161.274 L186.421648,170.01 Z" id="Path"></path>
            <path d="M195.871648,161.106 C197.551648,161.106 198.153648,162.296 198.377648,163.626 L199.553648,163.416 C199.287648,161.428 197.985648,160 195.871648,160 C193.743648,160 191.713648,161.652 191.713648,165.026 C191.713648,168.778 193.757648,170.22 195.871648,170.22 C198.083648,170.22 199.399648,168.778 199.581648,166.524 L198.363648,166.37 C198.209648,167.868 197.621648,169.128 195.871648,169.128 C194.219648,169.128 192.945648,167.826 192.945648,165.026 C192.945648,162.31 194.303648,161.106 195.871648,161.106 Z" id="Path"></path>
            <path d="M201.611648,170.01 L203.263648,170.01 L203.263648,168.358 L201.611648,168.358 L201.611648,170.01 Z" id="Path"></path>
        </g>
        <g id="BLOCKCHAIN-DEVELOPER" transform="translate(23.680000, 270.649000)" fill="#FFFFFF" fill-rule="nonzero">
            <path d="M0,15.351 L0,0.378 L8.295,0.378 C10.773,0.378 12.6245,0.6615 13.8495,1.2285 C15.0745,1.7955 15.687,2.821 15.687,4.305 L15.687,4.431 C15.687,5.397 15.4385,6.1215 14.9415,6.6045 C14.4445,7.0875 13.664,7.427 12.6,7.623 C13.804,7.791 14.6825,8.12 15.2355,8.61 C15.7885,9.1 16.065,9.87 16.065,10.92 L16.065,11.004 C16.065,12.096 15.771,12.9605 15.183,13.5975 C14.595,14.2345 13.7375,14.686 12.6105,14.952 C11.4835,15.218 10.094,15.351 8.442,15.351 L0,15.351 Z M8.505,3.15 L3.423,3.15 L3.423,6.3 L8.631,6.3 C9.345,6.3 9.9715,6.2685 10.5105,6.2055 C11.0495,6.1425 11.4695,6.006 11.7705,5.796 C12.0715,5.586 12.222,5.25 12.222,4.788 L12.222,4.704 C12.222,4.228 12.096,3.8815 11.844,3.6645 C11.592,3.4475 11.193,3.3075 10.647,3.2445 C10.101,3.1815 9.387,3.15 8.505,3.15 Z M8.253,9.03 L3.423,9.03 L3.423,12.411 L8.001,12.411 C9.219,12.411 10.15,12.3655 10.794,12.2745 C11.438,12.1835 11.879,12.019 12.117,11.781 C12.355,11.543 12.474,11.207 12.474,10.773 L12.474,10.689 C12.474,10.213 12.348,9.856 12.096,9.618 C11.844,9.38 11.4135,9.2225 10.8045,9.1455 C10.1955,9.0685 9.345,9.03 8.253,9.03 Z" id="Shape"></path>
            <polygon id="Path" points="17.4781967 0.378 21.0481967 0.378 21.0481967 12.033 30.9811967 12.033 30.9811967 15.351 17.4781967 15.351"></polygon>
            <path d="M40.4583934,15.771 C38.6663934,15.771 37.0983934,15.498 35.7543934,14.952 C34.4103934,14.406 33.3673934,13.5625 32.6253934,12.4215 C31.8833934,11.2805 31.5123934,9.814 31.5123934,8.022 L31.5123934,7.917 C31.5123934,6.237 31.8973934,4.809 32.6673934,3.633 C33.4373934,2.457 34.4943934,1.5575 35.8383934,0.9345 C37.1823934,0.3115 38.7153934,0 40.4373934,0 C42.1593934,0 43.6958934,0.3045 45.0468934,0.9135 C46.3978934,1.5225 47.4653934,2.415 48.2493934,3.591 C49.0333934,4.767 49.4253934,6.202 49.4253934,7.896 L49.4253934,8.043 C49.4253934,9.793 49.0438934,11.235 48.2808934,12.369 C47.5178934,13.503 46.4608934,14.3535 45.1098934,14.9205 C43.7588934,15.4875 42.2083934,15.771 40.4583934,15.771 Z M40.4373934,12.579 C41.5433934,12.579 42.4953934,12.4355 43.2933934,12.1485 C44.0913934,11.8615 44.7073934,11.3855 45.1413934,10.7205 C45.5753934,10.0555 45.7923934,9.156 45.7923934,8.022 L45.7923934,8.001 C45.7923934,6.825 45.5753934,5.8835 45.1413934,5.1765 C44.7073934,4.4695 44.0948934,3.9585 43.3038934,3.6435 C42.5128934,3.3285 41.5643934,3.171 40.4583934,3.171 C38.7923934,3.171 37.4903934,3.549 36.5523934,4.305 C35.6143934,5.061 35.1453934,6.286 35.1453934,7.98 L35.1453934,8.001 C35.1453934,9.569 35.6143934,10.724 36.5523934,11.466 C37.4903934,12.208 38.7853934,12.579 40.4373934,12.579 Z" id="Shape"></path>
            <path d="M59.6585902,15.771 C57.8805902,15.771 56.3370902,15.505 55.0280902,14.973 C53.7190902,14.441 52.7005902,13.608 51.9725902,12.474 C51.2445902,11.34 50.8805902,9.856 50.8805902,8.022 L50.8805902,7.917 C50.8805902,6.237 51.2725902,4.809 52.0565902,3.633 C52.8405902,2.457 53.9185902,1.5575 55.2905902,0.9345 C56.6625902,0.3115 58.2375902,0 60.0155902,0 C61.5415902,0 62.9100902,0.2275 64.1210902,0.6825 C65.3320902,1.1375 66.3330902,1.8305 67.1240902,2.7615 C67.9150902,3.6925 68.4505902,4.872 68.7305902,6.3 L64.9295902,6.3 C64.7335902,5.306 64.2330902,4.536 63.4280902,3.99 C62.6230902,3.444 61.4925902,3.171 60.0365902,3.171 C58.3145902,3.171 56.9635902,3.542 55.9835902,4.284 C55.0035902,5.026 54.5135902,6.244 54.5135902,7.938 L54.5135902,7.98 C54.5135902,9.576 54.9825902,10.7415 55.9205902,11.4765 C56.8585902,12.2115 58.1815902,12.579 59.8895902,12.579 C61.5415902,12.579 62.7595902,12.2675 63.5435902,11.6445 C64.3275902,11.0215 64.8035902,10.136 64.9715902,8.988 L68.8145902,8.988 C68.6045902,10.374 68.1390902,11.5745 67.4180902,12.5895 C66.6970902,13.6045 65.6995902,14.3885 64.4255902,14.9415 C63.1515902,15.4945 61.5625902,15.771 59.6585902,15.771 Z" id="Path"></path>
            <polygon id="Path" points="70.1857869 0.378 73.7137869 0.378 73.7137869 7.581 81.9247869 0.378 86.6707869 0.378 80.1397869 6.027 86.9437869 15.351 82.7437869 15.351 77.5777869 7.938 73.7137869 11.193 73.7137869 15.351 70.1857869 15.351"></polygon>
            <path d="M94.5939836,15.771 C92.8159836,15.771 91.2724836,15.505 89.9634836,14.973 C88.6544836,14.441 87.6359836,13.608 86.9079836,12.474 C86.1799836,11.34 85.8159836,9.856 85.8159836,8.022 L85.8159836,7.917 C85.8159836,6.237 86.2079836,4.809 86.9919836,3.633 C87.7759836,2.457 88.8539836,1.5575 90.2259836,0.9345 C91.5979836,0.3115 93.1729836,0 94.9509836,0 C96.4769836,0 97.8454836,0.2275 99.0564836,0.6825 C100.267484,1.1375 101.268484,1.8305 102.059484,2.7615 C102.850484,3.6925 103.385984,4.872 103.665984,6.3 L99.8649836,6.3 C99.6689836,5.306 99.1684836,4.536 98.3634836,3.99 C97.5584836,3.444 96.4279836,3.171 94.9719836,3.171 C93.2499836,3.171 91.8989836,3.542 90.9189836,4.284 C89.9389836,5.026 89.4489836,6.244 89.4489836,7.938 L89.4489836,7.98 C89.4489836,9.576 89.9179836,10.7415 90.8559836,11.4765 C91.7939836,12.2115 93.1169836,12.579 94.8249836,12.579 C96.4769836,12.579 97.6949836,12.2675 98.4789836,11.6445 C99.2629836,11.0215 99.7389836,10.136 99.9069836,8.988 L103.749984,8.988 C103.539984,10.374 103.074484,11.5745 102.353484,12.5895 C101.632484,13.6045 100.634984,14.3885 99.3609836,14.9415 C98.0869836,15.4945 96.4979836,15.771 94.5939836,15.771 Z" id="Path"></path>
            <polygon id="Path" points="105.12118 0.378 108.64918 0.378 108.64918 6.195 117.36418 6.195 117.36418 0.378 120.85018 0.378 120.85018 15.351 117.36418 15.351 117.36418 9.555 108.64918 9.555 108.64918 15.351 105.12118 15.351"></polygon>
            <path d="M121.759377,15.351 L129.340377,0.378 L133.057377,0.378 L140.764377,15.351 L137.005377,15.351 L135.409377,12.096 L127.114377,12.096 L125.560377,15.351 L121.759377,15.351 Z M128.479377,9.24 L133.981377,9.24 L131.188377,3.549 L128.479377,9.24 Z" id="Shape"></path>
            <polygon id="Path" points="141.379574 12.075 145.453574 12.075 145.453574 3.507 141.379574 3.507 141.379574 0.378 152.866574 0.378 152.866574 3.507 148.792574 3.507 148.792574 12.075 152.866574 12.075 152.866574 15.351 141.379574 15.351"></polygon>
            <polygon id="Path" points="154.76277 15.351 154.76277 0.378 158.29077 0.378 167.38377 10.542 167.50977 10.731 167.50977 0.378 170.89077 0.378 170.89077 15.351 167.50977 15.351 158.31177 5.082 158.16477 4.872 158.16477 15.351"></polygon>
            <path d="M178.001164,0.378 L184.973164,0.378 C188.039164,0.378 190.356164,0.9765 191.924164,2.1735 C193.492164,3.3705 194.276164,5.278 194.276164,7.896 L194.276164,8.001 C194.276164,10.591 193.499164,12.4635 191.945164,13.6185 C190.391164,14.7735 188.137164,15.351 185.183164,15.351 L178.001164,15.351 L178.001164,0.378 Z M184.826164,3.423 L181.487164,3.423 L181.487164,12.285 L184.994164,12.285 C186.380164,12.285 187.489664,12.145 188.322664,11.865 C189.155664,11.585 189.757664,11.13 190.128664,10.5 C190.499664,9.87 190.685164,9.016 190.685164,7.938 L190.685164,7.875 C190.685164,6.797 190.492664,5.9325 190.107664,5.2815 C189.722664,4.6305 189.099664,4.158 188.238664,3.864 C187.377664,3.57 186.240164,3.423 184.826164,3.423 Z" id="Shape"></path>
            <polygon id="Path" points="196.109361 15.351 196.109361 0.378 210.410361 0.378 210.410361 3.339 199.490361 3.339 199.490361 6.363 208.730361 6.363 208.730361 9.324 199.490361 9.324 199.490361 12.285 210.851361 12.285 210.851361 15.351"></polygon>
            <polygon id="Path" points="217.493557 15.351 210.836557 0.378 214.679557 0.378 219.425557 11.487 224.612557 0.378 228.413557 0.378 221.084557 15.351"></polygon>
            <polygon id="Path" points="229.301754 15.351 229.301754 0.378 243.602754 0.378 243.602754 3.339 232.682754 3.339 232.682754 6.363 241.922754 6.363 241.922754 9.324 232.682754 9.324 232.682754 12.285 244.043754 12.285 244.043754 15.351"></polygon>
            <polygon id="Path" points="245.708951 0.378 249.278951 0.378 249.278951 12.033 259.211951 12.033 259.211951 15.351 245.708951 15.351"></polygon>
            <path d="M268.689148,15.771 C266.897148,15.771 265.329148,15.498 263.985148,14.952 C262.641148,14.406 261.598148,13.5625 260.856148,12.4215 C260.114148,11.2805 259.743148,9.814 259.743148,8.022 L259.743148,7.917 C259.743148,6.237 260.128148,4.809 260.898148,3.633 C261.668148,2.457 262.725148,1.5575 264.069148,0.9345 C265.413148,0.3115 266.946148,0 268.668148,0 C270.390148,0 271.926648,0.3045 273.277648,0.9135 C274.628648,1.5225 275.696148,2.415 276.480148,3.591 C277.264148,4.767 277.656148,6.202 277.656148,7.896 L277.656148,8.043 C277.656148,9.793 277.274648,11.235 276.511648,12.369 C275.748648,13.503 274.691648,14.3535 273.340648,14.9205 C271.989648,15.4875 270.439148,15.771 268.689148,15.771 Z M268.668148,12.579 C269.774148,12.579 270.726148,12.4355 271.524148,12.1485 C272.322148,11.8615 272.938148,11.3855 273.372148,10.7205 C273.806148,10.0555 274.023148,9.156 274.023148,8.022 L274.023148,8.001 C274.023148,6.825 273.806148,5.8835 273.372148,5.1765 C272.938148,4.4695 272.325648,3.9585 271.534648,3.6435 C270.743648,3.3285 269.795148,3.171 268.689148,3.171 C267.023148,3.171 265.721148,3.549 264.783148,4.305 C263.845148,5.061 263.376148,6.286 263.376148,7.98 L263.376148,8.001 C263.376148,9.569 263.845148,10.724 264.783148,11.466 C265.721148,12.208 267.016148,12.579 268.668148,12.579 Z" id="Shape"></path>
            <path d="M279.489344,15.351 L279.489344,0.378 L287.133344,0.378 C289.023344,0.378 290.538844,0.5635 291.679844,0.9345 C292.820844,1.3055 293.646844,1.8795 294.157844,2.6565 C294.668844,3.4335 294.924344,4.431 294.924344,5.649 C294.924344,7.329 294.304844,8.596 293.065844,9.45 C291.826844,10.304 289.961344,10.724 287.469344,10.71 L282.975344,10.71 L282.975344,15.351 L279.489344,15.351 Z M287.154344,3.339 L282.975344,3.339 L282.975344,7.749 L287.259344,7.749 C288.785344,7.749 289.852844,7.5985 290.461844,7.2975 C291.070844,6.9965 291.375344,6.44 291.375344,5.628 C291.375344,4.942 291.224844,4.438 290.923844,4.116 C290.622844,3.794 290.160844,3.584 289.537844,3.486 C288.914844,3.388 288.120344,3.339 287.154344,3.339 Z" id="Shape"></path>
            <polygon id="Path" points="296.505541 15.351 296.505541 0.378 310.806541 0.378 310.806541 3.339 299.886541 3.339 299.886541 6.363 309.126541 6.363 309.126541 9.324 299.886541 9.324 299.886541 12.285 311.247541 12.285 311.247541 15.351"></polygon>
            <path d="M312.912738,15.351 L312.912738,0.378 L320.787738,0.378 C323.419738,0.378 325.316738,0.756 326.478738,1.512 C327.640738,2.268 328.221738,3.465 328.221738,5.103 C328.221738,6.223 327.952238,7.098 327.413238,7.728 C326.874238,8.358 326.051738,8.806 324.945738,9.072 C326.037738,9.31 326.839238,9.758 327.350238,10.416 C327.861238,11.074 328.116738,12.068 328.116738,13.398 L328.116738,14.385 C328.116738,14.567 328.137738,14.749 328.179738,14.931 C328.221738,15.113 328.319738,15.253 328.473738,15.351 L324.798738,15.351 C324.602738,15.281 324.483738,15.1445 324.441738,14.9415 C324.399738,14.7385 324.378738,14.539 324.378738,14.343 L324.378738,13.419 C324.378738,12.663 324.263238,12.075 324.032238,11.655 C323.801238,11.235 323.416238,10.941 322.877238,10.773 C322.338238,10.605 321.592738,10.521 320.640738,10.521 L316.419738,10.521 L316.419738,15.351 L312.912738,15.351 Z M320.745738,3.36 L316.419738,3.36 L316.419738,7.518 L320.619738,7.518 C321.389738,7.518 322.075738,7.4795 322.677738,7.4025 C323.279738,7.3255 323.748738,7.154 324.084738,6.888 C324.420738,6.622 324.588738,6.188 324.588738,5.586 L324.588738,5.313 C324.588738,4.753 324.452238,4.333 324.179238,4.053 C323.906238,3.773 323.486238,3.5875 322.919238,3.4965 C322.352238,3.4055 321.627738,3.36 320.745738,3.36 Z" id="Shape"></path>
        </g>
    </g>
</svg>