<?xml version="1.0" encoding="UTF-8"?>
<svg width="20px" height="20px" viewBox="0 0 20 20" version="1.1" xmlns="http://www.w3.org/2000/svg" xmlns:xlink="http://www.w3.org/1999/xlink">
    <title>Group 6</title>
    <defs>
        <polygon id="path-1" points="0 0 20 0 20 20 0 20"></polygon>
    </defs>
    <g id="mainpage" stroke="none" stroke-width="1" fill="none" fill-rule="evenodd">
        <g id="PM-NFT-LP-Desktop-Copy-77" transform="translate(-590.000000, -796.000000)">
            <g id="Group-4" transform="translate(525.000000, 795.000000)">
                <g id="Group-6" transform="translate(65.000000, 1.000000)">
                    <g id="Group-3">
                        <mask id="mask-2" fill="white">
                            <use xlink:href="#path-1"></use>
                        </mask>
                        <g id="Clip-2"></g>
                        <path d="M16.5068165,4.94768963 C15.6984189,4.94768963 15.0433381,4.29206626 15.0433381,3.48299913 C15.0433381,2.673932 15.6984189,2.01830863 16.5068165,2.01830863 C17.3152141,2.01830863 17.9702949,2.673932 17.9702949,3.48299913 C17.9702949,4.29032258 17.3152141,4.94768963 16.5068165,4.94768963 M9.99607997,16.2659111 C6.53774119,16.2659111 3.73274097,13.4603313 3.73274097,9.99738448 C3.73274097,6.53618134 6.53774119,3.73060157 9.99607997,3.73060157 C13.4544187,3.73060157 16.259419,6.53618134 16.259419,9.99738448 C16.259419,13.4585876 13.4544187,16.2659111 9.99607997,16.2659111 M19.9303106,5.0749782 C19.7735093,1.77768091 18.2229191,0.20836966 14.9300928,0.0706190061 C13.640838,-0.000871839582 13.2575461,-0.000871839582 9.99956444,-0.000871839582 C6.74158282,-0.000871839582 6.35829087,-0.000871839582 5.06903611,0.0706190061 C1.7587874,0.20836966 0.225619583,1.77768091 0.0688183283,5.0749782 C0.0165512435,6.34612031 -0.00087111808,6.73147341 -0.00087111808,9.99215344 C-0.00087111808,13.2528335 0.0165512435,13.6346992 0.0688183283,14.9250218 C0.225619583,18.2031386 1.7587874,19.7916303 5.06903611,19.929381 C6.35829087,20.0008718 6.74158282,20.0008718 9.99956444,20.0008718 C13.2575461,20.0008718 13.640838,20.0008718 14.9300928,19.929381 C18.2403415,19.7916303 19.7735093,18.2031386 19.9303106,14.9250218 C19.9825776,13.6346992 20,13.2528335 20,9.99215344 C20,6.73147341 19.9825776,6.34612031 19.9303106,5.0749782" id="Fill-1" fill="#FFFFFF" mask="url(#mask-2)"></path>
                    </g>
                    <path d="M10,5.83333333 C7.69967138,5.83333333 5.83333333,7.69967138 5.83333333,10 C5.83333333,12.3003286 7.69967138,14.1666667 10,14.1666667 C12.3003286,14.1666667 14.1666667,12.3003286 14.1666667,10 C14.1666667,7.69967138 12.3003286,5.83333333 10,5.83333333" id="Fill-4" fill="#FFFFFF"></path>
                </g>
            </g>
        </g>
    </g>
</svg>