<?xml version="1.0" encoding="utf-8"?>
<!-- Generator: Adobe Illustrator 27.3.1, SVG Export Plug-In . SVG Version: 6.00 Build 0)  -->
<svg version="1.1" id="Ebene_1" xmlns="http://www.w3.org/2000/svg" xmlns:xlink="http://www.w3.org/1999/xlink" x="0px" y="0px"
	 viewBox="0 0 377 702" style="enable-background:new 0 0 377 702;" xml:space="preserve">
<style type="text/css">
	.st0{fill:#FFFFFF;}
</style>
<g id="Konrad-Melzer_Back-Copy">
	<g id="Konrad-Melzer" transform="translate(24.016000, 33.163000)">
		<polygon id="Path" class="st0" points="21.7,66.8 26.2,92.8 48.1,92.8 37.3,39.1 47.9,1.4 26.7,1.4 21.8,20.2 18.3,37.3 20.4,19 
			20.4,1.4 0.1,1.4 0.1,92.8 20.4,92.8 20.4,51.8 		"/>
		<path id="Shape" class="st0" d="M69.7,94c13.1,0,22-5.7,22-21.5V21.6C91.7,6.5,83.1,0,69.7,0C56.1,0,47.6,6.3,47.6,21.6v50.9
			C47.6,88.3,56,94,69.7,94z M69.7,75.1c-1.1,0-1.1-0.4-1.1-3.9V22c0-3.6,0-3.8,1.1-3.8c1,0,1.1,0.3,1.1,3.8v49.1
			C70.9,74.7,70.7,75.1,69.7,75.1z"/>
		<polygon id="Path_00000144332467831930490880000008886356237405693329_" class="st0" points="93.7,92.8 113.8,92.8 113.8,70.1 
			108.8,27.4 118.9,92.8 142,92.8 142,1.4 122.6,1.4 122.6,21.2 128,69.2 117.9,1.4 93.7,1.4 		"/>
		<path id="Shape_00000005230074297301850980000010811931325306004650_" class="st0" d="M144,92.8h20.3V59.2c1.5,0,2.3,0.3,2.3,3
			v24.3c0,3.2,0.4,5.8,1.5,6.3h20.2c-1.5-1.5-1.9-3.2-1.9-6.7V61.7c0-6.7-1.3-10-6.2-11.6c4.8-1.7,6.4-5.2,6.4-12.7V18.8
			c0-13.7-5.6-17.4-19.7-17.4H144V92.8z M164.7,18.4c1.5,0,1.9,0.5,1.9,2.3v18.7c0,1.8-0.4,2.4-2.3,2.4V18.4H164.7z"/>
		<path id="Shape_00000050658099600834474190000000190449535449062567_" class="st0" d="M186.4,92.8h19.8l0.5-6.6h5.8l0.5,6.6H233
			L222.2,1.4h-25.7L186.4,92.8z M209.2,55l0.4-19l0.6,19l1.1,14.6H208L209.2,55z"/>
		<path id="Shape_00000119108524448933188720000013623402533070194617_" class="st0" d="M233,1.4v91.4h22c13,0,22.1-5.2,22.1-20.6
			V21.8c0-15.2-8.5-20.4-21.7-20.4H233z M254,18.7c1.5,0,1.9,0.5,1.9,2.7v50.4c0,2.8-0.4,3-2,3h-0.3V18.7H254z"/>
		<polygon id="Path_00000091714020199329214030000009947471070867285394_" class="st0" points="0,191.8 20.7,191.8 20.7,175.8 
			17.1,116.7 24.1,191.8 41.5,191.8 48.4,118.4 45.1,175.7 45.1,191.8 65.3,191.8 65.3,100.4 35.3,100.4 33.4,131.8 32.9,167.3 
			32.4,131.8 30.4,100.4 0,100.4 		"/>
		<polygon id="Path_00000062914112392167772440000015847319064860711824_" class="st0" points="67.4,191.8 101.2,191.8 101.2,171 
			87.9,171 87.9,156 101.2,156 101.2,135.6 87.9,135.6 87.9,120.7 101.2,120.7 101.2,100.4 67.4,100.4 		"/>
		<polygon id="Path_00000088115880694533791920000012616062001067001733_" class="st0" points="103.1,100.4 103.1,191.8 
			134.9,191.8 134.9,170.4 124.5,170.4 124.5,100.4 		"/>
		<polygon id="Path_00000094597005738327572800000004076205328862553530_" class="st0" points="136.4,191.8 169.9,191.8 
			169.9,171.5 158.1,171.5 169.9,119.2 169.9,100.4 136.4,100.4 136.4,120.7 148.3,120.7 136.4,173 		"/>
		<polygon id="Path_00000075846519267932266980000014939096569362642337_" class="st0" points="171.7,191.8 205.5,191.8 205.5,171 
			192.2,171 192.2,156 205.5,156 205.5,135.6 192.2,135.6 192.2,120.7 205.5,120.7 205.5,100.4 171.7,100.4 		"/>
		<path id="Shape_00000107582614041942272200000017874392921154699686_" class="st0" d="M207.4,191.8h20.3v-33.7
			c1.5,0,2.3,0.3,2.3,3v24.3c0,3.2,0.4,5.8,1.5,6.4h20.2c-1.5-1.5-1.9-3.2-1.9-6.7v-24.4c0-6.7-1.3-10-6.2-11.6
			c4.8-1.7,6.4-5.2,6.4-12.7v-18.7c0-13.7-5.6-17.4-19.7-17.4h-22.9V191.8z M228.1,117.4c1.5,0,1.9,0.5,1.9,2.3v18.7
			c0,1.8-0.4,2.4-2.3,2.4v-23.4H228.1z"/>
	</g>
	<g id="AS-A-VETERAN-TV-PROD" transform="translate(23.280000, 328.447143)">
		<path id="Shape_00000170957871965369913630000000840862944832292511_" class="st0" d="M0,10h1.2l0.7-1.9h4.4L7,10h1.2L4.7,0.2H3.5
			L0,10z M2.2,7.1l1.8-5.3h0l1.8,5.3H2.2z"/>
		<path id="Path_00000021821811631632053760000001916929228128466109_" class="st0" d="M9.2,6.6c0.3,2.3,1.6,3.6,3.9,3.6
			c2.2,0,3.4-1.3,3.4-2.8c0-1.5-0.6-2.2-3.3-3c-2.1-0.7-2.4-1.1-2.4-1.8c0-0.8,0.6-1.5,1.9-1.5c1.5,0,2,0.8,2.2,1.8l1.2-0.3
			C15.9,0.9,14.5,0,12.7,0c-2,0-3.1,1.2-3.1,2.6c0,1.4,0.9,2.1,3,2.8c2.4,0.8,2.7,1.2,2.7,2.1c0,0.9-0.7,1.7-2.2,1.7
			c-1.9,0-2.5-0.9-2.8-2.7L9.2,6.6z"/>
		<path id="Shape_00000112617878759684128580000011222059805821662651_" class="st0" d="M20.9,10H22l0.7-1.9h4.4l0.7,1.9H29
			l-3.5-9.8h-1.1L20.9,10z M23.1,7.1l1.8-5.3h0l1.8,5.3H23.1z"/>
		<path id="Path_00000178883007519207724940000002281755294302328210_" class="st0" d="M36.6,10h1.4l3.4-9.8h-1.2l-2.8,8.4h0
			l-2.9-8.4h-1.2L36.6,10z"/>
		<path id="Path_00000168838136901398124210000010513949872135514765_" class="st0" d="M42.9,10h5.9V8.9h-4.7V5.5h4.3v-1h-4.3V1.3
			h4.7V0.2h-5.9V10z"/>
		<path id="Path_00000160157455064583916290000009014818732824683685_" class="st0" d="M53.2,10h1.1V1.3h3V0.2h-7.2v1.1h3V10z"/>
		<path id="Path_00000163057523187951375310000004974632273451455885_" class="st0" d="M59.1,10h5.9V8.9h-4.7V5.5h4.3v-1h-4.3V1.3
			h4.7V0.2h-5.9V10z"/>
		<path id="Shape_00000142887613043118668450000015016312753919537852_" class="st0" d="M67.3,10h1.2V6h2.2l2.1,4h1.3l-2.2-4.1
			c1.4-0.3,2.4-1.2,2.4-2.8c0-2-1.3-2.9-3.3-2.9h-3.8V10z M68.4,5V1.3h2.5c1.3,0,2.2,0.5,2.2,1.8S72.1,5,71,5H68.4z"/>
		<path id="Shape_00000168799640112929261110000008280078333930751366_" class="st0" d="M75.2,10h1.2l0.7-1.9h4.4l0.7,1.9h1.2
			l-3.5-9.8h-1.1L75.2,10z M77.4,7.1l1.8-5.3h0l1.8,5.3H77.4z"/>
		<path id="Path_00000015339243596255719540000016350724468680352654_" class="st0" d="M85,10h1.2V2.1h0l4.5,7.9h1.2V0.2h-1.1v7.9h0
			l-4.5-7.9H85V10z"/>
		<path id="Path_00000021103924996966814250000017913925721521437062_" class="st0" d="M100.1,10h1.1V1.3h3V0.2h-7.2v1.1h3V10z"/>
		<path id="Path_00000029025829851167083410000013842792966127073159_" class="st0" d="M108.4,10h1.4l3.4-9.8h-1.2l-2.8,8.4h0
			l-2.9-8.4h-1.2L108.4,10z"/>
		<path id="Shape_00000016033900188038641780000003040846427947701636_" class="st0" d="M118.3,10h1.2V6.2h2.6c1.9,0,3.2-1.1,3.2-3
			c0-2-1.4-3-3.3-3h-3.8V10z M119.4,5.2V1.3h2.5c1.1,0,2.2,0.5,2.2,2c0,1.3-1,1.9-2.1,1.9H119.4z"/>
		<path id="Shape_00000170958084003679771380000004350957794678158464_" class="st0" d="M126.9,10h1.2V6h2.2l2.1,4h1.3l-2.2-4.1
			c1.4-0.3,2.4-1.2,2.4-2.8c0-2-1.3-2.9-3.3-2.9h-3.8V10z M128.1,5V1.3h2.5c1.3,0,2.2,0.5,2.2,1.8s-1,1.8-2.2,1.8H128.1z"/>
		<path id="Shape_00000131363195259017062090000005485987181334572972_" class="st0" d="M139.5,9.1c-1.7,0-2.9-1.3-2.9-4.1
			c0-2.7,1.4-3.9,2.9-3.9c1.5,0,2.9,1.3,2.9,4C142.4,7.9,141.1,9.1,139.5,9.1z M139.5,10.2c2.1,0,4.1-1.4,4.1-5.1
			c0-3.4-2-5.1-4.1-5.1c-2.1,0-4.2,1.7-4.2,5C135.4,8.8,137.4,10.2,139.5,10.2z"/>
		<path id="Shape_00000161602244418712646180000001606461063551346092_" class="st0" d="M146.9,8.9V1.3h1.8c1.9,0,3.1,1.3,3.1,3.8
			c0,2.8-1.2,3.9-3.2,3.9H146.9z M145.7,10h3c2.2,0,4.3-1.2,4.3-4.9c0-3.4-2.1-4.9-4.2-4.9h-3.1V10z"/>
		<path id="Path_00000024693990432584528460000009346471846396128902_" class="st0" d="M154.8,6.8c0,2.3,1.3,3.4,3.5,3.4
			s3.5-1.1,3.5-3.4V0.2h-1.1v6.6c0,1.5-0.8,2.4-2.3,2.4c-1.5,0-2.3-0.8-2.3-2.4V0.2h-1.2V6.8z"/>
		<path id="Path_00000129919255811955160760000012691332430034290820_" class="st0" d="M167.8,1.1c1.7,0,2.3,1.2,2.5,2.5l1.2-0.2
			c-0.3-2-1.6-3.4-3.7-3.4c-2.1,0-4.2,1.7-4.2,5c0,3.8,2,5.2,4.2,5.2c2.2,0,3.5-1.4,3.7-3.7l-1.2-0.2c-0.2,1.5-0.7,2.8-2.5,2.8
			c-1.7,0-2.9-1.3-2.9-4.1C164.9,2.3,166.3,1.1,167.8,1.1z"/>
		<path id="Path_00000071560197972792716730000010956952412945594279_" class="st0" d="M173.6,10h5.9V8.9h-4.7V5.5h4.3v-1h-4.3V1.3
			h4.7V0.2h-5.9V10z"/>
		<path id="Shape_00000137125109685051751520000006800423413549477798_" class="st0" d="M181.8,10h1.2V6h2.2l2.1,4h1.3l-2.2-4.1
			c1.4-0.3,2.4-1.2,2.4-2.8c0-2-1.3-2.9-3.3-2.9h-3.8V10z M183,5V1.3h2.5c1.3,0,2.2,0.5,2.2,1.8s-1,1.8-2.2,1.8H183z"/>
		<path id="Path_00000163768690488677175300000013190848483049337790_" class="st0" d="M190.8,11.5c1.2-0.1,1.7-0.8,1.7-1.7V8.4
			h-1.7V10h0.7c0,0.4-0.1,0.8-0.7,0.9V11.5z"/>
		<path id="Path_00000131363713266721532640000016898888105823798434_" class="st0" d="M198.5,10h1.2V6.6l1.1-1.3h0l3.3,4.6h1.4
			l-4-5.5l3.6-4.3h-1.5l-4,4.8h0V0.2h-1.2V10z"/>
		<path id="Shape_00000010309227506592928520000014134418646177821096_" class="st0" d="M210.5,9.1c-1.7,0-2.9-1.3-2.9-4.1
			c0-2.7,1.4-3.9,2.9-3.9c1.5,0,2.9,1.3,2.9,4C213.3,7.9,212.1,9.1,210.5,9.1z M210.5,10.2c2.1,0,4.1-1.4,4.1-5.1
			c0-3.4-2-5.1-4.1-5.1c-2.1,0-4.2,1.7-4.2,5C206.3,8.8,208.4,10.2,210.5,10.2z"/>
		<path id="Path_00000065752641522820565820000016675938023150955174_" class="st0" d="M216.7,10h1.2V2.1h0l4.5,7.9h1.2V0.2h-1.1
			v7.9h0l-4.5-7.9h-1.3V10z"/>
		<path id="Shape_00000122717524149622095340000016859642926644268696_" class="st0" d="M226.2,10h1.2V6h2.2l2.1,4h1.3l-2.2-4.1
			c1.4-0.3,2.4-1.2,2.4-2.8c0-2-1.3-2.9-3.3-2.9h-3.8V10z M227.4,5V1.3h2.5c1.3,0,2.2,0.5,2.2,1.8s-1,1.8-2.2,1.8H227.4z"/>
		<path id="Shape_00000163041911604050525420000013440506883666392988_" class="st0" d="M234.2,10h1.2l0.7-1.9h4.4l0.7,1.9h1.2
			l-3.5-9.8h-1.1L234.2,10z M236.4,7.1l1.8-5.3h0l1.8,5.3H236.4z"/>
		<path id="Shape_00000052092544260878256800000017892784362736180671_" class="st0" d="M245.2,8.9V1.3h1.8c1.9,0,3.1,1.3,3.1,3.8
			c0,2.8-1.2,3.9-3.2,3.9H245.2z M244,10h3c2.2,0,4.3-1.2,4.3-4.9c0-3.4-2.1-4.9-4.2-4.9H244V10z"/>
		<path id="Path_00000160895852125375868260000000105198358806062266_" class="st0" d="M256.9,10h1.2V0.2h-1.2V10z"/>
		<path id="Path_00000175283184956006227110000006553460484045394324_" class="st0" d="M260.2,6.6c0.3,2.3,1.6,3.6,3.9,3.6
			c2.2,0,3.4-1.3,3.4-2.8c0-1.5-0.6-2.2-3.3-3c-2.1-0.7-2.4-1.1-2.4-1.8c0-0.8,0.6-1.5,1.9-1.5c1.5,0,2,0.8,2.2,1.8l1.2-0.3
			c-0.3-1.8-1.7-2.7-3.4-2.7c-2,0-3.1,1.2-3.1,2.6c0,1.4,0.9,2.1,3,2.8c2.4,0.8,2.7,1.2,2.7,2.1c0,0.9-0.7,1.7-2.2,1.7
			c-1.9,0-2.5-0.9-2.8-2.7L260.2,6.6z"/>
		<path id="Shape_00000172440519681187089200000013973563971756628101_" class="st0" d="M271.9,10h1.2l0.7-1.9h4.4l0.7,1.9h1.2
			l-3.5-9.8h-1.1L271.9,10z M274.1,7.1l1.8-5.3h0l1.8,5.3H274.1z"/>
		<path id="Path_00000077304698634480226930000000240174662842686626_" class="st0" d="M281.7,10h1.2V2.1h0l4.5,7.9h1.2V0.2h-1.1
			v7.9h0l-4.5-7.9h-1.3V10z"/>
		<path id="Shape_00000092432541667184970720000018140193844638201007_" class="st0" d="M4.6,29.1c-1.7,0-2.9-1.3-2.9-4.1
			c0-2.7,1.4-3.9,2.9-3.9c1.5,0,2.9,1.3,2.9,4C7.5,27.9,6.3,29.1,4.6,29.1z M4.6,30.2c2.1,0,4.1-1.4,4.1-5.1c0-3.4-2-5.1-4.1-5.1
			c-2.1,0-4.2,1.7-4.2,5C0.5,28.8,2.5,30.2,4.6,30.2z"/>
		<path id="Shape_00000052090016241326548210000007045528063027989940_" class="st0" d="M10.9,30H12v-3.8h2.6c1.9,0,3.2-1,3.2-3
			c0-2-1.4-3-3.3-3h-3.8V30z M12,25.2v-3.9h2.5c1.1,0,2.2,0.5,2.2,2c0,1.3-1,1.9-2.1,1.9H12z"/>
		<path id="Path_00000126283655691165725050000012026795485830216127_" class="st0" d="M19.5,30h5.9v-1.1h-4.7v-3.5H25v-1h-4.3v-3.2
			h4.7v-1.1h-5.9V30z"/>
		<path id="Shape_00000051369696724260470860000015351284350234996139_" class="st0" d="M27.7,30h1.2v-4h2.2l2.1,4h1.3l-2.2-4.1
			c1.4-0.3,2.4-1.2,2.4-2.8c0-2-1.3-2.9-3.3-2.9h-3.8V30z M28.9,25v-3.7h2.5c1.3,0,2.2,0.5,2.2,1.8s-1,1.8-2.2,1.8H28.9z"/>
		<path id="Shape_00000103251133334699080100000015207131176749491117_" class="st0" d="M35.7,30h1.2l0.7-1.9h4.4l0.7,1.9h1.2
			l-3.5-9.8h-1.1L35.7,30z M37.9,27.1l1.8-5.3h0l1.8,5.3H37.9z"/>
		<path id="Path_00000174588245880110471050000006722033538741258928_" class="st0" d="M47.5,30h1.1v-8.7h3v-1.1h-7.2v1.1h3V30z"/>
		<path id="Path_00000109016711809014902140000011028934720284392127_" class="st0" d="M53.4,30h1.2v-9.8h-1.2V30z"/>
		<path id="Shape_00000054944898375707833710000002225169378441809792_" class="st0" d="M60.9,29.1c-1.7,0-2.9-1.3-2.9-4.1
			c0-2.7,1.4-3.9,2.9-3.9c1.5,0,2.9,1.3,2.9,4C63.8,27.9,62.5,29.1,60.9,29.1z M60.9,30.2c2.1,0,4.1-1.4,4.1-5.1
			c0-3.4-2-5.1-4.1-5.1c-2.1,0-4.2,1.7-4.2,5C56.8,28.8,58.8,30.2,60.9,30.2z"/>
		<path id="Path_00000019678701904409531140000013896318024986874538_" class="st0" d="M67.1,30h1.2v-7.9h0l4.5,7.9H74v-9.8h-1.1
			v7.9h0l-4.5-7.9h-1.3V30z"/>
		<path id="Shape_00000111176144124740390780000008501921413711834499_" class="st0" d="M75.6,30h1.2l0.7-1.9h4.4l0.7,1.9h1.2
			l-3.5-9.8h-1.1L75.6,30z M77.9,27.1l1.8-5.3h0l1.8,5.3H77.9z"/>
		<path id="Path_00000028299458796426304340000004329790152623553692_" class="st0" d="M85.4,30h5.4v-1.1h-4.3v-8.7h-1.2V30z"/>
		<path id="Path_00000027579797287149371980000011179151722060670390_" class="st0" d="M96.1,30h1.1v-8.2h0l3.4,8.2h0.4l3.4-8.2h0
			V30h1.1v-9.8h-1.6l-3.1,7.5h0l-3.1-7.5h-1.6V30z"/>
		<path id="Shape_00000074440358218990305440000018048064083160757925_" class="st0" d="M107.2,30h1.2l0.7-1.9h4.4l0.7,1.9h1.2
			l-3.5-9.8h-1.1L107.2,30z M109.4,27.1l1.8-5.3h0l1.8,5.3H109.4z"/>
		<path id="Path_00000005258371523809181500000006103949091623999161_" class="st0" d="M116.3,26.6c0.3,2.3,1.6,3.6,3.9,3.6
			c2.2,0,3.4-1.3,3.4-2.8c0-1.5-0.6-2.2-3.3-3c-2.1-0.7-2.4-1-2.4-1.8c0-0.8,0.6-1.5,1.9-1.5c1.5,0,2,0.8,2.2,1.8l1.2-0.3
			c-0.3-1.8-1.7-2.7-3.4-2.7c-2,0-3.1,1.2-3.1,2.6c0,1.4,0.9,2.1,3,2.8c2.4,0.8,2.7,1.2,2.7,2.1c0,0.9-0.7,1.7-2.2,1.7
			c-1.9,0-2.5-0.9-2.8-2.7L116.3,26.6z"/>
		<path id="Path_00000059288706328816702150000013107100636851830195_" class="st0" d="M127.6,30h1.1v-8.7h3v-1.1h-7.2v1.1h3V30z"/>
		<path id="Path_00000174565878192473717380000006480460009671490974_" class="st0" d="M133.5,30h5.9v-1.1h-4.7v-3.5h4.3v-1h-4.3
			v-3.2h4.7v-1.1h-5.9V30z"/>
		<path id="Shape_00000115512064738405799780000010074370746503357085_" class="st0" d="M141.7,30h1.2v-4h2.2l2.1,4h1.3l-2.2-4.1
			c1.4-0.3,2.4-1.2,2.4-2.8c0-2-1.3-2.9-3.3-2.9h-3.8V30z M142.8,25v-3.7h2.5c1.3,0,2.2,0.5,2.2,1.8s-1,1.8-2.2,1.8H142.8z"/>
		<path id="Path_00000054241575450140431060000011239081504193834908_" class="st0" d="M150.7,30h1.1v-8.2h0l3.4,8.2h0.4l3.4-8.2h0
			V30h1.1v-9.8h-1.6l-3.1,7.5h0l-3.1-7.5h-1.6V30z"/>
		<path id="Path_00000119081673324960942260000002589382523109939340_" class="st0" d="M162.8,30h1.2v-9.8h-1.2V30z"/>
		<path id="Path_00000052782230575187959100000008899157264538220679_" class="st0" d="M166.7,30h1.2v-7.9h0l4.5,7.9h1.2v-9.8h-1.1
			v7.9h0l-4.5-7.9h-1.3V30z"/>
		<path id="Shape_00000119830958368213521670000004791096740525145229_" class="st0" d="M177.5,28.9v-7.7h1.8c1.9,0,3.1,1.3,3.1,3.8
			c0,2.8-1.2,3.8-3.2,3.8H177.5z M176.3,30h3c2.2,0,4.3-1.2,4.3-4.9c0-3.4-2.1-4.9-4.2-4.9h-3.1V30z"/>
		<path id="Path_00000076563019211278285560000012243274291839395483_" class="st0" d="M185.6,30h1.7v-1.7h-1.7V30z"/>
		<path id="Path_00000043450096801850500200000000063234378786511520_" class="st0" d="M193.5,30h1.2v-4.6h4.4V30h1.1v-9.8H199v4.2
			h-4.4v-4.2h-1.2V30z"/>
		<path id="Shape_00000026155693456886529780000007993946134053379726_" class="st0" d="M201.8,30h1.2l0.7-1.9h4.4l0.7,1.9h1.2
			l-3.5-9.8h-1.1L201.8,30z M204,27.1l1.8-5.3h0l1.8,5.3H204z"/>
		<path id="Path_00000042001858334518001630000012975538315065244554_" class="st0" d="M211.6,30h1.2v-7.9h0l4.5,7.9h1.2v-9.8h-1.1
			v7.9h0l-4.5-7.9h-1.3V30z"/>
		<path id="Shape_00000045618845884837559460000000490751450927217544_" class="st0" d="M222.3,28.9v-7.7h1.8c1.9,0,3.1,1.3,3.1,3.8
			c0,2.8-1.2,3.8-3.2,3.8H222.3z M221.1,30h3c2.2,0,4.3-1.2,4.3-4.9c0-3.4-2.1-4.9-4.2-4.9h-3.1V30z"/>
		<path id="Path_00000052063594433542912980000015695891430366432935_" class="st0" d="M230.5,30h5.4v-1.1h-4.3v-8.7h-1.2V30z"/>
		<path id="Path_00000050659799907037656060000002913639030399693502_" class="st0" d="M237.7,30h1.2v-9.8h-1.2V30z"/>
		<path id="Path_00000105424172639571309660000007045576183398165129_" class="st0" d="M241.6,30h1.2v-7.9h0l4.5,7.9h1.2v-9.8h-1.1
			v7.9h0l-4.5-7.9h-1.3V30z"/>
		<path id="Path_00000159464859472363580310000001790594726169467028_" class="st0" d="M254.7,30.2c2.2,0,3.8-1.5,3.8-4.1v-1h-3.6
			v1.1h2.5c0,1.8-1,2.9-2.6,2.9c-1.6,0-2.9-1.3-2.9-4.1c0-2.7,1.4-3.9,2.9-3.9c1.6,0,2.2,1.1,2.5,2.3l1.2-0.2
			c-0.3-1.9-1.7-3.2-3.7-3.2c-2.1,0-4.1,1.7-4.1,5C250.6,28.8,252.6,30.2,254.7,30.2z"/>
		<path id="Path_00000135662530357710674690000013951972604340082848_" class="st0" d="M266.1,30h1.1v-8.7h3v-1.1h-7.2v1.1h3V30z"/>
		<path id="Path_00000040550488566418508600000011945548824679658431_" class="st0" d="M272,30h1.2v-4.6h4.4V30h1.1v-9.8h-1.1v4.2
			h-4.4v-4.2H272V30z"/>
		<path id="Path_00000006676526211265944320000009333883630514365329_" class="st0" d="M281.3,30h5.9v-1.1h-4.7v-3.5h4.3v-1h-4.3
			v-3.2h4.7v-1.1h-5.9V30z"/>
		<path id="Shape_00000098940953312844653390000003408672692858345092_" class="st0" d="M294.2,28.9v-7.7h1.8c1.9,0,3.1,1.3,3.1,3.8
			c0,2.8-1.2,3.8-3.2,3.8H294.2z M293,30h3c2.2,0,4.3-1.2,4.3-4.9c0-3.4-2.1-4.9-4.2-4.9H293V30z"/>
		<path id="Shape_00000093877531885478220950000007362667413002888583_" class="st0" d="M301.3,30h1.2l0.7-1.9h4.4l0.7,1.9h1.2
			l-3.5-9.8h-1.1L301.3,30z M303.6,27.1l1.8-5.3h0l1.8,5.3H303.6z"/>
		<path id="Path_00000062192911426162568380000015385020185805299597_" class="st0" d="M311.2,30h1.2v-9.8h-1.2V30z"/>
		<path id="Path_00000120548079411177903550000012077756167687669635_" class="st0" d="M315.1,30h5.4v-1.1h-4.3v-8.7h-1.2V30z"/>
		<path id="Path_00000114058024164390826510000016019011692377551277_" class="st0" d="M324.4,30h1.1v-4.1l3.2-5.7h-1.3l-2.5,4.6h0
			l-2.5-4.6h-1.3l3.2,5.7V30z"/>
		<path id="Path_00000109721398712568174720000008867421998488625547_" class="st0" d="M1,50h1.1v-8.2h0L5.6,50h0.4l3.4-8.2h0V50
			h1.1v-9.8H8.8l-3.1,7.5h0l-3.1-7.5H1V50z"/>
		<path id="Shape_00000163750953162861050130000014746284164847985338_" class="st0" d="M12.1,50h1.2l0.7-1.9h4.4l0.7,1.9h1.2
			l-3.5-9.8h-1.1L12.1,50z M14.3,47.1l1.8-5.3h0l1.8,5.3H14.3z"/>
		<path id="Shape_00000099660268643237851330000005326831969143472538_" class="st0" d="M23.1,48.9v-7.7h1.8c1.9,0,3.1,1.3,3.1,3.8
			c0,2.8-1.2,3.8-3.2,3.8H23.1z M21.9,50h3c2.2,0,4.3-1.2,4.3-4.9c0-3.4-2.1-4.9-4.2-4.9h-3.1V50z"/>
		<path id="Path_00000003092831689877892690000017030437520414683785_" class="st0" d="M31.2,50h1.2v-7.9h0l4.5,7.9h1.2v-9.8H37v7.9
			h0l-4.5-7.9h-1.3V50z"/>
		<path id="Path_00000098208116484819361490000011156648834702978486_" class="st0" d="M40.8,50h5.9v-1.1H42v-3.5h4.3v-1H42v-3.2
			h4.7v-1.1h-5.9V50z"/>
		<path id="Path_00000085220237034739076760000005832732197408615863_" class="st0" d="M48.4,46.6c0.3,2.3,1.6,3.6,3.9,3.6
			c2.2,0,3.4-1.3,3.4-2.8c0-1.5-0.6-2.2-3.3-3c-2.1-0.7-2.4-1-2.4-1.8c0-0.8,0.6-1.5,1.9-1.5c1.5,0,2,0.8,2.2,1.8l1.2-0.3
			c-0.3-1.8-1.7-2.7-3.4-2.7c-2,0-3.1,1.2-3.1,2.6c0,1.4,0.9,2.1,3,2.8c2.4,0.8,2.7,1.2,2.7,2.1c0,0.9-0.7,1.7-2.2,1.7
			c-1.9,0-2.5-0.9-2.8-2.7L48.4,46.6z"/>
		<path id="Path_00000178898790509557680080000010071554168786393988_" class="st0" d="M57,46.6c0.3,2.3,1.6,3.6,3.9,3.6
			c2.2,0,3.4-1.3,3.4-2.8c0-1.5-0.6-2.2-3.3-3c-2.1-0.7-2.4-1-2.4-1.8c0-0.8,0.6-1.5,1.9-1.5c1.5,0,2,0.8,2.2,1.8l1.2-0.3
			c-0.3-1.8-1.7-2.7-3.4-2.7c-2,0-3.1,1.2-3.1,2.6c0,1.4,0.9,2.1,3,2.8c2.4,0.8,2.7,1.2,2.7,2.1c0,0.9-0.7,1.7-2.2,1.7
			c-1.9,0-2.5-0.9-2.8-2.7L57,46.6z"/>
		<path id="Shape_00000008132973933914719820000003110938845478743939_" class="st0" d="M73.3,49.1c-1.7,0-2.9-1.3-2.9-4.1
			c0-2.7,1.4-3.9,2.9-3.9c1.5,0,2.9,1.3,2.9,4C76.2,47.9,74.9,49.1,73.3,49.1z M73.3,50.2c2.1,0,4.1-1.4,4.1-5.1
			c0-3.4-2-5.1-4.1-5.1c-2.1,0-4.2,1.7-4.2,5C69.2,48.8,71.2,50.2,73.3,50.2z"/>
		<path id="Path_00000020369147602032691060000013364329723480809642_" class="st0" d="M79.5,50h1.2v-4.2H85v-1h-4.4v-3.5h4.7v-1.1
			h-5.9V50z"/>
		<path id="Path_00000100345336202368967910000013441194608128890770_" class="st0" d="M91,50h5.4v-1.1h-4.3v-8.7H91V50z"/>
		<path id="Shape_00000135671931805909317100000011202065356246349752_" class="st0" d="M97.1,50h1.2l0.7-1.9h4.4l0.7,1.9h1.2
			l-3.5-9.8h-1.1L97.1,50z M99.3,47.1l1.8-5.3h0l1.8,5.3H99.3z"/>
		<path id="Path_00000075122135668258701800000004867964874429163438_" class="st0" d="M106.7,46.8c0,2.3,1.3,3.4,3.5,3.4
			s3.5-1.1,3.5-3.4v-6.6h-1.1v6.6c0,1.5-0.8,2.4-2.3,2.4c-1.5,0-2.3-0.8-2.3-2.4v-6.5h-1.2V46.8z"/>
		<path id="Path_00000062888001566750445780000001018275104436675224_" class="st0" d="M116.1,50h1.2v-7.9h0l4.5,7.9h1.2v-9.8h-1.1
			v7.9h0l-4.5-7.9h-1.3V50z"/>
		<path id="Path_00000152952953456628577260000002135330467506197692_" class="st0" d="M129.2,41.1c1.7,0,2.3,1.2,2.5,2.5l1.2-0.2
			c-0.3-2-1.6-3.4-3.7-3.4c-2.1,0-4.2,1.7-4.2,5c0,3.8,2,5.2,4.2,5.2c2.2,0,3.5-1.4,3.7-3.7l-1.2-0.2c-0.2,1.5-0.7,2.8-2.5,2.8
			c-1.7,0-2.9-1.3-2.9-4.1C126.3,42.3,127.7,41.1,129.2,41.1z"/>
		<path id="Path_00000141434927112804076910000001183692865601646230_" class="st0" d="M135,50h1.2v-4.5h4.4V50h1.1v-9.8h-1.1v4.2
			h-4.4v-4.2H135V50z"/>
		<path id="Path_00000021084640068536140470000008291626707974305694_" class="st0" d="M144.4,50h1.2v-9.8h-1.2V50z"/>
		<path id="Path_00000044881731847112938400000002721833610356039314_" class="st0" d="M148.3,50h1.2v-7.9h0L154,50h1.2v-9.8H154
			v7.9h0l-4.5-7.9h-1.3V50z"/>
		<path id="Path_00000098195188768521015050000006738865951573076396_" class="st0" d="M161.4,50.2c2.2,0,3.8-1.5,3.8-4.1v-1h-3.6
			v1.1h2.5c0,1.8-1,2.9-2.6,2.9c-1.6,0-2.9-1.3-2.9-4.1c0-2.7,1.4-3.9,2.9-3.9c1.6,0,2.2,1.1,2.5,2.3l1.2-0.2
			c-0.3-1.9-1.7-3.2-3.7-3.2c-2.1,0-4.1,1.7-4.1,5C157.3,48.8,159.3,50.2,161.4,50.2z"/>
		<path id="Shape_00000049925274176851065430000002998905089261313192_" class="st0" d="M169.7,50h1.2l0.7-1.9h4.4l0.7,1.9h1.2
			l-3.5-9.8h-1.1L169.7,50z M172,47.1l1.8-5.3h0l1.8,5.3H172z"/>
		<path id="Path_00000132793935393113360410000017296460807382463630_" class="st0" d="M179.5,50h1.2v-7.9h0l4.5,7.9h1.2v-9.8h-1.1
			v7.9h0l-4.5-7.9h-1.3V50z"/>
		<path id="Path_00000074428651684103055950000003278536855676000671_" class="st0" d="M192.6,50h1.2v-7.9h0l4.5,7.9h1.2v-9.8h-1.1
			v7.9h0l-4.5-7.9h-1.3V50z"/>
		<path id="Path_00000044862546602974776880000009194433724172450218_" class="st0" d="M202.2,50h1.2v-4.2h4.4v-1h-4.4v-3.5h4.7
			v-1.1h-5.9V50z"/>
		<path id="Path_00000129891425050831040800000011120508455078302097_" class="st0" d="M212.2,50h1.1v-8.7h3v-1.1h-7.2v1.1h3V50z"/>
		<path id="Path_00000013193740884787140260000014340968495874575803_" class="st0" d="M222.6,50h1.4l2.5-8.1h0L229,50h1.4l1.8-9.8
			h-1.2l-1.4,8.1h0l-2.5-8.1h-1.2l-2.4,8.1h0l-1.5-8.1h-1.2L222.6,50z"/>
		<path id="Path_00000138543498812032803710000011631066983899770767_" class="st0" d="M234.3,50h1.2v-9.8h-1.2V50z"/>
		<path id="Path_00000014593923274236072720000014640209076355324294_" class="st0" d="M240.2,50h1.1v-8.7h3v-1.1h-7.2v1.1h3V50z"/>
		<path id="Path_00000098179583417247729400000015131087378732251266_" class="st0" d="M246.1,50h1.2v-4.5h4.4V50h1.1v-9.8h-1.1v4.2
			h-4.4v-4.2h-1.2V50z"/>
		<path id="Shape_00000044871228399479968060000018037451472625010877_" class="st0" d="M1,70h1.2v-3.8h2.6c1.9,0,3.2-1.1,3.2-3
			c0-2-1.4-3-3.3-3H1V70z M2.2,65.2v-3.9h2.5c1.1,0,2.2,0.5,2.2,2c0,1.3-1,1.9-2.1,1.9H2.2z"/>
		<path id="Shape_00000178917715797509630280000006882030823645564033_" class="st0" d="M8.7,70h1.2l0.7-1.9h4.4l0.7,1.9h1.2
			l-3.5-9.8h-1.1L8.7,70z M10.9,67.1l1.8-5.3h0l1.8,5.3H10.9z"/>
		<path id="Path_00000098215840865101514630000011284459141147454129_" class="st0" d="M22,61.1c1.7,0,2.3,1.2,2.5,2.5l1.2-0.2
			c-0.3-2-1.6-3.4-3.7-3.4c-2.1,0-4.2,1.7-4.2,5c0,3.8,2,5.2,4.2,5.2c2.2,0,3.5-1.4,3.7-3.7l-1.2-0.2c-0.2,1.5-0.7,2.8-2.5,2.8
			c-1.7,0-2.9-1.3-2.9-4.1C19.1,62.3,20.5,61.1,22,61.1z"/>
		<path id="Path_00000042003277584784957410000007691936554266299009_" class="st0" d="M27.8,70h5.9v-1.1H29v-3.5h4.3v-1H29v-3.2
			h4.7v-1.1h-5.9V70z"/>
		<path id="Path_00000157307684315571219250000008006245091575620513_" class="st0" d="M36,70h1.1v-8.2h0l3.4,8.2h0.4l3.4-8.2h0V70
			h1.1v-9.8h-1.6l-3.1,7.5h0l-3.1-7.5H36V70z"/>
		<path id="Shape_00000154416287261444537940000009211956603391155086_" class="st0" d="M47,70h1.2l0.7-1.9h4.4l0.7,1.9h1.2
			l-3.5-9.8h-1.1L47,70z M49.3,67.1l1.8-5.3h0l1.8,5.3H49.3z"/>
		<path id="Path_00000075844486266183014960000012131001652537993394_" class="st0" d="M56.7,70h1.2v-3.4l1.1-1.3h0l3.3,4.6h1.4
			l-4-5.5l3.6-4.3h-1.5l-4,4.8h0v-4.8h-1.2V70z"/>
		<path id="Path_00000108302773326676496600000008880160948280221118_" class="st0" d="M65.1,70H71v-1.1h-4.7v-3.5h4.3v-1h-4.3v-3.2
			H71v-1.1h-5.9V70z"/>
		<path id="Shape_00000124156792001796058190000015679108589397668770_" class="st0" d="M73.3,70h1.2v-4h2.2l2.1,4h1.3L78,65.9
			c1.4-0.3,2.4-1.2,2.4-2.8c0-2-1.3-2.9-3.3-2.9h-3.8V70z M74.5,65v-3.7H77c1.3,0,2.2,0.5,2.2,1.8S78.2,65,77,65H74.5z"/>
		<path id="Path_00000127767067197589691950000004244707747072330674_" class="st0" d="M87.9,70H89v-8.7h3v-1.1h-7.2v1.1h3V70z"/>
		<path id="Shape_00000048498922453530464480000000232808458938632600_" class="st0" d="M97.3,69.1c-1.7,0-2.9-1.3-2.9-4.1
			c0-2.7,1.4-3.9,2.9-3.9c1.5,0,2.9,1.3,2.9,4C100.2,67.9,98.9,69.1,97.3,69.1z M97.3,70.2c2.1,0,4.1-1.4,4.1-5.1
			c0-3.4-2-5.1-4.1-5.1c-2.1,0-4.2,1.7-4.2,5C93.2,68.8,95.2,70.2,97.3,70.2z"/>
		<path id="Path_00000154409636958689582940000015301227917297392001_" class="st0" d="M107,70h1.2v-4.6h4.4V70h1.1v-9.8h-1.1v4.2
			h-4.4v-4.2H107V70z"/>
		<path id="Path_00000106856286595302446200000012703274398126687879_" class="st0" d="M116.5,70h1.2v-9.8h-1.2V70z"/>
		<path id="Path_00000141427969772476393470000003341665991159357372_" class="st0" d="M120.3,70h1.1v-8.2h0l3.4,8.2h0.4l3.4-8.2h0
			V70h1.1v-9.8h-1.6l-3.1,7.5h0l-3.1-7.5h-1.6V70z"/>
		<path id="Path_00000014621043986363994970000013629130153780998303_" class="st0" d="M136,70h1.2v-9.8H136V70z"/>
		<path id="Path_00000180344564430954172690000002808569669055958700_" class="st0" d="M139.3,66.6c0.3,2.3,1.6,3.6,3.9,3.6
			c2.2,0,3.4-1.3,3.4-2.8c0-1.5-0.6-2.2-3.3-3c-2.1-0.7-2.4-1-2.4-1.8c0-0.8,0.6-1.5,1.9-1.5c1.5,0,2,0.8,2.2,1.8l1.2-0.3
			c-0.3-1.8-1.7-2.7-3.4-2.7c-2,0-3.1,1.2-3.1,2.6c0,1.4,0.9,2.1,3,2.8c2.4,0.8,2.7,1.2,2.7,2.1c0,0.9-0.7,1.7-2.2,1.7
			c-1.9,0-2.5-0.9-2.8-2.7L139.3,66.6z"/>
		<path id="Path_00000025408715061382521770000002491461068249963907_" class="st0" d="M151.4,66.6c0.3,2.3,1.6,3.6,3.9,3.6
			c2.2,0,3.4-1.3,3.4-2.8c0-1.5-0.6-2.2-3.3-3c-2.1-0.7-2.4-1-2.4-1.8c0-0.8,0.6-1.5,1.9-1.5c1.5,0,2,0.8,2.2,1.8l1.2-0.3
			c-0.3-1.8-1.7-2.7-3.4-2.7c-2,0-3.1,1.2-3.1,2.6c0,1.4,0.9,2.1,3,2.8c2.4,0.8,2.7,1.2,2.7,2.1c0,0.9-0.7,1.7-2.2,1.7
			c-1.9,0-2.5-0.9-2.8-2.7L151.4,66.6z"/>
		<path id="Path_00000069380606075338197420000014469865758840040383_" class="st0" d="M160.6,70h5.9v-1.1h-4.7v-3.5h4.3v-1h-4.3
			v-3.2h4.7v-1.1h-5.9V70z"/>
		<path id="Path_00000167387303885829952740000008515756809631764884_" class="st0" d="M172.4,61.1c1.7,0,2.3,1.2,2.5,2.5l1.2-0.2
			c-0.3-2-1.6-3.4-3.7-3.4c-2.1,0-4.2,1.7-4.2,5c0,3.8,2,5.2,4.2,5.2c2.2,0,3.5-1.4,3.7-3.7l-1.2-0.2c-0.2,1.5-0.7,2.8-2.5,2.8
			c-1.7,0-2.9-1.3-2.9-4.1C169.5,62.3,170.9,61.1,172.4,61.1z"/>
		<path id="Shape_00000139253003703121865640000002482816418058666653_" class="st0" d="M181.8,69.1c-1.7,0-2.9-1.3-2.9-4.1
			c0-2.7,1.4-3.9,2.9-3.9c1.5,0,2.9,1.3,2.9,4C184.6,67.9,183.4,69.1,181.8,69.1z M181.8,70.2c2.1,0,4.1-1.4,4.1-5.1
			c0-3.4-2-5.1-4.1-5.1c-2.1,0-4.2,1.7-4.2,5C177.6,68.8,179.6,70.2,181.8,70.2z"/>
		<path id="Path_00000024680335015252012710000011821900932072294553_" class="st0" d="M188,70h1.2v-7.9h0l4.5,7.9h1.2v-9.8h-1.1
			v7.9h0l-4.5-7.9H188V70z"/>
		<path id="Shape_00000111155504102058813060000001293334986544914337_" class="st0" d="M198.7,68.9v-7.7h1.8c1.9,0,3.1,1.3,3.1,3.8
			c0,2.8-1.2,3.8-3.2,3.8H198.7z M197.5,70h3c2.2,0,4.3-1.2,4.3-4.9c0-3.4-2.1-4.9-4.2-4.9h-3.1V70z"/>
		<path id="Path_00000075880316845846257520000014552394269340045710_" class="st0" d="M210.4,70h1.2v-7.9h0L216,70h1.2v-9.8h-1.1
			v7.9h0l-4.5-7.9h-1.3V70z"/>
		<path id="Shape_00000114060884637412347710000011652464538067254715_" class="st0" d="M218.9,70h1.2l0.7-1.9h4.4l0.7,1.9h1.2
			l-3.5-9.8h-1.1L218.9,70z M221.1,67.1l1.8-5.3h0l1.8,5.3H221.1z"/>
		<path id="Path_00000060001871184829808820000001669147786255220912_" class="st0" d="M230.7,70h1.1v-8.7h3v-1.1h-7.2v1.1h3V70z"/>
		<path id="Path_00000045607138121328879280000015683698032520478083_" class="st0" d="M236.4,66.8c0,2.3,1.3,3.4,3.5,3.4
			c2.2,0,3.5-1.1,3.5-3.4v-6.6h-1.1v6.6c0,1.5-0.8,2.4-2.3,2.4c-1.5,0-2.3-0.8-2.3-2.4v-6.5h-1.2V66.8z"/>
		<path id="Shape_00000173133947285489297150000008723937864349313205_" class="st0" d="M245.8,70h1.2v-4h2.2l2.1,4h1.3l-2.2-4.1
			c1.4-0.3,2.4-1.2,2.4-2.8c0-2-1.3-2.9-3.3-2.9h-3.8V70z M246.9,65v-3.7h2.5c1.3,0,2.2,0.5,2.2,1.8s-1,1.8-2.2,1.8H246.9z"/>
		<path id="Path_00000021825963005367764000000005194955706797163179_" class="st0" d="M254.8,70h5.9v-1.1h-4.7v-3.5h4.3v-1h-4.3
			v-3.2h4.7v-1.1h-5.9V70z"/>
		<path id="Path_00000005978314011309199130000001705175934880488627_" class="st0" d="M263,70h1.7v-1.7H263V70z"/>
		<path id="Shape_00000089564785705939211080000013797994321934111636_" class="st0" d="M270.8,70h1.2v-3.8h2.6c1.9,0,3.2-1.1,3.2-3
			c0-2-1.4-3-3.3-3h-3.8V70z M272,65.2v-3.9h2.5c1.1,0,2.2,0.5,2.2,2c0,1.3-1,1.9-2.1,1.9H272z"/>
		<path id="Shape_00000113332481620078583760000001448495687911100847_" class="st0" d="M279.5,70h1.2v-4h2.2l2.1,4h1.3l-2.2-4.1
			c1.4-0.3,2.4-1.2,2.4-2.8c0-2-1.3-2.9-3.3-2.9h-3.8V70z M280.6,65v-3.7h2.5c1.3,0,2.2,0.5,2.2,1.8s-1,1.8-2.2,1.8H280.6z"/>
		<path id="Path_00000000224401610040048190000005579050808013737353_" class="st0" d="M288.5,70h1.2v-9.8h-1.2V70z"/>
		<path id="Shape_00000055676258161153592570000001985484963150889372_" class="st0" d="M296,69.1c-1.7,0-2.9-1.3-2.9-4.1
			c0-2.7,1.4-3.9,2.9-3.9c1.5,0,2.9,1.3,2.9,4C298.9,67.9,297.6,69.1,296,69.1z M296,70.2c2.1,0,4.1-1.4,4.1-5.1
			c0-3.4-2-5.1-4.1-5.1c-2.1,0-4.2,1.7-4.2,5C291.9,68.8,293.9,70.2,296,70.2z"/>
		<path id="Shape_00000145750022032431197970000017679242790106050238_" class="st0" d="M302.2,70h1.2v-4h2.2l2.1,4h1.3l-2.2-4.1
			c1.4-0.3,2.4-1.2,2.4-2.8c0-2-1.3-2.9-3.3-2.9h-3.8V70z M303.4,65v-3.7h2.5c1.3,0,2.2,0.5,2.2,1.8s-1,1.8-2.2,1.8H303.4z"/>
		<path id="Path_00000149347784733786561200000013226248465295712693_" class="st0" d="M316.8,70h1.1v-8.7h3v-1.1h-7.2v1.1h3V70z"/>
		<path id="Shape_00000101781481111272732890000016591556479710304676_" class="st0" d="M326.2,69.1c-1.7,0-2.9-1.3-2.9-4.1
			c0-2.7,1.4-3.9,2.9-3.9c1.5,0,2.9,1.3,2.9,4C329.1,67.9,327.8,69.1,326.2,69.1z M326.2,70.2c2.1,0,4.1-1.4,4.1-5.1
			c0-3.4-2-5.1-4.1-5.1c-2.1,0-4.2,1.7-4.2,5C322.1,68.8,324.1,70.2,326.2,70.2z"/>
		<path id="Path_00000159448103105181688110000005733915686488773285_" class="st0" d="M0.1,87.9c0.2,1.3,1,2.3,2.4,2.3
			c1.5,0,2.3-0.9,2.3-2.7v-7.3H3.6v7.2c0,1.2-0.3,1.7-1.1,1.7c-0.9,0-1.2-0.8-1.3-1.5L0.1,87.9z"/>
		<path id="Shape_00000087390672384864259750000000288644201808324531_" class="st0" d="M11,89.1c-1.7,0-2.9-1.3-2.9-4.1
			c0-2.7,1.4-3.9,2.9-3.9c1.5,0,2.9,1.3,2.9,4C13.8,87.9,12.6,89.1,11,89.1z M11,90.2c2.1,0,4.1-1.4,4.1-5.1c0-3.4-2-5.1-4.1-5.1
			c-2.1,0-4.2,1.7-4.2,5C6.8,88.8,8.9,90.2,11,90.2z"/>
		<path id="Path_00000040541115765517995960000000192320303284564355_" class="st0" d="M17.2,90h1.2v-9.8h-1.2V90z"/>
		<path id="Path_00000164504144730210230890000011167641105079562170_" class="st0" d="M21.1,90h1.2v-7.9h0l4.5,7.9H28v-9.8h-1.1
			v7.9h0l-4.5-7.9h-1.3V90z"/>
		<path id="Path_00000177446699343272367140000018415870727752740491_" class="st0" d="M30.8,90h1.2v-9.8h-1.2V90z"/>
		<path id="Path_00000145757771993613350520000017285857834495574684_" class="st0" d="M34.7,90h1.2v-7.9h0l4.5,7.9h1.2v-9.8h-1.1
			v7.9h0l-4.5-7.9h-1.3V90z"/>
		<path id="Path_00000094587673396559263050000000876226634953912767_" class="st0" d="M47.8,90.2c2.2,0,3.8-1.5,3.8-4.1v-1h-3.6
			v1.1h2.5c0,1.8-1,2.9-2.6,2.9c-1.6,0-2.9-1.3-2.9-4.1c0-2.7,1.4-3.9,2.9-3.9c1.6,0,2.2,1.1,2.5,2.3l1.2-0.2
			c-0.3-1.9-1.7-3.2-3.7-3.2c-2.1,0-4.1,1.7-4.1,5C43.7,88.8,45.7,90.2,47.8,90.2z"/>
		<path id="Shape_00000113340106455823150210000002176189086373989761_" class="st0" d="M56.1,90h1.2l0.7-1.9h4.4l0.7,1.9h1.2
			l-3.5-9.8h-1.1L56.1,90z M58.4,87.1l1.8-5.3h0l1.8,5.3H58.4z"/>
		<path id="Shape_00000181784781873135749810000007516588147000564916_" class="st0" d="M65.9,90h3.5c2.4,0,3.5-1.1,3.5-2.9
			c0-1.3-0.8-2.1-1.6-2.4v0c0.7-0.3,1.2-0.9,1.2-2c0-1.4-1.1-2.5-2.9-2.5h-3.8V90z M67.1,84.4v-3.1h2.4c1.2,0,1.9,0.5,1.9,1.5
			c0,1-0.6,1.5-1.9,1.5H67.1z M67.1,88.9v-3.6h2.2c1.6,0,2.4,0.4,2.4,1.7c0,1.3-0.9,1.8-2.5,1.8H67.1z"/>
		<path id="Shape_00000054976367895996498050000016396639773400375456_" class="st0" d="M78.6,89.1c-1.7,0-2.9-1.3-2.9-4.1
			c0-2.7,1.4-3.9,2.9-3.9c1.5,0,2.9,1.3,2.9,4C81.5,87.9,80.2,89.1,78.6,89.1z M78.6,90.2c2.1,0,4.1-1.4,4.1-5.1
			c0-3.4-2-5.1-4.1-5.1c-2.1,0-4.2,1.7-4.2,5C74.4,88.8,76.5,90.2,78.6,90.2z"/>
		<path id="Path_00000029754151328569495570000016553655274512217527_" class="st0" d="M84.6,86.8c0,2.3,1.3,3.4,3.5,3.4
			c2.2,0,3.5-1.1,3.5-3.4v-6.6h-1.1v6.6c0,1.5-0.8,2.4-2.3,2.4c-1.5,0-2.3-0.8-2.3-2.4v-6.5h-1.2V86.8z"/>
		<path id="Path_00000113319454318683559800000003326897358101185929_" class="st0" d="M96.1,90h1.1v-8.7h3v-1.1H93v1.1h3V90z"/>
		<path id="Path_00000172442564082013173790000010548251878962563979_" class="st0" d="M107.5,90h1.1v-4.1l3.2-5.7h-1.3l-2.5,4.6h0
			l-2.5-4.6h-1.3l3.2,5.7V90z"/>
		<path id="Shape_00000072253606817629869770000009593774278385758904_" class="st0" d="M117,89.1c-1.7,0-2.9-1.3-2.9-4.1
			c0-2.7,1.4-3.9,2.9-3.9c1.5,0,2.9,1.3,2.9,4C119.9,87.9,118.6,89.1,117,89.1z M117,90.2c2.1,0,4.1-1.4,4.1-5.1
			c0-3.4-2-5.1-4.1-5.1c-2.1,0-4.2,1.7-4.2,5C112.9,88.8,114.9,90.2,117,90.2z"/>
		<path id="Path_00000152961877285024362270000013937731109543292050_" class="st0" d="M123,86.8c0,2.3,1.3,3.4,3.5,3.4
			s3.5-1.1,3.5-3.4v-6.6h-1.1v6.6c0,1.5-0.8,2.4-2.3,2.4c-1.5,0-2.3-0.8-2.3-2.4v-6.5H123V86.8z"/>
		<path id="Path_00000033371640562955347420000013440229743699057292_" class="st0" d="M132.4,91.5c1.2-0.1,1.7-0.8,1.7-1.7v-1.4
			h-1.7V90h0.7c0,0.4-0.1,0.8-0.7,0.9V91.5z"/>
		<path id="Path_00000052103751207630556810000013153681355860403628_" class="st0" d="M140.2,90h1.2v-4.6h4.4V90h1.1v-9.8h-1.1v4.2
			h-4.4v-4.2h-1.2V90z"/>
		<path id="Path_00000155145904943466608700000005096738957766994611_" class="st0" d="M149.6,90h5.9v-1.1h-4.7v-3.5h4.3v-1h-4.3
			v-3.2h4.7v-1.1h-5.9V90z"/>
		<path id="Path_00000042715566049790793750000000948765119165071282_" class="st0" d="M162.4,90h1.4l2.5-8.1h0l2.5,8.1h1.4l1.8-9.8
			h-1.2l-1.4,8.1h0l-2.4-8.1h-1.2l-2.4,8.1h0l-1.5-8.1h-1.2L162.4,90z"/>
		<path id="Shape_00000168836032514398883100000012953654314177379725_" class="st0" d="M172.9,90h1.2l0.7-1.9h4.4L180,90h1.2
			l-3.5-9.8h-1.1L172.9,90z M175.2,87.1l1.8-5.3h0l1.8,5.3H175.2z"/>
		<path id="Path_00000021102911775918109650000015910911694021923467_" class="st0" d="M182.1,86.6c0.3,2.3,1.6,3.6,3.9,3.6
			c2.2,0,3.4-1.3,3.4-2.8c0-1.5-0.6-2.2-3.3-3c-2.1-0.7-2.4-1-2.4-1.8c0-0.8,0.6-1.5,1.9-1.5c1.5,0,2,0.8,2.2,1.8l1.2-0.3
			c-0.3-1.8-1.7-2.7-3.4-2.7c-2,0-3.1,1.2-3.1,2.6c0,1.4,0.9,2.1,3,2.8c2.4,0.8,2.7,1.2,2.7,2.1c0,0.9-0.7,1.7-2.2,1.7
			c-1.9,0-2.5-0.9-2.8-2.7L182.1,86.6z"/>
		<path id="Path_00000079470319618980543030000012548638555347711912_" class="st0" d="M194.9,90h1.2v-9.8h-1.2V90z"/>
		<path id="Path_00000082333440558766670610000007618996788531680665_" class="st0" d="M198.8,90h1.2v-7.9h0l4.5,7.9h1.2v-9.8h-1.1
			v7.9h0l-4.5-7.9h-1.3V90z"/>
		<path id="Path_00000063628717800215042810000014139548129189669515_" class="st0" d="M215.5,81.1c1.7,0,2.3,1.2,2.5,2.5l1.2-0.2
			c-0.3-2-1.6-3.4-3.7-3.4c-2.1,0-4.2,1.7-4.2,5c0,3.8,2,5.2,4.2,5.2c2.2,0,3.5-1.4,3.7-3.7l-1.2-0.2c-0.2,1.5-0.7,2.8-2.5,2.8
			c-1.7,0-2.9-1.3-2.9-4.1C212.5,82.3,213.9,81.1,215.5,81.1z"/>
		<path id="Path_00000031906170941554080570000012413438504872350628_" class="st0" d="M221.2,90h1.2v-4.6h4.4V90h1.1v-9.8h-1.1v4.2
			h-4.4v-4.2h-1.2V90z"/>
		<path id="Shape_00000120519319698373894280000013326595323123847824_" class="st0" d="M229.5,90h1.2l0.7-1.9h4.4l0.7,1.9h1.2
			l-3.5-9.8H233L229.5,90z M231.8,87.1l1.8-5.3h0l1.8,5.3H231.8z"/>
		<path id="Shape_00000139258380093335166810000015239356048915030176_" class="st0" d="M239.3,90h1.2v-4h2.2l2.1,4h1.3l-2.2-4.1
			c1.4-0.3,2.4-1.2,2.4-2.8c0-2-1.3-2.9-3.3-2.9h-3.8V90z M240.5,85v-3.7h2.5c1.3,0,2.2,0.5,2.2,1.8s-1,1.8-2.2,1.8H240.5z"/>
		<path id="Path_00000031908476153872892260000009235505931188938419_" class="st0" d="M251.9,90.2c2.2,0,3.8-1.5,3.8-4.1v-1H252
			v1.1h2.5c0,1.8-1,2.9-2.6,2.9c-1.6,0-2.9-1.3-2.9-4.1c0-2.7,1.4-3.9,2.9-3.9c1.6,0,2.2,1.1,2.5,2.3l1.2-0.2
			c-0.3-1.9-1.7-3.2-3.7-3.2c-2.1,0-4.1,1.7-4.1,5C247.8,88.8,249.7,90.2,251.9,90.2z"/>
		<path id="Path_00000155850133637967252670000013151330896812447935_" class="st0" d="M257.8,90h5.9v-1.1h-4.7v-3.5h4.3v-1h-4.3
			v-3.2h4.7v-1.1h-5.9V90z"/>
		<path id="Shape_00000173132335594161392500000003115928615028978860_" class="st0" d="M273.1,89.1c-1.7,0-2.9-1.3-2.9-4.1
			c0-2.7,1.4-3.9,2.9-3.9c1.5,0,2.9,1.3,2.9,4C275.9,87.9,274.7,89.1,273.1,89.1z M273.1,90.2c2.1,0,4.1-1.4,4.1-5.1
			c0-3.4-2-5.1-4.1-5.1c-2.1,0-4.2,1.7-4.2,5C268.9,88.8,270.9,90.2,273.1,90.2z"/>
		<path id="Path_00000050622821099827353740000007982519895313016479_" class="st0" d="M279.3,90h1.2v-4.2h4.4v-1h-4.4v-3.5h4.7
			v-1.1h-5.9V90z"/>
		<path id="Path_00000104694463565245291960000014298911543675176875_" class="st0" d="M4.6,101.1c1.7,0,2.3,1.2,2.5,2.5l1.2-0.2
			c-0.3-2-1.6-3.4-3.7-3.4c-2.1,0-4.2,1.7-4.2,5c0,3.8,2,5.2,4.2,5.2c2.2,0,3.5-1.4,3.7-3.7l-1.2-0.2c-0.2,1.5-0.7,2.8-2.5,2.8
			c-1.7,0-2.9-1.3-2.9-4.1C1.7,102.3,3.1,101.1,4.6,101.1z"/>
		<path id="Shape_00000171688993021114787320000006753129307022335631_" class="st0" d="M14,109.1c-1.7,0-2.9-1.3-2.9-4.1
			c0-2.7,1.4-3.9,2.9-3.9c1.5,0,2.9,1.3,2.9,4C16.9,107.9,15.6,109.1,14,109.1z M14,110.2c2.1,0,4.1-1.4,4.1-5.1
			c0-3.4-2-5.1-4.1-5.1c-2.1,0-4.2,1.7-4.2,5C9.8,108.8,11.9,110.2,14,110.2z"/>
		<path id="Path_00000150068095174002364370000002044577033397448102_" class="st0" d="M20,106.8c0,2.3,1.3,3.4,3.5,3.4
			s3.5-1.1,3.5-3.4v-6.6h-1.1v6.6c0,1.5-0.8,2.4-2.3,2.4c-1.5,0-2.3-0.8-2.3-2.4v-6.5H20V106.8z"/>
		<path id="Path_00000021835143260240521880000011325377743074880136_" class="st0" d="M29.4,110h1.2v-7.9h0l4.5,7.9h1.2v-9.8h-1.1
			v7.9h0l-4.5-7.9h-1.3V110z"/>
		<path id="Path_00000181052954710927962690000017156909571033306272_" class="st0" d="M41,110h1.1v-8.7h3v-1.1H38v1.1h3V110z"/>
		<path id="Path_00000122689702853226093770000016850530993852468104_" class="st0" d="M46.9,110h5.4v-1.1H48v-8.7h-1.2V110z"/>
		<path id="Path_00000129172925755843022370000018227930800299993232_" class="st0" d="M54,110h5.9v-1.1h-4.7v-3.5h4.3v-1h-4.3v-3.2
			h4.7v-1.1H54V110z"/>
		<path id="Path_00000124162993836533570320000011041324374194541231_" class="st0" d="M61.6,106.6c0.3,2.3,1.6,3.6,3.9,3.6
			c2.2,0,3.4-1.3,3.4-2.8c0-1.5-0.6-2.2-3.3-3c-2.1-0.7-2.4-1-2.4-1.8c0-0.8,0.6-1.5,1.9-1.5c1.5,0,2,0.8,2.2,1.8l1.2-0.3
			c-0.3-1.8-1.7-2.7-3.4-2.7c-2,0-3.1,1.2-3.1,2.6c0,1.4,0.9,2.1,3,2.8c2.4,0.8,2.7,1.2,2.7,2.1c0,0.9-0.7,1.7-2.2,1.7
			c-1.9,0-2.5-0.9-2.8-2.7L61.6,106.6z"/>
		<path id="Path_00000121243366345694466290000008462135387250405300_" class="st0" d="M70.2,106.6c0.3,2.3,1.6,3.6,3.9,3.6
			c2.2,0,3.4-1.3,3.4-2.8c0-1.5-0.6-2.2-3.3-3c-2.1-0.7-2.4-1-2.4-1.8c0-0.8,0.6-1.5,1.9-1.5c1.5,0,2,0.8,2.2,1.8l1.2-0.3
			c-0.3-1.8-1.7-2.7-3.4-2.7c-2,0-3.1,1.2-3.1,2.6c0,1.4,0.9,2.1,3,2.8c2.4,0.8,2.7,1.2,2.7,2.1c0,0.9-0.7,1.7-2.2,1.7
			c-1.9,0-2.5-0.9-2.8-2.7L70.2,106.6z"/>
		<path id="Path_00000131363706574583804530000015656533634635322809_" class="st0" d="M82.9,110h5.4v-1.1h-4.3v-8.7h-1.2V110z"/>
		<path id="Shape_00000115488866359133315180000011524220880230375810_" class="st0" d="M89.1,110h1.2l0.7-1.9h4.4l0.7,1.9h1.2
			l-3.5-9.8h-1.1L89.1,110z M91.3,107.1l1.8-5.3h0l1.8,5.3H91.3z"/>
		<path id="Shape_00000033370157437451795330000015290852214542738576_" class="st0" d="M98.9,110h1.2v-4h2.2l2.1,4h1.3l-2.2-4.1
			c1.4-0.3,2.4-1.2,2.4-2.8c0-2-1.3-2.9-3.3-2.9h-3.8V110z M100,105v-3.7h2.5c1.3,0,2.2,0.5,2.2,1.8s-1,1.8-2.2,1.8H100z"/>
		<path id="Path_00000127034870190424976870000001106089275116013997_" class="st0" d="M111.5,110.2c2.2,0,3.8-1.5,3.8-4.1v-1h-3.6
			v1.1h2.5c0,1.8-1,2.9-2.6,2.9c-1.6,0-2.9-1.3-2.9-4.1c0-2.7,1.4-3.9,2.9-3.9c1.6,0,2.2,1.1,2.5,2.3l1.2-0.2
			c-0.3-1.9-1.7-3.2-3.7-3.2c-2.1,0-4.1,1.7-4.1,5C107.3,108.8,109.3,110.2,111.5,110.2z"/>
		<path id="Path_00000150072215728887443870000004150374692259204754_" class="st0" d="M117.3,110h5.9v-1.1h-4.7v-3.5h4.3v-1h-4.3
			v-3.2h4.7v-1.1h-5.9V110z"/>
		<path id="Path_00000165954870089050217000000014648235975096927655_" class="st0" d="M124.8,105.5h3.4v1.3h-3.4V105.5z"/>
		<path id="Path_00000139974838496014017460000017440086382602151820_" class="st0" d="M129.5,106.6c0.3,2.3,1.6,3.6,3.9,3.6
			c2.2,0,3.4-1.3,3.4-2.8c0-1.5-0.6-2.2-3.3-3c-2.1-0.7-2.4-1-2.4-1.8c0-0.8,0.6-1.5,1.9-1.5c1.5,0,2,0.8,2.2,1.8l1.2-0.3
			c-0.3-1.8-1.7-2.7-3.4-2.7c-2,0-3.1,1.2-3.1,2.6c0,1.4,0.9,2.1,3,2.8c2.4,0.8,2.7,1.2,2.7,2.1c0,0.9-0.7,1.7-2.2,1.7
			c-1.9,0-2.5-0.9-2.8-2.7L129.5,106.6z"/>
		<path id="Path_00000078006549783723870890000004079385947018770085_" class="st0" d="M142.4,101.1c1.7,0,2.3,1.2,2.5,2.5l1.2-0.2
			c-0.3-2-1.6-3.4-3.7-3.4c-2.1,0-4.2,1.7-4.2,5c0,3.8,2,5.2,4.2,5.2c2.2,0,3.5-1.4,3.7-3.7l-1.2-0.2c-0.2,1.5-0.7,2.8-2.5,2.8
			c-1.7,0-2.9-1.3-2.9-4.1C139.5,102.3,140.8,101.1,142.4,101.1z"/>
		<path id="Shape_00000032622974410628361900000011959367073351776645_" class="st0" d="M147.1,110h1.2l0.7-1.9h4.4l0.7,1.9h1.2
			l-3.5-9.8h-1.1L147.1,110z M149.3,107.1l1.8-5.3h0l1.8,5.3H149.3z"/>
		<path id="Path_00000024704960849605804340000013210163355481573518_" class="st0" d="M156.9,110h5.4v-1.1H158v-8.7h-1.2V110z"/>
		<path id="Path_00000156559881277862306710000015676162890625921683_" class="st0" d="M164,110h5.9v-1.1h-4.7v-3.5h4.3v-1h-4.3
			v-3.2h4.7v-1.1H164V110z"/>
		<path id="Path_00000170988125587051072580000012374803432652601475_" class="st0" d="M177.8,110h1.1v-8.7h3v-1.1h-7.2v1.1h3V110z"
			/>
		<path id="Path_00000039831896485834799220000011293188268437792155_" class="st0" d="M186.1,110h1.4l3.4-9.8h-1.2l-2.8,8.4h0
			l-2.9-8.4h-1.2L186.1,110z"/>
		<path id="Shape_00000085212850499620969330000014232899012422928547_" class="st0" d="M195.9,110h1.2v-3.8h2.6
			c1.9,0,3.2-1.1,3.2-3c0-2-1.4-3-3.3-3h-3.8V110z M197.1,105.2v-3.9h2.5c1.1,0,2.2,0.5,2.2,2c0,1.3-1,1.9-2.1,1.9H197.1z"/>
		<path id="Shape_00000067206232158069015900000017704457472726187963_" class="st0" d="M204.6,110h1.2v-4h2.2l2.1,4h1.3l-2.2-4.1
			c1.4-0.3,2.4-1.2,2.4-2.8c0-2-1.3-2.9-3.3-2.9h-3.8V110z M205.7,105v-3.7h2.5c1.3,0,2.2,0.5,2.2,1.8s-1,1.8-2.2,1.8H205.7z"/>
		<path id="Shape_00000049911401789188488250000004036718731843788447_" class="st0" d="M217.2,109.1c-1.7,0-2.9-1.3-2.9-4.1
			c0-2.7,1.4-3.9,2.9-3.9c1.5,0,2.9,1.3,2.9,4C220.1,107.9,218.8,109.1,217.2,109.1z M217.2,110.2c2.1,0,4.1-1.4,4.1-5.1
			c0-3.4-2-5.1-4.1-5.1c-2.1,0-4.2,1.7-4.2,5C213,108.8,215.1,110.2,217.2,110.2z"/>
		<path id="Shape_00000037684150744595449990000017905502704014749091_" class="st0" d="M224.5,108.9v-7.7h1.8
			c1.9,0,3.1,1.3,3.1,3.8c0,2.8-1.2,3.8-3.2,3.8H224.5z M223.4,110h3c2.2,0,4.3-1.2,4.3-4.9c0-3.4-2.1-4.9-4.2-4.9h-3.1V110z"/>
		<path id="Path_00000039834645020230022580000002519608612698008757_" class="st0" d="M232.5,106.8c0,2.3,1.3,3.4,3.5,3.4
			c2.2,0,3.5-1.1,3.5-3.4v-6.6h-1.1v6.6c0,1.5-0.8,2.4-2.3,2.4c-1.5,0-2.3-0.8-2.3-2.4v-6.5h-1.2V106.8z"/>
		<path id="Path_00000122678842463724037190000005808506010397674929_" class="st0" d="M245.5,101.1c1.7,0,2.3,1.2,2.5,2.5l1.2-0.2
			c-0.3-2-1.6-3.4-3.7-3.4c-2.1,0-4.2,1.7-4.2,5c0,3.8,2,5.2,4.2,5.2c2.2,0,3.5-1.4,3.7-3.7l-1.2-0.2c-0.2,1.5-0.7,2.8-2.5,2.8
			c-1.7,0-2.9-1.3-2.9-4.1C242.6,102.3,244,101.1,245.5,101.1z"/>
		<path id="Path_00000102502381474606709980000001752977197215042981_" class="st0" d="M253.3,110h1.1v-8.7h3v-1.1h-7.2v1.1h3V110z"
			/>
		<path id="Path_00000072259557060335867240000005076433624275366025_" class="st0" d="M259.2,110h1.2v-9.8h-1.2V110z"/>
		<path id="Shape_00000091705746128844991090000004186798414832001202_" class="st0" d="M266.7,109.1c-1.7,0-2.9-1.3-2.9-4.1
			c0-2.7,1.4-3.9,2.9-3.9c1.5,0,2.9,1.3,2.9,4C269.6,107.9,268.3,109.1,266.7,109.1z M266.7,110.2c2.1,0,4.1-1.4,4.1-5.1
			c0-3.4-2-5.1-4.1-5.1c-2.1,0-4.2,1.7-4.2,5C262.6,108.8,264.6,110.2,266.7,110.2z"/>
		<path id="Path_00000126324247479439795760000006959510719230170274_" class="st0" d="M272.9,110h1.2v-7.9h0l4.5,7.9h1.2v-9.8h-1.1
			v7.9h0l-4.5-7.9h-1.3V110z"/>
		<path id="Path_00000180335747675879790460000009359942318833077930_" class="st0" d="M281.9,106.6c0.3,2.3,1.6,3.6,3.9,3.6
			c2.2,0,3.4-1.3,3.4-2.8c0-1.5-0.6-2.2-3.3-3c-2.1-0.7-2.4-1-2.4-1.8c0-0.8,0.6-1.5,1.9-1.5c1.5,0,2,0.8,2.2,1.8l1.2-0.3
			c-0.3-1.8-1.7-2.7-3.4-2.7c-2,0-3.1,1.2-3.1,2.6c0,1.4,0.9,2.1,3,2.8c2.4,0.8,2.7,1.2,2.7,2.1c0,0.9-0.7,1.7-2.2,1.7
			c-1.9,0-2.5-0.9-2.8-2.7L281.9,106.6z"/>
		<path id="Shape_00000057119208692590183560000008998868362474396298_" class="st0" d="M0,130h1.2l0.7-1.9h4.4L7,130h1.2l-3.5-9.8
			H3.5L0,130z M2.2,127.1l1.8-5.3h0l1.8,5.3H2.2z"/>
		<path id="Shape_00000112633185255745593260000003843645835212287417_" class="st0" d="M9.8,130H11v-4h2.2l2.1,4h1.3l-2.2-4.1
			c1.4-0.3,2.4-1.2,2.4-2.8c0-2-1.3-2.9-3.3-2.9H9.8V130z M11,125v-3.7h2.5c1.3,0,2.2,0.5,2.2,1.8s-1,1.8-2.2,1.8H11z"/>
		<path id="Shape_00000086668285731279539690000016401962331126670761_" class="st0" d="M22.4,129.1c-1.7,0-2.9-1.3-2.9-4.1
			c0-2.7,1.4-3.9,2.9-3.9c1.5,0,2.9,1.3,2.9,4C25.3,127.9,24,129.1,22.4,129.1z M22.4,130.2c2.1,0,4.1-1.4,4.1-5.1
			c0-3.4-2-5.1-4.1-5.1c-2.1,0-4.2,1.7-4.2,5C18.2,128.8,20.3,130.2,22.4,130.2z"/>
		<path id="Path_00000171692304337106034050000015996561214378886806_" class="st0" d="M28.4,126.8c0,2.3,1.3,3.4,3.5,3.4
			s3.5-1.1,3.5-3.4v-6.6h-1.1v6.6c0,1.5-0.8,2.4-2.3,2.4c-1.5,0-2.3-0.8-2.3-2.4v-6.5h-1.2V126.8z"/>
		<path id="Path_00000085220603947377574770000015559963434951603620_" class="st0" d="M37.8,130H39v-7.9h0l4.5,7.9h1.2v-9.8h-1.1
			v7.9h0l-4.5-7.9h-1.3V130z"/>
		<path id="Shape_00000164512545415357557710000001332346111997304735_" class="st0" d="M48.5,128.9v-7.7h1.8c1.9,0,3.1,1.3,3.1,3.8
			c0,2.8-1.2,3.8-3.2,3.8H48.5z M47.4,130h3c2.2,0,4.3-1.2,4.3-4.9c0-3.4-2.1-4.9-4.2-4.9h-3.1V130z"/>
		<path id="Path_00000099623169515007380140000001291791519331708053_" class="st0" d="M62.3,130h1.1v-8.7h3v-1.1h-7.2v1.1h3V130z"
			/>
		<path id="Path_00000117659476920765400820000005507290328652257922_" class="st0" d="M68.1,130h1.2v-4.5h4.4v4.5h1.1v-9.8h-1.1
			v4.2h-4.4v-4.2h-1.2V130z"/>
		<path id="Path_00000170974085570243460840000013845757339731714693_" class="st0" d="M77.5,130h5.9v-1.1h-4.7v-3.5H83v-1h-4.3
			v-3.2h4.7v-1.1h-5.9V130z"/>
		<path id="Path_00000181808207394681131860000000464447214837061026_" class="st0" d="M92.8,130.2c2.2,0,3.8-1.5,3.8-4.1v-1h-3.6
			v1.1h2.5c0,1.8-1,2.9-2.6,2.9c-1.6,0-2.9-1.3-2.9-4.1c0-2.7,1.4-3.9,2.9-3.9c1.6,0,2.2,1.1,2.5,2.3l1.2-0.2
			c-0.3-1.9-1.7-3.2-3.7-3.2c-2.1,0-4.1,1.7-4.1,5C88.6,128.8,90.6,130.2,92.8,130.2z"/>
		<path id="Path_00000178191337855563265160000011130354639495204537_" class="st0" d="M98.6,130h5.4v-1.1h-4.3v-8.7h-1.2V130z"/>
		<path id="Shape_00000127734818317240565580000015469887527600634011_" class="st0" d="M109.4,129.1c-1.7,0-2.9-1.3-2.9-4.1
			c0-2.7,1.4-3.9,2.9-3.9c1.5,0,2.9,1.3,2.9,4C112.2,127.9,111,129.1,109.4,129.1z M109.4,130.2c2.1,0,4.1-1.4,4.1-5.1
			c0-3.4-2-5.1-4.1-5.1c-2.1,0-4.2,1.7-4.2,5C105.2,128.8,107.3,130.2,109.4,130.2z"/>
		<path id="Shape_00000179638113326698013850000013637944707729004726_" class="st0" d="M115.6,130h3.5c2.4,0,3.5-1.1,3.5-2.9
			c0-1.3-0.8-2.1-1.6-2.4v0c0.7-0.3,1.2-0.9,1.2-2c0-1.4-1.1-2.5-2.9-2.5h-3.8V130z M116.7,124.4v-3.1h2.4c1.2,0,1.9,0.5,1.9,1.5
			c0,1-0.6,1.5-1.9,1.5H116.7z M116.7,128.9v-3.6h2.2c1.6,0,2.4,0.4,2.4,1.7c0,1.3-0.9,1.8-2.5,1.8H116.7z"/>
		<path id="Path_00000044899363340031273990000002843154769958639275_" class="st0" d="M124.7,130h5.9v-1.1h-4.7v-3.5h4.3v-1h-4.3
			v-3.2h4.7v-1.1h-5.9V130z"/>
		<path id="Path_00000183952468068616676670000001901681762862518445_" class="st0" d="M132.9,131.5c1.2-0.1,1.7-0.8,1.7-1.7v-1.4
			h-1.7v1.7h0.7c0,0.4-0.1,0.8-0.7,0.9V131.5z"/>
		<path id="Path_00000000905001283822186490000001571786137722600859_" class="st0" d="M141.8,130h1.4l2.5-8.1h0l2.5,8.1h1.4
			l1.8-9.8h-1.2l-1.4,8.1h0l-2.5-8.1h-1.2l-2.4,8.1h0l-1.5-8.1H140L141.8,130z"/>
		<path id="Shape_00000017511695162282592230000013443478295388617376_" class="st0" d="M152.3,130h1.2l0.7-1.9h4.4l0.7,1.9h1.2
			l-3.5-9.8h-1.1L152.3,130z M154.6,127.1l1.8-5.3h0l1.8,5.3H154.6z"/>
		<path id="Path_00000057138206053252523050000001999325575277901204_" class="st0" d="M164.2,130h1.1v-8.7h3v-1.1h-7.2v1.1h3V130z"
			/>
		<path id="Path_00000170978649616428557470000018164645164788997045_" class="st0" d="M173.6,121.1c1.7,0,2.3,1.2,2.5,2.5l1.2-0.2
			c-0.3-2-1.6-3.4-3.7-3.4c-2.1,0-4.2,1.7-4.2,5c0,3.8,2,5.2,4.2,5.2c2.2,0,3.5-1.4,3.7-3.7l-1.2-0.2c-0.2,1.5-0.7,2.8-2.5,2.8
			c-1.7,0-2.9-1.3-2.9-4.1C170.7,122.3,172.1,121.1,173.6,121.1z"/>
		<path id="Path_00000101093097502887675240000012028235495981116824_" class="st0" d="M179.4,130h1.2v-4.5h4.4v4.5h1.1v-9.8h-1.1
			v4.2h-4.4v-4.2h-1.2V130z"/>
		<path id="Path_00000178921135570948818090000001823817036065731468_" class="st0" d="M188.7,130h5.9v-1.1h-4.7v-3.5h4.3v-1h-4.3
			v-3.2h4.7v-1.1h-5.9V130z"/>
		<path id="Shape_00000064335275716680320820000006725384342800988823_" class="st0" d="M198.1,128.9v-7.7h1.8
			c1.9,0,3.1,1.3,3.1,3.8c0,2.8-1.2,3.8-3.2,3.8H198.1z M196.9,130h3c2.2,0,4.3-1.2,4.3-4.9c0-3.4-2.1-4.9-4.2-4.9h-3.1V130z"/>
		<path id="Shape_00000060020321999268391970000007755551954866301847_" class="st0" d="M209.8,130h3.5c2.4,0,3.5-1.1,3.5-2.9
			c0-1.3-0.8-2.1-1.6-2.4v0c0.7-0.3,1.2-0.9,1.2-2c0-1.4-1.1-2.5-2.9-2.5h-3.8V130z M210.9,124.4v-3.1h2.4c1.2,0,1.9,0.5,1.9,1.5
			c0,1-0.6,1.5-1.9,1.5H210.9z M210.9,128.9v-3.6h2.2c1.6,0,2.4,0.4,2.4,1.7c0,1.3-0.9,1.8-2.5,1.8H210.9z"/>
		<path id="Path_00000172423795981100454820000005172875421560654508_" class="st0" d="M221,130h1.1v-4.1l3.2-5.7H224l-2.5,4.6h0
			l-2.5-4.6h-1.3l3.2,5.7V130z"/>
		<path id="Path_00000099661439373164262180000005199171793388120990_" class="st0" d="M230.4,130h1.1v-8.2h0l3.4,8.2h0.4l3.4-8.2h0
			v8.2h1.1v-9.8h-1.6l-3.1,7.5h0l-3.1-7.5h-1.6V130z"/>
		<path id="Path_00000021803554941382517270000011477658961681410194_" class="st0" d="M242.5,130h1.2v-9.8h-1.2V130z"/>
		<path id="Path_00000088838325554647038250000016619565252219282845_" class="st0" d="M246.4,130h5.4v-1.1h-4.3v-8.7h-1.2V130z"/>
		<path id="Path_00000085209259913320785920000007220037251172014754_" class="st0" d="M253.6,130h5.4v-1.1h-4.3v-8.7h-1.2V130z"/>
		<path id="Path_00000092419439937659036100000001087673428262763938_" class="st0" d="M260.8,130h1.2v-9.8h-1.2V130z"/>
		<path id="Shape_00000008149753223139002900000002680882087342522550_" class="st0" d="M268.3,129.1c-1.7,0-2.9-1.3-2.9-4.1
			c0-2.7,1.4-3.9,2.9-3.9c1.5,0,2.9,1.3,2.9,4C271.2,127.9,269.9,129.1,268.3,129.1z M268.3,130.2c2.1,0,4.1-1.4,4.1-5.1
			c0-3.4-2-5.1-4.1-5.1c-2.1,0-4.2,1.7-4.2,5C264.2,128.8,266.2,130.2,268.3,130.2z"/>
		<path id="Path_00000040535963059440741160000017661795837510387637_" class="st0" d="M274.5,130h1.2v-7.9h0l4.5,7.9h1.2v-9.8h-1.1
			v7.9h0l-4.5-7.9h-1.3V130z"/>
		<path id="Path_00000076565815899634668030000005280027201657673403_" class="st0" d="M283.5,126.6c0.3,2.3,1.6,3.6,3.9,3.6
			c2.2,0,3.4-1.3,3.4-2.8c0-1.5-0.6-2.2-3.3-3c-2.1-0.7-2.4-1-2.4-1.8c0-0.8,0.6-1.5,1.9-1.5c1.5,0,2,0.8,2.2,1.8l1.2-0.3
			c-0.3-1.8-1.7-2.7-3.4-2.7c-2,0-3.1,1.2-3.1,2.6c0,1.4,0.9,2.1,3,2.8c2.4,0.8,2.7,1.2,2.7,2.1c0,0.9-0.7,1.7-2.2,1.7
			c-1.9,0-2.5-0.9-2.8-2.7L283.5,126.6z"/>
		<path id="Shape_00000124877475814603347570000004684172300061468040_" class="st0" d="M299.8,129.1c-1.7,0-2.9-1.3-2.9-4.1
			c0-2.7,1.4-3.9,2.9-3.9c1.5,0,2.9,1.3,2.9,4C302.7,127.9,301.4,129.1,299.8,129.1z M299.8,130.2c2.1,0,4.1-1.4,4.1-5.1
			c0-3.4-2-5.1-4.1-5.1c-2.1,0-4.2,1.7-4.2,5C295.6,128.8,297.7,130.2,299.8,130.2z"/>
		<path id="Path_00000093167471227750679510000004402563358374556816_" class="st0" d="M306,130h1.2v-4.2h4.4v-1h-4.4v-3.5h4.7v-1.1
			H306V130z"/>
		<path id="Shape_00000124860000152541533170000007894726501068953476_" class="st0" d="M1,150h1.2v-3.8h2.6c1.9,0,3.2-1.1,3.2-3
			c0-2-1.4-3-3.3-3H1V150z M2.2,145.2v-3.9h2.5c1.1,0,2.2,0.5,2.2,2c0,1.3-1,1.9-2.1,1.9H2.2z"/>
		<path id="Path_00000166649410759014282770000017085848389438919845_" class="st0" d="M9.7,150h5.9v-1.1h-4.7v-3.5h4.3v-1h-4.3
			v-3.2h4.7v-1.1H9.7V150z"/>
		<path id="Shape_00000071526113368410063010000003321280516637972116_" class="st0" d="M21.5,149.1c-1.7,0-2.9-1.3-2.9-4.1
			c0-2.7,1.4-3.9,2.9-3.9c1.5,0,2.9,1.3,2.9,4C24.4,147.9,23.1,149.1,21.5,149.1z M21.5,150.2c2.1,0,4.1-1.4,4.1-5.1
			c0-3.4-2-5.1-4.1-5.1c-2.1,0-4.2,1.7-4.2,5C17.3,148.8,19.4,150.2,21.5,150.2z"/>
		<path id="Shape_00000110448121527339366300000002681622216185786009_" class="st0" d="M27.7,150h1.2v-3.8h2.6c1.9,0,3.2-1.1,3.2-3
			c0-2-1.4-3-3.3-3h-3.8V150z M28.9,145.2v-3.9h2.5c1.1,0,2.2,0.5,2.2,2c0,1.3-1,1.9-2.1,1.9H28.9z"/>
		<path id="Path_00000011718450388371503730000006818297788621755317_" class="st0" d="M36.4,150h5.4v-1.1h-4.3v-8.7h-1.2V150z"/>
		<path id="Path_00000110442389466037283940000015184305433317955970_" class="st0" d="M43.5,150h5.9v-1.1h-4.7v-3.5H49v-1h-4.3
			v-3.2h4.7v-1.1h-5.9V150z"/>
		<path id="Path_00000177446055534457973600000008542424557240838318_" class="st0" d="M51.7,150h1.7v-1.7h-1.7V150z"/>
		<path id="Shape_00000118371770637188320820000013942996980419131788_" class="st0" d="M59.5,150h3.5c2.4,0,3.5-1.1,3.5-2.9
			c0-1.3-0.8-2.1-1.6-2.4v0c0.7-0.3,1.2-0.9,1.2-2c0-1.4-1.1-2.5-2.9-2.5h-3.8V150z M60.7,144.4v-3.1h2.4c1.2,0,1.9,0.5,1.9,1.5
			c0,1-0.6,1.5-1.9,1.5H60.7z M60.7,148.9v-3.6h2.2c1.6,0,2.4,0.4,2.4,1.7c0,1.3-0.9,1.8-2.5,1.8H60.7z"/>
		<path id="Path_00000068650169985173677110000014621305859839593600_" class="st0" d="M68.6,150h5.9v-1.1h-4.7v-3.5h4.3v-1h-4.3
			v-3.2h4.7v-1.1h-5.9V150z"/>
		<path id="Path_00000002355320550908014780000003631057187500456375_" class="st0" d="M76.9,150h1.2v-9.8h-1.2V150z"/>
		<path id="Path_00000086691960443199066830000003621915626805104545_" class="st0" d="M80.8,150H82v-7.9h0l4.5,7.9h1.2v-9.8h-1.1
			v7.9h0l-4.5-7.9h-1.3V150z"/>
		<path id="Path_00000018227532541258288120000004558970022222193577_" class="st0" d="M93.9,150.2c2.2,0,3.8-1.5,3.8-4.1v-1h-3.6
			v1.1h2.5c0,1.8-1,2.9-2.6,2.9c-1.6,0-2.9-1.3-2.9-4.1c0-2.7,1.4-3.9,2.9-3.9c1.6,0,2.2,1.1,2.5,2.3l1.2-0.2
			c-0.3-1.9-1.7-3.2-3.7-3.2c-2.1,0-4.1,1.7-4.1,5C89.8,148.8,91.8,150.2,93.9,150.2z"/>
		<path id="Shape_00000069373243147127356670000012606355526892072613_" class="st0" d="M102.2,150h1.2l0.7-1.9h4.4l0.7,1.9h1.2
			l-3.5-9.8h-1.1L102.2,150z M104.5,147.1l1.8-5.3h0l1.8,5.3H104.5z"/>
		<path id="Path_00000119836422169374932710000003031285191457636275_" class="st0" d="M114.9,146.6c0.3,2.3,1.6,3.6,3.9,3.6
			c2.2,0,3.4-1.3,3.4-2.8c0-1.5-0.6-2.2-3.3-3c-2.1-0.7-2.4-1.1-2.4-1.8c0-0.8,0.6-1.5,1.9-1.5c1.5,0,2,0.8,2.2,1.8l1.2-0.3
			c-0.3-1.8-1.7-2.7-3.4-2.7c-2,0-3.1,1.2-3.1,2.6c0,1.4,0.9,2.1,3,2.8c2.4,0.8,2.7,1.2,2.7,2.1c0,0.9-0.7,1.7-2.2,1.7
			c-1.9,0-2.5-0.9-2.8-2.7L114.9,146.6z"/>
		<path id="Path_00000018230720180370024520000014683362786479892367_" class="st0" d="M126.2,150h1.1v-8.7h3v-1.1h-7.2v1.1h3V150z"
			/>
		<path id="Shape_00000008126375103607698300000009764857217953576580_" class="st0" d="M132.1,150h1.2v-4h2.2l2.1,4h1.3l-2.2-4.1
			c1.4-0.3,2.4-1.2,2.4-2.8c0-2-1.3-2.9-3.3-2.9h-3.8V150z M133.2,145v-3.7h2.5c1.3,0,2.2,0.5,2.2,1.8s-1,1.8-2.2,1.8H133.2z"/>
		<path id="Path_00000031887304349033004010000008062747628339659141_" class="st0" d="M141.1,150h5.9v-1.1h-4.7v-3.5h4.3v-1h-4.3
			v-3.2h4.7v-1.1h-5.9V150z"/>
		<path id="Path_00000059275403302476029620000017230001909808911288_" class="st0" d="M149.3,150h5.9v-1.1h-4.7v-3.5h4.3v-1h-4.3
			v-3.2h4.7v-1.1h-5.9V150z"/>
		<path id="Path_00000013179751067847474810000000641732042599442612_" class="st0" d="M159.5,150h1.1v-8.7h3v-1.1h-7.2v1.1h3V150z"
			/>
		<path id="Path_00000109020241795739239640000005461295138029890489_" class="st0" d="M166.5,150h1.4l2.5-8.1h0l2.5,8.1h1.4
			l1.8-9.8h-1.2l-1.4,8.1h0l-2.4-8.1h-1.2l-2.4,8.1h0l-1.5-8.1h-1.2L166.5,150z"/>
		<path id="Path_00000019660360807195650540000010806682873637842067_" class="st0" d="M178.1,150h5.9v-1.1h-4.7v-3.5h4.3v-1h-4.3
			v-3.2h4.7v-1.1h-5.9V150z"/>
		<path id="Shape_00000148633201452084484450000013292347908423696318_" class="st0" d="M185.2,150h1.2l0.7-1.9h4.4l0.7,1.9h1.2
			l-3.5-9.8h-1.1L185.2,150z M187.5,147.1l1.8-5.3h0l1.8,5.3H187.5z"/>
		<path id="Shape_00000062877794351393764390000007819999003968021139_" class="st0" d="M195,150h1.2v-4h2.2l2.1,4h1.3l-2.2-4.1
			c1.4-0.3,2.4-1.2,2.4-2.8c0-2-1.3-2.9-3.3-2.9H195V150z M196.2,145v-3.7h2.5c1.3,0,2.2,0.5,2.2,1.8s-1,1.8-2.2,1.8H196.2z"/>
		<path id="Shape_00000085936072208549313400000007928505724196817831_" class="st0" d="M206.5,150h1.2l0.7-1.9h4.4l0.7,1.9h1.2
			l-3.5-9.8H210L206.5,150z M208.7,147.1l1.8-5.3h0l1.8,5.3H208.7z"/>
		<path id="Path_00000055669644726557696020000004157010030101322929_" class="st0" d="M216.3,150h1.2v-4.2h4.4v-1h-4.4v-3.5h4.7
			v-1.1h-5.9V150z"/>
		<path id="Path_00000163069417666859280880000006653441927383032714_" class="st0" d="M224.3,150h1.2v-9.8h-1.2V150z"/>
		<path id="Path_00000168823207785392561390000009872496993147514752_" class="st0" d="M231.8,141.1c1.7,0,2.3,1.2,2.5,2.5l1.2-0.2
			c-0.3-2-1.6-3.4-3.7-3.4c-2.1,0-4.2,1.7-4.2,5c0,3.8,2,5.2,4.2,5.2c2.2,0,3.5-1.4,3.7-3.7l-1.2-0.2c-0.2,1.5-0.7,2.8-2.5,2.8
			c-1.7,0-2.9-1.3-2.9-4.1C228.9,142.3,230.2,141.1,231.8,141.1z"/>
		<path id="Path_00000021100047970535377730000011409530378078590116_" class="st0" d="M237.6,150h1.2v-9.8h-1.2V150z"/>
		<path id="Shape_00000177462924540962965020000012886652695821514672_" class="st0" d="M245.1,149.1c-1.7,0-2.9-1.3-2.9-4.1
			c0-2.7,1.4-3.9,2.9-3.9c1.5,0,2.9,1.3,2.9,4C248,147.9,246.7,149.1,245.1,149.1z M245.1,150.2c2.1,0,4.1-1.4,4.1-5.1
			c0-3.4-2-5.1-4.1-5.1c-2.1,0-4.2,1.7-4.2,5C240.9,148.8,243,150.2,245.1,150.2z"/>
		<path id="Path_00000047755874879098266490000008076502167932575165_" class="st0" d="M251.3,150h1.2v-7.9h0l4.5,7.9h1.2v-9.8h-1.1
			v7.9h0l-4.5-7.9h-1.3V150z"/>
		<path id="Shape_00000098215640363586262760000016684046913190795689_" class="st0" d="M259.8,150h1.2l0.7-1.9h4.4l0.7,1.9h1.2
			l-3.5-9.8h-1.1L259.8,150z M262.1,147.1l1.8-5.3h0l1.8,5.3H262.1z"/>
		<path id="Shape_00000128456058230506245680000015961729805201832850_" class="st0" d="M270.8,148.9v-7.7h1.8
			c1.9,0,3.1,1.3,3.1,3.8c0,2.8-1.2,3.9-3.2,3.9H270.8z M269.6,150h3c2.2,0,4.3-1.2,4.3-4.9c0-3.4-2.1-4.9-4.2-4.9h-3.1V150z"/>
		<path id="Shape_00000054237002851535819990000000984581163806207877_" class="st0" d="M282.5,149.1c-1.7,0-2.9-1.3-2.9-4.1
			c0-2.7,1.4-3.9,2.9-3.9c1.5,0,2.9,1.3,2.9,4C285.4,147.9,284.2,149.1,282.5,149.1z M282.5,150.2c2.1,0,4.1-1.4,4.1-5.1
			c0-3.4-2-5.1-4.1-5.1c-2.1,0-4.2,1.7-4.2,5C278.4,148.8,280.4,150.2,282.5,150.2z"/>
		<path id="Path_00000080200291569550040860000003882448239636385210_" class="st0" d="M1,170h1.2v-4.5h4.4v4.5h1.1v-9.8H6.6v4.2
			H2.2v-4.2H1V170z"/>
		<path id="Path_00000158720701155927459240000005513318293798625193_" class="st0" d="M10.5,170h1.2v-9.8h-1.2V170z"/>
		<path id="Path_00000147184426414286719900000014727459696689414281_" class="st0" d="M14.4,170h1.1v-8.2h0l3.4,8.2h0.4l3.4-8.2h0
			v8.2h1.1v-9.8h-1.6l-3.1,7.5h0l-3.1-7.5h-1.6V170z"/>
		<path id="Path_00000166675721777360268860000002501804160674619058_" class="st0" d="M25.8,166.6c0.3,2.3,1.6,3.6,3.9,3.6
			c2.2,0,3.4-1.3,3.4-2.8c0-1.5-0.6-2.2-3.3-3c-2.1-0.7-2.4-1.1-2.4-1.8c0-0.8,0.6-1.5,1.9-1.5c1.5,0,2,0.8,2.2,1.8l1.2-0.3
			c-0.3-1.8-1.7-2.7-3.4-2.7c-2,0-3.1,1.2-3.1,2.6c0,1.4,0.9,2.1,3,2.8c2.4,0.8,2.7,1.2,2.7,2.1c0,0.9-0.7,1.7-2.2,1.7
			c-1.9,0-2.5-0.9-2.8-2.7L25.8,166.6z"/>
		<path id="Path_00000142169059537057346260000009378526063369086885_" class="st0" d="M35.1,170H41v-1.1h-4.7v-3.5h4.3v-1h-4.3
			v-3.2H41v-1.1h-5.9V170z"/>
		<path id="Path_00000031185616264729327760000014082347395326902461_" class="st0" d="M43.3,170h5.4v-1.1h-4.3v-8.7h-1.2V170z"/>
		<path id="Path_00000022520836414176321510000001533003956175795615_" class="st0" d="M50.4,170h1.2v-4.2H56v-1h-4.4v-3.5h4.7v-1.1
			h-5.9V170z"/>
		<path id="Path_00000169552082444638848710000014500834228003477182_" class="st0" d="M58.4,171.5c1.2-0.1,1.7-0.8,1.7-1.7v-1.4
			h-1.7v1.7h0.7c0,0.4-0.1,0.8-0.7,0.9V171.5z"/>
		<path id="Path_00000170997243485312759720000010005906773713071013_" class="st0" d="M66.2,170h1.2v-4.5h4.4v4.5h1.1v-9.8h-1.1
			v4.2h-4.4v-4.2h-1.2V170z"/>
		<path id="Path_00000063597808695320378400000015900553883187275951_" class="st0" d="M75.5,170h5.9v-1.1h-4.7v-3.5H81v-1h-4.3
			v-3.2h4.7v-1.1h-5.9V170z"/>
		<path id="Path_00000045593231791896225560000016861250186828912792_" class="st0" d="M86.6,166.6c0.3,2.3,1.6,3.6,3.9,3.6
			c2.2,0,3.4-1.3,3.4-2.8c0-1.5-0.6-2.2-3.3-3c-2.1-0.7-2.4-1.1-2.4-1.8c0-0.8,0.6-1.5,1.9-1.5c1.5,0,2,0.8,2.2,1.8l1.2-0.3
			c-0.3-1.8-1.7-2.7-3.4-2.7c-2,0-3.1,1.2-3.1,2.6c0,1.4,0.9,2.1,3,2.8c2.4,0.8,2.7,1.2,2.7,2.1c0,0.9-0.7,1.7-2.2,1.7
			c-1.9,0-2.5-0.9-2.8-2.7L86.6,166.6z"/>
		<path id="Path_00000054967204368007096280000010535092587885275306_" class="st0" d="M95.9,170h5.9v-1.1H97v-3.5h4.3v-1H97v-3.2
			h4.7v-1.1h-5.9V170z"/>
		<path id="Path_00000055672529437971486090000008632263604487667365_" class="st0" d="M104.1,170h5.9v-1.1h-4.7v-3.5h4.3v-1h-4.3
			v-3.2h4.7v-1.1h-5.9V170z"/>
		<path id="Path_00000122000675172144182200000008111976885074976919_" class="st0" d="M111.6,166.6c0.3,2.3,1.6,3.6,3.9,3.6
			c2.2,0,3.4-1.3,3.4-2.8c0-1.5-0.6-2.2-3.3-3c-2.1-0.7-2.4-1.1-2.4-1.8c0-0.8,0.6-1.5,1.9-1.5c1.5,0,2,0.8,2.2,1.8l1.2-0.3
			c-0.3-1.8-1.7-2.7-3.4-2.7c-2,0-3.1,1.2-3.1,2.6c0,1.4,0.9,2.1,3,2.8c2.4,0.8,2.7,1.2,2.7,2.1c0,0.9-0.7,1.7-2.2,1.7
			c-1.9,0-2.5-0.9-2.8-2.7L111.6,166.6z"/>
		<path id="Shape_00000008856301075131066430000016767638362140340105_" class="st0" d="M124.4,170h1.2v-3.8h2.6
			c1.9,0,3.2-1.1,3.2-3c0-2-1.4-3-3.3-3h-3.8V170z M125.5,165.2v-3.9h2.5c1.1,0,2.2,0.5,2.2,2c0,1.3-1,1.9-2.1,1.9H125.5z"/>
		<path id="Shape_00000114046924540065408600000005830072005520590508_" class="st0" d="M132,170h1.2l0.7-1.9h4.4l0.7,1.9h1.2
			l-3.5-9.8h-1.1L132,170z M134.2,167.1l1.8-5.3h0l1.8,5.3H134.2z"/>
		<path id="Path_00000042729589757204683780000011770999360370846887_" class="st0" d="M145.4,161.1c1.7,0,2.3,1.2,2.5,2.5l1.2-0.2
			c-0.3-2-1.6-3.4-3.7-3.4c-2.1,0-4.2,1.7-4.2,5c0,3.8,2,5.2,4.2,5.2c2.2,0,3.5-1.4,3.7-3.7l-1.2-0.2c-0.2,1.5-0.7,2.8-2.5,2.8
			c-1.7,0-2.9-1.3-2.9-4.1C142.4,162.3,143.8,161.1,145.4,161.1z"/>
		<path id="Path_00000109715391575861548310000010899329042745755036_" class="st0" d="M151.1,170h5.9v-1.1h-4.7v-3.5h4.3v-1h-4.3
			v-3.2h4.7v-1.1h-5.9V170z"/>
		<path id="Path_00000078014632758023782740000000679280544724891820_" class="st0" d="M159.3,170h1.1v-8.2h0l3.4,8.2h0.4l3.4-8.2h0
			v8.2h1.1v-9.8h-1.6l-3.1,7.5h0l-3.1-7.5h-1.6V170z"/>
		<path id="Shape_00000116937921198269641750000011774314212614255021_" class="st0" d="M170.4,170h1.2l0.7-1.9h4.4l0.7,1.9h1.2
			l-3.5-9.8h-1.1L170.4,170z M172.6,167.1l1.8-5.3h0l1.8,5.3H172.6z"/>
		<path id="Path_00000167357561016509023080000013231350809868768189_" class="st0" d="M180,170h1.2v-3.4l1.1-1.3h0l3.3,4.6h1.4
			l-4-5.5l3.6-4.3h-1.5l-4,4.8h0v-4.8H180V170z"/>
		<path id="Path_00000125576335476210721720000001147006215228420483_" class="st0" d="M188.4,170h5.9v-1.1h-4.7v-3.5h4.3v-1h-4.3
			v-3.2h4.7v-1.1h-5.9V170z"/>
		<path id="Shape_00000073684045281720616200000004279583154904082612_" class="st0" d="M196.6,170h1.2v-4h2.2l2.1,4h1.3l-2.2-4.1
			c1.4-0.3,2.4-1.2,2.4-2.8c0-2-1.3-2.9-3.3-2.9h-3.8V170z M197.8,165v-3.7h2.5c1.3,0,2.2,0.5,2.2,1.8s-1,1.8-2.2,1.8H197.8z"/>
		<path id="Path_00000165232446114415059110000003332352785666303365_" class="st0" d="M209.1,170h1.2v-7.9h0l4.5,7.9h1.2v-9.8h-1.1
			v7.9h0l-4.5-7.9h-1.3V170z"/>
		<path id="Shape_00000103226240052080833690000007279919733166595514_" class="st0" d="M222.3,169.1c-1.7,0-2.9-1.3-2.9-4.1
			c0-2.7,1.4-3.9,2.9-3.9c1.5,0,2.9,1.3,2.9,4C225.2,167.9,223.9,169.1,222.3,169.1z M222.3,170.2c2.1,0,4.1-1.4,4.1-5.1
			c0-3.4-2-5.1-4.1-5.1c-2.1,0-4.2,1.7-4.2,5C218.1,168.8,220.2,170.2,222.3,170.2z"/>
		<path id="Path_00000062914232938733945960000014961189840886736007_" class="st0" d="M230.6,170h1.1v-8.7h3v-1.1h-7.2v1.1h3V170z"
			/>
		<path id="Shape_00000039105506371917658670000005882325146246280857_" class="st0" d="M238.9,170h1.2l0.7-1.9h4.4l0.7,1.9h1.2
			l-3.5-9.8h-1.1L238.9,170z M241.1,167.1l1.8-5.3h0l1.8,5.3H241.1z"/>
		<path id="Path_00000114063111786118413680000009932715401721021616_" class="st0" d="M248,166.6c0.3,2.3,1.6,3.6,3.9,3.6
			c2.2,0,3.4-1.3,3.4-2.8c0-1.5-0.6-2.2-3.3-3c-2.1-0.7-2.4-1.1-2.4-1.8c0-0.8,0.6-1.5,1.9-1.5c1.5,0,2,0.8,2.2,1.8l1.2-0.3
			c-0.3-1.8-1.7-2.7-3.4-2.7c-2,0-3.1,1.2-3.1,2.6c0,1.4,0.9,2.1,3,2.8c2.4,0.8,2.7,1.2,2.7,2.1c0,0.9-0.7,1.7-2.2,1.7
			c-1.9,0-2.5-0.9-2.8-2.7L248,166.6z"/>
		<path id="Shape_00000040542258934700935190000014369864139459010452_" class="st0" d="M259.7,170h1.2l0.7-1.9h4.4l0.7,1.9h1.2
			l-3.5-9.8h-1.1L259.7,170z M262,167.1l1.8-5.3h0l1.8,5.3H262z"/>
		<path id="Path_00000181072684722714286890000005786829487756162473_" class="st0" d="M269.5,170h1.2v-7.9h0l4.5,7.9h1.2v-9.8h-1.1
			v7.9h0l-4.5-7.9h-1.3V170z"/>
		<path id="Shape_00000149378701874718399860000005022153596361046930_" class="st0" d="M282.7,169.1c-1.7,0-2.9-1.3-2.9-4.1
			c0-2.7,1.4-3.9,2.9-3.9c1.5,0,2.9,1.3,2.9,4C285.6,167.9,284.3,169.1,282.7,169.1z M282.7,170.2c2.1,0,4.1-1.4,4.1-5.1
			c0-3.4-2-5.1-4.1-5.1c-2.1,0-4.2,1.7-4.2,5C278.5,168.8,280.6,170.2,282.7,170.2z"/>
		<path id="Path_00000083810178341244796140000003066788350779057301_" class="st0" d="M290.9,170h1.1v-8.7h3v-1.1h-7.2v1.1h3V170z"
			/>
		<path id="Path_00000005233770909237741350000006854268535047875992_" class="st0" d="M296.8,170h1.2v-4.5h4.4v4.5h1.1v-9.8h-1.1
			v4.2H298v-4.2h-1.2V170z"/>
		<path id="Path_00000069378506824881392590000008332152508487855000_" class="st0" d="M306.2,170h5.9v-1.1h-4.7v-3.5h4.3v-1h-4.3
			v-3.2h4.7v-1.1h-5.9V170z"/>
		<path id="Shape_00000062174745687437676960000006572389757773316488_" class="st0" d="M314.4,170h1.2v-4h2.2l2.1,4h1.3l-2.2-4.1
			c1.4-0.3,2.4-1.2,2.4-2.8c0-2-1.3-2.9-3.3-2.9h-3.8V170z M315.5,165v-3.7h2.5c1.3,0,2.2,0.5,2.2,1.8s-1,1.8-2.2,1.8H315.5z"/>
		<path id="Shape_00000159443734645569152780000005396065646814968718_" class="st0" d="M1,190h1.2v-3.8h2.6c1.9,0,3.2-1.1,3.2-3
			c0-2-1.4-3-3.3-3H1V190z M2.2,185.2v-3.9h2.5c1.1,0,2.2,0.5,2.2,2c0,1.3-1,1.9-2.1,1.9H2.2z"/>
		<path id="Shape_00000081613024554139437040000008640177542741883324_" class="st0" d="M9.7,190h1.2v-4h2.2l2.1,4h1.3l-2.2-4.1
			c1.4-0.3,2.4-1.2,2.4-2.8c0-2-1.3-2.9-3.3-2.9H9.7V190z M10.9,185v-3.7h2.5c1.3,0,2.2,0.5,2.2,1.8s-1,1.8-2.2,1.8H10.9z"/>
		<path id="Shape_00000088823525133258848540000003273510328746514845_" class="st0" d="M22.3,189.1c-1.7,0-2.9-1.3-2.9-4.1
			c0-2.7,1.4-3.9,2.9-3.9c1.5,0,2.9,1.3,2.9,4C25.2,187.9,23.9,189.1,22.3,189.1z M22.3,190.2c2.1,0,4.1-1.4,4.1-5.1
			c0-3.4-2-5.1-4.1-5.1c-2.1,0-4.2,1.7-4.2,5C18.1,188.8,20.2,190.2,22.3,190.2z"/>
		<path id="Path_00000055683889125397829450000010167112670276571302_" class="st0" d="M27.5,187.9c0.2,1.3,1,2.3,2.4,2.3
			c1.5,0,2.3-0.9,2.3-2.7v-7.3h-1.1v7.2c0,1.2-0.3,1.7-1.1,1.7c-0.9,0-1.2-0.8-1.3-1.5L27.5,187.9z"/>
		<path id="Path_00000052083027698947490100000017849215625575599775_" class="st0" d="M34.8,190h5.9v-1.1H36v-3.5h4.3v-1H36v-3.2
			h4.7v-1.1h-5.9V190z"/>
		<path id="Path_00000074432890721896932270000014549908815130286993_" class="st0" d="M46.6,181.1c1.7,0,2.3,1.2,2.5,2.5l1.2-0.2
			c-0.3-2-1.6-3.4-3.7-3.4c-2.1,0-4.2,1.7-4.2,5c0,3.8,2,5.2,4.2,5.2c2.2,0,3.5-1.4,3.7-3.7l-1.2-0.2c-0.2,1.5-0.7,2.8-2.5,2.8
			c-1.7,0-2.9-1.3-2.9-4.1C43.7,182.3,45.1,181.1,46.6,181.1z"/>
		<path id="Path_00000028298691552490882660000015930801705529836471_" class="st0" d="M54.4,190h1.1v-8.7h3v-1.1h-7.2v1.1h3V190z"
			/>
		<path id="Path_00000093178378832858588510000007453679697830132662_" class="st0" d="M60.3,191.5c1.2-0.1,1.7-0.8,1.7-1.7v-1.4
			h-1.7v1.7H61c0,0.4-0.1,0.8-0.7,0.9V191.5z"/>
		<path id="Shape_00000034804538862733088730000009725694229835910569_" class="st0" d="M68.1,190h3.5c2.4,0,3.5-1.1,3.5-2.9
			c0-1.3-0.8-2.1-1.6-2.4v0c0.7-0.3,1.2-0.9,1.2-2c0-1.4-1.1-2.5-2.9-2.5h-3.8V190z M69.3,184.4v-3.1h2.4c1.2,0,1.9,0.5,1.9,1.5
			c0,1-0.6,1.5-1.9,1.5H69.3z M69.3,188.9v-3.6h2.2c1.6,0,2.4,0.4,2.4,1.7c0,1.3-0.9,1.8-2.5,1.8H69.3z"/>
		<path id="Path_00000096756107485541582790000004225027552840733352_" class="st0" d="M77,186.8c0,2.3,1.3,3.4,3.5,3.4
			s3.5-1.1,3.5-3.4v-6.6h-1.1v6.6c0,1.5-0.8,2.4-2.3,2.4c-1.5,0-2.3-0.8-2.3-2.4v-6.5H77V186.8z"/>
		<path id="Path_00000078727548628234371760000011362669863297600152_" class="st0" d="M88.4,190h1.1v-8.7h3v-1.1h-7.2v1.1h3V190z"
			/>
		<path id="Shape_00000131359143651451055590000010562352603736298634_" class="st0" d="M96.7,190h1.2l0.7-1.9h4.4l0.7,1.9h1.2
			l-3.5-9.8h-1.1L96.7,190z M99,187.1l1.8-5.3h0l1.8,5.3H99z"/>
		<path id="Path_00000105405836399441212560000006614655555763116223_" class="st0" d="M110,190h5.4v-1.1h-4.3v-8.7H110V190z"/>
		<path id="Path_00000010273296902659031560000014556959150544602245_" class="st0" d="M117.3,190h1.2v-9.8h-1.2V190z"/>
		<path id="Path_00000163072161727177190370000011467172459416721321_" class="st0" d="M121.2,190h1.2v-4.2h4.4v-1h-4.4v-3.5h4.7
			v-1.1h-5.9V190z"/>
		<path id="Path_00000154411069584106226620000014189418351625314223_" class="st0" d="M129.1,190h5.9v-1.1h-4.7v-3.5h4.3v-1h-4.3
			v-3.2h4.7v-1.1h-5.9V190z"/>
		<path id="Path_00000089570036537803783860000010682111494610073535_" class="st0" d="M136.7,186.6c0.3,2.3,1.6,3.6,3.9,3.6
			c2.2,0,3.4-1.3,3.4-2.8c0-1.5-0.6-2.2-3.3-3c-2.1-0.7-2.4-1.1-2.4-1.8c0-0.8,0.6-1.5,1.9-1.5c1.5,0,2,0.8,2.2,1.8l1.2-0.3
			c-0.3-1.8-1.7-2.7-3.4-2.7c-2,0-3.1,1.2-3.1,2.6c0,1.4,0.9,2.1,3,2.8c2.4,0.8,2.7,1.2,2.7,2.1c0,0.9-0.7,1.7-2.2,1.7
			c-1.9,0-2.5-0.9-2.8-2.7L136.7,186.6z"/>
		<path id="Path_00000016048340240542615960000008057598733073636287_" class="st0" d="M148,190h1.1v-8.7h3v-1.1h-7.2v1.1h3V190z"/>
		<path id="Path_00000106826058390790920610000008461440017629329846_" class="st0" d="M155.9,190h1.1v-4.1l3.2-5.7H159l-2.5,4.5h0
			l-2.5-4.5h-1.3l3.2,5.7V190z"/>
		<path id="Path_00000080925859909493177640000001604272092802506418_" class="st0" d="M161.8,190h5.4v-1.1H163v-8.7h-1.2V190z"/>
		<path id="Path_00000130606615569621232380000012897407295847419819_" class="st0" d="M169,190h5.9v-1.1h-4.7v-3.5h4.3v-1h-4.3
			v-3.2h4.7v-1.1H169V190z"/>
		<path id="Path_00000134226626662173028620000010108556429001170865_" class="st0" d="M177.2,190h1.7v-1.7h-1.7V190z"/>
		<path id="Shape_00000011743002532417946820000008108135782289569416_" class="st0" d="M1,230h3.5c2.4,0,3.5-1.1,3.5-2.9
			c0-1.3-0.8-2.1-1.6-2.4v0c0.7-0.3,1.2-0.9,1.2-2c0-1.4-1.1-2.5-2.9-2.5H1V230z M2.2,224.4v-3.1h2.4c1.2,0,1.9,0.5,1.9,1.5
			c0,1-0.6,1.5-1.9,1.5H2.2z M2.2,228.9v-3.6h2.2c1.6,0,2.4,0.4,2.4,1.7c0,1.3-0.9,1.8-2.5,1.8H2.2z"/>
		<path id="Path_00000068647487088326098630000009541937656042633916_" class="st0" d="M10.1,230H16v-1.1h-4.7v-3.5h4.3v-1h-4.3
			v-3.2H16v-1.1h-5.9V230z"/>
		<path id="Path_00000080912623924463762250000012047378144471002016_" class="st0" d="M18.3,230h1.2v-4.2h4.4v-1h-4.4v-3.5h4.7
			v-1.1h-5.9V230z"/>
		<path id="Shape_00000080187233469496931490000005608777059175418271_" class="st0" d="M29.9,229.1c-1.7,0-2.9-1.3-2.9-4.1
			c0-2.7,1.4-3.9,2.9-3.9c1.5,0,2.9,1.3,2.9,4C32.7,227.9,31.5,229.1,29.9,229.1z M29.9,230.2c2.1,0,4.1-1.4,4.1-5.1
			c0-3.4-2-5.1-4.1-5.1c-2.1,0-4.2,1.7-4.2,5C25.7,228.8,27.8,230.2,29.9,230.2z"/>
		<path id="Shape_00000155853049865579002470000006493995023372653974_" class="st0" d="M36.1,230h1.2v-4h2.2l2.1,4h1.3l-2.2-4.1
			c1.4-0.3,2.4-1.2,2.4-2.8c0-2-1.3-2.9-3.3-2.9h-3.8V230z M37.2,225v-3.7h2.5c1.3,0,2.2,0.5,2.2,1.8s-1,1.8-2.2,1.8H37.2z"/>
		<path id="Path_00000160175941970086840410000007726014030185118614_" class="st0" d="M45.1,230H51v-1.1h-4.7v-3.5h4.3v-1h-4.3
			v-3.2H51v-1.1h-5.9V230z"/>
		<path id="Shape_00000090275202467185482150000013584929064417206669_" class="st0" d="M53.5,222.8h1.4v1.5h-1.4V222.8z
			 M53.5,228.5h1.4v1.5h-1.4V228.5z"/>
		<path id="Path_00000064351007830097878840000012814333824306562442_" class="st0" d="M60,226.6c0.3,2.3,1.6,3.6,3.9,3.6
			c2.2,0,3.4-1.3,3.4-2.8c0-1.5-0.6-2.2-3.3-3c-2.1-0.7-2.4-1.1-2.4-1.8c0-0.8,0.6-1.5,1.9-1.5c1.5,0,2,0.8,2.2,1.8l1.2-0.3
			c-0.3-1.8-1.7-2.7-3.4-2.7c-2,0-3.1,1.2-3.1,2.6c0,1.4,0.9,2.1,3,2.8c2.4,0.8,2.7,1.2,2.7,2.1c0,0.9-0.7,1.7-2.2,1.7
			c-1.9,0-2.5-0.9-2.8-2.7L60,226.6z"/>
		<path id="Path_00000058580060544966126900000005123801408937590170_" class="st0" d="M69.1,230h1.2v-3.4l1.1-1.3h0l3.3,4.6h1.4
			l-4-5.5l3.6-4.3h-1.5l-4,4.8h0v-4.8h-1.2V230z"/>
		<path id="Path_00000145021886093630656930000006686655133451540917_" class="st0" d="M79.7,230h1.1v-4.1l3.2-5.7h-1.3l-2.5,4.5h0
			l-2.5-4.5h-1.3l3.2,5.7V230z"/>
		<path id="Path_00000031890291428977919630000011800211044411432582_" class="st0" d="M85.6,231.5c1.2-0.1,1.7-0.8,1.7-1.7v-1.4
			h-1.7v1.7h0.7c0,0.4-0.1,0.8-0.7,0.9V231.5z"/>
		<path id="Shape_00000047018281869462707700000009279556294484330418_" class="st0" d="M93.4,230h1.2v-3.8h2.6c1.9,0,3.2-1.1,3.2-3
			c0-2-1.4-3-3.3-3h-3.8V230z M94.5,225.2v-3.9h2.5c1.1,0,2.2,0.5,2.2,2c0,1.3-1,1.9-2.1,1.9H94.5z"/>
		<path id="Shape_00000147926606996221820070000016745894064922495130_" class="st0" d="M102,230h1.2v-4h2.2l2.1,4h1.3l-2.2-4.1
			c1.4-0.3,2.4-1.2,2.4-2.8c0-2-1.3-2.9-3.3-2.9H102V230z M103.2,225v-3.7h2.5c1.3,0,2.2,0.5,2.2,1.8s-1,1.8-2.2,1.8H103.2z"/>
		<path id="Shape_00000026859944712952663140000000547923503857922749_" class="st0" d="M114.6,229.1c-1.7,0-2.9-1.3-2.9-4.1
			c0-2.7,1.4-3.9,2.9-3.9c1.5,0,2.9,1.3,2.9,4C117.5,227.9,116.2,229.1,114.6,229.1z M114.6,230.2c2.1,0,4.1-1.4,4.1-5.1
			c0-3.4-2-5.1-4.1-5.1c-2.1,0-4.2,1.7-4.2,5C110.5,228.8,112.5,230.2,114.6,230.2z"/>
		<path id="Path_00000183958855875397203480000003502992610418827711_" class="st0" d="M120.2,226.6c0.3,2.3,1.6,3.6,3.9,3.6
			c2.2,0,3.4-1.3,3.4-2.8c0-1.5-0.6-2.2-3.3-3c-2.1-0.7-2.4-1.1-2.4-1.8c0-0.8,0.6-1.5,1.9-1.5c1.5,0,2,0.8,2.2,1.8l1.2-0.3
			c-0.3-1.8-1.7-2.7-3.4-2.7c-2,0-3.1,1.2-3.1,2.6c0,1.4,0.9,2.1,3,2.8c2.4,0.8,2.7,1.2,2.7,2.1c0,0.9-0.7,1.7-2.2,1.7
			c-1.9,0-2.5-0.9-2.8-2.7L120.2,226.6z"/>
		<path id="Path_00000023959664348716508950000000000490527699900333_" class="st0" d="M129.5,230h1.2v-9.8h-1.2V230z"/>
		<path id="Path_00000085227666506577925570000017149972949469568651_" class="st0" d="M133.4,230h5.9v-1.1h-4.7v-3.5h4.3v-1h-4.3
			v-3.2h4.7v-1.1h-5.9V230z"/>
		<path id="Shape_00000181779814148304453440000001908510601505798817_" class="st0" d="M141.6,230h3.5c2.4,0,3.5-1.1,3.5-2.9
			c0-1.3-0.8-2.1-1.6-2.4v0c0.7-0.3,1.2-0.9,1.2-2c0-1.4-1.1-2.5-2.9-2.5h-3.8V230z M142.8,224.4v-3.1h2.4c1.2,0,1.9,0.5,1.9,1.5
			c0,1-0.6,1.5-1.9,1.5H142.8z M142.8,228.9v-3.6h2.2c1.6,0,2.4,0.4,2.4,1.7c0,1.3-0.9,1.8-2.5,1.8H142.8z"/>
		<path id="Path_00000177476146745694292290000015501728486911634350_" class="st0" d="M150.7,230h5.9v-1.1h-4.7v-3.5h4.3v-1h-4.3
			v-3.2h4.7v-1.1h-5.9V230z"/>
		<path id="Path_00000076591958565531439450000017256130268850330243_" class="st0" d="M158.9,230h1.2v-7.9h0l4.5,7.9h1.2v-9.8h-1.1
			v7.9h0l-4.5-7.9h-1.3V230z"/>
	</g>
	<g id="OPERATIONS" transform="translate(23.945000, 270.649000)">
		<path id="Shape_00000052087830208581261580000014862614936469875106_" class="st0" d="M8.9,15.8c-1.8,0-3.4-0.3-4.7-0.8
			c-1.3-0.5-2.4-1.4-3.1-2.5S0,9.8,0,8V7.9c0-1.7,0.4-3.1,1.2-4.3S3,1.6,4.3,0.9S7.2,0,8.9,0s3.3,0.3,4.6,0.9s2.4,1.5,3.2,2.7
			c0.8,1.2,1.2,2.6,1.2,4.3V8c0,1.8-0.4,3.2-1.1,4.3c-0.8,1.1-1.8,2-3.2,2.6C12.2,15.5,10.7,15.8,8.9,15.8z M8.9,12.6
			c1.1,0,2.1-0.1,2.9-0.4c0.8-0.3,1.4-0.8,1.8-1.4s0.7-1.6,0.7-2.7v0c0-1.2-0.2-2.1-0.7-2.8s-1-1.2-1.8-1.5s-1.7-0.5-2.8-0.5
			C7.3,3.2,6,3.5,5,4.3S3.6,6.3,3.6,8v0c0,1.6,0.5,2.7,1.4,3.5C6,12.2,7.3,12.6,8.9,12.6z"/>
		<path id="Shape_00000003806707458695432010000013411831471241719195_" class="st0" d="M19.7,15.4v-15h7.6c1.9,0,3.4,0.2,4.5,0.6
			s2,0.9,2.5,1.7c0.5,0.8,0.8,1.8,0.8,3c0,1.7-0.6,2.9-1.9,3.8s-3.1,1.3-5.6,1.3h-4.5v4.6H19.7z M27.4,3.3h-4.2v4.4h4.3
			c1.5,0,2.6-0.2,3.2-0.5c0.6-0.3,0.9-0.9,0.9-1.7c0-0.7-0.2-1.2-0.5-1.5c-0.3-0.3-0.8-0.5-1.4-0.6S28.4,3.3,27.4,3.3z"/>
		<polygon id="Path_00000170990855456160473010000016051295050075178401_" class="st0" points="36.8,15.4 36.8,0.4 51.1,0.4 
			51.1,3.3 40.1,3.3 40.1,6.4 49.4,6.4 49.4,9.3 40.1,9.3 40.1,12.3 51.5,12.3 51.5,15.4 		"/>
		<path id="Shape_00000098928178003568534840000006488949216956932501_" class="st0" d="M53.2,15.4v-15H61c2.6,0,4.5,0.4,5.7,1.1
			c1.2,0.8,1.7,2,1.7,3.6c0,1.1-0.3,2-0.8,2.6s-1.4,1.1-2.5,1.3c1.1,0.2,1.9,0.7,2.4,1.3c0.5,0.7,0.8,1.7,0.8,3v1
			c0,0.2,0,0.4,0.1,0.5s0.1,0.3,0.3,0.4h-3.7c-0.2-0.1-0.3-0.2-0.4-0.4s-0.1-0.4-0.1-0.6v-0.9c0-0.8-0.1-1.3-0.3-1.8
			c-0.2-0.4-0.6-0.7-1.2-0.9s-1.3-0.3-2.2-0.3h-4.2v4.8H53.2z M61,3.4h-4.3v4.2h4.2c0.8,0,1.5,0,2.1-0.1c0.6-0.1,1.1-0.2,1.4-0.5
			s0.5-0.7,0.5-1.3V5.3c0-0.6-0.1-1-0.4-1.3c-0.3-0.3-0.7-0.5-1.3-0.6S61.9,3.4,61,3.4z"/>
		<path id="Shape_00000066494327311262497100000005534582359710302611_" class="st0" d="M69,15.4l7.6-15h3.7l7.7,15h-3.8l-1.6-3.3
			h-8.3l-1.6,3.3H69z M75.7,9.2h5.5l-2.8-5.7L75.7,9.2z"/>
		<polygon id="Path_00000013154120287100936380000005564145146206513593_" class="st0" points="89.9,15.4 89.9,3.4 84.5,3.4 
			84.5,0.4 99.1,0.4 99.1,3.4 93.5,3.4 93.5,15.4 		"/>
		<polygon id="Path_00000033362432797746093900000009450103264963836596_" class="st0" points="100.4,12.1 104.4,12.1 104.4,3.5 
			100.4,3.5 100.4,0.4 111.8,0.4 111.8,3.5 107.8,3.5 107.8,12.1 111.8,12.1 111.8,15.4 100.4,15.4 		"/>
		<path id="Shape_00000024700806046917111450000008577853551692273563_" class="st0" d="M121.4,15.8c-1.8,0-3.4-0.3-4.7-0.8
			c-1.3-0.5-2.4-1.4-3.1-2.5c-0.7-1.1-1.1-2.6-1.1-4.4V7.9c0-1.7,0.4-3.1,1.2-4.3c0.8-1.2,1.8-2.1,3.2-2.7s2.9-0.9,4.6-0.9
			s3.3,0.3,4.6,0.9c1.4,0.6,2.4,1.5,3.2,2.7c0.8,1.2,1.2,2.6,1.2,4.3V8c0,1.8-0.4,3.2-1.1,4.3s-1.8,2-3.2,2.6
			C124.7,15.5,123.2,15.8,121.4,15.8z M121.4,12.6c1.1,0,2.1-0.1,2.9-0.4c0.8-0.3,1.4-0.8,1.8-1.4s0.7-1.6,0.7-2.7v0
			c0-1.2-0.2-2.1-0.7-2.8s-1-1.2-1.8-1.5s-1.7-0.5-2.8-0.5c-1.7,0-3,0.4-3.9,1.1c-0.9,0.8-1.4,2-1.4,3.7v0c0,1.6,0.5,2.7,1.4,3.5
			C118.5,12.2,119.8,12.6,121.4,12.6z"/>
		<polygon id="Path_00000128463075029073325930000018270891594709520277_" class="st0" points="132.2,15.4 132.2,0.4 135.8,0.4 
			144.8,10.5 145,10.7 145,0.4 148.4,0.4 148.4,15.4 145,15.4 135.8,5.1 135.6,4.9 135.6,15.4 		"/>
		<path id="Path_00000017480429634521185540000009531749206965051520_" class="st0" d="M158.5,15.8c-2,0-3.6-0.2-4.8-0.6
			c-1.2-0.4-2.2-1-2.9-1.9s-1.1-1.9-1.4-3.3h3.8c0.3,1,0.8,1.7,1.8,2.1c0.9,0.4,2.1,0.6,3.6,0.6c1.4,0,2.4-0.1,3-0.4
			c0.6-0.3,1-0.7,1-1.3c0-0.5-0.2-0.8-0.5-1c-0.3-0.2-0.9-0.4-1.7-0.5c-0.8-0.1-2-0.2-3.5-0.3c-1.5-0.1-2.8-0.3-3.8-0.6
			c-1-0.3-1.7-0.8-2.2-1.4c-0.5-0.6-0.7-1.5-0.7-2.5c0-1.4,0.6-2.6,1.8-3.5s3.1-1.3,5.5-1.3c2.6,0,4.6,0.4,6,1.2s2.3,2.1,2.7,4h-3.8
			c-0.2-1-0.7-1.6-1.6-1.9c-0.9-0.3-2-0.4-3.4-0.4c-1.4,0-2.4,0.2-2.9,0.5s-0.8,0.7-0.8,1.2c0,0.3,0.1,0.5,0.2,0.7
			c0.1,0.2,0.3,0.3,0.7,0.5s0.8,0.2,1.4,0.3c0.6,0.1,1.5,0.1,2.5,0.2c1.8,0.1,3.3,0.3,4.4,0.6s2,0.8,2.5,1.4
			c0.5,0.6,0.8,1.4,0.8,2.5c0,1.6-0.6,2.8-1.8,3.7C163.1,15.3,161.2,15.8,158.5,15.8z"/>
	</g>
</g>
</svg>
