<?xml version="1.0" encoding="utf-8"?>
<!-- Generator: Adobe Illustrator 27.3.1, SVG Export Plug-In . SVG Version: 6.00 Build 0)  -->
<svg version="1.1" id="Ebene_1" xmlns="http://www.w3.org/2000/svg" xmlns:xlink="http://www.w3.org/1999/xlink" x="0px" y="0px"
	 viewBox="0 0 377 702" style="enable-background:new 0 0 377 702;" xml:space="preserve">
<style type="text/css">
	.st0{fill:#FFFFFF;}
</style>
<g id="Looping-lovers_Back-Copy">
	<g id="Looping-lovers" transform="translate(23.143000, 33.036000)">
		<polygon id="Path" class="st0" points="0,1.5 0,93 35.6,93 35.6,69.5 23.6,69.5 23.6,1.5 		"/>
		<path id="Shape" class="st0" d="M61.8,94.2c14.5,0,24.4-6.5,24.4-24.1v-46C86.2,7.1,76.5,0,61.7,0C46.9,0,37.5,7,37.5,24.1v46
			C37.5,87.8,46.6,94.2,61.8,94.2z M61.7,73.4c-1.1,0-1.1-0.4-1.1-4.4V24.4c0-4.1,0-4.4,1.3-4.4s1.3,0.4,1.3,4.4V69
			C63.1,73,63.1,73.4,61.7,73.4z"/>
		<path id="Shape_00000015315674530904752810000013421161015456686994_" class="st0" d="M112.6,94.2c14.5,0,24.4-6.5,24.4-24.1v-46
			c0-17-9.8-24.1-24.5-24.1C97.7,0,88.3,7,88.3,24.1v46C88.3,87.8,97.4,94.2,112.6,94.2z M112.5,73.4c-1.1,0-1.1-0.4-1.1-4.4V24.4
			c0-4.1,0-4.4,1.3-4.4c1.3,0,1.3,0.4,1.3,4.4V69C113.9,73,113.9,73.4,112.5,73.4z"/>
		<path id="Shape_00000177483089742604968170000003712366801717884838_" class="st0" d="M139.2,93h22.4V73.7h1.4
			c17.1,0,23.7-8.4,23.7-22.4V22c0-13.2-6.4-20.4-23.6-20.4h-23.9V93z M161.5,20.2c1.9,0,2.5,1.3,2.5,3v27.3c0,2.4-0.9,3.3-2.5,3.3
			V20.2z"/>
		<polygon id="Path_00000090281307709395625200000011707117508816769672_" class="st0" points="189,93 212.6,93 212.6,1.5 189,1.5 
					"/>
		<polygon id="Path_00000149365028472362453370000010834470256658979766_" class="st0" points="215,93 237.1,93 237.1,71.4 
			232.3,31 242.7,93 268.2,93 268.2,1.5 246.8,1.5 246.8,20.3 252.3,65.8 241.8,1.5 215,1.5 		"/>
		<path id="Path_00000083778034560271594800000014169728993558912143_" class="st0" d="M286.5,94.2c8.6,0,12.3-4.3,13.6-13.3
			l1.1,12.1h18.3V39.6h-24.1v22.9h3.2v6.2c0,4.4-0.6,5.3-2.5,5.3s-2.4-1-2.4-5.3v-45c0-3.6,0.3-3.8,1.3-3.8c1,0,1.3,0.3,1.3,3.6
			v11.4h23.5V23.6c0-16.9-8-23.5-24.5-23.5c-15.1,0-24.6,6.7-24.6,23.7v46.6C270.5,87.6,274.8,94.2,286.5,94.2z"/>
		<polygon id="Path_00000143597064076055619970000000669517782970457784_" class="st0" points="0,100.5 0,192 35.6,192 35.6,168.5 
			23.6,168.5 23.6,100.5 		"/>
		<path id="Shape_00000076568365428503419690000003797781424899345569_" class="st0" d="M61.8,193.2c14.5,0,24.4-6.5,24.4-24.1v-46
			c0-17-9.8-24.1-24.5-24.1c-14.9,0-24.3,7-24.3,24.1v46C37.5,186.8,46.6,193.2,61.8,193.2z M61.7,172.4c-1.1,0-1.1-0.4-1.1-4.4
			v-44.6c0-4.1,0-4.4,1.3-4.4s1.3,0.4,1.3,4.4V168C63.1,172,63.1,172.4,61.7,172.4z"/>
		<polygon id="Path_00000059271349873043466900000013818161031859830454_" class="st0" points="97.7,192 127.1,192 138.8,100.5 
			115.8,100.5 113.4,128.8 112.6,169 111.9,128.8 109.5,100.5 86.1,100.5 		"/>
		<polygon id="Path_00000078728944061959373110000001369133495573576613_" class="st0" points="138.8,192 177.2,192 177.2,169.4 
			161.3,169.4 161.3,156.9 177.2,156.9 177.2,134.7 161.3,134.7 161.3,122.6 177.2,122.6 177.2,100.5 138.8,100.5 		"/>
		<path id="Shape_00000111881725191570643620000004165816720149547933_" class="st0" d="M179.2,192h22.5v-32.4
			c1.8,0.1,2.4,0.6,2.4,3.4v22.4c0,3.4,0.4,6.1,1.7,6.6h22.1c-1.5-1.4-1.8-2.9-1.8-6.7v-22.6c0-7.5-1.3-11.2-6.7-12.8
			c5.2-1.8,6.9-5.7,6.9-14v-15.6c0-15.9-6.6-19.7-22-19.7h-25V192z M201.9,119.3c1.9,0,2.3,0.6,2.3,2.7v15.9c0,2-0.5,2.9-2.5,2.9
			v-21.5H201.9z"/>
		<path id="Path_00000070828092555783871810000011277945402974849189_" class="st0" d="M251.3,193.5c17.1,0,24.8-6.5,24.8-21.7
			v-12.8c0-10.5-3.2-14.5-15.6-21.6c-9.3-5.3-9.5-5.7-9.5-8.6v-8.4c0-2.7,0.3-2.9,1.1-2.9c1,0,1.1,0.5,1.1,3.3v11.6h22.6v-13.6
			c0-13.3-8.6-19.8-23.5-19.8c-16.6,0-24.6,7.6-24.6,21.6v8.9c0.1,11.4,3,14.9,15.4,22.1c9.8,5.6,10,6,10,10.7v8.5
			c0,2.8-0.5,2.9-1.3,2.9c-0.8,0-1.1-0.4-1.1-2.7v-14.1h-23.2v15.1C227.5,186.9,234.2,193.5,251.3,193.5z"/>
	</g>
	<g id="LOOPING-LOVERS-ARE-P" transform="translate(22.350000, 308.447143)">
		<path id="Path_00000163792217995536796420000005583581639785046954_" class="st0" d="M1,10h5.4V8.9H2.1V0.2H1V10z"/>
		<path id="Shape_00000067230698918019674390000007455320035295742369_" class="st0" d="M11.7,9.1c-1.7,0-2.9-1.3-2.9-4.1
			c0-2.7,1.4-3.9,2.9-3.9c1.5,0,2.9,1.3,2.9,4C14.6,7.9,13.4,9.1,11.7,9.1z M11.7,10.2c2.1,0,4.1-1.4,4.1-5.1c0-3.4-2-5.1-4.1-5.1
			C9.6,0,7.6,1.7,7.6,5C7.6,8.8,9.6,10.2,11.7,10.2z"/>
		<path id="Shape_00000153685632486543668120000014342620284279269043_" class="st0" d="M21.5,9.1c-1.7,0-2.9-1.3-2.9-4.1
			c0-2.7,1.4-3.9,2.9-3.9c1.5,0,2.9,1.3,2.9,4C24.4,7.9,23.2,9.1,21.5,9.1z M21.5,10.2c2.1,0,4.1-1.4,4.1-5.1c0-3.4-2-5.1-4.1-5.1
			c-2.1,0-4.2,1.7-4.2,5C17.4,8.8,19.4,10.2,21.5,10.2z"/>
		<path id="Shape_00000139295660622942447590000014841142487655247545_" class="st0" d="M27.7,10h1.2V6.2h2.6c1.9,0,3.2-1.1,3.2-3
			c0-2-1.4-3-3.3-3h-3.8V10z M28.9,5.2V1.3h2.5c1.1,0,2.2,0.5,2.2,2c0,1.3-1,1.9-2.1,1.9H28.9z"/>
		<path id="Path_00000062896971819843615640000016087833072957741231_" class="st0" d="M36.5,10h1.2V0.2h-1.2V10z"/>
		<path id="Path_00000105408306508635705060000007174370488201732231_" class="st0" d="M40.4,10h1.2V2.1h0L46,10h1.2V0.2h-1.1v7.9h0
			l-4.5-7.9h-1.3V10z"/>
		<path id="Path_00000135683961323270310360000016320405468561106359_" class="st0" d="M53.5,10.2c2.2,0,3.8-1.5,3.8-4.1v-1h-3.6
			v1.1h2.5c0,1.8-1,2.9-2.6,2.9c-1.6,0-2.9-1.3-2.9-4.1c0-2.7,1.4-3.9,2.9-3.9c1.6,0,2.2,1.1,2.5,2.3l1.2-0.2
			C56.9,1.3,55.5,0,53.5,0c-2.1,0-4.1,1.7-4.1,5C49.4,8.8,51.4,10.2,53.5,10.2z"/>
		<path id="Path_00000183245928043688577610000005070755721839487372_" class="st0" d="M62.9,10h5.4V8.9H64V0.2h-1.2V10z"/>
		<path id="Shape_00000088116141569146516460000010484536072066881176_" class="st0" d="M73.6,9.1c-1.7,0-2.9-1.3-2.9-4.1
			c0-2.7,1.4-3.9,2.9-3.9c1.5,0,2.9,1.3,2.9,4C76.5,7.9,75.2,9.1,73.6,9.1z M73.6,10.2c2.1,0,4.1-1.4,4.1-5.1c0-3.4-2-5.1-4.1-5.1
			c-2.1,0-4.2,1.7-4.2,5C69.5,8.8,71.5,10.2,73.6,10.2z"/>
		<path id="Path_00000063626224144743467940000000352518431528583074_" class="st0" d="M82.2,10h1.4L87,0.2h-1.2l-2.8,8.4h0L80,0.2
			h-1.2L82.2,10z"/>
		<path id="Path_00000004522775624463665440000007132961531672028578_" class="st0" d="M88.6,10h5.9V8.9h-4.7V5.5h4.3v-1h-4.3V1.3
			h4.7V0.2h-5.9V10z"/>
		<path id="Shape_00000174582775922052317580000010131687461273488014_" class="st0" d="M96.8,10H98V6h2.2l2.1,4h1.3l-2.2-4.1
			c1.4-0.3,2.4-1.2,2.4-2.8c0-2-1.3-2.9-3.3-2.9h-3.8V10z M98,5V1.3h2.5c1.3,0,2.2,0.5,2.2,1.8s-1,1.8-2.2,1.8H98z"/>
		<path id="Path_00000061434281211233569180000004888578084833937300_" class="st0" d="M105.2,6.6c0.3,2.3,1.6,3.6,3.9,3.6
			c2.2,0,3.4-1.3,3.4-2.8c0-1.5-0.6-2.2-3.3-3c-2.1-0.7-2.4-1.1-2.4-1.8c0-0.8,0.6-1.5,1.9-1.5c1.5,0,2,0.8,2.2,1.8l1.2-0.3
			c-0.3-1.8-1.7-2.7-3.4-2.7c-2,0-3.1,1.2-3.1,2.6c0,1.4,0.9,2.1,3,2.8c2.4,0.8,2.7,1.2,2.7,2.1c0,0.9-0.7,1.7-2.2,1.7
			c-1.9,0-2.5-0.9-2.8-2.7L105.2,6.6z"/>
		<path id="Shape_00000093879482870792698430000007137595321028855199_" class="st0" d="M116.9,10h1.2l0.7-1.9h4.4l0.7,1.9h1.2
			l-3.5-9.8h-1.1L116.9,10z M119.1,7.1l1.8-5.3h0l1.8,5.3H119.1z"/>
		<path id="Shape_00000059269031863571446220000013273637759767738249_" class="st0" d="M126.7,10h1.2V6h2.2l2.1,4h1.3l-2.2-4.1
			c1.4-0.3,2.4-1.2,2.4-2.8c0-2-1.3-2.9-3.3-2.9h-3.8V10z M127.8,5V1.3h2.5c1.3,0,2.2,0.5,2.2,1.8s-1,1.8-2.2,1.8H127.8z"/>
		<path id="Path_00000001646329035284248880000014575005893233188244_" class="st0" d="M135.7,10h5.9V8.9h-4.7V5.5h4.3v-1h-4.3V1.3
			h4.7V0.2h-5.9V10z"/>
		<path id="Shape_00000084505800960898444500000010439718738685192591_" class="st0" d="M147.4,10h1.2V6.2h2.6c1.9,0,3.2-1.1,3.2-3
			c0-2-1.4-3-3.3-3h-3.8V10z M148.5,5.2V1.3h2.5c1.1,0,2.2,0.5,2.2,2c0,1.3-1,1.9-2.1,1.9H148.5z"/>
		<path id="Path_00000182497308706722873800000018338305678244595120_" class="st0" d="M156,10h1.2V5.5h4.4V10h1.1V0.2h-1.1v4.2
			h-4.4V0.2H156V10z"/>
		<path id="Path_00000067231831934765976030000003723881340358906543_" class="st0" d="M165.5,10h1.2V0.2h-1.2V10z"/>
		<path id="Path_00000152262799615317511580000010131703957081941174_" class="st0" d="M169.3,10h5.4V8.9h-4.3V0.2h-1.2V10z"/>
		<path id="Path_00000101811905786260145570000009156122273758943408_" class="st0" d="M176.6,10h1.2V0.2h-1.2V10z"/>
		<path id="Shape_00000069370553573043014480000017564825579392128903_" class="st0" d="M180.5,10h1.2V6.2h2.6c1.9,0,3.2-1.1,3.2-3
			c0-2-1.4-3-3.3-3h-3.8V10z M181.6,5.2V1.3h2.5c1.1,0,2.2,0.5,2.2,2c0,1.3-1,1.9-2.1,1.9H181.6z"/>
		<path id="Shape_00000117674350780208892080000011518511646843018115_" class="st0" d="M189.1,10h1.2V6.2h2.6c1.9,0,3.2-1.1,3.2-3
			c0-2-1.4-3-3.3-3h-3.8V10z M190.3,5.2V1.3h2.5c1.1,0,2.2,0.5,2.2,2c0,1.3-1,1.9-2.1,1.9H190.3z"/>
		<path id="Shape_00000110465617054237282910000014873870321354050189_" class="st0" d="M201.3,10h1.2V6h2.2l2.1,4h1.3l-2.2-4.1
			c1.4-0.3,2.4-1.2,2.4-2.8c0-2-1.3-2.9-3.3-2.9h-3.8V10z M202.4,5V1.3h2.5c1.3,0,2.2,0.5,2.2,1.8S206.1,5,205,5H202.4z"/>
		<path id="Path_00000092446970082361198730000017460368275107003782_" class="st0" d="M210.4,10h1.2V0.2h-1.2V10z"/>
		<path id="Path_00000062165818927279817250000000263847797384544694_" class="st0" d="M214.2,10h5.9V8.9h-4.7V5.5h4.3v-1h-4.3V1.3
			h4.7V0.2h-5.9V10z"/>
		<path id="Path_00000003802962468593103460000009338786473749813633_" class="st0" d="M221.8,6.6c0.3,2.3,1.6,3.6,3.9,3.6
			c2.2,0,3.4-1.3,3.4-2.8c0-1.5-0.6-2.2-3.3-3c-2.1-0.7-2.4-1.1-2.4-1.8c0-0.8,0.6-1.5,1.9-1.5c1.5,0,2,0.8,2.2,1.8l1.2-0.3
			c-0.3-1.8-1.7-2.7-3.4-2.7c-2,0-3.1,1.2-3.1,2.6c0,1.4,0.9,2.1,3,2.8c2.4,0.8,2.7,1.2,2.7,2.1c0,0.9-0.7,1.7-2.2,1.7
			c-1.9,0-2.5-0.9-2.8-2.7L221.8,6.6z"/>
		<path id="Shape_00000049205451017242711410000015361349914781417860_" class="st0" d="M233.5,10h1.2l0.7-1.9h4.4l0.7,1.9h1.2
			l-3.5-9.8H237L233.5,10z M235.7,7.1l1.8-5.3h0l1.8,5.3H235.7z"/>
		<path id="Path_00000096748516089156742720000000967442024748099472_" class="st0" d="M243.3,10h1.2V2.1h0L249,10h1.2V0.2h-1.1v7.9
			h0l-4.5-7.9h-1.3V10z"/>
		<path id="Shape_00000058554083429865856360000005222221833112145578_" class="st0" d="M254,8.9V1.3h1.8c1.9,0,3.1,1.3,3.1,3.8
			c0,2.8-1.2,3.9-3.2,3.9H254z M252.9,10h3c2.2,0,4.3-1.2,4.3-4.9c0-3.4-2.1-4.9-4.2-4.9h-3.1V10z"/>
		<path id="Path_00000019651829569169107820000004573974001820409783_" class="st0" d="M267.8,10h1.1V1.3h3V0.2h-7.2v1.1h3V10z"/>
		<path id="Path_00000183245335162954698900000015660546211038281130_" class="st0" d="M273.6,10h1.2V5.5h4.4V10h1.1V0.2h-1.1v4.2
			h-4.4V0.2h-1.2V10z"/>
		<path id="Shape_00000026154895876901094340000004332310836735290521_" class="st0" d="M286.6,9.1c-1.7,0-2.9-1.3-2.9-4.1
			c0-2.7,1.4-3.9,2.9-3.9c1.5,0,2.9,1.3,2.9,4C289.4,7.9,288.2,9.1,286.6,9.1z M286.6,10.2c2.1,0,4.1-1.4,4.1-5.1
			c0-3.4-2-5.1-4.1-5.1c-2.1,0-4.2,1.7-4.2,5C282.4,8.8,284.5,10.2,286.6,10.2z"/>
		<path id="Path_00000084519313686744424950000006084607645226746770_" class="st0" d="M292.8,10h1.1V1.8h0l3.4,8.2h0.4l3.4-8.2h0
			V10h1.1V0.2h-1.6l-3.1,7.5h0l-3.1-7.5h-1.6V10z"/>
		<path id="Shape_00000040543357456770946030000009848819940824276866_" class="st0" d="M303.8,10h1.2l0.7-1.9h4.4l0.7,1.9h1.2
			l-3.5-9.8h-1.1L303.8,10z M306.1,7.1l1.8-5.3h0l1.8,5.3H306.1z"/>
		<path id="Path_00000004534103824517234530000011364893991050235825_" class="st0" d="M313,6.6c0.3,2.3,1.6,3.6,3.9,3.6
			c2.2,0,3.4-1.3,3.4-2.8c0-1.5-0.6-2.2-3.3-3c-2.1-0.7-2.4-1.1-2.4-1.8c0-0.8,0.6-1.5,1.9-1.5c1.5,0,2,0.8,2.2,1.8l1.2-0.3
			c-0.3-1.8-1.7-2.7-3.4-2.7c-2,0-3.1,1.2-3.1,2.6c0,1.4,0.9,2.1,3,2.8c2.4,0.8,2.7,1.2,2.7,2.1c0,0.9-0.7,1.7-2.2,1.7
			c-1.9,0-2.5-0.9-2.8-2.7L313,6.6z"/>
		<path id="Path_00000168079632359437595930000013046592332247011736_" class="st0" d="M1,30h1.1v-8.2h0L5.5,30h0.4l3.4-8.2h0V30
			h1.1v-9.8H8.8l-3.1,7.5h0l-3.1-7.5H1V30z"/>
		<path id="Shape_00000029731815182562338110000012646455468725425852_" class="st0" d="M12,30h1.2l0.7-1.9h4.4L19,30h1.2l-3.5-9.8
			h-1.1L12,30z M14.3,27.1l1.8-5.3h0l1.8,5.3H14.3z"/>
		<path id="Path_00000097464760239986005400000005765713384632594351_" class="st0" d="M23.9,30h1.1v-4.1l3.2-5.7H27l-2.5,4.6h0
			L22,20.2h-1.3l3.2,5.7V30z"/>
		<path id="Path_00000158007499498695105670000015007260186081073832_" class="st0" d="M29.8,30h5.9v-1.1H31v-3.5h4.3v-1H31v-3.2
			h4.7v-1.1h-5.9V30z"/>
		<path id="Shape_00000065779387159554809620000005510447174309535408_" class="st0" d="M38,30h1.2v-4h2.2l2.1,4h1.3l-2.2-4.1
			c1.4-0.3,2.4-1.2,2.4-2.8c0-2-1.3-2.9-3.3-2.9H38V30z M39.2,25v-3.7h2.5c1.3,0,2.2,0.5,2.2,1.8s-1,1.8-2.2,1.8H39.2z"/>
		<path id="Path_00000143576001289701826680000015076118218098027442_" class="st0" d="M47,31.5c1.2-0.1,1.7-0.8,1.7-1.7v-1.4H47V30
			h0.7c0,0.4-0.1,0.8-0.7,0.9V31.5z"/>
		<path id="Shape_00000036949201482939429250000014109398032895070377_" class="st0" d="M53.8,30H55l0.7-1.9h4.4l0.7,1.9H62
			l-3.5-9.8h-1.1L53.8,30z M56,27.1l1.8-5.3h0l1.8,5.3H56z"/>
		<path id="Shape_00000083051917377754178780000016339996775377850295_" class="st0" d="M68.3,28.9v-7.7h1.8c1.9,0,3.1,1.3,3.1,3.8
			c0,2.8-1.2,3.8-3.2,3.8H68.3z M67.1,30h3c2.2,0,4.3-1.2,4.3-4.9c0-3.4-2.1-4.9-4.2-4.9h-3.1V30z"/>
		<path id="Path_00000140734812827295469680000001418421704173320834_" class="st0" d="M76.5,30h1.2v-9.8h-1.2V30z"/>
		<path id="Path_00000171707119942379189140000012503312447472613533_" class="st0" d="M84,30.2c2.2,0,3.8-1.5,3.8-4.1v-1h-3.6v1.1
			h2.5c0,1.8-1,2.9-2.6,2.9c-1.6,0-2.9-1.3-2.9-4.1c0-2.7,1.4-3.9,2.9-3.9c1.6,0,2.2,1.1,2.5,2.3l1.2-0.2C87.3,21.3,85.9,20,84,20
			c-2.1,0-4.1,1.7-4.1,5C79.8,28.8,81.8,30.2,84,30.2z"/>
		<path id="Path_00000141450219296632966720000005055701213933717431_" class="st0" d="M89.9,30h1.2v-9.8h-1.2V30z"/>
		<path id="Path_00000016760615524647406250000016968567988266477968_" class="st0" d="M95.9,30H97v-8.7h3v-1.1h-7.2v1.1h3V30z"/>
		<path id="Shape_00000177461133546861091720000013987701797224736690_" class="st0" d="M100.7,30h1.2l0.7-1.9h4.4l0.7,1.9h1.2
			l-3.5-9.8h-1.1L100.7,30z M102.9,27.1l1.8-5.3h0l1.8,5.3H102.9z"/>
		<path id="Path_00000049916544627023101400000012091269685611053491_" class="st0" d="M110.5,30h5.4v-1.1h-4.3v-8.7h-1.2V30z"/>
		<path id="Shape_00000029735498394545221460000015483598409696751029_" class="st0" d="M120.1,30h1.2l0.7-1.9h4.4l0.7,1.9h1.2
			l-3.5-9.8h-1.1L120.1,30z M122.3,27.1l1.8-5.3h0l1.8,5.3H122.3z"/>
		<path id="Shape_00000072273613695950417050000015867187355902217114_" class="st0" d="M129.9,30h1.2v-4h2.2l2.1,4h1.3l-2.2-4.1
			c1.4-0.3,2.4-1.2,2.4-2.8c0-2-1.3-2.9-3.3-2.9h-3.8V30z M131,25v-3.7h2.5c1.3,0,2.2,0.5,2.2,1.8s-1,1.8-2.2,1.8H131z"/>
		<path id="Path_00000147937667033472255140000013627884521352864406_" class="st0" d="M140.9,30h1.1v-8.7h3v-1.1h-7.2v1.1h3V30z"/>
		<path id="Path_00000029047570527841634260000016457464352946246529_" class="st0" d="M146.9,30h1.2v-9.8h-1.2V30z"/>
		<path id="Path_00000054978044948144160540000015671518278511317661_" class="st0" d="M150.1,26.6c0.3,2.3,1.6,3.6,3.9,3.6
			c2.2,0,3.4-1.3,3.4-2.8c0-1.5-0.6-2.2-3.3-3c-2.1-0.7-2.4-1-2.4-1.8c0-0.8,0.6-1.5,1.9-1.5c1.5,0,2,0.8,2.2,1.8l1.2-0.3
			c-0.3-1.8-1.7-2.7-3.4-2.7c-2,0-3.1,1.2-3.1,2.6c0,1.4,0.9,2.1,3,2.8c2.4,0.8,2.7,1.2,2.7,2.1c0,0.9-0.7,1.7-2.2,1.7
			c-1.9,0-2.5-0.9-2.8-2.7L150.1,26.6z"/>
		<path id="Path_00000040543464937935644370000011338843529733851539_" class="st0" d="M161.4,30h1.1v-8.7h3v-1.1h-7.2v1.1h3V30z"/>
		<path id="Shape_00000098195344463972153730000012397779592040838064_" class="st0" d="M171.9,28.9v-7.7h1.8c1.9,0,3.1,1.3,3.1,3.8
			c0,2.8-1.2,3.8-3.2,3.8H171.9z M170.8,30h3c2.2,0,4.3-1.2,4.3-4.9c0-3.4-2.1-4.9-4.2-4.9h-3.1V30z"/>
		<path id="Path_00000181775115672067862850000016423787610817357961_" class="st0" d="M179.9,26.8c0,2.3,1.3,3.4,3.5,3.4
			c2.2,0,3.5-1.1,3.5-3.4v-6.6h-1.1v6.6c0,1.5-0.8,2.4-2.3,2.4c-1.5,0-2.3-0.8-2.3-2.4v-6.5h-1.2V26.8z"/>
		<path id="Shape_00000004539633845210964350000014182890929613291426_" class="st0" d="M192.9,29.1c-1.7,0-2.9-1.3-2.9-4.1
			c0-2.7,1.4-3.9,2.9-3.9c1.5,0,2.9,1.3,2.9,4C195.8,27.9,194.5,29.1,192.9,29.1z M192.9,30.2c2.1,0,4.1-1.4,4.1-5.1
			c0-3.4-2-5.1-4.1-5.1c-2.1,0-4.2,1.7-4.2,5C188.7,28.8,190.8,30.2,192.9,30.2z"/>
		<path id="Shape_00000072239077365522919780000000956292878167390387_" class="st0" d="M201.6,30h1.2l0.7-1.9h4.4l0.7,1.9h1.2
			l-3.5-9.8h-1.1L201.6,30z M203.8,27.1l1.8-5.3h0l1.8,5.3H203.8z"/>
		<path id="Path_00000176007592031887548500000004124783267225416073_" class="st0" d="M211.4,30h1.2v-7.9h0L217,30h1.2v-9.8h-1.1
			v7.9h0l-4.5-7.9h-1.3V30z"/>
		<path id="Shape_00000034779089275003536930000016021277618464816801_" class="st0" d="M222.1,28.9v-7.7h1.8c1.9,0,3.1,1.3,3.1,3.8
			c0,2.8-1.2,3.8-3.2,3.8H222.1z M220.9,30h3c2.2,0,4.3-1.2,4.3-4.9c0-3.4-2.1-4.9-4.2-4.9h-3.1V30z"/>
		<path id="Path_00000121264515943374419360000002029333856378642608_" class="st0" d="M237.4,21.1c1.7,0,2.3,1.2,2.5,2.5l1.2-0.2
			c-0.3-2-1.6-3.4-3.7-3.4c-2.1,0-4.2,1.7-4.2,5c0,3.8,2,5.2,4.2,5.2c2.2,0,3.5-1.4,3.7-3.7l-1.2-0.2c-0.2,1.5-0.7,2.8-2.5,2.8
			c-1.7,0-2.9-1.3-2.9-4.1C234.4,22.3,235.8,21.1,237.4,21.1z"/>
		<path id="Shape_00000090261264593920239620000014067082971091940525_" class="st0" d="M243.1,30h1.2v-4h2.2l2.1,4h1.3l-2.2-4.1
			c1.4-0.3,2.4-1.2,2.4-2.8c0-2-1.3-2.9-3.3-2.9h-3.8V30z M244.3,25v-3.7h2.5c1.3,0,2.2,0.5,2.2,1.8s-1,1.8-2.2,1.8H244.3z"/>
		<path id="Path_00000137845071910579352140000002419538976336063633_" class="st0" d="M252.1,30h5.9v-1.1h-4.7v-3.5h4.3v-1h-4.3
			v-3.2h4.7v-1.1h-5.9V30z"/>
		<path id="Shape_00000173842676000768163550000008338753972291562112_" class="st0" d="M259.3,30h1.2l0.7-1.9h4.4l0.7,1.9h1.2
			l-3.5-9.8h-1.1L259.3,30z M261.5,27.1l1.8-5.3h0l1.8,5.3H261.5z"/>
		<path id="Path_00000021080972915421814090000012444818813908255382_" class="st0" d="M271.1,30h1.1v-8.7h3v-1.1h-7.2v1.1h3V30z"/>
		<path id="Path_00000006670738957527504260000008447185913298675363_" class="st0" d="M277,30h1.2v-9.8H277V30z"/>
		<path id="Path_00000035493391403881545950000009570165683787639718_" class="st0" d="M283.3,30h1.4l3.4-9.8h-1.2l-2.8,8.4h0
			l-2.9-8.4h-1.2L283.3,30z"/>
		<path id="Path_00000027583600087314587100000001011184394795448222_" class="st0" d="M289.7,30h5.9v-1.1h-4.7v-3.5h4.3v-1h-4.3
			v-3.2h4.7v-1.1h-5.9V30z"/>
		<path id="Path_00000066480191733300740060000010890360864648934785_" class="st0" d="M0.4,46.6c0.3,2.3,1.6,3.6,3.9,3.6
			c2.2,0,3.4-1.3,3.4-2.8c0-1.5-0.6-2.2-3.3-3c-2.1-0.7-2.4-1-2.4-1.8c0-0.8,0.6-1.5,1.9-1.5c1.5,0,2,0.8,2.2,1.8l1.2-0.3
			C7,40.9,5.6,40,3.9,40c-2,0-3.1,1.2-3.1,2.6c0,1.4,0.9,2.1,3,2.8c2.4,0.8,2.7,1.2,2.7,2.1c0,0.9-0.7,1.7-2.2,1.7
			c-1.9,0-2.5-0.9-2.8-2.7L0.4,46.6z"/>
		<path id="Path_00000110441196812465521630000011127875607837020075_" class="st0" d="M11.6,50h1.1v-8.7h3v-1.1H8.6v1.1h3V50z"/>
		<path id="Path_00000151538374389112868880000009061170314412068541_" class="st0" d="M17.3,46.8c0,2.3,1.3,3.4,3.5,3.4
			s3.5-1.1,3.5-3.4v-6.6h-1.1v6.6c0,1.5-0.8,2.4-2.3,2.4c-1.5,0-2.3-0.8-2.3-2.4v-6.5h-1.2V46.8z"/>
		<path id="Shape_00000103262460056225469000000002825320285081808036_" class="st0" d="M27.9,48.9v-7.7h1.8c1.9,0,3.1,1.3,3.1,3.8
			c0,2.8-1.2,3.8-3.2,3.8H27.9z M26.7,50h3c2.2,0,4.3-1.2,4.3-4.9c0-3.4-2.1-4.9-4.2-4.9h-3.1V50z"/>
		<path id="Path_00000076576399627811445110000004298760077524953498_" class="st0" d="M36.1,50h1.2v-9.8h-1.2V50z"/>
		<path id="Shape_00000160165745018951648480000004034222119187802755_" class="st0" d="M43.6,49.1c-1.7,0-2.9-1.3-2.9-4.1
			c0-2.7,1.4-3.9,2.9-3.9c1.5,0,2.9,1.3,2.9,4C46.5,47.9,45.2,49.1,43.6,49.1z M43.6,50.2c2.1,0,4.1-1.4,4.1-5.1
			c0-3.4-2-5.1-4.1-5.1c-2.1,0-4.2,1.7-4.2,5C39.4,48.8,41.5,50.2,43.6,50.2z"/>
		<path id="Shape_00000102515951377745564750000014903704220051278772_" class="st0" d="M53.3,50h3.5c2.4,0,3.5-1.1,3.5-2.9
			c0-1.3-0.8-2.1-1.6-2.4v0c0.7-0.3,1.2-0.9,1.2-2c0-1.4-1.1-2.5-2.9-2.5h-3.8V50z M54.5,44.4v-3.1h2.4c1.2,0,1.9,0.5,1.9,1.5
			c0,1-0.6,1.5-1.9,1.5H54.5z M54.5,48.9v-3.6h2.2c1.6,0,2.4,0.4,2.4,1.7c0,1.3-0.9,1.8-2.5,1.8H54.5z"/>
		<path id="Shape_00000007425161247421804820000007031633982350518919_" class="st0" d="M61.3,50h1.2l0.7-1.9h4.4l0.7,1.9h1.2
			L66,40.2h-1.1L61.3,50z M63.6,47.1l1.8-5.3h0l1.8,5.3H63.6z"/>
		<path id="Path_00000043417427479136874290000004984902298235360416_" class="st0" d="M70.5,46.6c0.3,2.3,1.6,3.6,3.9,3.6
			c2.2,0,3.4-1.3,3.4-2.8c0-1.5-0.6-2.2-3.3-3c-2.1-0.7-2.4-1-2.4-1.8c0-0.8,0.6-1.5,1.9-1.5c1.5,0,2,0.8,2.2,1.8l1.2-0.3
			C77.2,40.9,75.8,40,74,40c-2,0-3.1,1.2-3.1,2.6c0,1.4,0.9,2.1,3,2.8c2.4,0.8,2.7,1.2,2.7,2.1c0,0.9-0.7,1.7-2.2,1.7
			c-1.9,0-2.5-0.9-2.8-2.7L70.5,46.6z"/>
		<path id="Path_00000028289577669472292560000012979906568465848998_" class="st0" d="M79.7,50h5.9v-1.1h-4.7v-3.5h4.3v-1h-4.3
			v-3.2h4.7v-1.1h-5.9V50z"/>
		<path id="Shape_00000167382782907609348530000012126436545923905182_" class="st0" d="M89.1,48.9v-7.7h1.8c1.9,0,3.1,1.3,3.1,3.8
			c0,2.8-1.2,3.8-3.2,3.8H89.1z M87.9,50h3c2.2,0,4.3-1.2,4.3-4.9c0-3.4-2.1-4.9-4.2-4.9h-3.1V50z"/>
		<path id="Path_00000059275378727266127730000018199903927302634669_" class="st0" d="M100.9,50h1.2v-9.8h-1.2V50z"/>
		<path id="Path_00000068653753430512894680000002948425667631639723_" class="st0" d="M104.7,50h1.2v-7.9h0l4.5,7.9h1.2v-9.8h-1.1
			v7.9h0l-4.5-7.9h-1.3V50z"/>
		<path id="Shape_00000164503744518003512250000018125614879452962946_" class="st0" d="M117.8,50h3.5c2.4,0,3.5-1.1,3.5-2.9
			c0-1.3-0.8-2.1-1.6-2.4v0c0.7-0.3,1.2-0.9,1.2-2c0-1.4-1.1-2.5-2.9-2.5h-3.8V50z M119,44.4v-3.1h2.4c1.2,0,1.9,0.5,1.9,1.5
			c0,1-0.6,1.5-1.9,1.5H119z M119,48.9v-3.6h2.2c1.6,0,2.4,0.4,2.4,1.7c0,1.3-0.9,1.8-2.5,1.8H119z"/>
		<path id="Path_00000057858615354714831490000011250641357335421590_" class="st0" d="M126.9,50h5.9v-1.1h-4.7v-3.5h4.3v-1h-4.3
			v-3.2h4.7v-1.1h-5.9V50z"/>
		<path id="Shape_00000106141163422694903180000013542249651639379128_" class="st0" d="M135.1,50h1.2v-4h2.2l2.1,4h1.3l-2.2-4.1
			c1.4-0.3,2.4-1.2,2.4-2.8c0-2-1.3-2.9-3.3-2.9h-3.8V50z M136.3,45v-3.7h2.5c1.3,0,2.2,0.5,2.2,1.8c0,1.4-1,1.8-2.2,1.8H136.3z"/>
		<path id="Path_00000022527437377102984800000001745363990335042739_" class="st0" d="M144.1,50h5.4v-1.1h-4.3v-8.7h-1.2V50z"/>
		<path id="Path_00000127760111358102102050000001881375698814160786_" class="st0" d="M151.3,50h1.2v-9.8h-1.2V50z"/>
		<path id="Path_00000163062407723060860850000012158239772526280584_" class="st0" d="M155.2,50h1.2v-7.9h0l4.5,7.9h1.2v-9.8H161
			v7.9h0l-4.5-7.9h-1.3V50z"/>
		<path id="Path_00000098208650042336560730000007759383596587848085_" class="st0" d="M164.8,50h1.7v-1.7h-1.7V50z"/>
		<path id="Path_00000165922514191856086760000012540315450579675817_" class="st0" d="M174.7,50h1.1v-8.7h3v-1.1h-7.2v1.1h3V50z"/>
		<path id="Path_00000124151449841331025500000005255334747997548699_" class="st0" d="M180.5,50h1.2v-4.5h4.4V50h1.1v-9.8h-1.1v4.2
			h-4.4v-4.2h-1.2V50z"/>
		<path id="Path_00000008859560587179715060000009913412048320343178_" class="st0" d="M189.9,50h5.9v-1.1H191v-3.5h4.3v-1H191v-3.2
			h4.7v-1.1h-5.9V50z"/>
		<path id="Path_00000063601113050714210620000014160269934717902994_" class="st0" d="M198.1,50h1.2v-9.8h-1.2V50z"/>
		<path id="Shape_00000118381389710408429350000007327980148692819347_" class="st0" d="M202,50h1.2v-4h2.2l2.1,4h1.3l-2.2-4.1
			c1.4-0.3,2.4-1.2,2.4-2.8c0-2-1.3-2.9-3.3-2.9H202V50z M203.2,45v-3.7h2.5c1.3,0,2.2,0.5,2.2,1.8c0,1.4-1,1.8-2.2,1.8H203.2z"/>
		<path id="Path_00000082362671502623970320000014563758064805294759_" class="st0" d="M215.6,50h1.4l2.5-8.1h0l2.5,8.1h1.4l1.8-9.8
			h-1.2l-1.4,8.1h0l-2.5-8.1H219l-2.4,8.1h0l-1.5-8.1h-1.2L215.6,50z"/>
		<path id="Shape_00000013871362755247221480000009929344633756427149_" class="st0" d="M230.8,49.1c-1.7,0-2.9-1.3-2.9-4.1
			c0-2.7,1.4-3.9,2.9-3.9c1.5,0,2.9,1.3,2.9,4C233.7,47.9,232.5,49.1,230.8,49.1z M230.8,50.2c2.1,0,4.1-1.4,4.1-5.1
			c0-3.4-2-5.1-4.1-5.1c-2.1,0-4.2,1.7-4.2,5C226.7,48.8,228.7,50.2,230.8,50.2z"/>
		<path id="Shape_00000119109300005447889320000003814757594438224307_" class="st0" d="M237,50h1.2v-4h2.2l2.1,4h1.3l-2.2-4.1
			c1.4-0.3,2.4-1.2,2.4-2.8c0-2-1.3-2.9-3.3-2.9H237V50z M238.2,45v-3.7h2.5c1.3,0,2.2,0.5,2.2,1.8c0,1.4-1,1.8-2.2,1.8H238.2z"/>
		<path id="Path_00000077316159971971214380000003414994328491642548_" class="st0" d="M245.9,50h1.2v-3.4l1.1-1.3h0l3.3,4.6h1.4
			l-4-5.5l3.6-4.3h-1.5l-4,4.8h0v-4.8h-1.2V50z"/>
		<path id="Path_00000173119453924591169010000005056528388208307347_" class="st0" d="M258.9,50h1.4l2.5-8.1h0l2.5,8.1h1.4l1.8-9.8
			h-1.2l-1.4,8.1h0l-2.4-8.1h-1.2l-2.4,8.1h0l-1.5-8.1h-1.2L258.9,50z"/>
		<path id="Path_00000135658926642185095800000012925357551478377655_" class="st0" d="M270.6,50h1.2v-9.8h-1.2V50z"/>
		<path id="Path_00000040543841125405010680000009075141187745658553_" class="st0" d="M276.6,50h1.1v-8.7h3v-1.1h-7.2v1.1h3V50z"/>
		<path id="Path_00000062886670283238640960000011576205181050300556_" class="st0" d="M282.4,50h1.2v-4.5h4.4V50h1.1v-9.8H288v4.2
			h-4.4v-4.2h-1.2V50z"/>
		<path id="Shape_00000120518323638271355100000010164195635558903714_" class="st0" d="M295.3,50h3.5c2.4,0,3.5-1.1,3.5-2.9
			c0-1.3-0.8-2.1-1.6-2.4v0c0.7-0.3,1.2-0.9,1.2-2c0-1.4-1.1-2.5-2.9-2.5h-3.8V50z M296.4,44.4v-3.1h2.4c1.2,0,1.9,0.5,1.9,1.5
			c0,1-0.6,1.5-1.9,1.5H296.4z M296.4,48.9v-3.6h2.2c1.6,0,2.4,0.4,2.4,1.7c0,1.3-0.9,1.8-2.5,1.8H296.4z"/>
		<path id="Shape_00000183211309770853615360000005027507676532205953_" class="st0" d="M307.9,49.1c-1.7,0-2.9-1.3-2.9-4.1
			c0-2.7,1.4-3.9,2.9-3.9c1.5,0,2.9,1.3,2.9,4C310.8,47.9,309.6,49.1,307.9,49.1z M307.9,50.2c2.1,0,4.1-1.4,4.1-5.1
			c0-3.4-2-5.1-4.1-5.1c-2.1,0-4.2,1.7-4.2,5C303.8,48.8,305.8,50.2,307.9,50.2z"/>
		<path id="Path_00000170262327019251920850000007702832355486341773_" class="st0" d="M316.2,50h1.1v-8.7h3v-1.1h-7.2v1.1h3V50z"/>
		<path id="Path_00000085208849275475841390000003078382489888262318_" class="st0" d="M322.1,50h1.2v-4.5h4.4V50h1.1v-9.8h-1.1v4.2
			h-4.4v-4.2h-1.2V50z"/>
		<path id="Path_00000139995006024629002290000001003471057251549871_" class="st0" d="M0.4,66.6c0.3,2.3,1.6,3.6,3.9,3.6
			c2.2,0,3.4-1.3,3.4-2.8c0-1.5-0.6-2.2-3.3-3c-2.1-0.7-2.4-1-2.4-1.8c0-0.8,0.6-1.5,1.9-1.5c1.5,0,2,0.8,2.2,1.8l1.2-0.3
			C7,60.9,5.6,60,3.9,60c-2,0-3.1,1.2-3.1,2.6c0,1.4,0.9,2.1,3,2.8c2.4,0.8,2.7,1.2,2.7,2.1c0,0.9-0.7,1.7-2.2,1.7
			c-1.9,0-2.5-0.9-2.8-2.7L0.4,66.6z"/>
		<path id="Path_00000034057797926783235250000017656488128791975558_" class="st0" d="M11.6,70h1.1v-8.7h3v-1.1H8.6v1.1h3V70z"/>
		<path id="Shape_00000173882725467495818110000007516747931110483356_" class="st0" d="M17.5,70h1.2v-4h2.2l2.1,4h1.3l-2.2-4.1
			c1.4-0.3,2.4-1.2,2.4-2.8c0-2-1.3-2.9-3.3-2.9h-3.8V70z M18.7,65v-3.7h2.5c1.3,0,2.2,0.5,2.2,1.8s-1,1.8-2.2,1.8H18.7z"/>
		<path id="Path_00000011740707939464619320000002574510524285974936_" class="st0" d="M26.5,70h5.9v-1.1h-4.7v-3.5H32v-1h-4.3v-3.2
			h4.7v-1.1h-5.9V70z"/>
		<path id="Path_00000006695012467295774180000014815980899163138480_" class="st0" d="M34.7,70h5.9v-1.1h-4.7v-3.5h4.3v-1h-4.3
			v-3.2h4.7v-1.1h-5.9V70z"/>
		<path id="Path_00000023976250452202563870000005306932473565416096_" class="st0" d="M45,70h1.1v-8.7h3v-1.1h-7.2v1.1h3V70z"/>
		<path id="Path_00000140009529851975165180000011334748004392955556_" class="st0" d="M53.7,66.6c0.3,2.3,1.6,3.6,3.9,3.6
			c2.2,0,3.4-1.3,3.4-2.8c0-1.5-0.6-2.2-3.3-3c-2.1-0.7-2.4-1-2.4-1.8c0-0.8,0.6-1.5,1.9-1.5c1.5,0,2,0.8,2.2,1.8l1.2-0.3
			C60.4,60.9,59,60,57.2,60c-2,0-3.1,1.2-3.1,2.6c0,1.4,0.9,2.1,3,2.8c2.4,0.8,2.7,1.2,2.7,2.1c0,0.9-0.7,1.7-2.2,1.7
			c-1.9,0-2.5-0.9-2.8-2.7L53.7,66.6z"/>
		<path id="Path_00000121272735696382631940000012265748807053739148_" class="st0" d="M65,70h1.1v-8.7h3v-1.1H62v1.1h3V70z"/>
		<path id="Path_00000054969304205091317490000009381627889336958863_" class="st0" d="M73,70h1.1v-4.1l3.2-5.7H76l-2.5,4.6h0
			L71,60.2h-1.3l3.2,5.7V70z"/>
		<path id="Path_00000019644012738826781580000014425705554288346809_" class="st0" d="M78.8,70h5.4v-1.1H80v-8.7h-1.2V70z"/>
		<path id="Path_00000132082608194198373750000014435101569523611551_" class="st0" d="M86,70h5.9v-1.1h-4.7v-3.5h4.3v-1h-4.3v-3.2
			h4.7v-1.1H86V70z"/>
		<path id="Shape_00000022523957178681311650000000631406878856021928_" class="st0" d="M96.7,70h1.2l0.7-1.9h4.4l0.7,1.9h1.2
			l-3.5-9.8h-1.1L96.7,70z M98.9,67.1l1.8-5.3h0l1.8,5.3H98.9z"/>
		<path id="Path_00000049218509056290815930000013121825651363052445_" class="st0" d="M106.5,70h1.2v-7.9h0l4.5,7.9h1.2v-9.8h-1.1
			v7.9h0l-4.5-7.9h-1.3V70z"/>
		<path id="Shape_00000079463765200900906500000004129285890532643215_" class="st0" d="M117.2,68.9v-7.7h1.8c1.9,0,3.1,1.3,3.1,3.8
			c0,2.8-1.2,3.8-3.2,3.8H117.2z M116,70h3c2.2,0,4.3-1.2,4.3-4.9c0-3.4-2.1-4.9-4.2-4.9H116V70z"/>
		<path id="Path_00000088094439489307864140000008068786026884777882_" class="st0" d="M128.9,70h1.2v-4.6h4.4V70h1.1v-9.8h-1.1v4.2
			H130v-4.2h-1.2V70z"/>
		<path id="Path_00000151501824229598137600000014535978495496850353_" class="st0" d="M138.3,70h1.2v-9.8h-1.2V70z"/>
		<path id="Path_00000141457284150405822270000017093286881577471644_" class="st0" d="M145.8,70.2c2.2,0,3.8-1.5,3.8-4.1v-1h-3.6
			v1.1h2.5c0,1.8-1,2.9-2.6,2.9c-1.6,0-2.9-1.3-2.9-4.1c0-2.7,1.4-3.9,2.9-3.9c1.6,0,2.2,1.1,2.5,2.3l1.2-0.2
			c-0.3-1.9-1.7-3.2-3.7-3.2c-2.1,0-4.1,1.7-4.1,5C141.6,68.8,143.6,70.2,145.8,70.2z"/>
		<path id="Path_00000124863527998977043170000001735303162237693097_" class="st0" d="M151.6,70h1.2v-4.6h4.4V70h1.1v-9.8h-1.1v4.2
			h-4.4v-4.2h-1.2V70z"/>
		<path id="Path_00000131331265857675043860000013824942601850060173_" class="st0" d="M164.5,70h1.2v-4.2h4.4v-1h-4.4v-3.5h4.7
			v-1.1h-5.9V70z"/>
		<path id="Shape_00000017482297103595443260000009472685540280757155_" class="st0" d="M171.4,70h1.2l0.7-1.9h4.4l0.7,1.9h1.2
			l-3.5-9.8h-1.1L171.4,70z M173.6,67.1l1.8-5.3h0l1.8,5.3H173.6z"/>
		<path id="Path_00000088829106194248030980000003983695931689018001_" class="st0" d="M180.5,66.6c0.3,2.3,1.6,3.6,3.9,3.6
			c2.2,0,3.4-1.3,3.4-2.8c0-1.5-0.6-2.2-3.3-3c-2.1-0.7-2.4-1-2.4-1.8c0-0.8,0.6-1.5,1.9-1.5c1.5,0,2,0.8,2.2,1.8l1.2-0.3
			c-0.3-1.8-1.7-2.7-3.4-2.7c-2,0-3.1,1.2-3.1,2.6c0,1.4,0.9,2.1,3,2.8c2.4,0.8,2.7,1.2,2.7,2.1c0,0.9-0.7,1.7-2.2,1.7
			c-1.9,0-2.5-0.9-2.8-2.7L180.5,66.6z"/>
		<path id="Path_00000137840793603371364780000001324252568422810262_" class="st0" d="M189.8,70h1.2v-4.6h4.4V70h1.1v-9.8h-1.1v4.2
			h-4.4v-4.2h-1.2V70z"/>
		<path id="Path_00000102531313609417294520000007861071364577751210_" class="st0" d="M199.2,70h1.2v-9.8h-1.2V70z"/>
		<path id="Shape_00000059297745335664650310000004198251831508561573_" class="st0" d="M206.7,69.1c-1.7,0-2.9-1.3-2.9-4.1
			c0-2.7,1.4-3.9,2.9-3.9c1.5,0,2.9,1.3,2.9,4C209.6,67.9,208.3,69.1,206.7,69.1z M206.7,70.2c2.1,0,4.1-1.4,4.1-5.1
			c0-3.4-2-5.1-4.1-5.1c-2.1,0-4.2,1.7-4.2,5C202.5,68.8,204.6,70.2,206.7,70.2z"/>
		<path id="Path_00000181803360337177142360000010438435167350474118_" class="st0" d="M212.9,70h1.2v-7.9h0l4.5,7.9h1.2v-9.8h-1.1
			v7.9h0l-4.5-7.9h-1.3V70z"/>
		<path id="Shape_00000019642072704298785990000006994289747077676955_" class="st0" d="M225.9,70h3.5c2.4,0,3.5-1.1,3.5-2.9
			c0-1.3-0.8-2.1-1.6-2.4v0c0.7-0.3,1.2-0.9,1.2-2c0-1.4-1.1-2.5-2.9-2.5h-3.8V70z M227.1,64.4v-3.1h2.4c1.2,0,1.9,0.5,1.9,1.5
			c0,1-0.6,1.5-1.9,1.5H227.1z M227.1,68.9v-3.6h2.2c1.6,0,2.4,0.4,2.4,1.7c0,1.3-0.9,1.8-2.5,1.8H227.1z"/>
		<path id="Shape_00000093895380404396501280000009106603729057590197_" class="st0" d="M235,70h1.2v-4h2.2l2.1,4h1.3l-2.2-4.1
			c1.4-0.3,2.4-1.2,2.4-2.8c0-2-1.3-2.9-3.3-2.9H235V70z M236.2,65v-3.7h2.5c1.3,0,2.2,0.5,2.2,1.8s-1,1.8-2.2,1.8H236.2z"/>
		<path id="Shape_00000160907265635662668420000000380475347170795143_" class="st0" d="M243,70h1.2l0.7-1.9h4.4L250,70h1.2
			l-3.5-9.8h-1.1L243,70z M245.2,67.1l1.8-5.3h0l1.8,5.3H245.2z"/>
		<path id="Path_00000080203368951146862420000002934842802599263627_" class="st0" d="M252.8,70h1.2v-7.9h0l4.5,7.9h1.2v-9.8h-1.1
			v7.9h0l-4.5-7.9h-1.3V70z"/>
		<path id="Shape_00000095330039026967771910000010469866393935189691_" class="st0" d="M263.5,68.9v-7.7h1.8c1.9,0,3.1,1.3,3.1,3.8
			c0,2.8-1.2,3.8-3.2,3.8H263.5z M262.3,70h3c2.2,0,4.3-1.2,4.3-4.9c0-3.4-2.1-4.9-4.2-4.9h-3.1V70z"/>
		<path id="Path_00000011732969958902852620000015500390970728288407_" class="st0" d="M271.1,66.6c0.3,2.3,1.6,3.6,3.9,3.6
			c2.2,0,3.4-1.3,3.4-2.8c0-1.5-0.6-2.2-3.3-3c-2.1-0.7-2.4-1-2.4-1.8c0-0.8,0.6-1.5,1.9-1.5c1.5,0,2,0.8,2.2,1.8l1.2-0.3
			c-0.3-1.8-1.7-2.7-3.4-2.7c-2,0-3.1,1.2-3.1,2.6c0,1.4,0.9,2.1,3,2.8c2.4,0.8,2.7,1.2,2.7,2.1c0,0.9-0.7,1.7-2.2,1.7
			c-1.9,0-2.5-0.9-2.8-2.7L271.1,66.6z"/>
		<path id="Path_00000160179579210925756180000016387360337414574523_" class="st0" d="M283.9,70h1.2v-9.8h-1.2V70z"/>
		<path id="Path_00000131350226373786056390000017009454118994148995_" class="st0" d="M287.1,66.6c0.3,2.3,1.6,3.6,3.9,3.6
			c2.2,0,3.4-1.3,3.4-2.8c0-1.5-0.6-2.2-3.3-3c-2.1-0.7-2.4-1-2.4-1.8c0-0.8,0.6-1.5,1.9-1.5c1.5,0,2,0.8,2.2,1.8l1.2-0.3
			c-0.3-1.8-1.7-2.7-3.4-2.7c-2,0-3.1,1.2-3.1,2.6c0,1.4,0.9,2.1,3,2.8c2.4,0.8,2.7,1.2,2.7,2.1c0,0.9-0.7,1.7-2.2,1.7
			c-1.9,0-2.5-0.9-2.8-2.7L287.1,66.6z"/>
		<path id="Shape_00000007422403945293785260000007486760955727822758_" class="st0" d="M298.8,70h1.2l0.7-1.9h4.4l0.7,1.9h1.2
			l-3.5-9.8h-1.1L298.8,70z M301.1,67.1l1.8-5.3h0l1.8,5.3H301.1z"/>
		<path id="Path_00000034058692531568145230000005884601834133084340_" class="st0" d="M3,90h1.1v-8.7h3v-1.1H0v1.1h3V90z"/>
		<path id="Path_00000106116781639996224630000014374675363214122122_" class="st0" d="M8.9,90h5.9v-1.1h-4.7v-3.5h4.3v-1h-4.3v-3.2
			h4.7v-1.1H8.9V90z"/>
		<path id="Path_00000103258227627925571670000004736221596967649939_" class="st0" d="M16.5,86.6c0.3,2.3,1.6,3.6,3.9,3.6
			c2.2,0,3.4-1.3,3.4-2.8c0-1.5-0.6-2.2-3.3-3c-2.1-0.7-2.4-1-2.4-1.8c0-0.8,0.6-1.5,1.9-1.5c1.5,0,2,0.8,2.2,1.8l1.2-0.3
			C23.2,80.9,21.8,80,20,80c-2,0-3.1,1.2-3.1,2.6c0,1.4,0.9,2.1,3,2.8c2.4,0.8,2.7,1.2,2.7,2.1c0,0.9-0.7,1.7-2.2,1.7
			c-1.9,0-2.5-0.9-2.8-2.7L16.5,86.6z"/>
		<path id="Path_00000042707504025980353030000001396820654035819423_" class="st0" d="M27.8,90h1.1v-8.7h3v-1.1h-7.2v1.1h3V90z"/>
		<path id="Shape_00000098216056796289093230000017419973916246497206_" class="st0" d="M32.6,90h1.2l0.7-1.9h4.4l0.7,1.9h1.2
			l-3.5-9.8h-1.1L32.6,90z M34.8,87.1l1.8-5.3h0l1.8,5.3H34.8z"/>
		<path id="Path_00000041274324358234115300000016374805763941831306_" class="st0" d="M42.4,90h1.1v-8.2h0l3.4,8.2h0.4l3.4-8.2h0
			V90h1.1v-9.8h-1.6l-3.1,7.5h0L44,80.2h-1.6V90z"/>
		<path id="Path_00000095337548115709552170000016930467709538455457_" class="st0" d="M54.5,90h5.9v-1.1h-4.7v-3.5H60v-1h-4.3v-3.2
			h4.7v-1.1h-5.9V90z"/>
		<path id="Path_00000100374194022947062830000008622071467726459014_" class="st0" d="M62.7,90h1.2v-7.9h0l4.5,7.9h1.2v-9.8h-1.1
			v7.9h0l-4.5-7.9h-1.3V90z"/>
		<path id="Path_00000107565081798647587060000015914423234908288404_" class="st0" d="M74.3,90h1.1v-8.7h3v-1.1h-7.2v1.1h3V90z"/>
		<path id="Path_00000008851855364078536770000017841682840595008655_" class="st0" d="M85.7,90h1.1v-8.7h3v-1.1h-7.2v1.1h3V90z"/>
		<path id="Shape_00000086657241432313237530000006892197020611744680_" class="st0" d="M95.1,89.1c-1.7,0-2.9-1.3-2.9-4.1
			c0-2.7,1.4-3.9,2.9-3.9c1.5,0,2.9,1.3,2.9,4C98,87.9,96.8,89.1,95.1,89.1z M95.1,90.2c2.1,0,4.1-1.4,4.1-5.1c0-3.4-2-5.1-4.1-5.1
			C93,80,91,81.7,91,85C91,88.8,93,90.2,95.1,90.2z"/>
		<path id="Path_00000134237209823970518100000009083415093240280489_" class="st0" d="M106.9,90h1.1v-8.7h3v-1.1h-7.2v1.1h3V90z"/>
		<path id="Path_00000082339618099358169760000017024285348453844867_" class="st0" d="M112.8,90h1.2v-4.6h4.4V90h1.1v-9.8h-1.1v4.2
			h-4.4v-4.2h-1.2V90z"/>
		<path id="Path_00000161632811414456584210000008889084512721977278_" class="st0" d="M122.1,90h5.9v-1.1h-4.7v-3.5h4.3v-1h-4.3
			v-3.2h4.7v-1.1h-5.9V90z"/>
		<path id="Path_00000077318622286997972670000015184651863250662825_" class="st0" d="M130.4,90h1.2v-9.8h-1.2V90z"/>
		<path id="Shape_00000017499988816434348780000000713905480380321422_" class="st0" d="M134.3,90h1.2v-4h2.2l2.1,4h1.3l-2.2-4.1
			c1.4-0.3,2.4-1.2,2.4-2.8c0-2-1.3-2.9-3.3-2.9h-3.8V90z M135.4,85v-3.7h2.5c1.3,0,2.2,0.5,2.2,1.8s-1,1.8-2.2,1.8H135.4z"/>
		<path id="Path_00000060735223058320229640000006070982385803104926_" class="st0" d="M150.4,81.1c1.7,0,2.3,1.2,2.5,2.5l1.2-0.2
			c-0.3-2-1.6-3.4-3.7-3.4c-2.1,0-4.2,1.7-4.2,5c0,3.8,2,5.2,4.2,5.2c2.2,0,3.5-1.4,3.7-3.7l-1.2-0.2c-0.2,1.5-0.7,2.8-2.5,2.8
			c-1.7,0-2.9-1.3-2.9-4.1C147.4,82.3,148.8,81.1,150.4,81.1z"/>
		<path id="Shape_00000096772849046197705120000003880003434404910742_" class="st0" d="M156.1,90h1.2v-4h2.2l2.1,4h1.3l-2.2-4.1
			c1.4-0.3,2.4-1.2,2.4-2.8c0-2-1.3-2.9-3.3-2.9h-3.8V90z M157.3,85v-3.7h2.5c1.3,0,2.2,0.5,2.2,1.8s-1,1.8-2.2,1.8H157.3z"/>
		<path id="Path_00000000934316574887831920000000249890170454885563_" class="st0" d="M165.1,90h5.9v-1.1h-4.7v-3.5h4.3v-1h-4.3
			v-3.2h4.7v-1.1h-5.9V90z"/>
		<path id="Shape_00000061434054215544036100000007386832360352645548_" class="st0" d="M172.3,90h1.2l0.7-1.9h4.4l0.7,1.9h1.2
			l-3.5-9.8h-1.1L172.3,90z M174.5,87.1l1.8-5.3h0l1.8,5.3H174.5z"/>
		<path id="Path_00000015318843229101527510000008850612495557267359_" class="st0" d="M184.1,90h1.1v-8.7h3v-1.1h-7.2v1.1h3V90z"/>
		<path id="Path_00000032638088289646902680000017242351539022196869_" class="st0" d="M190.1,90h1.2v-9.8h-1.2V90z"/>
		<path id="Path_00000107577297584092638400000017871666043791954592_" class="st0" d="M196.4,90h1.4l3.4-9.8h-1.2l-2.8,8.4h0
			l-2.9-8.4h-1.2L196.4,90z"/>
		<path id="Path_00000017487274679079384570000003032929346163922875_" class="st0" d="M202.7,90h5.9v-1.1h-4.7v-3.5h4.3v-1h-4.3
			v-3.2h4.7v-1.1h-5.9V90z"/>
		<path id="Path_00000041993382886815562180000001788822991489429170_" class="st0" d="M216.8,90h1.4l3.4-9.8h-1.2l-2.8,8.4h0
			l-2.9-8.4h-1.2L216.8,90z"/>
		<path id="Path_00000111904635335047562710000005434923193708503980_" class="st0" d="M223.2,90h5.9v-1.1h-4.7v-3.5h4.3v-1h-4.3
			v-3.2h4.7v-1.1h-5.9V90z"/>
		<path id="Shape_00000078012294965124256700000004306807470282668974_" class="st0" d="M231.4,90h1.2v-4h2.2l2.1,4h1.3l-2.2-4.1
			c1.4-0.3,2.4-1.2,2.4-2.8c0-2-1.3-2.9-3.3-2.9h-3.8V90z M232.6,85v-3.7h2.5c1.3,0,2.2,0.5,2.2,1.8s-1,1.8-2.2,1.8H232.6z"/>
		<path id="Path_00000116193479087549429040000015238490641443434154_" class="st0" d="M239.8,86.6c0.3,2.3,1.6,3.6,3.9,3.6
			c2.2,0,3.4-1.3,3.4-2.8c0-1.5-0.6-2.2-3.3-3c-2.1-0.7-2.4-1-2.4-1.8c0-0.8,0.6-1.5,1.9-1.5c1.5,0,2,0.8,2.2,1.8l1.2-0.3
			c-0.3-1.8-1.7-2.7-3.4-2.7c-2,0-3.1,1.2-3.1,2.6c0,1.4,0.9,2.1,3,2.8c2.4,0.8,2.7,1.2,2.7,2.1c0,0.9-0.7,1.7-2.2,1.7
			c-1.9,0-2.5-0.9-2.8-2.7L239.8,86.6z"/>
		<path id="Shape_00000145736841888772574710000008157802863520798894_" class="st0" d="M248,90h1.2l0.7-1.9h4.4L255,90h1.2
			l-3.5-9.8h-1.1L248,90z M250.2,87.1l1.8-5.3h0l1.8,5.3H250.2z"/>
		<path id="Path_00000000912352271997154140000011358721670423102117_" class="st0" d="M259.8,90h1.1v-8.7h3v-1.1h-7.2v1.1h3V90z"/>
		<path id="Path_00000180368154441224029890000015864941935888666263_" class="st0" d="M265.7,90h1.2v-9.8h-1.2V90z"/>
		<path id="Path_00000021836804146471137020000001448874864322232226_" class="st0" d="M269.6,90h5.4v-1.1h-4.3v-8.7h-1.2V90z"/>
		<path id="Path_00000163781489736587376220000009779879491564566457_" class="st0" d="M276.9,90h1.2v-9.8h-1.2V90z"/>
		<path id="Path_00000165203031365409958840000012278909146753429892_" class="st0" d="M282.8,90h1.1v-8.7h3v-1.1h-7.2v1.1h3V90z"/>
		<path id="Path_00000135690156019185180460000009498833550224528052_" class="st0" d="M290.8,90h1.1v-4.1l3.2-5.7h-1.3l-2.5,4.6h0
			l-2.5-4.6h-1.3l3.2,5.7V90z"/>
		<path id="Path_00000161626194770254765080000014408689594879035543_" class="st0" d="M296.7,90h1.7v-1.7h-1.7V90z"/>
		<path id="Path_00000059312248697668028890000009638099798011116475_" class="st0" d="M3,110h1.1v-8.7h3v-1.1H0v1.1h3V110z"/>
		<path id="Path_00000034801229054008067750000002992438971496545210_" class="st0" d="M8.9,110h1.2v-4.6h4.4v4.6h1.1v-9.8h-1.1v4.2
			h-4.4v-4.2H8.9V110z"/>
		<path id="Path_00000122706549501640138070000002363406184241492115_" class="st0" d="M18.2,110h5.9v-1.1h-4.7v-3.5h4.3v-1h-4.3
			v-3.2h4.7v-1.1h-5.9V110z"/>
		<path id="Path_00000177477719771201174800000008092841808717665213_" class="st0" d="M26.5,110h1.2v-9.8h-1.2V110z"/>
		<path id="Shape_00000061457304141280892150000016279026964164313988_" class="st0" d="M30.4,110h1.2v-4h2.2l2.1,4h1.3l-2.2-4.1
			c1.4-0.3,2.4-1.2,2.4-2.8c0-2-1.3-2.9-3.3-2.9h-3.8V110z M31.6,105v-3.7h2.5c1.3,0,2.2,0.5,2.2,1.8s-1,1.8-2.2,1.8H31.6z"/>
		<path id="Shape_00000155121176514062963850000003627286670715585190_" class="st0" d="M44.1,108.9v-7.7h1.8c1.9,0,3.1,1.3,3.1,3.8
			c0,2.8-1.2,3.8-3.2,3.8H44.1z M42.9,110h3c2.2,0,4.3-1.2,4.3-4.9c0-3.4-2.1-4.9-4.2-4.9h-3.1V110z"/>
		<path id="Path_00000067202657580620800690000014927470095384338064_" class="st0" d="M52.3,110h1.2v-9.8h-1.2V110z"/>
		<path id="Path_00000077309302471494951040000015193157150977229990_" class="st0" d="M55.6,106.6c0.3,2.3,1.6,3.6,3.9,3.6
			c2.2,0,3.4-1.3,3.4-2.8c0-1.5-0.6-2.2-3.3-3c-2.1-0.7-2.4-1-2.4-1.8c0-0.8,0.6-1.5,1.9-1.5c1.5,0,2,0.8,2.2,1.8l1.2-0.3
			c-0.3-1.8-1.7-2.7-3.4-2.7c-2,0-3.1,1.2-3.1,2.6c0,1.4,0.9,2.1,3,2.8c2.4,0.8,2.7,1.2,2.7,2.1c0,0.9-0.7,1.7-2.2,1.7
			c-1.9,0-2.5-0.9-2.8-2.7L55.6,106.6z"/>
		<path id="Path_00000078004444088734949990000009392538283539679638_" class="st0" d="M66.9,110H68v-8.7h3v-1.1h-7.2v1.1h3V110z"/>
		<path id="Path_00000158725429475934166790000014425248958244733627_" class="st0" d="M72.8,110H74v-9.8h-1.2V110z"/>
		<path id="Path_00000089559214827978805810000004153748249920928945_" class="st0" d="M76.7,110h1.2v-7.9h0l4.5,7.9h1.2v-9.8h-1.1
			v7.9h0l-4.5-7.9h-1.3V110z"/>
		<path id="Path_00000047749728341837294740000015525602786363452331_" class="st0" d="M89.9,101.1c1.7,0,2.3,1.2,2.5,2.5l1.2-0.2
			c-0.3-2-1.6-3.4-3.7-3.4c-2.1,0-4.2,1.7-4.2,5c0,3.8,2,5.2,4.2,5.2c2.2,0,3.5-1.4,3.7-3.7l-1.2-0.2c-0.2,1.5-0.7,2.8-2.5,2.8
			c-1.7,0-2.9-1.3-2.9-4.1C86.9,102.3,88.3,101.1,89.9,101.1z"/>
		<path id="Path_00000111164154246446782000000007572682485070558634_" class="st0" d="M97.7,110h1.1v-8.7h3v-1.1h-7.2v1.1h3V110z"
			/>
		<path id="Path_00000068636465122929460770000009996534816675470782_" class="st0" d="M103.6,110h1.2v-9.8h-1.2V110z"/>
		<path id="Path_00000121277388442579209950000009428457027313657233_" class="st0" d="M109.9,110h1.4l3.4-9.8h-1.2l-2.8,8.4h0
			l-2.9-8.4h-1.2L109.9,110z"/>
		<path id="Path_00000001644436849569044920000009112179185991931317_" class="st0" d="M116.2,110h5.9v-1.1h-4.7v-3.5h4.3v-1h-4.3
			v-3.2h4.7v-1.1h-5.9V110z"/>
		<path id="Path_00000074425726110564217660000001820017014313081525_" class="st0" d="M127.3,106.6c0.3,2.3,1.6,3.6,3.9,3.6
			c2.2,0,3.4-1.3,3.4-2.8c0-1.5-0.6-2.2-3.3-3c-2.1-0.7-2.4-1-2.4-1.8c0-0.8,0.6-1.5,1.9-1.5c1.5,0,2,0.8,2.2,1.8l1.2-0.3
			c-0.3-1.8-1.7-2.7-3.4-2.7c-2,0-3.1,1.2-3.1,2.6c0,1.4,0.9,2.1,3,2.8c2.4,0.8,2.7,1.2,2.7,2.1c0,0.9-0.7,1.7-2.2,1.7
			c-1.9,0-2.5-0.9-2.8-2.7L127.3,106.6z"/>
		<path id="Path_00000137827358610787843260000012921921355440548008_" class="st0" d="M138.6,110h1.1v-8.7h3v-1.1h-7.2v1.1h3V110z"
			/>
		<path id="Path_00000115495490882474140410000018364728228348950452_" class="st0" d="M146.6,110h1.1v-4.1l3.2-5.7h-1.3l-2.5,4.6h0
			l-2.5-4.6h-1.3l3.2,5.7V110z"/>
		<path id="Path_00000103985366052105530510000016571698377100394164_" class="st0" d="M152.5,110h5.4v-1.1h-4.3v-8.7h-1.2V110z"/>
		<path id="Path_00000046335921941026191500000011802816056554344377_" class="st0" d="M159.6,110h5.9v-1.1h-4.7v-3.5h4.3v-1h-4.3
			v-3.2h4.7v-1.1h-5.9V110z"/>
		<path id="Shape_00000034056223800967649180000006288387100306372496_" class="st0" d="M171.3,110h3.5c2.4,0,3.5-1.1,3.5-2.9
			c0-1.3-0.8-2.1-1.6-2.4v0c0.7-0.3,1.2-0.9,1.2-2c0-1.4-1.1-2.5-2.9-2.5h-3.8V110z M172.5,104.4v-3.1h2.4c1.2,0,1.9,0.5,1.9,1.5
			c0,1-0.6,1.5-1.9,1.5H172.5z M172.5,108.9v-3.6h2.2c1.6,0,2.4,0.4,2.4,1.7c0,1.3-0.9,1.8-2.5,1.8H172.5z"/>
		<path id="Path_00000089571338624566281880000001262861008057982855_" class="st0" d="M180.4,110h5.9v-1.1h-4.7v-3.5h4.3v-1h-4.3
			v-3.2h4.7v-1.1h-5.9V110z"/>
		<path id="Path_00000101781668733609485240000003136210737355883143_" class="st0" d="M190.7,110h1.1v-8.7h3v-1.1h-7.2v1.1h3V110z"
			/>
		<path id="Path_00000152973083300461320290000013257232629440417160_" class="st0" d="M197.7,110h1.4l2.5-8.1h0l2.5,8.1h1.4
			l1.8-9.8h-1.2l-1.4,8.1h0l-2.4-8.1H201l-2.4,8.1h0l-1.5-8.1h-1.2L197.7,110z"/>
		<path id="Path_00000129888182676549584540000011591108398288629694_" class="st0" d="M209.3,110h5.9v-1.1h-4.7v-3.5h4.3v-1h-4.3
			v-3.2h4.7v-1.1h-5.9V110z"/>
		<path id="Path_00000077295281072516849940000001799913032556190649_" class="st0" d="M217.5,110h5.9v-1.1h-4.7v-3.5h4.3v-1h-4.3
			v-3.2h4.7v-1.1h-5.9V110z"/>
		<path id="Path_00000055668151364557836490000011569079515603494795_" class="st0" d="M225.7,110h1.2v-7.9h0l4.5,7.9h1.2v-9.8h-1.1
			v7.9h0l-4.5-7.9h-1.3V110z"/>
		<path id="Shape_00000120538468289822093570000002274673040922200498_" class="st0" d="M238.7,110h1.2v-4h2.2l2.1,4h1.3l-2.2-4.1
			c1.4-0.3,2.4-1.2,2.4-2.8c0-2-1.3-2.9-3.3-2.9h-3.8V110z M239.9,105v-3.7h2.5c1.3,0,2.2,0.5,2.2,1.8s-1,1.8-2.2,1.8H239.9z"/>
		<path id="Path_00000080201210232137927550000001537175549440615344_" class="st0" d="M247.7,110h5.9v-1.1h-4.7v-3.5h4.3v-1h-4.3
			v-3.2h4.7v-1.1h-5.9V110z"/>
		<path id="Shape_00000132801793647774531310000013433502197134887863_" class="st0" d="M254.9,110h1.2l0.7-1.9h4.4l0.7,1.9h1.2
			l-3.5-9.8h-1.1L254.9,110z M257.1,107.1l1.8-5.3h0l1.8,5.3H257.1z"/>
		<path id="Path_00000049929278606854682700000009946082077032518307_" class="st0" d="M264.7,110h5.4v-1.1h-4.3v-8.7h-1.2V110z"/>
		<path id="Path_00000134939276300582528230000009053680993065404605_" class="st0" d="M271.9,110h1.2v-9.8h-1.2V110z"/>
		<path id="Path_00000127005222596010613460000018194728808060547475_" class="st0" d="M275.2,106.6c0.3,2.3,1.6,3.6,3.9,3.6
			c2.2,0,3.4-1.3,3.4-2.8c0-1.5-0.6-2.2-3.3-3c-2.1-0.7-2.4-1-2.4-1.8c0-0.8,0.6-1.5,1.9-1.5c1.5,0,2,0.8,2.2,1.8l1.2-0.3
			c-0.3-1.8-1.7-2.7-3.4-2.7c-2,0-3.1,1.2-3.1,2.6c0,1.4,0.9,2.1,3,2.8c2.4,0.8,2.7,1.2,2.7,2.1c0,0.9-0.7,1.7-2.2,1.7
			c-1.9,0-2.5-0.9-2.8-2.7L275.2,106.6z"/>
		<path id="Path_00000034063817930361430700000017247814482523139489_" class="st0" d="M284.4,110h1.1v-8.2h0l3.4,8.2h0.4l3.4-8.2h0
			v8.2h1.1v-9.8h-1.6l-3.1,7.5h0l-3.1-7.5h-1.6V110z"/>
		<path id="Shape_00000090284861449232581920000007351692888425131144_" class="st0" d="M299,110h1.2l0.7-1.9h4.4l0.7,1.9h1.2
			l-3.5-9.8h-1.1L299,110z M301.2,107.1l1.8-5.3h0l1.8,5.3H301.2z"/>
		<path id="Path_00000142861684664944847010000006117954717139651210_" class="st0" d="M308.8,110h1.2v-7.9h0l4.5,7.9h1.2v-9.8h-1.1
			v7.9h0l-4.5-7.9h-1.3V110z"/>
		<path id="Shape_00000166676089597918546330000006456290153932795792_" class="st0" d="M319.5,108.9v-7.7h1.8
			c1.9,0,3.1,1.3,3.1,3.8c0,2.8-1.2,3.8-3.2,3.8H319.5z M318.3,110h3c2.2,0,4.3-1.2,4.3-4.9c0-3.4-2.1-4.9-4.2-4.9h-3.1V110z"/>
		<path id="Path_00000138567107481213864300000001819824078323675290_" class="st0" d="M0.4,126.6c0.3,2.3,1.6,3.6,3.9,3.6
			c2.2,0,3.4-1.3,3.4-2.8c0-1.5-0.6-2.2-3.3-3c-2.1-0.7-2.4-1-2.4-1.8c0-0.8,0.6-1.5,1.9-1.5c1.5,0,2,0.8,2.2,1.8l1.2-0.3
			C7,120.9,5.6,120,3.9,120c-2,0-3.1,1.2-3.1,2.6c0,1.4,0.9,2.1,3,2.8c2.4,0.8,2.7,1.2,2.7,2.1c0,0.9-0.7,1.7-2.2,1.7
			c-1.9,0-2.5-0.9-2.8-2.7L0.4,126.6z"/>
		<path id="Path_00000084502222211596512120000014985988744722338728_" class="st0" d="M9.4,126.8c0,2.3,1.3,3.4,3.5,3.4
			s3.5-1.1,3.5-3.4v-6.6h-1.1v6.6c0,1.5-0.8,2.4-2.3,2.4c-1.5,0-2.3-0.8-2.3-2.4v-6.5H9.4V126.8z"/>
		<path id="Shape_00000057138222854990434610000010164064840606781832_" class="st0" d="M18.8,130H20v-4h2.2l2.1,4h1.3l-2.2-4.1
			c1.4-0.3,2.4-1.2,2.4-2.8c0-2-1.3-2.9-3.3-2.9h-3.8V130z M20,125v-3.7h2.5c1.3,0,2.2,0.5,2.2,1.8s-1,1.8-2.2,1.8H20z"/>
		<path id="Shape_00000007387605282300775270000009588858333845265539_" class="st0" d="M27.8,130H29v-4h2.2l2.1,4h1.3l-2.2-4.1
			c1.4-0.3,2.4-1.2,2.4-2.8c0-2-1.3-2.9-3.3-2.9h-3.8V130z M29,125v-3.7h2.5c1.3,0,2.2,0.5,2.2,1.8s-1,1.8-2.2,1.8H29z"/>
		<path id="Path_00000029016559061370145260000004791417491210376612_" class="st0" d="M36.8,130h5.9v-1.1H38v-3.5h4.3v-1H38v-3.2
			h4.7v-1.1h-5.9V130z"/>
		<path id="Shape_00000008145655621660571390000001961702134524383889_" class="st0" d="M43.9,130h1.2l0.7-1.9h4.4L51,130h1.2
			l-3.5-9.8h-1.1L43.9,130z M46.2,127.1l1.8-5.3h0l1.8,5.3H46.2z"/>
		<path id="Path_00000148649763738928349160000013072313021558777218_" class="st0" d="M53.7,130h5.4v-1.1h-4.3v-8.7h-1.2V130z"/>
		<path id="Path_00000136410212935887227660000017821688693057145222_" class="st0" d="M61,130h1.2v-9.8H61V130z"/>
		<path id="Path_00000177483978932373575590000014001353077902701441_" class="st0" d="M66.9,130h1.1v-8.7h3v-1.1h-7.2v1.1h3V130z"
			/>
		<path id="Path_00000005957357412834960300000002740068020109884838_" class="st0" d="M74.9,130H76v-4.1l3.2-5.7H78l-2.5,4.6h0
			l-2.5-4.6h-1.3l3.2,5.7V130z"/>
		<path id="Path_00000052796252717645866550000014045950356239641519_" class="st0" d="M83.7,126.6c0.3,2.3,1.6,3.6,3.9,3.6
			c2.2,0,3.4-1.3,3.4-2.8c0-1.5-0.6-2.2-3.3-3c-2.1-0.7-2.4-1-2.4-1.8c0-0.8,0.6-1.5,1.9-1.5c1.5,0,2,0.8,2.2,1.8l1.2-0.3
			c-0.3-1.8-1.7-2.7-3.4-2.7c-2,0-3.1,1.2-3.1,2.6c0,1.4,0.9,2.1,3,2.8c2.4,0.8,2.7,1.2,2.7,2.1c0,0.9-0.7,1.7-2.2,1.7
			c-1.9,0-2.5-0.9-2.8-2.7L83.7,126.6z"/>
		<path id="Path_00000034776424292807636270000007172880790673782662_" class="st0" d="M92.9,130h1.2v-4.5h4.4v4.5h1.1v-9.8h-1.1
			v4.2h-4.4v-4.2h-1.2V130z"/>
		<path id="Path_00000000931104412510261830000000203946364005783428_" class="st0" d="M102.3,130h1.2v-9.8h-1.2V130z"/>
		<path id="Path_00000101062795376188780490000013904460567051673223_" class="st0" d="M106.2,130h1.2v-7.9h0l4.5,7.9h1.2v-9.8H112
			v7.9h0l-4.5-7.9h-1.3V130z"/>
		<path id="Path_00000176003779531715740110000011570595363802506175_" class="st0" d="M115.8,130h5.9v-1.1h-4.7v-3.5h4.3v-1h-4.3
			v-3.2h4.7v-1.1h-5.9V130z"/>
		<path id="Path_00000128462697024520480960000012971081264737345418_" class="st0" d="M123.4,126.6c0.3,2.3,1.6,3.6,3.9,3.6
			c2.2,0,3.4-1.3,3.4-2.8c0-1.5-0.6-2.2-3.3-3c-2.1-0.7-2.4-1-2.4-1.8c0-0.8,0.6-1.5,1.9-1.5c1.5,0,2,0.8,2.2,1.8l1.2-0.3
			c-0.3-1.8-1.7-2.7-3.4-2.7c-2,0-3.1,1.2-3.1,2.6c0,1.4,0.9,2.1,3,2.8c2.4,0.8,2.7,1.2,2.7,2.1c0,0.9-0.7,1.7-2.2,1.7
			c-1.9,0-2.5-0.9-2.8-2.7L123.4,126.6z"/>
		<path id="Path_00000010993809677779689310000003117091821288114065_" class="st0" d="M136.2,130h1.2v-9.8h-1.2V130z"/>
		<path id="Path_00000162351869760749759740000006903369510066295735_" class="st0" d="M140.1,130h1.2v-7.9h0l4.5,7.9h1.2v-9.8h-1.1
			v7.9h0l-4.5-7.9h-1.3V130z"/>
		<path id="Path_00000031912406340959832600000001515996800511451794_" class="st0" d="M155.2,130h1.1v-8.7h3v-1.1h-7.2v1.1h3V130z"
			/>
		<path id="Path_00000095335805461321212870000018277143319454956938_" class="st0" d="M161,130h1.2v-4.5h4.4v4.5h1.1v-9.8h-1.1v4.2
			h-4.4v-4.2H161V130z"/>
		<path id="Path_00000173853068225068827170000011323570345901730189_" class="st0" d="M170.4,130h5.9v-1.1h-4.7v-3.5h4.3v-1h-4.3
			v-3.2h4.7v-1.1h-5.9V130z"/>
		<path id="Path_00000157277754785357553840000008816002977286149281_" class="st0" d="M182.5,127.5c0.1,0.7,0.4,1.2,1,1.5
			c0.3,0.1,0.6,0.2,1,0.2c0.7,0,1.3-0.2,1.6-0.7c0.4-0.5,0.5-1,0.5-1.5c0-0.7-0.2-1.2-0.6-1.6c-0.4-0.4-0.9-0.6-1.5-0.6
			c-0.4,0-0.8,0.1-1.1,0.2s-0.6,0.4-0.8,0.7l-1.1-0.1l0.7-5.3h5.1v1.2h-4.2l-0.4,2.7c0.2-0.2,0.4-0.3,0.6-0.4
			c0.4-0.2,0.8-0.2,1.3-0.2c0.9,0,1.7,0.3,2.3,0.9c0.6,0.6,0.9,1.3,0.9,2.2c0,0.9-0.3,1.7-0.9,2.4c-0.6,0.7-1.5,1.1-2.7,1.1
			c-0.8,0-1.5-0.2-2.1-0.7c-0.6-0.4-1-1.1-1-2.1H182.5z"/>
		<path id="Path_00000020373916998651548520000016555240058448018830_" class="st0" d="M189.9,131.5c1.2-0.1,1.7-0.8,1.7-1.7v-1.4
			h-1.7v1.7h0.7c0,0.4-0.1,0.8-0.7,0.9V131.5z"/>
		<path id="Shape_00000138574946774489411610000013105486551921426350_" class="st0" d="M196.6,120.2c1.3,0,2.2,0.5,2.7,1.6
			c0.4,0.8,0.7,1.9,0.7,3.3c0,1.3-0.2,2.4-0.6,3.3c-0.6,1.2-1.5,1.9-2.8,1.9c-1.2,0-2.1-0.5-2.6-1.5c-0.5-0.9-0.7-2-0.7-3.4
			c0-1.1,0.1-2.1,0.4-2.9C194.3,121,195.2,120.2,196.6,120.2z M196.6,129.2c0.6,0,1.1-0.3,1.5-0.8c0.4-0.6,0.6-1.6,0.6-3.2
			c0-1.1-0.1-2-0.4-2.7s-0.8-1.1-1.6-1.1c-0.7,0-1.3,0.3-1.6,1c-0.3,0.7-0.5,1.7-0.5,3c0,1,0.1,1.8,0.3,2.4
			C195.3,128.7,195.8,129.2,196.6,129.2z"/>
		<path id="Shape_00000178903368437175404720000006892156204721925760_" class="st0" d="M204.4,120.2c1.3,0,2.2,0.5,2.7,1.6
			c0.4,0.8,0.7,1.9,0.7,3.3c0,1.3-0.2,2.4-0.6,3.3c-0.6,1.2-1.5,1.9-2.8,1.9c-1.2,0-2.1-0.5-2.6-1.5c-0.5-0.9-0.7-2-0.7-3.4
			c0-1.1,0.1-2.1,0.4-2.9C202,121,203,120.2,204.4,120.2z M204.4,129.2c0.6,0,1.1-0.3,1.5-0.8c0.4-0.6,0.6-1.6,0.6-3.2
			c0-1.1-0.1-2-0.4-2.7s-0.8-1.1-1.6-1.1c-0.7,0-1.3,0.3-1.6,1c-0.3,0.7-0.5,1.7-0.5,3c0,1,0.1,1.8,0.3,2.4
			C203.1,128.7,203.6,129.2,204.4,129.2z"/>
		<path id="Shape_00000115507138735042604240000008170469943574014085_" class="st0" d="M212.2,120.2c1.3,0,2.2,0.5,2.7,1.6
			c0.4,0.8,0.7,1.9,0.7,3.3c0,1.3-0.2,2.4-0.6,3.3c-0.6,1.2-1.5,1.9-2.8,1.9c-1.2,0-2.1-0.5-2.6-1.5c-0.5-0.9-0.7-2-0.7-3.4
			c0-1.1,0.1-2.1,0.4-2.9C209.8,121,210.8,120.2,212.2,120.2z M212.2,129.2c0.6,0,1.1-0.3,1.5-0.8c0.4-0.6,0.6-1.6,0.6-3.2
			c0-1.1-0.1-2-0.4-2.7s-0.8-1.1-1.6-1.1c-0.7,0-1.3,0.3-1.6,1c-0.3,0.7-0.5,1.7-0.5,3c0,1,0.1,1.8,0.3,2.4
			C210.8,128.7,211.4,129.2,212.2,129.2z"/>
		<path id="Shape_00000049936837074323223850000000546767865902455947_" class="st0" d="M221,130h1.2v-4h2.2l2.1,4h1.3l-2.2-4.1
			c1.4-0.3,2.4-1.2,2.4-2.8c0-2-1.3-2.9-3.3-2.9H221V130z M222.2,125v-3.7h2.5c1.3,0,2.2,0.5,2.2,1.8s-1,1.8-2.2,1.8H222.2z"/>
		<path id="Shape_00000032609232952107547400000011016971777213336740_" class="st0" d="M229,130h1.2l0.7-1.9h4.4l0.7,1.9h1.2
			l-3.5-9.8h-1.1L229,130z M231.2,127.1l1.8-5.3h0l1.8,5.3H231.2z"/>
		<path id="Shape_00000054972286791446475120000009920229502416482985_" class="st0" d="M238.8,130h3.5c2.4,0,3.5-1.1,3.5-2.9
			c0-1.3-0.8-2.1-1.6-2.4v0c0.7-0.3,1.2-0.9,1.2-2c0-1.4-1.1-2.5-2.9-2.5h-3.8V130z M240,124.4v-3.1h2.4c1.2,0,1.9,0.5,1.9,1.5
			c0,1-0.6,1.5-1.9,1.5H240z M240,128.9v-3.6h2.2c1.6,0,2.4,0.4,2.4,1.7c0,1.3-0.9,1.8-2.5,1.8H240z"/>
		<path id="Shape_00000090290014508759254120000015725925108820905629_" class="st0" d="M247.9,130h3.5c2.4,0,3.5-1.1,3.5-2.9
			c0-1.3-0.8-2.1-1.6-2.4v0c0.7-0.3,1.2-0.9,1.2-2c0-1.4-1.1-2.5-2.9-2.5h-3.8V130z M249,124.4v-3.1h2.4c1.2,0,1.9,0.5,1.9,1.5
			c0,1-0.6,1.5-1.9,1.5H249z M249,128.9v-3.6h2.2c1.6,0,2.4,0.4,2.4,1.7c0,1.3-0.9,1.8-2.5,1.8H249z"/>
		<path id="Path_00000109749131568736521200000000601396354258073218_" class="st0" d="M257,130h1.2v-9.8H257V130z"/>
		<path id="Path_00000083085291987875823820000013310092916045126794_" class="st0" d="M263,130h1.1v-8.7h3v-1.1h-7.2v1.1h3V130z"/>
		<path id="Path_00000097489875824973203720000011495575555070412435_" class="st0" d="M1,150h1.1v-8.2h0l3.4,8.2h0.4l3.4-8.2h0v8.2
			h1.1v-9.8H8.8l-3.1,7.5h0l-3.1-7.5H1V150z"/>
		<path id="Shape_00000109722574714400639180000017894051052042222505_" class="st0" d="M12,150h1.2l0.7-1.9h4.4L19,150h1.2
			l-3.5-9.8h-1.1L12,150z M14.3,147.1l1.8-5.3h0l1.8,5.3H14.3z"/>
		<path id="Path_00000130635942652996047480000012283706317836739222_" class="st0" d="M21.2,146.6c0.3,2.3,1.6,3.6,3.9,3.6
			c2.2,0,3.4-1.3,3.4-2.8c0-1.5-0.6-2.2-3.3-3c-2.1-0.7-2.4-1.1-2.4-1.8c0-0.8,0.6-1.5,1.9-1.5c1.5,0,2,0.8,2.2,1.8l1.2-0.3
			c-0.3-1.8-1.7-2.7-3.4-2.7c-2,0-3.1,1.2-3.1,2.6c0,1.4,0.9,2.1,3,2.8c2.4,0.8,2.7,1.2,2.7,2.1c0,0.9-0.7,1.7-2.2,1.7
			c-1.9,0-2.5-0.9-2.8-2.7L21.2,146.6z"/>
		<path id="Path_00000034050955141309440450000008154783341380031370_" class="st0" d="M32.5,150h1.1v-8.7h3v-1.1h-7.2v1.1h3V150z"
			/>
		<path id="Path_00000135666709459354634090000008755805856252319933_" class="st0" d="M38.3,150h5.9v-1.1h-4.7v-3.5h4.3v-1h-4.3
			v-3.2h4.7v-1.1h-5.9V150z"/>
		<path id="Shape_00000115491362855759067750000010294560527982557581_" class="st0" d="M46.5,150h1.2v-4h2.2l2.1,4h1.3l-2.2-4.1
			c1.4-0.3,2.4-1.2,2.4-2.8c0-2-1.3-2.9-3.3-2.9h-3.8V150z M47.7,145v-3.7h2.5c1.3,0,2.2,0.5,2.2,1.8s-1,1.8-2.2,1.8H47.7z"/>
		<path id="Shape_00000109000675681544600160000017710819664639039913_" class="st0" d="M55.6,150h1.2v-3.8h2.6c1.9,0,3.2-1.1,3.2-3
			c0-2-1.4-3-3.3-3h-3.8V150z M56.7,145.2v-3.9h2.5c1.1,0,2.2,0.5,2.2,2c0,1.3-1,1.9-2.1,1.9H56.7z"/>
		<path id="Path_00000173148910734139743680000003068918002699536532_" class="st0" d="M64.3,150h1.2v-9.8h-1.2V150z"/>
		<path id="Path_00000108291269900977834480000000276764913348326040_" class="st0" d="M68.2,150h5.9v-1.1h-4.7v-3.5h4.3v-1h-4.3
			v-3.2h4.7v-1.1h-5.9V150z"/>
		<path id="Path_00000151514433448377631760000016746153189907940749_" class="st0" d="M80,141.1c1.7,0,2.3,1.2,2.5,2.5l1.2-0.2
			c-0.3-2-1.6-3.4-3.7-3.4c-2.1,0-4.2,1.7-4.2,5c0,3.8,2,5.2,4.2,5.2c2.2,0,3.5-1.4,3.7-3.7l-1.2-0.2c-0.2,1.5-0.7,2.8-2.5,2.8
			c-1.7,0-2.9-1.3-2.9-4.1C77,142.3,78.4,141.1,80,141.1z"/>
		<path id="Path_00000100375622709126061490000017941632124281527695_" class="st0" d="M85.7,150h5.9v-1.1h-4.7v-3.5h4.3v-1h-4.3
			v-3.2h4.7v-1.1h-5.9V150z"/>
		<path id="Path_00000119098609283501759840000016929126653654207108_" class="st0" d="M93.3,146.6c0.3,2.3,1.6,3.6,3.9,3.6
			c2.2,0,3.4-1.3,3.4-2.8c0-1.5-0.6-2.2-3.3-3c-2.1-0.7-2.4-1.1-2.4-1.8c0-0.8,0.6-1.5,1.9-1.5c1.5,0,2,0.8,2.2,1.8l1.2-0.3
			c-0.3-1.8-1.7-2.7-3.4-2.7c-2,0-3.1,1.2-3.1,2.6c0,1.4,0.9,2.1,3,2.8c2.4,0.8,2.7,1.2,2.7,2.1c0,0.9-0.7,1.7-2.2,1.7
			c-1.9,0-2.5-0.9-2.8-2.7L93.3,146.6z"/>
		<path id="Path_00000075853467132838713790000010577632096713278626_" class="st0" d="M108.1,150h1.1v-8.7h3v-1.1H105v1.1h3V150z"
			/>
		<path id="Path_00000079485815338939917930000014776887594283788989_" class="st0" d="M113.9,150h1.2v-4.5h4.4v4.5h1.1v-9.8h-1.1
			v4.2h-4.4v-4.2h-1.2V150z"/>
		<path id="Path_00000140707276141186369910000013108611538933802670_" class="st0" d="M123.3,150h5.9v-1.1h-4.7v-3.5h4.3v-1h-4.3
			v-3.2h4.7v-1.1h-5.9V150z"/>
		<path id="Path_00000145750360382317346810000002529385549692543647_" class="st0" d="M133.6,150h1.1v-4.1l3.2-5.7h-1.3l-2.5,4.5h0
			l-2.5-4.5h-1.3l3.2,5.7V150z"/>
		<path id="Path_00000107557968197473115270000007629886147566679193_" class="st0" d="M146.6,141.1c1.7,0,2.3,1.2,2.5,2.5l1.2-0.2
			c-0.3-2-1.6-3.4-3.7-3.4c-2.1,0-4.2,1.7-4.2,5c0,3.8,2,5.2,4.2,5.2c2.2,0,3.5-1.4,3.7-3.7l-1.2-0.2c-0.2,1.5-0.7,2.8-2.5,2.8
			c-1.7,0-2.9-1.3-2.9-4.1C143.7,142.3,145,141.1,146.6,141.1z"/>
		<path id="Shape_00000120552610064786614250000004088540536735390631_" class="st0" d="M152.3,150h1.2v-4h2.2l2.1,4h1.3l-2.2-4.1
			c1.4-0.3,2.4-1.2,2.4-2.8c0-2-1.3-2.9-3.3-2.9h-3.8V150z M153.5,145v-3.7h2.5c1.3,0,2.2,0.5,2.2,1.8s-1,1.8-2.2,1.8H153.5z"/>
		<path id="Path_00000026865614662659460240000017603151745943980470_" class="st0" d="M161.3,150h5.9v-1.1h-4.7v-3.5h4.3v-1h-4.3
			v-3.2h4.7v-1.1h-5.9V150z"/>
		<path id="Shape_00000090271604502132513680000000847425035835664023_" class="st0" d="M168.5,150h1.2l0.7-1.9h4.4l0.7,1.9h1.2
			l-3.5-9.8H172L168.5,150z M170.7,147.1l1.8-5.3h0l1.8,5.3H170.7z"/>
		<path id="Path_00000036967094653366487020000000166370681292221079_" class="st0" d="M180.3,150h1.1v-8.7h3v-1.1h-7.2v1.1h3V150z"
			/>
		<path id="Path_00000174579412217128493660000005305512230127155388_" class="st0" d="M186.2,150h5.9v-1.1h-4.7v-3.5h4.3v-1h-4.3
			v-3.2h4.7v-1.1h-5.9V150z"/>
		<path id="Shape_00000051351908371679458240000004748714031712854955_" class="st0" d="M195.6,148.9v-7.7h1.8
			c1.9,0,3.1,1.3,3.1,3.8c0,2.8-1.2,3.9-3.2,3.9H195.6z M194.4,150h3c2.2,0,4.3-1.2,4.3-4.9c0-3.4-2.1-4.9-4.2-4.9h-3.1V150z"/>
		<path id="Path_00000032646298080798744340000001354383155224554881_" class="st0" d="M207.2,150h1.2v-4.2h4.4v-1h-4.4v-3.5h4.7
			v-1.1h-5.9V150z"/>
		<path id="Shape_00000183928447301308939670000008187710542326785456_" class="st0" d="M218.8,149.1c-1.7,0-2.9-1.3-2.9-4.1
			c0-2.7,1.4-3.9,2.9-3.9c1.5,0,2.9,1.3,2.9,4C221.6,147.9,220.4,149.1,218.8,149.1z M218.8,150.2c2.1,0,4.1-1.4,4.1-5.1
			c0-3.4-2-5.1-4.1-5.1c-2.1,0-4.2,1.7-4.2,5C214.6,148.8,216.7,150.2,218.8,150.2z"/>
		<path id="Shape_00000167386820486608571170000004000927623614117814_" class="st0" d="M225,150h1.2v-4h2.2l2.1,4h1.3l-2.2-4.1
			c1.4-0.3,2.4-1.2,2.4-2.8c0-2-1.3-2.9-3.3-2.9H225V150z M226.1,145v-3.7h2.5c1.3,0,2.2,0.5,2.2,1.8s-1,1.8-2.2,1.8H226.1z"/>
		<path id="Shape_00000178165734194073390200000015157841932967611022_" class="st0" d="M237.5,150h1.2v-3.8h2.6
			c1.9,0,3.2-1.1,3.2-3c0-2-1.4-3-3.3-3h-3.8V150z M238.6,145.2v-3.9h2.5c1.1,0,2.2,0.5,2.2,2c0,1.3-1,1.9-2.1,1.9H238.6z"/>
		<path id="Shape_00000134942098092208887270000011252944236139801229_" class="st0" d="M245.1,150h1.2l0.7-1.9h4.4l0.7,1.9h1.2
			l-3.5-9.8h-1.1L245.1,150z M247.3,147.1l1.8-5.3h0l1.8,5.3H247.3z"/>
		<path id="Path_00000050629248280743669690000011166681936092733358_" class="st0" d="M258.5,141.1c1.7,0,2.3,1.2,2.5,2.5l1.2-0.2
			c-0.3-2-1.6-3.4-3.7-3.4c-2.1,0-4.2,1.7-4.2,5c0,3.8,2,5.2,4.2,5.2c2.2,0,3.5-1.4,3.7-3.7l-1.2-0.2c-0.2,1.5-0.7,2.8-2.5,2.8
			c-1.7,0-2.9-1.3-2.9-4.1C255.6,142.3,256.9,141.1,258.5,141.1z"/>
		<path id="Path_00000067214340039081038720000005842803033263597470_" class="st0" d="M264.2,150h5.9v-1.1h-4.7v-3.5h4.3v-1h-4.3
			v-3.2h4.7v-1.1h-5.9V150z"/>
		<path id="Path_00000048484198734671276260000014417716082722385539_" class="st0" d="M272.4,150h1.1v-8.2h0l3.4,8.2h0.4l3.4-8.2h0
			v8.2h1.1v-9.8h-1.6l-3.1,7.5h0l-3.1-7.5h-1.6V150z"/>
		<path id="Shape_00000111908333889391276620000003434149614988764312_" class="st0" d="M283.5,150h1.2l0.7-1.9h4.4l0.7,1.9h1.2
			l-3.5-9.8H287L283.5,150z M285.7,147.1l1.8-5.3h0l1.8,5.3H285.7z"/>
		<path id="Path_00000173139667535395429180000011980750968332262318_" class="st0" d="M293.1,150h1.2v-3.4l1.1-1.3h0l3.3,4.6h1.4
			l-4-5.5l3.6-4.3h-1.5l-4,4.8h0v-4.8h-1.2V150z"/>
		<path id="Path_00000016069447605173000690000015076413108207498635_" class="st0" d="M301.5,150h5.9v-1.1h-4.7v-3.5h4.3v-1h-4.3
			v-3.2h4.7v-1.1h-5.9V150z"/>
		<path id="Shape_00000038383425134384393510000006703077054940140698_" class="st0" d="M309.8,150h1.2v-4h2.2l2.1,4h1.3l-2.2-4.1
			c1.4-0.3,2.4-1.2,2.4-2.8c0-2-1.3-2.9-3.3-2.9h-3.8V150z M310.9,145v-3.7h2.5c1.3,0,2.2,0.5,2.2,1.8s-1,1.8-2.2,1.8H310.9z"/>
		<path id="Path_00000165949096806982337010000008926971222438407842_" class="st0" d="M318.8,150h1.7v-1.7h-1.7V150z"/>
		<path id="Path_00000052072516370819883740000003770853982711901877_" class="st0" d="M4.6,181.1c1.7,0,2.3,1.2,2.5,2.5l1.2-0.2
			c-0.3-2-1.6-3.4-3.7-3.4c-2.1,0-4.2,1.7-4.2,5c0,3.8,2,5.2,4.2,5.2c2.2,0,3.5-1.4,3.7-3.7l-1.2-0.2c-0.2,1.5-0.7,2.8-2.5,2.8
			c-1.7,0-2.9-1.3-2.9-4.1C1.7,182.3,3,181.1,4.6,181.1z"/>
		<path id="Path_00000003811036910949623850000015362613753972877952_" class="st0" d="M10.3,190h5.4v-1.1h-4.3v-8.7h-1.2V190z"/>
		<path id="Path_00000075158475081978214920000002263563140701823662_" class="st0" d="M17.6,190h1.2v-9.8h-1.2V190z"/>
		<path id="Path_00000029014259941253260850000017799659958446109836_" class="st0" d="M21.4,190h5.9v-1.1h-4.7v-3.5H27v-1h-4.3
			v-3.2h4.7v-1.1h-5.9V190z"/>
		<path id="Path_00000183963533545937093590000004593062936564535460_" class="st0" d="M29.7,190h1.2v-7.9h0l4.5,7.9h1.2v-9.8h-1.1
			v7.9h0l-4.5-7.9h-1.3V190z"/>
		<path id="Path_00000095325568765012187440000015359314638103553695_" class="st0" d="M41.3,190h1.1v-8.7h3v-1.1h-7.2v1.1h3V190z"
			/>
		<path id="Path_00000008836026118473493840000013647000881672527801_" class="st0" d="M46.5,186.6c0.3,2.3,1.6,3.6,3.9,3.6
			c2.2,0,3.4-1.3,3.4-2.8c0-1.5-0.6-2.2-3.3-3c-2.1-0.7-2.4-1.1-2.4-1.8c0-0.8,0.6-1.5,1.9-1.5c1.5,0,2,0.8,2.2,1.8l1.2-0.3
			c-0.3-1.8-1.7-2.7-3.4-2.7c-2,0-3.1,1.2-3.1,2.6c0,1.4,0.9,2.1,3,2.8c2.4,0.8,2.7,1.2,2.7,2.1c0,0.9-0.7,1.7-2.2,1.7
			c-1.9,0-2.5-0.9-2.8-2.7L46.5,186.6z"/>
		<path id="Shape_00000025408424919384013180000003143767640338684596_" class="st0" d="M56,182.8h1.4v1.5H56V182.8z M56,188.5h1.4
			v1.5H56V188.5z"/>
		<path id="Path_00000001646081715987992250000011800186344554621115_" class="st0" d="M63.1,190h5.4v-1.1h-4.3v-8.7h-1.2V190z"/>
		<path id="Shape_00000021814427824759395140000013883025263226761347_" class="st0" d="M73.9,189.1c-1.7,0-2.9-1.3-2.9-4.1
			c0-2.7,1.4-3.9,2.9-3.9c1.5,0,2.9,1.3,2.9,4C76.8,187.9,75.5,189.1,73.9,189.1z M73.9,190.2c2.1,0,4.1-1.4,4.1-5.1
			c0-3.4-2-5.1-4.1-5.1c-2.1,0-4.2,1.7-4.2,5C69.7,188.8,71.8,190.2,73.9,190.2z"/>
		<path id="Path_00000039096505830445396810000009671088451674040970_" class="st0" d="M79.9,186.8c0,2.3,1.3,3.4,3.5,3.4
			c2.2,0,3.5-1.1,3.5-3.4v-6.6h-1.1v6.6c0,1.5-0.8,2.4-2.3,2.4c-1.5,0-2.3-0.8-2.3-2.4v-6.5h-1.2V186.8z"/>
		<path id="Path_00000015331871399606673690000013065361111953721501_" class="st0" d="M89.4,190h1.2v-9.8h-1.2V190z"/>
		<path id="Path_00000044175193256903841780000003265180030533933443_" class="st0" d="M92.6,186.6c0.3,2.3,1.6,3.6,3.9,3.6
			c2.2,0,3.4-1.3,3.4-2.8c0-1.5-0.6-2.2-3.3-3c-2.1-0.7-2.4-1.1-2.4-1.8c0-0.8,0.6-1.5,1.9-1.5c1.5,0,2,0.8,2.2,1.8l1.2-0.3
			c-0.3-1.8-1.7-2.7-3.4-2.7c-2,0-3.1,1.2-3.1,2.6c0,1.4,0.9,2.1,3,2.8c2.4,0.8,2.7,1.2,2.7,2.1c0,0.9-0.7,1.7-2.2,1.7
			c-1.9,0-2.5-0.9-2.8-2.7L92.6,186.6z"/>
		<path id="Path_00000112602340129374907160000002495032122555166896_" class="st0" d="M107.8,190h1.4l3.4-9.8h-1.2l-2.8,8.4h0
			l-2.9-8.4h-1.2L107.8,190z"/>
		<path id="Path_00000141432627792773533950000013645297161974908095_" class="st0" d="M113.9,186.8c0,2.3,1.3,3.4,3.5,3.4
			s3.5-1.1,3.5-3.4v-6.6h-1.1v6.6c0,1.5-0.8,2.4-2.3,2.4c-1.5,0-2.3-0.8-2.3-2.4v-6.5h-1.2V186.8z"/>
		<path id="Path_00000011012348531571653870000010115711468855973259_" class="st0" d="M123.4,190h1.2v-9.8h-1.2V190z"/>
		<path id="Path_00000122722964378240641870000010880491466530623132_" class="st0" d="M129.4,190h1.1v-8.7h3v-1.1h-7.2v1.1h3V190z"
			/>
		<path id="Path_00000106126401902881363050000011198495163394497182_" class="st0" d="M137.3,190h1.1v-8.7h3v-1.1h-7.2v1.1h3V190z"
			/>
		<path id="Shape_00000028287556980200356950000015610767582512363425_" class="st0" d="M146.7,189.1c-1.7,0-2.9-1.3-2.9-4.1
			c0-2.7,1.4-3.9,2.9-3.9c1.5,0,2.9,1.3,2.9,4C149.6,187.9,148.3,189.1,146.7,189.1z M146.7,190.2c2.1,0,4.1-1.4,4.1-5.1
			c0-3.4-2-5.1-4.1-5.1c-2.1,0-4.2,1.7-4.2,5C142.6,188.8,144.6,190.2,146.7,190.2z"/>
		<path id="Path_00000163779334176819286780000007812474069400371368_" class="st0" d="M152.9,190h1.2v-7.9h0l4.5,7.9h1.2v-9.8h-1.1
			v7.9h0l-4.5-7.9h-1.3V190z"/>
		<path id="Path_00000121980179562785491410000009416501945794217907_" class="st0" d="M162.5,191.5c1.2-0.1,1.7-0.8,1.7-1.7v-1.4
			h-1.7v1.7h0.7c0,0.4-0.1,0.8-0.7,0.9V191.5z"/>
		<path id="Path_00000161632572180821041090000005910962337545130880_" class="st0" d="M170.3,190h1.1v-8.2h0l3.4,8.2h0.4l3.4-8.2h0
			v8.2h1.1v-9.8h-1.6l-3.1,7.5h0l-3.1-7.5h-1.6V190z"/>
		<path id="Shape_00000177441872990838905880000016605831003464384912_" class="st0" d="M186,189.1c-1.7,0-2.9-1.3-2.9-4.1
			c0-2.7,1.4-3.9,2.9-3.9c1.5,0,2.9,1.3,2.9,4C188.9,187.9,187.6,189.1,186,189.1z M186,190.2c2.1,0,4.1-1.4,4.1-5.1
			c0-3.4-2-5.1-4.1-5.1c-2.1,0-4.2,1.7-4.2,5C181.8,188.8,183.9,190.2,186,190.2z"/>
		<path id="Path_00000147907207788217951360000013094314038950299062_" class="st0" d="M192.2,190h1.2v-7.9h0l4.5,7.9h1.2v-9.8h-1.1
			v7.9h0l-4.5-7.9h-1.3V190z"/>
		<path id="Path_00000082342190075743466620000007372065108475940776_" class="st0" d="M205.3,181.1c1.7,0,2.3,1.2,2.5,2.5l1.2-0.2
			c-0.3-2-1.6-3.4-3.7-3.4c-2.1,0-4.2,1.7-4.2,5c0,3.8,2,5.2,4.2,5.2c2.2,0,3.5-1.4,3.7-3.7l-1.2-0.2c-0.2,1.5-0.7,2.8-2.5,2.8
			c-1.7,0-2.9-1.3-2.9-4.1C202.4,182.3,203.8,181.1,205.3,181.1z"/>
		<path id="Path_00000101074136580982865820000012493340576275001765_" class="st0" d="M211.1,190h5.4v-1.1h-4.3v-8.7h-1.2V190z"/>
		<path id="Path_00000068654935321294167370000017199230561823447694_" class="st0" d="M218.3,190h5.9v-1.1h-4.7v-3.5h4.3v-1h-4.3
			v-3.2h4.7v-1.1h-5.9V190z"/>
		<path id="Shape_00000127008861893066057140000016495347682337896855_" class="st0" d="M226.5,190h1.2v-4h2.2l2.1,4h1.3l-2.2-4.1
			c1.4-0.3,2.4-1.2,2.4-2.8c0-2-1.3-2.9-3.3-2.9h-3.8V190z M227.6,185v-3.7h2.5c1.3,0,2.2,0.5,2.2,1.8s-1,1.8-2.2,1.8H227.6z"/>
		<path id="Path_00000050643201447824594240000014738137281127990413_" class="st0" d="M235.5,191.5c1.2-0.1,1.7-0.8,1.7-1.7v-1.4
			h-1.7v1.7h0.7c0,0.4-0.1,0.8-0.7,0.9V191.5z"/>
		<path id="Path_00000142862849010308711800000013790680462715303849_" class="st0" d="M243.3,190h1.2v-7.9h0l4.5,7.9h1.2v-9.8H249
			v7.9h0l-4.5-7.9h-1.3V190z"/>
		<path id="Path_00000057851607385341001300000000458282067970088639_" class="st0" d="M252.9,190h1.2v-9.8h-1.2V190z"/>
		<path id="Path_00000016795139381465235440000012503241046845103510_" class="st0" d="M256.7,190h1.2v-3.4l1.1-1.3h0l3.3,4.6h1.4
			l-4-5.5l3.6-4.3h-1.5l-4,4.8h0v-4.8h-1.2V190z"/>
		<path id="Path_00000112606256938812301640000002047392069945797249_" class="st0" d="M265.1,190h5.9v-1.1h-4.7v-3.5h4.3v-1h-4.3
			v-3.2h4.7v-1.1h-5.9V190z"/>
		<path id="Path_00000119822919644033564980000001912830826445503880_" class="st0" d="M273.3,191.5c1.2-0.1,1.7-0.8,1.7-1.7v-1.4
			h-1.7v1.7h0.7c0,0.4-0.1,0.8-0.7,0.9V191.5z"/>
		<path id="Shape_00000086651678963341388600000009340973164913855632_" class="st0" d="M280,190h1.2l0.7-1.9h4.4l0.7,1.9h1.2
			l-3.5-9.8h-1.1L280,190z M282.3,187.1l1.8-5.3h0l1.8,5.3H282.3z"/>
		<path id="Path_00000082354430200816095910000011412904044345647008_" class="st0" d="M289.8,190h1.1v-8.2h0l3.4,8.2h0.4l3.4-8.2h0
			v8.2h1.1v-9.8h-1.6l-3.1,7.5h0l-3.1-7.5h-1.6V190z"/>
		<path id="Path_00000154389786789444712930000006684146835154409127_" class="st0" d="M302,190h1.2v-9.8H302V190z"/>
		<path id="Path_00000121251137520025954120000009688124723223443348_" class="st0" d="M305.3,186.6c0.3,2.3,1.6,3.6,3.9,3.6
			c2.2,0,3.4-1.3,3.4-2.8c0-1.5-0.6-2.2-3.3-3c-2.1-0.7-2.4-1.1-2.4-1.8c0-0.8,0.6-1.5,1.9-1.5c1.5,0,2,0.8,2.2,1.8l1.2-0.3
			c-0.3-1.8-1.7-2.7-3.4-2.7c-2,0-3.1,1.2-3.1,2.6c0,1.4,0.9,2.1,3,2.8c2.4,0.8,2.7,1.2,2.7,2.1c0,0.9-0.7,1.7-2.2,1.7
			c-1.9,0-2.5-0.9-2.8-2.7L305.3,186.6z"/>
		<path id="Shape_00000117635290564665687120000013483833464008189848_" class="st0" d="M1,210h1.2v-3.8h2.6c1.9,0,3.2-1.1,3.2-3
			c0-2-1.4-3-3.3-3H1V210z M2.1,205.2v-3.9h2.5c1.1,0,2.2,0.5,2.2,2c0,1.3-1,1.9-2.1,1.9H2.1z"/>
		<path id="Shape_00000125569711003160349480000008476248200099884448_" class="st0" d="M8.6,210h1.2l0.7-1.9h4.4l0.7,1.9h1.2
			l-3.5-9.8h-1.1L8.6,210z M10.8,207.1l1.8-5.3h0l1.8,5.3H10.8z"/>
		<path id="Shape_00000135669834440389830440000005108376927962946197_" class="st0" d="M18.4,210h1.2v-4h2.2l2.1,4h1.3l-2.2-4.1
			c1.4-0.3,2.4-1.2,2.4-2.8c0-2-1.3-2.9-3.3-2.9h-3.8V210z M19.5,205v-3.7H22c1.3,0,2.2,0.5,2.2,1.8s-1,1.8-2.2,1.8H19.5z"/>
		<path id="Path_00000111897312729644279830000000145829920738971550_" class="st0" d="M27.5,210h1.2v-9.8h-1.2V210z"/>
		<path id="Path_00000068636761409758665690000001611249196887196320_" class="st0" d="M30.7,206.6c0.3,2.3,1.6,3.6,3.9,3.6
			c2.2,0,3.4-1.3,3.4-2.8c0-1.5-0.6-2.2-3.3-3c-2.1-0.7-2.4-1.1-2.4-1.8c0-0.8,0.6-1.5,1.9-1.5c1.5,0,2,0.8,2.2,1.8l1.2-0.3
			c-0.3-1.8-1.7-2.7-3.4-2.7c-2,0-3.1,1.2-3.1,2.6c0,1.4,0.9,2.1,3,2.8c2.4,0.8,2.7,1.2,2.7,2.1c0,0.9-0.7,1.7-2.2,1.7
			c-1.9,0-2.5-0.9-2.8-2.7L30.7,206.6z"/>
	</g>
	<g id="DESIGN" transform="translate(23.680000, 270.649000)">
		<path id="Shape_00000026849663278328419370000001284110297819998356_" class="st0" d="M0,0.4h7c3.1,0,5.4,0.6,7,1.8
			s2.4,3.1,2.4,5.7V8c0,2.6-0.8,4.5-2.3,5.6s-3.8,1.7-6.8,1.7H0V0.4z M6.8,3.4H3.5v8.9H7c1.4,0,2.5-0.1,3.3-0.4
			c0.8-0.3,1.4-0.7,1.8-1.4c0.4-0.6,0.6-1.5,0.6-2.6V7.9c0-1.1-0.2-1.9-0.6-2.6c-0.4-0.7-1-1.1-1.9-1.4S8.2,3.4,6.8,3.4z"/>
		<polygon id="Path_00000034811956854697670390000008802001626412200365_" class="st0" points="18.1,15.4 18.1,0.4 32.4,0.4 
			32.4,3.3 21.5,3.3 21.5,6.4 30.7,6.4 30.7,9.3 21.5,9.3 21.5,12.3 32.9,12.3 32.9,15.4 		"/>
		<path id="Path_00000029014275521055896020000004841191736350901416_" class="st0" d="M42.2,15.8c-2,0-3.6-0.2-4.8-0.6
			c-1.2-0.4-2.2-1-2.9-1.9s-1.1-1.9-1.4-3.3h3.8c0.3,1,0.8,1.7,1.8,2.1c0.9,0.4,2.1,0.6,3.6,0.6c1.4,0,2.4-0.1,3-0.4
			c0.6-0.3,1-0.7,1-1.3c0-0.5-0.2-0.8-0.5-1c-0.3-0.2-0.9-0.4-1.7-0.5c-0.8-0.1-2-0.2-3.5-0.3c-1.5-0.1-2.8-0.3-3.8-0.6
			c-1-0.3-1.7-0.8-2.2-1.4c-0.5-0.6-0.7-1.5-0.7-2.5c0-1.4,0.6-2.6,1.8-3.5C36.9,0.4,38.7,0,41.2,0c2.6,0,4.6,0.4,6,1.2
			c1.4,0.8,2.3,2.1,2.7,4h-3.8c-0.2-1-0.7-1.6-1.6-1.9s-2-0.4-3.4-0.4c-1.4,0-2.4,0.2-2.9,0.5s-0.8,0.7-0.8,1.2
			c0,0.3,0.1,0.5,0.2,0.7c0.1,0.2,0.3,0.3,0.7,0.5S39,6,39.6,6.1c0.6,0.1,1.5,0.1,2.5,0.2c1.8,0.1,3.3,0.3,4.4,0.6
			c1.1,0.3,2,0.8,2.5,1.4c0.5,0.6,0.8,1.4,0.8,2.5c0,1.6-0.6,2.8-1.8,3.7C46.7,15.3,44.8,15.8,42.2,15.8z"/>
		<polygon id="Path_00000153695785043811394040000008698922615577554053_" class="st0" points="50.9,12.1 55,12.1 55,3.5 50.9,3.5 
			50.9,0.4 62.4,0.4 62.4,3.5 58.3,3.5 58.3,12.1 62.4,12.1 62.4,15.4 50.9,15.4 		"/>
		<path id="Path_00000060005812272980252740000008772997788175147966_" class="st0" d="M71.3,15.8c-1.6,0-3.1-0.3-4.3-0.8
			c-1.2-0.5-2.2-1.4-2.9-2.5c-0.7-1.1-1-2.6-1-4.4V8c0-1.7,0.4-3.1,1.2-4.3s1.8-2.1,3.2-2.7S70.3,0,72,0c2.4,0,4.4,0.4,5.9,1.3
			c1.5,0.9,2.5,2.3,2.8,4.3h-4c-0.2-0.8-0.6-1.4-1.4-1.8s-1.8-0.6-3.2-0.6c-1.7,0-3.1,0.4-4,1.2s-1.4,2-1.4,3.7v0
			c0,3.1,1.8,4.7,5.3,4.7c1.6,0,2.9-0.2,3.8-0.7s1.5-1.1,1.7-1.9h-5.9V7.3h9.3v8.1h-2.9l-0.2-4.1c-0.2,1.5-0.9,2.6-2,3.4
			C74.7,15.4,73.2,15.8,71.3,15.8z"/>
		<polygon id="Path_00000049904876121209400360000008220105101844164791_" class="st0" points="83.1,15.4 83.1,0.4 86.6,0.4 
			95.7,10.5 95.8,10.7 95.8,0.4 99.2,0.4 99.2,15.4 95.8,15.4 86.6,5.1 86.5,4.9 86.5,15.4 		"/>
	</g>
</g>
</svg>
