<?xml version="1.0" encoding="UTF-8"?>
<svg width="25px" height="20px" viewBox="0 0 25 20" version="1.1" xmlns="http://www.w3.org/2000/svg" xmlns:xlink="http://www.w3.org/1999/xlink">
    <title>Vector</title>
    <g id="mainpage" stroke="none" stroke-width="1" fill="none" fill-rule="evenodd">
        <g id="PM-NFT-LP-Desktop-Copy-77" transform="translate(-525.000000, -796.000000)" fill="#FFFFFF" fill-rule="nonzero">
            <g id="Group-4" transform="translate(525.000000, 795.000000)">
                <path d="M25,3.380173 C24.952741,3.4264868 24.9527407,3.47280024 24.9054817,3.51911404 C24.243856,4.44539003 23.4404534,5.23272497 22.5425328,5.92743196 L22.4952745,5.97374549 C22.4480156,6.02005929 22.4480145,6.0200592 22.4480145,6.066373 C22.4480145,6.297942 22.4480145,6.52951099 22.4480145,6.76107999 C22.4480145,7.5484146 22.3534965,8.28943534 22.2117196,9.07676995 C21.8336478,11.2535184 20.9829872,13.2450117 19.6597359,15.0512499 C18.6200383,16.4869776 17.391305,17.737451 15.8790176,18.7100407 C14.5085072,19.5900029 12.9962189,20.2383954 11.3421547,20.6089058 C10.7750469,20.7478472 10.1606799,20.8404758 9.59357214,20.8867896 C9.2627593,20.9331034 8.93194627,20.933102 8.60113343,20.9794158 C8.17580264,21.0257296 7.75047235,20.9794158 7.32514157,20.9794158 C6.89981078,20.9794158 6.47447979,20.9331034 6.09640796,20.8867896 C5.5293002,20.8404758 4.96219234,20.7015334 4.39508458,20.6089058 C2.83553833,20.2383954 1.37051034,19.636317 0.0472589785,18.8026687 C0.0157529928,18.802668 0,18.7872297 0,18.7563538 C2.78827974,19.0342366 5.34026459,18.3395296 7.56143645,16.6722328 C7.13610567,16.625919 6.71077468,16.5796063 6.33270285,16.4869787 C5.90737206,16.3943511 5.52930023,16.2090959 5.1512284,16.0238407 C4.77315658,15.8385855 4.44234357,15.5607017 4.15878969,15.2828189 C3.78071786,14.9123085 3.49716441,14.5881115 3.26086952,14.2639149 C3.02457463,13.8934045 2.83553881,13.522895 2.69376187,13.1060708 C3.44990553,13.2450122 4.20604874,13.1986981 5.00945138,13.0134429 C3.40264609,12.6429325 2.22117204,11.7629708 1.46502838,10.3735569 C1.08695655,9.63253606 0.897920568,8.84520128 0.897920568,8.01155292 C1.60680524,8.38206332 2.362949,8.61363196 3.16635165,8.61363196 C1.84310029,7.64104222 1.08695644,6.39056995 0.945179501,4.76958698 C0.897920522,3.79699724 1.13421546,2.82440733 1.65406422,1.89813135 C3.16635154,3.6580557 4.96219267,5.04746951 7.08884668,5.97374549 C8.27032112,6.48319729 9.45179501,6.80739396 10.7277874,7.03896296 C11.2476362,7.13159056 11.7674855,7.177904 12.2873342,7.177904 C12.2400753,7.0389626 12.2400749,6.90002139 12.1928159,6.76107999 C12.1455569,6.34425581 12.1455569,5.92743168 12.1928159,5.5106075 C12.2400749,4.90852813 12.429111,4.35276263 12.7126649,3.79699702 C13.4688085,2.40758304 14.6502846,1.48130706 16.2098308,1.11079666 C16.6824206,1.01816906 17.1077503,0.971855343 17.5803401,1.01816914 C18.7618146,1.06448294 19.8487714,1.48130706 20.746692,2.26864166 C20.84121,2.36126926 20.9357272,2.40758306 21.0302451,2.50021066 C21.0775041,2.54652446 21.1247645,2.54652464 21.1720235,2.54652464 C21.8809082,2.40758323 22.5897918,2.17601415 23.2514175,1.89813135 C23.5822303,1.75918995 23.9603025,1.57393483 24.2911153,1.38867963 C24.3383743,1.38867963 24.3383747,1.34236565 24.3856336,1.34236565 C24.1965977,1.89813127 23.5349724,3.28754516 22.1172031,4.12119352 C23.1096416,4.02856592 24.0548204,3.7506834 25,3.380173 Z" id="Vector"></path>
            </g>
        </g>
    </g>
</svg>