<?xml version="1.0" encoding="UTF-8"?>
<svg width="21px" height="21px" viewBox="0 0 21 21" version="1.1" xmlns="http://www.w3.org/2000/svg" xmlns:xlink="http://www.w3.org/1999/xlink">
    <title>iconmonstr-globe-7 copy</title>
    <g id="mainpage" stroke="none" stroke-width="1" fill="none" fill-rule="evenodd">
        <g id="PM-NFT-LP-Desktop-Copy-77" transform="translate(-710.000000, -796.000000)" fill="#FFFFFF">
            <g id="Group-4" transform="translate(525.000000, 795.000000)">
                <g id="iconmonstr-globe-7-copy" transform="translate(185.000000, 1.000000)">
                    <path d="M13.34025,14.875 C12.529125,18.113375 11.111625,20.125 10.5,21 C9.888375,20.125 8.47,18.11425 7.65975,14.875 L13.34025,14.875 L13.34025,14.875 Z M20.04625,14.875 C18.683,17.842125 15.9775,20.066375 12.7085,20.766375 C13.859125,18.956875 14.67025,16.949625 15.138375,14.875 L20.04625,14.875 L20.04625,14.875 Z M0.95375,14.875 L5.861625,14.875 C6.33325,16.96275 7.147875,18.96825 8.2915,20.766375 C5.0225,20.066375 2.317,17.842125 0.95375,14.875 Z M13.685,13.125 L7.315,13.125 C7.06125,11.388125 7.06125,9.61275 7.315,7.875 L13.685875,7.875 C13.937875,9.61275 13.937875,11.388125 13.685,13.125 L13.685,13.125 Z M5.548375,13.125 L0.331625,13.125 C0.114625,12.28675 0,11.4065 0,10.5 C0,9.5935 0.114625,8.714125 0.331625,7.875 L5.548375,7.875 C5.31825,9.6145 5.31825,11.3855 5.548375,13.125 Z M20.668375,13.125 L15.45075,13.125 C15.682625,11.3855 15.682625,9.6145 15.451625,7.875 L20.668375,7.875 C20.8845,8.714125 21,9.5935 21,10.5 C21,11.4065 20.8845,12.28675 20.668375,13.125 Z M13.34025,6.125 L7.65975,6.125 C8.469125,2.88575 9.8875,0.875 10.5,0 C11.54475,1.4945 12.6385,3.324125 13.34025,6.125 Z M5.86075,6.124125 L0.952875,6.124125 C2.317,3.157875 5.0225,0.933625 8.2915,0.23275 C7.209125,1.93025 6.35425,3.940125 5.86075,6.124125 Z M20.04625,6.124125 L15.138375,6.124125 C14.651,3.969875 13.8145,1.967875 12.707625,0.23275 C15.976625,0.933625 18.683,3.157875 20.04625,6.124125 Z" id="Shape"></path>
                </g>
            </g>
        </g>
    </g>
</svg>