<?xml version="1.0" encoding="utf-8"?>
<!-- Generator: Adobe Illustrator 27.3.1, SVG Export Plug-In . SVG Version: 6.00 Build 0)  -->
<svg version="1.1" id="svg141" xmlns:svg="http://www.w3.org/2000/svg"
	 xmlns="http://www.w3.org/2000/svg" xmlns:xlink="http://www.w3.org/1999/xlink" x="0px" y="0px" viewBox="0 0 1024 214"
	 style="enable-background:new 0 0 1024 214;" xml:space="preserve">
<style type="text/css">
	.st0{fill:#1D1D1B;}
	.st1{fill-rule:evenodd;clip-rule:evenodd;fill:#FFFFFF;}
</style>
<path id="use34" class="st0" d="M586.2,207.9h431.7V6.1H586.2V207.9z"/>
<path id="use43" class="st0" d="M576.2,207.9H6.1V6.1h570.2V207.9z"/>
<path id="path32" class="st1" d="M6.1,6.1v201.8h570.2V6.1H6.1z M586.2,6.1v201.8v0h431.7V6.1H586.2z M961.2,30.8
	c18.3,0,33.2,14.9,33.2,33.4c0,18.4-14.9,33.4-33.2,33.4c-18.4,0-33.2-15-33.2-33.4C928,45.7,942.9,30.8,961.2,30.8z M297.1,32.3
	c10.9,0,19.6,1.9,26.1,5.6c6.4,3.6,11.6,9,14.9,15.6c3.4,6.6,5.7,14.6,6.7,23.9c1,9.3,1.5,19.4,1.5,30.4c0,11.1-0.5,21.3-1.5,30.5
	c-1,9.2-3.2,17.2-6.7,23.8c-3.3,6.5-8.5,11.8-14.9,15.3c-6.5,3.5-15.2,5.3-26.1,5.3c-10.9,0-19.6-1.8-26.1-5.3
	c-6.4-3.4-11.6-8.8-14.9-15.3c-3.4-6.6-5.7-14.6-6.7-23.8c-1.1-10.1-1.6-20.3-1.5-30.5c0-11,0.5-21.1,1.5-30.4
	c1-9.3,3.2-17.3,6.7-23.9c3.3-6.5,8.5-11.9,14.9-15.6C277.4,34.2,286.1,32.3,297.1,32.3L297.1,32.3z M757.4,32.3
	c10.9,0,19.6,1.9,26.1,5.6c6.4,3.6,11.6,9,14.9,15.6c3.4,6.6,5.7,14.6,6.7,23.9c1,9.3,1.5,19.4,1.5,30.4c0,11.1-0.5,21.3-1.5,30.5
	c-1,9.2-3.2,17.2-6.7,23.8c-3.3,6.5-8.5,11.8-14.9,15.3c-6.5,3.5-15.2,5.3-26.1,5.3c-10.9,0-19.6-1.8-26.1-5.3
	c-6.4-3.4-11.6-8.8-14.9-15.3c-3.4-6.6-5.7-14.6-6.7-23.8c-1.1-10.1-1.6-20.3-1.5-30.5c0-11,0.5-21.1,1.5-30.4
	c1-9.3,3.2-17.3,6.7-23.9c3.3-6.5,8.5-11.9,14.9-15.6C737.7,34.2,746.4,32.3,757.4,32.3z M146.5,35.2h48.8c5.9,0,11.4,0.6,16.5,1.8
	c5.1,1.2,9.4,3.3,13.1,6.1c3.6,2.8,6.5,6.6,8.5,11.4c2,4.8,3,10.6,3,17.5c0,7.9-1.8,14.6-5.5,20.2c-3.6,5.6-9.1,9.5-16.4,11.5v0.4
	c8.1,1.1,14.5,4.5,19.2,10.4c4.7,5.8,7.1,13.6,7.1,23.4c0,5.7-0.7,11.1-2.2,16.3v0c-1.4,5-4,9.7-7.6,13.5c-3.6,3.9-8.2,7-14,9.3
	c-5.7,2.3-12.9,3.5-21.4,3.5h-49.2L146.5,35.2z M420.1,35.2h29.2v101.4c0,9.2-1.3,16.8-3.9,22.9c-2.6,6-6,10.8-10.3,14.4
	c-4.3,3.5-9.4,6-14.8,7.1c-5.7,1.2-11.4,1.8-17.2,1.8c-5.8,0-11.5-0.5-17.2-1.6c-5.4-1-10.4-3.3-14.8-6.6c-4.3-3.3-7.8-8-10.3-14.1
	c-2.6-6.1-3.8-14-3.8-23.8V35.2h29.2v101.4c0,3.7,0.2,7,0.7,10.1c0.5,3.1,1.4,5.7,2.6,7.9c1.3,2.2,3,4,5.3,5.3
	c2.2,1.3,5,1.9,8.4,1.9c3.5,0,6.3-0.6,8.5-1.9c2.2-1.3,3.9-3.1,5.1-5.3c1.3-2.2,2.2-4.9,2.6-7.9c0.5-3.1,0.7-6.4,0.7-10.1
	L420.1,35.2z M457.2,35.2h92.3v24h-31.6v121.3h-29.2V59.2h-31.6V35.2z M605.9,35.2h32.8l19,56.2h0.4l20.3-56.2H710l-37.5,88.1v57.2
	h-29.2v-57.2L605.9,35.2z M880.1,35.2h29.2v101.4c0,9.2-1.3,16.8-3.9,22.9c-2.6,6-6,10.8-10.3,14.4c-4.3,3.5-9.4,6-14.8,7.1
	c-5.7,1.2-11.4,1.8-17.2,1.8c-5.8,0-11.5-0.5-17.2-1.6c-5.4-1-10.4-3.3-14.8-6.6c-4.3-3.3-7.8-8-10.3-14.1c-2.6-6.1-3.8-14-3.8-23.8
	V35.2h29.2v101.4c0,3.7,0.2,7,0.7,10.1c0.5,3.1,1.4,5.7,2.6,7.9c1.3,2.2,3,4,5.3,5.3c2.2,1.3,5,1.9,8.4,1.9c3.5,0,6.3-0.6,8.5-1.9
	c2.2-1.3,3.9-3.1,5.2-5.3c1.3-2.2,2.2-4.9,2.6-7.9c0.5-3.1,0.7-6.4,0.7-10.1V35.2z M62,35.2h36.1l38.3,145.3H106h0l-6.7-30.7H60.8
	l-6.7,30.7H23.8L62,35.2z M961.2,41c-12.7,0-23.1,10.4-23.1,23.2s10.4,23.2,23.1,23.2s23.1-10.4,23.1-23.2c0-4.6-1.3-8.8-3.6-12.4
	L970.5,62l-7.2-7.2l10.2-10.2C969.9,42.2,965.6,41,961.2,41z M297.1,53.9c-4.3,0-7.8,1-10.4,3c-2.6,2-4.6,5.1-6.1,9.5
	c-1.4,4.3-2.4,9.9-2.8,16.7c-0.5,8.3-0.8,16.6-0.7,24.8c0,9.8,0.2,18.1,0.7,24.9c0.5,6.9,1.4,12.4,2.8,16.7c1.4,4.3,3.4,7.4,6.1,9.4
	c2.6,2,6.1,3,10.4,3c4.3,0,7.8-1,10.4-2.9c2.6-2,4.6-5.1,6.1-9.4c1.4-4.3,2.4-9.8,2.8-16.7c0.5-6.9,0.7-15.2,0.7-24.9
	c0-9.8-0.2-18-0.7-24.8c-0.5-6.8-1.4-12.3-2.8-16.7c-1.4-4.3-3.4-7.5-6.1-9.5C304.9,54.9,301.4,53.9,297.1,53.9z M757.4,53.9
	c-4.3,0-7.8,1-10.4,3c-2.6,2-4.7,5.1-6.1,9.5c-1.4,4.3-2.4,9.9-2.8,16.7c-0.5,8.3-0.8,16.6-0.7,24.8c0,9.8,0.2,18.1,0.7,24.9
	c0.5,6.9,1.4,12.4,2.8,16.7c1.4,4.3,3.4,7.4,6.1,9.4c2.6,2,6.1,3,10.4,3c4.3,0,7.8-1,10.4-2.9c2.6-2,4.7-5.1,6.1-9.4
	c1.4-4.3,2.4-9.8,2.8-16.7c0.5-6.9,0.7-15.2,0.7-24.9c0-9.8-0.2-18-0.7-24.8c-0.5-6.8-1.4-12.3-2.8-16.7c-1.4-4.3-3.4-7.5-6.1-9.5
	C765.2,54.9,761.7,53.9,757.4,53.9z M175.6,56.7v38.1h8.3c8.1,0,14-1.5,17.7-4.4c3.7-2.9,5.6-7.8,5.6-14.8c0-6.9-1.7-11.8-5.1-14.7
	c-3.4-2.9-8.7-4.3-16-4.3H175.6z M80.2,60.4l-0.4,0l-14,65.3h28.3L80.2,60.4z M175.6,115.2v43.8H187c7,0,12.7-1.6,17-4.7
	c4.3-3.1,6.5-8.9,6.5-17.3c0-4.2-0.6-7.7-1.7-10.5c-1-2.6-2.6-4.9-4.7-6.7h0c-2-1.7-4.4-2.9-7-3.6c-2.9-0.7-5.9-1-8.9-1L175.6,115.2
	z"/>
</svg>
