<?xml version="1.0" encoding="UTF-8"?>
<svg width="427px" height="76px" viewBox="0 0 427 76" version="1.1" xmlns="http://www.w3.org/2000/svg" xmlns:xlink="http://www.w3.org/1999/xlink">
    <title>Advantages</title>
    <g id="mainpage" stroke="none" stroke-width="1" fill="none" fill-rule="evenodd">
        <g id="PM-NFT-LP-Desktop-Copy-33" transform="translate(-925.000000, -259.000000)" fill="#FFFFFF" fill-rule="nonzero">
            <g id="Group-2" transform="translate(925.000000, 165.972000)">
                <g id="Advantages" transform="translate(0.000000, 93.628000)">
                    <path d="M0,73.4 L19.1,73.4 L19.6,67.9 L25.9,67.9 L26.4,73.4 L45.5,73.4 L34.9,1.4 L10,1.4 L0,73.4 Z M22.1,42.4 L22.6,27.7 L23.3,42.4 L24.3,52.1 L21.2,52.1 L22.1,42.4 Z" id="Shape"></path>
                    <path d="M45.5,1.4 L45.5,73.4 L66,73.4 C78.4,73.4 87.6,68.1 87.6,53 L87.6,21.7 C87.6,6.7 78.9,1.4 66.3,1.4 L45.5,1.4 Z M65.1,18 C66.8,18 67.2,18.4 67.2,20.9 L67.2,52.8 C67.2,56 66.8,56.3 65,56.3 L65,18 L65.1,18 Z" id="Shape"></path>
                    <polygon id="Path" points="97.5 73.4 123.4 73.4 133.5 1.4 113.5 1.4 111.3 22.6 110.7 55 110 22.6 107.8 1.4 87.4 1.4"></polygon>
                    <path d="M131.5,73.4 L150.6,73.4 L151.1,67.9 L157.4,67.9 L157.9,73.4 L177,73.4 L166.4,1.4 L141.5,1.4 L131.5,73.4 Z M153.6,42.4 L154.1,27.7 L154.8,42.4 L155.8,52.1 L152.7,52.1 L153.6,42.4 Z" id="Shape"></path>
                    <polygon id="Path" points="177 73.4 196.1 73.4 196.1 57.2 192 25.8 200.7 73.4 222.9 73.4 222.9 1.4 204.3 1.4 204.3 15.5 208.8 50.1 200.1 1.4 177 1.4"></polygon>
                    <polygon id="Path" points="232 73.4 252.2 73.4 252.2 20.1 259.7 20.1 259.7 1.4 224.5 1.4 224.5 20.1 232 20.1"></polygon>
                    <path d="M259.3,73.4 L278.4,73.4 L278.9,67.9 L285.2,67.9 L285.7,73.4 L304.8,73.4 L294.2,1.4 L269.3,1.4 L259.3,73.4 Z M281.4,42.4 L281.9,27.7 L282.6,42.4 L283.6,52.1 L280.5,52.1 L281.4,42.4 Z" id="Shape"></path>
                    <path d="M318.4,74.5 C325.8,74.5 329.1,70.8 330.2,63.7 L331,73.4 L347.1,73.4 L347.1,30.5 L326.1,30.5 L326.1,49.7 L329,49.7 L329,52.5 C329,56.4 328.4,57.3 326.8,57.3 C325.1,57.3 324.6,56.4 324.6,52.5 L324.6,20.6 C324.6,17.4 324.8,17.3 325.7,17.3 C326.6,17.3 326.8,17.4 326.8,20.4 L326.8,26.9 L347.1,26.9 L347.1,20.7 C347.1,6 340.4,0.2 326,0.2 C312.9,0.2 304.6,6.1 304.6,21 L304.6,53.7 C304.6,68.7 308.2,74.5 318.4,74.5 Z" id="Path"></path>
                    <polygon id="Path" points="349.1 73.4 382.8 73.4 382.8 54.1 368.5 54.1 368.5 46.4 382.8 46.4 382.8 27.5 368.5 27.5 368.5 20.2 382.8 20.2 382.8 1.4 349.1 1.4"></polygon>
                    <path d="M404.8,74.7 C419.7,74.7 426.2,69.1 426.2,56.2 L426.2,48.5 C426.2,39.4 423.4,36 412.3,29.9 C404.7,25.7 404.4,25.3 404.4,22.8 L404.4,18.2 C404.4,16 404.6,15.8 405.4,15.8 C406.4,15.8 406.4,16.2 406.4,18.5 L406.4,25.9 L425.9,25.9 L425.9,17.2 C425.9,5.5 418.4,0 405.6,0 C391,0 384.3,6.6 384.3,18.7 L384.3,23 C384.3,33.1 386.8,36 397.5,42.1 C406.1,46.8 406.3,47.2 406.3,51.2 L406.3,55.3 C406.3,57.5 405.9,57.7 405.2,57.7 C404.5,57.7 404.2,57.4 404.2,55.6 L404.2,46.6 L384,46.6 L384,56.2 C384,68.9 389.8,74.7 404.8,74.7 Z" id="Path"></path>
                </g>
            </g>
        </g>
    </g>
</svg>