<svg width="30px" height="30px" viewBox="0 0 30 30" version="1.1" xmlns="http://www.w3.org/2000/svg" xmlns:xlink="http://www.w3.org/1999/xlink">
    <defs>
        <rect id="path-1" x="0" y="0" width="30" height="30"></rect>
    </defs>
    <g id="mainpage" stroke="none" stroke-width="1" fill="none" fill-rule="evenodd">
        <g id="000_MENU" transform="translate(-896.000000, -821.000000)">
            <g id="Group-Copy-3" transform="translate(852.000000, -1.000000)">
                <g id="discord.svg" transform="translate(44.000000, 822.000000)">
                    <mask id="mask-2" fill="white">
                        <use xlink:href="#path-1"></use>
                    </mask>
                    <g id="discord.svg-(Background/Mask)"></g>
                    <path d="M4.86792474,21.28302 C5.26415115,21.6792464 5.71698091,22.0754728 6.1698111,22.4150955 C6.79245263,22.8679257 7.47169787,23.3207563 8.15094318,23.660379 C8.71698092,23.9433979 9.28301865,24.1698125 9.84905639,24.3962276 C9.90566016,24.4528314 9.90566038,24.4528319 9.90566038,24.5094356 C9.56603772,24.9622658 9.226415,25.4150969 8.88679234,25.8679271 C8.83018857,25.92453 8.77358469,25.92453 8.71698092,25.92453 C8.15094318,25.92453 7.64150943,25.8113229 7.0754717,25.7547191 C6.11320752,25.5849078 5.15094341,25.3018889 4.24528302,24.9056625 C3.11320755,24.4528323 2.03773586,23.8301899 1.07547168,22.9811332 C0.679245276,22.6415106 0.339622655,22.3018892 0,21.9056628 C0,21.849059 0,21.7358515 0,21.6226439 C0,21.2830212 0.0566037744,21.000002 0.0566037744,20.6603793 C0.113207549,20.2641529 0.113207553,19.8679273 0.169811328,19.4717009 C0.226415102,19.0754744 0.283018881,18.6792467 0.339622655,18.2830203 C0.452830204,17.6037749 0.566037761,16.9811334 0.67924531,16.3018881 C0.905660408,15.1132089 1.18867926,13.9811336 1.52830191,12.8490581 C1.81132078,11.8301902 2.1509434,10.8679255 2.54716981,9.90566131 C2.94339622,8.94339709 3.39622648,7.98113314 3.90566043,7.13207626 C4.01886798,6.96226517 4.18867913,6.79245374 4.35849046,6.67924618 C5.6037735,5.83018954 6.90566027,5.15094424 8.32075461,4.69811402 C9.05660364,4.47169892 9.79245328,4.30188754 10.5849061,4.18867999 C10.867925,4.13207626 10.8679245,4.13207626 11.0377358,4.41509514 C11.0943396,4.5283027 11.150943,4.64151025 11.2075467,4.69811402 C11.2641505,4.7547178 11.2641514,4.81132147 11.1509438,4.81132147 C10.6981136,4.92452902 10.2452826,5.03773646 9.7924524,5.20754779 C9,5.4339629 8.26415075,5.77358545 7.58490544,6.16981188 C6.79245263,6.62264209 6.0566038,7.13207626 5.37735849,7.69811426 C5.20754716,7.8679256 5.03773607,7.9811327 4.86792474,8.15094404 C4.90566059,8.15094404 4.94339641,8.13207622 4.98113218,8.09434058 C5.94339636,7.58490661 6.9056604,7.13207626 7.9245283,6.73584964 C8.9433962,6.33962321 10.0188682,6.05660465 11.0943398,5.83018954 C11.6603776,5.71698199 12.2264151,5.66037789 12.7358491,5.60377412 C13.4150944,5.54717034 14.0377358,5.49056667 14.7169811,5.49056667 C15.1132075,5.49056667 15.5094342,5.49056667 15.9056606,5.49056667 C16.5283021,5.49056667 17.150943,5.54717055 17.7169807,5.66037811 C18.9622637,5.83018944 20.1509439,6.11320832 21.3396231,6.50943475 C22.1320759,6.79245363 22.9245279,7.13207626 23.6603769,7.47169883 C24.1132071,7.69811394 24.5094331,7.86792548 24.9622633,8.09434058 C25.0188671,8.09434058 25.0188675,8.15094404 25.0754713,8.15094404 C24.8490562,7.92452893 24.5660377,7.69811394 24.3396226,7.47169883 C23.8301887,7.01886862 23.2641501,6.67924598 22.6981123,6.33962331 C22.018867,5.94339689 21.3396227,5.66037811 20.6603774,5.37735923 C20.0377358,5.15094412 19.4716977,4.9811328 18.8490562,4.81132147 C18.7924524,4.81132147 18.7924533,4.7547178 18.7924533,4.69811402 C18.849057,4.52830269 18.9622633,4.35849126 19.0188671,4.24528371 C19.0754708,4.13207626 19.1320763,4.13207626 19.1886801,4.13207626 C19.6981141,4.18868004 20.2075472,4.2452836 20.6603774,4.35849115 C22.0754717,4.69811382 23.3207556,5.26415192 24.5660386,6.00000098 C24.962265,6.22641609 25.3584906,6.50943453 25.754717,6.73584964 C25.8113208,6.79245341 25.8679241,6.8490573 25.9245279,6.90566107 C26.6037732,7.9811328 27.113208,9.11320866 27.5660382,10.2452842 C28.1320759,11.6603786 28.5849048,13.1320763 28.9245274,14.6037748 C29.1509425,15.6226428 29.3773589,16.6415117 29.5471702,17.6603796 C29.6603778,18.2264174 29.7169803,18.849058 29.773584,19.4150958 C29.8301878,19.9811335 29.8867933,20.6037764 29.9433971,21.1698141 C29.9433971,21.3396255 29.9433962,21.5094355 30,21.6792468 C30,21.7358506 30,21.7924548 29.9433971,21.7924548 C29.5471707,22.245285 29.1509438,22.6415106 28.6981136,22.9811332 C28.0188683,23.547171 27.2830184,24.0566063 26.4905656,24.4528327 C25.641509,24.8490591 24.7358482,25.1886822 23.8301878,25.4150973 C23.2075463,25.5849087 22.5283023,25.6981154 21.9056608,25.7547191 C21.6792457,25.7547191 21.4528302,25.811322 21.2264151,25.811322 C21.1698113,25.811322 21.1132071,25.8113229 21.1132071,25.7547191 C20.7735845,25.3018889 20.4339623,24.8490579 20.0943396,24.3962276 C20.0377358,24.3396239 20.0943388,24.3396256 20.1509425,24.2830218 C20.8867916,24.0000029 21.5660373,23.7169836 22.2452826,23.3207572 C22.9811316,22.9245308 23.7169802,22.4150955 24.3962256,21.8490577 C24.9056595,21.4528313 25.3584897,21.0000024 25.8113199,20.4905684 C25.8113208,20.4528317 25.8301891,20.4339633 25.867925,20.4339633 C25.8679244,20.4339639 25.886792,20.4150963 25.9245279,20.3773604 L25.867925,20.3773604 C25.6415099,20.5471717 25.4150935,20.6603789 25.2452822,20.8301902 C24.1698105,21.5094355 23.09434,22.1320763 21.9056608,22.5283035 C20.9433966,22.8679261 19.981132,23.1509459 18.9622642,23.3207572 C18.3396226,23.4339648 17.7169816,23.4905672 17.0943401,23.547171 C16.1886797,23.6037748 15.2830185,23.6603799 14.3207543,23.6037761 C13.641509,23.6037761 12.9622646,23.5471727 12.2830193,23.4339652 C10.9811325,23.2641538 9.67924509,22.9811337 8.43396205,22.5283035 C7.35849036,22.1320763 6.28301868,21.6226426 5.3207545,21.0000011 C4.86792431,21.0000011 4.58490571,20.8301902 4.1886793,20.5471713 C4.24528307,20.5471713 4.24528307,20.5471713 4.1886793,20.5471713 C4.15094345,20.5094355 4.13207554,20.4905678 4.13207558,20.4905684 C4.13207558,20.5471722 4.13207552,20.5471713 4.1886793,20.5471713 C4.4150944,20.8301902 4.64150965,21.0566049 4.86792474,21.28302 Z M8.20754717,16.7547179 C8.32075472,17.4905669 8.60377402,18.1132089 9.16981175,18.5660391 C9.73584949,19.0188694 10.3584908,19.1886803 11.0943398,19.0188689 C11.6603776,18.9056614 12.1132075,18.5094345 12.4528302,18.0566043 C12.8490566,17.4339627 13.0188677,16.8113212 12.9622639,16.0754721 C12.9056602,15.3962268 12.6226413,14.773587 12.1132073,14.264153 C11.6037734,13.7547191 11.0377363,13.5849064 10.3018872,13.6415102 C9.6792457,13.698114 9.2264153,14.0377366 8.8301889,14.4905668 C8.3773587,15.0566046 8.20754717,15.6792457 8.20754717,16.358491 C8.20754717,16.4716986 8.20754717,16.6415103 8.20754717,16.7547179 Z M21.7924528,16.0188692 C21.6792453,15.2830202 21.396226,14.6603782 20.8301882,14.207548 C20.3207543,13.8113215 19.7547166,13.5849077 19.132075,13.6981153 C18.4528297,13.8113228 17.9433962,14.150945 17.5471698,14.7169828 C17.1509434,15.3396244 16.9811323,16.0188688 17.0377361,16.7547179 C17.0943398,17.4905669 17.4339618,18.169814 18,18.6226442 C18.396226,18.9622669 18.849057,19.1320763 19.358491,19.1320763 C19.9811325,19.1320763 20.5471689,18.9056627 21,18.5094362 C21.5660369,17.8867947 21.7924528,17.1509452 21.7924528,16.4150961 C21.7924528,16.2452848 21.7924528,16.1320763 21.7924528,16.0188692 Z" id="Vector" fill="#F53F4D" mask="url(#mask-2)"></path>
                </g>
            </g>
        </g>
    </g>
</svg>