<?xml version="1.0" encoding="UTF-8"?>
<svg width="422px" height="113px" viewBox="0 0 422 113" version="1.1" xmlns="http://www.w3.org/2000/svg" xmlns:xlink="http://www.w3.org/1999/xlink">
    <title>Experts</title>
    <g id="mainpage" stroke="none" stroke-width="1" fill="none" fill-rule="evenodd">
        <g id="PM-NFT-LP-Desktop-Copy-33" transform="translate(-931.000000, -340.000000)" fill="#FFFFFF" fill-rule="nonzero">
            <g id="Group-2" transform="translate(925.000000, 165.972000)">
                <g id="Experts" transform="translate(6.510000, 174.194000)">
                    <polygon id="Path" points="0 110.834 50.887 110.834 50.887 81.691 29.294 81.691 29.294 70.064 50.887 70.064 50.887 41.525 29.294 41.525 29.294 30.502 50.887 30.502 50.887 2.114 0 2.114"></polygon>
                    <polygon id="Path" points="49.83 110.834 80.936 110.834 85.013 90.298 86.221 68.705 87.429 90.298 92.11 110.834 122.159 110.834 105.549 52.85 120.951 2.114 91.506 2.114 87.429 20.687 86.221 37.599 85.013 20.536 80.936 2.114 51.038 2.114 66.44 52.548"></polygon>
                    <path d="M121.253,110.834 L150.245,110.834 L150.245,90.298 L151.755,90.298 C174.405,90.298 183.163,79.426 183.163,61.004 L183.163,29.143 C183.163,11.476 174.707,2.114 151.906,2.114 L121.253,2.114 L121.253,110.834 Z M150.245,26.425 C152.812,26.425 153.567,28.237 153.567,30.502 L153.567,60.249 C153.567,63.571 152.359,64.779 150.245,64.779 L150.245,26.425 Z" id="Shape"></path>
                    <polygon id="Path" points="186.032 110.834 236.919 110.834 236.919 81.691 215.326 81.691 215.326 70.064 236.919 70.064 236.919 41.525 215.326 41.525 215.326 30.502 236.919 30.502 236.919 2.114 186.032 2.114"></polygon>
                    <path d="M239.637,110.834 L268.931,110.834 L268.931,73.839 C271.196,73.99 272.102,74.745 272.102,78.52 L272.102,102.68 C272.102,107.059 272.404,110.079 274.065,110.834 L302.604,110.834 C300.792,109.173 300.49,107.512 300.49,102.529 L300.49,78.067 C300.49,68.252 299.131,63.571 291.883,61.306 C298.678,58.89 300.792,53.907 300.792,43.035 L300.792,28.237 C300.792,6.795 291.883,2.114 271.8,2.114 L239.637,2.114 L239.637,110.834 Z M269.233,26.576 C271.649,26.576 272.253,27.331 272.253,30.2 L272.253,45.904 C272.253,48.471 271.649,49.528 268.931,49.679 L268.931,26.576 L269.233,26.576 Z" id="Shape"></path>
                    <polygon id="Path" points="314.08 110.834 344.582 110.834 344.582 30.351 355.907 30.351 355.907 2.114 302.755 2.114 302.755 30.351 314.08 30.351"></polygon>
                    <path d="M388.825,112.797 C411.324,112.797 421.139,104.341 421.139,84.862 L421.139,73.235 C421.139,59.494 416.911,54.36 400.15,45.149 C388.674,38.807 388.221,38.203 388.221,34.428 L388.221,27.482 C388.221,24.16 388.523,23.858 389.731,23.858 C391.241,23.858 391.241,24.462 391.241,27.935 L391.241,39.109 L420.686,39.109 L420.686,25.972 C420.686,8.305 409.361,0 390.033,0 C367.987,0 357.87,9.966 357.87,28.237 L357.87,34.73 C357.87,49.981 361.645,54.36 377.802,63.571 C390.788,70.668 391.09,71.272 391.09,77.312 L391.09,83.503 C391.09,86.825 390.486,87.127 389.429,87.127 C388.372,87.127 387.919,86.674 387.919,83.956 L387.919,70.366 L357.417,70.366 L357.417,84.862 C357.417,104.039 366.175,112.797 388.825,112.797 Z" id="Path"></path>
                </g>
            </g>
        </g>
    </g>
</svg>