<?xml version="1.0" encoding="UTF-8"?>
<svg width="428px" height="148px" viewBox="0 0 428 148" version="1.1" xmlns="http://www.w3.org/2000/svg" xmlns:xlink="http://www.w3.org/1999/xlink">
    <title>Frequently Asked Que</title>
    <g id="mainpage" stroke="none" stroke-width="1" fill="none" fill-rule="evenodd">
        <g id="PM-NFT-LP-Desktop-Copy-33" transform="translate(-925.000000, -585.000000)" fill="#FFFFFF" fill-rule="nonzero">
            <g id="Group-2" transform="translate(925.000000, 165.972000)">
                <g id="Frequently-Asked-Que" transform="translate(0.280000, 419.864000)">
                    <polygon id="Path" points="1.8 79.164 22.644 79.164 22.644 50.868 35.928 50.868 35.928 29.916 22.644 29.916 22.644 22.356 35.928 22.356 35.928 1.404 1.8 1.404"></polygon>
                    <path d="M37.656,79.164 L58.608,79.164 L58.608,52.704 C60.228,52.812 60.876,53.352 60.876,56.052 L60.876,73.332 C60.876,76.464 61.092,78.624 62.28,79.164 L82.692,79.164 C81.396,77.976 81.18,76.788 81.18,73.224 L81.18,55.728 C81.18,48.708 80.208,45.36 75.024,43.74 C79.884,42.012 81.396,38.448 81.396,30.672 L81.396,20.088 C81.396,4.752 75.024,1.404 60.66,1.404 L37.656,1.404 L37.656,79.164 Z M58.824,18.9 C60.552,18.9 60.984,19.44 60.984,21.492 L60.984,32.724 C60.984,34.56 60.552,35.316 58.608,35.424 L58.608,18.9 L58.824,18.9 Z" id="Shape"></path>
                    <polygon id="Path" points="83.232 79.164 119.628 79.164 119.628 58.32 104.184 58.32 104.184 50.004 119.628 50.004 119.628 29.592 104.184 29.592 104.184 21.708 119.628 21.708 119.628 1.404 83.232 1.404"></polygon>
                    <path d="M145.116,87.912 L168.444,88.02 L160.992,74.628 C164.772,70.956 166.932,65.34 166.932,57.564 L166.932,22.788 C166.932,7.02 157.644,0 144.144,0 C130.104,0 121.356,6.912 121.356,22.788 L121.356,57.564 C121.356,73.008 129.132,79.704 142.308,80.352 L145.116,87.912 Z M144.144,61.02 C142.956,61.02 142.956,60.696 142.956,56.808 L142.956,22.788 C142.956,18.9 142.956,18.576 144.144,18.576 C145.332,18.576 145.332,18.9 145.332,22.788 L145.332,56.808 C145.332,60.696 145.332,61.02 144.144,61.02 Z" id="Shape"></path>
                    <path d="M191.232,80.352 C206.784,80.352 213.804,73.008 213.804,57.24 L213.804,1.404 L192.312,1.404 L192.312,55.944 C192.312,59.832 192.204,59.94 191.232,59.94 C190.26,59.94 190.152,59.724 190.152,55.944 L190.152,1.404 L168.768,1.404 L168.768,57.24 C168.768,72.684 174.708,80.352 191.232,80.352 Z" id="Path"></path>
                    <polygon id="Path" points="215.856 79.164 252.252 79.164 252.252 58.32 236.808 58.32 236.808 50.004 252.252 50.004 252.252 29.592 236.808 29.592 236.808 21.708 252.252 21.708 252.252 1.404 215.856 1.404"></polygon>
                    <polygon id="Path" points="254.196 79.164 274.824 79.164 274.824 61.668 270.396 27.756 279.792 79.164 303.768 79.164 303.768 1.404 283.68 1.404 283.68 16.632 288.54 54 279.144 1.404 254.196 1.404"></polygon>
                    <polygon id="Path" points="313.596 79.164 335.412 79.164 335.412 21.6 343.512 21.6 343.512 1.404 305.496 1.404 305.496 21.6 313.596 21.6"></polygon>
                    <polygon id="Path" points="345.24 1.404 345.24 79.164 378.72 79.164 378.72 57.456 367.272 57.456 367.272 1.404"></polygon>
                    <polygon id="Path" points="391.356 79.164 413.28 79.164 413.28 55.944 427.104 1.404 405.828 1.404 402.912 17.496 402.48 34.236 401.724 17.496 399.132 1.404 377.64 1.404 391.356 58.104"></polygon>
                    <path d="M0,141.164 L13.752,141.164 L14.112,137.204 L18.648,137.204 L19.008,141.164 L32.76,141.164 L25.128,89.324 L7.2,89.324 L0,141.164 Z M15.912,118.844 L16.272,108.26 L16.776,118.844 L17.496,125.828 L15.264,125.828 L15.912,118.844 Z" id="Shape"></path>
                    <path d="M47.304,142.1 C58.032,142.1 62.712,138.068 62.712,128.78 L62.712,123.236 C62.712,116.684 60.696,114.236 52.704,109.844 C47.232,106.82 47.016,106.532 47.016,104.732 L47.016,101.42 C47.016,99.836 47.16,99.692 47.736,99.692 C48.456,99.692 48.456,99.98 48.456,101.636 L48.456,106.964 L62.496,106.964 L62.496,100.7 C62.496,92.276 57.096,88.316 47.88,88.316 C37.368,88.316 32.544,93.068 32.544,101.78 L32.544,104.876 C32.544,112.148 34.344,114.236 42.048,118.628 C48.24,122.012 48.384,122.3 48.384,125.18 L48.384,128.132 C48.384,129.716 48.096,129.86 47.592,129.86 C47.088,129.86 46.872,129.644 46.872,128.348 L46.872,121.868 L32.328,121.868 L32.328,128.78 C32.328,137.924 36.504,142.1 47.304,142.1 Z" id="Path"></path>
                    <polygon id="Path" points="78.696 126.764 81.864 141.164 97.488 141.164 89.784 111.428 97.2 89.324 82.08 89.324 78.912 99.836 76.68 109.556 77.976 98.9 77.976 89.324 63.936 89.324 63.936 141.164 77.976 141.164 77.976 122.084 78.12 120.86"></polygon>
                    <polygon id="Path" points="97.272 141.164 121.536 141.164 121.536 127.268 111.24 127.268 111.24 121.724 121.536 121.724 121.536 108.116 111.24 108.116 111.24 102.86 121.536 102.86 121.536 89.324 97.272 89.324"></polygon>
                    <path d="M122.832,89.324 L122.832,141.164 L137.592,141.164 C146.52,141.164 153.144,137.348 153.144,126.476 L153.144,103.94 C153.144,93.14 146.88,89.324 137.808,89.324 L122.832,89.324 Z M136.944,101.276 C138.168,101.276 138.456,101.564 138.456,103.364 L138.456,126.332 C138.456,128.636 138.168,128.852 136.872,128.852 L136.872,101.276 L136.944,101.276 Z" id="Shape"></path>
                    <path d="M183.528,146.996 L199.08,147.068 L194.112,138.14 C196.632,135.692 198.072,131.948 198.072,126.764 L198.072,103.58 C198.072,93.068 191.88,88.388 182.88,88.388 C173.52,88.388 167.688,92.996 167.688,103.58 L167.688,126.764 C167.688,137.06 172.872,141.524 181.656,141.956 L183.528,146.996 Z M182.88,129.068 C182.088,129.068 182.088,128.852 182.088,126.26 L182.088,103.58 C182.088,100.988 182.088,100.772 182.88,100.772 C183.672,100.772 183.672,100.988 183.672,103.58 L183.672,126.26 C183.672,128.852 183.672,129.068 182.88,129.068 Z" id="Shape"></path>
                    <path d="M214.272,141.956 C224.64,141.956 229.32,137.06 229.32,126.548 L229.32,89.324 L214.992,89.324 L214.992,125.684 C214.992,128.276 214.92,128.348 214.272,128.348 C213.624,128.348 213.552,128.204 213.552,125.684 L213.552,89.324 L199.296,89.324 L199.296,126.548 C199.296,136.844 203.256,141.956 214.272,141.956 Z" id="Path"></path>
                    <polygon id="Path" points="230.688 141.164 254.952 141.164 254.952 127.268 244.656 127.268 244.656 121.724 254.952 121.724 254.952 108.116 244.656 108.116 244.656 102.86 254.952 102.86 254.952 89.324 230.688 89.324"></polygon>
                    <path d="M270.792,142.1 C281.52,142.1 286.2,138.068 286.2,128.78 L286.2,123.236 C286.2,116.684 284.184,114.236 276.192,109.844 C270.72,106.82 270.504,106.532 270.504,104.732 L270.504,101.42 C270.504,99.836 270.648,99.692 271.224,99.692 C271.944,99.692 271.944,99.98 271.944,101.636 L271.944,106.964 L285.984,106.964 L285.984,100.7 C285.984,92.276 280.584,88.316 271.368,88.316 C260.856,88.316 256.032,93.068 256.032,101.78 L256.032,104.876 C256.032,112.148 257.832,114.236 265.536,118.628 C271.728,122.012 271.872,122.3 271.872,125.18 L271.872,128.132 C271.872,129.716 271.584,129.86 271.08,129.86 C270.576,129.86 270.36,129.644 270.36,128.348 L270.36,121.868 L255.816,121.868 L255.816,128.78 C255.816,137.924 259.992,142.1 270.792,142.1 Z" id="Path"></path>
                    <polygon id="Path" points="292.464 141.164 307.008 141.164 307.008 102.788 312.408 102.788 312.408 89.324 287.064 89.324 287.064 102.788 292.464 102.788"></polygon>
                    <polygon id="Path" points="313.632 141.164 328.248 141.164 328.248 89.324 313.632 89.324"></polygon>
                    <path d="M344.808,141.956 C353.808,141.956 360,137.852 360,126.764 L360,103.58 C360,92.78 353.808,88.388 344.808,88.388 C335.448,88.388 329.616,92.708 329.616,103.58 L329.616,126.764 C329.616,137.852 335.304,141.956 344.808,141.956 Z M344.808,129.068 C344.016,129.068 344.016,128.852 344.016,126.26 L344.016,103.58 C344.016,100.988 344.016,100.772 344.808,100.772 C345.6,100.772 345.6,100.988 345.6,103.58 L345.6,126.26 C345.6,128.852 345.6,129.068 344.808,129.068 Z" id="Shape"></path>
                    <polygon id="Path" points="361.296 141.164 375.048 141.164 375.048 129.5 372.096 106.892 378.36 141.164 394.344 141.164 394.344 89.324 380.952 89.324 380.952 99.476 384.192 124.388 377.928 89.324 361.296 89.324"></polygon>
                    <path d="M410.328,142.1 C421.056,142.1 425.736,138.068 425.736,128.78 L425.736,123.236 C425.736,116.684 423.72,114.236 415.728,109.844 C410.256,106.82 410.04,106.532 410.04,104.732 L410.04,101.42 C410.04,99.836 410.184,99.692 410.76,99.692 C411.48,99.692 411.48,99.98 411.48,101.636 L411.48,106.964 L425.52,106.964 L425.52,100.7 C425.52,92.276 420.12,88.316 410.904,88.316 C400.392,88.316 395.568,93.068 395.568,101.78 L395.568,104.876 C395.568,112.148 397.368,114.236 405.072,118.628 C411.264,122.012 411.408,122.3 411.408,125.18 L411.408,128.132 C411.408,129.716 411.12,129.86 410.616,129.86 C410.112,129.86 409.896,129.644 409.896,128.348 L409.896,121.868 L395.352,121.868 L395.352,128.78 C395.352,137.924 399.528,142.1 410.328,142.1 Z" id="Path"></path>
                </g>
            </g>
        </g>
    </g>
</svg>