<?xml version="1.0" encoding="UTF-8"?>
<svg width="426px" height="122px" viewBox="0 0 426 122" version="1.1" xmlns="http://www.w3.org/2000/svg" xmlns:xlink="http://www.w3.org/1999/xlink">
    <title>Join us</title>
    <g id="mainpage" stroke="none" stroke-width="1" fill="none" fill-rule="evenodd">
        <g id="PM-NFT-LP-Desktop-Copy-33" transform="translate(-927.000000, -458.000000)" fill="#FFFFFF" fill-rule="nonzero">
            <g id="Group-2" transform="translate(925.000000, 165.972000)">
                <g id="Join-us" transform="translate(2.134000, 292.120000)">
                    <path d="M34.506,120.69 C58.968,120.69 69.336,110.808 69.336,84.24 L69.336,2.268 L36.288,2.268 L36.288,84.888 C36.288,91.206 35.964,91.854 34.668,91.854 C33.21,91.854 32.886,91.206 32.886,87.642 L32.886,57.186 L0,57.186 L0,85.86 C0,113.076 10.692,120.69 34.506,120.69 Z" id="Path"></path>
                    <path d="M106.272,120.69 C126.522,120.69 140.454,111.456 140.454,86.508 L140.454,34.344 C140.454,10.044 126.522,0.162 106.272,0.162 C85.212,0.162 72.09,9.882 72.09,34.344 L72.09,86.508 C72.09,111.456 84.888,120.69 106.272,120.69 Z M106.272,91.692 C104.49,91.692 104.49,91.206 104.49,85.374 L104.49,34.344 C104.49,28.512 104.49,28.026 106.272,28.026 C108.054,28.026 108.054,28.512 108.054,34.344 L108.054,85.374 C108.054,91.206 108.054,91.692 106.272,91.692 Z" id="Shape"></path>
                    <polygon id="Path" points="143.532 118.908 176.418 118.908 176.418 2.268 143.532 2.268"></polygon>
                    <polygon id="Path" points="179.82 118.908 210.762 118.908 210.762 92.664 204.12 41.796 218.214 118.908 254.178 118.908 254.178 2.268 224.046 2.268 224.046 25.11 231.336 81.162 217.242 2.268 179.82 2.268"></polygon>
                    <path d="M321.084,120.69 C344.412,120.69 354.942,109.674 354.942,86.022 L354.942,2.268 L322.704,2.268 L322.704,84.078 C322.704,89.91 322.542,90.072 321.084,90.072 C319.626,90.072 319.464,89.748 319.464,84.078 L319.464,2.268 L287.388,2.268 L287.388,86.022 C287.388,109.188 296.298,120.69 321.084,120.69 Z" id="Path"></path>
                    <path d="M390.744,121.014 C414.882,121.014 425.412,111.942 425.412,91.044 L425.412,78.57 C425.412,63.828 420.876,58.32 402.894,48.438 C390.582,41.634 390.096,40.986 390.096,36.936 L390.096,29.484 C390.096,25.92 390.42,25.596 391.716,25.596 C393.336,25.596 393.336,26.244 393.336,29.97 L393.336,41.958 L424.926,41.958 L424.926,27.864 C424.926,8.91 412.776,0 392.04,0 C368.388,0 357.534,10.692 357.534,30.294 L357.534,37.26 C357.534,53.622 361.584,58.32 378.918,68.202 C392.85,75.816 393.174,76.464 393.174,82.944 L393.174,89.586 C393.174,93.15 392.526,93.474 391.392,93.474 C390.258,93.474 389.772,92.988 389.772,90.072 L389.772,75.492 L357.048,75.492 L357.048,91.044 C357.048,111.618 366.444,121.014 390.744,121.014 Z" id="Path"></path>
                </g>
            </g>
        </g>
    </g>
</svg>