<svg width="422px" height="80px" viewBox="0 0 422 80" version="1.1" xmlns="http://www.w3.org/2000/svg" xmlns:xlink="http://www.w3.org/1999/xlink">
    <g id="mainpage" stroke="none" stroke-width="1" fill="none" fill-rule="evenodd">
        <g id="PM-NFT-LP-Desktop-Copy-33" transform="translate(-930.000000, -169.000000)" fill="#FFFFFF" fill-rule="nonzero">
            <g id="Group-2" transform="translate(926.000000, 169.302000)">
                <g id="PACEMAKER" transform="translate(4.060000, 0.000000)">
                    <path d="M0,77.698 L20.352,77.698 L20.352,63.282 L21.412,63.282 C37.312,63.282 43.46,55.65 43.46,42.718 L43.46,20.352 C43.46,7.95 37.524,1.378 21.518,1.378 L0,1.378 L0,77.698 Z M20.352,18.444 C22.154,18.444 22.684,19.716 22.684,21.306 L22.684,42.188 C22.684,44.52 21.836,45.368 20.352,45.368 L20.352,18.444 Z" id="Shape"></path>
                    <path d="M43.354,77.698 L63.6,77.698 L64.13,71.868 L70.808,71.868 L71.338,77.698 L91.584,77.698 L80.348,1.378 L53.954,1.378 L43.354,77.698 Z M66.78,44.838 L67.31,29.256 L68.052,44.838 L69.112,55.12 L65.826,55.12 L66.78,44.838 Z" id="Shape"></path>
                    <path d="M113.526,78.864 C127.412,78.864 135.786,72.398 135.786,56.498 L135.786,42.294 L114.586,42.294 L114.586,55.756 C114.586,59.572 114.374,59.89 113.526,59.89 C112.466,59.89 112.36,59.572 112.36,55.756 L112.36,22.366 C112.36,18.55 112.36,18.232 113.526,18.232 C114.268,18.232 114.586,18.444 114.586,22.366 L114.586,34.662 L135.786,34.662 L135.786,22.366 C135.786,6.572 129.214,0 114.056,0 C99.64,0 91.372,6.784 91.372,22.366 L91.372,56.498 C91.372,73.034 99.534,78.864 113.526,78.864 Z" id="Path"></path>
                    <polygon id="Path" points="137.588 77.698 173.31 77.698 173.31 57.24 158.152 57.24 158.152 49.078 173.31 49.078 173.31 29.044 158.152 29.044 158.152 21.306 173.31 21.306 173.31 1.378 137.588 1.378"></polygon>
                    <polygon id="Path" points="175.218 77.698 196.63 77.698 196.63 64.342 193.132 17.172 200.022 77.698 218.042 77.698 224.932 18.232 221.54 64.236 221.54 77.698 242.634 77.698 242.634 1.378 211.682 1.378 209.668 27.56 209.138 57.876 208.608 27.56 206.488 1.378 175.218 1.378"></polygon>
                    <path d="M242.634,77.698 L262.88,77.698 L263.41,71.868 L270.088,71.868 L270.618,77.698 L290.864,77.698 L279.628,1.378 L253.234,1.378 L242.634,77.698 Z M266.06,44.838 L266.59,29.256 L267.332,44.838 L268.392,55.12 L265.106,55.12 L266.06,44.838 Z" id="Shape"></path>
                    <polygon id="Path" points="312.7 56.498 317.364 77.698 340.366 77.698 329.024 33.92 339.942 1.378 317.682 1.378 313.018 16.854 309.732 31.164 311.64 15.476 311.64 1.378 290.97 1.378 290.97 77.698 311.64 77.698 311.64 49.608 311.852 47.806"></polygon>
                    <polygon id="Path" points="340.048 77.698 375.77 77.698 375.77 57.24 360.612 57.24 360.612 49.078 375.77 49.078 375.77 29.044 360.612 29.044 360.612 21.306 375.77 21.306 375.77 1.378 340.048 1.378"></polygon>
                    <path d="M377.678,77.698 L398.242,77.698 L398.242,51.728 C399.832,51.834 400.468,52.364 400.468,55.014 L400.468,71.974 C400.468,75.048 400.68,77.168 401.846,77.698 L421.88,77.698 C420.608,76.532 420.396,75.366 420.396,71.868 L420.396,54.696 C420.396,47.806 419.442,44.52 414.354,42.93 C419.124,41.234 420.608,37.736 420.608,30.104 L420.608,19.716 C420.608,4.664 414.354,1.378 400.256,1.378 L377.678,1.378 L377.678,77.698 Z M398.454,18.55 C400.15,18.55 400.574,19.08 400.574,21.094 L400.574,32.118 C400.574,33.92 400.15,34.662 398.242,34.768 L398.242,18.55 L398.454,18.55 Z" id="Shape"></path>
                </g>
            </g>
        </g>
    </g>
</svg>