<svg width="95px" height="32px" viewBox="0 0 95 32" version="1.1" xmlns="http://www.w3.org/2000/svg" xmlns:xlink="http://www.w3.org/1999/xlink">
    <g id="mainpage" stroke="none" stroke-width="1" fill="none" fill-rule="evenodd">
        <g id="000_MENU" transform="translate(-1124.000000, -818.000000)" fill="#FFFFFF">
            <g id="Group-Copy-3" transform="translate(852.000000, -1.000000)">
                <g id="Group" transform="translate(272.000000, 819.000000)">
                    <path d="M93.796762,23.2044639 C93.1605686,22.6385565 92.4601178,22.1819724 91.7211053,21.7639726 C90.8792735,21.2816651 89.9667489,21.0437271 89.0092456,20.9344041 C88.9578361,20.9279733 88.9000019,20.9408357 88.8421661,20.9472664 C88.8293137,21.1273279 88.9706885,21.1337571 89.0735076,21.1787725 C89.4912104,21.3652647 89.9089163,21.5581885 90.3780286,21.7704038 C90.2623571,21.8861576 90.2109428,21.9568968 90.1402546,22.0083429 C88.0196098,23.5903115 85.661202,24.5999419 83.04574,25.0308032 C81.2592575,25.3201877 79.4727685,25.3459092 77.6734335,25.1980016 C76.805897,25.1272631 75.9383667,25.0308024 75.0772564,24.9214794 C74.0426388,24.7928641 73.0658554,24.4520327 72.1276307,24.0083098 C71.549273,23.7382176 70.9901939,23.4231116 70.4246886,23.1337271 C70.3090171,23.0694194 70.1869146,23.0115425 70.0583907,22.9408041 C69.9941287,23.0372656 69.9491501,23.114434 69.8784619,23.2173263 C70.9387843,23.8796952 71.9798297,24.5292019 73.0530045,25.1980016 C72.9630378,25.26874 72.9180544,25.3201877 72.8602186,25.3523415 C69.4543345,27.6416944 65.8363813,29.4937545 61.8906966,30.6770155 C60.039952,31.2300614 58.1506518,31.615907 56.2292191,31.8281223 C54.5969652,32.0081838 52.9647128,32.0467696 51.3388851,31.9438773 C47.1168742,31.6737851 43.13263,30.5226775 39.3797311,28.5612937 C37.773182,27.7188632 36.2437473,26.7542479 34.8171317,25.6288637 C34.7143125,25.5452638 34.6179203,25.4552338 34.540806,25.3844954 C35.5240141,24.7349879 36.4943697,24.1176339 37.4325944,23.4488342 C38.3643929,22.7864653 39.2190762,22.0212033 40.0544818,21.2173574 C39.996646,21.146619 39.951665,21.082311 39.9002554,21.0180033 C39.8488458,21.0372956 39.8038609,21.0437271 39.7781561,21.0630194 C38.0238045,22.5485265 36.0316836,23.6224654 33.9303173,24.5163419 C32.7800282,25.0050801 31.623312,25.4745245 30.3830561,25.7124629 C29.136374,25.9504013 27.8768407,26.0597243 26.6108799,26.0340012 C24.0596799,25.9889859 21.5791677,25.5452629 19.1821964,24.6835402 C18.5974125,24.471325 18.031908,24.194802 17.4599766,23.9440021 C17.3957146,23.918279 17.3250257,23.8861268 17.2864685,23.8411114 C16.9201753,23.4231116 16.4639151,23.4874192 15.9819504,23.5517269 C14.4460895,23.7446499 12.9038027,23.924711 11.3615155,24.0919109 C10.6417816,24.1690801 9.92204713,24.2333882 9.20231314,24.2591112 C7.74356649,24.3041266 6.29124619,24.34271 4.83249954,24.3362792 C4.00352022,24.3362792 3.17454097,24.2269562 2.38411879,23.9504332 C1.36877974,23.5774488 0.559079095,22.9600956 0.21206448,21.8668653 C0.115671533,21.5581885 0.0771143606,21.2366505 0,20.8765276 C0.263474049,20.8765276 0.475538529,20.8572353 0.687603009,20.8765276 C1.4458942,20.947266 2.19775918,21.0823125 2.95605037,21.1080356 C4.04207755,21.1401894 5.13453119,21.1208963 6.22055837,21.0630194 C7.26802835,21.0051425 8.30907198,20.8893887 9.35011585,20.7736349 C12.7495739,20.4006505 15.9755241,19.4488974 19.0472459,17.9505288 C21.9390343,16.5421909 24.5866273,14.7672976 27.1121225,12.7930522 C27.8125779,12.2464371 28.4937555,11.6805304 29.1813585,11.1339152 C30.1003046,10.4008079 31.0835115,9.77059252 32.1823911,9.34616193 C32.9406823,9.05677743 33.737533,8.96674631 34.5343814,8.85742327 C35.1962796,8.76739254 35.8581779,8.68379277 36.5265023,8.68379277 C38.5250494,8.677362 40.3115312,9.3718846 41.9116541,10.5294226 C43.3125649,11.5454837 44.7327527,12.5165294 46.2878923,13.2946522 C48.1129321,14.2013903 50.0343657,14.8251749 52.0521913,15.1145594 C53.5237903,15.3267747 55.0082401,15.333205 56.4926915,15.2367435 C58.9474986,15.0824051 61.3444699,14.6322521 63.6900316,13.9120062 C66.684639,12.9859758 69.4993147,11.6869608 72.1019243,9.93779226 C72.583889,9.61625393 73.0465783,9.25613079 73.5992312,8.85742327 C73.4000191,8.84456174 73.2971953,8.8317006 73.2008023,8.8317006 C72.468216,8.84456213 71.7292065,8.76739293 71.0030463,8.9281621 C70.4568196,9.05034666 69.9170159,9.18539218 69.3772154,9.32043827 C67.9441737,9.67413043 66.5239873,9.59053046 65.0909455,9.28828444 C61.672209,8.5616078 58.3948473,7.4105014 55.2010276,6.02145579 C53.1703495,5.14044078 51.1846541,4.15010275 49.1796807,3.20478008 C49.057583,3.14690318 48.9419107,3.07616489 48.7812558,2.98613416 C48.9033535,2.93468803 48.9868941,2.89610323 49.0704346,2.87038016 C52.129304,1.9443498 55.2267325,1.19195012 58.3819949,0.651765752 C61.0295879,0.201612091 63.690033,-0.0684801216 66.3826095,0.015119841 C67.7706679,0.0601352064 69.1458708,0.265919726 70.5082245,0.516719629 C72.3718214,0.863981031 74.1968674,1.32699631 75.9447929,2.06010367 C76.6195436,2.34305741 77.2621601,2.69674957 77.9176321,3.02471866 C78.0333036,3.08259556 78.1361259,3.1726262 78.2582237,3.25622616 C77.9561924,3.62277984 77.6670136,3.96361049 77.3906871,4.31730265 C77.1914751,4.57453331 77.01154,4.84462562 76.8187541,5.1147178 C76.7544921,5.2111793 76.7095087,5.3076407 76.8830161,5.41053297 C77.0051138,5.31407147 77.1400623,5.2111795 77.2750125,5.10185647 C77.9369107,4.5616721 78.6052367,4.02148761 79.2607087,3.46844165 C80.0961143,2.76748812 81.0343406,2.54241121 82.1139415,2.68388808 C83.990391,2.92182645 85.7318838,3.55204163 87.4091212,4.36874898 C88.9321298,5.10828714 90.3716024,5.98930221 91.6311369,7.13397861 C92.0424135,7.50696309 92.4151282,7.93139328 92.7749952,8.3493931 C92.9549287,8.5616084 93.096305,8.81883926 93.2248289,9.07606993 C93.5718436,9.77059273 93.5075832,10.4393919 93.0577494,11.0760377 C92.7364396,11.5261914 92.3251614,11.8798838 91.8753277,12.1885606 C90.6993338,12.9988372 89.394819,13.5518829 88.0388915,13.9698827 C87.0171263,14.2849903 85.9696548,14.5293596 84.9286109,14.793021 C84.3695318,14.9344979 83.829736,15.0952667 83.3349189,15.3975127 C82.653742,15.8155125 82.2745965,16.426436 82.1782035,17.223851 C82.094663,17.8926507 82.3517061,18.3878205 82.904359,18.7479435 C83.4120285,19.0759126 83.9839584,19.185236 84.5815947,19.1723745 C85.1406738,19.1659437 85.6483496,19.0116053 86.1303143,18.7222208 C86.8179173,18.304221 87.5312205,17.9312369 88.334495,17.7961908 C91.014219,17.3524679 93.5332895,18.458559 94.6900049,21.0951733 C94.9534789,21.6932346 95.0370179,22.3234505 94.9856083,22.9729579 C94.972756,23.2108963 94.9470527,23.4552654 94.7542668,23.6803422 C94.3622689,23.6224653 94.0602361,23.4424023 93.796762,23.2044639 Z M38.0045275,25.4102181 C38.1844609,25.5259718 38.3643944,25.6545872 38.5507541,25.7639102 C43.8909233,28.940709 49.6423687,30.5419702 55.8886314,30.271878 C57.3023946,30.2075703 58.7033031,30.0210777 60.0913616,29.7509855 C60.1813283,29.7316932 60.2712958,29.6802467 60.3612626,29.6480928 C60.3548364,29.615939 60.348411,29.5902163 60.3419848,29.5580625 C59.6929389,29.5580625 59.0374654,29.5516317 58.3884195,29.5580625 C56.0878412,29.5773548 53.7936905,29.5323394 51.5059647,29.268678 C49.8994155,29.0821858 48.3057189,28.7928001 46.7505793,28.3490772 C43.9166267,27.5388006 41.3268679,26.2655104 39.1098301,24.2912651 C39.0712729,24.2591112 39.0262919,24.2269566 38.9556037,24.1819412 C38.6021629,24.5484949 38.2551468,24.9086186 37.869575,25.3201877 C37.9338369,25.3652031 37.9723965,25.384495 38.0045275,25.4102181 Z M81.0985994,7.10825545 C80.7066014,7.35905535 80.3146065,7.60342448 79.9290347,7.84779361 C79.7876584,7.93782434 79.6398512,8.02785517 79.6912608,8.22720893 C79.7426703,8.40727039 79.8969038,8.47800844 80.0575587,8.51016227 C80.3081803,8.55517764 80.5395171,8.51016247 80.7580078,8.3686856 C81.2014154,8.0793011 81.6512507,7.80277825 82.1010844,7.52625528 C82.2553132,7.62271677 82.3966942,7.70631665 82.5316443,7.78991661 C82.8529541,7.99570114 83.174264,8.20148568 83.4955738,8.40083943 C83.7590478,8.5616086 84.0353711,8.58733147 84.3116976,8.4458546 C84.5880241,8.31080851 84.6072995,8.08573197 84.3566778,7.91210127 C84.067499,7.70631674 83.7590478,7.53268594 83.4634428,7.33976295 C83.2963617,7.23687068 83.1357021,7.12111678 82.93649,6.99250145 C83.296357,6.76099386 83.6048191,6.56807096 83.9132766,6.37514796 C84.0610791,6.27868646 84.2153015,6.1950865 84.3566778,6.08576346 C84.6008733,5.89927122 84.5815994,5.693487 84.305273,5.55201013 C84.2345848,5.51342553 84.1510458,5.49413323 84.0739315,5.48770246 C83.8361622,5.45554863 83.624093,5.51342553 83.4184547,5.64847163 C82.9814733,5.93785612 82.5252166,6.20794831 82.0882352,6.48447128 C81.6062705,6.18222527 81.1564351,5.90570229 80.7130276,5.61631779 C80.4752583,5.46197939 80.218212,5.44911776 79.9675904,5.52628696 C79.8519188,5.5584408 79.7362457,5.68062526 79.6848361,5.7899483 C79.614148,5.93785592 79.7426688,6.04074809 79.8583403,6.11791729 C80.0511262,6.24653263 80.2503446,6.36871739 80.4431305,6.49090195 C80.7130307,6.63880958 80.9765032,6.80600941 81.2528296,6.97964012 C81.1821415,7.03751701 81.1435827,7.07610161 81.0985994,7.10825545 Z" id="Vector"></path>
                    <path d="M18.6799387,17.0930086 C17.125363,17.8312858 15.518534,18.4573444 13.8463853,18.9475604 C13.6243031,19.0125288 13.4283479,19.0243409 13.2062657,18.9416538 C11.9325587,18.4927814 10.6523195,18.0616289 9.38514435,17.6068502 C8.73196125,17.3706015 8.11796917,17.0575711 7.55623169,16.6618546 C7.01408971,16.2838567 6.55032997,15.8408909 6.26946123,15.2679879 C5.91021053,14.535617 5.91674217,13.7973393 6.24986554,13 C7.05981255,13.3957165 7.82403635,13.8091523 8.62745156,14.1458067 C9.43739857,14.4883673 10.2800059,14.7718655 11.122612,15.0435515 C11.9782819,15.3270499 12.8404834,15.5869229 13.7157487,15.8172654 C14.5779504,16.0476078 15.4466836,16.2484198 16.3154171,16.4315125 C17.1906824,16.6146052 18.0659482,16.7563546 19,16.9217287 C18.8628316,16.9926033 18.7713843,17.0457589 18.6799387,17.0930086 Z" id="Vector" fill-rule="nonzero"></path>
                    <path d="M35.7282798,8.2191269 C34.5466094,8.20578702 33.3838964,8.40588556 32.2211834,8.59264381 C31.0079176,8.786072 29.9273503,9.31299643 28.8657428,10 C28.7709565,9.93997056 28.6635334,9.88661147 28.5750661,9.80657222 C27.9684332,9.25963736 27.8167739,8.20578691 28.2401531,7.48543365 C28.4929168,7.06522758 28.8467863,6.77175075 29.2575274,6.55831275 C29.9083939,6.21147602 30.6034935,6.03138751 31.3365083,6.00470776 C32.612965,5.9580182 33.8072741,6.25816556 34.9131153,6.92515931 C35.2101126,7.10524763 35.4818321,7.34536537 35.7409149,7.59215306 C35.9620831,7.79225118 35.9684045,7.87896038 36,8.19911739 C35.9115327,8.20578733 35.8167471,8.2191269 35.7282798,8.2191269 Z" id="Vector" fill-rule="nonzero"></path>
                    <path d="M90.1104341,28.620438 C89.5463746,28.2350365 89.0063205,27.8262774 88.4182583,27.4817518 C87.7461874,27.0846715 87.0381141,26.7518245 86.3420405,26.3956201 C86.2340291,26.3372259 86.114012,26.2905102 86,26.2437949 C87.0981159,25.8291964 88.1842365,25.4204379 89.3063551,25 C89.3483595,25.0408759 89.4263663,25.0992701 89.4923733,25.1751825 C90.2004481,26.0043796 90.7285009,26.9211686 90.9445237,27.9897817 C91.0165313,28.3109496 91.0405353,28.649635 90.8785182,29 C90.5604846,28.9474453 90.3384582,28.7781022 90.1104341,28.620438 Z" id="Vector" fill-rule="nonzero"></path>
                </g>
            </g>
        </g>
    </g>
</svg>