<svg
  id="eaRPTBU9lWY1"
  xmlns="http://www.w3.org/2000/svg"
  xmlns:xlink="http://www.w3.org/1999/xlink"
  viewBox="0 0 548 32"
  shape-rendering="geometricPrecision"
  text-rendering="geometricPrecision"
  width="548"
  height="32"
>
  <g id="stroke-line">
    <defs>
      <polygon id="eaRPTBU9lWY2" points="0,0 548,0 548,32 0,32" />
    </defs>
    <g mask="url(#eaRPTBU9lWY12)">
      <g>
        <g transform="translate(-876-192)">
          <g transform="translate(876 143)">
            <g transform="translate(0 49)">
              <g mask="url(#eaRPTBU9lWY10)">
                <path
                  d="M298.074903,18.507789c.002812.130237.005625.261859.008437.392095h-40.082295c.018281-.130236.037969-.261858.05625-.392095h40.017608Zm56.594462-4.065036c0,.078973-.001406.156561-.001406.234148h-51.779468c.001406-.077587.001406-.155175.002812-.234148h51.778062Zm44.108384-5.625102c0,.518175,0,1.036349,0,1.553138-7.468584,0-14.935763,0-22.404348,0-7.482647,0-14.9667,0-22.449347,0-.094219-.516789-.188438-1.034963-.282656-1.553138h45.136351Zm-71.864913,8.804808c0-.116381,0-.232762,0-.349144h73.597411c.047813.116382.097031.232763.14625.349144h-73.743661Zm-152.279815-3.58427c-.001406-.611002-.001406-1.22339-.002812-1.834393h65.729451c.004219.611003.007031,1.223391.01125,1.834393h-65.737889Zm71.698976-3.484515l97.872068-2.171068c.164532-.002771.30375.088672.309375.207824l.104336,1.81084c.006758.120538-.122617.220293-.289961.225835-32.612304.877017-65.224608,1.75542-97.838318,2.633822-.164532.004157-.30375-.088671-.310781-.206438l-.138083-2.27498c-.006761-.120537.12402-.221678.291364-.225835v0ZM417.78882,9.806893c21.023412.663651,42.07073,1.065444,63.060392,2.076854c16.927011.816056,33.756991,2.680929,50.685407,3.44295c7.080461.318664,13.495765,1.156887,16.392637-6.903911.781874-2.17661-4.926088-2.252812-8.147803-2.420457-29.439808-1.525427-58.875397-3.136756-88.346143-4.277016-106.58237-4.127384-212.993179.073431-319.471487,2.999592-2.525622.07066-5.093431.419804-7.610616.604075C106.363885,6.636885,88.292189,7.36704,70.23596,7.958646c-9.111082.297881-18.223571.545884-27.340279.742624-4.009214.087286-8.025459.162103-12.029048.268785-5.474524.146863-12.058579.579137-17.462791,1.443684C6.54135,11.512435,1.729168,14.094994,0.369326,19.22686C-0.71911,23.332076,-0.056767,30.133461,11.5715,31.502328c4.379058.516789,12.697016.633171,22.764348.339446C73.7558,30.6932,113.151846,29.137292,152.559142,27.760112c41.336668-1.446455,82.662087-3.753301,124.017037-4.076121c56.439775-.441972,112.90205.691361,169.355888,1.037735c24.63747.151018,49.277753.026324,73.573505.026324-4.353745-.552812-9.233427-1.172127-14.113108-1.790057.049218-.321434.098437-.642869.149062-.964303h19.432945c.004219-.292339.008438-.584678.012656-.875632-1.968747-.2674-3.936089-.5348-5.90343-.8022.03375-.182885.0675-.364385.10125-.545884h8.54999c.099843-1.97987.054843-1.097311.154687-3.07718-36.812768-1.921679-73.625536-3.844744-110.43971-5.766422.1125-.374083.226406-.746781.338906-1.119479v0Z"
                  fill="#232323"
                  fill-rule="evenodd"
                />
                <mask
                  id="eaRPTBU9lWY10"
                  mask-type="luminance"
                  x="-150%"
                  y="-150%"
                  height="400%"
                  width="400%"
                >
                  <use
                    width="548"
                    height="32"
                    xlink:href="#eaRPTBU9lWY2"
                    fill="#fff"
                    fill-rule="evenodd"
                  />
                </mask>
              </g>
            </g>
          </g>
        </g>
      </g>
      <mask
        id="eaRPTBU9lWY12"
        mask-type="luminance"
        x="-150%"
        y="-150%"
        height="400%"
        width="400%"
      >
        <path
          id="eaRPTBU9lWY13"
          class="stroke-mask"
          d="M0,22.957993Q377.179071,0.784016,548,19.769974"
          fill="none"
          stroke="#fff"
          stroke-width="26"
          stroke-linecap="round"
          stroke-dashoffset="548.540316"
          stroke-dasharray="548.540316"
        />
      </mask>
      <style>
        #eaRPTBU9lWY13 {
          transition: all .7s;
        }
        svg.over #eaRPTBU9lWY13 {
          stroke-dashoffset: 0;
        }
      </style>
    </g>
  </g>
</svg>