<svg width="30px" height="26px" viewBox="0 0 30 26" version="1.1" xmlns="http://www.w3.org/2000/svg" xmlns:xlink="http://www.w3.org/1999/xlink">
    <g id="mainpage" stroke="none" stroke-width="1" fill="none" fill-rule="evenodd">
        <g id="000_MENU" transform="translate(-971.000000, -823.000000)" fill="#F53F4D" fill-rule="nonzero">
            <g id="Group-Copy-3" transform="translate(852.000000, -1.000000)">
                <path d="M149.000038,827.716982 C148.943434,827.773586 148.943434,827.830189 148.88683,827.886793 C148.094377,829.018868 147.132113,829.981133 146.056641,830.830189 L146.000039,830.886793 C145.943435,830.943397 145.943433,830.943396 145.943433,831 C145.943433,831.283019 145.943433,831.566038 145.943433,831.849057 C145.943433,832.811321 145.830226,833.716981 145.660415,834.679245 C145.207584,837.339623 144.188718,839.773585 142.603812,841.981132 C141.358529,843.735849 139.886831,845.264151 138.07551,846.452831 C136.434001,847.528302 134.622679,848.320754 132.641546,848.773584 C131.962301,848.943396 131.226452,849.056604 130.547206,849.113208 C130.15098,849.169812 129.754753,849.16981 129.358527,849.226414 C128.849093,849.283018 128.33966,849.226414 127.830226,849.226414 C127.320792,849.226414 126.811358,849.169812 126.358527,849.113208 C125.679282,849.056604 125.000037,848.886792 124.320791,848.773584 C122.452867,848.320754 120.69815,847.584906 119.113244,846.566039 C119.075509,846.566038 119.056641,846.547169 119.056641,846.509433 C122.396263,846.849056 125.452867,845.999999 128.113245,843.962264 C127.603811,843.90566 127.094376,843.849057 126.641546,843.73585 C126.132112,843.622642 125.679282,843.396227 125.226452,843.169812 C124.773622,842.943397 124.377395,842.603773 124.037772,842.264151 C123.584942,841.81132 123.24532,841.415094 122.962301,841.018867 C122.679282,840.566037 122.452867,840.113208 122.283056,839.603774 C123.188716,839.773585 124.094376,839.716981 125.056641,839.490566 C123.132112,839.037736 121.717018,837.962265 120.811358,836.264152 C120.358528,835.358491 120.132112,834.396227 120.132112,833.377359 C120.981169,833.830189 121.886829,834.113208 122.849094,834.113208 C121.264188,832.924528 120.358527,831.396227 120.188716,829.415095 C120.132112,828.226416 120.415131,827.037736 121.037773,825.905661 C122.849094,828.056604 125.000037,829.754717 127.547207,830.886793 C128.962301,831.509434 130.377395,831.905661 131.905697,832.18868 C132.528338,832.301887 133.15098,832.35849 133.773622,832.35849 C133.717018,832.188679 133.717018,832.018868 133.660414,831.849057 C133.60381,831.339623 133.60381,830.830189 133.660414,830.320755 C133.717018,829.584906 133.943433,828.905661 134.283056,828.226416 C135.188716,826.528302 136.603812,825.396227 138.471737,824.943397 C139.037775,824.830189 139.547207,824.773586 140.113245,824.830189 C141.528339,824.886793 142.830227,825.396227 143.905698,826.358491 C144.018906,826.471699 144.132113,826.528302 144.24532,826.64151 C144.301924,826.698114 144.35853,826.698114 144.415133,826.698114 C145.26419,826.528303 146.113245,826.245284 146.905698,825.905661 C147.301924,825.73585 147.754755,825.509435 148.150982,825.28302 C148.207585,825.28302 148.207586,825.226416 148.26419,825.226416 C148.037774,825.905661 147.245322,827.603774 145.547209,828.622642 C146.735888,828.509434 147.867963,828.169812 149.000038,827.716982 Z" id="Vector"></path>
            </g>
        </g>
    </g>
</svg>