<?xml version="1.0" encoding="UTF-8"?>
<svg width="515px" height="279px" viewBox="0 0 515 279" version="1.1" xmlns="http://www.w3.org/2000/svg" xmlns:xlink="http://www.w3.org/1999/xlink">
    <title>AMPLIFY ARTISTS</title>
    <g id="mainpage" stroke="none" stroke-width="1" fill="none" fill-rule="evenodd">
        <g id="Group-17-Copy-3" transform="translate(-37.000000, -1021.000000)" fill="#FFFFFF" fill-rule="nonzero">
            <g id="AMPLIFY-ARTISTS" transform="translate(37.110000, 1021.400000)">
                <path d="M0.09,129.6 L34.47,129.6 L35.37,119.7 L46.71,119.7 L47.61,129.6 L81.99,129.6 L62.91,0 L18.09,0 L0.09,129.6 Z M39.87,73.8 L40.77,47.34 L42.03,73.8 L43.83,91.26 L38.25,91.26 L39.87,73.8 Z" id="Shape"></path>
                <polygon id="Path" points="81.99 129.6 118.35 129.6 118.35 106.92 112.41 26.82 124.11 129.6 154.71 129.6 166.41 28.62 160.65 106.74 160.65 129.6 196.47 129.6 196.47 0 143.91 0 140.49 44.46 139.59 95.94 138.69 44.46 135.09 0 81.99 0"></polygon>
                <path d="M200.07,129.6 L234.63,129.6 L234.63,105.12 L236.43,105.12 C263.43,105.12 273.87,92.16 273.87,70.2 L273.87,32.22 C273.87,11.16 263.79,0 236.61,0 L200.07,0 L200.07,129.6 Z M234.63,28.98 C237.69,28.98 238.59,31.14 238.59,33.84 L238.59,69.3 C238.59,73.26 237.15,74.7 234.63,74.7 L234.63,28.98 Z" id="Shape"></path>
                <polygon id="Path" points="277.29 0 277.29 129.6 333.09 129.6 333.09 93.42 314.01 93.42 314.01 0"></polygon>
                <polygon id="Path" points="336.33 129.6 372.87 129.6 372.87 0 336.33 0"></polygon>
                <polygon id="Path" points="376.65 129.6 411.39 129.6 411.39 82.44 433.53 82.44 433.53 47.52 411.39 47.52 411.39 34.92 433.53 34.92 433.53 0 376.65 0"></polygon>
                <polygon id="Path" points="454.41 129.6 490.95 129.6 490.95 90.9 513.99 0 478.53 0 473.67 26.82 472.95 54.72 471.69 26.82 467.37 0 431.55 0 454.41 94.5"></polygon>
                <path d="M0,275.6 L36.099,275.6 L37.044,265.205 L48.951,265.205 L49.896,275.6 L85.995,275.6 L65.961,139.52 L18.9,139.52 L0,275.6 Z M41.769,217.01 L42.714,189.227 L44.037,217.01 L45.927,235.343 L40.068,235.343 L41.769,217.01 Z" id="Shape"></path>
                <path d="M85.995,275.6 L122.661,275.6 L122.661,229.295 C125.496,229.484 126.63,230.429 126.63,235.154 L126.63,265.394 C126.63,270.875 127.008,274.655 129.087,275.6 L164.808,275.6 C162.54,273.521 162.162,271.442 162.162,265.205 L162.162,234.587 C162.162,222.302 160.461,216.443 151.389,213.608 C159.894,210.584 162.54,204.347 162.54,190.739 L162.54,172.217 C162.54,145.379 151.389,139.52 126.252,139.52 L85.995,139.52 L85.995,275.6 Z M123.039,170.138 C126.063,170.138 126.819,171.083 126.819,174.674 L126.819,194.33 C126.819,197.543 126.063,198.866 122.661,199.055 L122.661,170.138 L123.039,170.138 Z" id="Shape"></path>
                <polygon id="Path" points="179.172 275.6 217.35 275.6 217.35 174.863 231.525 174.863 231.525 139.52 164.997 139.52 164.997 174.863 179.172 174.863"></polygon>
                <polygon id="Path" points="234.738 275.6 273.105 275.6 273.105 139.52 234.738 139.52"></polygon>
                <path d="M315.252,278.057 C343.413,278.057 355.698,267.473 355.698,243.092 L355.698,228.539 C355.698,211.34 350.406,204.914 329.427,193.385 C315.063,185.447 314.496,184.691 314.496,179.966 L314.496,171.272 C314.496,167.114 314.874,166.736 316.386,166.736 C318.276,166.736 318.276,167.492 318.276,171.839 L318.276,185.825 L355.131,185.825 L355.131,169.382 C355.131,147.269 340.956,136.874 316.764,136.874 C289.17,136.874 276.507,149.348 276.507,172.217 L276.507,180.344 C276.507,199.433 281.232,204.914 301.455,216.443 C317.709,225.326 318.087,226.082 318.087,233.642 L318.087,241.391 C318.087,245.549 317.331,245.927 316.008,245.927 C314.685,245.927 314.118,245.36 314.118,241.958 L314.118,224.948 L275.94,224.948 L275.94,243.092 C275.94,267.095 286.902,278.057 315.252,278.057 Z" id="Path"></path>
                <polygon id="Path" points="372.141 275.6 410.319 275.6 410.319 174.863 424.494 174.863 424.494 139.52 357.966 139.52 357.966 174.863 372.141 174.863"></polygon>
                <path d="M465.696,278.057 C493.857,278.057 506.142,267.473 506.142,243.092 L506.142,228.539 C506.142,211.34 500.85,204.914 479.871,193.385 C465.507,185.447 464.94,184.691 464.94,179.966 L464.94,171.272 C464.94,167.114 465.318,166.736 466.83,166.736 C468.72,166.736 468.72,167.492 468.72,171.839 L468.72,185.825 L505.575,185.825 L505.575,169.382 C505.575,147.269 491.4,136.874 467.208,136.874 C439.614,136.874 426.951,149.348 426.951,172.217 L426.951,180.344 C426.951,199.433 431.676,204.914 451.899,216.443 C468.153,225.326 468.531,226.082 468.531,233.642 L468.531,241.391 C468.531,245.549 467.775,245.927 466.452,245.927 C465.129,245.927 464.562,245.36 464.562,241.958 L464.562,224.948 L426.384,224.948 L426.384,243.092 C426.384,267.095 437.346,278.057 465.696,278.057 Z" id="Path"></path>
            </g>
        </g>
    </g>
</svg>