<svg id="ediMV8QBCHU1" xmlns="http://www.w3.org/2000/svg" xmlns:xlink="http://www.w3.org/1999/xlink" viewBox="0 0 419 42" shape-rendering="geometricPrecision" text-rendering="geometricPrecision" width="419" height="42" preserveAspectRatio="none">
	<g mask="url(#ediMV8QBCHU8)">
		<g>
			<g transform="translate(-515-664)">
				<g transform="translate(426 213)">
					<path d="M95.865484,483.983789c1.183958.440673,2.472206.786231,4.0088.921717c2.984653.348296,6.900417-.135486,10.903214-1.029148c2.002524-.435883,4.03581-.961406,6.049589-1.506088c1.049655-.274394,1.897483-.526207,2.827843-.786916l1.205716-.346242.787054-.238128c2.097811-.636375,4.169362-1.284383,6.228158-1.937865c8.119638-2.626245,16.217518-5.246331,24.296641-7.859575c4.010301-1.276856,8.010097-2.523604,11.997888-3.699187c1.994271-.590529,3.98329-1.156424,5.967057-1.698369l2.969648-.790337l2.668781-.672642c.986632-.305186,2.01678-.618584,3.280268-.745859.31062-.023949.633995-.031476.949867.021897.316623.041056.622741.216915.700021.474202.115545.511837-.186822.975091-.463679,1.423291-.295615.452989-.682764.880661-1.048906,1.36718-.192074.252497-.348885.474202-.560466.788284-.560467.791705-1.310007,1.870806-1.974764,3.183244-.168815.362666-.331628.695223-.490689,1.089365l-.229589.645271c-.073529.215546-.145556.417407-.209331.706855-.063775.26892-.120797.539208-.170316.810181-.05252.261393-.075029.663062-.091535.990145l-.009754.515943c.006002.189544.032262.422197.058523.631585.02776.214178.063024.428356.10504.640481l.068277.316135.117045.364718c.176318.489256.364641.959352.651252,1.419185.294863.459832.644499.921033,1.019644,1.305595.373644.359244.785553.697276,1.215469.997672.381898.240865.772799.450937,1.178706.645271.216084.106747.377396.164226.546962.225811l.516949.177227.518451.157383.434418.095114c.28511.058163.59498.120432.862833.158067l.742787.076639c1.917742.140961,3.275016-.033529,4.592526-.210072c1.296501-.190913,2.488712-.435883,3.641907-.70275c4.558012-1.094839,8.641841-2.494864,12.705412-3.944842c4.045563-1.458873,7.997341-3.000543,11.916106-4.570268c3.916514-1.57041,7.795513-3.174349,11.655755-4.771445l5.772732-2.378538l4.86338-1.964551c.922856-.361297,1.893732-.781442,2.94939-.802654.5177-.020529,1.066162.123169,1.415047.481045.352636.348295.528954.807443.652752,1.26317.114794.461201.185322.934035.246845,1.411658l.216834,1.773639c.120797.949089.295614,2.111671.582225,3.245513.253598,1.13658.707524,2.363484,1.295001,3.576702.684264,1.273435,1.547848,2.503076,2.668031,3.515118.256599.273025.573972.487887.872587.720541.307619.223073.598732.466675.928859.65964.67076.366087,1.322762.793758,2.04304,1.04694c2.855604,1.169425,5.523635,1.393867,8.031855,1.434239l1.847964-.044478c.612987-.023949,1.261988-.078007,1.872724-.147803c1.24248-.130012,2.428689-.350349,3.59614-.592582c2.324399-.501573,4.523499-1.167372,6.640817-1.915968c4.235387-1.499245,8.178912-3.303676,12.017395-5.166271c3.836233-1.864648,7.558422-3.816198,11.247598-5.666476l2.757316-1.358969c1.001637-.482413,1.62888-.772546,2.12032-.994251c1.06166-.468043,2.139076-.919664,3.271264-1.225535.565719-.149856,1.149444-.260709,1.739923-.255234.585226-.00479,1.197463.188175,1.563604.622005.355638.436567.478685.988092.507946,1.521826.030762.53784-.012004,1.077732-.098288,1.609413-.080281.533734-.204829,1.059257-.327126,1.584096-.061524.262761-.122297.525522-.171066.789652l-.080281.412618-.113294.713698c-.080281.444778-.138804,1.03736-.204829,1.566304-.048019.550841-.101289,1.09826-.119296,1.664839-.02626.56179-.030012,1.134527-.008253,1.718897c0,.286711.030761.589161.05177.885451l.036014.445463.066775.502257c.348135,2.741888,1.541846,5.539886,3.770958,7.471592c1.111179.962774,2.448947,1.694948,3.884251,2.191731c1.441308.490625,2.982403.736279,4.531752.808812c1.537344.064322,2.74156-.021212,4.003548-.161489c1.239479-.143697,2.427938-.355138,3.584135-.604214c2.312394-.500204,4.491236-1.157108,6.610806-1.878333c4.229384-1.454083,8.214925-3.18256,12.097676-4.991097c1.94025-.903926,3.852739-1.833855,5.733716-2.751467l5.640681-2.75831c3.719187-1.811959,7.432373-3.542489,11.183823-5.06363c3.734193-1.503351,7.560672-2.852056,11.186824-3.539067.444172-.08485.912353-.160805,1.315258-.210757l.31062-.041741.210082-.021212c.138803-.015738.278357-.026687.417911-.034898.557466-.034214,1.120933-.031477,1.673147.050636.548462.087587,1.097674.239496,1.560603.530997.468181.281921.837324.68838,1.075166,1.15095.245345.460516.360889.968932.41566,1.475979.027011.25455.033763.509785.035264.765703-.009754.25455-.017257.501573-.05177.807444l-.020258.218284-.044267.300396-.090035.607636-.256599,1.350757c-.215333,1.042834-.366892,2.134936-.483187,3.247566-.036764.572738-.096787,1.127-.092285,1.72574.00075.303134-.013506.571369.002251.903927l.057022.992882c.1313,1.410974.453925,2.829474,1.045154,4.13507.588977,1.307648,1.451811,2.512655,2.567492,3.490483c1.11193.981934,2.449697,1.737373,3.888003,2.270422.910852.346928,1.868972.596688,2.839848.79239.922106.175859,1.738422.281237,2.544233.35377c1.610122.142329,3.150468.157383,4.660051.124538c3.001161-.095114,5.887526-.383194,8.725873-.759545c5.660188-.773914,11.204832-1.827696,16.731468-3.000543c11.02101-2.397013,21.837941-5.447508,32.211451-9.204858c6.706092-2.468862,6.305437-4.646223-.525953-3.061444-10.950483,2.488022-21.604601,4.717388-32.430536,6.644304-2.127072.34898-4.284906.745859-6.463749,1.172847-2.181093.387299-4.390697.778704-6.612306,1.172846-4.428962.748596-8.956962,1.402078-13.253873,1.369233l.302367-.936772c2.459451.008211,5.025443-.210072,7.598187-.524154c1.286747-.152593,2.579497-.338716,3.872997-.537155c1.2935-.199808,2.58775-.449569,3.882751-.671958c1.2935-.236074,2.590751-.442041,3.882751-.702065l3.875248-.808128c2.5885-.511837,5.159744-1.135896,7.73624-1.734636c11.544713-2.738466,23.004643-5.9265,34.38129-9.355399c11.373647-3.438478,22.688771-7.085661,33.901105-10.983972.611486-.210072,1.212468-.452305,1.808199-.713698c2.659778-1.163266,3.889503-2.206785,3.806221-2.800735-.07728-.597371-1.441307-.756807-4.041812-.190228-.408909.092377-.823819.186807-1.246232.281921-2.601256.612426-5.773482,1.721634-8.705615,2.650195-8.075372,2.561923-16.187508,5.012309-24.322902,7.347738-8.136145,2.327901-16.292548,4.576426-24.47296,6.604616-8.17516,2.028873-16.37583,3.918155-24.52323,5.418084l-6.078849,1.007936c-2.013028.303818-4.005049.557684-5.935545.743806-1.925994.18407-3.800969.290817-5.474116.268236-.820817-.018475-1.615374-.055426-2.254621-.147119-.354887-.032161-.578474-.09922-.782553-.125222-.045767-.017107-.089284-.035583-.13055-.056111-.171817-.079376-.288112-.22102-.326376-.373614-.018758-.076638-.018758-.153961-.010504-.225126-.000751.006159.012754-.101957.010504-.162857l-.006003-.10401.010504-.207335c.002251-.272341.034514-.596003.064525-.922402.081782-.675379.190574-1.406868.368393-2.197889l.324125-1.572462c.066776-.305187.111793-.64185.165064-.963459l.076529-.487887.018007-.12317.019508-.166278.036764-.332558c.044267-.449568.092286-.876555.109542-1.347336l.036765-1.444503c-.035264-.957984-.07578-1.918021-.246095-2.854108-.325626-1.868754-.950618-3.671817-1.977765-5.262755-1.984517-3.242776-5.530388-5.535095-9.529434-6.396596-2.005525-.449568-4.134098-.572738-6.263421-.461885-.531955.015054-1.065411.067743-1.597367.116326l-.652752.073902-.581475.073217c-.739036.101273-1.424051.214862-2.106064.343506-5.370576,1.055835-9.80479,2.693304-14.121959,4.414938-4.283406,1.73532-8.346977,3.642392-12.267242,5.549465-3.850488,1.872859-7.687472,3.768299-11.354889,5.461194-3.683174,1.690842-7.358094,3.235933-10.873953,4.373197-1.749677.566579-3.458837,1.0182-4.968421,1.28712-.75104.133434-1.44881.217599-2.022782.247023-.12905.002737-.312121.019844-.370643.012317l-.159812.003422c-.003751.004789.003752-.002053-.004502.003421l-.006002-.000684c.003001-.019844.003001-.056795-.009003-.082113-.007503.005474-.011255-.067743-.015006-.131381l-.015006-.186123c-.017257-.116326-.016506-.262077-.019508-.40509-.023259-.560421.012005-1.234431.091536-1.952235l.060023-.542629.123798-.754755.061524-.377719.015756-.097167.039015-.183386.07878-.366087.313621-1.463662c.210082-.97646.36014-1.934444.54246-2.902008.087034-.482413.100539-.936772.15456-1.406184.036014-.462569.112543-.942246.089284-1.378813.066776-1.822907-.186072-3.478166-.652002-4.979464-.479435-1.497877-1.210217-2.810999-2.229111-4.030376-1.047405-1.186532-2.491713-2.320374-4.030558-2.986173-1.523839-.703434-3.094196-1.055836-4.788351-1.189269-1.691904-.121801-3.523362.032161-5.438102.451621-1.91324.423566-3.885002,1.084575-5.835756,1.857805l-1.461565.601477-1.450311.643902-1.252984.568632-1.026397.489941c-2.055794.991513-4.006548,1.989185-5.919038,2.97454-3.818226,1.967973-7.490145,3.890784-11.122299,5.613787-3.619399,1.718897-7.219291,3.251672-10.604599,4.28082-1.6799.502942-3.306528.880661-4.717074,1.047624-.366891.044478-.664006.076639-1.039902.090325l-1.111929.037635c-.667758-.018476-1.337017-.029424-1.78344-.112906-.288861-.010264-.416411-.081428-.594229-.108799l-.131301-.01916c-.047268-.00479-.033013-.020528-.053271-.026002-.024759-.015739-.05327-.022581-.087033-.020529-.048019.013686-.037515-.024633-.060024-.026686-.012755-.012317-.047268.002737-.063024-.008212-.007503-.04653-.087784-.018475-.093036-.066374-.097538-.045162-.084783-.059532-.214583-.244286-.030762-.074586-.066776-.146435-.108792-.217599-.039015-.08485-.069777-.20802-.110293-.308608-.089284-.179964-.144055-.511837-.229588-.767756-.059273-.341453-.143306-.619268-.195076-1.019569l-.090035-.572737-.096037-.82113-.268603-2.559186c-.125299-.927191-.215334-1.869437-.432168-2.747361-.154559-.914191-.458427-1.727793-.722529-2.56466l-.51845-1.161214c-.166565-.392089-.408158-.722594-.607735-1.086628-.882341-1.383602-2.04379-2.585188-3.54287-3.541804-1.521588-.930613-3.228498-1.477348-4.972922-1.670313l-1.316759-.123854c-.451674.004105-.909351.034214-1.363277.050636l-.682013.02874-.340632.014369-.351136.061585-1.406043.257287c-.469682.098536-.931861.140961-1.407544.286711-.474934.137539-.947617.257287-1.42255.409881l-1.423301.472833-1.415797.522101-2.253871.865608-1.528341.611057c-8.054363,3.263988-15.825867,6.574508-23.664147,9.622266-3.907511,1.519773-7.818022,2.980699-11.680515,4.258923-1.926745.633638-2.255372,1.038729-1.671646.372245.571721-.665114,1.00914-1.309016,1.518587-1.961814.902599-1.281646,1.635632-2.51813,2.137576-3.697819.158311-.303133.244594-.586423.338381-.871765l.28586-.855343c.07653-.280553.124548-.553578.188323-.830709.064525-.276447.123798-.551525.138804-.820445.142555-1.089365.1313-2.1452-.204829-3.316678-.174068-.586423-.462179-1.189953-.854581-1.75448-.396903-.54605-.87934-1.034622-1.385785-1.397972-.996386-.769124-2.09481-1.252222-3.291523-1.639521-2.35591-.785547-5.35557-.988777-8.680855-.743122-3.327537.247707-6.88166.92377-10.315738,1.69221l-1.901235.446831-1.650638.415355-3.205989.847816c-8.489532,2.321743-16.707458,4.965779-24.890121,7.630343-8.17366,2.662512-16.288797,5.408505-24.390428,7.915002l-2.102313.666483-1.771435.548788c-1.207216.360612-2.467704.718488-3.794216,1.002462-.663257.138907-1.34377.260024-2.04154.326399-.693268.058163-1.418798.088955-2.105313-.075955-.339131-.081429-.668509-.223073-.906351-.446831-.240093-.222389-.369142-.515259-.407407-.806075-.069777-.587792.113294-1.16053.338381-1.703843.787054-1.751058,1.703908-3.164085,2.556238-4.684543c1.031648-1.825644,1.936498-3.426161,2.680786-4.743389.949117-1.68879,1.534343-3.10729,1.650638-4.174758.111043-1.060626-.212332-1.803063-1.174954-2.028189-.961122-.233338-2.384422.003421-4.131847.682905-.436669.170385-.894346.367456-1.36928.593266-.235591.116327-.477184.236075-.72553.35856l-.188323.09922-.250597.156699c-.167314.108115-.33613.217599-.507946.327767-1.543347,1.063362-3.283269,2.396329-5.059956,3.94621-1.762431,1.55125-3.597641,3.340628-5.154492,5.262754-1.575609,1.920758-2.812838,3.951-3.486598,5.882023-.653503,1.937865-.814815,3.725189-.418662,5.529621.201828.902558.540209,1.859857,1.170452,2.869162.626493,1.014779,1.454813,1.915968,2.265126,2.541395.996385.794443,2.034787,1.356916,3.215743,1.807853Z" fill="#fff" fill-rule="evenodd"/>
				</g>
			</g>
		</g>
		<mask id="ediMV8QBCHU8" mask-type="luminance" x="-150%" y="-150%" height="400%" width="400%">
			<path id="ediMV8QBCHU9" d="M20.916916,3.123425Q-0.93378,27.482223,10.874284,27.771671c11.808064.289448,58.127969-14.872018,66.991145-18.001205s36.842241-9.921293,17.073599,10.767057s41.305716-7.405218,44.066033-9.40672s26.368942-10.976444,24.506722,7.915002s37.46348-3.788827,42.654737-5.689057s25.131714-11.583396,21.247463,5.689057s5.437352,16.538911,35.166844,2.021346s46.829352-12.564646,42.941349,2.557133s13.216843,17.692597,61.324447,2.334744q48.107604-15.357853,52.149415-19.409442" transform="translate(.000004 0)" fill="none" stroke="#fff" stroke-width="20" stroke-linecap="round" stroke-dashoffset="544.244246" stroke-dasharray="544.244246"/>
		</mask>
	</g>
	<style>
		#ediMV8QBCHU9 {
			transition: all .64s;
		}
		#ediMV8QBCHU1.in-view #ediMV8QBCHU9 {
			stroke-dashoffset: 0;
		}
	</style>
</svg>
