<svg id="exfEZkd9GBi1" xmlns="http://www.w3.org/2000/svg" xmlns:xlink="http://www.w3.org/1999/xlink" viewBox="0 0 527 101" shape-rendering="geometricPrecision" text-rendering="geometricPrecision" width="527" height="101" preserveAspectRatio="none">
	<g mask="url(#exfEZkd9GBi5)">
		<path d="M424.245159,28.096159l.177398,1.44658c-49.959374,4.935582-99.674284,10.965435-149.274534,17.427151l-.285569-.646171c49.617558-6.726355,99.358428-13.024093,149.382705-18.22756M76.074206,99.824456c58.38365-12.75296,115.43681-25.278623,173.3748-35.34299c58.230049-10.09359,117.665111-16.57966,176.522545-24.03174c9.354538-1.198177,19.055219-1.670629,28.74292-2.487273c9.692028-.865351,19.379728-1.703101,28.807822-3.623757c6.102948-1.248507,5.906079-5.138525-.350471-5.443752-10.003557-.485441-19.758324-.985493-29.575829-.923798-7.70819-.006494-15.857715,1.168954-23.810369,1.810255l-.041105-1.673877l28.167456-2.373626c21.08665-1.634911,42.210078-2.927254,63.426533-3.953336.577627-.032471,1.150928-.115272,1.726392-.233791c5.114276-1.068294,5.239753-4.258563.398066-5.141772l-1.163909-.193203c-2.433824-.360427-5.475563-.162354-8.264184-.113648-30.813293.365298-61.21554,1.797266-91.650238,4.20661-61.440533,5.239185-121.797203,13.912172-181.390193,24.405155-59.59299,10.517336-118.411483,22.971564-176.712924,36.56065-11.822976,2.758406-18.773977,9.314288-15.450996,14.274224.041105.061695-.041105-.060071,0,0c3.346778,5.010265,15.275761,6.893579,27.243684,4.279669" fill="#fff" fill-rule="evenodd"/>
		<mask id="exfEZkd9GBi5" mask-type="luminance" x="-150%" y="-150%" height="400%" width="400%">
			<path id="exfEZkd9GBi6" d="M44.992062,99.824456Q124.603109,74.921876,263.5,51.5147t263.493896-30.351646" fill="none" stroke="#fff" stroke-width="24" stroke-linecap="round" stroke-dashoffset="489.314798" stroke-dasharray="489.314798"/>
		</mask>
	</g>
	<g mask="url(#exfEZkd9GBi9)">
		<path d="M254.457781,39.654868l-.371845,1.083467c-21.891323-3.49495-43.819399-6.844141-65.764769-10.126932l.410759-1.080228c21.930238,3.282791,43.847504,6.630363,65.725855,10.123693v0ZM501,94.288155c-4.325947-2.081098-8.68216-4.264227-13.265372-6.061908-2.274311-.926372-4.531327-1.925623-6.851038-2.788834l-6.972103-2.59125c-9.337213-3.413974-18.862512-6.508899-28.4678-9.437012-19.221386-5.844891-38.769218-11.006339-58.457573-15.800153-39.404814-9.505032-79.399825-17.471509-119.671558-24.514853C186.727852,19.083575,105.025611,8.679702,22.767764,0.256517c-2.52509-.259125-5.06099-.322286-7.460691-.187865C-5.879473,1.281681,-5.360619,18.283526,18.66233,21.163054c3.257972.395166,6.544049.631617,9.817154.958763C85.1816,27.754548,141.851288,33.843988,198.404233,40.464634c1.407392.165192,2.849374-.087455,6.803476-.246169-6.498649-1.668117-10.403027-2.672227-13.382115-3.436646c14.763564,1.374982,30.087058,2.839039,45.410552,4.387311c1.266869.126324,2.579138.52149,3.800607.863211c6.725647,1.883515,13.26321,4.487723,20.163971,5.522603c12.091465,1.83493,24.433709,2.897343,36.613811,3.959756c3.724941.317428,7.294225-.644574,10.937014-.997632c20.228828,2.795312,41.004615,7.478998,61.853906,11.974819c20.63094,4.440756,41.175404,9.122822,61.520974,14.177381c5.099905,1.230844,10.152247,2.565339,15.200266,3.899833c5.067476,1.294006,10.070096,2.709477,15.061905,4.134665c10.000915,2.811507,19.824554,5.938823,29.282834,9.420816c2.503471,1.00411,5.63173,1.255137,8.524342,1.875418L501,94.288155Z" fill="#fff" fill-rule="evenodd"/>
		<mask id="exfEZkd9GBi9" mask-type="luminance" x="-150%" y="-150%" height="400%" width="400%">
			<path id="exfEZkd9GBi10" d="M0,5.974908Q431.075903,54.25396,506.02874,99.824456" fill="none" stroke="#fff" stroke-width="26" stroke-linecap="round" stroke-dashoffset="516.427142" stroke-dasharray="516.427142"/>
		</mask>
	</g>
	<style>
		#exfEZkd9GBi6, #exfEZkd9GBi10 {
			transition: all .48s;
		}
		#exfEZkd9GBi10 {
			transition-delay: .32s;
		}
		#exfEZkd9GBi1.in-view #exfEZkd9GBi6,
		#exfEZkd9GBi1.in-view #exfEZkd9GBi10 {
			stroke-dashoffset: 0;
		}
	</style>
</svg>
