<?xml version="1.0" encoding="utf-8"?>
<!-- Generator: Adobe Illustrator 27.5.0, SVG Export Plug-In . SVG Version: 6.00 Build 0)  -->
<svg version="1.1" id="Ebene_1" xmlns="http://www.w3.org/2000/svg" xmlns:xlink="http://www.w3.org/1999/xlink" x="0px" y="0px"
	 viewBox="0 0 513.6 311.4" style="enable-background:new 0 0 513.6 311.4;" xml:space="preserve">
<style type="text/css">
	.st0{fill:#FFFFFF;}
</style>
<g id="CLUB" transform="translate(0, 72,603)">
	<path id="Path_00000098919968861769678020000008962758846020889250_" class="st0" d="M67.1,308.8c42.1,0,67.4-19.6,67.4-67.7v-43
		H70.3v40.8c0,11.6-0.6,12.5-3.2,12.5c-3.2,0-3.5-1-3.5-12.5V137.7c0-11.6,0-12.5,3.5-12.5c2.2,0,3.2,0.6,3.2,12.5V175h64.2v-37.2
		c0-47.8-19.9-67.7-65.8-67.7C25,70,0,90.5,0,137.7v103.4C0,291.2,24.7,308.8,67.1,308.8z"/>
	<polygon id="Path_00000098204260579850230910000004824594256316563114_" class="st0" points="140,74.2 140,305.3 239.5,305.3 
		239.5,240.8 205.4,240.8 205.4,74.2 	"/>
	<path id="Path_00000149382203838560584120000013079730512442047159_" class="st0" d="M311.4,308.8c46.2,0,67.1-21.8,67.1-68.7v-166
		h-63.9v162.1c0,11.6-0.3,11.9-3.2,11.9s-3.2-0.6-3.2-11.9V74.2h-63.6v166C244.6,286,262.3,308.8,311.4,308.8z"/>
	<path id="Shape_00000031911026403580739320000009365090243860555670_" class="st0" d="M384.6,305.3h78.6
		c42.1,0,50.4-15.4,50.4-53.9v-27.3c0-23.1-5.5-34-22.5-38.5c17-5.1,21.2-16,21.2-35.6v-26c0-38.2-17.3-49.8-62.9-49.8h-64.8V305.3z
		 M445.5,119.8c4.8,0,5.8,1,5.8,6.4V156c0,6.1-1.6,7.1-4.5,7.1h-2.2v-43.3H445.5z M445.5,211.6c5.1,0,6.4,0.3,6.4,7.1v28.9
		c0,6.7-1,8.3-6.1,8.3h-1.3v-44.3H445.5z"/>
</g>
<g id="MEMBERSHIP" transform="translate(4,536, 0)">
	<polygon id="Path" class="st0" points="0,67.9 23,67.9 23,54.9 19.4,18.6 26.9,67.9 42.4,67.9 49.9,18.3 46.4,54.8 46.4,67.9 
		69.3,67.9 69.3,1.7 37.6,1.7 35.4,22.9 34.8,42.8 34.5,22.9 32.4,1.7 0,1.7 	"/>
	<polygon id="Path_00000165941097832851136050000014522159927050873984_" class="st0" points="71.7,67.9 114.5,67.9 114.5,47.1 
		94.9,47.1 94.9,43.1 114.5,43.1 114.5,25.7 94.9,25.7 94.9,21.8 114.5,21.8 114.5,1.7 71.7,1.7 	"/>
	<polygon id="Path_00000067957324889096145290000006355259335048032677_" class="st0" points="116.6,67.9 139.7,67.9 139.7,54.9 
		136,18.6 143.5,67.9 159.1,67.9 166.5,18.3 163,54.8 163,67.9 185.9,67.9 185.9,1.7 154.2,1.7 152,22.9 151.5,42.8 151.1,22.9 
		149,1.7 116.6,1.7 	"/>
	<path id="Shape" class="st0" d="M188.2,67.9h29.2c15.5,0,21-5.6,21-17.8v-3.1c0-7.7-2.9-11.8-10.1-13.6c6.8-1.8,9.6-5.6,9.6-12.7
		v-2.9c0-11.2-6.6-16-23.4-16h-26.2V67.9z M212.8,19.2c1.7,0,2.2,0.4,2.2,1.7v3.4c0,1.3-0.7,1.7-2.2,1.7h-2.5v-6.7H212.8z
		 M212.6,42.7c2,0,2.5,0.2,2.5,1.7v3.3c0,1.6-0.6,1.8-2.4,1.8h-2.3v-6.8H212.6z"/>
	<polygon id="Path_00000139276016999344775850000000771220158639180454_" class="st0" points="239.7,67.9 282.5,67.9 282.5,47.1 
		262.9,47.1 262.9,43.1 282.5,43.1 282.5,25.7 262.9,25.7 262.9,21.8 282.5,21.8 282.5,1.7 239.7,1.7 	"/>
	<path id="Shape_00000121987057754514359780000017636144861483646396_" class="st0" d="M284.7,67.9h23.5V47.1c1.8,0,2.4,0.2,2.4,3.8
		v12.4c0,2.4,0.4,4,1.5,4.6h23.4c-1.3-0.9-1.8-2.2-1.8-5V50.8c0-8.5-1.4-11.9-8.7-13.2c6.4-1.7,9.6-5.7,9.6-14.5v-3.5
		c0-13-6.1-17.9-23.3-17.9h-26.6V67.9z M308.9,20.1c1.7,0,2.2,1.1,2.2,2.9V27c0,2-0.7,3-2.3,3h-0.7v-9.8H308.9z"/>
	<path id="Path_00000090262619832234006260000000634904177223937160_" class="st0" d="M360.4,69.2c17.9,0,25.6-6.6,25.6-20.9v-2.9
		c0-10.6-4.7-14.9-17.7-19.3c-7.2-2.6-8.8-3.2-8.8-5.2v-1.7c0-1.5,0.5-1.8,1.3-1.8c1.1,0,1.6,0.6,1.6,2.3v3.8h22.9v-4
		C385.5,6.5,376.7,0,360.7,0c-17.2,0-25.1,7.6-25.1,20.4V22c0,10.7,4.7,14.4,17,19c8.3,3,9.7,3.6,9.7,6.1v1.6c0,1.5-0.5,1.8-1.5,1.8
		c-0.8,0-1.4-0.5-1.4-2v-4.3H335v4C334.9,62,341.7,69.2,360.4,69.2z"/>
	<polygon id="Path_00000099633199735852808400000005099680212468560307_" class="st0" points="387.4,1.7 387.4,67.9 411,67.9 
		411,44.3 413.2,44.3 413.2,67.9 436.8,67.9 436.8,1.7 413.2,1.7 413.2,24.4 411,24.4 411,1.7 	"/>
	<polygon id="Path_00000161611229900493667970000005174290794773021330_" class="st0" points="439.1,67.9 463.1,67.9 463.1,1.7 
		439.1,1.7 	"/>
	<path id="Shape_00000054225886642557991640000006488793604217153173_" class="st0" d="M465.4,67.9h22.5V55.8h1.4
		c17.7-0.1,24.4-7.4,24.4-23.6v-7.8c0-15.5-6.7-22.6-24.3-22.6h-24V67.9z M488.4,20.1c1.7,0,2.2,0.8,2.2,4.5v7.3c0,4-0.7,5-2.3,5
		h-0.5V20.1H488.4z"/>
</g>
</svg>
