<?xml version="1.0" encoding="UTF-8"?>
<svg width="515px" height="242px" viewBox="0 0 515 242" version="1.1" xmlns="http://www.w3.org/2000/svg" xmlns:xlink="http://www.w3.org/1999/xlink">
    <title>REWARD COLLECTORS</title>
    <g id="mainpage" stroke="none" stroke-width="1" fill="none" fill-rule="evenodd">
        <g id="Group-17-Copy-3" transform="translate(-37.000000, -531.000000)" fill="#FFFFFF" fill-rule="nonzero">
            <g id="Group-14" transform="translate(37.000000, 531.640000)">
                <g id="REWARD-COLLECTORS" transform="translate(0.032000, 0.000000)">
                    <path d="M0.848,135.36 L37.32,135.36 L37.32,89.3 C40.14,89.488 41.268,90.428 41.268,95.128 L41.268,125.208 C41.268,130.66 41.644,134.42 43.712,135.36 L79.244,135.36 C76.988,133.292 76.612,131.224 76.612,125.02 L76.612,94.564 C76.612,82.344 74.92,76.516 65.896,73.696 C74.356,70.688 76.988,64.484 76.988,50.948 L76.988,32.524 C76.988,5.828 65.896,0 40.892,0 L0.848,0 L0.848,135.36 Z M37.696,30.456 C40.704,30.456 41.456,31.396 41.456,34.968 L41.456,54.52 C41.456,57.716 40.704,59.032 37.32,59.22 L37.32,30.456 L37.696,30.456 Z" id="Shape"></path>
                    <polygon id="Path" points="80.184 135.36 143.54 135.36 143.54 99.076 116.656 99.076 116.656 84.6 143.54 84.6 143.54 49.068 116.656 49.068 116.656 35.344 143.54 35.344 143.54 0 80.184 0"></polygon>
                    <polygon id="Path" points="154.82 135.36 203.136 135.36 207.648 85.164 208.776 41.548 209.716 85.164 213.852 135.36 261.604 135.36 273.824 0 236.036 0 233.216 49.068 233.78 105.656 231.336 48.88 227.2 0 190.164 0 185.84 48.88 183.772 105.656 183.96 49.068 182.08 0 143.352 0"></polygon>
                    <path d="M270.252,135.36 L306.16,135.36 L307.1,125.02 L318.944,125.02 L319.884,135.36 L355.792,135.36 L335.864,0 L289.052,0 L270.252,135.36 Z M311.8,77.08 L312.74,49.444 L314.056,77.08 L315.936,95.316 L310.108,95.316 L311.8,77.08 Z" id="Shape"></path>
                    <path d="M355.792,135.36 L392.264,135.36 L392.264,89.3 C395.084,89.488 396.212,90.428 396.212,95.128 L396.212,125.208 C396.212,130.66 396.588,134.42 398.656,135.36 L434.188,135.36 C431.932,133.292 431.556,131.224 431.556,125.02 L431.556,94.564 C431.556,82.344 429.864,76.516 420.84,73.696 C429.3,70.688 431.932,64.484 431.932,50.948 L431.932,32.524 C431.932,5.828 420.84,0 395.836,0 L355.792,0 L355.792,135.36 Z M392.64,30.456 C395.648,30.456 396.4,31.396 396.4,34.968 L396.4,54.52 C396.4,57.716 395.648,59.032 392.264,59.22 L392.264,30.456 L392.64,30.456 Z" id="Shape"></path>
                    <path d="M435.128,0 L435.128,135.36 L473.668,135.36 C496.98,135.36 514.276,125.396 514.276,97.008 L514.276,38.164 C514.276,9.964 497.92,0 474.232,0 L435.128,0 Z M471.976,31.208 C475.172,31.208 475.924,31.96 475.924,36.66 L475.924,96.632 C475.924,102.648 475.172,103.212 471.788,103.212 L471.788,31.208 L471.976,31.208 Z" id="Shape"></path>
                    <path d="M26.961,240.779 C43.86,240.779 54.051,232.91 54.051,213.56 L54.051,196.274 L28.251,196.274 L28.251,212.657 C28.251,217.301 27.993,217.688 26.961,217.688 C25.671,217.688 25.542,217.301 25.542,212.657 L25.542,172.022 C25.542,167.378 25.542,166.991 26.961,166.991 C27.864,166.991 28.251,167.249 28.251,172.022 L28.251,186.986 L54.051,186.986 L54.051,172.022 C54.051,152.801 46.053,144.803 27.606,144.803 C10.062,144.803 0,153.059 0,172.022 L0,213.56 C0,233.684 9.933,240.779 26.961,240.779 Z" id="Path"></path>
                    <path d="M83.205,240.779 C99.33,240.779 110.424,233.426 110.424,213.56 L110.424,172.022 C110.424,152.672 99.33,144.803 83.205,144.803 C66.435,144.803 55.986,152.543 55.986,172.022 L55.986,213.56 C55.986,233.426 66.177,240.779 83.205,240.779 Z M83.205,217.688 C81.786,217.688 81.786,217.301 81.786,212.657 L81.786,172.022 C81.786,167.378 81.786,166.991 83.205,166.991 C84.624,166.991 84.624,167.378 84.624,172.022 L84.624,212.657 C84.624,217.301 84.624,217.688 83.205,217.688 Z" id="Shape"></path>
                    <polygon id="Path" points="112.746 146.48 112.746 239.36 152.736 239.36 152.736 213.431 139.062 213.431 139.062 146.48"></polygon>
                    <polygon id="Path" points="154.929 146.48 154.929 239.36 194.919 239.36 194.919 213.431 181.245 213.431 181.245 146.48"></polygon>
                    <polygon id="Path" points="197.112 239.36 240.585 239.36 240.585 214.463 222.138 214.463 222.138 204.53 240.585 204.53 240.585 180.149 222.138 180.149 222.138 170.732 240.585 170.732 240.585 146.48 197.112 146.48"></polygon>
                    <path d="M269.61,240.779 C286.509,240.779 296.7,232.91 296.7,213.56 L296.7,196.274 L270.9,196.274 L270.9,212.657 C270.9,217.301 270.642,217.688 269.61,217.688 C268.32,217.688 268.191,217.301 268.191,212.657 L268.191,172.022 C268.191,167.378 268.191,166.991 269.61,166.991 C270.513,166.991 270.9,167.249 270.9,172.022 L270.9,186.986 L296.7,186.986 L296.7,172.022 C296.7,152.801 288.702,144.803 270.255,144.803 C252.711,144.803 242.649,153.059 242.649,172.022 L242.649,213.56 C242.649,233.684 252.582,240.779 269.61,240.779 Z" id="Path"></path>
                    <polygon id="Path" points="308.052 239.36 334.11 239.36 334.11 170.603 343.785 170.603 343.785 146.48 298.377 146.48 298.377 170.603 308.052 170.603"></polygon>
                    <path d="M372.81,240.779 C388.935,240.779 400.029,233.426 400.029,213.56 L400.029,172.022 C400.029,152.672 388.935,144.803 372.81,144.803 C356.04,144.803 345.591,152.543 345.591,172.022 L345.591,213.56 C345.591,233.426 355.782,240.779 372.81,240.779 Z M372.81,217.688 C371.391,217.688 371.391,217.301 371.391,212.657 L371.391,172.022 C371.391,167.378 371.391,166.991 372.81,166.991 C374.229,166.991 374.229,167.378 374.229,172.022 L374.229,212.657 C374.229,217.301 374.229,217.688 372.81,217.688 Z" id="Shape"></path>
                    <path d="M402.351,239.36 L427.377,239.36 L427.377,207.755 C429.312,207.884 430.086,208.529 430.086,211.754 L430.086,232.394 C430.086,236.135 430.344,238.715 431.763,239.36 L456.144,239.36 C454.596,237.941 454.338,236.522 454.338,232.265 L454.338,211.367 C454.338,202.982 453.177,198.983 446.985,197.048 C452.79,194.984 454.596,190.727 454.596,181.439 L454.596,168.797 C454.596,150.479 446.985,146.48 429.828,146.48 L402.351,146.48 L402.351,239.36 Z M427.635,167.378 C429.699,167.378 430.215,168.023 430.215,170.474 L430.215,183.89 C430.215,186.083 429.699,186.986 427.377,187.115 L427.377,167.378 L427.635,167.378 Z" id="Shape"></path>
                    <path d="M482.847,241.037 C502.068,241.037 510.453,233.813 510.453,217.172 L510.453,207.239 C510.453,195.5 506.841,191.114 492.522,183.245 C482.718,177.827 482.331,177.311 482.331,174.086 L482.331,168.152 C482.331,165.314 482.589,165.056 483.621,165.056 C484.911,165.056 484.911,165.572 484.911,168.539 L484.911,178.085 L510.066,178.085 L510.066,166.862 C510.066,151.769 500.391,144.674 483.879,144.674 C465.045,144.674 456.402,153.188 456.402,168.797 L456.402,174.344 C456.402,187.373 459.627,191.114 473.43,198.983 C484.524,205.046 484.782,205.562 484.782,210.722 L484.782,216.011 C484.782,218.849 484.266,219.107 483.363,219.107 C482.46,219.107 482.073,218.72 482.073,216.398 L482.073,204.788 L456.015,204.788 L456.015,217.172 C456.015,233.555 463.497,241.037 482.847,241.037 Z" id="Path"></path>
                </g>
            </g>
        </g>
    </g>
</svg>