<?xml version="1.0" encoding="UTF-8"?>
<svg width="325px" height="222px" viewBox="0 0 325 222" version="1.1" xmlns="http://www.w3.org/2000/svg" xmlns:xlink="http://www.w3.org/1999/xlink">
    <title>Have ANY QUESTIONS</title>
    <g id="mainpage" stroke="none" stroke-width="1" fill="none" fill-rule="evenodd">
        <g id="26_ANY-QUESTIONS" transform="translate(-26.000000, -303.000000)" fill="#FFFFFF" fill-rule="nonzero">
            <g id="Have-ANY-QUESTIONS" transform="translate(26.262000, 303.200000)">
                <polygon id="Path" points="3.048 0 3.048 100.8 23.068 100.8 23.068 59.22 25.168 59.22 25.168 100.8 45.468 100.8 45.468 0 25.168 0 25.168 40.18 23.068 40.18 23.068 0"></polygon>
                <path d="M45.328,100.8 L64.928,100.8 L65.348,93.8 L70.808,93.8 L71.228,100.8 L90.828,100.8 L80.328,0 L55.128,0 L45.328,100.8 Z M67.448,60.06 L67.868,35 L68.568,60.06 L69.688,77.14 L66.328,77.14 L67.448,60.06 Z" id="Shape"></path>
                <polygon id="Path" points="98.528 100.8 124.008 100.8 133.808 0 114.068 0 112.108 34.16 111.548 74.48 110.848 34.16 109.028 0 88.588 0"></polygon>
                <polygon id="Path" points="133.948 100.8 166.148 100.8 166.148 79.94 153.968 79.94 153.968 60.34 166.148 60.34 166.148 39.9 153.968 39.9 153.968 20.58 166.148 20.58 166.148 0 133.948 0"></polygon>
                <path d="M185.328,100.8 L204.928,100.8 L205.348,93.8 L210.808,93.8 L211.228,100.8 L230.828,100.8 L220.328,0 L195.128,0 L185.328,100.8 Z M207.448,60.06 L207.868,35 L208.568,60.06 L209.688,77.14 L206.328,77.14 L207.448,60.06 Z" id="Shape"></path>
                <polygon id="Path" points="230.828 100.8 250.428 100.8 250.428 74.62 245.668 30.38 255.748 100.8 278.288 100.8 278.288 0 259.248 0 259.248 22.82 264.428 71.4 254.488 0 230.828 0"></polygon>
                <polygon id="Path" points="289.628 100.8 310.908 100.8 310.908 73.78 323.368 0 303.348 0 301.108 19.46 300.548 51.24 299.708 19.46 297.608 0 277.448 0 289.628 74.06"></polygon>
                <path d="M19.312,221.178 L38.624,221.32 L32.802,210.244 C36.636,207.404 38.766,202.576 38.766,195.618 L38.766,127.6 C38.766,115.246 31.382,109.424 19.454,109.424 C7.526,109.424 0,115.246 0,127.6 L0,195.618 C0,207.83 6.39,213.084 16.472,213.794 L19.312,221.178 Z M19.454,196.754 C18.46,196.754 18.318,196.612 18.318,193.772 L18.318,128.31 C18.318,125.612 18.46,125.47 19.312,125.47 C20.164,125.47 20.306,125.612 20.306,128.31 L20.306,193.772 C20.306,196.612 20.164,196.754 19.454,196.754 Z" id="Shape"></path>
                <path d="M59.64,213.936 C71.852,213.936 78.81,208.824 78.81,195.618 L78.81,110.56 L60.634,110.56 L60.634,193.346 C60.634,196.186 60.492,196.47 59.782,196.47 C58.788,196.47 58.646,196.47 58.646,193.346 L58.646,110.56 L40.612,110.56 L40.612,195.618 C40.612,208.682 47.286,213.936 59.64,213.936 Z" id="Path"></path>
                <polygon id="Path" points="80.656 212.8 108.204 212.8 108.204 193.63 98.69 193.63 98.69 170.91 108.204 170.91 108.204 152.166 98.69 152.166 98.69 129.446 108.204 129.446 108.204 110.56 80.656 110.56"></polygon>
                <path d="M128.084,213.936 C141.148,213.936 147.538,209.25 147.538,196.044 L147.538,171.336 C147.538,162.816 144.84,159.55 136.32,154.154 C127.374,148.19 127.516,148.19 127.516,145.492 L127.516,127.742 C127.516,125.186 127.658,125.044 128.368,125.044 C129.362,125.044 129.504,125.186 129.504,127.742 L129.504,148.474 L147.254,148.474 L147.254,124.334 C147.254,114.962 140.438,109.424 128.936,109.424 C116.44,109.424 109.624,115.388 109.624,126.18 L109.624,147.196 C109.624,155.574 112.038,158.84 121.552,164.946 C129.078,169.632 129.504,169.916 129.504,173.75 L129.504,194.198 C129.504,197.18 129.22,197.18 128.51,197.18 C127.658,197.18 127.516,197.038 127.516,194.34 L127.516,169.916 L109.34,169.916 L109.34,196.186 C109.34,209.108 115.162,213.936 128.084,213.936 Z" id="Path"></path>
                <polygon id="Path" points="154.638 212.8 173.382 212.8 173.382 129.446 179.346 129.446 179.346 110.56 148.532 110.56 148.532 129.446 154.638 129.446"></polygon>
                <polygon id="Path" points="180.908 212.8 199.368 212.8 199.368 110.56 180.908 110.56"></polygon>
                <path d="M220.526,213.936 C232.028,213.936 239.98,209.25 239.98,195.618 L239.98,127.6 C239.98,115.104 232.596,109.424 220.668,109.424 C208.74,109.424 201.214,115.104 201.214,127.6 L201.214,195.618 C201.214,209.25 208.882,213.936 220.526,213.936 Z M220.668,196.754 C219.674,196.754 219.532,196.612 219.532,193.772 L219.532,128.31 C219.532,125.612 219.674,125.47 220.526,125.47 C221.378,125.47 221.52,125.612 221.52,128.31 L221.52,193.772 C221.52,196.612 221.378,196.754 220.668,196.754 Z" id="Shape"></path>
                <polygon id="Path" points="241.826 212.8 259.434 212.8 259.434 184.968 254.606 137.256 264.262 212.8 284.426 212.8 284.426 110.56 267.244 110.56 267.244 134.842 272.498 186.388 262.842 110.56 241.826 110.56"></polygon>
                <path d="M304.448,213.936 C317.512,213.936 323.902,209.25 323.902,196.044 L323.902,171.336 C323.902,162.816 321.204,159.55 312.684,154.154 C303.738,148.19 303.88,148.19 303.88,145.492 L303.88,127.742 C303.88,125.186 304.022,125.044 304.732,125.044 C305.726,125.044 305.868,125.186 305.868,127.742 L305.868,148.474 L323.618,148.474 L323.618,124.334 C323.618,114.962 316.802,109.424 305.3,109.424 C292.804,109.424 285.988,115.388 285.988,126.18 L285.988,147.196 C285.988,155.574 288.402,158.84 297.916,164.946 C305.442,169.632 305.868,169.916 305.868,173.75 L305.868,194.198 C305.868,197.18 305.584,197.18 304.874,197.18 C304.022,197.18 303.88,197.038 303.88,194.34 L303.88,169.916 L285.704,169.916 L285.704,196.186 C285.704,209.108 291.526,213.936 304.448,213.936 Z" id="Path"></path>
            </g>
        </g>
    </g>
</svg>