<svg id="etTPOgu8xwd1" xmlns="http://www.w3.org/2000/svg" xmlns:xlink="http://www.w3.org/1999/xlink" viewBox="0 0 290 566" shape-rendering="geometricPrecision" text-rendering="geometricPrecision" width="290" height="566" preserveAspectRatio="none">
	<defs>
		<polygon id="etTPOgu8xwd2" points="0,0 62.991048,0 62.991048,52.719771 0,52.719771"/>
		<polygon id="etTPOgu8xwd3" points="0,0 289.123598,0 289.123598,471.7642 0,471.7642"/>
	</defs>
	<g mask="url(#etTPOgu8xwd10)">
		<g>
			<g mask="url(#etTPOgu8xwd8)">
				<path d="M236.038998,152.7032l-.513-.242c4.528-9.041,8.873-18.158,13.055-27.337l3.076-6.909c1.02-2.304,2.077-4.595,3.007-6.932l2.878-6.98c.924-2.312,2.018-4.693,2.717-6.914l.507.267-.59,1.703c-.198.568-.468,1.159-.699,1.738l-1.438,3.487-2.877,6.977c-.929,2.336-1.988,4.624-3.006,6.927l-3.074,6.904c-4.18,9.171-8.52,18.28-13.043,27.311v0Zm-34.891,78.729l-.296-.162c12.424-23.085,24.983-46.125,36.867-69.546l.3.154c-11.887,23.428-24.447,46.47-36.871,69.554v0Zm-23.634,62.939l-2.014-.989c2.499-5.044,4.972-10.096,7.578-15.103c2.573-5.019,5.132-10.041,7.786-15.034c5.247-10.03,10.615-20.02,15.997-30.023l2.179.685c-10.819,20.102-21.535,40.169-31.526,60.464v0Zm39.559-102.247l.445.236c-17.497,32.881-35.706,65.441-52.128,98.987l-.551-.021c16.459-33.632,34.705-66.262,52.234-99.202v0Zm-15.476-175.119l-.402-2.618c4.287-.671,8.637-1.104,13.023-1.269c4.385-.164,8.808-.098,13.238.362c4.427.463,8.856,1.273,13.202,2.521c1.161.317,2.432.717,3.629,1.156c1.193.464,2.517.688,3.438,1.648c1.979,1.591,4.21,3.183,5.707,4.785l2.47,2.404l2.228,2.611c1.553,1.696,2.771,3.625,4.096,5.479.689.914,1.208,1.924,1.787,2.9l1.697,2.951l1.442,3.069c.464,1.03,1,2.032,1.358,3.101c3.33,8.384,5.079,17.297,5.34,26.231l-2.647.089c-.251-8.635-1.942-17.246-5.146-25.318-.342-1.031-.859-1.993-1.305-2.983l-1.385-2.952-1.63-2.832c-.557-.937-1.05-1.91-1.712-2.783-1.273-1.773-2.434-3.629-3.921-5.245l-2.129-2.499-2.358-2.294c-1.467-1.561-3.442-2.966-5.248-4.419-.835-.871-2.034-1.082-3.118-1.5-1.09-.403-2.229-.75-3.314-1.05-4.179-1.201-8.453-1.984-12.741-2.433-4.29-.447-8.592-.512-12.867-.352-4.276.16-8.529.583-12.732,1.24v0Zm74.266,65.294c-.53,6.831-1.852,13.654-4.204,20.176-.531,1.726-1.12,3.067-1.684,4.566l-1.71,4.404c-1.157,2.926-2.243,5.895-3.461,8.789-4.813,11.611-9.842,23.116-15.174,34.427-10.598,22.667-21.934,44.853-33.239,66.929-.114.223-.331.344-.486.272l-2.377-1.103c-.157-.073-.191-.315-.077-.541c11.201-22.116,22.42-44.316,32.879-66.943c5.264-11.292,10.218-22.759,14.949-34.317c1.209-2.876,2.263-5.83,3.401-8.739l1.677-4.378.837-2.189.418-1.096.38-1.176c2.236-6.203,3.446-12.709,3.956-19.207.021-.263.176-.472.348-.468056l3.292.078056c.175.004.298.236.275.516v0Zm-111.794,237.276l-2.563,5.324c-.865,1.773-1.707,3.552-2.486,5.352l-4.792,10.77c-3.14,7.318-6.218,14.603-8.991,21.868-5.54,14.509-9.881,29.253-10.558,44.212-.321,6.036-.023,12.074.848,18.041.517,2.958,1.068,5.941,1.958,8.821.371,1.471.937,2.862,1.399,4.311l.849,2.102.426,1.056.486,1.025c1.219,2.79,2.816,5.388,4.48,7.926L146.5,452.2102l.690998.918.755.865l1.518,1.74l1.641,1.63.825.819.878.759l1.769,1.518l1.872,1.394.943.696c.322.22.656.421.985.632l1.987,1.254l2.072,1.11l1.043.552c.353.171.718.318,1.077.478l2.168.941c4.876,1.923,10.038,3.047,14.24,1.901c4.202-1.061,7.092-4.591,6.998-10.503-.044-1.603-1.492-2.101-3.176-2.199-.437-.063-.893-.095-1.355-.102-.23.001-.463.002-.698.003l-.718-.06c-.477-.031-.945-.044-1.393-.047-.452-.033-.89-.109-1.284-.15-7.224-.799-14.68-4.904-20.095-10.522-.692-.688-1.283-1.465-1.943-2.167-.563-.779-1.177-1.517-1.708-2.297-1.003-1.531-2.074-3.248-2.93-5.081-1.76-3.622-3.117-7.527-3.96-11.699-1.71-8.322-1.721-17.467-.222-26.499c1.47-9.122,4.383-18.518,8.053-28.137c1.658-4.356,3.469-8.772,5.367-13.274l2.905-6.822l1.485-3.456l1.487-3.319c3.868-8.862,8.038-17.689,12.323-26.509c8.61-17.635,17.892-35.2,27.36-52.852c9.463-17.655,19.099-35.397,28.579-53.397c9.471-18.009,18.83-36.241,27.587-55.018l6.442-14.187c2.123-4.747,4.109-9.612,6.16-14.413c1.04-2.389,1.987-4.854,2.942-7.311l2.865-7.365.715-1.841.357-.92.178-.461.198-.576l1.553-4.689c.549-1.556.917-3.152,1.307-4.742.37-1.594.811-3.175,1.094-4.781.525-3.217,1.131-6.424,1.321-9.668.111-1.619.325-3.232.324-4.854l.042-4.86c-.184-6.471-.808-12.94-2.36-19.28l-.54-2.378c-.19-.791-.453-1.572-.68-2.357l-1.448-4.688c-1.221-3.072-2.288-6.169-3.848-9.132l-1.106-2.234c-.365-.745-.739-1.486-1.188-2.202l-2.603-4.313c-.874-1.43-1.948-2.776-2.929-4.153l-1.515-2.042c-.531-.666-1.115-1.303-1.674-1.952-1.144-1.282-2.249-2.586-3.453-3.816-1.256-1.198-2.519-2.378-3.799-3.551l-.976-.891c-.38-.319-.902-.694-1.345-1.037l-2.767-2.103-2.76-2.097-.69-.524c-.106-.102-.239-.156-.381-.193l-.412-.137-1.648-.55-3.288-1.096c-.546-.18-1.098-.372-1.637-.515l-1.558-.424c-.795-.207-1.591-.431-2.386-.616l-2.383-.505c-3.178-.668-6.339-1.103-9.47-1.41-12.542-1.178-24.432.093-35.623,2.43-11.201,2.371-21.792,5.839-31.908,9.973-10.133,4.116-19.798,8.905-29.14,14.104-1.776.982-3.487,2.106-5.2,3.222-1.688,1.145-3.374,2.289-5.043,3.42-23.863,15.991-45.856,34.012-65.999,53.871-10.143,10.033-19.801,20.547-28.866,31.586-3.995,4.848-7.86,9.827-11.543,14.922-5.068,6.942-10.451,15.858-13.841,23.731-4.331,10.023-4.383,18.523,1.328,23.598c2.274,2.056,5.752,3.9,9.777,3.601c4.028-.305,8.522-2.677,13.47-9.024c3.732-4.79,10.069-14.378,18.533-25.778c16.575-22.317,36.404-42.942,58.183-61.097c10.909-9.063,22.344-17.499,34.24-25.067c11.89-7.563,24.262-14.268,36.975-19.542c13.298-5.511,27.056-9.605,40.329-10.612c3.304-.233,6.568-.286,9.757-.121c3.176.198,6.266.625,9.235,1.296l.498.116.304.054c.201.03.376.072.564.119.361.107.769.139,1.103.314l.968.62c.341.226.581.327,1.188.905c1.048.986,2.25,1.821,3.195,2.967l1.524,1.61c.514.535.922,1.178,1.397,1.759c3.702,4.741,6.564,10.46,8.38,16.631c1.839,6.171,2.539,12.8,2.216,19.366-.184,3.284-.58,6.57-1.314,9.776-.383,1.598-.694,3.225-1.263,4.765l-.751,2.348c-.103.37-.287.828-.464,1.277l-.524,1.34-4.223,10.718c-1.446,3.563-3.035,7.089-4.56,10.63-8.5,19.289-18.099,38.25-28.081,57.088-9.991,18.84-20.393,37.561-30.722,56.421-10.325,18.863-20.6,37.859-30.249,57.337-2.364,4.903-4.77,9.778-7.095,14.71-2.256,4.979-4.568,9.923-6.768,14.939-2.118,5.047-4.311,10.143-6.356,15.158-2.006,4.994-4.025,10.066-5.962,15.253-3.373,9.056-6.49,18.495-8.708,28.418-1.108,4.968-1.988,10.012-2.547,15.218-.556,5.206-.768,10.469-.583,15.763.373,10.57,2.321,21.35,6.562,31.603c2.12,5.119,4.804,10.064,8.1,14.676c3.383,4.729,7.358,8.919,11.792,12.511-2.904-2.915-5.707-6.228-8.196-9.894-2.476-3.754-4.493-7.643-6.171-11.651l1.355-.433c.705,1.218,1.381,2.451,2.122,3.649.785,1.179,1.521,2.37,2.361,3.53.878,1.142,1.715,2.325,2.646,3.42.955,1.071,1.866,2.191,2.874,3.208c3.979,4.13,8.509,7.685,13.467,10.566l.652-1.083c-1.396-.994-2.674998-2.142-3.985-3.209l-1.848-1.746c-.614-.578-1.225-1.153-1.784-1.787l.633-.494c3.681,3.035,7.722,5.632,12.045,7.699l2.129-3.907c-1.604-.782-3.077-1.799-4.59-2.717-1.432-1.055-2.913-2.023-4.24-3.196-2.749-2.215-5.21-4.755-7.418-7.463-4.425-5.422-7.595-11.714-9.78-18.231-4.327-13.117-4.523-27.184-2.216-40.533c2.336-13.435,7.094-26.32,12.528-39.007c1.355-3.176,2.767-6.346,4.19-9.522c1.42-3.179,2.869-6.372,4.359-9.476l4.426-9.371c1.529-3.103,3.121-6.182,4.676-9.271l1.269,1.125Z" fill="#231f20" fill-rule="evenodd"/>
				<mask id="etTPOgu8xwd8" mask-type="luminance" x="-150%" y="-150%" height="400%" width="400%">
					<use width="289.123596" height="471.764191" xlink:href="#etTPOgu8xwd3" fill="#fff" fill-rule="evenodd"/>
				</mask>
			</g>
		</g>
		<mask id="etTPOgu8xwd10" mask-type="luminance" x="-150%" y="-150%" height="400%" width="400%">
			<path id="etTPOgu8xwd11" d="M0,184.9042q55.867998-90.066,123.365998-134.277c67.498-44.211,139.237-45.756,145.867,2.357s-43.854741,145.388856-62.889741,174.055317-46.719525,91.637682-61.754892,135.849682-14.748849,99.944938,28.867892,108.874999" transform="translate(0 0.000002)" fill="none" stroke="#fff" stroke-width="45" stroke-linecap="round" stroke-dashoffset="819.218516" stroke-dasharray="819.218516"/>
		</mask>
	</g>
	<g mask="url(#etTPOgu8xwd18)">
		<g transform="translate(146.834 512.979)">
			<g mask="url(#etTPOgu8xwd16)">
				<path d="M11.552257,18.699571l-.461-.329c1.293-1.806,2.923-3.484,4.889-4.799l.306.477c-1.897,1.272-3.477,2.895-4.734,4.651v0Zm2.223,9.266l-.335-.037c.057-.473.143-.94.27-1.393.132-.452.285-.874.517-1.378.407-.98.93-1.889,1.485-2.764l.281.186c-.543.858-1.056,1.749-1.457,2.714-.23.5-.374.9-.501,1.333-.122.435-.205.884-.26,1.339v0Zm8.182,1.468l-2.063.881c-.129-.275-.21-.59-.251-.891-.043-.302-.052-.594-.025-.843l2.227.263c.004.079,0,.385.112.59v0Zm-11.513-6.233l.459.207c-.351.777-.739,1.715-.94,2.662-.213.943-.333,1.905-.32,2.862-.013,1.917.428,3.801,1.19,5.545l-.449.228c-.796-1.811-1.257-3.767-1.245-5.761-.014-.995.111-1.998.332-2.982.21-.986.617-1.974.973-2.761v0Zm17.639-5.139l-.866,2.504-.202-.076c-.002.005-.005.007-.005.007.003-.017-.008.04.007-.041l.109-.64.078-.648.014-.163.004-.041.001-.021.001-.01c-.43,3.091-.12.857-.217,1.547l-.011-.001-.045-.004-.182-.015-.363-.035c-.246-.038-.478-.032-.709-.032-.234-.007-.467-.016-.685.016-.896.056-1.719.241-2.484.566l-1.04-2.437c1.05-.447,2.179-.699,3.35-.772.289-.036.587-.029.886-.022.297.001.594-.002.898.041l.452.044c.145.015.33.023.388.052.087.024.174.043.264.057.105.03.238.085.357.124v0Zm-4.893,5.242c-.513.824-.762,1.792-.94,2.861-.071.567-.142,1.11-.146,1.744-.022.286,0,.634-.003.937v.116.003.002c-.333-.134.745.302-.747-.299l.004.001.009.004.016.007.033.014.124.044.272.078c0,0,.007.002.015.004l-2.195-.53c-.167-.04-.308-.078-.312-.085-.057-.082-.133-.181-.173-.263l-.078-.138-.043-.074.001-.146c.011-.389-.007-.821.033-1.203.035-.815.162-1.572.325-2.351.361-1.508.969-2.977,2.036-4.21.011-.012.082.101.16.254l1.477,2.933c.078.155.137.289.132.297v0Zm-2.283,7.158c-.224.502-.342.96-.27,1.509.086.564.391,1.253.964,2.082.457.658,1.102,1.649,2.038,2.481.92.835,2.136,1.489,3.312,1.532.485.046,1.091.136.796-.947-.165-.555-.573-1.402-1.393-2.679-.41-.638-.923-1.383-1.559-2.254-.323-.433-.671-.899-1.047-1.403-.188-.244-.383-.498-.586-.761l.009.011c.01.018-.129-.163-.207-.295-.173-.283-.352-.682-.43-.976-.086-.298-.096-.514-.096-.526.03-.073-.062.765-.436,1.408-.093.158-.15.26-.244.382-.048.062.024-.036.032-.046l.067-.082.154-.169c.213-.216.513-.459.756-.604.522-.318.717-.262.27-.211-.209.017-.533.024-.865-.028-.176-.029-.329-.058-.486-.104l-.206-.064-.104-.041-.014-.006-.007-.003c-2.651-1.069,23.072,9.302,12.183,4.912h-.001l-.004.002-.191-.074c-2.181-.903-4.106-2.031-5.47-3.122-1.377-1.082-2.156-2.114-2.41-2.575l-.075-.138-.045-.092c-.016-.043.017.044.007.026.047.132.058.196.091.347.026.107.045.21.058.308l.043.344c.062.55.08,1.265.011,2.191-.014.247-.038.487-.071.723l-.057.348-.002.01c-1.611,11.576,2.194-15.761,1.8-12.923l-.008.099-.018.198-.046.394c-.035.262-.077.522-.127.779-.167,1.028-.61,2.029-.809,2.94-.261.925-.585,1.824-.966,2.689l-.146.324-.095.261-.195.513c-.134.34-.276.675-.425,1.005s-.306.655-.471.975l-.252.476c-.086.157-.107.227-.165.343-.197.419-.41.827-.636,1.222l-.141.239.024-.051c.013-.041.041-.053.064-.078.197-.203.452-.343.742-.464.095-.037.468-.38.702-.532.432-.282.765-.462,1.17-.629.365-.154.684-.256,1.045-.333.279-.068.607-.109.89-.121.232-.01.546-.004.774.03.2.037.501.082.677.168.161.089.425.176.552.319.116.124.251.252.432.404.141.24.843.518,1.998,1.06c1.475.644,5.063,1.884,12.195,3.934c2.861.794,6.66,1.832,10.084,2.271c3.419.446,6.503.19,7.788-1.489.24-.313.456-.712.64-1.188.18-.482.292-1.092.379-1.744.082-.658.122-1.383.111-2.155-.005-.77-.062-1.586-.242-2.473-.594-3.414-1.689-6.776-3.238-9.742-.387-.742-.789-1.471-1.204-2.184-.422-.7-.889-1.342-1.35-1.995-.468-.638-.932-1.298-1.431-1.875-.5-.573-1.008-1.134-1.523-1.68-1.02-1.133-2.115-2.006-3.196-2.936-1.096-.863-2.209-1.65-3.335-2.361-2.264-1.397-4.56-2.503-6.996-3.41-1.329-.479-2.611-.879-4.184-1.239l-1.173-.254c-.46-.093-.919-.176-1.377-.249-.736-.118-2.274-.348-3.536-.403-.391-.031-.497.003-.677.02l-.512.061-1.015.133c-.661.084-1.357.222-2.04.368-1.345.266-2.728.679-4.046,1.127-2.67.925-5.211,2.274-7.43,3.826-2.23,1.557-4.141,3.319-5.818,5.089-2.272,2.43-4.006,4.996-5.396,7.543-.363.64-.675,1.276-.98,1.914l-.232.479-.115.241-.14.335c-.188.464-.369.931-.542,1.402-.64,1.882-1.029,3.805-1.19,5.718-.287,3.821.288,7.6,1.815,11.167c1.488,3.546,4.081,6.974,7.649,9.438c3.072,2.121,6.535,3.291,9.936,3.684c3.416.398,6.828.059,10.141-.964-1.426-.394-2.905-.975-4.229-1.703l-.154-1.384c1.497-.21,2.988-.57,4.44-1.141l-.451-1.18c-.552-.204-1.078-.415-1.585-.678l-.21-.759c.546-.147,1.077-.379,1.611-.579-1.101-2.636-.61-1.461-1.711-4.097-3.029-.227-5.5-1.654-6.901-3.427-.701-.885-1.122-1.86-1.225-2.764-.1-.902.073-1.743.394-2.482l1.316-.938Z" fill="#231f20" fill-rule="evenodd"/>
				<mask id="etTPOgu8xwd16" mask-type="luminance" x="-150%" y="-150%" height="400%" width="400%">
					<use width="62.991047" height="52.719772" xlink:href="#etTPOgu8xwd2" fill="#fff" fill-rule="evenodd"/>
				</mask>
			</g>
		</g>
		<mask id="etTPOgu8xwd18" mask-type="luminance" x="-150%" y="-150%" height="400%" width="400%">
			<path id="etTPOgu8xwd19" d="M197.639256,540.130572q-1.851719-6.338001-10.330999-13.580001c-13.337035-11.390921-29.03726.7-29.91626,10.458s-.594741,14.036,7.447,15.406" transform="translate(.000001 0)" fill="none" stroke="#fff" stroke-width="35" stroke-linecap="round" stroke-dashoffset="106.552607" stroke-dasharray="106.552607"/>
		</mask>
	</g>
	<style>
		#etTPOgu8xwd1 #etTPOgu8xwd11 {
			stroke-dashoffset: var(--p1);
		}
		#etTPOgu8xwd1 #etTPOgu8xwd19 {
			stroke-dashoffset: var(--p2);
		}
	</style>
</svg>
