<svg id="eXpmyT14kL21" xmlns="http://www.w3.org/2000/svg" xmlns:xlink="http://www.w3.org/1999/xlink" viewBox="0 0 295.92 121.17" shape-rendering="geometricPrecision" text-rendering="geometricPrecision" preserveAspectRatio="none">
	<g mask="url(#eXpmyT14kL24)">
		<path fill="white" d="M153.46,0.17c-19.77-.45-39.59-.08-59.27,2.17C84.36,3.49,74.57,5.1,64.91,7.32c-4.85,1.07-9.6,2.41-14.4,3.8-4.83,1.49-9.61,3.23-14.25,5.37-4.65,2.12-9.18,4.59-13.46,7.54-4.3,2.92-8.32,6.39-11.87,10.37-3.54,4.03-6.56,8.69-8.52,13.89s-2.78,10.91-2.25,16.47c.51,5.57,2.36,10.93,5.1,15.6c2.72,4.69,6.34,8.7,10.25,12.08c7.9,6.79,17.12,11.24,26.4,14.57c9.37,3.32,18.94,5.58,28.49,7.36l7.17,1.3c2.39.43,4.8.75,7.2,1.13c4.79.79,9.62,1.3,14.44,1.91c9.66,1,19.34,1.84,29.04,2.14c4.85.26,9.7.23,14.56.33c2.43.01,4.85-.04,7.28-.06s4.85-.04,7.28-.15l7.27-.26c2.42-.11,4.84-.28,7.27-.42c4.85-.24,9.67-.74,14.51-1.13c9.65-.99,19.29-2.1,28.86-3.68c4.8-.7,9.56-1.63,14.33-2.46c2.38-.45,4.75-.95,7.13-1.42l3.56-.72c1.18-.23,2.43-.55,3.65-.82c9.71-2.43,19.05-5.99,27.83-10.95c2.77-1.62,5.52-3.35,8.18-5.31c2.64-2,5.21-4.2,7.55-6.81c4.74-5.2,7.93-12.27,8.36-19.6.23-3.66-.18-7.33-1.14-10.82-.98-3.48-2.48-6.77-4.38-9.76l-.71-1.12c-.25-.37-.52-.71-.78-1.07-.53-.69-1.04-1.45-1.6-2.06-1.13-1.26-2.18-2.6-3.41-3.74-1.19-1.18-2.38-2.36-3.66-3.41l-1.9-1.6-1.98-1.48c-1.69-1.29-3.16-2.04-4.22-2.45s-1.74-.46-2-.21-.11.81.49,1.63c.58.84,1.68,1.82,3.12,3.22c4.69,4.34,8.86,9.13,11.94,14.44c3.02,5.33,4.51,11.4,4.09,17.27-.3,4.6-1.8,9.23-4.41,13.27l-1.03,1.49c-.34.5-.76.94-1.14,1.41-.73.96-1.65,1.8-2.49,2.69-1.81,1.67-3.7,3.29-5.76,4.66l-.31-1.04c4.72-3.29,8.8-7.24,11.31-12.06c2.47-4.83,3.28-10.43,2.31-15.85-.54-3.04-1.61-6-3.1-8.76-.75-1.37-1.57-2.72-2.51-3.99-.43-.66-.98-1.27-1.48-1.9-.52-.62-1.02-1.26-1.55-1.87-4.34-4.85-9.44-9.07-14.96-12.67-11.04-7.17-23.83-11.92-36.96-13.19-.71-.06-1.44-.09-2.16-.1-6.5.26-6.71,2.27-1.21,3.08.44.05.88.17,1.33.25c2.77.51,6.31.91,9.49,1.69c2.2.46,4.36,1.14,6.52,1.77c2.13.76,4.27,1.45,6.34,2.37c2.1.82,4.11,1.86,6.14,2.83l2.97,1.62c1,.52,1.92,1.16,2.89,1.73c3.79,2.39,7.43,5.01,10.68,7.98c1.6,1.5,3.2,3,4.61,4.63l1.09,1.2.99,1.25.99,1.25c.35.42.57.82.86,1.23c2.24,3.23,3.66,6.84,4.3,10.42.23,1.8.37,3.58.19,5.33-.22,1.73-.5,3.45-1.17,5.05l-.21.61-.28.59c-.19.39-.35.79-.56,1.18-.48.74-.84,1.54-1.41,2.24-.27.36-.51.73-.78,1.08l-.9,1.03-.44.52-.52.5-1.03,1.01c-2.93,2.65-6.48,5.06-10.28,7.18-7.74,4.27-16.5,7.46-25.24,9.53l-1.64.35c-.54.12-1.09.24-1.7.35l-3.56.68c-2.37.44-4.74.93-7.11,1.34-4.76.8-9.5,1.67-14.27,2.34-19.05,2.92-38.23,4.67-57.4,5.28-9.58.21-19.17.3-28.73-.14l-3.59-.13-3.58-.22-7.16-.44-7.14-.64-3.57-.32-3.56-.42c-9.5-.99-18.92-2.6-28.28-4.33-9.27-1.83-18.33-4.13-26.72-7.44-8.35-3.3-16.09-7.7-21.76-13.57-5.62-5.77-8.92-13.08-8.26-20.48.3-3.69,1.48-7.38,3.42-10.83.42-.89,1.06-1.69,1.59-2.54.51-.86,1.23-1.62,1.85-2.44c1.28-1.61,2.78-3.13,4.37-4.57c6.35-5.79,14.46-10.15,23.02-13.46c2.16-.81,4.33-1.58,6.55-2.26c2.2-.7,4.54-1.28,6.8-1.94c2.27-.68,4.6-1.16,6.9-1.73c1.16-.27,2.31-.56,3.47-.81l3.5-.7c9.34-1.87,18.83-3.2,28.39-4.12c19.14-1.76,38.52-1.93,57.91-1.38c15.71.49,27.13-1.69,25.19-5.21-.02-.04.02.04,0,0-1.98-3.51-16.1-7.11-32.34-7.53ZM268.81,91.98l.33.84c-6.8,3.84-14.16,6.8-21.7,9.01-3.79,1.12-7.55,1.94-11.53,2.67-3.93.77-7.86,1.54-11.81,2.18-15.78,2.73-31.69,4.71-47.64,5.85-31.9,2.25-64.04,1.03-95.44-4.42l-.08-.43c31.42,5.39,63.57,6.53,95.46,4.2c15.95-1.18,31.85-3.21,47.62-5.98c3.95-.66,7.88-1.44,11.81-2.21c3.99-.74,7.69-1.57,11.46-2.7c7.48-2.22,14.8-5.19,21.51-9.03Z"/>
		<mask id="eXpmyT14kL24" mask-type="luminance" x="-150%" y="-150%" height="400%" width="400%">
			<path id="eXpmyT14kL25" d="M203.868,11.119996q-65.868001-9.01-104.658001-3.43c-38.79,5.58-77.51,15.290003-88.28,36.180003s-3.32,43.349997,25.33,54.299997s89.51219,18.970003,128.38,16.200003s65.13-6.160003,92.43-15.260003s32.48-25.949998,32.57-31.719998-1.43-39.910002-74.36-49.070002" transform="translate(.000001 0.000004)" fill="none" stroke="#fff" stroke-width="15" stroke-linecap="round" stroke-dashoffset="0" stroke-dasharray="643.4305"/>
		</mask>
	</g>
	<style>
		#eXpmyT14kL25 {
			transition: all .9s;
		}
		#eXpmyT14kL21:hover #eXpmyT14kL25 {
			stroke-dashoffset: 0;
		}
		#eXpmyT14kL21.hover #eXpmyT14kL25 {
			animation-duration: .9s;
  			animation-name: marker;
		}
		@keyframes marker {
		  from {
		    stroke-dashoffset: 643.4305;
		  }
		  to {
		    stroke-dashoffset: 0;
		  }
		}
	</style>
</svg>