<?xml version="1.0" encoding="UTF-8"?>
<svg width="240px" height="140px" viewBox="0 0 240 140" version="1.1" xmlns="http://www.w3.org/2000/svg" xmlns:xlink="http://www.w3.org/1999/xlink">
    <title>WHO IS ABOUT YOU?</title>
    <g id="mainpage" stroke="none" stroke-width="1" fill="none" fill-rule="evenodd">
        <g id="000_FAQS--Copy-3" transform="translate(-129.000000, -1792.000000)" fill="#FFFFFF" fill-rule="nonzero">
            <g id="Group-2-Copy-9" transform="translate(100.000000, 1763.000000)">
                <g id="WHO-IS-ABOUT-YOU?" transform="translate(149.040000, 99.020000) rotate(-360.000000) translate(-149.040000, -99.020000) translate(29.349000, 29.296000)">
                    <polygon id="Path" points="19.623 37.758 19.902 15.903 20.181 37.758 21.483 67.704 36.177 67.704 39.339 0.744 27.993 0.744 27.249 26.691 27.342 50.313 26.505 28.272 25.482 0.744 14.322 0.744 13.113 28.272 12.462 52.452 12.369 26.691 11.904 0.744 -9.55556787e-14 0.744 3.069 67.704 18.507 67.704"></polygon>
                    <polygon id="Path" points="52.452 67.704 64.263 67.704 64.263 0.744 52.452 0.744 52.452 28.179 51.15 28.179 51.15 0.744 39.432 0.744 39.432 67.704 51.15 67.704 51.15 39.246 52.452 39.246"></polygon>
                    <path d="M78.12,68.448 C81.964,68.448 85.0485,67.549 87.3735,65.751 C89.6985,63.953 90.861,60.853 90.861,56.451 L90.861,11.904 C90.861,7.812 89.7295,4.805 87.4665,2.883 C85.2035,0.961 82.119,0 78.213,0 C74.307,0 71.207,0.961 68.913,2.883 C66.619,4.805 65.472,7.812 65.472,11.904 L65.472,56.451 C65.472,60.853 66.6345,63.953 68.9595,65.751 C71.2845,67.549 74.338,68.448 78.12,68.448 Z M78.213,57.195 C77.903,57.195 77.7015,57.102 77.6085,56.916 C77.5155,56.73 77.469,56.141 77.469,55.149 L77.469,12.369 C77.469,11.501 77.5155,10.974 77.6085,10.788 C77.7015,10.602 77.872,10.509 78.12,10.509 C78.43,10.509 78.616,10.602 78.678,10.788 C78.74,10.974 78.771,11.501 78.771,12.369 L78.771,55.149 C78.771,56.079 78.74,56.6525 78.678,56.8695 C78.616,57.0865 78.461,57.195 78.213,57.195 Z" id="Shape"></path>
                    <polygon id="Path" points="103.602 67.704 115.599 67.704 115.599 0.744 103.602 0.744"></polygon>
                    <path d="M128.898,68.448 C133.114,68.448 136.276,67.58 138.384,65.844 C140.492,64.108 141.546,61.07 141.546,56.73 L141.546,40.548 C141.546,38.688 141.329,37.138 140.895,35.898 C140.461,34.658 139.717,33.542 138.663,32.55 C138.105,32.054 137.454,31.527 136.71,30.969 C135.966,30.411 135.129,29.853 134.199,29.295 C132.277,27.993 130.913,27.0475 130.107,26.4585 C129.301,25.8695 128.805,25.389 128.619,25.017 C128.557,24.831 128.5105,24.6295 128.4795,24.4125 C128.4485,24.1955 128.433,23.932 128.433,23.622 L128.433,11.997 C128.433,11.129 128.4795,10.6175 128.5725,10.4625 C128.6655,10.3075 128.836,10.23 129.084,10.23 C129.394,10.23 129.58,10.3075 129.642,10.4625 C129.704,10.6175 129.735,11.129 129.735,11.997 L129.735,25.575 L141.453,25.575 L141.453,9.765 C141.453,6.665 140.3835,4.2625 138.2445,2.5575 C136.1055,0.8525 133.145,0 129.363,0 C125.333,0 122.2175,0.9455 120.0165,2.8365 C117.8155,4.7275 116.715,7.44 116.715,10.974 L116.715,24.738 C116.715,26.536 116.932,28.055 117.366,29.295 C117.8,30.535 118.575,31.682 119.691,32.736 C120.249,33.294 120.931,33.8675 121.737,34.4565 C122.543,35.0455 123.473,35.681 124.527,36.363 C126.201,37.355 127.3945,38.1145 128.1075,38.6415 C128.8205,39.1685 129.27,39.68 129.456,40.176 C129.58,40.424 129.6575,40.703 129.6885,41.013 C129.7195,41.323 129.735,41.695 129.735,42.129 L129.735,55.521 C129.735,56.451 129.6885,57.009 129.5955,57.195 C129.5025,57.381 129.332,57.474 129.084,57.474 C128.836,57.474 128.6655,57.381 128.5725,57.195 C128.4795,57.009 128.433,56.482 128.433,55.614 L128.433,39.618 L116.622,39.618 L116.622,56.823 C116.622,61.039 117.5985,64.0305 119.5515,65.7975 C121.5045,67.5645 124.62,68.448 128.898,68.448 Z" id="Path"></path>
                    <path d="M12.741,112.199 L12.927,94.064 L13.299,112.199 L13.95,124.382 L12.09,124.382 L12.741,112.199 Z M14.694,138.704 L26.133,138.704 L20.088,71.744 L5.58,71.744 L-7.81656942e-14,138.704 L11.346,138.704 L11.625,134.147 L14.415,134.147 L14.694,138.704 Z" id="Shape"></path>
                    <path d="M40.455,138.704 C44.113,138.704 46.779,137.898 48.453,136.286 C50.127,134.674 50.964,132.411 50.964,129.497 L50.964,110.897 C50.964,108.851 50.685,107.2545 50.127,106.1075 C49.569,104.9605 48.391,104.17 46.593,103.736 C48.515,103.302 49.724,102.4495 50.22,101.1785 C50.716,99.9075 50.964,97.846 50.964,94.994 L50.964,80.672 C50.964,77.82 50.1115,75.619 48.4065,74.069 C46.7015,72.519 43.834,71.744 39.804,71.744 L26.133,71.744 L26.133,138.704 L40.455,138.704 Z M38.037,81.137 C38.409,81.137 38.6725,81.2145 38.8275,81.3695 C38.9825,81.5245 39.06,81.788 39.06,82.16 L39.06,97.691 C39.06,98.063 38.9825,98.3575 38.8275,98.5745 C38.6725,98.7915 38.409,98.9 38.037,98.9 L37.665,98.9 L37.665,81.137 L38.037,81.137 Z M37.944,109.223 C38.316,109.223 38.595,109.316 38.781,109.502 C38.967,109.688 39.06,109.998 39.06,110.432 L39.06,127.637 C39.06,128.009 38.9825,128.288 38.8275,128.474 C38.6725,128.66 38.409,128.753 38.037,128.753 L37.665,128.753 L37.665,109.223 L37.944,109.223 Z" id="Shape"></path>
                    <path d="M64.728,139.448 C68.572,139.448 71.6565,138.549 73.9815,136.751 C76.3065,134.953 77.469,131.853 77.469,127.451 L77.469,82.904 C77.469,78.812 76.3375,75.805 74.0745,73.883 C71.8115,71.961 68.727,71 64.821,71 C60.915,71 57.815,71.961 55.521,73.883 C53.227,75.805 52.08,78.812 52.08,82.904 L52.08,127.451 C52.08,131.853 53.2425,134.953 55.5675,136.751 C57.8925,138.549 60.946,139.448 64.728,139.448 Z M64.821,128.195 C64.511,128.195 64.3095,128.102 64.2165,127.916 C64.1235,127.73 64.077,127.141 64.077,126.149 L64.077,83.369 C64.077,82.501 64.1235,81.974 64.2165,81.788 C64.3095,81.602 64.48,81.509 64.728,81.509 C65.038,81.509 65.224,81.602 65.286,81.788 C65.348,81.974 65.379,82.501 65.379,83.369 L65.379,126.149 C65.379,127.079 65.348,127.6525 65.286,127.8695 C65.224,128.0865 65.069,128.195 64.821,128.195 Z" id="Shape"></path>
                    <path d="M91.14,139.448 C95.17,139.448 98.27,138.5335 100.44,136.7045 C102.61,134.8755 103.695,131.791 103.695,127.451 L103.695,71.744 L91.791,71.744 L91.791,125.963 C91.791,126.893 91.76,127.4665 91.698,127.6835 C91.636,127.9005 91.481,128.009 91.233,128.009 C90.923,128.009 90.7215,127.916 90.6285,127.73 C90.5355,127.544 90.489,126.955 90.489,125.963 L90.489,71.744 L78.678,71.744 L78.678,127.451 C78.678,131.729 79.7475,134.798 81.8865,136.658 C84.0255,138.518 87.11,139.448 91.14,139.448 Z" id="Path"></path>
                    <polygon id="Path" points="124.899 84.113 124.899 71.744 104.718 71.744 104.718 84.113 108.717 84.113 108.717 138.704 120.993 138.704 120.993 84.113"></polygon>
                    <polygon id="Path" points="155.124 138.704 155.124 120.662 162.099 71.744 150.567 71.744 149.451 84.299 148.986 105.596 148.521 84.299 147.405 71.744 135.687 71.744 142.569 121.034 142.569 138.704"></polygon>
                    <path d="M174.189,139.448 C178.033,139.448 181.1175,138.549 183.4425,136.751 C185.7675,134.953 186.93,131.853 186.93,127.451 L186.93,82.904 C186.93,78.812 185.7985,75.805 183.5355,73.883 C181.2725,71.961 178.188,71 174.282,71 C170.376,71 167.276,71.961 164.982,73.883 C162.688,75.805 161.541,78.812 161.541,82.904 L161.541,127.451 C161.541,131.853 162.7035,134.953 165.0285,136.751 C167.3535,138.549 170.407,139.448 174.189,139.448 Z M174.282,128.195 C173.972,128.195 173.7705,128.102 173.6775,127.916 C173.5845,127.73 173.538,127.141 173.538,126.149 L173.538,83.369 C173.538,82.501 173.5845,81.974 173.6775,81.788 C173.7705,81.602 173.941,81.509 174.189,81.509 C174.499,81.509 174.685,81.602 174.747,81.788 C174.809,81.974 174.84,82.501 174.84,83.369 L174.84,126.149 C174.84,127.079 174.809,127.6525 174.747,127.8695 C174.685,128.0865 174.53,128.195 174.282,128.195 Z" id="Shape"></path>
                    <path d="M200.601,139.448 C204.631,139.448 207.731,138.5335 209.901,136.7045 C212.071,134.8755 213.156,131.791 213.156,127.451 L213.156,71.744 L201.252,71.744 L201.252,125.963 C201.252,126.893 201.221,127.4665 201.159,127.6835 C201.097,127.9005 200.942,128.009 200.694,128.009 C200.384,128.009 200.1825,127.916 200.0895,127.73 C199.9965,127.544 199.95,126.955 199.95,125.963 L199.95,71.744 L188.139,71.744 L188.139,127.451 C188.139,131.729 189.2085,134.798 191.3475,136.658 C193.4865,138.518 196.571,139.448 200.601,139.448 Z" id="Path"></path>
                    <path d="M220.503,122.894 C220.937,122.522 221.5725,122.1965 222.4095,121.9175 C223.2465,121.6385 224.533,121.499 226.269,121.499 C228.067,121.499 229.369,121.623 230.175,121.871 C230.981,122.119 231.601,122.429 232.035,122.801 L232.035,116.384 C232.097,115.454 232.376,114.555 232.872,113.687 C233.368,112.819 234.081,111.982 235.011,111.176 C236.437,109.812 237.522,108.4945 238.266,107.2235 C239.01,105.9525 239.382,104.17 239.382,101.876 L239.382,80.858 C239.382,78.006 238.452,75.65 236.592,73.79 C234.732,71.93 231.477,71 226.827,71 C222.425,71 219.232,71.9455 217.248,73.8365 C215.264,75.7275 214.272,78.13 214.272,81.044 L214.272,101.597 L226.269,101.597 L226.269,82.718 C226.269,82.098 226.3,81.7105 226.362,81.5555 C226.424,81.4005 226.579,81.323 226.827,81.323 C227.075,81.323 227.23,81.4005 227.292,81.5555 C227.354,81.7105 227.385,82.067 227.385,82.625 L227.385,101.132 C227.385,101.938 227.1835,102.682 226.7805,103.364 C226.3775,104.046 225.649,104.914 224.595,105.968 C223.045,107.518 221.96,108.8355 221.34,109.9205 C220.72,111.0055 220.41,112.354 220.41,113.966 L220.41,115.64 C220.41,115.764 220.41,116.3995 220.41,117.5465 C220.41,118.6935 220.41,119.825 220.41,120.941 C220.41,121.499 220.4255,121.933 220.4565,122.243 C220.4875,122.553 220.503,122.77 220.503,122.894 Z M226.269,139.262 C228.811,139.262 230.547,138.735 231.477,137.681 C232.407,136.627 232.872,134.364 232.872,130.892 C232.872,128.474 232.686,126.676 232.314,125.498 C231.942,124.32 231.291,123.545 230.361,123.173 C229.865,122.987 229.276,122.8475 228.594,122.7545 C227.912,122.6615 227.137,122.615 226.269,122.615 C224.595,122.615 223.293,122.801 222.363,123.173 C221.433,123.545 220.782,124.32 220.41,125.498 C220.224,126.118 220.0845,126.8775 219.9915,127.7765 C219.8985,128.6755 219.852,129.714 219.852,130.892 C219.852,133.248 220.038,135.0305 220.41,136.2395 C220.782,137.4485 221.433,138.27 222.363,138.704 C222.797,138.89 223.3395,139.0295 223.9905,139.1225 C224.6415,139.2155 225.401,139.262 226.269,139.262 Z" id="Shape"></path>
                </g>
            </g>
        </g>
    </g>
</svg>