<?xml version="1.0" encoding="UTF-8"?>
<svg width="265px" height="211px" viewBox="0 0 265 211" version="1.1" xmlns="http://www.w3.org/2000/svg" xmlns:xlink="http://www.w3.org/1999/xlink">
    <title>CAN I USE THE PACEMA</title>
    <g id="mainpage" stroke="none" stroke-width="1" fill="none" fill-rule="evenodd">
        <g id="000_FAQS--Copy-3" transform="translate(-130.000000, -1376.000000)" fill="#FFFFFF" fill-rule="nonzero">
            <g id="Group-2-Copy-8" transform="translate(100.000000, 1347.000000)">
                <g id="CAN-I-USE-THE-PACEMA" transform="translate(162.757500, 134.520000) rotate(-360.000000) translate(-162.757500, -134.520000) translate(30.558000, 29.296000)">
                    <path d="M12.555,68.448 C16.523,68.448 19.5765,67.5335 21.7155,65.7045 C23.8545,63.8755 24.924,60.76 24.924,56.358 L24.924,36.363 L13.299,36.363 L13.299,55.056 C13.299,56.11 13.2525,56.73 13.1595,56.916 C13.0665,57.102 12.865,57.195 12.555,57.195 C12.307,57.195 12.152,57.102 12.09,56.916 C12.028,56.73 11.997,56.141 11.997,55.149 L11.997,12.555 C11.997,11.563 12.028,10.974 12.09,10.788 C12.152,10.602 12.307,10.509 12.555,10.509 C12.865,10.509 13.0665,10.602 13.1595,10.788 C13.2525,10.974 13.299,11.594 13.299,12.648 L13.299,30.039 L24.924,30.039 L24.924,11.811 C24.924,7.533 23.8855,4.495 21.8085,2.697 C19.7315,0.899 16.709,0 12.741,0 C8.773,0 5.6575,0.9145 3.3945,2.7435 C1.1315,4.5725 -1.9762852e-13,7.595 -1.9762852e-13,11.811 L-1.9762852e-13,56.358 C-1.9762852e-13,60.822 1.054,63.953 3.162,65.751 C5.27,67.549 8.401,68.448 12.555,68.448 Z" id="Path"></path>
                    <path d="M37.572,41.199 L37.758,23.064 L38.13,41.199 L38.781,53.382 L36.921,53.382 L37.572,41.199 Z M39.525,67.704 L50.964,67.704 L44.919,0.744 L30.411,0.744 L24.831,67.704 L36.177,67.704 L36.456,63.147 L39.246,63.147 L39.525,67.704 Z" id="Shape"></path>
                    <polygon id="Path" points="62.496 49.476 59.334 18.228 65.658 67.704 78.864 67.704 78.864 0.744 67.704 0.744 67.704 16.647 71.145 51.057 64.728 0.744 50.964 0.744 50.964 67.704 62.496 67.704"></polygon>
                    <polygon id="Path" points="91.605 67.704 103.602 67.704 103.602 0.744 91.605 0.744"></polygon>
                    <path d="M128.898,68.448 C132.928,68.448 136.028,67.5335 138.198,65.7045 C140.368,63.8755 141.453,60.791 141.453,56.451 L141.453,0.744 L129.549,0.744 L129.549,54.963 C129.549,55.893 129.518,56.4665 129.456,56.6835 C129.394,56.9005 129.239,57.009 128.991,57.009 C128.681,57.009 128.4795,56.916 128.3865,56.73 C128.2935,56.544 128.247,55.955 128.247,54.963 L128.247,0.744 L116.436,0.744 L116.436,56.451 C116.436,60.729 117.5055,63.798 119.6445,65.658 C121.7835,67.518 124.868,68.448 128.898,68.448 Z" id="Path"></path>
                    <path d="M154.752,68.448 C158.968,68.448 162.13,67.58 164.238,65.844 C166.346,64.108 167.4,61.07 167.4,56.73 L167.4,40.548 C167.4,38.688 167.183,37.138 166.749,35.898 C166.315,34.658 165.571,33.542 164.517,32.55 C163.959,32.054 163.308,31.527 162.564,30.969 C161.82,30.411 160.983,29.853 160.053,29.295 C158.131,27.993 156.767,27.0475 155.961,26.4585 C155.155,25.8695 154.659,25.389 154.473,25.017 C154.411,24.831 154.3645,24.6295 154.3335,24.4125 C154.3025,24.1955 154.287,23.932 154.287,23.622 L154.287,11.997 C154.287,11.129 154.3335,10.6175 154.4265,10.4625 C154.5195,10.3075 154.69,10.23 154.938,10.23 C155.248,10.23 155.434,10.3075 155.496,10.4625 C155.558,10.6175 155.589,11.129 155.589,11.997 L155.589,25.575 L167.307,25.575 L167.307,9.765 C167.307,6.665 166.2375,4.2625 164.0985,2.5575 C161.9595,0.8525 158.999,0 155.217,0 C151.187,0 148.0715,0.9455 145.8705,2.8365 C143.6695,4.7275 142.569,7.44 142.569,10.974 L142.569,24.738 C142.569,26.536 142.786,28.055 143.22,29.295 C143.654,30.535 144.429,31.682 145.545,32.736 C146.103,33.294 146.785,33.8675 147.591,34.4565 C148.397,35.0455 149.327,35.681 150.381,36.363 C152.055,37.355 153.2485,38.1145 153.9615,38.6415 C154.6745,39.1685 155.124,39.68 155.31,40.176 C155.434,40.424 155.5115,40.703 155.5425,41.013 C155.5735,41.323 155.589,41.695 155.589,42.129 L155.589,55.521 C155.589,56.451 155.5425,57.009 155.4495,57.195 C155.3565,57.381 155.186,57.474 154.938,57.474 C154.69,57.474 154.5195,57.381 154.4265,57.195 C154.3335,57.009 154.287,56.482 154.287,55.614 L154.287,39.618 L142.476,39.618 L142.476,56.823 C142.476,61.039 143.4525,64.0305 145.4055,65.7975 C147.3585,67.5645 150.474,68.448 154.752,68.448 Z" id="Path"></path>
                    <polygon id="Path" points="186.465 55.149 180.234 55.149 180.234 40.269 186.465 40.269 186.465 27.993 180.234 27.993 180.234 13.113 186.465 13.113 186.465 0.744 168.423 0.744 168.423 67.704 186.465 67.704"></polygon>
                    <polygon id="Path" points="219.108 13.113 219.108 0.744 198.927 0.744 198.927 13.113 202.926 13.113 202.926 67.704 215.202 67.704 215.202 13.113"></polygon>
                    <polygon id="Path" points="233.244 67.704 245.055 67.704 245.055 0.744 233.244 0.744 233.244 28.179 231.942 28.179 231.942 0.744 220.224 0.744 220.224 67.704 231.942 67.704 231.942 39.246 233.244 39.246"></polygon>
                    <polygon id="Path" points="264.399 55.149 258.168 55.149 258.168 40.269 264.399 40.269 264.399 27.993 258.168 27.993 258.168 13.113 264.399 13.113 264.399 0.744 246.357 0.744 246.357 67.704 264.399 67.704"></polygon>
                    <path d="M11.904,81.602 C12.276,81.602 12.555,81.695 12.741,81.881 C12.927,82.067 13.02,82.377 13.02,82.811 L13.02,107.921 C13.02,108.479 12.9425,108.8355 12.7875,108.9905 C12.6325,109.1455 12.338,109.223 11.904,109.223 L11.718,109.223 L11.718,81.602 L11.904,81.602 Z M13.206,119.918 C17.484,119.918 20.5375,118.895 22.3665,116.849 C24.1955,114.803 25.11,112.106 25.11,108.758 L25.11,81.788 C25.11,78.688 24.1645,76.239 22.2735,74.441 C20.3825,72.643 17.329,71.744 13.113,71.744 L0.093,71.744 L0.093,138.704 L11.718,138.704 L11.718,119.918 L13.206,119.918 Z" id="Shape"></path>
                    <path d="M37.758,112.199 L37.944,94.064 L38.316,112.199 L38.967,124.382 L37.107,124.382 L37.758,112.199 Z M39.711,138.704 L51.15,138.704 L45.105,71.744 L30.597,71.744 L25.017,138.704 L36.363,138.704 L36.642,134.147 L39.432,134.147 L39.711,138.704 Z" id="Shape"></path>
                    <path d="M63.612,139.448 C67.58,139.448 70.6335,138.5335 72.7725,136.7045 C74.9115,134.8755 75.981,131.76 75.981,127.358 L75.981,107.363 L64.356,107.363 L64.356,126.056 C64.356,127.11 64.3095,127.73 64.2165,127.916 C64.1235,128.102 63.922,128.195 63.612,128.195 C63.364,128.195 63.209,128.102 63.147,127.916 C63.085,127.73 63.054,127.141 63.054,126.149 L63.054,83.555 C63.054,82.563 63.085,81.974 63.147,81.788 C63.209,81.602 63.364,81.509 63.612,81.509 C63.922,81.509 64.1235,81.602 64.2165,81.788 C64.3095,81.974 64.356,82.594 64.356,83.648 L64.356,101.039 L75.981,101.039 L75.981,82.811 C75.981,78.533 74.9425,75.495 72.8655,73.697 C70.7885,71.899 67.766,71 63.798,71 C59.83,71 56.7145,71.9145 54.4515,73.7435 C52.1885,75.5725 51.057,78.595 51.057,82.811 L51.057,127.358 C51.057,131.822 52.111,134.953 54.219,136.751 C56.327,138.549 59.458,139.448 63.612,139.448 Z" id="Path"></path>
                    <polygon id="Path" points="95.232 126.149 89.001 126.149 89.001 111.269 95.232 111.269 95.232 98.993 89.001 98.993 89.001 84.113 95.232 84.113 95.232 71.744 77.19 71.744 77.19 138.704 95.232 138.704"></polygon>
                    <polygon id="Path" points="107.88 127.079 106.02 84.206 109.833 138.704 119.598 138.704 123.318 85.973 121.644 126.986 121.644 138.704 132.897 138.704 132.897 71.744 116.157 71.744 115.041 94.808 114.762 119.918 114.483 94.808 113.367 71.744 96.441 71.744 96.441 138.704 107.88 138.704"></polygon>
                    <path d="M145.638,112.199 L145.824,94.064 L146.196,112.199 L146.847,124.382 L144.987,124.382 L145.638,112.199 Z M147.591,138.704 L159.03,138.704 L152.985,71.744 L138.477,71.744 L132.897,138.704 L144.243,138.704 L144.522,134.147 L147.312,134.147 L147.591,138.704 Z" id="Shape"></path>
                    <polygon id="Path" points="171.585 119.174 174.096 138.704 185.907 138.704 180.048 98.063 186 71.744 174.468 71.744 171.492 85.694 169.167 98.621 170.655 85.136 170.655 71.744 159.123 71.744 159.123 138.704 170.655 138.704 170.655 107.177"></polygon>
                    <polygon id="Path" points="203.856 126.149 197.625 126.149 197.625 111.269 203.856 111.269 203.856 98.993 197.625 98.993 197.625 84.113 203.856 84.113 203.856 71.744 185.814 71.744 185.814 138.704 203.856 138.704"></polygon>
                    <path d="M216.783,101.597 L216.783,81.695 L217.062,81.695 C217.434,81.695 217.6975,81.788 217.8525,81.974 C218.0075,82.16 218.085,82.439 218.085,82.811 L218.085,100.388 C218.085,100.76 217.9765,101.0545 217.7595,101.2715 C217.5425,101.4885 217.217,101.597 216.783,101.597 Z M218.085,113.78 L218.085,134.333 C218.085,135.387 218.1625,136.348 218.3175,137.216 C218.4725,138.084 218.767,138.58 219.201,138.704 L231.198,138.704 C230.578,138.084 230.1595,137.402 229.9425,136.658 C229.7255,135.914 229.617,135.015 229.617,133.961 L229.617,113.315 C229.617,111.331 229.338,109.8585 228.78,108.8975 C228.222,107.9365 227.292,107.239 225.99,106.805 C227.416,106.309 228.3925,105.472 228.9195,104.294 C229.4465,103.116 229.71,101.473 229.71,99.365 L229.71,81.137 C229.71,77.727 228.904,75.309 227.292,73.883 C225.68,72.457 222.797,71.744 218.643,71.744 L205.065,71.744 L205.065,138.704 L216.783,138.704 L216.783,112.106 C217.279,112.106 217.62,112.199 217.806,112.385 C217.992,112.571 218.085,113.036 218.085,113.78 Z" id="Shape"></path>
                    <polygon id="Path" points="17.763 209.704 17.763 197.056 12.183 197.056 12.183 142.744 0.093 142.744 0.093 209.704"></polygon>
                    <path d="M31.341,210.448 C35.185,210.448 38.2695,209.549 40.5945,207.751 C42.9195,205.953 44.082,202.853 44.082,198.451 L44.082,153.904 C44.082,149.812 42.9505,146.805 40.6875,144.883 C38.4245,142.961 35.34,142 31.434,142 C27.528,142 24.428,142.961 22.134,144.883 C19.84,146.805 18.693,149.812 18.693,153.904 L18.693,198.451 C18.693,202.853 19.8555,205.953 22.1805,207.751 C24.5055,209.549 27.559,210.448 31.341,210.448 Z M31.434,199.195 C31.124,199.195 30.9225,199.102 30.8295,198.916 C30.7365,198.73 30.69,198.141 30.69,197.149 L30.69,154.369 C30.69,153.501 30.7365,152.974 30.8295,152.788 C30.9225,152.602 31.093,152.509 31.341,152.509 C31.651,152.509 31.837,152.602 31.899,152.788 C31.961,152.974 31.992,153.501 31.992,154.369 L31.992,197.149 C31.992,198.079 31.961,198.6525 31.899,198.8695 C31.837,199.0865 31.682,199.195 31.434,199.195 Z" id="Shape"></path>
                    <path d="M61.845,209.704 L70.587,209.704 L70.587,173.155 L58.125,173.155 L58.125,186.64 L59.613,186.64 L59.613,196.87 C59.613,197.862 59.52,198.5285 59.334,198.8695 C59.148,199.2105 58.838,199.381 58.404,199.381 C57.97,199.381 57.66,199.2105 57.474,198.8695 C57.288,198.5285 57.195,197.862 57.195,196.87 L57.195,154.09 C57.195,153.346 57.2415,152.8965 57.3345,152.7415 C57.4275,152.5865 57.598,152.509 57.846,152.509 C58.156,152.509 58.342,152.5865 58.404,152.7415 C58.466,152.8965 58.497,153.346 58.497,154.09 L58.497,169.528 L70.587,169.528 L70.587,153.532 C70.587,149.316 69.4865,146.34 67.2855,144.604 C65.0845,142.868 61.969,142 57.939,142 C54.033,142 50.933,142.8835 48.639,144.6505 C46.345,146.4175 45.198,149.409 45.198,153.625 L45.198,198.916 C45.198,203.07 45.8955,206.0305 47.2905,207.7975 C48.6855,209.5645 50.871,210.448 53.847,210.448 C55.955,210.448 57.567,209.828 58.683,208.588 C59.799,207.348 60.481,205.271 60.729,202.357 L61.845,209.704 Z" id="Path"></path>
                    <path d="M84.351,210.448 C88.195,210.448 91.2795,209.549 93.6045,207.751 C95.9295,205.953 97.092,202.853 97.092,198.451 L97.092,153.904 C97.092,149.812 95.9605,146.805 93.6975,144.883 C91.4345,142.961 88.35,142 84.444,142 C80.538,142 77.438,142.961 75.144,144.883 C72.85,146.805 71.703,149.812 71.703,153.904 L71.703,198.451 C71.703,202.853 72.8655,205.953 75.1905,207.751 C77.5155,209.549 80.569,210.448 84.351,210.448 Z M84.444,199.195 C84.134,199.195 83.9325,199.102 83.8395,198.916 C83.7465,198.73 83.7,198.141 83.7,197.149 L83.7,154.369 C83.7,153.501 83.7465,152.974 83.8395,152.788 C83.9325,152.602 84.103,152.509 84.351,152.509 C84.661,152.509 84.847,152.602 84.909,152.788 C84.971,152.974 85.002,153.501 85.002,154.369 L85.002,197.149 C85.002,198.079 84.971,198.6525 84.909,198.8695 C84.847,199.0865 84.692,199.195 84.444,199.195 Z" id="Shape"></path>
                    <path d="M104.346,193.894 C104.78,193.522 105.4155,193.1965 106.2525,192.9175 C107.0895,192.6385 108.376,192.499 110.112,192.499 C111.91,192.499 113.212,192.623 114.018,192.871 C114.824,193.119 115.444,193.429 115.878,193.801 L115.878,187.384 C115.94,186.454 116.219,185.555 116.715,184.687 C117.211,183.819 117.924,182.982 118.854,182.176 C120.28,180.812 121.365,179.4945 122.109,178.2235 C122.853,176.9525 123.225,175.17 123.225,172.876 L123.225,151.858 C123.225,149.006 122.295,146.65 120.435,144.79 C118.575,142.93 115.32,142 110.67,142 C106.268,142 103.075,142.9455 101.091,144.8365 C99.107,146.7275 98.115,149.13 98.115,152.044 L98.115,172.597 L110.112,172.597 L110.112,153.718 C110.112,153.098 110.143,152.7105 110.205,152.5555 C110.267,152.4005 110.422,152.323 110.67,152.323 C110.918,152.323 111.073,152.4005 111.135,152.5555 C111.197,152.7105 111.228,153.067 111.228,153.625 L111.228,172.132 C111.228,172.938 111.0265,173.682 110.6235,174.364 C110.2205,175.046 109.492,175.914 108.438,176.968 C106.888,178.518 105.803,179.8355 105.183,180.9205 C104.563,182.0055 104.253,183.354 104.253,184.966 L104.253,186.64 C104.253,186.764 104.253,187.3995 104.253,188.5465 C104.253,189.6935 104.253,190.825 104.253,191.941 C104.253,192.499 104.2685,192.933 104.2995,193.243 C104.3305,193.553 104.346,193.77 104.346,193.894 Z M110.112,210.262 C112.654,210.262 114.39,209.735 115.32,208.681 C116.25,207.627 116.715,205.364 116.715,201.892 C116.715,199.474 116.529,197.676 116.157,196.498 C115.785,195.32 115.134,194.545 114.204,194.173 C113.708,193.987 113.119,193.8475 112.437,193.7545 C111.755,193.6615 110.98,193.615 110.112,193.615 C108.438,193.615 107.136,193.801 106.206,194.173 C105.276,194.545 104.625,195.32 104.253,196.498 C104.067,197.118 103.9275,197.8775 103.8345,198.7765 C103.7415,199.6755 103.695,200.714 103.695,201.892 C103.695,204.248 103.881,206.0305 104.253,207.2395 C104.625,208.4485 105.276,209.27 106.206,209.704 C106.64,209.89 107.1825,210.0295 107.8335,210.1225 C108.4845,210.2155 109.244,210.262 110.112,210.262 Z" id="Shape"></path>
                </g>
            </g>
        </g>
    </g>
</svg>