<?xml version="1.0" encoding="UTF-8"?>
<svg width="252px" height="211px" viewBox="0 0 252 211" version="1.1" xmlns="http://www.w3.org/2000/svg" xmlns:xlink="http://www.w3.org/1999/xlink">
    <title>HOW DO I CONTACT THE</title>
    <g id="mainpage" stroke="none" stroke-width="1" fill="none" fill-rule="evenodd">
        <g id="000_FAQS--Copy-3" transform="translate(-552.000000, -1334.000000)" fill="#FFFFFF" fill-rule="nonzero">
            <g id="Group-2-Copy-10" transform="translate(522.000000, 1305.000000)">
                <g id="HOW-DO-I-CONTACT-THE" transform="translate(156.154500, 134.427000) rotate(-360.000000) translate(-156.154500, -134.427000) translate(30.372000, 29.296000)">
                    <polygon id="Path" points="13.299 67.704 25.11 67.704 25.11 0.744 13.299 0.744 13.299 28.179 11.997 28.179 11.997 0.744 0.279 0.744 0.279 67.704 11.997 67.704 11.997 39.246 13.299 39.246"></polygon>
                    <path d="M38.967,68.448 C42.811,68.448 45.8955,67.549 48.2205,65.751 C50.5455,63.953 51.708,60.853 51.708,56.451 L51.708,11.904 C51.708,7.812 50.5765,4.805 48.3135,2.883 C46.0505,0.961 42.966,0 39.06,0 C35.154,0 32.054,0.961 29.76,2.883 C27.466,4.805 26.319,7.812 26.319,11.904 L26.319,56.451 C26.319,60.853 27.4815,63.953 29.8065,65.751 C32.1315,67.549 35.185,68.448 38.967,68.448 Z M39.06,57.195 C38.75,57.195 38.5485,57.102 38.4555,56.916 C38.3625,56.73 38.316,56.141 38.316,55.149 L38.316,12.369 C38.316,11.501 38.3625,10.974 38.4555,10.788 C38.5485,10.602 38.719,10.509 38.967,10.509 C39.277,10.509 39.463,10.602 39.525,10.788 C39.587,10.974 39.618,11.501 39.618,12.369 L39.618,55.149 C39.618,56.079 39.587,56.6525 39.525,56.8695 C39.463,57.0865 39.308,57.195 39.06,57.195 Z" id="Shape"></path>
                    <polygon id="Path" points="71.238 37.758 71.517 15.903 71.796 37.758 73.098 67.704 87.792 67.704 90.954 0.744 79.608 0.744 78.864 26.691 78.957 50.313 78.12 28.272 77.097 0.744 65.937 0.744 64.728 28.272 64.077 52.452 63.984 26.691 63.519 0.744 51.615 0.744 54.684 67.704 70.122 67.704"></polygon>
                    <path d="M102.579,67.704 L115.506,67.704 C119.288,67.704 122.3105,66.898 124.5735,65.286 C126.8365,63.674 127.968,60.76 127.968,56.544 L127.968,11.904 C127.968,7.688 126.8985,4.774 124.7595,3.162 C122.6205,1.55 119.66,0.744 115.878,0.744 L102.579,0.744 L102.579,67.704 Z M114.948,10.695 C115.258,10.695 115.475,10.7725 115.599,10.9275 C115.723,11.0825 115.785,11.346 115.785,11.718 L115.785,55.893 C115.785,56.451 115.723,56.8075 115.599,56.9625 C115.475,57.1175 115.227,57.195 114.855,57.195 L114.483,57.195 L114.483,10.695 L114.948,10.695 Z" id="Shape"></path>
                    <path d="M141.732,68.448 C145.576,68.448 148.6605,67.549 150.9855,65.751 C153.3105,63.953 154.473,60.853 154.473,56.451 L154.473,11.904 C154.473,7.812 153.3415,4.805 151.0785,2.883 C148.8155,0.961 145.731,-1.8189894e-12 141.825,-1.8189894e-12 C137.919,-1.8189894e-12 134.819,0.961 132.525,2.883 C130.231,4.805 129.084,7.812 129.084,11.904 L129.084,56.451 C129.084,60.853 130.2465,63.953 132.5715,65.751 C134.8965,67.549 137.95,68.448 141.732,68.448 Z M141.825,57.195 C141.515,57.195 141.3135,57.102 141.2205,56.916 C141.1275,56.73 141.081,56.141 141.081,55.149 L141.081,12.369 C141.081,11.501 141.1275,10.974 141.2205,10.788 C141.3135,10.602 141.484,10.509 141.732,10.509 C142.042,10.509 142.228,10.602 142.29,10.788 C142.352,10.974 142.383,11.501 142.383,12.369 L142.383,55.149 C142.383,56.079 142.352,56.6525 142.29,56.8695 C142.228,57.0865 142.073,57.195 141.825,57.195 Z" id="Shape"></path>
                    <polygon id="Path" points="167.214 67.704 179.211 67.704 179.211 0.744 167.214 0.744"></polygon>
                    <path d="M12.741,139.448 C16.709,139.448 19.7625,138.5335 21.9015,136.7045 C24.0405,134.8755 25.11,131.76 25.11,127.358 L25.11,107.363 L13.485,107.363 L13.485,126.056 C13.485,127.11 13.4385,127.73 13.3455,127.916 C13.2525,128.102 13.051,128.195 12.741,128.195 C12.493,128.195 12.338,128.102 12.276,127.916 C12.214,127.73 12.183,127.141 12.183,126.149 L12.183,83.555 C12.183,82.563 12.214,81.974 12.276,81.788 C12.338,81.602 12.493,81.509 12.741,81.509 C13.051,81.509 13.2525,81.602 13.3455,81.788 C13.4385,81.974 13.485,82.594 13.485,83.648 L13.485,101.039 L25.11,101.039 L25.11,82.811 C25.11,78.533 24.0715,75.495 21.9945,73.697 C19.9175,71.899 16.895,71 12.927,71 C8.959,71 5.8435,71.9145 3.5805,73.7435 C1.3175,75.5725 0.186,78.595 0.186,82.811 L0.186,127.358 C0.186,131.822 1.24,134.953 3.348,136.751 C5.456,138.549 8.587,139.448 12.741,139.448 Z" id="Path"></path>
                    <path d="M38.874,139.448 C42.718,139.448 45.8025,138.549 48.1275,136.751 C50.4525,134.953 51.615,131.853 51.615,127.451 L51.615,82.904 C51.615,78.812 50.4835,75.805 48.2205,73.883 C45.9575,71.961 42.873,71 38.967,71 C35.061,71 31.961,71.961 29.667,73.883 C27.373,75.805 26.226,78.812 26.226,82.904 L26.226,127.451 C26.226,131.853 27.3885,134.953 29.7135,136.751 C32.0385,138.549 35.092,139.448 38.874,139.448 Z M38.967,128.195 C38.657,128.195 38.4555,128.102 38.3625,127.916 C38.2695,127.73 38.223,127.141 38.223,126.149 L38.223,83.369 C38.223,82.501 38.2695,81.974 38.3625,81.788 C38.4555,81.602 38.626,81.509 38.874,81.509 C39.184,81.509 39.37,81.602 39.432,81.788 C39.494,81.974 39.525,82.501 39.525,83.369 L39.525,126.149 C39.525,127.079 39.494,127.6525 39.432,127.8695 C39.37,128.0865 39.215,128.195 38.967,128.195 Z" id="Shape"></path>
                    <polygon id="Path" points="64.356 120.476 61.194 89.228 67.518 138.704 80.724 138.704 80.724 71.744 69.564 71.744 69.564 87.647 73.005 122.057 66.588 71.744 52.824 71.744 52.824 138.704 64.356 138.704"></polygon>
                    <polygon id="Path" points="101.835 84.113 101.835 71.744 81.654 71.744 81.654 84.113 85.653 84.113 85.653 138.704 97.929 138.704 97.929 84.113"></polygon>
                    <path d="M114.39,112.199 L114.576,94.064 L114.948,112.199 L115.599,124.382 L113.739,124.382 L114.39,112.199 Z M116.343,138.704 L127.782,138.704 L121.737,71.744 L107.229,71.744 L101.649,138.704 L112.995,138.704 L113.274,134.147 L116.064,134.147 L116.343,138.704 Z" id="Shape"></path>
                    <path d="M140.244,139.448 C144.212,139.448 147.2655,138.5335 149.4045,136.7045 C151.5435,134.8755 152.613,131.76 152.613,127.358 L152.613,107.363 L140.988,107.363 L140.988,126.056 C140.988,127.11 140.9415,127.73 140.8485,127.916 C140.7555,128.102 140.554,128.195 140.244,128.195 C139.996,128.195 139.841,128.102 139.779,127.916 C139.717,127.73 139.686,127.141 139.686,126.149 L139.686,83.555 C139.686,82.563 139.717,81.974 139.779,81.788 C139.841,81.602 139.996,81.509 140.244,81.509 C140.554,81.509 140.7555,81.602 140.8485,81.788 C140.9415,81.974 140.988,82.594 140.988,83.648 L140.988,101.039 L152.613,101.039 L152.613,82.811 C152.613,78.533 151.5745,75.495 149.4975,73.697 C147.4205,71.899 144.398,71 140.43,71 C136.462,71 133.3465,71.9145 131.0835,73.7435 C128.8205,75.5725 127.689,78.595 127.689,82.811 L127.689,127.358 C127.689,131.822 128.743,134.953 130.851,136.751 C132.959,138.549 136.09,139.448 140.244,139.448 Z" id="Path"></path>
                    <polygon id="Path" points="173.724 84.113 173.724 71.744 153.543 71.744 153.543 84.113 157.542 84.113 157.542 138.704 169.818 138.704 169.818 84.113"></polygon>
                    <polygon id="Path" points="206.274 84.113 206.274 71.744 186.093 71.744 186.093 84.113 190.092 84.113 190.092 138.704 202.368 138.704 202.368 84.113"></polygon>
                    <polygon id="Path" points="220.41 138.704 232.221 138.704 232.221 71.744 220.41 71.744 220.41 99.179 219.108 99.179 219.108 71.744 207.39 71.744 207.39 138.704 219.108 138.704 219.108 110.246 220.41 110.246"></polygon>
                    <polygon id="Path" points="251.565 126.149 245.334 126.149 245.334 111.269 251.565 111.269 251.565 98.993 245.334 98.993 245.334 84.113 251.565 84.113 251.565 71.744 233.523 71.744 233.523 138.704 251.565 138.704"></polygon>
                    <polygon id="Path" points="20.181 155.113 20.181 142.744 -1.72953356e-13 142.744 -1.72953356e-13 155.113 3.999 155.113 3.999 209.704 16.275 209.704 16.275 155.113"></polygon>
                    <polygon id="Path" points="39.339 197.149 33.108 197.149 33.108 182.269 39.339 182.269 39.339 169.993 33.108 169.993 33.108 155.113 39.339 155.113 39.339 142.744 21.297 142.744 21.297 209.704 39.339 209.704"></polygon>
                    <path d="M51.987,183.199 L52.173,165.064 L52.545,183.199 L53.196,195.382 L51.336,195.382 L51.987,183.199 Z M53.94,209.704 L65.379,209.704 L59.334,142.744 L44.826,142.744 L39.246,209.704 L50.592,209.704 L50.871,205.147 L53.661,205.147 L53.94,209.704 Z" id="Shape"></path>
                    <polygon id="Path" points="76.818 198.079 74.958 155.206 78.771 209.704 88.536 209.704 92.256 156.973 90.582 197.986 90.582 209.704 101.835 209.704 101.835 142.744 85.095 142.744 83.979 165.808 83.7 190.918 83.421 165.808 82.305 142.744 65.379 142.744 65.379 209.704 76.818 209.704"></polygon>
                    <path d="M109.182,193.894 C109.616,193.522 110.2515,193.1965 111.0885,192.9175 C111.9255,192.6385 113.212,192.499 114.948,192.499 C116.746,192.499 118.048,192.623 118.854,192.871 C119.66,193.119 120.28,193.429 120.714,193.801 L120.714,187.384 C120.776,186.454 121.055,185.555 121.551,184.687 C122.047,183.819 122.76,182.982 123.69,182.176 C125.116,180.812 126.201,179.4945 126.945,178.2235 C127.689,176.9525 128.061,175.17 128.061,172.876 L128.061,151.858 C128.061,149.006 127.131,146.65 125.271,144.79 C123.411,142.93 120.156,142 115.506,142 C111.104,142 107.911,142.9455 105.927,144.8365 C103.943,146.7275 102.951,149.13 102.951,152.044 L102.951,172.597 L114.948,172.597 L114.948,153.718 C114.948,153.098 114.979,152.7105 115.041,152.5555 C115.103,152.4005 115.258,152.323 115.506,152.323 C115.754,152.323 115.909,152.4005 115.971,152.5555 C116.033,152.7105 116.064,153.067 116.064,153.625 L116.064,172.132 C116.064,172.938 115.8625,173.682 115.4595,174.364 C115.0565,175.046 114.328,175.914 113.274,176.968 C111.724,178.518 110.639,179.8355 110.019,180.9205 C109.399,182.0055 109.089,183.354 109.089,184.966 L109.089,186.64 C109.089,186.764 109.089,187.3995 109.089,188.5465 C109.089,189.6935 109.089,190.825 109.089,191.941 C109.089,192.499 109.1045,192.933 109.1355,193.243 C109.1665,193.553 109.182,193.77 109.182,193.894 Z M114.948,210.262 C117.49,210.262 119.226,209.735 120.156,208.681 C121.086,207.627 121.551,205.364 121.551,201.892 C121.551,199.474 121.365,197.676 120.993,196.498 C120.621,195.32 119.97,194.545 119.04,194.173 C118.544,193.987 117.955,193.8475 117.273,193.7545 C116.591,193.6615 115.816,193.615 114.948,193.615 C113.274,193.615 111.972,193.801 111.042,194.173 C110.112,194.545 109.461,195.32 109.089,196.498 C108.903,197.118 108.7635,197.8775 108.6705,198.7765 C108.5775,199.6755 108.531,200.714 108.531,201.892 C108.531,204.248 108.717,206.0305 109.089,207.2395 C109.461,208.4485 110.112,209.27 111.042,209.704 C111.476,209.89 112.0185,210.0295 112.6695,210.1225 C113.3205,210.2155 114.08,210.262 114.948,210.262 Z" id="Shape"></path>
                </g>
            </g>
        </g>
    </g>
</svg>