<svg width="319px" height="301px" viewBox="0 0 319 301" version="1.1" xmlns="http://www.w3.org/2000/svg" xmlns:xlink="http://www.w3.org/1999/xlink">
    <g id="mainpage" stroke="none" stroke-width="1" fill="none" fill-rule="evenodd">
        <g id="Group-13" transform="translate(0.245000, 0.816000)" fill="#000000" fill-rule="nonzero">
            <g id="Frequently-Copy" transform="translate(160.411000, 50.432000) rotate(-360.000000) translate(-160.411000, -50.432000) translate(2.651000, 0.000000)">
                <polygon id="Path" points="2.598168e-13 93.184 16.128 93.184 16.128 55.296 24.704 55.296 24.704 38.272 16.128 38.272 16.128 18.304 24.704 18.304 24.704 1.024 2.598168e-13 1.024"></polygon>
                <path d="M26.112,93.184 L42.24,93.184 L42.24,56.576 C43.52,56.576 44.032,56.832 44.032,58.88 L44.032,87.168 C44.032,90.112 44.416,92.8 45.568,93.184 L62.08,93.184 C60.288,91.52 59.904,89.6 59.904,86.784 L59.904,58.24 C59.904,52.864 58.496,50.432 54.912,49.28 C58.752,47.872 60.032,44.928 60.032,39.04 L60.032,13.952 C60.032,4.608 56.192,1.024 44.8,1.024 L26.112,1.024 L26.112,93.184 Z M42.624,14.72 C43.648,14.72 44.032,14.976 44.032,16.256 L44.032,40.448 C44.032,41.728 43.648,42.112 42.24,42.112 L42.24,14.72 L42.624,14.72 Z" id="Shape"></path>
                <polygon id="Path" points="61.696 93.184 86.528 93.184 86.528 75.904 77.952 75.904 77.952 55.424 86.528 55.424 86.528 38.528 77.952 38.528 77.952 18.048 86.528 18.048 86.528 1.024 61.696 1.024"></polygon>
                <path d="M105.344,100.736 L122.752,100.864 L117.504,90.88 C120.96,88.32 122.88,83.968 122.88,77.696 L122.88,16.384 C122.88,5.248 116.224,0 105.472,0 C94.72,0 87.936,5.248 87.936,16.384 L87.936,77.696 C87.936,88.704 93.696,93.44 102.784,94.08 L105.344,100.736 Z M105.472,78.72 C104.576,78.72 104.448,78.592 104.448,76.032 L104.448,17.024 C104.448,14.592 104.576,14.464 105.344,14.464 C106.112,14.464 106.24,14.592 106.24,17.024 L106.24,76.032 C106.24,78.592 106.112,78.72 105.472,78.72 Z" id="Shape"></path>
                <path d="M141.696,94.208 C152.704,94.208 158.976,89.6 158.976,77.696 L158.976,1.024 L142.592,1.024 L142.592,75.648 C142.592,78.208 142.464,78.464 141.824,78.464 C140.928,78.464 140.8,78.464 140.8,75.648 L140.8,1.024 L124.544,1.024 L124.544,77.696 C124.544,89.472 130.56,94.208 141.696,94.208 Z" id="Path"></path>
                <polygon id="Path" points="160.64 93.184 185.472 93.184 185.472 75.904 176.896 75.904 176.896 55.424 185.472 55.424 185.472 38.528 176.896 38.528 176.896 18.048 185.472 18.048 185.472 1.024 160.64 1.024"></polygon>
                <polygon id="Path" points="187.008 93.184 202.88 93.184 202.88 68.096 198.528 25.088 207.232 93.184 225.408 93.184 225.408 1.024 209.92 1.024 209.92 22.912 214.656 69.376 205.952 1.024 187.008 1.024"></polygon>
                <polygon id="Path" points="232.192 93.184 249.088 93.184 249.088 18.048 254.464 18.048 254.464 1.024 226.688 1.024 226.688 18.048 232.192 18.048"></polygon>
                <polygon id="Path" points="256 1.024 256 93.184 280.32 93.184 280.32 75.776 272.64 75.776 272.64 1.024"></polygon>
                <polygon id="Path" points="288.64 93.184 305.92 93.184 305.92 68.352 315.52 1.024 299.648 1.024 298.112 18.304 297.472 47.616 296.832 18.304 295.296 1.024 279.296 1.024 288.64 68.736"></polygon>
            </g>
            <g id="Questions-Copy" transform="translate(160.386000, 251.951500) rotate(-360.000000) translate(-160.386000, -251.951500) translate(2.602000, 203.854000)">
                <path d="M18.997,96.195 L37.873,96.195 L32.065,85.426 C35.453,82.522 37.51,77.924 37.51,71.269 L37.51,18.029 C37.51,5.808 30.129,0.121 18.755,0.121 C7.26,0.121 -5.99969244e-13,5.687 -5.99969244e-13,18.029 L-5.99969244e-13,71.269 C-5.99969244e-13,83.49 6.292,88.693 16.335,89.298 L18.997,96.195 Z M18.755,72.963 C17.787,72.963 17.666,72.842 17.666,69.817 L17.666,18.513 C17.666,15.73 17.787,15.488 18.634,15.488 C19.602,15.488 19.602,15.73 19.602,18.513 L19.602,69.817 C19.602,72.721 19.602,72.963 18.755,72.963 Z" id="Shape"></path>
                <path d="M57.596,89.419 C69.696,89.419 76.23,84.095 76.23,71.148 L76.23,1.21 L58.564,1.21 L58.564,69.454 C58.564,72.358 58.443,72.479 57.717,72.479 C56.749,72.479 56.628,72.358 56.628,69.454 L56.628,1.21 L39.083,1.21 L39.083,71.148 C39.083,83.853 45.133,89.419 57.596,89.419 Z" id="Path"></path>
                <polygon id="Path" points="78.045 88.33 105.875 88.33 105.875 70.301 95.348 70.301 95.348 53.361 105.875 53.361 105.875 35.695 95.348 35.695 95.348 18.997 105.875 18.997 105.875 1.21 78.045 1.21"></polygon>
                <path d="M125.356,89.419 C138.061,89.419 144.111,84.7 144.111,72.358 L144.111,54.329 C144.111,46.101 141.691,42.955 132.858,37.631 C124.751,32.549 124.751,32.428 124.751,30.008 L124.751,17.303 C124.751,15.004 124.993,14.762 125.719,14.762 C126.566,14.762 126.687,15.004 126.687,17.424 L126.687,32.791 L143.99,32.791 L143.99,14.762 C143.99,5.203 137.335,0 126.082,0 C113.74,0 107.206,5.808 107.206,16.456 L107.206,31.218 C107.327,39.567 109.626,42.471 118.943,48.279 C126.324,52.756 126.566,52.998 126.566,56.628 L126.566,71.027 C126.566,73.447 126.324,73.568 125.598,73.568 C124.872,73.568 124.751,73.447 124.751,71.148 L124.751,52.756 L107.085,52.756 L107.085,72.479 C107.085,84.579 112.409,89.419 125.356,89.419 Z" id="Path"></path>
                <polygon id="Path" points="151.371 88.33 169.521 88.33 169.521 18.876 175.571 18.876 175.571 1.21 145.321 1.21 145.321 18.876 151.371 18.876"></polygon>
                <polygon id="Path" points="177.144 88.33 195.052 88.33 195.052 1.21 177.144 1.21"></polygon>
                <path d="M215.501,89.419 C226.754,89.419 234.377,84.579 234.377,71.269 L234.377,18.029 C234.377,5.566 226.996,0.121 215.622,0.121 C204.127,0.121 196.867,5.566 196.867,18.029 L196.867,71.269 C196.867,84.579 204.127,89.419 215.501,89.419 Z M215.622,72.963 C214.654,72.963 214.533,72.842 214.533,69.817 L214.533,18.513 C214.533,15.73 214.654,15.488 215.501,15.488 C216.469,15.488 216.469,15.73 216.469,18.513 L216.469,69.817 C216.469,72.721 216.469,72.963 215.622,72.963 Z" id="Shape"></path>
                <polygon id="Path" points="236.071 88.33 253.011 88.33 253.011 65.703 248.897 27.467 257.609 88.33 277.09 88.33 277.09 1.21 260.634 1.21 260.634 20.933 265.111 62.92 256.52 1.21 236.071 1.21"></polygon>
                <path d="M296.813,89.419 C309.518,89.419 315.568,84.7 315.568,72.358 L315.568,54.329 C315.568,46.101 313.148,42.955 304.315,37.631 C296.208,32.549 296.208,32.428 296.208,30.008 L296.208,17.303 C296.208,15.004 296.45,14.762 297.176,14.762 C298.023,14.762 298.144,15.004 298.144,17.424 L298.144,32.791 L315.447,32.791 L315.447,14.762 C315.447,5.203 308.792,0 297.539,0 C285.197,0 278.663,5.808 278.663,16.456 L278.663,31.218 C278.784,39.567 281.083,42.471 290.4,48.279 C297.781,52.756 298.023,52.998 298.023,56.628 L298.023,71.027 C298.023,73.447 297.781,73.568 297.055,73.568 C296.329,73.568 296.208,73.447 296.208,71.148 L296.208,52.756 L278.542,52.756 L278.542,72.479 C278.542,84.579 283.866,89.419 296.813,89.419 Z" id="Path"></path>
            </g>
            <g id="Asked-Copy" transform="translate(157.882500, 150.449000) rotate(-360.000000) translate(-157.882500, -150.449000) translate(0.000000, 99.959000)">
                <path d="M-1.70202483e-13,99.225 L28.215,99.225 L29.16,91.935 L39.15,91.935 L40.095,99.225 L68.445,99.225 L52.11,2.025 L15.66,2.025 L-1.70202483e-13,99.225 Z M33.345,56.7 L34.02,37.26 L34.965,56.7 L36.45,69.525 L31.86,69.525 L33.345,56.7 Z" id="Shape"></path>
                <path d="M98.01,100.98 C120.015,100.98 129.465,92.745 129.465,74.115 L129.465,65.88 C129.465,52.515 124.74,47.25 108.54,39.69 C98.145,34.56 97.2,33.885 97.2,30.78 L97.2,25.785 C97.2,23.085 97.605,22.68 98.55,22.68 C100.17,22.68 100.305,23.355 100.305,26.19 L100.305,34.695 L128.79,34.695 L128.79,24.975 C129.06,8.1 118.125,3.63797881e-12 98.82,3.63797881e-12 C77.49,3.63797881e-12 67.5,9.585 67.5,26.73 L67.5,31.455 C67.635,45.765 72.09,50.22 87.615,57.915 C99.36,63.585 100.305,64.26 100.305,68.985 L100.305,73.44 C100.305,76.14 99.63,76.545 98.55,76.545 C97.47,76.545 96.93,76.005 96.93,73.71 L96.93,63.45 L67.095,63.45 L67.095,73.98 C66.96,92.34 75.465,100.98 98.01,100.98 Z" id="Path"></path>
                <polygon id="Path" points="162.27 72.63 168.885 99.225 200.88 99.225 184.815 43.2 200.475 2.025 169.155 2.025 162.405 22.005 157.815 40.77 160.65 20.385 160.65 2.025 131.895 2.025 131.895 99.225 160.65 99.225 160.65 66.42 162.135 59.4"></polygon>
                <polygon id="Path" points="200.34 99.225 251.235 99.225 251.235 71.82 228.96 71.82 228.96 62.775 251.235 62.775 251.235 37.395 228.96 37.395 228.96 28.755 251.235 28.755 251.235 2.025 200.34 2.025"></polygon>
                <path d="M253.935,2.025 L253.935,99.225 L284.445,99.225 C303.885,99.225 315.765,90.72 315.765,69.255 L315.765,31.725 C315.765,10.125 303.48,2.025 284.31,2.025 L253.935,2.025 Z M282.96,26.19 C285.39,26.19 285.93,26.73 285.93,30.51 L285.93,69.39 C285.93,73.845 285.255,74.25 282.825,74.25 L282.825,26.19 L282.96,26.19 Z" id="Shape"></path>
            </g>
        </g>
    </g>
</svg>