<?xml version="1.0" encoding="UTF-8"?>
<svg width="326px" height="211px" viewBox="0 0 326 211" version="1.1" xmlns="http://www.w3.org/2000/svg" xmlns:xlink="http://www.w3.org/1999/xlink">
    <title>WHICH BLOCKCHAIN ARE</title>
    <g id="mainpage" stroke="none" stroke-width="1" fill="none" fill-rule="evenodd">
        <g id="000_FAQS--Copy-3" transform="translate(-550.000000, -183.000000)" fill="#FFFFFF" fill-rule="nonzero">
            <g id="Group-2-Copy-4" transform="translate(521.000000, 154.000000)">
                <g id="WHICH-BLOCKCHAIN-ARE" transform="translate(191.866500, 134.520000) rotate(-360.000000) translate(-191.866500, -134.520000) translate(29.349000, 29.296000)">
                    <polygon id="Path" points="19.623 37.758 19.902 15.903 20.181 37.758 21.483 67.704 36.177 67.704 39.339 0.744 27.993 0.744 27.249 26.691 27.342 50.313 26.505 28.272 25.482 0.744 14.322 0.744 13.113 28.272 12.462 52.452 12.369 26.691 11.904 0.744 -4.89647019e-13 0.744 3.069 67.704 18.507 67.704"></polygon>
                    <polygon id="Path" points="52.452 67.704 64.263 67.704 64.263 0.744 52.452 0.744 52.452 28.179 51.15 28.179 51.15 0.744 39.432 0.744 39.432 67.704 51.15 67.704 51.15 39.246 52.452 39.246"></polygon>
                    <polygon id="Path" points="65.565 67.704 77.562 67.704 77.562 0.744 65.565 0.744"></polygon>
                    <path d="M91.326,68.448 C95.294,68.448 98.3475,67.5335 100.4865,65.7045 C102.6255,63.8755 103.695,60.76 103.695,56.358 L103.695,36.363 L92.07,36.363 L92.07,55.056 C92.07,56.11 92.0235,56.73 91.9305,56.916 C91.8375,57.102 91.636,57.195 91.326,57.195 C91.078,57.195 90.923,57.102 90.861,56.916 C90.799,56.73 90.768,56.141 90.768,55.149 L90.768,12.555 C90.768,11.563 90.799,10.974 90.861,10.788 C90.923,10.602 91.078,10.509 91.326,10.509 C91.636,10.509 91.8375,10.602 91.9305,10.788 C92.0235,10.974 92.07,11.594 92.07,12.648 L92.07,30.039 L103.695,30.039 L103.695,11.811 C103.695,7.533 102.6565,4.495 100.5795,2.697 C98.5025,0.899 95.48,-1.8189894e-12 91.512,-1.8189894e-12 C87.544,-1.8189894e-12 84.4285,0.9145 82.1655,2.7435 C79.9025,4.5725 78.771,7.595 78.771,11.811 L78.771,56.358 C78.771,60.822 79.825,63.953 81.933,65.751 C84.041,67.549 87.172,68.448 91.326,68.448 Z" id="Path"></path>
                    <polygon id="Path" points="117.924 67.704 129.735 67.704 129.735 0.744 117.924 0.744 117.924 28.179 116.622 28.179 116.622 0.744 104.904 0.744 104.904 67.704 116.622 67.704 116.622 39.246 117.924 39.246"></polygon>
                    <path d="M15.624,138.704 C19.282,138.704 21.948,137.898 23.622,136.286 C25.296,134.674 26.133,132.411 26.133,129.497 L26.133,110.897 C26.133,108.851 25.854,107.2545 25.296,106.1075 C24.738,104.9605 23.56,104.17 21.762,103.736 C23.684,103.302 24.893,102.4495 25.389,101.1785 C25.885,99.9075 26.133,97.846 26.133,94.994 L26.133,80.672 C26.133,77.82 25.2805,75.619 23.5755,74.069 C21.8705,72.519 19.003,71.744 14.973,71.744 L1.302,71.744 L1.302,138.704 L15.624,138.704 Z M13.206,81.137 C13.578,81.137 13.8415,81.2145 13.9965,81.3695 C14.1515,81.5245 14.229,81.788 14.229,82.16 L14.229,97.691 C14.229,98.063 14.1515,98.3575 13.9965,98.5745 C13.8415,98.7915 13.578,98.9 13.206,98.9 L12.834,98.9 L12.834,81.137 L13.206,81.137 Z M13.113,109.223 C13.485,109.223 13.764,109.316 13.95,109.502 C14.136,109.688 14.229,109.998 14.229,110.432 L14.229,127.637 C14.229,128.009 14.1515,128.288 13.9965,128.474 C13.8415,128.66 13.578,128.753 13.206,128.753 L12.834,128.753 L12.834,109.223 L13.113,109.223 Z" id="Shape"></path>
                    <polygon id="Path" points="45.012 138.704 45.012 126.056 39.432 126.056 39.432 71.744 27.342 71.744 27.342 138.704"></polygon>
                    <path d="M58.59,139.448 C62.434,139.448 65.5185,138.549 67.8435,136.751 C70.1685,134.953 71.331,131.853 71.331,127.451 L71.331,82.904 C71.331,78.812 70.1995,75.805 67.9365,73.883 C65.6735,71.961 62.589,71 58.683,71 C54.777,71 51.677,71.961 49.383,73.883 C47.089,75.805 45.942,78.812 45.942,82.904 L45.942,127.451 C45.942,131.853 47.1045,134.953 49.4295,136.751 C51.7545,138.549 54.808,139.448 58.59,139.448 Z M58.683,128.195 C58.373,128.195 58.1715,128.102 58.0785,127.916 C57.9855,127.73 57.939,127.141 57.939,126.149 L57.939,83.369 C57.939,82.501 57.9855,81.974 58.0785,81.788 C58.1715,81.602 58.342,81.509 58.59,81.509 C58.9,81.509 59.086,81.602 59.148,81.788 C59.21,81.974 59.241,82.501 59.241,83.369 L59.241,126.149 C59.241,127.079 59.21,127.6525 59.148,127.8695 C59.086,128.0865 58.931,128.195 58.683,128.195 Z" id="Shape"></path>
                    <path d="M85.002,139.448 C88.97,139.448 92.0235,138.5335 94.1625,136.7045 C96.3015,134.8755 97.371,131.76 97.371,127.358 L97.371,107.363 L85.746,107.363 L85.746,126.056 C85.746,127.11 85.6995,127.73 85.6065,127.916 C85.5135,128.102 85.312,128.195 85.002,128.195 C84.754,128.195 84.599,128.102 84.537,127.916 C84.475,127.73 84.444,127.141 84.444,126.149 L84.444,83.555 C84.444,82.563 84.475,81.974 84.537,81.788 C84.599,81.602 84.754,81.509 85.002,81.509 C85.312,81.509 85.5135,81.602 85.6065,81.788 C85.6995,81.974 85.746,82.594 85.746,83.648 L85.746,101.039 L97.371,101.039 L97.371,82.811 C97.371,78.533 96.3325,75.495 94.2555,73.697 C92.1785,71.899 89.156,71 85.188,71 C81.22,71 78.1045,71.9145 75.8415,73.7435 C73.5785,75.5725 72.447,78.595 72.447,82.811 L72.447,127.358 C72.447,131.822 73.501,134.953 75.609,136.751 C77.717,138.549 80.848,139.448 85.002,139.448 Z" id="Path"></path>
                    <polygon id="Path" points="111.135 119.174 113.646 138.704 125.457 138.704 119.598 98.063 125.55 71.744 114.018 71.744 111.042 85.694 108.717 98.621 110.205 85.136 110.205 71.744 98.673 71.744 98.673 138.704 110.205 138.704 110.205 107.177"></polygon>
                    <path d="M137.826,139.448 C141.794,139.448 144.8475,138.5335 146.9865,136.7045 C149.1255,134.8755 150.195,131.76 150.195,127.358 L150.195,107.363 L138.57,107.363 L138.57,126.056 C138.57,127.11 138.5235,127.73 138.4305,127.916 C138.3375,128.102 138.136,128.195 137.826,128.195 C137.578,128.195 137.423,128.102 137.361,127.916 C137.299,127.73 137.268,127.141 137.268,126.149 L137.268,83.555 C137.268,82.563 137.299,81.974 137.361,81.788 C137.423,81.602 137.578,81.509 137.826,81.509 C138.136,81.509 138.3375,81.602 138.4305,81.788 C138.5235,81.974 138.57,82.594 138.57,83.648 L138.57,101.039 L150.195,101.039 L150.195,82.811 C150.195,78.533 149.1565,75.495 147.0795,73.697 C145.0025,71.899 141.98,71 138.012,71 C134.044,71 130.9285,71.9145 128.6655,73.7435 C126.4025,75.5725 125.271,78.595 125.271,82.811 L125.271,127.358 C125.271,131.822 126.325,134.953 128.433,136.751 C130.541,138.549 133.672,139.448 137.826,139.448 Z" id="Path"></path>
                    <polygon id="Path" points="164.424 138.704 176.235 138.704 176.235 71.744 164.424 71.744 164.424 99.179 163.122 99.179 163.122 71.744 151.404 71.744 151.404 138.704 163.122 138.704 163.122 110.246 164.424 110.246"></polygon>
                    <path d="M188.976,112.199 L189.162,94.064 L189.534,112.199 L190.185,124.382 L188.325,124.382 L188.976,112.199 Z M190.929,138.704 L202.368,138.704 L196.323,71.744 L181.815,71.744 L176.235,138.704 L187.581,138.704 L187.86,134.147 L190.65,134.147 L190.929,138.704 Z" id="Shape"></path>
                    <polygon id="Path" points="202.368 138.704 214.365 138.704 214.365 71.744 202.368 71.744"></polygon>
                    <polygon id="Path" points="227.199 120.476 224.037 89.228 230.361 138.704 243.567 138.704 243.567 71.744 232.407 71.744 232.407 87.647 235.848 122.057 229.431 71.744 215.667 71.744 215.667 138.704 227.199 138.704"></polygon>
                    <path d="M267.747,112.199 L267.933,94.064 L268.305,112.199 L268.956,124.382 L267.096,124.382 L267.747,112.199 Z M269.7,138.704 L281.139,138.704 L275.094,71.744 L260.586,71.744 L255.006,138.704 L266.352,138.704 L266.631,134.147 L269.421,134.147 L269.7,138.704 Z" id="Shape"></path>
                    <path d="M292.857,101.597 L292.857,81.695 L293.136,81.695 C293.508,81.695 293.7715,81.788 293.9265,81.974 C294.0815,82.16 294.159,82.439 294.159,82.811 L294.159,100.388 C294.159,100.76 294.0505,101.0545 293.8335,101.2715 C293.6165,101.4885 293.291,101.597 292.857,101.597 Z M294.159,113.78 L294.159,134.333 C294.159,135.387 294.2365,136.348 294.3915,137.216 C294.5465,138.084 294.841,138.58 295.275,138.704 L307.272,138.704 C306.652,138.084 306.2335,137.402 306.0165,136.658 C305.7995,135.914 305.691,135.015 305.691,133.961 L305.691,113.315 C305.691,111.331 305.412,109.8585 304.854,108.8975 C304.296,107.9365 303.366,107.239 302.064,106.805 C303.49,106.309 304.4665,105.472 304.9935,104.294 C305.5205,103.116 305.784,101.473 305.784,99.365 L305.784,81.137 C305.784,77.727 304.978,75.309 303.366,73.883 C301.754,72.457 298.871,71.744 294.717,71.744 L281.139,71.744 L281.139,138.704 L292.857,138.704 L292.857,112.106 C293.353,112.106 293.694,112.199 293.88,112.385 C294.066,112.571 294.159,113.036 294.159,113.78 Z" id="Shape"></path>
                    <polygon id="Path" points="325.035 126.149 318.804 126.149 318.804 111.269 325.035 111.269 325.035 98.993 318.804 98.993 318.804 84.113 325.035 84.113 325.035 71.744 306.993 71.744 306.993 138.704 325.035 138.704"></polygon>
                    <polygon id="Path" points="21.204 155.113 21.204 142.744 1.023 142.744 1.023 155.113 5.022 155.113 5.022 209.704 17.298 209.704 17.298 155.113"></polygon>
                    <polygon id="Path" points="35.34 209.704 47.151 209.704 47.151 142.744 35.34 142.744 35.34 170.179 34.038 170.179 34.038 142.744 22.32 142.744 22.32 209.704 34.038 209.704 34.038 181.246 35.34 181.246"></polygon>
                    <polygon id="Path" points="66.495 197.149 60.264 197.149 60.264 182.269 66.495 182.269 66.495 169.993 60.264 169.993 60.264 155.113 66.495 155.113 66.495 142.744 48.453 142.744 48.453 209.704 66.495 209.704"></polygon>
                    <polygon id="Path" points="85.281 209.704 85.281 191.662 92.256 142.744 80.724 142.744 79.608 155.299 79.143 176.596 78.678 155.299 77.562 142.744 65.844 142.744 72.726 192.034 72.726 209.704"></polygon>
                    <path d="M115.878,210.448 C119.722,210.448 122.8065,209.549 125.1315,207.751 C127.4565,205.953 128.619,202.853 128.619,198.451 L128.619,153.904 C128.619,149.812 127.4875,146.805 125.2245,144.883 C122.9615,142.961 119.877,142 115.971,142 C112.065,142 108.965,142.961 106.671,144.883 C104.377,146.805 103.23,149.812 103.23,153.904 L103.23,198.451 C103.23,202.853 104.3925,205.953 106.7175,207.751 C109.0425,209.549 112.096,210.448 115.878,210.448 Z M115.971,199.195 C115.661,199.195 115.4595,199.102 115.3665,198.916 C115.2735,198.73 115.227,198.141 115.227,197.149 L115.227,154.369 C115.227,153.501 115.2735,152.974 115.3665,152.788 C115.4595,152.602 115.63,152.509 115.878,152.509 C116.188,152.509 116.374,152.602 116.436,152.788 C116.498,152.974 116.529,153.501 116.529,154.369 L116.529,197.149 C116.529,198.079 116.498,198.6525 116.436,198.8695 C116.374,199.0865 116.219,199.195 115.971,199.195 Z" id="Shape"></path>
                    <polygon id="Path" points="141.36 191.476 138.198 160.228 144.522 209.704 157.728 209.704 157.728 142.744 146.568 142.744 146.568 158.647 150.009 193.057 143.592 142.744 129.828 142.744 129.828 209.704 141.36 209.704"></polygon>
                    <path d="M164.982,193.894 C165.416,193.522 166.0515,193.1965 166.8885,192.9175 C167.7255,192.6385 169.012,192.499 170.748,192.499 C172.546,192.499 173.848,192.623 174.654,192.871 C175.46,193.119 176.08,193.429 176.514,193.801 L176.514,187.384 C176.576,186.454 176.855,185.555 177.351,184.687 C177.847,183.819 178.56,182.982 179.49,182.176 C180.916,180.812 182.001,179.4945 182.745,178.2235 C183.489,176.9525 183.861,175.17 183.861,172.876 L183.861,151.858 C183.861,149.006 182.931,146.65 181.071,144.79 C179.211,142.93 175.956,142 171.306,142 C166.904,142 163.711,142.9455 161.727,144.8365 C159.743,146.7275 158.751,149.13 158.751,152.044 L158.751,172.597 L170.748,172.597 L170.748,153.718 C170.748,153.098 170.779,152.7105 170.841,152.5555 C170.903,152.4005 171.058,152.323 171.306,152.323 C171.554,152.323 171.709,152.4005 171.771,152.5555 C171.833,152.7105 171.864,153.067 171.864,153.625 L171.864,172.132 C171.864,172.938 171.6625,173.682 171.2595,174.364 C170.8565,175.046 170.128,175.914 169.074,176.968 C167.524,178.518 166.439,179.8355 165.819,180.9205 C165.199,182.0055 164.889,183.354 164.889,184.966 L164.889,186.64 C164.889,186.764 164.889,187.3995 164.889,188.5465 C164.889,189.6935 164.889,190.825 164.889,191.941 C164.889,192.499 164.9045,192.933 164.9355,193.243 C164.9665,193.553 164.982,193.77 164.982,193.894 Z M170.748,210.262 C173.29,210.262 175.026,209.735 175.956,208.681 C176.886,207.627 177.351,205.364 177.351,201.892 C177.351,199.474 177.165,197.676 176.793,196.498 C176.421,195.32 175.77,194.545 174.84,194.173 C174.344,193.987 173.755,193.8475 173.073,193.7545 C172.391,193.6615 171.616,193.615 170.748,193.615 C169.074,193.615 167.772,193.801 166.842,194.173 C165.912,194.545 165.261,195.32 164.889,196.498 C164.703,197.118 164.5635,197.8775 164.4705,198.7765 C164.3775,199.6755 164.331,200.714 164.331,201.892 C164.331,204.248 164.517,206.0305 164.889,207.2395 C165.261,208.4485 165.912,209.27 166.842,209.704 C167.276,209.89 167.8185,210.0295 168.4695,210.1225 C169.1205,210.2155 169.88,210.262 170.748,210.262 Z" id="Shape"></path>
                </g>
            </g>
        </g>
    </g>
</svg>