<?xml version="1.0" encoding="UTF-8"?>
<svg width="308px" height="210px" viewBox="0 0 308 210" version="1.1" xmlns="http://www.w3.org/2000/svg" xmlns:xlink="http://www.w3.org/1999/xlink">
    <title>WHAT ARE PACEMAKER P</title>
    <g id="mainpage" stroke="none" stroke-width="1" fill="none" fill-rule="evenodd">
        <g id="000_FAQS--Copy-3" transform="translate(-971.000000, -184.000000)" fill="#FFFFFF" fill-rule="nonzero">
            <g id="Group-2-Copy-7" transform="translate(942.000000, 154.000000)">
                <g id="WHAT-ARE-PACEMAKER-P" transform="translate(183.124500, 134.892000) rotate(-360.000000) translate(-183.124500, -134.892000) translate(29.349000, 30.040000)">
                    <polygon id="Path" points="19.623 37.014 19.902 15.159 20.181 37.014 21.483 66.96 36.177 66.96 39.339 0 27.993 0 27.249 25.947 27.342 49.569 26.505 27.528 25.482 0 14.322 0 13.113 27.528 12.462 51.708 12.369 25.947 11.904 0 -4.89647019e-13 0 3.069 66.96 18.507 66.96"></polygon>
                    <polygon id="Path" points="52.452 66.96 64.263 66.96 64.263 0 52.452 0 52.452 27.435 51.15 27.435 51.15 0 39.432 0 39.432 66.96 51.15 66.96 51.15 38.502 52.452 38.502"></polygon>
                    <path d="M77.004,40.455 L77.19,22.32 L77.562,40.455 L78.213,52.638 L76.353,52.638 L77.004,40.455 Z M78.957,66.96 L90.396,66.96 L84.351,0 L69.843,0 L64.263,66.96 L75.609,66.96 L75.888,62.403 L78.678,62.403 L78.957,66.96 Z" id="Shape"></path>
                    <polygon id="Path" points="110.298 12.369 110.298 0 90.117 0 90.117 12.369 94.116 12.369 94.116 66.96 106.392 66.96 106.392 12.369"></polygon>
                    <path d="M134.385,40.455 L134.571,22.32 L134.943,40.455 L135.594,52.638 L133.734,52.638 L134.385,40.455 Z M136.338,66.96 L147.777,66.96 L141.732,0 L127.224,0 L121.644,66.96 L132.99,66.96 L133.269,62.403 L136.059,62.403 L136.338,66.96 Z" id="Shape"></path>
                    <path d="M159.495,29.853 L159.495,9.951 L159.774,9.951 C160.146,9.951 160.4095,10.044 160.5645,10.23 C160.7195,10.416 160.797,10.695 160.797,11.067 L160.797,28.644 C160.797,29.016 160.6885,29.3105 160.4715,29.5275 C160.2545,29.7445 159.929,29.853 159.495,29.853 Z M160.797,42.036 L160.797,62.589 C160.797,63.643 160.8745,64.604 161.0295,65.472 C161.1845,66.34 161.479,66.836 161.913,66.96 L173.91,66.96 C173.29,66.34 172.8715,65.658 172.6545,64.914 C172.4375,64.17 172.329,63.271 172.329,62.217 L172.329,41.571 C172.329,39.587 172.05,38.1145 171.492,37.1535 C170.934,36.1925 170.004,35.495 168.702,35.061 C170.128,34.565 171.1045,33.728 171.6315,32.55 C172.1585,31.372 172.422,29.729 172.422,27.621 L172.422,9.393 C172.422,5.983 171.616,3.565 170.004,2.139 C168.392,0.713 165.509,0 161.355,0 L147.777,0 L147.777,66.96 L159.495,66.96 L159.495,40.362 C159.991,40.362 160.332,40.455 160.518,40.641 C160.704,40.827 160.797,41.292 160.797,42.036 Z" id="Shape"></path>
                    <polygon id="Path" points="191.673 54.405 185.442 54.405 185.442 39.525 191.673 39.525 191.673 27.249 185.442 27.249 185.442 12.369 191.673 12.369 191.673 0 173.631 0 173.631 66.96 191.673 66.96"></polygon>
                    <path d="M13.113,80.858 C13.485,80.858 13.764,80.951 13.95,81.137 C14.136,81.323 14.229,81.633 14.229,82.067 L14.229,107.177 C14.229,107.735 14.1515,108.0915 13.9965,108.2465 C13.8415,108.4015 13.547,108.479 13.113,108.479 L12.927,108.479 L12.927,80.858 L13.113,80.858 Z M14.415,119.174 C18.693,119.174 21.7465,118.151 23.5755,116.105 C25.4045,114.059 26.319,111.362 26.319,108.014 L26.319,81.044 C26.319,77.944 25.3735,75.495 23.4825,73.697 C21.5915,71.899 18.538,71 14.322,71 L1.302,71 L1.302,137.96 L12.927,137.96 L12.927,119.174 L14.415,119.174 Z" id="Shape"></path>
                    <path d="M38.967,111.455 L39.153,93.32 L39.525,111.455 L40.176,123.638 L38.316,123.638 L38.967,111.455 Z M40.92,137.96 L52.359,137.96 L46.314,71 L31.806,71 L26.226,137.96 L37.572,137.96 L37.851,133.403 L40.641,133.403 L40.92,137.96 Z" id="Shape"></path>
                    <path d="M64.821,138.704 C68.789,138.704 71.8425,137.7895 73.9815,135.9605 C76.1205,134.1315 77.19,131.016 77.19,126.614 L77.19,106.619 L65.565,106.619 L65.565,125.312 C65.565,126.366 65.5185,126.986 65.4255,127.172 C65.3325,127.358 65.131,127.451 64.821,127.451 C64.573,127.451 64.418,127.358 64.356,127.172 C64.294,126.986 64.263,126.397 64.263,125.405 L64.263,82.811 C64.263,81.819 64.294,81.23 64.356,81.044 C64.418,80.858 64.573,80.765 64.821,80.765 C65.131,80.765 65.3325,80.858 65.4255,81.044 C65.5185,81.23 65.565,81.85 65.565,82.904 L65.565,100.295 L77.19,100.295 L77.19,82.067 C77.19,77.789 76.1515,74.751 74.0745,72.953 C71.9975,71.155 68.975,70.256 65.007,70.256 C61.039,70.256 57.9235,71.1705 55.6605,72.9995 C53.3975,74.8285 52.266,77.851 52.266,82.067 L52.266,126.614 C52.266,131.078 53.32,134.209 55.428,136.007 C57.536,137.805 60.667,138.704 64.821,138.704 Z" id="Path"></path>
                    <polygon id="Path" points="96.441 125.405 90.21 125.405 90.21 110.525 96.441 110.525 96.441 98.249 90.21 98.249 90.21 83.369 96.441 83.369 96.441 71 78.399 71 78.399 137.96 96.441 137.96"></polygon>
                    <polygon id="Path" points="109.089 126.335 107.229 83.462 111.042 137.96 120.807 137.96 124.527 85.229 122.853 126.242 122.853 137.96 134.106 137.96 134.106 71 117.366 71 116.25 94.064 115.971 119.174 115.692 94.064 114.576 71 97.65 71 97.65 137.96 109.089 137.96"></polygon>
                    <path d="M146.847,111.455 L147.033,93.32 L147.405,111.455 L148.056,123.638 L146.196,123.638 L146.847,111.455 Z M148.8,137.96 L160.239,137.96 L154.194,71 L139.686,71 L134.106,137.96 L145.452,137.96 L145.731,133.403 L148.521,133.403 L148.8,137.96 Z" id="Shape"></path>
                    <polygon id="Path" points="172.794 118.43 175.305 137.96 187.116 137.96 181.257 97.319 187.209 71 175.677 71 172.701 84.95 170.376 97.877 171.864 84.392 171.864 71 160.332 71 160.332 137.96 171.864 137.96 171.864 106.433"></polygon>
                    <polygon id="Path" points="205.065 125.405 198.834 125.405 198.834 110.525 205.065 110.525 205.065 98.249 198.834 98.249 198.834 83.369 205.065 83.369 205.065 71 187.023 71 187.023 137.96 205.065 137.96"></polygon>
                    <path d="M217.992,100.853 L217.992,80.951 L218.271,80.951 C218.643,80.951 218.9065,81.044 219.0615,81.23 C219.2165,81.416 219.294,81.695 219.294,82.067 L219.294,99.644 C219.294,100.016 219.1855,100.3105 218.9685,100.5275 C218.7515,100.7445 218.426,100.853 217.992,100.853 Z M219.294,113.036 L219.294,133.589 C219.294,134.643 219.3715,135.604 219.5265,136.472 C219.6815,137.34 219.976,137.836 220.41,137.96 L232.407,137.96 C231.787,137.34 231.3685,136.658 231.1515,135.914 C230.9345,135.17 230.826,134.271 230.826,133.217 L230.826,112.571 C230.826,110.587 230.547,109.1145 229.989,108.1535 C229.431,107.1925 228.501,106.495 227.199,106.061 C228.625,105.565 229.6015,104.728 230.1285,103.55 C230.6555,102.372 230.919,100.729 230.919,98.621 L230.919,80.393 C230.919,76.983 230.113,74.565 228.501,73.139 C226.889,71.713 224.006,71 219.852,71 L206.274,71 L206.274,137.96 L217.992,137.96 L217.992,111.362 C218.488,111.362 218.829,111.455 219.015,111.641 C219.201,111.827 219.294,112.292 219.294,113.036 Z" id="Shape"></path>
                    <path d="M13.113,151.858 C13.485,151.858 13.764,151.951 13.95,152.137 C14.136,152.323 14.229,152.633 14.229,153.067 L14.229,178.177 C14.229,178.735 14.1515,179.0915 13.9965,179.2465 C13.8415,179.4015 13.547,179.479 13.113,179.479 L12.927,179.479 L12.927,151.858 L13.113,151.858 Z M14.415,190.174 C18.693,190.174 21.7465,189.151 23.5755,187.105 C25.4045,185.059 26.319,182.362 26.319,179.014 L26.319,152.044 C26.319,148.944 25.3735,146.495 23.4825,144.697 C21.5915,142.899 18.538,142 14.322,142 L1.302,142 L1.302,208.96 L12.927,208.96 L12.927,190.174 L14.415,190.174 Z" id="Shape"></path>
                    <path d="M38.967,182.455 L39.153,164.32 L39.525,182.455 L40.176,194.638 L38.316,194.638 L38.967,182.455 Z M40.92,208.96 L52.359,208.96 L46.314,142 L31.806,142 L26.226,208.96 L37.572,208.96 L37.851,204.403 L40.641,204.403 L40.92,208.96 Z" id="Shape"></path>
                    <path d="M64.821,209.704 C68.789,209.704 71.8425,208.7895 73.9815,206.9605 C76.1205,205.1315 77.19,202.016 77.19,197.614 L77.19,177.619 L65.565,177.619 L65.565,196.312 C65.565,197.366 65.5185,197.986 65.4255,198.172 C65.3325,198.358 65.131,198.451 64.821,198.451 C64.573,198.451 64.418,198.358 64.356,198.172 C64.294,197.986 64.263,197.397 64.263,196.405 L64.263,153.811 C64.263,152.819 64.294,152.23 64.356,152.044 C64.418,151.858 64.573,151.765 64.821,151.765 C65.131,151.765 65.3325,151.858 65.4255,152.044 C65.5185,152.23 65.565,152.85 65.565,153.904 L65.565,171.295 L77.19,171.295 L77.19,153.067 C77.19,148.789 76.1515,145.751 74.0745,143.953 C71.9975,142.155 68.975,141.256 65.007,141.256 C61.039,141.256 57.9235,142.1705 55.6605,143.9995 C53.3975,145.8285 52.266,148.851 52.266,153.067 L52.266,197.614 C52.266,202.078 53.32,205.209 55.428,207.007 C57.536,208.805 60.667,209.704 64.821,209.704 Z" id="Path"></path>
                    <polygon id="Path" points="96.441 196.405 90.21 196.405 90.21 181.525 96.441 181.525 96.441 169.249 90.21 169.249 90.21 154.369 96.441 154.369 96.441 142 78.399 142 78.399 208.96 96.441 208.96"></polygon>
                    <polygon id="Path" points="115.32 208.96 115.32 196.312 109.74 196.312 109.74 142 97.65 142 97.65 208.96"></polygon>
                    <polygon id="Path" points="116.343 208.96 128.34 208.96 128.34 142 116.343 142"></polygon>
                    <path d="M141.639,209.704 C145.855,209.704 149.017,208.836 151.125,207.1 C153.233,205.364 154.287,202.326 154.287,197.986 L154.287,181.804 C154.287,179.944 154.07,178.394 153.636,177.154 C153.202,175.914 152.458,174.798 151.404,173.806 C150.846,173.31 150.195,172.783 149.451,172.225 C148.707,171.667 147.87,171.109 146.94,170.551 C145.018,169.249 143.654,168.3035 142.848,167.7145 C142.042,167.1255 141.546,166.645 141.36,166.273 C141.298,166.087 141.2515,165.8855 141.2205,165.6685 C141.1895,165.4515 141.174,165.188 141.174,164.878 L141.174,153.253 C141.174,152.385 141.2205,151.8735 141.3135,151.7185 C141.4065,151.5635 141.577,151.486 141.825,151.486 C142.135,151.486 142.321,151.5635 142.383,151.7185 C142.445,151.8735 142.476,152.385 142.476,153.253 L142.476,166.831 L154.194,166.831 L154.194,151.021 C154.194,147.921 153.1245,145.5185 150.9855,143.8135 C148.8465,142.1085 145.886,141.256 142.104,141.256 C138.074,141.256 134.9585,142.2015 132.7575,144.0925 C130.5565,145.9835 129.456,148.696 129.456,152.23 L129.456,165.994 C129.456,167.792 129.673,169.311 130.107,170.551 C130.541,171.791 131.316,172.938 132.432,173.992 C132.99,174.55 133.672,175.1235 134.478,175.7125 C135.284,176.3015 136.214,176.937 137.268,177.619 C138.942,178.611 140.1355,179.3705 140.8485,179.8975 C141.5615,180.4245 142.011,180.936 142.197,181.432 C142.321,181.68 142.3985,181.959 142.4295,182.269 C142.4605,182.579 142.476,182.951 142.476,183.385 L142.476,196.777 C142.476,197.707 142.4295,198.265 142.3365,198.451 C142.2435,198.637 142.073,198.73 141.825,198.73 C141.577,198.73 141.4065,198.637 141.3135,198.451 C141.2205,198.265 141.174,197.738 141.174,196.87 L141.174,180.874 L129.363,180.874 L129.363,198.079 C129.363,202.295 130.3395,205.2865 132.2925,207.0535 C134.2455,208.8205 137.361,209.704 141.639,209.704 Z" id="Path"></path>
                    <polygon id="Path" points="175.212 154.369 175.212 142 155.031 142 155.031 154.369 159.03 154.369 159.03 208.96 171.306 208.96 171.306 154.369"></polygon>
                    <polygon id="Path" points="199.392 190.732 196.23 159.484 202.554 208.96 215.76 208.96 215.76 142 204.6 142 204.6 157.903 208.041 192.313 201.624 142 187.86 142 187.86 208.96 199.392 208.96"></polygon>
                    <polygon id="Path" points="234.918 181.432 234.918 169.063 228.687 169.063 228.687 154.555 234.918 154.555 234.918 142 216.969 142 216.969 208.96 228.687 208.96 228.687 181.432"></polygon>
                    <polygon id="Path" points="255.843 154.369 255.843 142 235.662 142 235.662 154.369 239.661 154.369 239.661 208.96 251.937 208.96 251.937 154.369"></polygon>
                    <path d="M268.956,209.704 C273.172,209.704 276.334,208.836 278.442,207.1 C280.55,205.364 281.604,202.326 281.604,197.986 L281.604,181.804 C281.604,179.944 281.387,178.394 280.953,177.154 C280.519,175.914 279.775,174.798 278.721,173.806 C278.163,173.31 277.512,172.783 276.768,172.225 C276.024,171.667 275.187,171.109 274.257,170.551 C272.335,169.249 270.971,168.3035 270.165,167.7145 C269.359,167.1255 268.863,166.645 268.677,166.273 C268.615,166.087 268.5685,165.8855 268.5375,165.6685 C268.5065,165.4515 268.491,165.188 268.491,164.878 L268.491,153.253 C268.491,152.385 268.5375,151.8735 268.6305,151.7185 C268.7235,151.5635 268.894,151.486 269.142,151.486 C269.452,151.486 269.638,151.5635 269.7,151.7185 C269.762,151.8735 269.793,152.385 269.793,153.253 L269.793,166.831 L281.511,166.831 L281.511,151.021 C281.511,147.921 280.4415,145.5185 278.3025,143.8135 C276.1635,142.1085 273.203,141.256 269.421,141.256 C265.391,141.256 262.2755,142.2015 260.0745,144.0925 C257.8735,145.9835 256.773,148.696 256.773,152.23 L256.773,165.994 C256.773,167.792 256.99,169.311 257.424,170.551 C257.858,171.791 258.633,172.938 259.749,173.992 C260.307,174.55 260.989,175.1235 261.795,175.7125 C262.601,176.3015 263.531,176.937 264.585,177.619 C266.259,178.611 267.4525,179.3705 268.1655,179.8975 C268.8785,180.4245 269.328,180.936 269.514,181.432 C269.638,181.68 269.7155,181.959 269.7465,182.269 C269.7775,182.579 269.793,182.951 269.793,183.385 L269.793,196.777 C269.793,197.707 269.7465,198.265 269.6535,198.451 C269.5605,198.637 269.39,198.73 269.142,198.73 C268.894,198.73 268.7235,198.637 268.6305,198.451 C268.5375,198.265 268.491,197.738 268.491,196.87 L268.491,180.874 L256.68,180.874 L256.68,198.079 C256.68,202.295 257.6565,205.2865 259.6095,207.0535 C261.5625,208.8205 264.678,209.704 268.956,209.704 Z" id="Path"></path>
                    <path d="M288.672,193.15 C289.106,192.778 289.7415,192.4525 290.5785,192.1735 C291.4155,191.8945 292.702,191.755 294.438,191.755 C296.236,191.755 297.538,191.879 298.344,192.127 C299.15,192.375 299.77,192.685 300.204,193.057 L300.204,186.64 C300.266,185.71 300.545,184.811 301.041,183.943 C301.537,183.075 302.25,182.238 303.18,181.432 C304.606,180.068 305.691,178.7505 306.435,177.4795 C307.179,176.2085 307.551,174.426 307.551,172.132 L307.551,151.114 C307.551,148.262 306.621,145.906 304.761,144.046 C302.901,142.186 299.646,141.256 294.996,141.256 C290.594,141.256 287.401,142.2015 285.417,144.0925 C283.433,145.9835 282.441,148.386 282.441,151.3 L282.441,171.853 L294.438,171.853 L294.438,152.974 C294.438,152.354 294.469,151.9665 294.531,151.8115 C294.593,151.6565 294.748,151.579 294.996,151.579 C295.244,151.579 295.399,151.6565 295.461,151.8115 C295.523,151.9665 295.554,152.323 295.554,152.881 L295.554,171.388 C295.554,172.194 295.3525,172.938 294.9495,173.62 C294.5465,174.302 293.818,175.17 292.764,176.224 C291.214,177.774 290.129,179.0915 289.509,180.1765 C288.889,181.2615 288.579,182.61 288.579,184.222 L288.579,185.896 C288.579,186.02 288.579,186.6555 288.579,187.8025 C288.579,188.9495 288.579,190.081 288.579,191.197 C288.579,191.755 288.5945,192.189 288.6255,192.499 C288.6565,192.809 288.672,193.026 288.672,193.15 Z M294.438,209.518 C296.98,209.518 298.716,208.991 299.646,207.937 C300.576,206.883 301.041,204.62 301.041,201.148 C301.041,198.73 300.855,196.932 300.483,195.754 C300.111,194.576 299.46,193.801 298.53,193.429 C298.034,193.243 297.445,193.1035 296.763,193.0105 C296.081,192.9175 295.306,192.871 294.438,192.871 C292.764,192.871 291.462,193.057 290.532,193.429 C289.602,193.801 288.951,194.576 288.579,195.754 C288.393,196.374 288.2535,197.1335 288.1605,198.0325 C288.0675,198.9315 288.021,199.97 288.021,201.148 C288.021,203.504 288.207,205.2865 288.579,206.4955 C288.951,207.7045 289.602,208.526 290.532,208.96 C290.966,209.146 291.5085,209.2855 292.1595,209.3785 C292.8105,209.4715 293.57,209.518 294.438,209.518 Z" id="Shape"></path>
                </g>
            </g>
        </g>
    </g>
</svg>