<?xml version="1.0" encoding="UTF-8"?>
<svg width="292px" height="282px" viewBox="0 0 292 282" version="1.1" xmlns="http://www.w3.org/2000/svg" xmlns:xlink="http://www.w3.org/1999/xlink">
    <title>WHAT CAN I DO WITH M</title>
    <g id="mainpage" stroke="none" stroke-width="1" fill="none" fill-rule="evenodd">
        <g id="000_FAQS--Copy-3" transform="translate(-971.000000, -882.000000)" fill="#FFFFFF" fill-rule="nonzero">
            <g id="Group-2-Copy-3" transform="translate(942.000000, 853.000000)">
                <g id="WHAT-CAN-I-DO-WITH-M" transform="translate(174.940500, 169.927000) rotate(-360.000000) translate(-174.940500, -169.927000) translate(29.349000, 29.296000)">
                    <polygon id="Path" points="19.623 37.758 19.902 15.903 20.181 37.758 21.483 67.704 36.177 67.704 39.339 0.744 27.993 0.744 27.249 26.691 27.342 50.313 26.505 28.272 25.482 0.744 14.322 0.744 13.113 28.272 12.462 52.452 12.369 26.691 11.904 0.744 -3.18441396e-13 0.744 3.069 67.704 18.507 67.704"></polygon>
                    <polygon id="Path" points="52.452 67.704 64.263 67.704 64.263 0.744 52.452 0.744 52.452 28.179 51.15 28.179 51.15 0.744 39.432 0.744 39.432 67.704 51.15 67.704 51.15 39.246 52.452 39.246"></polygon>
                    <path d="M77.004,41.199 L77.19,23.064 L77.562,41.199 L78.213,53.382 L76.353,53.382 L77.004,41.199 Z M78.957,67.704 L90.396,67.704 L84.351,0.744 L69.843,0.744 L64.263,67.704 L75.609,67.704 L75.888,63.147 L78.678,63.147 L78.957,67.704 Z" id="Shape"></path>
                    <polygon id="Path" points="110.298 13.113 110.298 0.744 90.117 0.744 90.117 13.113 94.116 13.113 94.116 67.704 106.392 67.704 106.392 13.113"></polygon>
                    <path d="M135.408,68.448 C139.376,68.448 142.4295,67.5335 144.5685,65.7045 C146.7075,63.8755 147.777,60.76 147.777,56.358 L147.777,36.363 L136.152,36.363 L136.152,55.056 C136.152,56.11 136.1055,56.73 136.0125,56.916 C135.9195,57.102 135.718,57.195 135.408,57.195 C135.16,57.195 135.005,57.102 134.943,56.916 C134.881,56.73 134.85,56.141 134.85,55.149 L134.85,12.555 C134.85,11.563 134.881,10.974 134.943,10.788 C135.005,10.602 135.16,10.509 135.408,10.509 C135.718,10.509 135.9195,10.602 136.0125,10.788 C136.1055,10.974 136.152,11.594 136.152,12.648 L136.152,30.039 L147.777,30.039 L147.777,11.811 C147.777,7.533 146.7385,4.495 144.6615,2.697 C142.5845,0.899 139.562,0 135.594,0 C131.626,0 128.5105,0.9145 126.2475,2.7435 C123.9845,4.5725 122.853,7.595 122.853,11.811 L122.853,56.358 C122.853,60.822 123.907,63.953 126.015,65.751 C128.123,67.549 131.254,68.448 135.408,68.448 Z" id="Path"></path>
                    <path d="M160.425,41.199 L160.611,23.064 L160.983,41.199 L161.634,53.382 L159.774,53.382 L160.425,41.199 Z M162.378,67.704 L173.817,67.704 L167.772,0.744 L153.264,0.744 L147.684,67.704 L159.03,67.704 L159.309,63.147 L162.099,63.147 L162.378,67.704 Z" id="Shape"></path>
                    <polygon id="Path" points="185.349 49.476 182.187 18.228 188.511 67.704 201.717 67.704 201.717 0.744 190.557 0.744 190.557 16.647 193.998 51.057 187.581 0.744 173.817 0.744 173.817 67.704 185.349 67.704"></polygon>
                    <polygon id="Path" points="214.458 67.704 226.455 67.704 226.455 0.744 214.458 0.744"></polygon>
                    <path d="M239.289,67.704 L252.216,67.704 C255.998,67.704 259.0205,66.898 261.2835,65.286 C263.5465,63.674 264.678,60.76 264.678,56.544 L264.678,11.904 C264.678,7.688 263.6085,4.774 261.4695,3.162 C259.3305,1.55 256.37,0.744 252.588,0.744 L239.289,0.744 L239.289,67.704 Z M251.658,10.695 C251.968,10.695 252.185,10.7725 252.309,10.9275 C252.433,11.0825 252.495,11.346 252.495,11.718 L252.495,55.893 C252.495,56.451 252.433,56.8075 252.309,56.9625 C252.185,57.1175 251.937,57.195 251.565,57.195 L251.193,57.195 L251.193,10.695 L251.658,10.695 Z" id="Shape"></path>
                    <path d="M278.442,68.448 C282.286,68.448 285.3705,67.549 287.6955,65.751 C290.0205,63.953 291.183,60.853 291.183,56.451 L291.183,11.904 C291.183,7.812 290.0515,4.805 287.7885,2.883 C285.5255,0.961 282.441,0 278.535,0 C274.629,0 271.529,0.961 269.235,2.883 C266.941,4.805 265.794,7.812 265.794,11.904 L265.794,56.451 C265.794,60.853 266.9565,63.953 269.2815,65.751 C271.6065,67.549 274.66,68.448 278.442,68.448 Z M278.535,57.195 C278.225,57.195 278.0235,57.102 277.9305,56.916 C277.8375,56.73 277.791,56.141 277.791,55.149 L277.791,12.369 C277.791,11.501 277.8375,10.974 277.9305,10.788 C278.0235,10.602 278.194,10.509 278.442,10.509 C278.752,10.509 278.938,10.602 279,10.788 C279.062,10.974 279.093,11.501 279.093,12.369 L279.093,55.149 C279.093,56.079 279.062,56.6525 279,56.8695 C278.938,57.0865 278.783,57.195 278.535,57.195 Z" id="Shape"></path>
                    <polygon id="Path" points="19.623 108.758 19.902 86.903 20.181 108.758 21.483 138.704 36.177 138.704 39.339 71.744 27.993 71.744 27.249 97.691 27.342 121.313 26.505 99.272 25.482 71.744 14.322 71.744 13.113 99.272 12.462 123.452 12.369 97.691 11.904 71.744 -3.01051412e-13 71.744 3.069 138.704 18.507 138.704"></polygon>
                    <polygon id="Path" points="39.432 138.704 51.429 138.704 51.429 71.744 39.432 71.744"></polygon>
                    <polygon id="Path" points="72.633 84.113 72.633 71.744 52.452 71.744 52.452 84.113 56.451 84.113 56.451 138.704 68.727 138.704 68.727 84.113"></polygon>
                    <polygon id="Path" points="86.769 138.704 98.58 138.704 98.58 71.744 86.769 71.744 86.769 99.179 85.467 99.179 85.467 71.744 73.749 71.744 73.749 138.704 85.467 138.704 85.467 110.246 86.769 110.246"></polygon>
                    <polygon id="Path" points="122.853 127.079 120.993 84.206 124.806 138.704 134.571 138.704 138.291 85.973 136.617 126.986 136.617 138.704 147.87 138.704 147.87 71.744 131.13 71.744 130.014 94.808 129.735 119.918 129.456 94.808 128.34 71.744 111.414 71.744 111.414 138.704 122.853 138.704"></polygon>
                    <polygon id="Path" points="166.749 138.704 166.749 120.662 173.724 71.744 162.192 71.744 161.076 84.299 160.611 105.596 160.146 84.299 159.03 71.744 147.312 71.744 154.194 121.034 154.194 138.704"></polygon>
                    <path d="M13.113,152.602 C13.485,152.602 13.764,152.695 13.95,152.881 C14.136,153.067 14.229,153.377 14.229,153.811 L14.229,178.921 C14.229,179.479 14.1515,179.8355 13.9965,179.9905 C13.8415,180.1455 13.547,180.223 13.113,180.223 L12.927,180.223 L12.927,152.602 L13.113,152.602 Z M14.415,190.918 C18.693,190.918 21.7465,189.895 23.5755,187.849 C25.4045,185.803 26.319,183.106 26.319,179.758 L26.319,152.788 C26.319,149.688 25.3735,147.239 23.4825,145.441 C21.5915,143.643 18.538,142.744 14.322,142.744 L1.302,142.744 L1.302,209.704 L12.927,209.704 L12.927,190.918 L14.415,190.918 Z" id="Shape"></path>
                    <path d="M38.967,183.199 L39.153,165.064 L39.525,183.199 L40.176,195.382 L38.316,195.382 L38.967,183.199 Z M40.92,209.704 L52.359,209.704 L46.314,142.744 L31.806,142.744 L26.226,209.704 L37.572,209.704 L37.851,205.147 L40.641,205.147 L40.92,209.704 Z" id="Shape"></path>
                    <path d="M64.821,210.448 C68.789,210.448 71.8425,209.5335 73.9815,207.7045 C76.1205,205.8755 77.19,202.76 77.19,198.358 L77.19,178.363 L65.565,178.363 L65.565,197.056 C65.565,198.11 65.5185,198.73 65.4255,198.916 C65.3325,199.102 65.131,199.195 64.821,199.195 C64.573,199.195 64.418,199.102 64.356,198.916 C64.294,198.73 64.263,198.141 64.263,197.149 L64.263,154.555 C64.263,153.563 64.294,152.974 64.356,152.788 C64.418,152.602 64.573,152.509 64.821,152.509 C65.131,152.509 65.3325,152.602 65.4255,152.788 C65.5185,152.974 65.565,153.594 65.565,154.648 L65.565,172.039 L77.19,172.039 L77.19,153.811 C77.19,149.533 76.1515,146.495 74.0745,144.697 C71.9975,142.899 68.975,142 65.007,142 C61.039,142 57.9235,142.9145 55.6605,144.7435 C53.3975,146.5725 52.266,149.595 52.266,153.811 L52.266,198.358 C52.266,202.822 53.32,205.953 55.428,207.751 C57.536,209.549 60.667,210.448 64.821,210.448 Z" id="Path"></path>
                    <polygon id="Path" points="96.441 197.149 90.21 197.149 90.21 182.269 96.441 182.269 96.441 169.993 90.21 169.993 90.21 155.113 96.441 155.113 96.441 142.744 78.399 142.744 78.399 209.704 96.441 209.704"></polygon>
                    <polygon id="Path" points="109.089 198.079 107.229 155.206 111.042 209.704 120.807 209.704 124.527 156.973 122.853 197.986 122.853 209.704 134.106 209.704 134.106 142.744 117.366 142.744 116.25 165.808 115.971 190.918 115.692 165.808 114.576 142.744 97.65 142.744 97.65 209.704 109.089 209.704"></polygon>
                    <path d="M146.847,183.199 L147.033,165.064 L147.405,183.199 L148.056,195.382 L146.196,195.382 L146.847,183.199 Z M148.8,209.704 L160.239,209.704 L154.194,142.744 L139.686,142.744 L134.106,209.704 L145.452,209.704 L145.731,205.147 L148.521,205.147 L148.8,209.704 Z" id="Shape"></path>
                    <polygon id="Path" points="172.794 190.174 175.305 209.704 187.116 209.704 181.257 169.063 187.209 142.744 175.677 142.744 172.701 156.694 170.376 169.621 171.864 156.136 171.864 142.744 160.332 142.744 160.332 209.704 171.864 209.704 171.864 178.177"></polygon>
                    <polygon id="Path" points="205.065 197.149 198.834 197.149 198.834 182.269 205.065 182.269 205.065 169.993 198.834 169.993 198.834 155.113 205.065 155.113 205.065 142.744 187.023 142.744 187.023 209.704 205.065 209.704"></polygon>
                    <path d="M217.992,172.597 L217.992,152.695 L218.271,152.695 C218.643,152.695 218.9065,152.788 219.0615,152.974 C219.2165,153.16 219.294,153.439 219.294,153.811 L219.294,171.388 C219.294,171.76 219.1855,172.0545 218.9685,172.2715 C218.7515,172.4885 218.426,172.597 217.992,172.597 Z M219.294,184.78 L219.294,205.333 C219.294,206.387 219.3715,207.348 219.5265,208.216 C219.6815,209.084 219.976,209.58 220.41,209.704 L232.407,209.704 C231.787,209.084 231.3685,208.402 231.1515,207.658 C230.9345,206.914 230.826,206.015 230.826,204.961 L230.826,184.315 C230.826,182.331 230.547,180.8585 229.989,179.8975 C229.431,178.9365 228.501,178.239 227.199,177.805 C228.625,177.309 229.6015,176.472 230.1285,175.294 C230.6555,174.116 230.919,172.473 230.919,170.365 L230.919,152.137 C230.919,148.727 230.113,146.309 228.501,144.883 C226.889,143.457 224.006,142.744 219.852,142.744 L206.274,142.744 L206.274,209.704 L217.992,209.704 L217.992,183.106 C218.488,183.106 218.829,183.199 219.015,183.385 C219.201,183.571 219.294,184.036 219.294,184.78 Z" id="Shape"></path>
                    <path d="M13.02,243.597 L13.02,223.695 L13.299,223.695 C13.671,223.695 13.9345,223.788 14.0895,223.974 C14.2445,224.16 14.322,224.439 14.322,224.811 L14.322,242.388 C14.322,242.76 14.2135,243.0545 13.9965,243.2715 C13.7795,243.4885 13.454,243.597 13.02,243.597 Z M14.322,255.78 L14.322,276.333 C14.322,277.387 14.3995,278.348 14.5545,279.216 C14.7095,280.084 15.004,280.58 15.438,280.704 L27.435,280.704 C26.815,280.084 26.3965,279.402 26.1795,278.658 C25.9625,277.914 25.854,277.015 25.854,275.961 L25.854,255.315 C25.854,253.331 25.575,251.8585 25.017,250.8975 C24.459,249.9365 23.529,249.239 22.227,248.805 C23.653,248.309 24.6295,247.472 25.1565,246.294 C25.6835,245.116 25.947,243.473 25.947,241.365 L25.947,223.137 C25.947,219.727 25.141,217.309 23.529,215.883 C21.917,214.457 19.034,213.744 14.88,213.744 L1.302,213.744 L1.302,280.704 L13.02,280.704 L13.02,254.106 C13.516,254.106 13.857,254.199 14.043,254.385 C14.229,254.571 14.322,255.036 14.322,255.78 Z" id="Shape"></path>
                    <path d="M38.595,254.199 L38.781,236.064 L39.153,254.199 L39.804,266.382 L37.944,266.382 L38.595,254.199 Z M40.548,280.704 L51.987,280.704 L45.942,213.744 L31.434,213.744 L25.854,280.704 L37.2,280.704 L37.479,276.147 L40.269,276.147 L40.548,280.704 Z" id="Shape"></path>
                    <path d="M66.309,280.704 C69.967,280.704 72.633,279.898 74.307,278.286 C75.981,276.674 76.818,274.411 76.818,271.497 L76.818,252.897 C76.818,250.851 76.539,249.2545 75.981,248.1075 C75.423,246.9605 74.245,246.17 72.447,245.736 C74.369,245.302 75.578,244.4495 76.074,243.1785 C76.57,241.9075 76.818,239.846 76.818,236.994 L76.818,222.672 C76.818,219.82 75.9655,217.619 74.2605,216.069 C72.5555,214.519 69.688,213.744 65.658,213.744 L51.987,213.744 L51.987,280.704 L66.309,280.704 Z M63.891,223.137 C64.263,223.137 64.5265,223.2145 64.6815,223.3695 C64.8365,223.5245 64.914,223.788 64.914,224.16 L64.914,239.691 C64.914,240.063 64.8365,240.3575 64.6815,240.5745 C64.5265,240.7915 64.263,240.9 63.891,240.9 L63.519,240.9 L63.519,223.137 L63.891,223.137 Z M63.798,251.223 C64.17,251.223 64.449,251.316 64.635,251.502 C64.821,251.688 64.914,251.998 64.914,252.432 L64.914,269.637 C64.914,270.009 64.8365,270.288 64.6815,270.474 C64.5265,270.66 64.263,270.753 63.891,270.753 L63.519,270.753 L63.519,251.223 L63.798,251.223 Z" id="Shape"></path>
                    <path d="M92.349,280.704 C96.007,280.704 98.673,279.898 100.347,278.286 C102.021,276.674 102.858,274.411 102.858,271.497 L102.858,252.897 C102.858,250.851 102.579,249.2545 102.021,248.1075 C101.463,246.9605 100.285,246.17 98.487,245.736 C100.409,245.302 101.618,244.4495 102.114,243.1785 C102.61,241.9075 102.858,239.846 102.858,236.994 L102.858,222.672 C102.858,219.82 102.0055,217.619 100.3005,216.069 C98.5955,214.519 95.728,213.744 91.698,213.744 L78.027,213.744 L78.027,280.704 L92.349,280.704 Z M89.931,223.137 C90.303,223.137 90.5665,223.2145 90.7215,223.3695 C90.8765,223.5245 90.954,223.788 90.954,224.16 L90.954,239.691 C90.954,240.063 90.8765,240.3575 90.7215,240.5745 C90.5665,240.7915 90.303,240.9 89.931,240.9 L89.559,240.9 L89.559,223.137 L89.931,223.137 Z M89.838,251.223 C90.21,251.223 90.489,251.316 90.675,251.502 C90.861,251.688 90.954,251.998 90.954,252.432 L90.954,269.637 C90.954,270.009 90.8765,270.288 90.7215,270.474 C90.5665,270.66 90.303,270.753 89.931,270.753 L89.559,270.753 L89.559,251.223 L89.838,251.223 Z" id="Shape"></path>
                    <polygon id="Path" points="104.067 280.704 116.064 280.704 116.064 213.744 104.067 213.744"></polygon>
                    <polygon id="Path" points="137.268 226.113 137.268 213.744 117.087 213.744 117.087 226.113 121.086 226.113 121.086 280.704 133.362 280.704 133.362 226.113"></polygon>
                    <path d="M144.429,264.894 C144.863,264.522 145.4985,264.1965 146.3355,263.9175 C147.1725,263.6385 148.459,263.499 150.195,263.499 C151.993,263.499 153.295,263.623 154.101,263.871 C154.907,264.119 155.527,264.429 155.961,264.801 L155.961,258.384 C156.023,257.454 156.302,256.555 156.798,255.687 C157.294,254.819 158.007,253.982 158.937,253.176 C160.363,251.812 161.448,250.4945 162.192,249.2235 C162.936,247.9525 163.308,246.17 163.308,243.876 L163.308,222.858 C163.308,220.006 162.378,217.65 160.518,215.79 C158.658,213.93 155.403,213 150.753,213 C146.351,213 143.158,213.9455 141.174,215.8365 C139.19,217.7275 138.198,220.13 138.198,223.044 L138.198,243.597 L150.195,243.597 L150.195,224.718 C150.195,224.098 150.226,223.7105 150.288,223.5555 C150.35,223.4005 150.505,223.323 150.753,223.323 C151.001,223.323 151.156,223.4005 151.218,223.5555 C151.28,223.7105 151.311,224.067 151.311,224.625 L151.311,243.132 C151.311,243.938 151.1095,244.682 150.7065,245.364 C150.3035,246.046 149.575,246.914 148.521,247.968 C146.971,249.518 145.886,250.8355 145.266,251.9205 C144.646,253.0055 144.336,254.354 144.336,255.966 L144.336,257.64 C144.336,257.764 144.336,258.3995 144.336,259.5465 C144.336,260.6935 144.336,261.825 144.336,262.941 C144.336,263.499 144.3515,263.933 144.3825,264.243 C144.4135,264.553 144.429,264.77 144.429,264.894 Z M150.195,281.262 C152.737,281.262 154.473,280.735 155.403,279.681 C156.333,278.627 156.798,276.364 156.798,272.892 C156.798,270.474 156.612,268.676 156.24,267.498 C155.868,266.32 155.217,265.545 154.287,265.173 C153.791,264.987 153.202,264.8475 152.52,264.7545 C151.838,264.6615 151.063,264.615 150.195,264.615 C148.521,264.615 147.219,264.801 146.289,265.173 C145.359,265.545 144.708,266.32 144.336,267.498 C144.15,268.118 144.0105,268.8775 143.9175,269.7765 C143.8245,270.6755 143.778,271.714 143.778,272.892 C143.778,275.248 143.964,277.0305 144.336,278.2395 C144.708,279.4485 145.359,280.27 146.289,280.704 C146.723,280.89 147.2655,281.0295 147.9165,281.1225 C148.5675,281.2155 149.327,281.262 150.195,281.262 Z" id="Shape"></path>
                </g>
            </g>
        </g>
    </g>
</svg>