<?xml version="1.0" encoding="UTF-8"?>
<svg width="327px" height="211px" viewBox="0 0 327 211" version="1.1" xmlns="http://www.w3.org/2000/svg" xmlns:xlink="http://www.w3.org/1999/xlink">
    <title>WHAT IS PACEMAKER AN Copy</title>
    <g id="mainpage" stroke="none" stroke-width="1" fill="none" fill-rule="evenodd">
        <g id="WHAT-IS-PACEMAKER-AN-Copy" transform="translate(163.424500, 105.520000) rotate(-360.000000) translate(-163.424500, -105.520000) translate(0.349000, 0.296000)" fill="#FFFFFF" fill-rule="nonzero">
            <polygon id="Path" points="19.623 37.758 19.902 15.903 20.181 37.758 21.483 67.704 36.177 67.704 39.339 0.744 27.993 0.744 27.249 26.691 27.342 50.313 26.505 28.272 25.482 0.744 14.322 0.744 13.113 28.272 12.462 52.452 12.369 26.691 11.904 0.744 -4.09555118e-13 0.744 3.069 67.704 18.507 67.704"></polygon>
            <polygon id="Path" points="52.452 67.704 64.263 67.704 64.263 0.744 52.452 0.744 52.452 28.179 51.15 28.179 51.15 0.744 39.432 0.744 39.432 67.704 51.15 67.704 51.15 39.246 52.452 39.246"></polygon>
            <path d="M77.004,41.199 L77.19,23.064 L77.562,41.199 L78.213,53.382 L76.353,53.382 L77.004,41.199 Z M78.957,67.704 L90.396,67.704 L84.351,0.744 L69.843,0.744 L64.263,67.704 L75.609,67.704 L75.888,63.147 L78.678,63.147 L78.957,67.704 Z" id="Shape"></path>
            <polygon id="Path" points="110.298 13.113 110.298 0.744 90.117 0.744 90.117 13.113 94.116 13.113 94.116 67.704 106.392 67.704 106.392 13.113"></polygon>
            <polygon id="Path" points="122.946 67.704 134.943 67.704 134.943 0.744 122.946 0.744"></polygon>
            <path d="M148.242,68.448 C152.458,68.448 155.62,67.58 157.728,65.844 C159.836,64.108 160.89,61.07 160.89,56.73 L160.89,40.548 C160.89,38.688 160.673,37.138 160.239,35.898 C159.805,34.658 159.061,33.542 158.007,32.55 C157.449,32.054 156.798,31.527 156.054,30.969 C155.31,30.411 154.473,29.853 153.543,29.295 C151.621,27.993 150.257,27.0475 149.451,26.4585 C148.645,25.8695 148.149,25.389 147.963,25.017 C147.901,24.831 147.8545,24.6295 147.8235,24.4125 C147.7925,24.1955 147.777,23.932 147.777,23.622 L147.777,11.997 C147.777,11.129 147.8235,10.6175 147.9165,10.4625 C148.0095,10.3075 148.18,10.23 148.428,10.23 C148.738,10.23 148.924,10.3075 148.986,10.4625 C149.048,10.6175 149.079,11.129 149.079,11.997 L149.079,25.575 L160.797,25.575 L160.797,9.765 C160.797,6.665 159.7275,4.2625 157.5885,2.5575 C155.4495,0.8525 152.489,0 148.707,0 C144.677,0 141.5615,0.9455 139.3605,2.8365 C137.1595,4.7275 136.059,7.44 136.059,10.974 L136.059,24.738 C136.059,26.536 136.276,28.055 136.71,29.295 C137.144,30.535 137.919,31.682 139.035,32.736 C139.593,33.294 140.275,33.8675 141.081,34.4565 C141.887,35.0455 142.817,35.681 143.871,36.363 C145.545,37.355 146.7385,38.1145 147.4515,38.6415 C148.1645,39.1685 148.614,39.68 148.8,40.176 C148.924,40.424 149.0015,40.703 149.0325,41.013 C149.0635,41.323 149.079,41.695 149.079,42.129 L149.079,55.521 C149.079,56.451 149.0325,57.009 148.9395,57.195 C148.8465,57.381 148.676,57.474 148.428,57.474 C148.18,57.474 148.0095,57.381 147.9165,57.195 C147.8235,57.009 147.777,56.482 147.777,55.614 L147.777,39.618 L135.966,39.618 L135.966,56.823 C135.966,61.039 136.9425,64.0305 138.8955,65.7975 C140.8485,67.5645 143.964,68.448 148.242,68.448 Z" id="Path"></path>
            <path d="M13.113,81.602 C13.485,81.602 13.764,81.695 13.95,81.881 C14.136,82.067 14.229,82.377 14.229,82.811 L14.229,107.921 C14.229,108.479 14.1515,108.8355 13.9965,108.9905 C13.8415,109.1455 13.547,109.223 13.113,109.223 L12.927,109.223 L12.927,81.602 L13.113,81.602 Z M14.415,119.918 C18.693,119.918 21.7465,118.895 23.5755,116.849 C25.4045,114.803 26.319,112.106 26.319,108.758 L26.319,81.788 C26.319,78.688 25.3735,76.239 23.4825,74.441 C21.5915,72.643 18.538,71.744 14.322,71.744 L1.302,71.744 L1.302,138.704 L12.927,138.704 L12.927,119.918 L14.415,119.918 Z" id="Shape"></path>
            <path d="M38.967,112.199 L39.153,94.064 L39.525,112.199 L40.176,124.382 L38.316,124.382 L38.967,112.199 Z M40.92,138.704 L52.359,138.704 L46.314,71.744 L31.806,71.744 L26.226,138.704 L37.572,138.704 L37.851,134.147 L40.641,134.147 L40.92,138.704 Z" id="Shape"></path>
            <path d="M64.821,139.448 C68.789,139.448 71.8425,138.5335 73.9815,136.7045 C76.1205,134.8755 77.19,131.76 77.19,127.358 L77.19,107.363 L65.565,107.363 L65.565,126.056 C65.565,127.11 65.5185,127.73 65.4255,127.916 C65.3325,128.102 65.131,128.195 64.821,128.195 C64.573,128.195 64.418,128.102 64.356,127.916 C64.294,127.73 64.263,127.141 64.263,126.149 L64.263,83.555 C64.263,82.563 64.294,81.974 64.356,81.788 C64.418,81.602 64.573,81.509 64.821,81.509 C65.131,81.509 65.3325,81.602 65.4255,81.788 C65.5185,81.974 65.565,82.594 65.565,83.648 L65.565,101.039 L77.19,101.039 L77.19,82.811 C77.19,78.533 76.1515,75.495 74.0745,73.697 C71.9975,71.899 68.975,71 65.007,71 C61.039,71 57.9235,71.9145 55.6605,73.7435 C53.3975,75.5725 52.266,78.595 52.266,82.811 L52.266,127.358 C52.266,131.822 53.32,134.953 55.428,136.751 C57.536,138.549 60.667,139.448 64.821,139.448 Z" id="Path"></path>
            <polygon id="Path" points="96.441 126.149 90.21 126.149 90.21 111.269 96.441 111.269 96.441 98.993 90.21 98.993 90.21 84.113 96.441 84.113 96.441 71.744 78.399 71.744 78.399 138.704 96.441 138.704"></polygon>
            <polygon id="Path" points="109.089 127.079 107.229 84.206 111.042 138.704 120.807 138.704 124.527 85.973 122.853 126.986 122.853 138.704 134.106 138.704 134.106 71.744 117.366 71.744 116.25 94.808 115.971 119.918 115.692 94.808 114.576 71.744 97.65 71.744 97.65 138.704 109.089 138.704"></polygon>
            <path d="M146.847,112.199 L147.033,94.064 L147.405,112.199 L148.056,124.382 L146.196,124.382 L146.847,112.199 Z M148.8,138.704 L160.239,138.704 L154.194,71.744 L139.686,71.744 L134.106,138.704 L145.452,138.704 L145.731,134.147 L148.521,134.147 L148.8,138.704 Z" id="Shape"></path>
            <polygon id="Path" points="172.794 119.174 175.305 138.704 187.116 138.704 181.257 98.063 187.209 71.744 175.677 71.744 172.701 85.694 170.376 98.621 171.864 85.136 171.864 71.744 160.332 71.744 160.332 138.704 171.864 138.704 171.864 107.177"></polygon>
            <polygon id="Path" points="205.065 126.149 198.834 126.149 198.834 111.269 205.065 111.269 205.065 98.993 198.834 98.993 198.834 84.113 205.065 84.113 205.065 71.744 187.023 71.744 187.023 138.704 205.065 138.704"></polygon>
            <path d="M217.992,101.597 L217.992,81.695 L218.271,81.695 C218.643,81.695 218.9065,81.788 219.0615,81.974 C219.2165,82.16 219.294,82.439 219.294,82.811 L219.294,100.388 C219.294,100.76 219.1855,101.0545 218.9685,101.2715 C218.7515,101.4885 218.426,101.597 217.992,101.597 Z M219.294,113.78 L219.294,134.333 C219.294,135.387 219.3715,136.348 219.5265,137.216 C219.6815,138.084 219.976,138.58 220.41,138.704 L232.407,138.704 C231.787,138.084 231.3685,137.402 231.1515,136.658 C230.9345,135.914 230.826,135.015 230.826,133.961 L230.826,113.315 C230.826,111.331 230.547,109.8585 229.989,108.8975 C229.431,107.9365 228.501,107.239 227.199,106.805 C228.625,106.309 229.6015,105.472 230.1285,104.294 C230.6555,103.116 230.919,101.473 230.919,99.365 L230.919,81.137 C230.919,77.727 230.113,75.309 228.501,73.883 C226.889,72.457 224.006,71.744 219.852,71.744 L206.274,71.744 L206.274,138.704 L217.992,138.704 L217.992,112.106 C218.488,112.106 218.829,112.199 219.015,112.385 C219.201,112.571 219.294,113.036 219.294,113.78 Z" id="Shape"></path>
            <path d="M255.099,112.199 L255.285,94.064 L255.657,112.199 L256.308,124.382 L254.448,124.382 L255.099,112.199 Z M257.052,138.704 L268.491,138.704 L262.446,71.744 L247.938,71.744 L242.358,138.704 L253.704,138.704 L253.983,134.147 L256.773,134.147 L257.052,138.704 Z" id="Shape"></path>
            <polygon id="Path" points="280.023 120.476 276.861 89.228 283.185 138.704 296.391 138.704 296.391 71.744 285.231 71.744 285.231 87.647 288.672 122.057 282.255 71.744 268.491 71.744 268.491 138.704 280.023 138.704"></polygon>
            <path d="M297.6,138.704 L310.527,138.704 C314.309,138.704 317.3315,137.898 319.5945,136.286 C321.8575,134.674 322.989,131.76 322.989,127.544 L322.989,82.904 C322.989,78.688 321.9195,75.774 319.7805,74.162 C317.6415,72.55 314.681,71.744 310.899,71.744 L297.6,71.744 L297.6,138.704 Z M309.969,81.695 C310.279,81.695 310.496,81.7725 310.62,81.9275 C310.744,82.0825 310.806,82.346 310.806,82.718 L310.806,126.893 C310.806,127.451 310.744,127.8075 310.62,127.9625 C310.496,128.1175 310.248,128.195 309.876,128.195 L309.504,128.195 L309.504,81.695 L309.969,81.695 Z" id="Shape"></path>
            <path d="M13.113,152.602 C13.485,152.602 13.764,152.695 13.95,152.881 C14.136,153.067 14.229,153.377 14.229,153.811 L14.229,178.921 C14.229,179.479 14.1515,179.8355 13.9965,179.9905 C13.8415,180.1455 13.547,180.223 13.113,180.223 L12.927,180.223 L12.927,152.602 L13.113,152.602 Z M14.415,190.918 C18.693,190.918 21.7465,189.895 23.5755,187.849 C25.4045,185.803 26.319,183.106 26.319,179.758 L26.319,152.788 C26.319,149.688 25.3735,147.239 23.4825,145.441 C21.5915,143.643 18.538,142.744 14.322,142.744 L1.302,142.744 L1.302,209.704 L12.927,209.704 L12.927,190.918 L14.415,190.918 Z" id="Shape"></path>
            <path d="M38.967,183.199 L39.153,165.064 L39.525,183.199 L40.176,195.382 L38.316,195.382 L38.967,183.199 Z M40.92,209.704 L52.359,209.704 L46.314,142.744 L31.806,142.744 L26.226,209.704 L37.572,209.704 L37.851,205.147 L40.641,205.147 L40.92,209.704 Z" id="Shape"></path>
            <path d="M64.821,210.448 C68.789,210.448 71.8425,209.5335 73.9815,207.7045 C76.1205,205.8755 77.19,202.76 77.19,198.358 L77.19,178.363 L65.565,178.363 L65.565,197.056 C65.565,198.11 65.5185,198.73 65.4255,198.916 C65.3325,199.102 65.131,199.195 64.821,199.195 C64.573,199.195 64.418,199.102 64.356,198.916 C64.294,198.73 64.263,198.141 64.263,197.149 L64.263,154.555 C64.263,153.563 64.294,152.974 64.356,152.788 C64.418,152.602 64.573,152.509 64.821,152.509 C65.131,152.509 65.3325,152.602 65.4255,152.788 C65.5185,152.974 65.565,153.594 65.565,154.648 L65.565,172.039 L77.19,172.039 L77.19,153.811 C77.19,149.533 76.1515,146.495 74.0745,144.697 C71.9975,142.899 68.975,142 65.007,142 C61.039,142 57.9235,142.9145 55.6605,144.7435 C53.3975,146.5725 52.266,149.595 52.266,153.811 L52.266,198.358 C52.266,202.822 53.32,205.953 55.428,207.751 C57.536,209.549 60.667,210.448 64.821,210.448 Z" id="Path"></path>
            <polygon id="Path" points="96.441 197.149 90.21 197.149 90.21 182.269 96.441 182.269 96.441 169.993 90.21 169.993 90.21 155.113 96.441 155.113 96.441 142.744 78.399 142.744 78.399 209.704 96.441 209.704"></polygon>
            <polygon id="Path" points="109.089 198.079 107.229 155.206 111.042 209.704 120.807 209.704 124.527 156.973 122.853 197.986 122.853 209.704 134.106 209.704 134.106 142.744 117.366 142.744 116.25 165.808 115.971 190.918 115.692 165.808 114.576 142.744 97.65 142.744 97.65 209.704 109.089 209.704"></polygon>
            <path d="M146.847,183.199 L147.033,165.064 L147.405,183.199 L148.056,195.382 L146.196,195.382 L146.847,183.199 Z M148.8,209.704 L160.239,209.704 L154.194,142.744 L139.686,142.744 L134.106,209.704 L145.452,209.704 L145.731,205.147 L148.521,205.147 L148.8,209.704 Z" id="Shape"></path>
            <polygon id="Path" points="172.794 190.174 175.305 209.704 187.116 209.704 181.257 169.063 187.209 142.744 175.677 142.744 172.701 156.694 170.376 169.621 171.864 156.136 171.864 142.744 160.332 142.744 160.332 209.704 171.864 209.704 171.864 178.177"></polygon>
            <polygon id="Path" points="205.065 197.149 198.834 197.149 198.834 182.269 205.065 182.269 205.065 169.993 198.834 169.993 198.834 155.113 205.065 155.113 205.065 142.744 187.023 142.744 187.023 209.704 205.065 209.704"></polygon>
            <path d="M217.992,172.597 L217.992,152.695 L218.271,152.695 C218.643,152.695 218.9065,152.788 219.0615,152.974 C219.2165,153.16 219.294,153.439 219.294,153.811 L219.294,171.388 C219.294,171.76 219.1855,172.0545 218.9685,172.2715 C218.7515,172.4885 218.426,172.597 217.992,172.597 Z M219.294,184.78 L219.294,205.333 C219.294,206.387 219.3715,207.348 219.5265,208.216 C219.6815,209.084 219.976,209.58 220.41,209.704 L232.407,209.704 C231.787,209.084 231.3685,208.402 231.1515,207.658 C230.9345,206.914 230.826,206.015 230.826,204.961 L230.826,184.315 C230.826,182.331 230.547,180.8585 229.989,179.8975 C229.431,178.9365 228.501,178.239 227.199,177.805 C228.625,177.309 229.6015,176.472 230.1285,175.294 C230.6555,174.116 230.919,172.473 230.919,170.365 L230.919,152.137 C230.919,148.727 230.113,146.309 228.501,144.883 C226.889,143.457 224.006,142.744 219.852,142.744 L206.274,142.744 L206.274,209.704 L217.992,209.704 L217.992,183.106 C218.488,183.106 218.829,183.199 219.015,183.385 C219.201,183.571 219.294,184.036 219.294,184.78 Z" id="Shape"></path>
            <polygon id="Path" points="243.66 191.476 240.498 160.228 246.822 209.704 260.028 209.704 260.028 142.744 248.868 142.744 248.868 158.647 252.309 193.057 245.892 142.744 232.128 142.744 232.128 209.704 243.66 209.704"></polygon>
            <polygon id="Path" points="279.186 182.176 279.186 169.807 272.955 169.807 272.955 155.299 279.186 155.299 279.186 142.744 261.237 142.744 261.237 209.704 272.955 209.704 272.955 182.176"></polygon>
            <polygon id="Path" points="300.111 155.113 300.111 142.744 279.93 142.744 279.93 155.113 283.929 155.113 283.929 209.704 296.205 209.704 296.205 155.113"></polygon>
            <path d="M307.272,193.894 C307.706,193.522 308.3415,193.1965 309.1785,192.9175 C310.0155,192.6385 311.302,192.499 313.038,192.499 C314.836,192.499 316.138,192.623 316.944,192.871 C317.75,193.119 318.37,193.429 318.804,193.801 L318.804,187.384 C318.866,186.454 319.145,185.555 319.641,184.687 C320.137,183.819 320.85,182.982 321.78,182.176 C323.206,180.812 324.291,179.4945 325.035,178.2235 C325.779,176.9525 326.151,175.17 326.151,172.876 L326.151,151.858 C326.151,149.006 325.221,146.65 323.361,144.79 C321.501,142.93 318.246,142 313.596,142 C309.194,142 306.001,142.9455 304.017,144.8365 C302.033,146.7275 301.041,149.13 301.041,152.044 L301.041,172.597 L313.038,172.597 L313.038,153.718 C313.038,153.098 313.069,152.7105 313.131,152.5555 C313.193,152.4005 313.348,152.323 313.596,152.323 C313.844,152.323 313.999,152.4005 314.061,152.5555 C314.123,152.7105 314.154,153.067 314.154,153.625 L314.154,172.132 C314.154,172.938 313.9525,173.682 313.5495,174.364 C313.1465,175.046 312.418,175.914 311.364,176.968 C309.814,178.518 308.729,179.8355 308.109,180.9205 C307.489,182.0055 307.179,183.354 307.179,184.966 L307.179,186.64 C307.179,186.764 307.179,187.3995 307.179,188.5465 C307.179,189.6935 307.179,190.825 307.179,191.941 C307.179,192.499 307.1945,192.933 307.2255,193.243 C307.2565,193.553 307.272,193.77 307.272,193.894 Z M313.038,210.262 C315.58,210.262 317.316,209.735 318.246,208.681 C319.176,207.627 319.641,205.364 319.641,201.892 C319.641,199.474 319.455,197.676 319.083,196.498 C318.711,195.32 318.06,194.545 317.13,194.173 C316.634,193.987 316.045,193.8475 315.363,193.7545 C314.681,193.6615 313.906,193.615 313.038,193.615 C311.364,193.615 310.062,193.801 309.132,194.173 C308.202,194.545 307.551,195.32 307.179,196.498 C306.993,197.118 306.8535,197.8775 306.7605,198.7765 C306.6675,199.6755 306.621,200.714 306.621,201.892 C306.621,204.248 306.807,206.0305 307.179,207.2395 C307.551,208.4485 308.202,209.27 309.132,209.704 C309.566,209.89 310.1085,210.0295 310.7595,210.1225 C311.4105,210.2155 312.17,210.262 313.038,210.262 Z" id="Shape"></path>
        </g>
    </g>
</svg>