<?xml version="1.0" encoding="UTF-8"?>
<svg width="295px" height="140px" viewBox="0 0 295 140" version="1.1" xmlns="http://www.w3.org/2000/svg" xmlns:xlink="http://www.w3.org/1999/xlink">
    <title>IS THE TEAM FULLY DO</title>
    <g id="mainpage" stroke="none" stroke-width="1" fill="none" fill-rule="evenodd">
        <g id="000_FAQS--Copy-3" transform="translate(-972.000000, -1443.000000)" fill="#FFFFFF" fill-rule="nonzero">
            <g id="Group-2-Copy-11" transform="translate(942.000000, 1414.000000)">
                <g id="IS-THE-TEAM-FULLY-DO" transform="translate(177.684000, 99.020000) rotate(-360.000000) translate(-177.684000, -99.020000) translate(30.651000, 29.296000)">
                    <polygon id="Path" points="-1.81036025e-13 67.704 11.997 67.704 11.997 0.744 -1.81036025e-13 0.744"></polygon>
                    <path d="M25.296,68.448 C29.512,68.448 32.674,67.58 34.782,65.844 C36.89,64.108 37.944,61.07 37.944,56.73 L37.944,40.548 C37.944,38.688 37.727,37.138 37.293,35.898 C36.859,34.658 36.115,33.542 35.061,32.55 C34.503,32.054 33.852,31.527 33.108,30.969 C32.364,30.411 31.527,29.853 30.597,29.295 C28.675,27.993 27.311,27.0475 26.505,26.4585 C25.699,25.8695 25.203,25.389 25.017,25.017 C24.955,24.831 24.9085,24.6295 24.8775,24.4125 C24.8465,24.1955 24.831,23.932 24.831,23.622 L24.831,11.997 C24.831,11.129 24.8775,10.6175 24.9705,10.4625 C25.0635,10.3075 25.234,10.23 25.482,10.23 C25.792,10.23 25.978,10.3075 26.04,10.4625 C26.102,10.6175 26.133,11.129 26.133,11.997 L26.133,25.575 L37.851,25.575 L37.851,9.765 C37.851,6.665 36.7815,4.2625 34.6425,2.5575 C32.5035,0.8525 29.543,0 25.761,0 C21.731,0 18.6155,0.9455 16.4145,2.8365 C14.2135,4.7275 13.113,7.44 13.113,10.974 L13.113,24.738 C13.113,26.536 13.33,28.055 13.764,29.295 C14.198,30.535 14.973,31.682 16.089,32.736 C16.647,33.294 17.329,33.8675 18.135,34.4565 C18.941,35.0455 19.871,35.681 20.925,36.363 C22.599,37.355 23.7925,38.1145 24.5055,38.6415 C25.2185,39.1685 25.668,39.68 25.854,40.176 C25.978,40.424 26.0555,40.703 26.0865,41.013 C26.1175,41.323 26.133,41.695 26.133,42.129 L26.133,55.521 C26.133,56.451 26.0865,57.009 25.9935,57.195 C25.9005,57.381 25.73,57.474 25.482,57.474 C25.234,57.474 25.0635,57.381 24.9705,57.195 C24.8775,57.009 24.831,56.482 24.831,55.614 L24.831,39.618 L13.02,39.618 L13.02,56.823 C13.02,61.039 13.9965,64.0305 15.9495,65.7975 C17.9025,67.5645 21.018,68.448 25.296,68.448 Z" id="Path"></path>
                    <polygon id="Path" points="70.401 13.113 70.401 0.744 50.22 0.744 50.22 13.113 54.219 13.113 54.219 67.704 66.495 67.704 66.495 13.113"></polygon>
                    <polygon id="Path" points="84.537 67.704 96.348 67.704 96.348 0.744 84.537 0.744 84.537 28.179 83.235 28.179 83.235 0.744 71.517 0.744 71.517 67.704 83.235 67.704 83.235 39.246 84.537 39.246"></polygon>
                    <polygon id="Path" points="115.692 55.149 109.461 55.149 109.461 40.269 115.692 40.269 115.692 27.993 109.461 27.993 109.461 13.113 115.692 13.113 115.692 0.744 97.65 0.744 97.65 67.704 115.692 67.704"></polygon>
                    <polygon id="Path" points="148.335 13.113 148.335 0.744 128.154 0.744 128.154 13.113 132.153 13.113 132.153 67.704 144.429 67.704 144.429 13.113"></polygon>
                    <polygon id="Path" points="167.493 55.149 161.262 55.149 161.262 40.269 167.493 40.269 167.493 27.993 161.262 27.993 161.262 13.113 167.493 13.113 167.493 0.744 149.451 0.744 149.451 67.704 167.493 67.704"></polygon>
                    <path d="M180.141,41.199 L180.327,23.064 L180.699,41.199 L181.35,53.382 L179.49,53.382 L180.141,41.199 Z M182.094,67.704 L193.533,67.704 L187.488,0.744 L172.98,0.744 L167.4,67.704 L178.746,67.704 L179.025,63.147 L181.815,63.147 L182.094,67.704 Z" id="Shape"></path>
                    <polygon id="Path" points="204.972 56.079 203.112 13.206 206.925 67.704 216.69 67.704 220.41 14.973 218.736 55.986 218.736 67.704 229.989 67.704 229.989 0.744 213.249 0.744 212.133 23.808 211.854 48.918 211.575 23.808 210.459 0.744 193.533 0.744 193.533 67.704 204.972 67.704"></polygon>
                    <polygon id="Path" points="17.949 111.176 17.949 98.807 11.718 98.807 11.718 84.299 17.949 84.299 17.949 71.744 -1.63646041e-13 71.744 -1.63646041e-13 138.704 11.718 138.704 11.718 111.176"></polygon>
                    <path d="M31.434,139.448 C35.464,139.448 38.564,138.5335 40.734,136.7045 C42.904,134.8755 43.989,131.791 43.989,127.451 L43.989,71.744 L32.085,71.744 L32.085,125.963 C32.085,126.893 32.054,127.4665 31.992,127.6835 C31.93,127.9005 31.775,128.009 31.527,128.009 C31.217,128.009 31.0155,127.916 30.9225,127.73 C30.8295,127.544 30.783,126.955 30.783,125.963 L30.783,71.744 L18.972,71.744 L18.972,127.451 C18.972,131.729 20.0415,134.798 22.1805,136.658 C24.3195,138.518 27.404,139.448 31.434,139.448 Z" id="Path"></path>
                    <polygon id="Path" points="62.961 138.704 62.961 126.056 57.381 126.056 57.381 71.744 45.291 71.744 45.291 138.704"></polygon>
                    <polygon id="Path" points="81.654 138.704 81.654 126.056 76.074 126.056 76.074 71.744 63.984 71.744 63.984 138.704"></polygon>
                    <polygon id="Path" points="100.254 138.704 100.254 120.662 107.229 71.744 95.697 71.744 94.581 84.299 94.116 105.596 93.651 84.299 92.535 71.744 80.817 71.744 87.699 121.034 87.699 138.704"></polygon>
                    <path d="M118.296,138.704 L131.223,138.704 C135.005,138.704 138.0275,137.898 140.2905,136.286 C142.5535,134.674 143.685,131.76 143.685,127.544 L143.685,82.904 C143.685,78.688 142.6155,75.774 140.4765,74.162 C138.3375,72.55 135.377,71.744 131.595,71.744 L118.296,71.744 L118.296,138.704 Z M130.665,81.695 C130.975,81.695 131.192,81.7725 131.316,81.9275 C131.44,82.0825 131.502,82.346 131.502,82.718 L131.502,126.893 C131.502,127.451 131.44,127.8075 131.316,127.9625 C131.192,128.1175 130.944,128.195 130.572,128.195 L130.2,128.195 L130.2,81.695 L130.665,81.695 Z" id="Shape"></path>
                    <path d="M157.449,139.448 C161.293,139.448 164.3775,138.549 166.7025,136.751 C169.0275,134.953 170.19,131.853 170.19,127.451 L170.19,82.904 C170.19,78.812 169.0585,75.805 166.7955,73.883 C164.5325,71.961 161.448,71 157.542,71 C153.636,71 150.536,71.961 148.242,73.883 C145.948,75.805 144.801,78.812 144.801,82.904 L144.801,127.451 C144.801,131.853 145.9635,134.953 148.2885,136.751 C150.6135,138.549 153.667,139.448 157.449,139.448 Z M157.542,128.195 C157.232,128.195 157.0305,128.102 156.9375,127.916 C156.8445,127.73 156.798,127.141 156.798,126.149 L156.798,83.369 C156.798,82.501 156.8445,81.974 156.9375,81.788 C157.0305,81.602 157.201,81.509 157.449,81.509 C157.759,81.509 157.945,81.602 158.007,81.788 C158.069,81.974 158.1,82.501 158.1,83.369 L158.1,126.149 C158.1,127.079 158.069,127.6525 158.007,127.8695 C157.945,128.0865 157.79,128.195 157.542,128.195 Z" id="Shape"></path>
                    <polygon id="Path" points="183.396 125.405 183.861 109.781 184.326 125.405 186.186 138.704 198.09 138.704 191.952 103.364 197.439 71.744 186.186 71.744 184.419 83.369 183.954 96.203 183.396 83.369 181.629 71.744 170.004 71.744 175.584 103.178 169.539 138.704 181.629 138.704"></polygon>
                    <polygon id="Path" points="209.343 125.405 209.808 109.781 210.273 125.405 212.133 138.704 224.037 138.704 217.899 103.364 223.386 71.744 212.133 71.744 210.366 83.369 209.901 96.203 209.343 83.369 207.576 71.744 195.951 71.744 201.531 103.178 195.486 138.704 207.576 138.704"></polygon>
                    <polygon id="Path" points="241.335 126.149 235.104 126.149 235.104 111.269 241.335 111.269 241.335 98.993 235.104 98.993 235.104 84.113 241.335 84.113 241.335 71.744 223.293 71.744 223.293 138.704 241.335 138.704"></polygon>
                    <path d="M242.544,138.704 L255.471,138.704 C259.253,138.704 262.2755,137.898 264.5385,136.286 C266.8015,134.674 267.933,131.76 267.933,127.544 L267.933,82.904 C267.933,78.688 266.8635,75.774 264.7245,74.162 C262.5855,72.55 259.625,71.744 255.843,71.744 L242.544,71.744 L242.544,138.704 Z M254.913,81.695 C255.223,81.695 255.44,81.7725 255.564,81.9275 C255.688,82.0825 255.75,82.346 255.75,82.718 L255.75,126.893 C255.75,127.451 255.688,127.8075 255.564,127.9625 C255.44,128.1175 255.192,128.195 254.82,128.195 L254.448,128.195 L254.448,81.695 L254.913,81.695 Z" id="Shape"></path>
                    <path d="M275.187,122.894 C275.621,122.522 276.2565,122.1965 277.0935,121.9175 C277.9305,121.6385 279.217,121.499 280.953,121.499 C282.751,121.499 284.053,121.623 284.859,121.871 C285.665,122.119 286.285,122.429 286.719,122.801 L286.719,116.384 C286.781,115.454 287.06,114.555 287.556,113.687 C288.052,112.819 288.765,111.982 289.695,111.176 C291.121,109.812 292.206,108.4945 292.95,107.2235 C293.694,105.9525 294.066,104.17 294.066,101.876 L294.066,80.858 C294.066,78.006 293.136,75.65 291.276,73.79 C289.416,71.93 286.161,71 281.511,71 C277.109,71 273.916,71.9455 271.932,73.8365 C269.948,75.7275 268.956,78.13 268.956,81.044 L268.956,101.597 L280.953,101.597 L280.953,82.718 C280.953,82.098 280.984,81.7105 281.046,81.5555 C281.108,81.4005 281.263,81.323 281.511,81.323 C281.759,81.323 281.914,81.4005 281.976,81.5555 C282.038,81.7105 282.069,82.067 282.069,82.625 L282.069,101.132 C282.069,101.938 281.8675,102.682 281.4645,103.364 C281.0615,104.046 280.333,104.914 279.279,105.968 C277.729,107.518 276.644,108.8355 276.024,109.9205 C275.404,111.0055 275.094,112.354 275.094,113.966 L275.094,115.64 C275.094,115.764 275.094,116.3995 275.094,117.5465 C275.094,118.6935 275.094,119.825 275.094,120.941 C275.094,121.499 275.1095,121.933 275.1405,122.243 C275.1715,122.553 275.187,122.77 275.187,122.894 Z M280.953,139.262 C283.495,139.262 285.231,138.735 286.161,137.681 C287.091,136.627 287.556,134.364 287.556,130.892 C287.556,128.474 287.37,126.676 286.998,125.498 C286.626,124.32 285.975,123.545 285.045,123.173 C284.549,122.987 283.96,122.8475 283.278,122.7545 C282.596,122.6615 281.821,122.615 280.953,122.615 C279.279,122.615 277.977,122.801 277.047,123.173 C276.117,123.545 275.466,124.32 275.094,125.498 C274.908,126.118 274.7685,126.8775 274.6755,127.7765 C274.5825,128.6755 274.536,129.714 274.536,130.892 C274.536,133.248 274.722,135.0305 275.094,136.2395 C275.466,137.4485 276.117,138.27 277.047,138.704 C277.481,138.89 278.0235,139.0295 278.6745,139.1225 C279.3255,139.2155 280.085,139.262 280.953,139.262 Z" id="Shape"></path>
                </g>
            </g>
        </g>
    </g>
</svg>