<svg width="422px" height="177px" viewBox="0 0 422 177" version="1.1" xmlns="http://www.w3.org/2000/svg" xmlns:xlink="http://www.w3.org/1999/xlink">
    <g id="mainpage" stroke="none" stroke-width="1" fill="none" fill-rule="evenodd">
        <g id="PM-NFT-LP-Desktop-Copy-69" transform="translate(-926.000000, -438.000000)" fill="#FFFFFF" fill-rule="nonzero">
            <g id="CREATING-THE-ARTWORK" transform="translate(926.546000, 438.778000)">
                <path d="M28.532,99.696 C46.086,99.696 56.672,91.522 56.672,71.422 L56.672,53.466 L29.872,53.466 L29.872,70.484 C29.872,75.308 29.604,75.71 28.532,75.71 C27.192,75.71 27.058,75.308 27.058,70.484 L27.058,28.274 C27.058,23.45 27.058,23.048 28.532,23.048 C29.47,23.048 29.872,23.316 29.872,28.274 L29.872,43.818 L56.672,43.818 L56.672,28.274 C56.672,8.308 48.364,0 29.202,0 C10.978,0 0.526,8.576 0.526,28.274 L0.526,71.422 C0.526,92.326 10.844,99.696 28.532,99.696 Z" id="Path"></path>
                <path d="M58.95,98.222 L84.946,98.222 L84.946,65.392 C86.956,65.526 87.76,66.196 87.76,69.546 L87.76,90.986 C87.76,94.872 88.028,97.552 89.502,98.222 L114.828,98.222 C113.22,96.748 112.952,95.274 112.952,90.852 L112.952,69.144 C112.952,60.434 111.746,56.28 105.314,54.27 C111.344,52.126 113.22,47.704 113.22,38.056 L113.22,24.924 C113.22,5.896 105.314,1.742 87.492,1.742 L58.95,1.742 L58.95,98.222 Z M85.214,23.45 C87.358,23.45 87.894,24.12 87.894,26.666 L87.894,40.602 C87.894,42.88 87.358,43.818 84.946,43.952 L84.946,23.45 L85.214,23.45 Z" id="Shape"></path>
                <polygon id="Path" points="115.498 98.222 160.656 98.222 160.656 72.36 141.494 72.36 141.494 62.042 160.656 62.042 160.656 36.716 141.494 36.716 141.494 26.934 160.656 26.934 160.656 1.742 115.498 1.742"></polygon>
                <path d="M160.388,98.222 L185.982,98.222 L186.652,90.852 L195.094,90.852 L195.764,98.222 L221.358,98.222 L207.154,1.742 L173.788,1.742 L160.388,98.222 Z M190.002,56.682 L190.672,36.984 L191.61,56.682 L192.95,69.68 L188.796,69.68 L190.002,56.682 Z" id="Shape"></path>
                <polygon id="Path" points="230.872 98.222 257.94 98.222 257.94 26.8 267.99 26.8 267.99 1.742 220.822 1.742 220.822 26.8 230.872 26.8"></polygon>
                <polygon id="Path" points="270.268 98.222 297.47 98.222 297.47 1.742 270.268 1.742"></polygon>
                <polygon id="Path" points="300.284 98.222 325.878 98.222 325.878 76.514 320.384 34.438 332.042 98.222 361.79 98.222 361.79 1.742 336.866 1.742 336.866 20.636 342.896 67 331.238 1.742 300.284 1.742"></polygon>
                <path d="M382.694,99.696 C392.61,99.696 397.032,94.738 398.506,85.224 L399.578,98.222 L421.152,98.222 L421.152,40.736 L393.012,40.736 L393.012,66.464 L396.898,66.464 L396.898,70.216 C396.898,75.442 396.094,76.648 393.95,76.648 C391.672,76.648 391.002,75.442 391.002,70.216 L391.002,27.47 C391.002,23.182 391.27,23.048 392.476,23.048 C393.682,23.048 393.95,23.182 393.95,27.202 L393.95,35.912 L421.152,35.912 L421.152,27.604 C421.152,7.906 412.174,0.134 392.878,0.134 C375.324,0.134 364.202,8.04 364.202,28.006 L364.202,71.824 C364.202,91.924 369.026,99.696 382.694,99.696 Z" id="Path"></path>
                <polygon id="Path" points="6.825 175.222 25.207 175.222 25.207 126.719 32.032 126.719 32.032 109.702 0 109.702 0 126.719 6.825 126.719"></polygon>
                <polygon id="Path" points="33.488 109.702 33.488 175.222 51.233 175.222 51.233 150.743 53.053 150.743 53.053 175.222 70.889 175.222 70.889 109.702 53.053 109.702 53.053 133.817 51.233 133.817 51.233 109.702"></polygon>
                <polygon id="Path" points="72.709 175.222 103.376 175.222 103.376 157.659 90.363 157.659 90.363 150.652 103.376 150.652 103.376 133.453 90.363 133.453 90.363 126.81 103.376 126.81 103.376 109.702 72.709 109.702"></polygon>
                <path d="M120.12,175.222 L137.501,175.222 L137.956,170.217 L143.689,170.217 L144.144,175.222 L161.525,175.222 L151.879,109.702 L129.22,109.702 L120.12,175.222 Z M140.231,147.012 L140.686,133.635 L141.323,147.012 L142.233,155.839 L139.412,155.839 L140.231,147.012 Z" id="Shape"></path>
                <path d="M161.525,175.222 L179.179,175.222 L179.179,152.927 C180.544,153.018 181.09,153.473 181.09,155.748 L181.09,170.308 C181.09,172.947 181.272,174.767 182.273,175.222 L199.472,175.222 C198.38,174.221 198.198,173.22 198.198,170.217 L198.198,155.475 C198.198,149.56 197.379,146.739 193.011,145.374 C197.106,143.918 198.38,140.915 198.38,134.363 L198.38,125.445 C198.38,112.523 193.011,109.702 180.908,109.702 L161.525,109.702 L161.525,175.222 Z M179.361,124.444 C180.817,124.444 181.181,124.899 181.181,126.628 L181.181,136.092 C181.181,137.639 180.817,138.276 179.179,138.367 L179.179,124.444 L179.361,124.444 Z" id="Shape"></path>
                <polygon id="Path" points="206.388 175.222 224.77 175.222 224.77 126.719 231.595 126.719 231.595 109.702 199.563 109.702 199.563 126.719 206.388 126.719"></polygon>
                <polygon id="Path" points="236.873 175.222 260.26 175.222 262.444 150.925 262.99 129.813 263.445 150.925 265.447 175.222 288.561 175.222 294.476 109.702 276.185 109.702 274.82 133.453 275.093 160.844 273.91 133.362 271.908 109.702 253.981 109.702 251.888 133.362 250.887 160.844 250.978 133.453 250.068 109.702 231.322 109.702"></polygon>
                <path d="M313.586,176.223 C324.961,176.223 332.787,171.036 332.787,157.022 L332.787,127.72 C332.787,114.07 324.961,108.519 313.586,108.519 C301.756,108.519 294.385,113.979 294.385,127.72 L294.385,157.022 C294.385,171.036 301.574,176.223 313.586,176.223 Z M313.586,159.934 C312.585,159.934 312.585,159.661 312.585,156.385 L312.585,127.72 C312.585,124.444 312.585,124.171 313.586,124.171 C314.587,124.171 314.587,124.444 314.587,127.72 L314.587,156.385 C314.587,159.661 314.587,159.934 313.586,159.934 Z" id="Shape"></path>
                <path d="M334.425,175.222 L352.079,175.222 L352.079,152.927 C353.444,153.018 353.99,153.473 353.99,155.748 L353.99,170.308 C353.99,172.947 354.172,174.767 355.173,175.222 L372.372,175.222 C371.28,174.221 371.098,173.22 371.098,170.217 L371.098,155.475 C371.098,149.56 370.279,146.739 365.911,145.374 C370.006,143.918 371.28,140.915 371.28,134.363 L371.28,125.445 C371.28,112.523 365.911,109.702 353.808,109.702 L334.425,109.702 L334.425,175.222 Z M352.261,124.444 C353.717,124.444 354.081,124.899 354.081,126.628 L354.081,136.092 C354.081,137.639 353.717,138.276 352.079,138.367 L352.079,124.444 L352.261,124.444 Z" id="Shape"></path>
                <polygon id="Path" points="391.573 157.022 395.577 175.222 415.324 175.222 405.587 137.639 414.96 109.702 395.85 109.702 391.846 122.988 389.025 135.273 390.663 121.805 390.663 109.702 372.918 109.702 372.918 175.222 390.663 175.222 390.663 151.107 390.845 149.56"></polygon>
            </g>
        </g>
    </g>
</svg>