<svg width="313px" height="342px" viewBox="0 0 313 342" version="1.1" xmlns="http://www.w3.org/2000/svg" xmlns:xlink="http://www.w3.org/1999/xlink">
    <g id="mainpage" stroke="none" stroke-width="1" fill="none" fill-rule="evenodd">
        <g id="PM-NFT-LP-Desktop-Copy-69" transform="translate(-128.000000, -191.000000)" fill="#131212" fill-rule="nonzero">
            <g id="Group-2" transform="translate(100.000000, 162.000000)">
                <g id="THIS-IS-HOW-WE-ROLL" transform="translate(184.474487, 200.182969) rotate(-360.000000) translate(-184.474487, -200.182969) translate(28.892987, 29.467469)">
                    <polygon id="Path" points="9.825 96.154 36.287 96.154 36.287 26.331 46.112 26.331 46.112 1.834 -2.343938e-14 1.834 -2.343938e-14 26.331 9.825 26.331"></polygon>
                    <polygon id="Path" points="48.208 1.834 48.208 96.154 73.753 96.154 73.753 60.915 76.373 60.915 76.373 96.154 102.049 96.154 102.049 1.834 76.373 1.834 76.373 36.549 73.753 36.549 73.753 1.834"></polygon>
                    <polygon id="Path" points="104.8 96.154 131.393 96.154 131.393 1.834 104.8 1.834"></polygon>
                    <path d="M160.606,97.857 C180.125,97.857 188.64,90.521 188.64,73.622 L188.64,63.535 C188.64,51.614 184.972,47.16 170.431,39.169 C160.475,33.667 160.082,33.143 160.082,29.868 L160.082,23.842 C160.082,20.96 160.344,20.698 161.392,20.698 C162.702,20.698 162.702,21.222 162.702,24.235 L162.702,33.929 L188.247,33.929 L188.247,22.532 C188.247,7.205 178.422,1.42108547e-14 161.654,1.42108547e-14 C142.528,1.42108547e-14 133.751,8.646 133.751,24.497 L133.751,30.13 C133.751,43.361 137.026,47.16 151.043,55.151 C162.309,61.308 162.571,61.832 162.571,67.072 L162.571,72.443 C162.571,75.325 162.047,75.587 161.13,75.587 C160.213,75.587 159.82,75.194 159.82,72.836 L159.82,61.046 L133.358,61.046 L133.358,73.622 C133.358,90.259 140.956,97.857 160.606,97.857 Z" id="Path"></path>
                    <polygon id="Path" points="215.233 96.154 241.826 96.154 241.826 1.834 215.233 1.834"></polygon>
                    <path d="M271.039,97.857 C290.558,97.857 299.073,90.521 299.073,73.622 L299.073,63.535 C299.073,51.614 295.405,47.16 280.864,39.169 C270.908,33.667 270.515,33.143 270.515,29.868 L270.515,23.842 C270.515,20.96 270.777,20.698 271.825,20.698 C273.135,20.698 273.135,21.222 273.135,24.235 L273.135,33.929 L298.68,33.929 L298.68,22.532 C298.68,7.205 288.855,1.42108547e-14 272.087,1.42108547e-14 C252.961,1.42108547e-14 244.184,8.646 244.184,24.497 L244.184,30.13 C244.184,43.361 247.459,47.16 261.476,55.151 C272.742,61.308 273.004,61.832 273.004,67.072 L273.004,72.443 C273.004,75.325 272.48,75.587 271.563,75.587 C270.646,75.587 270.253,75.194 270.253,72.836 L270.253,61.046 L243.791,61.046 L243.791,73.622 C243.791,90.259 251.389,97.857 271.039,97.857 Z" id="Path"></path>
                    <polygon id="Path" points="0.294 103.394 0.294 181.154 21.354 181.154 21.354 152.102 23.514 152.102 23.514 181.154 44.682 181.154 44.682 103.394 23.514 103.394 23.514 132.014 21.354 132.014 21.354 103.394"></polygon>
                    <path d="M69.414,182.342 C82.914,182.342 92.202,176.186 92.202,159.554 L92.202,124.778 C92.202,108.578 82.914,101.99 69.414,101.99 C55.374,101.99 46.626,108.47 46.626,124.778 L46.626,159.554 C46.626,176.186 55.158,182.342 69.414,182.342 Z M69.414,163.01 C68.226,163.01 68.226,162.686 68.226,158.798 L68.226,124.778 C68.226,120.89 68.226,120.566 69.414,120.566 C70.602,120.566 70.602,120.89 70.602,124.778 L70.602,158.798 C70.602,162.686 70.602,163.01 69.414,163.01 Z" id="Shape"></path>
                    <polygon id="Path" points="98.682 181.154 126.438 181.154 129.03 152.318 129.678 127.262 130.218 152.318 132.594 181.154 160.026 181.154 167.046 103.394 145.338 103.394 143.718 131.582 144.042 164.09 142.638 131.474 140.262 103.394 118.986 103.394 116.502 131.474 115.314 164.09 115.422 131.582 114.342 103.394 92.094 103.394"></polygon>
                    <polygon id="Path" points="191.778 181.154 219.534 181.154 222.126 152.318 222.774 127.262 223.314 152.318 225.69 181.154 253.122 181.154 260.142 103.394 238.434 103.394 236.814 131.582 237.138 164.09 235.734 131.474 233.358 103.394 212.082 103.394 209.598 131.474 208.41 164.09 208.518 131.582 207.438 103.394 185.19 103.394"></polygon>
                    <polygon id="Path" points="260.25 181.154 296.646 181.154 296.646 160.31 281.202 160.31 281.202 151.994 296.646 151.994 296.646 131.582 281.202 131.582 281.202 123.698 296.646 123.698 296.646 103.394 260.25 103.394"></polygon>
                    <path d="M1.284,339.154 L41.442,339.154 L41.442,288.439 C44.547,288.646 45.789,289.681 45.789,294.856 L45.789,327.976 C45.789,333.979 46.203,338.119 48.48,339.154 L87.603,339.154 C85.119,336.877 84.705,334.6 84.705,327.769 L84.705,294.235 C84.705,280.78 82.842,274.363 72.906,271.258 C82.221,267.946 85.119,261.115 85.119,246.211 L85.119,225.925 C85.119,196.531 72.906,190.114 45.375,190.114 L1.284,190.114 L1.284,339.154 Z M41.856,223.648 C45.168,223.648 45.996,224.683 45.996,228.616 L45.996,250.144 C45.996,253.663 45.168,255.112 41.442,255.319 L41.442,223.648 L41.856,223.648 Z" id="Shape"></path>
                    <path d="M131.901,341.431 C157.776,341.431 175.578,329.632 175.578,297.754 L175.578,231.1 C175.578,200.05 157.776,187.423 131.901,187.423 C104.991,187.423 88.224,199.843 88.224,231.1 L88.224,297.754 C88.224,329.632 104.577,341.431 131.901,341.431 Z M131.901,304.378 C129.624,304.378 129.624,303.757 129.624,296.305 L129.624,231.1 C129.624,223.648 129.624,223.027 131.901,223.027 C134.178,223.027 134.178,223.648 134.178,231.1 L134.178,296.305 C134.178,303.757 134.178,304.378 131.901,304.378 Z" id="Shape"></path>
                    <polygon id="Path" points="179.304 190.114 179.304 339.154 243.474 339.154 243.474 297.547 221.532 297.547 221.532 190.114"></polygon>
                    <polygon id="Path" points="246.993 190.114 246.993 339.154 311.163 339.154 311.163 297.547 289.221 297.547 289.221 190.114"></polygon>
                </g>
            </g>
        </g>
    </g>
</svg>