<?xml version="1.0" encoding="UTF-8"?>
<svg width="416px" height="153px" viewBox="0 0 416 153" version="1.1" xmlns="http://www.w3.org/2000/svg" xmlns:xlink="http://www.w3.org/1999/xlink">
    <title>CONNECTING THE ARTWO</title>
    <g id="mainpage" stroke="none" stroke-width="1" fill="none" fill-rule="evenodd">
        <g id="PM-NFT-LP-Desktop-Copy-71" transform="translate(-926.000000, -409.000000)" fill="#FFFFFF" fill-rule="nonzero">
            <g id="CONNECTING-THE-ARTWO" transform="translate(926.546000, 409.700000)">
                <path d="M21.154,74.4 C34.254,74.4 42.154,68.3 42.154,53.3 L42.154,39.9 L22.154,39.9 L22.154,52.6 C22.154,56.2 21.954,56.5 21.154,56.5 C20.154,56.5 20.054,56.2 20.054,52.6 L20.054,21.1 C20.054,17.5 20.054,17.2 21.154,17.2 C21.854,17.2 22.154,17.4 22.154,21.1 L22.154,32.7 L42.154,32.7 L42.154,21.1 C42.154,6.2 35.954,0 21.654,0 C8.054,0 0.254,6.4 0.254,21.1 L0.254,53.3 C0.254,68.9 7.954,74.4 21.154,74.4 Z" id="Path"></path>
                <path d="M64.754,74.4 C77.254,74.4 85.854,68.7 85.854,53.3 L85.854,21.1 C85.854,6.1 77.254,0 64.754,0 C51.754,0 43.654,6 43.654,21.1 L43.654,53.3 C43.654,68.7 51.554,74.4 64.754,74.4 Z M64.754,56.5 C63.654,56.5 63.654,56.2 63.654,52.6 L63.654,21.1 C63.654,17.5 63.654,17.2 64.754,17.2 C65.854,17.2 65.854,17.5 65.854,21.1 L65.854,52.6 C65.854,56.2 65.854,56.5 64.754,56.5 Z" id="Shape"></path>
                <polygon id="Path" points="87.654 73.3 106.754 73.3 106.754 57.1 102.654 25.7 111.354 73.3 133.554 73.3 133.554 1.3 114.954 1.3 114.954 15.4 119.454 50 110.754 1.3 87.654 1.3"></polygon>
                <polygon id="Path" points="135.554 73.3 154.654 73.3 154.654 57.1 150.554 25.7 159.254 73.3 181.454 73.3 181.454 1.3 162.854 1.3 162.854 15.4 167.354 50 158.654 1.3 135.554 1.3"></polygon>
                <polygon id="Path" points="183.454 73.3 217.154 73.3 217.154 54 202.854 54 202.854 46.3 217.154 46.3 217.154 27.4 202.854 27.4 202.854 20.1 217.154 20.1 217.154 1.3 183.454 1.3"></polygon>
                <path d="M239.654,74.4 C252.754,74.4 260.654,68.3 260.654,53.3 L260.654,39.9 L240.654,39.9 L240.654,52.6 C240.654,56.2 240.454,56.5 239.654,56.5 C238.654,56.5 238.554,56.2 238.554,52.6 L238.554,21.1 C238.554,17.5 238.554,17.2 239.654,17.2 C240.354,17.2 240.654,17.4 240.654,21.1 L240.654,32.7 L260.654,32.7 L260.654,21.1 C260.654,6.2 254.454,0 240.154,0 C226.554,0 218.754,6.4 218.754,21.1 L218.754,53.3 C218.754,68.9 226.454,74.4 239.654,74.4 Z" id="Path"></path>
                <polygon id="Path" points="269.454 73.3 289.654 73.3 289.654 20 297.154 20 297.154 1.3 261.954 1.3 261.954 20 269.454 20"></polygon>
                <polygon id="Path" points="298.854 73.3 319.154 73.3 319.154 1.3 298.854 1.3"></polygon>
                <polygon id="Path" points="321.254 73.3 340.354 73.3 340.354 57.1 336.254 25.7 344.954 73.3 367.154 73.3 367.154 1.3 348.554 1.3 348.554 15.4 353.054 50 344.354 1.3 321.254 1.3"></polygon>
                <path d="M382.754,74.4 C390.154,74.4 393.454,70.7 394.554,63.6 L395.354,73.3 L411.454,73.3 L411.454,30.4 L390.454,30.4 L390.454,49.6 L393.354,49.6 L393.354,52.4 C393.354,56.3 392.754,57.2 391.154,57.2 C389.454,57.2 388.954,56.3 388.954,52.4 L388.954,20.5 C388.954,17.3 389.154,17.2 390.054,17.2 C390.954,17.2 391.154,17.3 391.154,20.3 L391.154,26.8 L411.454,26.8 L411.454,20.6 C411.454,5.9 404.754,0.1 390.354,0.1 C377.254,0.1 368.954,6 368.954,20.9 L368.954,53.6 C368.954,68.6 372.554,74.4 382.754,74.4 Z" id="Path"></path>
                <polygon id="Path" points="6.825 150.3 25.207 150.3 25.207 101.797 32.032 101.797 32.032 84.78 0 84.78 0 101.797 6.825 101.797"></polygon>
                <polygon id="Path" points="33.488 84.78 33.488 150.3 51.233 150.3 51.233 125.821 53.053 125.821 53.053 150.3 70.889 150.3 70.889 84.78 53.053 84.78 53.053 108.895 51.233 108.895 51.233 84.78"></polygon>
                <polygon id="Path" points="72.709 150.3 103.376 150.3 103.376 132.737 90.363 132.737 90.363 125.73 103.376 125.73 103.376 108.531 90.363 108.531 90.363 101.888 103.376 101.888 103.376 84.78 72.709 84.78"></polygon>
                <path d="M120.12,150.3 L137.501,150.3 L137.956,145.295 L143.689,145.295 L144.144,150.3 L161.525,150.3 L151.879,84.78 L129.22,84.78 L120.12,150.3 Z M140.231,122.09 L140.686,108.713 L141.323,122.09 L142.233,130.917 L139.412,130.917 L140.231,122.09 Z" id="Shape"></path>
                <path d="M161.525,150.3 L179.179,150.3 L179.179,128.005 C180.544,128.096 181.09,128.551 181.09,130.826 L181.09,145.386 C181.09,148.025 181.272,149.845 182.273,150.3 L199.472,150.3 C198.38,149.299 198.198,148.298 198.198,145.295 L198.198,130.553 C198.198,124.638 197.379,121.817 193.011,120.452 C197.106,118.996 198.38,115.993 198.38,109.441 L198.38,100.523 C198.38,87.601 193.011,84.78 180.908,84.78 L161.525,84.78 L161.525,150.3 Z M179.361,99.522 C180.817,99.522 181.181,99.977 181.181,101.706 L181.181,111.17 C181.181,112.717 180.817,113.354 179.179,113.445 L179.179,99.522 L179.361,99.522 Z" id="Shape"></path>
                <polygon id="Path" points="206.388 150.3 224.77 150.3 224.77 101.797 231.595 101.797 231.595 84.78 199.563 84.78 199.563 101.797 206.388 101.797"></polygon>
                <polygon id="Path" points="236.873 150.3 260.26 150.3 262.444 126.003 262.99 104.891 263.445 126.003 265.447 150.3 288.561 150.3 294.476 84.78 276.185 84.78 274.82 108.531 275.093 135.922 273.91 108.44 271.908 84.78 253.981 84.78 251.888 108.44 250.887 135.922 250.978 108.531 250.068 84.78 231.322 84.78"></polygon>
                <path d="M313.586,151.301 C324.961,151.301 332.787,146.114 332.787,132.1 L332.787,102.798 C332.787,89.148 324.961,83.597 313.586,83.597 C301.756,83.597 294.385,89.057 294.385,102.798 L294.385,132.1 C294.385,146.114 301.574,151.301 313.586,151.301 Z M313.586,135.012 C312.585,135.012 312.585,134.739 312.585,131.463 L312.585,102.798 C312.585,99.522 312.585,99.249 313.586,99.249 C314.587,99.249 314.587,99.522 314.587,102.798 L314.587,131.463 C314.587,134.739 314.587,135.012 313.586,135.012 Z" id="Shape"></path>
                <path d="M334.425,150.3 L352.079,150.3 L352.079,128.005 C353.444,128.096 353.99,128.551 353.99,130.826 L353.99,145.386 C353.99,148.025 354.172,149.845 355.173,150.3 L372.372,150.3 C371.28,149.299 371.098,148.298 371.098,145.295 L371.098,130.553 C371.098,124.638 370.279,121.817 365.911,120.452 C370.006,118.996 371.28,115.993 371.28,109.441 L371.28,100.523 C371.28,87.601 365.911,84.78 353.808,84.78 L334.425,84.78 L334.425,150.3 Z M352.261,99.522 C353.717,99.522 354.081,99.977 354.081,101.706 L354.081,111.17 C354.081,112.717 353.717,113.354 352.079,113.445 L352.079,99.522 L352.261,99.522 Z" id="Shape"></path>
                <polygon id="Path" points="391.573 132.1 395.577 150.3 415.324 150.3 405.587 112.717 414.96 84.78 395.85 84.78 391.846 98.066 389.025 110.351 390.663 96.883 390.663 84.78 372.918 84.78 372.918 150.3 390.663 150.3 390.663 126.185 390.845 124.638"></polygon>
            </g>
        </g>
    </g>
</svg>