<svg width="416px" height="173px" viewBox="0 0 416 173" version="1.1" xmlns="http://www.w3.org/2000/svg" xmlns:xlink="http://www.w3.org/1999/xlink">
    <g id="mainpage" stroke="none" stroke-width="1" fill="none" fill-rule="evenodd">
        <g id="PM-NFT-LP-Desktop-Copy-68" transform="translate(-926.000000, -451.000000)" fill="#FFFFFF" fill-rule="nonzero">
            <g id="CLAIMING-THE-ARTWORK" transform="translate(926.546000, 451.443000)">
                <path d="M27.447,95.976 C44.346,95.976 54.537,88.107 54.537,68.757 L54.537,51.471 L28.737,51.471 L28.737,67.854 C28.737,72.498 28.479,72.885 27.447,72.885 C26.157,72.885 26.028,72.498 26.028,67.854 L26.028,27.219 C26.028,22.575 26.028,22.188 27.447,22.188 C28.35,22.188 28.737,22.446 28.737,27.219 L28.737,42.183 L54.537,42.183 L54.537,27.219 C54.537,7.998 46.539,0 28.092,0 C10.548,0 0.486,8.256 0.486,27.219 L0.486,68.757 C0.486,88.881 10.419,95.976 27.447,95.976 Z" id="Path"></path>
                <polygon id="Path" points="56.73 1.677 56.73 94.557 96.72 94.557 96.72 68.628 83.046 68.628 83.046 1.677"></polygon>
                <path d="M96.333,94.557 L120.972,94.557 L121.617,87.462 L129.744,87.462 L130.389,94.557 L155.028,94.557 L141.354,1.677 L109.233,1.677 L96.333,94.557 Z M124.842,54.567 L125.487,35.604 L126.39,54.567 L127.68,67.08 L123.681,67.08 L124.842,54.567 Z" id="Shape"></path>
                <polygon id="Path" points="155.157 94.557 181.344 94.557 181.344 1.677 155.157 1.677"></polygon>
                <polygon id="Path" points="184.053 94.557 210.111 94.557 210.111 78.303 205.854 20.898 214.239 94.557 236.169 94.557 244.554 22.188 240.426 78.174 240.426 94.557 266.097 94.557 266.097 1.677 228.429 1.677 225.978 33.54 225.333 70.434 224.688 33.54 222.108 1.677 184.053 1.677"></polygon>
                <polygon id="Path" points="268.806 94.557 294.993 94.557 294.993 1.677 268.806 1.677"></polygon>
                <polygon id="Path" points="297.702 94.557 322.341 94.557 322.341 73.659 317.052 33.153 328.275 94.557 356.913 94.557 356.913 1.677 332.919 1.677 332.919 19.866 338.724 64.5 327.501 1.677 297.702 1.677"></polygon>
                <path d="M377.037,95.976 C386.583,95.976 390.84,91.203 392.259,82.044 L393.291,94.557 L414.06,94.557 L414.06,39.216 L386.97,39.216 L386.97,63.984 L390.711,63.984 L390.711,67.596 C390.711,72.627 389.937,73.788 387.873,73.788 C385.68,73.788 385.035,72.627 385.035,67.596 L385.035,26.445 C385.035,22.317 385.293,22.188 386.454,22.188 C387.615,22.188 387.873,22.317 387.873,26.187 L387.873,34.572 L414.06,34.572 L414.06,26.574 C414.06,7.611 405.417,0.129 386.841,0.129 C369.942,0.129 359.235,7.74 359.235,26.961 L359.235,69.144 C359.235,88.494 363.879,95.976 377.037,95.976 Z" id="Path"></path>
                <polygon id="Path" points="6.825 171.557 25.207 171.557 25.207 123.054 32.032 123.054 32.032 106.037 0 106.037 0 123.054 6.825 123.054"></polygon>
                <polygon id="Path" points="33.488 106.037 33.488 171.557 51.233 171.557 51.233 147.078 53.053 147.078 53.053 171.557 70.889 171.557 70.889 106.037 53.053 106.037 53.053 130.152 51.233 130.152 51.233 106.037"></polygon>
                <polygon id="Path" points="72.709 171.557 103.376 171.557 103.376 153.994 90.363 153.994 90.363 146.987 103.376 146.987 103.376 129.788 90.363 129.788 90.363 123.145 103.376 123.145 103.376 106.037 72.709 106.037"></polygon>
                <path d="M120.12,171.557 L137.501,171.557 L137.956,166.552 L143.689,166.552 L144.144,171.557 L161.525,171.557 L151.879,106.037 L129.22,106.037 L120.12,171.557 Z M140.231,143.347 L140.686,129.97 L141.323,143.347 L142.233,152.174 L139.412,152.174 L140.231,143.347 Z" id="Shape"></path>
                <path d="M161.525,171.557 L179.179,171.557 L179.179,149.262 C180.544,149.353 181.09,149.808 181.09,152.083 L181.09,166.643 C181.09,169.282 181.272,171.102 182.273,171.557 L199.472,171.557 C198.38,170.556 198.198,169.555 198.198,166.552 L198.198,151.81 C198.198,145.895 197.379,143.074 193.011,141.709 C197.106,140.253 198.38,137.25 198.38,130.698 L198.38,121.78 C198.38,108.858 193.011,106.037 180.908,106.037 L161.525,106.037 L161.525,171.557 Z M179.361,120.779 C180.817,120.779 181.181,121.234 181.181,122.963 L181.181,132.427 C181.181,133.974 180.817,134.611 179.179,134.702 L179.179,120.779 L179.361,120.779 Z" id="Shape"></path>
                <polygon id="Path" points="206.388 171.557 224.77 171.557 224.77 123.054 231.595 123.054 231.595 106.037 199.563 106.037 199.563 123.054 206.388 123.054"></polygon>
                <polygon id="Path" points="236.873 171.557 260.26 171.557 262.444 147.26 262.99 126.148 263.445 147.26 265.447 171.557 288.561 171.557 294.476 106.037 276.185 106.037 274.82 129.788 275.093 157.179 273.91 129.697 271.908 106.037 253.981 106.037 251.888 129.697 250.887 157.179 250.978 129.788 250.068 106.037 231.322 106.037"></polygon>
                <path d="M313.586,172.558 C324.961,172.558 332.787,167.371 332.787,153.357 L332.787,124.055 C332.787,110.405 324.961,104.854 313.586,104.854 C301.756,104.854 294.385,110.314 294.385,124.055 L294.385,153.357 C294.385,167.371 301.574,172.558 313.586,172.558 Z M313.586,156.269 C312.585,156.269 312.585,155.996 312.585,152.72 L312.585,124.055 C312.585,120.779 312.585,120.506 313.586,120.506 C314.587,120.506 314.587,120.779 314.587,124.055 L314.587,152.72 C314.587,155.996 314.587,156.269 313.586,156.269 Z" id="Shape"></path>
                <path d="M334.425,171.557 L352.079,171.557 L352.079,149.262 C353.444,149.353 353.99,149.808 353.99,152.083 L353.99,166.643 C353.99,169.282 354.172,171.102 355.173,171.557 L372.372,171.557 C371.28,170.556 371.098,169.555 371.098,166.552 L371.098,151.81 C371.098,145.895 370.279,143.074 365.911,141.709 C370.006,140.253 371.28,137.25 371.28,130.698 L371.28,121.78 C371.28,108.858 365.911,106.037 353.808,106.037 L334.425,106.037 L334.425,171.557 Z M352.261,120.779 C353.717,120.779 354.081,121.234 354.081,122.963 L354.081,132.427 C354.081,133.974 353.717,134.611 352.079,134.702 L352.079,120.779 L352.261,120.779 Z" id="Shape"></path>
                <polygon id="Path" points="391.573 153.357 395.577 171.557 415.324 171.557 405.587 133.974 414.96 106.037 395.85 106.037 391.846 119.323 389.025 131.608 390.663 118.14 390.663 106.037 372.918 106.037 372.918 171.557 390.663 171.557 390.663 147.442 390.845 145.895"></polygon>
            </g>
        </g>
    </g>
</svg>